<svg enable-background="new 0 0 128 128" viewBox="0 0 128 128" xmlns="http://www.w3.org/2000/svg"><path d="m0 14.2v14.2h7.1c0-3.5 0-10.7 0-14.2z" fill="#9a7536"/><g fill="#565045"><path d="m120.9 0h-7.1v7.1h7.1v120.9h7.1c0-42.5 0-85.5 0-128z"/><path d="m99.6 0c-3.6 0-10.7 0-14.3 0v35.6c-13.8 0-28.8 0-42.7 0 0-11.4 0-24.2 0-35.6-3.5 0-10.6 0-14.2 0v7.1h7.1v85.3h21.3v-7.1c-3.5 0-10.7 0-14.2 0 0-13.8 0-28.8 0-42.7h42.7v42.7c-3.5 0-10.7 0-14.2 0v7.1h21.3c0-28.3 0-57.1 0-85.3h7.1v-7.1z"/><path d="m14.3 0c-3.5 0-10.8 0-14.3 0v14.2h7.1v-7.1h7.2z"/><path d="m0 35.6v92.4h7.1c0-33 0-66.5 0-99.6h-7.1z"/><path d="m99.6 99.6v14.2h14.2c0-3.5 0-10.7 0-14.2-3.6 0-10.7 0-14.2 0z"/><path d="m14.2 99.6v14.2h14.2c0-3.5 0-10.7 0-14.2-3.5 0-10.6 0-14.2 0z"/></g><path d="m113.8 7.1v-7.1c-3.5 0-10.7 0-14.2 0v7.1h-7.1v85.3c-6.3 0-15 0-21.3 0v-7.1h14.2c0-13.8 0-28.8 0-42.7-13.8 0-28.8 0-42.7 0v42.7h14.2v7.1c-6.3 0-15 0-21.3 0 0-28.3 0-57.1 0-85.3h-7.1v-7.1c-3.5 0-10.7 0-14.2 0v7.1h-7.2v120.9h113.8c0-40.2 0-80.7 0-120.9h-7.1zm-99.6 99.6v-7.1h14.2v14.2c-3.5 0-10.7 0-14.2 0zm99.6 0v7.1c-3.5 0-10.7 0-14.2 0 0-3.5 0-10.7 0-14.2h14.2z" fill="#a7a07f"/></svg>