<svg enable-background="new 0 0 128 128" viewBox="0 0 128 128" xmlns="http://www.w3.org/2000/svg"><path d="m120.9 56.9v14.2h7.1c0-3.5 0-10.7 0-14.2z" fill="#9a7536"/><g fill="#565045"><path d="m120.9 0c-16.3 0-33.5 0-49.8 0v7.1h49.8v49.8h7.1c0-18.7 0-38.2 0-56.9z"/><path d="m14.2 7.1h28.5v7.1h7.1v-7.1h7.1v-7.1c-18.7 0-38.2 0-56.9 0v7.1z"/><path d="m92.4 49.8c0-3.5 0-10.7 0-14.2-3.5 0-10.7 0-14.2 0v14.2z"/><path d="m120.9 78.2v42.7c-23.5 0-47.6 0-71.1 0v-7.1h-7.1v7.1c-11.4 0-24.2 0-35.6 0 0-8.9 0-19.5 0-28.4h35.6v7.1h7.1c0-23.5 0-47.6 0-71.1h-7.1v7.1c-13.8 0-28.8 0-42.7 0v7.1h42.7v42.7c-13.8 0-28.8 0-42.7 0v42.6h128c0-18.7 0-38.2 0-56.9h-7.1z"/><path d="m78.2 85.3v7.1h14.2c0-3.5 0-10.7 0-14.2-3.5 0-10.7 0-14.2 0z"/></g><path d="m113.8 7.1c-13.8 0-28.8 0-42.7 0v-7.1c-3.5 0-10.8 0-14.3 0v7.1h-7.1v7.1h-7.1v-7.1c-13.8 0-28.8 0-42.7 0v28.5h42.7v-7.1h7.1v71.1h-7.1v-7.1c-11.4 0-24.2 0-35.6 0v28.4h35.6v-7.1h7.1v7.1h71.1c0-37.8 0-76 0-113.8.1 0-7 0-7 0zm-21.4 35.6v7.1c-3.5 0-10.7 0-14.2 0 0-3.5 0-10.7 0-14.2h14.2zm0 42.6v7.1c-3.5 0-10.7 0-14.2 0 0-3.5 0-10.7 0-14.2h14.2z" fill="#a7a07f"/></svg>