<svg enable-background="new 0 0 128 128" viewBox="0 0 128 128" xmlns="http://www.w3.org/2000/svg"><path d="m64 120.9h-7.1v7.1h14.2v-7.1z" fill="#9a7536"/><path d="m113.8 7.1c-21.1 0-42.9 0-64 0v28.4h-7.1v-7.1c-11.4 0-24.2 0-35.6 0v71.1h35.6v-7.1h7.1v28.5h71.1c0-37.8 0-76.1 0-113.9zm-71.1 71.1v-7.1h7.1v7.1zm56.9-42.6v7.1c-3.5 0-10.7 0-14.2 0 0-3.5 0-10.7 0-14.2h14.2zm0 56.8v7.1c-3.5 0-10.7 0-14.2 0 0-3.5 0-10.7 0-14.2h14.2zm-49.8-35.5h-7.1v-7.1h7.1z" fill="#a7a07f"/><g fill="#565045"><path d="m120.9 0c-25.9 0-52.4 0-78.2 0v21.3c-13.8 0-28.8 0-42.7 0v85.3h42.7v21.4h14.2v-7.1h-7.1c0-8.9 0-19.6 0-28.5h-7.1v7.1c-11.4 0-24.2 0-35.6 0 0-23.5 0-47.6 0-71.1h35.6v7.1h7.1c0-8.9 0-19.5 0-28.4h71.1v113.8c-16.3 0-33.5 0-49.8 0v7.1h56.9c0-42.5 0-85.5 0-128z"/><path d="m99.6 42.7c0-3.5 0-10.7 0-14.2-3.5 0-10.7 0-14.2 0v14.2z"/><path d="m42.7 49.8h7.1v7.1h-7.1z"/><path d="m42.7 71.1h7.1v7.1h-7.1z"/><path d="m85.4 92.4v7.1h14.2c0-3.5 0-10.7 0-14.2-3.5 0-10.7 0-14.2 0z"/></g></svg>