<svg enable-background="new 0 0 128 128" viewBox="0 0 128 128" xmlns="http://www.w3.org/2000/svg"><g fill="#565045"><path d="m120.9 0v78.2c-13.8 0-28.8 0-42.7 0v49.8h7.1c0-13.8 0-28.8 0-42.7h42.7c0-28.3 0-57.1 0-85.3z"/><path d="m85.3 49.8h7.1c0-16.3 0-33.5 0-49.8h-7.1v42.7c-13.8 0-28.8 0-42.7 0 0-13.8 0-28.8 0-42.7h-7v49.8z"/><path d="m35.6 78.2c-8.9 0-19.5 0-28.5 0 0-25.9 0-52.3 0-78.2h-7.1v85.3h42.7v42.7h7.1c0-16.3 0-33.5 0-49.8-3.6 0-10.7 0-14.2 0z"/></g><path d="m113.8 0c-6.3 0-15.1 0-21.4 0v49.8c-18.7 0-38.2 0-56.9 0 0-16.3 0-33.5 0-49.8-8.9 0-19.5 0-28.4 0v78.2h42.7v49.8h28.4c0-16.3 0-33.5 0-49.8h42.7c0-25.9 0-52.3 0-78.2z" fill="#a7a07f"/></svg>