<svg enable-background="new 0 0 128 128" viewBox="0 0 128 128" xmlns="http://www.w3.org/2000/svg"><g fill="#565045"><path d="m92.4 28.4h7.1v7.1h-7.1z"/><path d="m92.4 56.9h7.1v7.1h-7.1z"/><path d="m120.9 85.3c0-28.3 0-57.1 0-85.3-21.1 0-42.9 0-64 0v28.4c-3.5 0-10.7 0-14.2 0 0-8.9 0-19.5 0-28.4-13.9 0-28.9 0-42.7 0v7h35.6v35.5h7.1v-7.1h28.4v7.1h7.1c0-6.3 0-15 0-21.3-3.5 0-10.7 0-14.2 0 0-3.5 0-10.7 0-14.2h49.8v78.3c-16.3 0-33.5 0-49.8 0 0-3.5 0-10.7 0-14.2h14.2c0-6.3 0-15 0-21.3h-7.1v7.1c-8.9 0-19.5 0-28.4 0v-7.1h-7.1v42.7h92.4v-7.2zm-71.1 0h-7.1c0-6.3 0-15 0-21.3h14.2v21.3z"/><path d="m120.9 120.9h7.1v7.1h-7.1z"/><path d="m78.2 120.9c-23.5 0-47.6 0-71.1 0 0-28.3 0-57.2 0-85.4h-7.1v92.5h92.4v-7.1c-3.5 0-10.6 0-14.2 0z"/></g><path d="m120.9 92.5c-28.3 0-57.1 0-85.3 0 0-13.8 0-28.8 0-42.7h7.1v7.1h28.4v-7.1h7.1v21.3c-3.5 0-10.7 0-14.2 0v14.2h49.8c0-25.9 0-52.4 0-78.3-16.3 0-33.5 0-49.8 0v14.2h14.2v21.3h-7.1v-7.1c-8.9 0-19.5 0-28.4 0v7.1h-7.1c0-11.4 0-24.2 0-35.5-11.4 0-24.2 0-35.6 0v28.5h7.1v85.4h85.3v7.1h28.5v-7.1h7.1c0-8.9 0-19.5 0-28.4zm-28.5-64.1h7.1v7.1h-7.1zm7.2 35.6h-7.1v-7.1h7.1z" fill="#a7a07f"/></svg>