<svg enable-background="new 0 0 128 128" viewBox="0 0 128 128" xmlns="http://www.w3.org/2000/svg"><g fill="#565045"><path d="m120.9 0v78.2c-13.8 0-28.8 0-42.7 0v49.8h7.1c0-13.8 0-28.8 0-42.7h42.7c0-28.3 0-57.1 0-85.3z"/><path d="m85.3 49.8h7.1c0-16.3 0-33.5 0-49.8h-7.1v42.7c-13.8 0-28.8 0-42.7 0v42.7c-13.8 0-28.7 0-42.6 0v7.1h49.8c0-13.8 0-28.8 0-42.7z"/><path d="m35.6 120.9c-11.4 0-24.2 0-35.6 0v7.1h49.8v-7.1c-3.6 0-10.7 0-14.2 0z"/></g><path d="m113.8 0c-6.3 0-15.1 0-21.4 0v49.8c-13.8 0-28.8 0-42.7 0v42.7c-16.3 0-33.5 0-49.8 0v28.4h49.8v7.1h28.4c0-16.3 0-33.5 0-49.8h42.7c0-25.9 0-52.3 0-78.2z" fill="#a7a07f"/></svg>