<svg enable-background="new 0 0 128 128" viewBox="0 0 128 128" xmlns="http://www.w3.org/2000/svg"><g fill="#9a7536"><path d="m56.9 0v7.1h14.2v-7.1c-3.5 0-10.7 0-14.2 0z"/><path d="m120.9 56.9v14.2h7.1c0-3.5 0-10.7 0-14.2z"/><path d="m56.9 85.3v7.1h14.2v-7.1c-3.5 0-10.7 0-14.2 0z"/><path d="m0 106.7v7.1h7.1c0-3.5 0-10.7 0-14.2h-7.1z"/></g><g fill="#565045"><path d="m120.9 0c-16.3 0-33.5 0-49.8 0v7.1h49.8v49.8h7.1c0-18.7 0-38.2 0-56.9z"/><path d="m78.2 42.7v42.7h-7.1v7.1h14.3c0-18.7 0-38.2 0-56.9-13.8 0-28.8 0-42.7 0v64h7.1v-7.1h7.1v-7.1h-7.1c0-13.8 0-28.8 0-42.7z"/><path d="m120.9 78.2v42.7c-16.3 0-33.5 0-49.8 0v7.1h56.9c0-18.7 0-38.2 0-56.9h-7.1z"/><path d="m49.8 113.8h-7.1v7.1c-11.4 0-24.2 0-35.6 0v-7.1h-7.1v14.2h56.9v-7.1h-7.1z"/><path d="m7.1 92.4c0-28.3 0-57.1 0-85.3h49.8v-7.1c-18.7 0-38.2 0-56.9 0v99.6h7.1z"/></g><path d="m113.8 7.1c-35.4 0-71.3 0-106.7 0v113.8h35.6v-7.1h7.1v7.1h7.1v7.1h14.2v-7.1h49.8c0-37.8 0-76 0-113.8h-7.1zm-71.1 85.3c0-18.7 0-38.2 0-56.9h42.7v56.9c-11.4 0-24.2 0-35.6 0v7.1h-7.1z" fill="#a7a07f"/><path d="m64 85.3h14.2c0-13.8 0-28.8 0-42.7-8.9 0-19.5 0-28.4 0v42.7z" fill="#a7a07f"/></svg>