<svg enable-background="new 0 0 128 128" viewBox="0 0 128 128" xmlns="http://www.w3.org/2000/svg"><path d="m106.7 120.9h-7.1v7.1h14.2v-7.1z" fill="#9a7536"/><path d="m120.9 42.7c-25.9 0-52.3 0-78.2 0 0-13.8 0-28.8 0-42.7h-7.1v42.7h-7.1v7.1h92.4v71.1h-7.1v7.1h14.2c0-28.3 0-57.1 0-85.3z" fill="#565045"/><path d="m85.3 120.9c-25.9 0-52.3 0-78.2 0 0-23.5 0-47.6 0-71.1h7.1v-7.1h-7.1c0-13.8 0-28.8 0-42.7h-7.1v128h99.6v-7.1c-3.6 0-10.7 0-14.3 0z" fill="#565045"/><path d="m113.8 49.8c-28.3 0-57.1 0-85.3 0v-7.1h7.1c0-13.8 0-28.8 0-42.7-9 0-19.6 0-28.5 0v42.7h7.1v7.1h-7.1v71.1h113.8c0-23.5 0-47.6 0-71.1z" fill="#a7a07f"/></svg>