<svg enable-background="new 0 0 128 128" viewBox="0 0 128 128" xmlns="http://www.w3.org/2000/svg"><path d="m0 64v7.1h7.1c0-3.5 0-10.7 0-14.2h-7.1z" fill="#9a7536"/><path d="m64 120.9h-7.1v7.1h14.2v-7.1z" fill="#9a7536"/><path d="m113.8 7.1c-30.6 0-61.8 0-92.4 0v14.2c-3.5 0-10.7 0-14.2 0v64h35.6c0-13.8 0-28.8 0-42.7h42.7v42.7c-13.8 0-28.8 0-42.7 0v35.6h78.2c0-37.8 0-76 0-113.8-.1 0-7.2 0-7.2 0z" fill="#a7a07f"/><g fill="#565045"><path d="m120.9 0c-35.4 0-71.3 0-106.7 0v14.2c-3.5 0-10.7 0-14.2 0v42.7h7.1c0-11.4 0-24.2 0-35.6h14.2c0-3.5 0-10.7 0-14.2h99.6v113.8c-16.3 0-33.5 0-49.8 0v7.1h56.9c0-42.5 0-85.5 0-128z"/><path d="m78.2 85.3h7.2c0-13.8 0-28.8 0-42.7-13.8 0-28.8 0-42.7 0v42.7zm-14.2-7.1c-3.5 0-10.7 0-14.2 0 0-8.9 0-19.5 0-28.4h28.4v28.4c-3.5 0-10.7 0-14.2 0z"/><path d="m28.4 85.3c-6.3 0-15 0-21.3 0 0-3.5 0-10.7 0-14.2h-7.1v21.3h35.6v35.6h21.3v-7.1c-3.5 0-10.7 0-14.2 0 0-11.4 0-24.2 0-35.6-3.6 0-10.7 0-14.3 0z"/></g></svg>