<svg enable-background="new 0 0 128 128" viewBox="0 0 128 128" xmlns="http://www.w3.org/2000/svg"><path d="m128 7.1c-13.8 0-35.9 0-49.8 0v-7.1c-8.9 0-19.5 0-28.4 0v49.8c-16.3 0-33.5 0-49.8 0v28.4h35.5v7.1h-7.1v35.6h49.8c0-11.4 0-24.2 0-35.6h-7.1v-7.1h7.1c0-13.8 0-28.8 0-42.7h49.8c0-8.8 0-19.5 0-28.4zm-71.1 78.2h-7.1v-7.1h7.1z" fill="#a7a07f"/><g fill="#565045"><path d="m128 0c-13.9 0-35.9 0-49.8 0v7.1h49.8z"/><path d="m113.8 35.6c-11.4 0-24.2 0-35.6 0v42.7h-7.1v7.1h7.1v35.6c-16.3 0-33.5 0-49.8 0 0-11.4 0-24.2 0-35.6h7.1v-7.1c-11.4 0-24.2 0-35.5 0v7.1h21.2v42.6h64c0-28.3 0-57 0-85.2h42.8v-7.2c-3.4-.1-10.7 0-14.2 0z"/><path d="m49.8 78.2h7.1v7.1h-7.1z"/><path d="m14.2 49.8h35.6c0-16.3 0-33.5 0-49.8h-7.1v42.7c-13.8 0-28.8 0-42.7 0v7.1z"/></g></svg>