<svg enable-background="new 0 0 128 128" viewBox="0 0 128 128" xmlns="http://www.w3.org/2000/svg"><g fill="#2d2421"><path d="m0 7.1v120.9h7.1c0-42.5 0-85.5 0-128h-7.1z"/><path d="m35.6 28.4h7.1v7.1h-7.1z"/><path d="m35.6 56.9h7.1v7.1h-7.1z"/><path d="m120.9 85.3c-8.9 0-19.5 0-28.4 0 0-28.3 0-57.1 0-85.3-18.7 0-38.3 0-56.9 0v14.2h7.1v-7.1h42.7v78.2c-13.8 0-28.8 0-42.7 0v-7.1h-7.1v14.2h92.4v-7.1z"/><path d="m113.8 120.9c-25.9 0-52.3 0-78.2 0v7.1h92.4v-7.1c-3.5 0-10.7 0-14.2 0z"/></g><path d="m120.9 92.4c-28.3 0-57.1 0-85.3 0 0-3.5 0-10.7 0-14.2h7.1v7.1h42.7c0-25.9 0-52.3 0-78.2-13.8 0-28.8 0-42.7 0v7.1h-7.1c0-3.5 0-10.7 0-14.2-9 0-19.6 0-28.5 0v128h28.4v-7.1h92.4c0-8.9 0-19.5 0-28.4zm-85.3-64h7.1v7.1h-7.1zm0 28.5h7.1v7.1h-7.1z" fill="#ede1d9"/></svg>