<svg enable-background="new 0 0 128 128" viewBox="0 0 128 128" xmlns="http://www.w3.org/2000/svg"><path d="m120.9 85.3c-11.4 0-24.2 0-35.6 0 0-28.3 0-57.1 0-85.3-28.2 0-57 0-85.3 0v7.1h78.2v85.3h49.8v-7.1z" fill="#565045"/><path d="m113.8 120.9c-21.1 0-42.9 0-64 0 0-28.3 0-57.1 0-85.3-16.3 0-33.5 0-49.8 0v7.1h42.7v85.3h85.3v-7.1c-3.5 0-10.7 0-14.2 0z" fill="#565045"/><path d="m120.9 92.4c-13.8 0-28.8 0-42.7 0 0-28.3 0-57.1 0-85.3-25.9 0-52.3 0-78.2 0v28.5h49.8v85.3h78.2c0-8.9 0-19.5 0-28.4z" fill="#a7a07f"/></svg>