<svg enable-background="new 0 0 128 128" viewBox="0 0 128 128" xmlns="http://www.w3.org/2000/svg"><g fill="#9a7536"><path d="m120.9 14.2v14.2h7.1c0-3.5 0-10.7 0-14.2z"/><path d="m85.3 21.3v7.1h7.1c0-3.5 0-10.7 0-14.2h-7.1z"/><path d="m35.5 21.3v7.1h7.1c0-3.5 0-10.7 0-14.2h-7.1z"/><path d="m99.6 120.9v7.1h14.2v-7.1c-3.6 0-10.7 0-14.2 0z"/><path d="m14.2 120.9v7.1h14.2v-7.1c-3.5 0-10.6 0-14.2 0z"/></g><path d="m120.9 0c-40.2 0-80.7 0-120.9 0v128h14.2v-7.1h-7.1c0-37.8 0-76 0-113.8h28.4v7.1h7.1v-7.1h42.7v7.1h7.1v-7.1h28.5v7.1h7.1c0-3.5 0-10.7 0-14.2z" fill="#565045"/><path d="m120.9 35.6v85.3h-7.1v7.1h14.2c0-33 0-66.5 0-99.6h-7.1z" fill="#565045"/><path d="m92.4 113.8c0-28.3 0-57.2 0-85.4h-7.1v7.1c-13.8 0-28.8 0-42.7 0v-7.1h-7.1v92.5h-7.1v7.1h14.2c0-28.3 0-57.1 0-85.3h42.7v85.3h14.2v-7.1h-7.1z" fill="#565045"/><path d="m113.8 7.1c-6.3 0-15.1 0-21.4 0v113.8h28.5c0-37.8 0-76 0-113.8 0 0-7.1 0-7.1 0z" fill="#a7a07f"/><path d="m71.1 7.1c-8.9 0-19.6 0-28.5 0v28.5h42.8c0-8.9 0-19.5 0-28.5-3.6 0-10.7 0-14.3 0z" fill="#a7a07f"/><path d="m21.3 7.1c-3.5 0-10.7 0-14.2 0v113.8h28.4c0-37.8 0-76 0-113.8-3.5 0-10.6 0-14.2 0z" fill="#a7a07f"/></svg>