<svg enable-background="new 0 0 128 128" viewBox="0 0 128 128" xmlns="http://www.w3.org/2000/svg"><path d="m64 120.9h-7.1v7.1h14.2v-7.1z" fill="#9a7536"/><g fill="#565045"><path d="m120.9 0c-40.2 0-80.7 0-120.9 0v128h56.9v-7.1c-16.3 0-33.5 0-49.8 0 0-37.8 0-76 0-113.8h113.8v113.8c-16.3 0-33.5 0-49.8 0v7.1h56.9c0-42.5 0-85.5 0-128z"/><path d="m113.8 28.4c0-3.5 0-10.7 0-14.2-3.5 0-10.7 0-14.2 0v14.2z"/><path d="m28.4 21.3v-7.1c-3.5 0-10.7 0-14.2 0v14.2h14.2z"/><path d="m71.1 85.3h14.2c0-3.5 0-10.7 0-14.2h-7.1c0-3.5 0-10.7 0-14.2h7.1c0-3.5 0-10.7 0-14.2-3.5 0-10.7 0-14.2 0v7.1c-3.5 0-10.7 0-14.2 0v-7.1c-3.5 0-10.7 0-14.2 0v14.2h7.1v14.2h-7.1v14.2h14.2v-7.1h14.2z"/><path d="m99.6 106.7v7.1h14.2c0-3.5 0-10.7 0-14.2-3.5 0-10.7 0-14.2 0z"/><path d="m14.2 99.6v14.2h14.2c0-3.5 0-10.7 0-14.2-3.5 0-10.6 0-14.2 0z"/></g><path d="m113.8 7.1c-35.4 0-71.3 0-106.7 0v113.8h113.8c0-37.8 0-76 0-113.8 0 0-7.1 0-7.1 0zm-28.5 42.7v7.1h-7.1v14.2h7.1v14.2c-3.5 0-10.7 0-14.2 0v-7.1c-3.5 0-10.7 0-14.2 0v7.1c-3.5 0-10.7 0-14.2 0 0-3.5 0-10.7 0-14.2h7.1c0-3.5 0-10.7 0-14.2h-7.1c0-3.5 0-10.7 0-14.2h14.2v7.1h14.2v-7.1h14.2zm-71.1-28.5v-7.1h14.2v14.2c-3.5 0-10.7 0-14.2 0zm7.1 92.5h-7.1c0-3.5 0-10.7 0-14.2h14.2v14.2zm92.5-7.1v7.1c-3.5 0-10.7 0-14.2 0 0-3.5 0-10.7 0-14.2h14.2zm0-85.4v7.1c-3.5 0-10.7 0-14.2 0 0-3.5 0-10.7 0-14.2h14.2z" fill="#a7a07f"/></svg>