<svg enable-background="new 0 0 128 128" viewBox="0 0 128 128" xmlns="http://www.w3.org/2000/svg"><g fill="#565045"><path d="m120.9 0c-40.2 0-80.7 0-120.9 0v7.1h35.6v7.1h7.1v-7.1h78.2v78.2h-7.1v7.1h14.2c0-30.6 0-61.8 0-92.4h-7.1z"/><path d="m35.6 28.4v64h64v-7.1h-7.1c0-16.3 0-33.5 0-49.8-16.3 0-33.5 0-49.8 0v-7.1zm14.2 14.3h35.6v42.7c-13.8 0-28.8 0-42.7 0 0-13.8 0-28.8 0-42.7z"/><path d="m113.8 120.9c-35.4 0-71.3 0-106.7 0 0-28.3 0-57.1 0-85.3h-7.1v92.4h128v-7.1c-3.5 0-10.7 0-14.2 0z"/></g><path d="m120.9 92.4h-7.1v-7.1h7.1c0-25.9 0-52.3 0-78.2-25.9 0-52.3 0-78.2 0v7.1h-7.1v-7.1c-11.4 0-24.2 0-35.6 0v28.5h7.1v85.3h120.9c0-8.9 0-19.6 0-28.5zm-21.3 0c-21.1 0-42.9 0-64 0 0-21.1 0-42.9 0-64h7.1v7.1h49.8v49.8h7.1z" fill="#a7a07f"/></svg>