<svg enable-background="new 0 0 128 128" viewBox="0 0 128 128" xmlns="http://www.w3.org/2000/svg"><g fill="#565045"><path d="m120.9 0c-13.9 0-28.8 0-42.7 0v14.2h7.1v-7.1h35.6v113.8c-11.4 0-24.2 0-35.6 0v-7.1h-7.1v14.2h49.8c0-42.5 0-85.5 0-128z"/><path d="m42.7 7.1v21.3c-8.9 0-19.5 0-28.4 0v71.1h28.4v28.5h7.1c0-11.4 0-24.2 0-35.6-8.9 0-19.5 0-28.4 0 0-18.7 0-38.2 0-56.9h28.4c0-11.4 0-24.1 0-35.5h-7.1z"/><path d="m78.2 28.4h7.1v7.1h-7.1z"/><path d="m78.2 49.8h7.1v7.1h-7.1z"/><path d="m78.2 71.1h7.1v7.1h-7.1z"/><path d="m78.2 92.4h7.1v7.2h-7.1z"/></g><path d="m113.8 7.1c-8.9 0-19.6 0-28.5 0v7.1h-7.1c0-3.5 0-10.7 0-14.2-8.9 0-19.5 0-28.4 0v35.5c-8.9 0-19.5 0-28.4 0v56.9h28.4v35.6h28.4c0-3.5 0-10.6 0-14.1h7.1v7.1h35.6c0-37.8 0-76 0-113.8zm-35.6 92.5v-7.2h7.1v7.2zm0-28.5h7.1v7.1h-7.1zm0-21.3h7.1v7.1h-7.1zm7.1-14.3h-7.1v-7.1h7.1z" fill="#a7a07f"/></svg>