<svg enable-background="new 0 0 128 128" viewBox="0 0 128 128" xmlns="http://www.w3.org/2000/svg"><path d="m120.9 0c-40.2 0-80.7 0-120.9 0v7.1h128v-7.1z" fill="#565045"/><path d="m113.8 35.6c-6.3 0-15 0-21.3 0v71.1c-18.7 0-38.2 0-56.9 0 0-23.5 0-47.6 0-71.1-11.4 0-24.2 0-35.6 0v7.1h28.4v71.1h71.1c0-23.5 0-47.6 0-71.1h28.5v-7.1c-3.4 0-10.7 0-14.2 0z" fill="#565045"/><path d="m120.9 7.1c-40.2 0-80.7 0-120.9 0v28.5h35.6v71.1h56.9c0-23.5 0-47.6 0-71.1h35.5c0-8.9 0-19.5 0-28.4z" fill="#a7a07f"/></svg>