<svg enable-background="new 0 0 128 128" viewBox="0 0 128 128" xmlns="http://www.w3.org/2000/svg"><path d="m120.9 56.8v14.2h7.1c0-3.5 0-10.7 0-14.2z" fill="#9a7536"/><path d="m113.8 28.4c-30.6 0-61.8 0-92.4 0v71.1h99.6c0-23.5 0-47.6 0-71.1zm-7.1 21.4h-7.1v-7.1h7.1zm0 35.5h-7.1v-7.1h7.1zm-28.5 0v-7.1h7.1v7.1zm-42.6 0v-7.1h7.1v7.1zm0-42.6h7.1v7.1h-7.1zm28.4 0v7.1h-7.1v-7.1zm21.3 7.1h-7.1v-7.1h7.1zm-28.4 28.4h7.1v7.1h-7.1z" fill="#a7a07f"/><g fill="#565045"><path d="m120.9 21.2c-35.4 0-71.3 0-106.7 0v85.4h113.8c0-11.4 0-24.2 0-35.6h-7.1v28.4c-33 0-66.5 0-99.6 0 0-23.5 0-47.6 0-71.1h99.6v28.4h7.1c0-11.4 0-24.2 0-35.6h-7.1z"/><path d="m99.6 42.7h7.1v7.1h-7.1z"/><path d="m99.6 78.2h7.1v7.1h-7.1z"/><path d="m78.2 42.7h7.1v7.1h-7.1z"/><path d="m56.9 42.7h7.1v7.1h-7.1z"/><path d="m78.2 78.2h7.1v7.1h-7.1z"/><path d="m56.9 78.2h7.1v7.1h-7.1z"/><path d="m35.6 42.7h7.1v7.1h-7.1z"/><path d="m35.6 78.2h7.1v7.1h-7.1z"/></g></svg>