<svg enable-background="new 0 0 128 128" viewBox="0 0 128 128" xmlns="http://www.w3.org/2000/svg"><path d="m120.9 0c-40.2 0-80.7 0-120.9 0v92.3h92.4c0-3.5 0-10.7 0-14.2-28.3 0-57.1 0-85.3 0 0-8.9 0-19.5 0-28.4h7.1c0-3.5 0-10.7 0-14.2h-7.1c0-8.9 0-19.4 0-28.3h120.9v-7.2z" fill="#565045"/><path d="m113.8 35.5c-25.9 0-52.3 0-78.2 0v14.2h85.3v28.4h-7.1v14.2h7.1v28.4c-40.2 0-80.7 0-120.9 0v7.2h128c0-30.6 0-61.9 0-92.5-3.5.2-10.7.1-14.2.1z" fill="#565045"/><path d="m120.9 7.1c-37.8 0-76 0-113.8 0v28.4h7.1v14.2h-7.1v28.4h85.3v14.2c-30.6 0-61.8 0-92.4 0v28.4h120.9c0-8.9 0-19.5 0-28.4h-7.1c0-3.5 0-10.7 0-14.2h7.1c0-8.9 0-19.5 0-28.4-28.3 0-57.1 0-85.3 0 0-3.5 0-10.7 0-14.2h92.4c0-8.9 0-19.5 0-28.4h-7.1z" fill="#a7a07f"/></svg>