<svg enable-background="new 0 0 128 128" viewBox="0 0 128 128" xmlns="http://www.w3.org/2000/svg"><path d="m120.9 99.6v14.2h7.1c0-3.5 0-10.7 0-14.2z" fill="#9a7536"/><path d="m0 106.7v7.1h7.1c0-3.5 0-10.7 0-14.2h-7.1z" fill="#9a7536"/><g fill="#565045"><path d="m120.9 0v99.6h7.1c0-33 0-66.5 0-99.6z"/><path d="m113.8 28.4c0-3.5 0-10.7 0-14.2-3.5 0-10.7 0-14.2 0v14.2z"/><path d="m28.4 28.4c0-3.5 0-10.7 0-14.2-3.5 0-10.7 0-14.2 0v14.2z"/><path d="m113.8 71.1c0-3.5 0-10.7 0-14.2-3.5 0-10.7 0-14.2 0v14.2z"/><path d="m28.4 71.1c0-3.5 0-10.7 0-14.2-3.5 0-10.7 0-14.2 0v14.2z"/><path d="m120.9 120.9c-37.8 0-76 0-113.8 0v-7.1h-7.1v14.2h128c0-3.5 0-10.7 0-14.2h-7.1z"/><path d="m7.1 92.4c0-30.6 0-61.8 0-92.4h-7.1v99.6h7.1z"/></g><path d="m113.8 0c-35.4 0-71.3 0-106.7 0v120.9h113.8c0-40.2 0-80.7 0-120.9zm-99.6 21.3v-7.1h14.2v14.2c-3.5 0-10.7 0-14.2 0zm0 42.7v-7.1h14.2v14.2c-3.5 0-10.7 0-14.2 0zm99.6 0v7.1c-3.5 0-10.7 0-14.2 0 0-3.5 0-10.7 0-14.2h14.2zm0-42.7v7.1c-3.5 0-10.7 0-14.2 0 0-3.5 0-10.7 0-14.2h14.2z" fill="#a7a07f"/></svg>