<svg enable-background="new 0 0 128 128" viewBox="0 0 128 128" xmlns="http://www.w3.org/2000/svg"><path d="m0 106.7v7.1h7.1c0-3.5 0-10.7 0-14.2h-7.1z" fill="#9a7536"/><path d="m21.3 120.9h-7.1v7.1h14.2v-7.1z" fill="#9a7536"/><g fill="#565045"><path d="m120.9 0c-40.2 0-80.7 0-120.9 0v99.6h7.1c0-30.6 0-61.8 0-92.4h113.8v28.4c-13.8 0-28.8 0-42.7 0v-7.1c-3.5 0-10.7 0-14.2 0v14.2h7.1v42.6h-7.1v14.2h14.2v-7.1h42.7v28.4c-30.6 0-61.9 0-92.5 0v7.1h99.6c0-13.8 0-28.8 0-42.7-16.3 0-33.5 0-49.8 0 0-13.8 0-28.8 0-42.7h49.8c0-13.8 0-28.7 0-42.6h-7.1z"/><path d="m35.5 42.7c0-3.5 0-10.7 0-14.2-3.5 0-10.7 0-14.2 0v14.2z"/><path d="m21.3 92.4v7.2h14.2c0-3.5 0-10.7 0-14.2-3.5 0-10.7 0-14.2 0z"/><path d="m7.1 113.8h-7.1v14.2h14.2v-7.1h-7.1z"/></g><path d="m113.8 7.1c-35.4 0-71.3 0-106.7 0v113.8h113.8c0-8.9 0-19.5 0-28.4-13.8 0-28.8 0-42.7 0v7.1c-3.5 0-10.7 0-14.2 0 0-3.5 0-10.7 0-14.2h7.1c0-13.8 0-28.7 0-42.6h-7.1c0-3.5 0-10.7 0-14.2h14.2v7.1h42.7c0-8.9 0-19.5 0-28.4zm-92.5 85.3v-7.1h14.2v14.2c-3.5 0-10.7 0-14.2 0zm0-56.8v-7.1h14.2v14.2c-3.5 0-10.7 0-14.2 0z" fill="#a7a07f"/></svg>