<svg enable-background="new 0 0 128 128" viewBox="0 0 128 128" xmlns="http://www.w3.org/2000/svg"><g fill="#565045"><path d="m120.9 85.2c-6.3 0-15 0-21.3 0 0-28.3 0-57 0-85.2-3.6 0-10.6 0-14.2 0v7.2h7.1v14.2h-7.1v7.1h7.1v14.2h-7.1v7.1h7.1v14.2h-7.1v7.1h7.1v14.2h-7.1v7.1h35.5v28.4c-28.3 0-57.1 0-85.3 0v7.2h92.4c0-13.8 0-28.9 0-42.8z"/><path d="m42.7 92.3v-7.1h-7.1c0-3.5 0-10.7 0-14.2h7.1v-7h-7.1c0-3.5 0-10.7 0-14.2h7.1v-7.1h-7.1c0-3.5 0-10.7 0-14.2h7.1v-7.1h-7.1c0-3.5 0-10.7 0-14.2h7.1v-7.2c-3.6 0-10.7 0-14.3 0v85.2c-8.9 0-19.5 0-28.4 0v7.1z"/><path d="m0 120.8h7.1v7.2h-7.1z"/></g><path d="m113.8 92.3c-8.9 0-19.6 0-28.4 0v-7.1h7.1c0-3.5 0-10.7 0-14.2h-7.1v-7h7.1c0-3.5 0-10.7 0-14.2h-7.1v-7.1h7.1c0-3.5 0-10.7 0-14.2h-7.1v-7.1h7.1c0-3.5 0-10.7 0-14.2h-7.1v-7.2c-14 0-28.9 0-42.7 0v7.2h-7.1v14.2h7.1v7.1h-7.1v14.2h7.1v7.1h-7.1v14.2h7.1v7.1h-7.1v14.2h7.1v7.1c-13.8 0-28.8 0-42.7 0v28.4h7.1v7.2h28.5v-7.2h85.3c0-8.9 0-19.5 0-28.4h-7.1z" fill="#a7a07f"/></svg>