<svg enable-background="new 0 0 128 128" viewBox="0 0 128 128" xmlns="http://www.w3.org/2000/svg"><path d="m64 0h-7.1v7.1h14.2v-7.1z" fill="#9a7536"/><path d="m92.4 28.4c-21.1 0-42.9 0-64 0v71.1h71.1c0-23.5 0-47.6 0-71.1zm0 14.3v49.8c-18.7 0-38.2 0-56.9 0 0-18.7 0-38.2 0-56.9h56.9z" fill="#928d6f"/><path d="m71.1 42.7c-8.9 0-19.6 0-28.5 0v42.7h42.8c0-13.8 0-28.8 0-42.7-3.6 0-10.7 0-14.3 0zm7.1 14.2v21.3c-8.9 0-19.5 0-28.4 0 0-8.9 0-19.5 0-28.4h28.4z" fill="#928d6f"/><path d="m64 49.8c-3.5 3.5-10.7 10.7-14.2 14.2l14.2 14.2c3.5-3.5 10.7-10.7 14.2-14.2-3.5-3.5-10.7-10.7-14.2-14.2z" fill="#928d6f"/><g fill="#565045"><path d="m120.9 0c-16.3 0-33.5 0-49.8 0v7.1h49.8v7.1h7.1c0-3.5 0-10.7 0-14.2z"/><path d="m120.9 35.6v85.3c-37.8 0-76 0-113.8 0 0-37.8 0-76 0-113.8h49.8v-7.1c-18.7 0-38.2 0-56.9 0v128h128c0-33 0-66.5 0-99.6h-7.1z"/><path d="m14.2 28.4h7.1v7.1h-7.1z"/><path d="m14.2 49.8h7.1v7.1h-7.1z"/><path d="m14.2 71.1h7.1v7.1h-7.1z"/><path d="m92.4 106.7h7.1v7.1h-7.1z"/><path d="m71.1 106.7h7.1v7.1h-7.1z"/><path d="m49.8 106.7h7.1v7.1h-7.1z"/><path d="m14.2 92.4h7.1v7.1h-7.1z"/><path d="m28.4 106.7h7.1v7.1h-7.1z"/></g><g fill="#a7a07f"><path d="m120.9 14.2v-7.1c-37.8 0-76 0-113.8 0v113.8h113.8c0-30.6 0-61.8 0-92.4h7.1c0-3.5 0-10.7 0-14.2h-7.1zm-28.5 85.4c-21.1 0-42.9 0-64 0 0-23.5 0-47.6 0-71.1h71.1v71.1zm-78.2-71.2h7.1v7.1h-7.1zm0 21.4h7.1v7.1h-7.1zm0 21.3h7.1v7.1h-7.1zm0 21.3h7.1v7.1h-7.1zm14.2 21.4v-7.1h7.1v7.1zm21.4 0v-7.1h7.1v7.1zm21.3 0v-7.1h7.1v7.1zm21.3 0v-7.1h7.1v7.1z"/><path d="m78.2 35.6c-13.8 0-28.8 0-42.7 0v56.9h56.9c0-18.7 0-38.2 0-56.9-3.5 0-10.6 0-14.2 0zm7.1 14.2v35.6c-13.8 0-28.8 0-42.7 0 0-13.8 0-28.8 0-42.7h42.7z"/><path d="m64 49.8c-3.5 0-10.7 0-14.2 0v14.2z"/><path d="m64 49.8 14.2 14.2c0-3.5 0-10.7 0-14.2-3.5 0-10.7 0-14.2 0z"/><path d="m49.8 64v14.2h14.2c-3.5-3.5-10.7-10.7-14.2-14.2z"/><path d="m64 78.2h14.2c0-3.5 0-10.7 0-14.2-3.5 3.5-10.7 10.7-14.2 14.2z"/></g></svg>