<svg enable-background="new 0 0 128 128" viewBox="0 0 128 128" xmlns="http://www.w3.org/2000/svg"><path d="m120.9 14.2v14.2h7.1c0-3.5 0-10.7 0-14.2z" fill="#9a7536"/><path d="m14.2 120.9v7.1h14.3v-7.1c-3.5 0-10.7 0-14.3 0z" fill="#9a7536"/><g fill="#565045"><path d="m120.9 0c-40.2 0-80.7 0-120.9 0v35.6h14.2v56.9c-3.5 0-10.7 0-14.2 0v35.5h14.2v-7.1h-7.1c0-6.3 0-15 0-21.3h28.4c0-3.5 0-10.7 0-14.2-3.5 0-10.7 0-14.2 0 0-13.8 0-28.8 0-42.7h14.2c0-3.5 0-10.7 0-14.2-8.9 0-19.5 0-28.4 0 0-6.3 0-15 0-21.3h113.8v7.2h7.1c0-3.5 0-10.9 0-14.4h-7.1z"/><path d="m106.7 28.4v14.2h7.1v42.7h-7.1v14.2h14.2v21.3c-30.6 0-61.9 0-92.5 0v7.1h99.6c0-11.4 0-24.3 0-35.7h-7.1c0-18.7 0-38.2 0-56.9h7.1v-7h-21.3z"/><path d="m78.2 42.7c0-3.5 0-10.7 0-14.2-3.5 0-10.7 0-14.2 0v14.2z"/><path d="m64 92.4v7.2h14.2c0-3.5 0-10.7 0-14.2-3.5 0-10.7 0-14.2 0z"/></g><path d="m113.8 7.2c-35.4 0-71.3 0-106.7 0v21.3h28.4v14.2c-3.5 0-10.7 0-14.2 0v42.7h14.2v14.2c-8.9 0-19.5 0-28.4 0v21.3h113.8c0-6.3 0-15 0-21.3-3.5 0-10.7 0-14.2 0 0-3.5 0-10.7 0-14.2h7.1c0-13.8 0-28.8 0-42.7h-7.1c0-3.5 0-10.7 0-14.2h14.2c0-6.3 0-15 0-21.3zm-49.8 92.4c0-3.5 0-10.7 0-14.2h14.2v14.2c-3.5 0-10.7 0-14.2 0zm14.2-71.2v14.2c-3.5 0-10.7 0-14.2 0 0-3.5 0-10.7 0-14.2z" fill="#a7a07f"/></svg>