<svg enable-background="new 0 0 128 128" viewBox="0 0 128 128" xmlns="http://www.w3.org/2000/svg"><g fill="#565045"><path d="m120.9 0v49.8c-11.4 0-24.2 0-35.6 0v28.4h35.6v49.8h7.1c0-18.7 0-38.2 0-56.9-11.4 0-24.2 0-35.6 0 0-3.5 0-10.7 0-14.2h35.6c0-18.7 0-38.2 0-56.9h-7.1z"/><path d="m92.4 21.3c0-6.3 0-15 0-21.3h-7.1v14.2c-13.8 0-28.8 0-42.7 0 0-3.5 0-10.7 0-14.2h-7.5v21.3z"/><path d="m35.1 49.8c-6.3 0-21.7 0-28 0 0-16.3 0-33.5 0-49.8h-7.1v56.9h35.1v14.2c-11.4 0-23.7 0-35.1 0v56.9h7.1c0-16.3 0-33.5 0-49.8h35.6c0-8.9 0-19.5 0-28.4-3.6 0-4 0-7.6 0z"/><path d="m85.3 92.4h7.1v7.1h-7.1z"/><path d="m85.3 113.8h7.1v7.1h-7.1z"/><path d="m35.1 92.4h7.6v7.1h-7.6z"/><path d="m35.1 113.8h7.6v7.1h-7.6z"/></g><path d="m113.8 0c-6.3 0-15.1 0-21.4 0v21.3c-18.7 0-38.6 0-57.3 0 0-6.3 0-15 0-21.3-9 0-19.1 0-28 0v49.8h35.6v28.4c-11.4 0-24.2 0-35.6 0v49.8h113.8c0-16.3 0-33.5 0-49.8-11.4 0-24.2 0-35.6 0 0-8.9 0-19.5 0-28.4h35.6c0-16.3 0-33.5 0-49.8h-7.1zm-71.1 92.4v7.1h-7.6v-7.1zm49.7 7.1h-7.1v-7.1h7.1zm-57.3 21.4v-7.1h7.6v7.1zm50.2 0v-7.1h7.1v7.1z" fill="#a7a07f"/></svg>