<svg enable-background="new 0 0 32 32" viewBox="0 0 32 32" xmlns="http://www.w3.org/2000/svg"><path d="m19.2 16-.8.8h1.6z" fill="#6d7499"/><path d="m15.4 13h1.1v1.1h-1.1z" fill="#6d7499" transform="matrix(.7071 -.7071 .7071 .7071 -4.9314 15.2945)"/><path d="m15.2 13.6h.8v-.8z" fill="#ede5bb"/><path d="m12 16.8h1.6l-.8-.8z" fill="#6d7499"/><g fill="#ece4ba"><path d="m20 16h-.8l.8.8.8-.8z"/><path d="m17.6 16 .8.8.8-.8c-.4 0-1.2 0-1.6 0z"/><path d="m12.8 16 .8.8.8-.8c-.4 0-1.2 0-1.6 0z"/><path d="m11.2 16 .8.8.8-.8c-.4 0-1.2 0-1.6 0z"/></g><path d="m21.6 13.6c-1.3 0-2.7 0-4 0v-.8c-.4-.4-1.2-1.2-1.6-1.6-.4.4-1.2 1.2-1.6 1.6v.8c-1.6 0-3.2 0-4.8 0v.8l.8.8h11.2l.8-.8v-.8zm-6.4 0 .8-.8.8.8-.8.8z" fill="#c6b6ab"/><g fill="#e0b12e"><path d="m25.6 17.6c-.7-.7-1.7-1.7-2.4-2.4 0-.4 0-1.2 0-1.6l.8-.8c0-.4 0-1.2 0-1.6-1-1-2.2-2.2-3.2-3.2l-.8.8v-.8h-.8l-.8.8v-.8h-.8l-.8.8v-.8h-.8l-.8.8v-.8h-.8l-.8.8v-.8h-.8l-.8.8v-.8h-.8c-1 1-2.2 2.2-3.2 3.2v1.6l.8.8v1.6c-.7.7-1.7 1.7-2.4 2.4l.8.8-.8.8h1.6l-.8.8h1.6v.8h2.4l-.8-.8h1.6c-.4-.4-1.2-1.2-1.6-1.6 0-1 0-2.2 0-3.2l-.8-.8v-.8h.8l.8-.8h1.6l.8.8h.8v-.8c.4-.4 1.2-1.2 1.6-1.6.4.4 1.2 1.2 1.6 1.6v.8h.8l.8-.8h1.6l.8.8h.8v.8l-.8.8v3.2c-.4.4-1.2 1.2-1.6 1.6h1.6l-.8.8h2.4v-.8h1.6l-.8-.8h1.6l-.8-.8z"/><path d="m16.8 19.2h-.8l.8.8h1.6l-.8-.8z"/><path d="m15.2 21.6.8.8.8-.8c-.4 0-1.2 0-1.6 0z"/><path d="m14.4 19.2-.8.8h1.6l.8-.8c-.4 0-1.2 0-1.6 0z"/></g><g fill="#9d6c3a"><path d="m24.8 13.6c-.4.4-1.2 1.2-1.6 1.6l.8.8c.4-.4 1.2-1.2 1.6-1.6 0-.4 0-1.2 0-1.6z"/><path d="m19.2 15.2c-.4 0-1.2 0-1.6 0v.8h3.2l-.8-.8z"/><path d="m15.2 18.4h1.6l-.8-.8z"/><path d="m12.8 15.2h-.8l-.8.8h3.2v-.8c-.4 0-1.2 0-1.6 0z"/><path d="m7.2 13.6-.8-.8v1.6l1.6 1.6.8-.8c-.4-.4-1.2-1.2-1.6-1.6z"/></g><g fill="#c79563"><path d="m25.6 11.2c-.7.7-1.7 1.7-2.4 2.4v1.6c.7-.7 1.7-1.7 2.4-2.4v1.6c-.4.4-1.2 1.2-1.6 1.6l.8.8c.4-.4 1.2-1.2 1.6-1.6 0-1.6 0-3.2 0-4.8z"/><path d="m20.8 20.8.8-.8c-.4 0-1.2 0-1.6 0l1.6-1.6c0-1 0-2.2 0-3.2-.4 0-1.2 0-1.6 0l.8.8-.8.8c-.4 0-1.2 0-1.6 0l-.8-.8v-.8c-1 0-2.2 0-3.2 0v.8l-.8.8c-.4 0-1.2 0-1.6 0l-.8-.8.8-.8c-.4 0-1.2 0-1.6 0v3.2l1.6 1.6c-.4 0-1.2 0-1.6 0l.8.8c-.4 0-1.2 0-1.6 0l2.4 2.4h8c.7-.7 1.7-1.7 2.4-2.4-.4 0-1.2 0-1.6 0zm-4.8-3.2.8.8c-.4 0-1.2 0-1.6 0zm-1.6 1.6h3.2l.8.8c-.4 0-1.2 0-1.6 0l-.8-.8-.8.8c-.4 0-1.2 0-1.6 0zm.8 2.4h1.6l-.8.8z"/><path d="m20 13.6h1.6l-.8-.8c-.4 0-1.2 0-1.6 0l-.8.8z"/><path d="m12 13.6h1.6l-.8-.8c-.4 0-1.2 0-1.6 0l-.8.8z"/><path d="m7.2 12c-.4-.4-1.2-1.2-1.6-1.6v4.8c.4.4 1.2 1.2 1.6 1.6l.8-.8c-.4-.4-1.2-1.2-1.6-1.6 0-.4 0-1.2 0-1.6l2.4 2.4c0-.4 0-1.2 0-1.6-.4-.4-1.2-1.2-1.6-1.6z"/></g></svg>