<svg enable-background="new 0 0 32 32" viewBox="0 0 32 32" xmlns="http://www.w3.org/2000/svg"><path d="m20.8 15.2h-.8l-.8.8h1.6l.8-.8z" fill="#ece4ba"/><path d="m17.6 16h1.6l-.8-.8z" fill="#ece4ba"/><path d="m12.8 16h1.6l-.8-.8z" fill="#ece4ba"/><path d="m11.2 15.2h-.8l.8.8h1.6l-.8-.8z" fill="#ece4ba"/><path d="m21.6 13.6c-.4-.4-1.2-1.2-1.6-1.6v1.6z" fill="#b5b5b6"/><path d="m12 13.6h3.2l.8-.8.8.8h3.2c-.4-.4-1.2-1.2-1.6-1.6-.4 0-1.2 0-1.6 0l-.8-.8-.8.8c-1 0-2.2 0-3.2 0-.4.4-1.2 1.2-1.6 1.6z" fill="#b5b5b6"/><g fill="#8e5f36"><path d="m24 14.4v1.6l.8-.8c0-.4 0-1.2 0-1.6z"/><path d="m17.6 16 .8-.8h-.8z"/><path d="m16.8 16.8-.8-.8-.8.8z"/><path d="m14.4 15.2h-.8l.8.8z"/><path d="m8 15.2v-.8l-.8-.8v1.6l.8.8z"/></g><g fill="#754338"><path d="m24.8 7.2-.8-.8c-.4 0-1.2 0-1.6 0v1.6c.4.4 1.2 1.2 1.6 1.6h1.6c0-.4 0-1.2 0-1.6z"/><path d="m24 16.8c0-1.8 0-3.8 0-5.6-1.3-1.3-2.7-2.7-4-4l-.8.8c-2.9 0-5.9 0-8.8 0v.8c-.7.7-1.7 1.7-2.4 2.4v8l.8-.8v.8h.8c0-1.6 0-3.2 0-4.8l2.4-2.4h3.2l.8-.8.8.8h1.6c.4.4 1.2 1.2 1.6 1.6 0-.4 0-1.2 0-1.6l2.4 2.4v4.8h.8v-.8h1.6l-.8-.8z"/><path d="m20.8 14.4c-1 0-2.2 0-3.2 0v.8h4l.8-.8c-.4 0-1.2 0-1.6 0z"/><path d="m11.2 15.2h3.2v-.8c-1.6 0-3.2 0-4.8 0l.8.8z"/><path d="m8.8 8.8.8-.8c0-.4 0-1.2 0-1.6h-.8v.8l-.8-.8c-.4.4-1.2 1.2-1.6 1.6v1.6h1.6z"/></g><path d="m24.8 12-.8.8v1.6l.8-.8v1.6l-.8.8v1.6l1.6-1.6c0-1.6 0-3.2 0-4.8z" fill="#c69463"/><path d="m20.8 20.8 1.6-1.6c0-1.6 0-3.2 0-4.8-.4.4-1.2 1.2-1.6 1.6-1 0-2.2 0-3.2 0 0-.4 0-1.2 0-1.6h4.8l-.8-.8c-1.6 0-3.2 0-4.8 0l-.8-.8-.8.8c-1.6 0-3.2 0-4.8 0l-.8.8h4.8v1.6c-1 0-2.2 0-3.2 0-.4-.4-1.2-1.2-1.6-1.6v4.8l3.2 3.2h6.4zm-4-.8c-.4 0-1.2 0-1.6 0l-.8-.8.8-.8h1.6l.8.8zm-.8-4 .8.8c-.4 0-1.2 0-1.6 0z" fill="#c69463"/><path d="m8 17.6c0-.4 0-1.2 0-1.6l-.8-.8c0-.4 0-1.2 0-1.6l.8.8c0-.4 0-1.2 0-1.6-.4-.4-1.2-1.2-1.6-1.6v4.8z" fill="#c69463"/><path d="m23.2 10.4.8-.8c-.4-.4-1.2-1.2-1.6-1.6l-.8.8c.4.4 1.2 1.2 1.6 1.6z" fill="#51807e"/><path d="m18.4 15.2.8.8.8-.8c-.4 0-1.2 0-1.6 0z" fill="#51807e"/><path d="m17.6 19.2-.8-.8c-.4 0-1.2 0-1.6 0l-.8.8.8.8h1.6z" fill="#51807e"/><path d="m13.6 15.2c-.4 0-1.2 0-1.6 0l.8.8z" fill="#51807e"/><path d="m9.6 9.6.8-.8-.8-.8c-.4.4-1.2 1.2-1.6 1.6l.8.8z" fill="#51807e"/></svg>