<svg enable-background="new 0 0 32 32" viewBox="0 0 32 32" xmlns="http://www.w3.org/2000/svg"><g fill="#3d211e"><path d="m24 21.6h-.8l.8.8.8-.8z"/><path d="m20.8 24.8v.8h.8c0-.4 0-1.2 0-1.6h-.8z"/><path d="m20.8 22.4c0-.4 0-1.2 0-1.6l-.8.8v1.6l.8.8c0-.4 0-1.2 0-1.6z"/><path d="m20 24.8-.8.8h.8z"/><path d="m19.2 31.2h-.8v.8h2.4v-.8c-.4 0-1.2 0-1.6 0z"/><path d="m16.8 31.2v.8h.8l.8-.8c-.4 0-1.2 0-1.6 0z"/><path d="m17.6 26.4h.8l.8-.8c-1 0-2.2 0-3.2 0l.8.8z"/><path d="m14.4 25.6c-.4 0-1.2 0-1.6 0l.8.8h1.6l.8-.8c-.4 0-1.2 0-1.6 0z"/><path d="m13.6 31.2.8.8h.8v-.8c-.4 0-1.2 0-1.6 0z"/><path d="m12 31.2h-.8v.8h2.4v-.8c-.4 0-1.2 0-1.6 0z"/><path d="m12 22.4v-.8l-.8-.8v3.2l.8-.8z"/><path d="m12 25.6h.8l-.8-.8z"/><path d="m11.2 24.8v-.8h-.8v1.6h.8z"/><path d="m7.2 21.6.8.8.8-.8c-.4 0-1.2 0-1.6 0z"/></g><path d="m22.4 21.6v.8l.8-.8z" fill="#75555e"/><path d="m17.6 24.8v.8h.8v-.8l-.8-.8z" fill="#75555e"/><path d="m13.6 24h-.8l.8.8z" fill="#75555e"/><path d="m12.8 23.2h-.8l.8.8.8-.8z" fill="#75555e"/><path d="m18.4 29.6.8.8.8-.8c-.4 0-1.2 0-1.6 0z" fill="#c8c094"/><path d="m12 29.6.8.8.8-.8c-.4 0-1.2 0-1.6 0z" fill="#c8c094"/><g fill="#533643"><path d="m25.6 24.8h.8l-.8-.8c-1.3 0-2.7 0-4 0v1.6h.8l2.4 2.4.8-.8v-.8h.8l-.8-.8z"/><path d="m22.4 22.4v-.8h2.4v-.8h-.8l-.8-.8v-.8h-1.6l-.8.8v4z"/><path d="m19.2 30.4-.8-.8c-.4 0-1.2 0-1.6 0v1.6h4v-.8l-.8-.8z"/><path d="m17.6 26.4h-.8l-.8-.8-.8.8c-.4 0-1.2 0-1.6 0l-.8-.8h-.8v1.6h2.4l.8.8h1.6l.8-.8h2.4c0-.4 0-1.2 0-1.6h-.8l-.8.8z"/><path d="m13.6 29.6-.8.8-.8-.8-.8.8v.8h4c0-.4 0-1.2 0-1.6-.4 0-1.2 0-1.6 0z"/><path d="m11.2 22.4c0-.7 0-1.7 0-2.4l-.8-.8h-1.6v.8l-.8.8h-.8v.8h1.6c.7.7 1.7 1.7 2.4 2.4 0-.4 0-1.2 0-1.6z"/><path d="m8.8 24c-.7 0-1.7 0-2.4 0l-.8.8h.8v.8l-.8.8h.8v.8l.8.8 2.4-2.4h.8c0-.4 0-1.2 0-1.6-.4 0-1.2 0-1.6 0z"/></g><path d="m22.4 22.4h1.6l-.8-.8z" fill="#484d22"/><path d="m20.8 26.4h.8l-.8-.8z" fill="#484d22"/><path d="m18.4 27.2h-.8l-.8.8h3.2v-.8c-.4 0-1.2 0-1.6 0z" fill="#484d22"/><path d="m13.6 27.2c-.4 0-1.2 0-1.6 0v.8h3.2l-.8-.8z" fill="#484d22"/><path d="m11.2 26.4v-.8l-.8.8z" fill="#484d22"/><path d="m8 22.4h1.6l-.8-.8z" fill="#484d22"/><path d="m23.2 23.2h1.6l-.8-.8z" fill="#732429"/><path d="m7.2 23.2h1.6l-.8-.8z" fill="#732429"/><path d="m23.2 23.2.8-.8c-.4 0-1.2 0-1.6 0-.4.4-1.2 1.2-1.6 1.6h4v-.8c-.4 0-1.2 0-1.6 0z" fill="#6a7c35"/><path d="m23.2 26.4-.8-.8c-.4 0-1.2 0-1.6 0l.8.8h-.8v-.8l-.8.8 2.4 2.4h1.6l.8-.8c-.4-.4-1.2-1.2-1.6-1.6z" fill="#6a7c35"/><path d="m18.4 28c-.4 0-1.2 0-1.6 0v1.6h3.2c0-.4 0-1.2 0-1.6-.4 0-1.2 0-1.6 0z" fill="#6a7c35"/><path d="m13.6 28c-.4 0-1.2 0-1.6 0v1.6h3.2c0-.4 0-1.2 0-1.6-.4 0-1.2 0-1.6 0z" fill="#6a7c35"/><path d="m11.2 25.6v.8h-.8l.8-.8c-.4 0-1.2 0-1.6 0-.7.7-1.7 1.7-2.4 2.4l.8.8h1.6l2.4-2.4z" fill="#6a7c35"/><path d="m7.2 23.2v.8h4c-.4-.4-1.2-1.2-1.6-1.6-.4 0-1.2 0-1.6 0l.8.8c-.4 0-1.2 0-1.6 0z" fill="#6a7c35"/><path d="m19.2 20.8-.8-.8c-1.4 0-3.4 0-4.8 0l-.8.8 2.4 2.4h1.6z" fill="#484d22"/><path d="m20.8 20.8v-.8l-.8-.8h-8l-.8.8v.8l.8.8v1.6h1.6l-.8.8h.8v.8c-.4-.4-1.2-1.2-1.6-1.6l-.8.8c.4.4 1.2 1.2 1.6 1.6h4.8c0-.4 0-1.2 0-1.6l.8.8v.8h.8l1.6-1.6-.8-.8v-1.6zm-4 2.4-.8.8c-.5-.5-2.6-2.6-3.2-3.2l.8-.8h4.8l.8.8z" fill="#533643"/><path d="m16.8 23.2c-.4 0-1.2 0-1.6 0l.8.8z" fill="#3d211e"/></svg>