<svg enable-background="new 0 0 32 32" viewBox="0 0 32 32" xmlns="http://www.w3.org/2000/svg"><path d="m20 30.4-.8.8-.8-.8c-.4 0-1.2 0-1.6 0v1.6h4v-.8z" fill="#762c2e"/><path d="m13.6 30.4-.8.8-.8-.8-.8.8v.8h4c0-.4 0-1.2 0-1.6-.4 0-1.2 0-1.6 0z" fill="#762c2e"/><path d="m23.2 22.4-.8.8h1.6z" fill="#8e5f36"/><path d="m20.8 27.2h.8l-.8-.8z" fill="#8e5f36"/><path d="m11.2 27.2v-.8l-.8.8z" fill="#8e5f36"/><path d="m8 23.2h1.6l-.8-.8z" fill="#8e5f36"/><g fill="#904520"><path d="m23.2 22.4.8.8.8-.8z"/><path d="m20.8 25.6v.8h.8c0-.4 0-1.2 0-1.6h-.8z"/><path d="m20.8 20-.8.8v3.2l.8.8c0-.4 0-4.2 0-4.8z"/><path d="m16.8 28.8v1.6h1.6c0-.7 0-1.7 0-2.4h-.8z"/><path d="m15.2 24 .8.8.8-.8z"/><path d="m13.6 28v2.4h1.6c0-.4 0-1.2 0-1.6l-.8-.8z"/><path d="m12 20.8-.8-.8v4.8l.8-.8s0-2.7 0-3.2z"/><path d="m10.4 26.4h.8c0-.4 0-1.2 0-1.6h-.8z"/><path d="m7.2 22.4.8.8.8-.8c-.4 0-1.2 0-1.6 0z"/></g><path d="m24 23.2c-.4 0-1.2 0-1.6 0-.4.4-1.2 1.2-1.6 1.6h4v-.8z" fill="#c69463"/><path d="m22.4 26.4c-.4 0-1.2 0-1.6 0l.8.8h-.8v-.8l-.8.8 2.4 2.4h1.6l.8-.8c-.4-.4-2.4-2.4-2.4-2.4z" fill="#c69463"/><path d="m11.2 27.2h-.8l.8-.8c-.4 0-1.2 0-1.6 0-.7.7-1.7 1.7-2.4 2.4l.8.8h1.6l2.4-2.4-.8-.8z" fill="#c69463"/><path d="m11.2 24.8c-.4-.4-1.2-1.2-1.6-1.6-.4 0-1.2 0-1.6 0l-.8.8v.8z" fill="#c69463"/><path d="m24.2 25.8h1.1v1.1h-1.1z" fill="#ede3ba" transform="matrix(.7071 -.7071 .7071 .7071 -11.4035 25.2693)"/><path d="m18.4 30.4.8.8.8-.8c-.4 0-1.2 0-1.6 0z" fill="#ede3ba"/><path d="m15.4 26.6h1.1v1.1h-1.1z" fill="#ede3ba" transform="matrix(.7071 -.7071 .7071 .7071 -14.5467 19.281)"/><path d="m12 30.4.8.8.8-.8c-.4 0-1.2 0-1.6 0z" fill="#ede3ba"/><path d="m6.6 25.8h1.1v1.1h-1.1z" fill="#ede3ba" transform="matrix(.7071 -.7071 .7071 .7071 -16.559 12.8251)"/><g fill="#b56f29"><path d="m24.8 24.8c-1 0-2.2 0-3.2 0v1.6h.8l2.4 2.4.8-.8c0-.4 0-1.2 0-1.6l-.8.8-.8-.8.8-.8.8.8c0-.4 0-1.2 0-1.6z"/><path d="m22.4 23.2.8-.8h1.6v-.8h-.8c-.4-.4-1.2-1.2-1.6-1.6h-1.6v4.8z"/><path d="m20 26.4v-.8l-.8.8z"/><path d="m12.8 26.4-.8-.8v.8z"/><path d="m9.6 20c-.4.4-1.2 1.2-1.6 1.6h-.8v.8h1.6l2.4 2.4c0-1.4 0-3.4 0-4.8"/><path d="m6.4 24.8v1.6l.8-.8.8.8-.8.8-.8-.8v1.6l.8.8 2.4-2.4h.8c0-.4 0-1.2 0-1.6-.4 0-3.3 0-4 0z"/></g><path d="m12.8 20v1.6l2.4 2.4h1.6l2.4-2.4v-1.6z" fill="#8e5f36"/><path d="m20 24v-3.2l.8-.8-.8-.8h-8l-.8.8.8.8v3.2l-.8.8c.4.4 1.2 1.2 1.6 1.6h6.4c-2.1 0-4.3 0-6.4 0l-.8-.8h3.2l.8-.8.8.8h3.2l.8-.8c-.2-.2-.5-.5-.8-.8zm-.8-2.4-2.4 2.4-.8.8c-.2-.2-.5-.5-.8-.8l-2.4-2.4v-1.6h6.4z" fill="#b56f29"/><path d="m16.8 25.6-.8-.8-.8.8c-1 0-2.2 0-3.2 0l.8.8h6.4l.8-.8c-.4 0-2.8 0-3.2 0z" fill="#904520"/><path d="m16 28c-.4 0-1.2 0-1.6 0l.8.8h1.6l.8-.8c-.4 0-1.2 0-1.6 0z" fill="#b56f29"/><path d="m18.4 28v2.4h1.6c0-.7 0-1.7 0-2.4-.4 0-1.2 0-1.6 0z" fill="#b56f29"/><path d="m12 28v2.4h1.6c0-.7 0-1.7 0-2.4-.4 0-1.2 0-1.6 0z" fill="#b56f29"/><path d="m17.6 28h2.4c0-.4 0-1.2 0-1.6-1.3 0-2.7 0-4 0l.8.8-.8.8z" fill="#762c2e"/><path d="m16 26.4c-1.3 0-2.7 0-4 0v1.6h4l-.8-.8z" fill="#762c2e"/></svg>