<svg enable-background="new 0 0 32 32" viewBox="0 0 32 32" xmlns="http://www.w3.org/2000/svg"><path d="m21.6 26.4h-.8v-.8z" fill="#9d6c3a"/><g fill="#808f8f"><path d="m20 20v3.2s.4.4.8.8c0-1 0-3.8 0-4.8z"/><path d="m12 20v3.2s-.4.4-.8.8c0-1 0-3.8 0-4.8z"/><path d="m19.2 30.4.8-.8c-1 0-2.2 0-3.2 0v1.6h4v-.8c-.4 0-1.2 0-1.6 0z"/><path d="m20 25.6v-.8l-.8.8.8.8z"/><path d="m17.6 26.4h.8l.8-.8c-1 0-2.2 0-3.2 0l.8.8z"/><path d="m16.8 23.2c-.4 0-1.2 0-1.6 0l.8.8z"/><path d="m14.4 25.6c-.4 0-1.2 0-1.6 0l.8.8h1.6l.8-.8c-.4 0-1.2 0-1.6 0z"/><path d="m13.6 29.6c-.4 0-1.2 0-1.6 0l.8.8c-.4 0-1.2 0-1.6 0v.8h4c0-.4 0-1.2 0-1.6-.4 0-1.2 0-1.6 0z"/><path d="m12 25.6v.8l.8-.8-.8-.8z"/></g><path d="m11.2 25.6v.8h-.8z" fill="#9d6c3a"/><g fill="#b5b5b6"><path d="m23.2 20-.8-.8h-1.6v4.8l3.2-3.2z"/><path d="m19.2 30.4h1.6l-.8-.8z"/><path d="m17.6 26.4h-.8l-.8-.8-.8.8c-.4 0-1.2 0-1.6 0l-.8-.8-.8.8v.8h2.4l.8.8h1.6l.8-.8h2.4v-.8l-.8-.8-.8.8z"/><path d="m11.2 30.4h1.6l-.8-.8z"/><path d="m11.2 22.4c0-.4 0-3.2 0-3.2h-1.6s-1.2 1.2-1.6 1.6l3.2 3.2c0-.4 0-1.2 0-1.6z"/></g><path d="m22.4 22.4h1.6l-.8-.8z" fill="#8e5f36"/><path d="m18.4 20h-4.8l-.8.8 2.4 2.4h1.6l2.4-2.4z" fill="#8e5f36"/><path d="m8 22.4h1.6l-.8-.8z" fill="#8e5f36"/><g fill="#4c6169"><path d="m24.8 26.4c0-.4 0-1.2 0-1.6-.4 0-1.2 0-1.6 0l-.8-.8-.8.8h-.8v.8h1.6l2.4 2.4.8-.8v-.8z"/><path d="m19.2 31.2c-.7 0-1.7 0-2.4 0v.8h4v-.8c-.4 0-1.2 0-1.6 0z"/><path d="m18.4 29.6h1.6c0-.4 0-1.2 0-1.6l-.8.8-.8-.8-.8.8-.8-.8v1.6z"/><path d="m13.6 31.2c-.7 0-1.7 0-2.4 0v.8h4v-.8c-.4 0-1.2 0-1.6 0z"/><path d="m13.6 28-.8.8-.8-.8v1.6h3.2c0-.4 0-1.2 0-1.6l-.8.8z"/><path d="m11.2 24.8h-.8l-.8-.8-.8.8c-.4 0-1.2 0-1.6 0v1.6h-.8v.8l.8.8 2.4-2.4h1.6z"/></g><path d="m23.2 22.4h-.8c-.4.4-1.2 1.2-1.6 1.6h3.2l.8.8c0-.4 0-1.2 0-1.6l-.8-.8z" fill="#c69463"/><path d="m23.2 26.4-.8-.8c-.4 0-1.2 0-1.6 0l.8.8h-.8v-.8l-.8.8 2.4 2.4h1.6l.8-.8c-.4-.4-1.2-1.2-1.6-1.6z" fill="#c69463"/><path d="m11.2 26.4h-.8l.8-.8c-.4 0-1.2 0-1.6 0-.7.7-1.7 1.7-2.4 2.4l.8.8h1.6l2.4-2.4-.8-.8z" fill="#c69463"/><path d="m7.2 23.2v1.6l.8-.8h3.2c-.4-.4-1.2-1.2-1.6-1.6-.4 0-1.2 0-1.6 0z" fill="#c69463"/><g fill="#51807e"><path d="m24.8 24.8v1.6h.8v-.8z"/><path d="m23.2 24h-.8l.8.8h1.6l-.8-.8z"/><path d="m20.8 24v.8h.8l.8-.8c-.4 0-1.2 0-1.6 0z"/><path d="m18.4 27.2h-.8l-.8.8.8.8.8-.8.8.8.8-.8v-.8c-.4 0-1.2 0-1.6 0z"/><path d="m13.6 27.2c-.4 0-1.2 0-1.6 0v.8l.8.8.8-.8.8.8.8-.8-.8-.8z"/><path d="m9.6 24 .8.8h.8v-.8c-.4 0-1.2 0-1.6 0z"/><path d="m8 24-.8.8h1.6l.8-.8c-.4 0-1.2 0-1.6 0z"/><path d="m6.4 26.4h.8c0-.4 0-1.2 0-1.6l-.8.8z"/></g><path d="m20 23.2v-3.2l-.8-.8h-6.4l-.8.8v2.8.4l-.8.8s1.2 1.2 1.6 1.6h6.4l1.6-1.6c-.3-.3-.8-.8-.8-.8zm-4 .8c-.4-.4-3.2-3.2-3.2-3.2l.8-.8h4.8l.8.8s-2.8 2.8-3.2 3.2z" fill="#b5b5b6"/></svg>