<svg enable-background="new 0 0 32 32" viewBox="0 0 32 32" xmlns="http://www.w3.org/2000/svg"><g fill="#c8c094"><path d="m20.8 12h-.8l-.8.8h1.6l.8-.8z"/><path d="m19.2 16c0-.4 0-1.2 0-1.6-.4.4-1.2 1.2-1.6 1.6l.8.8z"/><path d="m17.6 12.8h1.6l-.8-.8z"/><path d="m12.8 12.8h1.6l-.8-.8z"/><path d="m12.8 14.4v1.6l.8.8.8-.8c-.4-.4-1.2-1.2-1.6-1.6z"/><path d="m11.2 12h-.8l.8.8h1.6l-.8-.8z"/></g><g fill="#533643"><path d="m18.4 10.4.8-.8c-.4 0-1.2 0-1.6 0l-.8.8z"/><path d="m18.4 12h3.2l.8-.8c-1.6 0-3.2 0-4.8 0l-.8.8z"/><path d="m14.4 10.4h.8l-.8-.8c-.4 0-1.2 0-1.6 0l.8.8z"/><path d="m11.2 12h4l-.8-.8c-1.6 0-3.2 0-4.8 0l.8.8z"/></g><g fill="#484d22"><path d="m25.6 11.2-.8.8v3.2c.4-.4 1.2-1.2 1.6-1.6 0-1 0-2.2 0-3.2z"/><path d="m17.6 12v.8l.8-.8z"/><path d="m16.8 13.6-.8-.8-.8.8z"/><path d="m15.2 17.6h2.4l.8-.8c-.4-.4-1.2-1.2-1.6-1.6l-.8.8-.8-.8c-.4.4-1.2 1.2-1.6 1.6l.8.8z"/><path d="m14.4 12h-.8l.8.8z"/><path d="m5.6 10.4v3.2l1.6 1.6c0-1 0-2.2 0-3.2-.4-.4-1.2-1.2-1.6-1.6z"/></g><g fill="#732429"><path d="m26.4 15.2c-.4.4-1.2 1.2-1.6 1.6 0-2.1 0-4.3 0-6.4l.8-.8-.8-.8c0-.4 0-1.2 0-1.6l-.8.8h-.8v-.8c-.4-.4-1.2-1.2-1.6-1.6-1 0-2.2 0-3.2 0l-.8-.8c-1 0-2.2 0-3.2 0l-.8.8c-1 0-2.2 0-3.2 0l-.8-.8v1.6l-.8.8v.8c-.4 0-1.2 0-1.6 0v.8l-.8.8.8.8v6.4c-.4-.4-1.2-1.2-1.6-1.6l-.8.8h.8v2.4l.8-.8v1.6l-.8.8h3.2l.8-.8c-.4-.4-1.2-1.2-1.6-1.6l.8-.8-.8-.8.8-.8c0-1.6 0-3.2 0-4.8l2.4-2.4h3.2l1.6 1.6c.4-.4 1.2-1.2 1.6-1.6h3.2l2.4 2.4v4.8l.8.8v1.6c-.4.4-1.2 1.2-1.6 1.6l.8.8h3.2l-.8-.8c0-.4 0-1.2 0-1.6l.8.8c0-.7 0-1.7 0-2.4h.8z"/><path d="m20 13.6.8.8c0-.4 0-1.2 0-1.6h-.8z"/><path d="m20 9.6v1.6h.8c0-.4 0-1.2 0-1.6l-.8-.8z"/><path d="m19.2 12h-.8l.8.8.8-.8z"/><path d="m12 12 .8.8.8-.8c-.4 0-1.2 0-1.6 0z"/><path d="m10.4 11.2h.8l-.8-.8z"/></g><path d="m26.4 8.8c-.4.4-1.2 1.2-1.6 1.6v1.6c.4-.4 1.2-1.2 1.6-1.6v1.6l.8-.8c0-.7 0-1.7 0-2.4z" fill="#6a7c35"/><path d="m26.4 13.6c-.4.4-1.2 1.2-1.6 1.6v1.6l2.4-2.4c0-.7 0-1.7 0-2.4h-.8z" fill="#6a7c35"/><path d="m17.6 22.4h1.6l4.8-4.8c0-.4 0-1.2 0-1.6l-.8-.8c0-1.6 0-3.2 0-4.8-.7-.7-1.7-1.7-2.4-2.4-1 0-2.2 0-3.2 0-.4.4-1.2 1.2-1.6 1.6-.4-.4-1.2-1.2-1.6-1.6-1 0-2.2 0-3.2 0-.7.7-1.7 1.7-2.4 2.4v4.8l-.8.8.8.8-.8.8 4.8 4.8zm-1.6-9.6.8.8c-.4 0-1.2 0-1.6 0zm3.2 2.4v.8c-.4.4-1.2 1.2-1.6 1.6-1 0-2.2 0-3.2 0-.4-.4-1.2-1.2-1.6-1.6 0-.4 0-1.2 0-1.6l1.6 1.6.8-.8.8.8.8-.8.8.8c.4-.4 1.2-1.2 1.6-1.6zm1.6-5.6v1.6h1.6c-.4.4-1.2 1.2-1.6 1.6v1.6l-.8-.8v-.8c-.7 0-1.7 0-2.4 0v-.8h-.8l.8-.8h2.4c0-.7 0-1.7 0-2.4zm-3.2 0h1.6l-.8.8c-.4 0-1.2 0-1.6 0zm-2.4.8c-.4 0-1.2 0-1.6 0l-.8-.8h1.6zm-4.8.8v-.8l.8.8h3.2l.8.8h-.8v.8c-1 0-2.2 0-3.2 0-.4-.4-1.2-1.2-1.6-1.6z" fill="#6a7c35"/><path d="m7.2 16v-.8c-.4-.4-1.2-1.2-1.6-1.6 0-1 0-2.2 0-3.2l1.6 1.6c0-.4 0-1.2 0-1.6-.4-.4-1.2-1.2-1.6-1.6h-.8v5.6c.7.7 1.7 1.7 2.4 2.4z" fill="#6a7c35"/></svg>