<svg enable-background="new 0 0 32 32" viewBox="0 0 32 32" xmlns="http://www.w3.org/2000/svg"><path d="m16 19.2h-.8l-.8.8.8.8h1.6l.8-.8-.8-.8z" fill="#8e5f36"/><path d="m16.8 17.6-.8-.8-.8.8z" fill="#8e5f36"/><path d="m20 16c-.4 0-1.2 0-1.6 0l.8.8z" fill="#904520"/><path d="m13.6 16c-.4 0-1.2 0-1.6 0l.8.8z" fill="#904520"/><path d="m22.4 20c0-.4 0-1.2 0-1.6l-.8.8c0-.4 0-1.2 0-1.6l.8-.8c0-.4 0-1.2 0-1.6-.4.4-1.2 1.2-1.6 1.6-1 0-2.2 0-3.2 0l.8-.8c-.4 0-1.2 0-1.6 0l-.8-.8-.8.8c-.4 0-1.2 0-1.6 0l.8.8c-1 0-2.2 0-3.2 0-.4-.4-1.2-1.2-1.6-1.6v4.8l3.2 3.2h6.4zm-5.6.8c-.4 0-1.2 0-1.6 0l-.8-.8.8-.8h1.6l.8.8zm-.8-4 .8.8c-.4 0-1.2 0-1.6 0z" fill="#c69463"/><path d="m21.6 14.4c-.4-.4-1.2-1.2-1.6-1.6-2.6 0-5.4 0-8 0-.4.4-1.2 1.2-1.6 1.6h4.8l.8.8.8-.8z" fill="#c69463"/><g fill="#ede3ba"><path d="m20 16-.8.8h1.6l.8-.8c-.4 0-1.2 0-1.6 0z"/><path d="m17.6 16.8h1.6l-.8-.8z"/><path d="m12.8 16.8h1.6l-.8-.8z"/><path d="m10.4 16 .8.8h1.6l-.8-.8z"/></g><path d="m23.2 9.6.8.8v1.6l.8-.8c0-.4 0-1.2 0-1.6-.4-.4-1.2-1.2-1.6-1.6-.4 0-1.2 0-1.6 0 .4.4 1.2 1.2 1.6 1.6z" fill="#b56f29"/><path d="m27.2 7.2c-.7-.7-1.7-1.7-2.4-2.4l-.8.8c-.4 0-1.2 0-1.6 0-.4.4-1.2 1.2-1.6 1.6v.8c-2.9 0-5.9 0-8.8 0l-.8-.8c-.4.4-1.2 1.2-1.6 1.6-.4-.4-1.2-1.2-1.6-1.6-.7.7-1.7 1.7-2.4 2.4v6.4c.4.4 1.2 1.2 1.6 1.6v1.6l-.8.8h1.6l1.6-1.6c0-1 0-2.2 0-3.2l.8.8h4.8l.8-.8-.8-.8c-1.6 0-3.2 0-4.8 0l1.6-1.6h8c.4.4 1.2 1.2 1.6 1.6-1.6 0-3.2 0-4.8 0l-.8.8.8.8h4.8l.8-.8v1.6l-.8.8v1.6l.8-.8v1.6l.8.8.8-.8c0-.4 0-1.2 0-1.6l1.6-1.6c0-.7 0-1.7 0-2.4h.8c-.4-.4-1.2-1.2-1.6-1.6h1.6c.4-.4 1.2-1.2 1.6-1.6v-.8h-.8l.8-.8c0-.7 0-1.7 0-2.4zm-3.2 4v-.8c-.7-.7-1.7-1.7-2.4-2.4h1.6c.4.4 1.2 1.2 1.6 1.6v1.6l-.8.8z" fill="#762c2e"/></svg>