<svg enable-background="new 0 0 32 32" viewBox="0 0 32 32" xmlns="http://www.w3.org/2000/svg"><path d="m18.4 24.8.8.8v-.8z" fill="#9f8e7a"/><path d="m17.6 24.8h.8l-.8-.8z" fill="#9f8e7a"/><path d="m13.6 25.6h.8c0-.4 0-1.2 0-1.6l-.8.8z" fill="#9f8e7a"/><path d="m19.2 29.6h-.8l.8.8.8-.8z" fill="#c8c094"/><path d="m12 29.6.8.8.8-.8c-.4 0-1.2 0-1.6 0z" fill="#c8c094"/><g fill="#484d22"><path d="m23.2 21.6-.8.8h1.6z"/><path d="m20.8 26.4h.8l-.8-.8z"/><path d="m18.4 28h1.6v-.8h-.8z"/><path d="m12 27.2v.8h1.6l-.8-.8z"/><path d="m11.2 26.4v-.8l-.8.8z"/><path d="m8 22.4h1.6l-.8-.8z"/></g><g fill="#55332c"><path d="m18.4 20c-.4.4-1.2 1.2-1.6 1.6-.4 0-1.2 0-1.6 0-.4-.4-1.2-1.2-1.6-1.6-.4 0-1.2 0-1.6 0 1.3 1.3 2.7 2.7 4 4 1.3-1.3 2.7-2.7 4-4-.4 0-1.2 0-1.6 0z"/><path d="m20.8 19.2-.8.8.8.8c0-.4 0-1.2 0-1.6z"/><path d="m11.2 20v.8l.8-.8-.8-.8z"/><path d="m24 21.6h-.8l.8.8.8-.8z"/><path d="m20.8 21.6v1.6h.8c0-.4 0-1.2 0-1.6l-.8-.8z"/><path d="m20.8 24.8v.8h.8c0-.4 0-1.2 0-1.6h-.8z"/><path d="m20 24.8-.8.8h.8z"/><path d="m19.2 31.2h-.8v.8h2.4v-.8c-.4 0-1.2 0-1.6 0z"/><path d="m16.8 31.2v.8h.8l.8-.8c-.4 0-1.2 0-1.6 0z"/><path d="m17.6 26.4h.8l.8-.8c-2.1 0-4.3 0-6.4 0l.8.8z"/><path d="m13.6 31.2.8.8h.8v-.8c-.4 0-1.2 0-1.6 0z"/><path d="m12 31.2h-.8v.8h2.4v-.8c-.4 0-1.2 0-1.6 0z"/><path d="m12 25.6h.8l-.8-.8z"/><path d="m11.2 24.8v-.8h-.8v1.6h.8z"/><path d="m10.4 22.4v.8h.8c0-.7 0-1.7 0-2.4l-.8.8z"/><path d="m7.2 21.6.8.8.8-.8c-.4 0-1.2 0-1.6 0z"/></g><g fill="#6a7c35"><path d="m24 22.4c-.4 0-1.2 0-1.6 0l-.8.8h-.8v.8h4v-.8z"/><path d="m23.2 26.4-.8-.8c-.4 0-1.2 0-1.6 0l.8.8h-.8v-.8l-.8.8 2.4 2.4h1.6l.8-.8c-.4-.4-1.2-1.2-1.6-1.6z"/><path d="m18.4 28-.8.8h-.8v.8h3.2c0-.4 0-1.2 0-1.6-.4 0-1.2 0-1.6 0z"/><path d="m13.6 28c-.4 0-1.2 0-1.6 0v1.6h3.2v-.8h-.8z"/><path d="m11.2 25.6v.8h-.8l.8-.8c-.4 0-1.2 0-1.6 0-.7.7-1.7 1.7-2.4 2.4l.8.8h1.6l2.4-2.4z"/><path d="m8.8 24h2.4v-.8h-.8l-.8-.8c-.4 0-1.2 0-1.6 0l-.8.8v.8z"/></g><g fill="#6d4a25"><path d="m25.6 24.8h.8l-.8-.8c-1.3 0-2.7 0-4 0v1.6h.8l2.4 2.4.8-.8v-.8h.8l-.8-.8z"/><path d="m21.6 22.4v.8c.4-.4 1.2-1.2 1.6-1.6h1.6v-.8h-.8l-.8-.8v-.8c-.7 0-1.7 0-2.4 0v1.6l.8.8z"/><path d="m19.2 30.4-.8-.8c-.4 0-1.2 0-1.6 0v1.6h4v-.8l-.8-.8z"/><path d="m19.2 20.8c-1 1-2.2 2.2-3.2 3.2-1.3-1.3-2.7-2.7-4-4l-.8.8v3.2c.4.4 1.2 1.2 1.6 1.6h.8v-.8l.8-.8v1.6h4.8l-.8-.8h-.8v-.8l.8.8h.8v.8c.4-.4 1.2-1.2 1.6-1.6 0-1 0-2.2 0-3.2l-.8-.8z"/><path d="m17.6 26.4c-1.3 0-2.7 0-4 0l-.8-.8h-.8v1.6h.8c.4.4 1.2 1.2 1.6 1.6h3.2c.4-.4 1.2-1.2 1.6-1.6h.8c0-.4 0-1.2 0-1.6h-.8l-.8.8z"/><path d="m13.6 29.6-.8.8-.8-.8-.8.8v.8h4c0-.4 0-1.2 0-1.6-.4 0-1.2 0-1.6 0z"/><path d="m11.2 19.2c-.7 0-1.7 0-2.4 0v.8l-.8.8h-.8v.8h1.6l1.6 1.6c0-.4 0-1.2 0-1.6l.8-.8c0-.4 0-1.2 0-1.6z"/><path d="m8.8 24c-.7 0-1.7 0-2.4 0l-.8.8h.8v.8l-.8.8h.8v.8l.8.8 2.4-2.4h.8c0-.4 0-1.2 0-1.6-.4 0-1.2 0-1.6 0z"/></g></svg>