<svg enable-background="new 0 0 32 32" viewBox="0 0 32 32" xmlns="http://www.w3.org/2000/svg"><path d="m21.6 26.4h-.8v-.8z" fill="#9d6c3a"/><g fill="#958980"><path d="m20 20v3.2l.8.8c0-1.6 0-3.2 0-4.8z"/><path d="m19.2 30.4.8-.8c-1 0-2.2 0-3.2 0v1.6h4v-.8c-.4 0-1.2 0-1.6 0z"/><path d="m20 25.6v-.8l-.8.8z"/><path d="m16.8 22.4v-.8h1.6l.8-.8-.8-.8c-1.6 0-3.2 0-4.8 0l-.8.8.8.8h1.6v1.6l.8.8.8-.8z"/><path d="m13.6 29.6c-.4 0-1.2 0-1.6 0l.8.8c-.4 0-1.2 0-1.6 0v.8h4c0-.4 0-1.2 0-1.6-.4 0-1.2 0-1.6 0z"/><path d="m12 25.6h.8l-.8-.8z"/><path d="m12 22.4c0-.7 0-1.7 0-2.4l-.8-.8v4.8l.8-.8z"/></g><path d="m11.2 25.6v.8h-.8z" fill="#9d6c3a"/><path d="m23.2 21.6-.8.8h1.6z" fill="#9d6c3a"/><path d="m8 22.4h1.6l-.8-.8z" fill="#9d6c3a"/><path d="m23.2 20-.8-.8c-.4 0-1.2 0-1.6 0v4.8l3.2-3.2z" fill="#c6b9b0"/><path d="m19.2 30.4h1.6l-.8-.8z" fill="#c6b9b0"/><path d="m20 22.4c0-.7 0-1.7 0-2.4l-.8-.8c-2.1 0-4.3 0-6.4 0l-.8.8v3.2l-.8.8c.4.4 1.2 1.2 1.6 1.6h6.4l1.6-1.6-.8-.8zm-6.4-2.4h4.8l.8.8-.8.8c-.4 0-1.2 0-1.6 0v1.6l-.8.8-.8-.8c0-.4 0-1.2 0-1.6-.4 0-1.2 0-1.6 0l-.8-.8z" fill="#c6b9b0"/><path d="m11.2 30.4h1.6l-.8-.8z" fill="#c6b9b0"/><path d="m11.2 22.4c0-1 0-2.2 0-3.2-.4 0-1.2 0-1.6 0-.4.4-1.2 1.2-1.6 1.6l3.2 3.2c0-.4 0-1.2 0-1.6z" fill="#c6b9b0"/><path d="m24 22.4c-.4 0-1.2 0-1.6 0-.4.4-1.2 1.2-1.6 1.6h3.2l.8.8c0-.4 0-1.2 0-1.6z" fill="#c79563"/><path d="m23.2 26.4-.8-.8c-.4 0-1.2 0-1.6 0l.8.8h-.8v-.8l-.8.8 2.4 2.4h1.6l.8-.8c-.4-.4-1.2-1.2-1.6-1.6z" fill="#c79563"/><path d="m11.2 26.4h-.8l.8-.8c-.4 0-1.2 0-1.6 0-.7.7-1.7 1.7-2.4 2.4l.8.8h1.6l2.4-2.4-.8-.8z" fill="#c79563"/><path d="m8.8 24h2.4c-.4-.4-1.2-1.2-1.6-1.6-.4 0-1.2 0-1.6 0l-.8.8v1.6l.8-.8z" fill="#c79563"/><path d="m24.8 26.4c-.4-.4-1.2-1.2-1.6-1.6-.7 0-1.7 0-2.4 0v.8h1.6l2.4 2.4.8-.8z" fill="#52618c"/><path d="m19.2 31.2c-.7 0-1.7 0-2.4 0v.8h4v-.8c-.4 0-1.2 0-1.6 0z" fill="#52618c"/><path d="m16.8 28.8v.8h3.2c0-1 0-2.2 0-3.2l-.8.8-.8-.8-.8.8-.8-.8-.8.8-.8-.8-.8.8-.8-.8-.8.8-.8-.8v3.2h3.2c0-.4 0-1.2 0-1.6h1.6z" fill="#52618c"/><path d="m13.6 31.2c-.7 0-1.7 0-2.4 0v.8h4v-.8c-.4 0-1.2 0-1.6 0z" fill="#52618c"/><path d="m13.6 26.4h6.4v-.8c-2.6 0-5.4 0-8 0v.8z" fill="#52618c"/><path d="m11.2 24.8c-.7 0-1.7 0-2.4 0-.7.7-1.7 1.7-2.4 2.4l.8.8 2.4-2.4h1.6z" fill="#52618c"/><g fill="#677aa0"><path d="m24.8 24.8-.8-.8c-1 0-2.2 0-3.2 0v.8h2.4l2.4 2.4c0-.4 0-1.2 0-1.6z"/><path d="m18.4 26.4.8.8.8-.8c-.4 0-1.2 0-1.6 0z"/><path d="m16.8 26.4.8.8.8-.8c-.4 0-1.2 0-1.6 0z"/><path d="m15.2 26.4.8.8.8-.8c-.4 0-1.2 0-1.6 0z"/><path d="m13.6 26.4.8.8.8-.8c-.4 0-1.2 0-1.6 0z"/><path d="m12 26.4.8.8.8-.8c-.4 0-1.2 0-1.6 0z"/><path d="m9.6 24c-.4 0-1.2 0-1.6 0-.4.4-1.2 1.2-1.6 1.6v1.6c.7-.7 1.7-1.7 2.4-2.4h2.4v-.8c-.4 0-1.2 0-1.6 0z"/></g></svg>