<svg enable-background="new 0 0 32 32" viewBox="0 0 32 32" xmlns="http://www.w3.org/2000/svg"><g fill="#9f8e7a"><path d="m10.4 11.2h.8l-.8-.8z"/><path d="m20 10.4v.8h.8c0-.4 0-1.2 0-1.6z"/><path d="m20 13.6.8.8c0-.4 0-1.2 0-1.6h-.8z"/></g><g fill="#c8c094"><path d="m14.4 16h1.6l-.8-.8z"/><path d="m19.2 12.8-.8-.8-.8.8z"/><path d="m14.4 14.4c-.4.4-1.2 1.2-1.6 1.6h1.6c0-.4 0-1.2 0-1.6z"/><path d="m20 15.2-.8.8h1.6l.8-.8c0-.4 0-1.2 0-1.6-.4.4-1.2 1.2-1.6 1.6z"/><path d="m16 16h1.6l-.8-.8z"/><path d="m20.8 12.8.8-.8c-.4 0-1.2 0-1.6 0l-.8.8z"/><path d="m17.6 14.4v1.6h1.6c-.4-.4-1.2-1.2-1.6-1.6z"/><path d="m14.4 12.8-.8-.8-.8.8z"/><path d="m11.2 14.4-.8-.8v1.6l.8.8h1.6c-.4-.4-1.2-1.2-1.6-1.6z"/><path d="m12 12.8h.8l-.8-.8c-.4 0-1.2 0-1.6 0l.8.8z"/></g><g fill="#484d22"><path d="m14.4 12h.8l-.8-.8c-1.3 0-2.7 0-4 0v.8h3.2l.8.8z"/><path d="m25.6 9.6c-.7.7-1.7 1.7-2.4 2.4l.8.8-.8.8v1.6l.8.8 2.4-2.4c0-.4 0-1.2 0-1.6l-.8-.8.8-.8c0-.4 0-1.2 0-1.6z"/><path d="m16 17.6c-.4 0-1.2 0-1.6 0l.8.8h1.6l.8-.8c-.4 0-1.2 0-1.6 0z"/><path d="m8.8 15.2c0-.4 0-1.2 0-1.6l-.8-.8.8-.8c-1-1-2.2-2.2-3.2-3.2v1.6l.8.8-.8.8v1.6l2.4 2.4z"/><path d="m20 11.2c-.7 0-1.7 0-2.4 0l-.8.8h.8v.8l.8-.8h3.2v-.8c-.4 0-1.2 0-1.6 0z"/><path d="m16 13.6h.8l-.8-.8-.8.8z"/></g><path d="m13.6 12c-.4 0-1.2 0-1.6 0l.8.8z" fill="#6b4528"/><path d="m20 12c-.4 0-1.2 0-1.6 0l.8.8z" fill="#6b4528"/><path d="m26.4 7.2c-1 1-2.2 2.2-3.2 3.2-.7-.7-1.7-1.7-2.4-2.4-3.2 0-6.4 0-9.6 0-.7.7-1.7 1.7-2.4 2.4-1-1-2.2-2.2-3.2-3.2h-.8v7.2c.7.7 1.7 1.7 2.4 2.4h.8v2.4l4 4h8c1.3-1.3 2.7-2.7 4-4 0-.7 0-1.7 0-2.4h.8c.7-.7 1.7-1.7 2.4-2.4 0-.7 0-1.7 0-2.4h-.8v1.6c-.7.7-1.7 1.7-2.4 2.4l-.8-.8c0-.4 0-1.2 0-1.6l.8-.8-.8-.8c1-1 2.2-2.2 3.2-3.2v1.6l-.8.8.8.8.8-.8c0-1.3 0-2.7 0-4zm-5.6 3.2v.8h.8v.8l-.8.8v1.6l.8-.8v1.6l-.8.8c-3.2 0-6.4 0-9.6 0l-.8-.8c0-.4 0-1.2 0-1.6l2.4 2.4 1.6-1.6v1.6l.8-.8.8.8.8-.8.8.8c0-.4 0-1.2 0-1.6.4.4 1.2 1.2 1.6 1.6.4-.4 1.2-1.2 1.6-1.6l-.8-.8v-.8c-.7 0-1.7 0-2.4 0v-.8h-.8l.8-.8h2.4v-.8l.8-.8zm-4.8 2.4.8.8c-.4 0-1.2 0-1.6 0zm-.8 4.8h2.4l-.8.8c-.4 0-1.2 0-1.6 0l-.8-.8zm-4-6.4h3.2l.8.8h-.8v.8c-1 0-2.2 0-3.2 0l-.8-.8c0-.4 0-1.2 0-1.6zm-4 4c-.4-.4-1.2-1.2-1.6-1.6 0-.4 0-1.2 0-1.6l.8-.8-.8-.8c0-.4 0-1.2 0-1.6l3.2 3.2-.8.8.8.8v1.6l-.8.8z" fill="#6a7c35"/></svg>