<svg enable-background="new 0 0 32 32" viewBox="0 0 32 32" xmlns="http://www.w3.org/2000/svg"><path d="m16 15.2-.8.8h1.6z" fill="#9e6b3b"/><path d="m18.4 14.4.8.8.8-.8z" fill="#765421"/><path d="m12 14.4.8.8.8-.8c-.4 0-1.2 0-1.6 0z" fill="#765421"/><g fill="#ede4bb"><path d="m20 14.4-.8.8h1.6l.8-.8z"/><path d="m17.6 15.2h1.6l-.8-.8z"/><path d="m12.8 15.2h1.6l-.8-.8z"/><path d="m10.4 14.4.8.8h1.6l-.8-.8z"/></g><g fill="#c69463"><path d="m22.4 12.8v-.8c-.4-.4-1.2-1.2-1.6-1.6-1 0-2.2 0-3.2 0-.4.4-1.2 1.2-1.6 1.6-.4-.4-1.2-1.2-1.6-1.6-1 0-2.2 0-3.2 0-.4.4-1.2 1.2-1.6 1.6v.8h5.6l.8.8.8-.8z"/><path d="m15.2 19.2h1.6l-.8-.8z"/><path d="m15.2 16 .8.8.8-.8c-.4 0-1.2 0-1.6 0z"/><path d="m14.4 14.4h-.8l.8.8c-1 0-2.2 0-3.2 0l-.8-.8-.8-.8v3.2l.8.8c.4-.4 1.2-1.2 1.6-1.6h3.2l.8-.8.8.8h3.2l1.6 1.6.8-.8c0-1 0-2.2 0-3.2l-.8.8-.8.8c-1 0-2.2 0-3.2 0l.8-.8c-.4 0-1.2 0-1.6 0l-.8-.8-.8.8z"/></g><path d="m24 15.2v-3.2l-.8-.8v-3.2l-.8.8h-9.6l-.8-.8v.8h-.8l-.8.8h-1.6v.8h-.8v4.8l-.8-.8v3.2l.8.8v1.6l4 4h8l4-4v-1.6l.8-.8v-3.2zm-12-4.8h2.4l1.6 1.6c.4-.4 1.2-1.2 1.6-1.6h3.2c.4.4 1.2 1.2 1.6 1.6v.8h-5.6l-.8.8.8.8h4.8l.8-.8v3.2l-.8.8c-.4-.4-1.2-1.2-1.6-1.6h-3.2l-.8.8-.8-.8h-3.2c-.4.4-1.2 1.2-1.6 1.6l-.8-.8v-3.2l.8.8h4.8l.8-.8-.8-.8h-5.6v-.8c.4-.4 1.2-1.2 1.6-1.6zm4.8 8.8h-1.6l.8-.8z" fill="#a65225"/></svg>