<svg enable-background="new 0 0 32 32" viewBox="0 0 32 32" xmlns="http://www.w3.org/2000/svg"><path d="m14.4 28h-.8v2.4h1.6v-1.6z" fill="#765421"/><path d="m12.8 30.4h-.8l.8.8.8-.8z" fill="#ede4bb"/><path d="m12.8 28h-.8v2.4h1.6v-2.4z" fill="#a77c2c"/><path d="m14.4 30.4h-.8l-.8.8-.8-.8-.8.8v.8h4v-1.6z" fill="#89532a"/><path d="m10.4 27.2h.8v-.8z" fill="#9e6b3b"/><path d="m8 23.2h1.6l-.8-.8z" fill="#9e6b3b"/><path d="m10.4 24.8v1.6h.8c0-.4 0-1.2 0-1.6z" fill="#765421"/><path d="m7.2 22.4.8.8.8-.8c-.4 0-1.2 0-1.6 0z" fill="#765421"/><path d="m11.2 26.4v.8h-.8l.8-.8c-.4 0-1.2 0-1.6 0-.7.7-1.7 1.7-2.4 2.4l.8.8h1.6l2.4-2.4z" fill="#c69463"/><path d="m8.8 24.8h2.4c-.4-.4-1.2-1.2-1.6-1.6-.4 0-1.2 0-1.6 0l-.8.8v.8z" fill="#c69463"/><path d="m6.4 26.4.8-.8.8.8-.8.8z" fill="#ede4bb"/><path d="m10.4 20h-.8c-.4.4-1.2 1.2-1.6 1.6h-.8v.8h1.6l2.4 2.4c0-1.6 0-3.2 0-4.8z" fill="#a77c2c"/><path d="m8.8 24.8c-.7 0-1.7 0-2.4 0v1.6l.8-.8.8.8-.8.8-.8-.8v1.6l.8.8 2.4-2.4h.8c0-.4 0-1.2 0-1.6-.4 0-1.2 0-1.6 0z" fill="#a77c2c"/><path d="m17.6 28h.8v2.4h-1.6v-1.6z" fill="#765421"/><path d="m19.2 30.4h.8l-.8.8-.8-.8z" fill="#ede4bb"/><path d="m19.2 28h.8v2.4h-1.6v-2.4z" fill="#a77c2c"/><path d="m17.6 30.4h.8l.8.8.8-.8.8.8v.8h-4v-1.6z" fill="#89532a"/><path d="m15.2 27.2.8-.8.8.8-.8.8z" fill="#ede4bb"/><path d="m19.2 26.4c-1 0-2.2 0-3.2 0l.8.8-.8.8h4c0-.4 0-1.2 0-1.6z" fill="#89532a"/><path d="m16 26.4c-1.3 0-2.7 0-4 0v1.6h4l-.8-.8z" fill="#89532a"/><path d="m20 23.2v-2.4l.8-.8-.8-.8h-8l-.8.8.8.8v3.2l-.8.8c.4.4 1.2 1.2 1.6 1.6h6.4l1.6-1.6-.8-.8zm-7.2-2.4v-.8h6.4v1.6l-.8.8h-1.6v1.6l-.8.8-.8-.8v-1.6h-1.6l-.8-.8z" fill="#a77c2c"/><path d="m16 28c-.4 0-1.2 0-1.6 0l.8.8h1.6l.8-.8c-.4 0-1.2 0-1.6 0z" fill="#a77c2c"/><g fill="#765421"><path d="m20 20.8v3.2l.8.8c0-1.6 0-3.2 0-4.8z"/><path d="m20 26.4v-.8l-.8.8z"/><path d="m19.2 20.8v-.8c-2.1 0-4.3 0-6.4 0v1.6l.8.8h1.6v1.6l.8.8.8-.8c0-.4 0-1.2 0-1.6h1.6l.8-.8z"/><path d="m12 26.4h.8l-.8-.8z"/><path d="m12 23.2c0-.7 0-1.7 0-2.4l-.8-.8v4.8l.8-.8z"/></g><path d="m20.8 27.2h.8l-.8-.8z" fill="#9e6b3b"/><path d="m23.2 22.4-.8.8h1.6z" fill="#9e6b3b"/><path d="m20.8 25.6v.8h.8c0-.4 0-1.2 0-1.6h-.8z" fill="#765421"/><path d="m24 22.4h-.8l.8.8.8-.8z" fill="#765421"/><path d="m23.2 27.2-.8-.8c-.4 0-1.2 0-1.6 0l.8.8h-.8v-.8l-.8.8 2.4 2.4h1.6l.8-.8c-.4-.4-1.2-1.2-1.6-1.6z" fill="#c69463"/><path d="m24 23.2c-.4 0-1.2 0-1.6 0-.4.4-1.2 1.2-1.6 1.6h4v-.8z" fill="#c69463"/><path d="m24 26.4.8-.8.8.8-.8.8z" fill="#ede4bb"/><g fill="#a77c2c"><path d="m22.4 23.2.8-.8h1.6v-.8h-.8c-.4-.4-1.2-1.2-1.6-1.6-.4 0-1.2 0-1.6 0v4.8z"/><path d="m24.8 24.8c-1 0-2.2 0-3.2 0v1.6h.8l2.4 2.4.8-.8c0-.4 0-1.2 0-1.6l-.8.8-.8-.8.8-.8.8.8c0-.4 0-1.2 0-1.6z"/></g></svg>