<svg enable-background="new 0 0 34 34" viewBox="0 0 34 34" xmlns="http://www.w3.org/2000/svg"><g fill="#fff"><path d="m12.5 33.4c-.2 0-.3-.1-.5-.1.2 0 .4.1.5.1z"/><path d="m13.2 33.6c-.1 0-.3-.1-.4-.1.1 0 .2 0 .4.1z"/><path d="m11.9 33.2c-.2-.1-.4-.1-.6-.2.2.1.4.2.6.2z"/><path d="m13.8 33.7c-.1 0-.3-.1-.4-.1.1 0 .3.1.4.1z"/><path d="m10.8 32.8c.1 0 .2.1.3.1-.1 0-.2 0-.3-.1z"/><path d="m16.9 34c-.1 0-.2 0-.3 0 0 0 0 0-.1 0s0 0-.1 0-.1 0-.2 0-.1 0-.2 0h-.1-.1s0 0-.1 0-.2 0-.3 0z"/><path d="m15.4 33.9c-.2 0-.4 0-.7-.1.2.1.4.1.7.1z"/><path d="m14.5 33.8c-.1 0-.3 0-.4-.1.1.1.2.1.4.1z"/><path d="m26.9 30.8c-.2.1-.3.2-.5.3.2 0 .4-.1.5-.3z"/><path d="m34 18.3v.3c0-.1 0-.2 0-.3z"/><path d="m17.3 34c-.1 0-.2 0-.3 0h-.1c2.6 0 5.1-.5 7.3-1.6-2.1 1-4.4 1.5-6.9 1.6.1 0 .1 0 0 0z"/><path d="m25.3 31.8c-.4.2-.7.4-1.1.6.4-.2.8-.4 1.1-.6z"/><path d="m26.4 31.2c-.3.2-.7.4-1 .6.3-.2.6-.4 1-.6z"/></g><g fill="#1e1e1e"><path d="m33.9 27.9-15.7-10.5 3.4-1.8-11.8-3.4 6.3 10.2 1.2-3.7 15.3 10.9c.5-.5.9-1.1 1.3-1.7z"/><path d="m22.2.8c-1.1-.4-2.3-.6-3.5-.7-.5 0-1-.1-1.5-.1l-.7 6.4c.8.1 1.6.3 2.3.6z"/><path d="m22.1 13.6.5-.1c-1-2.7-3.4-4.7-6.3-5.1l-.1.5c2.7.4 4.9 2.2 5.9 4.7z"/><path d="m24.6 13.2 8.8-1.2c-1.5-4.8-5-8.8-9.7-10.7l-3.7 6.3c2.1 1.2 3.8 3.2 4.6 5.6z"/><path d="m34 15.3c-.1-.7-.2-1.3-.3-2l-8.9.8c.1.3.1.5.1.8z"/><path d="m7.8 18.3c-.2-.9-.3-1.8-.2-2.7.2-2 1.2-3.8 2.7-5.1 1.4-1.1 3-1.7 4.8-1.7v-.5c-1.9 0-3.7.6-5.1 1.8-1.7 1.4-2.7 3.3-2.9 5.4-.1 1 0 2 .3 3z"/><path d="m5.6 19.4c-.4-1.3-.6-2.7-.5-4.1.5-5.2 5-9.1 10.1-9l.6-6.3c-8.2.6-14.9 7-15.7 15.3-.2 2.3 0 4.5.7 6.6z"/><path d="m7.3 22.5c-.2-.3-.4-.5-.6-.8l-4.8 3c.3.5.6 1.1.9 1.6z"/><path d="m9.2 21c-.1-.2-.3-.4-.4-.6l-.4.3c.1.2.3.4.4.6z"/><path d="m12.3 25.9c-1.6-.5-3-1.3-4.2-2.4l-4.5 4c1.9 2.4 4.4 4.3 7.3 5.4z"/><path d="m32 25.1c1.1-1.9 1.8-4.1 2-6.5 0-.1 0-.2 0-.2l-9-1.1c-.1.9-.3 1.7-.6 2.5z"/><path d="m21.8 23.6c-2 1.8-4.8 2.8-7.7 2.6-.2 0-.4-.1-.6-.1l-1.2 7.2c1 .3 2 .5 3.1.6 5.4.5 10.4-1.5 13.9-5.1z"/><path d="m19.7 22.2c-1.5 1.2-3.4 1.8-5.4 1.6-1.6-.2-3.2-.8-4.4-1.9l-.4.3c1.3 1.2 2.9 1.9 4.7 2.1h.8c1.9 0 3.7-.7 5.1-1.8z"/><path d="m22.5 17c0 .5-.1.9-.3 1.4l.5.3c.2-.5.3-1.1.3-1.6.1-.9 0-1.9-.2-2.7h-.5c.2.8.3 1.7.2 2.6z"/></g></svg>