<svg enable-background="new 0 0 34 34" viewBox="0 0 34 34" xmlns="http://www.w3.org/2000/svg"><g fill="#1e1e1e"><path d="m13.4 33.7 12.4-26-23.8 17.3c2.3 4.4 6.5 7.6 11.4 8.7z"/><path d="m32.8 10.7c-.1-.2-.2-.4-.3-.6-.2-.6-.5-1.1-.8-1.6-.1-.2-.2-.4-.3-.5 0-.1-.1-.1-.1-.2-3.1-4.7-8.3-7.8-14.3-7.8-.1 0-.3 0-.4 0h-.1c-.1 0-.2 0-.3 0s-.2 0-.2 0c-.1 0-.2 0-.3 0s-.1 0-.2 0-.2 0-.2 0c-.1 0-.1 0-.2 0s-.2 0-.2 0c-.1 0-.1 0-.2 0s-.2 0-.2 0c-.1 0-.1 0-.2 0s-.2 0-.2 0c-.1 0-.1 0-.2 0s-.1 0-.2 0-.1 0-.2 0-.1 0-.2 0-.1 0-.2 0-.1 0-.2.1c-.1 0-.1 0-.2 0s-.1 0-.2.1c-.1 0-.1 0-.2.1-.1 0-.1 0-.2.1-.1 0-.1 0-.2.1-.1 0-.1 0-.2.1-.1 0-.1 0-.2.1-.1 0-.1 0-.2.1-.1 0-.1 0-.2.1-.1 0-.1.1-.2.1s-.1 0-.2.1c-.1 0-.1.1-.2.1s-.1 0-.2.1-.2.1-.4.2c-.1 0-.1.1-.2.1s-.1.1-.2.1-.1.1-.2.1-.1.1-.2.1-.1.1-.2.1c.1 0 .1 0 0 0s-.1.1-.2.1-.1.1-.2.1-.1.1-.2.1c0 0-.1.1-.1.1 0 .1-.1.1-.2.1 0 0-.1.1-.1.1-.1 0-.1.1-.2.1 0 0-.1.1-.1.1-.1.1-.2.1-.2.2 0 0-.1.1-.1.1-.1 0-.2.1-.3.1 0 0-.1.1-.1.1-.1 0-.1.1-.2.1 0 0-.1.1-.1.1-.1.1-.1.1-.2.2 0 0-.1.1-.1.1-.1 0-.1.1-.2.1 0 .1-.1.1-.1.1-.1.1-.1.1-.2.2 0 0 0 0-.1.1 0 0-.1.1-.2.2-.7.6-1.3 1.2-1.8 1.9-.1.1-.2.2-.2.3-.1.1-.2.2-.3.3-.1.2-.1.2-.2.3v.1c-.1.1-.2.2-.2.3v.1c-.1 0-.2.1-.2.2-.1.1-.2.2-.2.3-.1.2-.2.3-.2.4-.1.1-.2.2-.2.3-.7 1.4-1.3 2.8-1.6 4.4 0 .1-.1.3-.1.4 0 .1 0 .3-.1.4 0 .1 0 .3-.1.4v.4.4l8.8-2.2-8.9 4.7c.1 1.1.2 2.1.5 3.1l13.3-8.1-3.7.1 17-6.8-5.3 22.5-.2-5.7-3.8 11c1 0 1.9-.2 2.8-.4l.9-3.7-.1 3.5c6.6-1.8 11.6-7.6 12.3-14.6 0 0 0 0 0-.1s0-.2 0-.3 0-.1 0-.2 0-.2 0-.2c0-.1 0-.1 0-.2s0-.2 0-.3v-.1c0-.1 0-.3 0-.4.3-2.2-.1-4.3-.9-6.3z"/></g></svg>