<?xml version="1.0" encoding="utf-8"?>
<!-- Generator: Adobe Illustrator 27.4.0, SVG Export Plug-In . SVG Version: 6.00 Build 0)  -->
<svg version="1.1" id="Layer_1" xmlns="http://www.w3.org/2000/svg" xmlns:xlink="http://www.w3.org/1999/xlink" x="0px" y="0px"
	 viewBox="0 0 34 34" style="enable-background:new 0 0 34 34;" xml:space="preserve">
<style type="text/css">
	.st0{fill:#1E1E1E;}
</style>
<g>
	<g>
		<path class="st0" d="M16,14c-0.2,0.6-0.2,3.8,2.9,1.5c0,0,0.1-0.1,0.1-0.1c2.3-2.1,4.7-4.4,6.2-5.9l-3.4,4.3L20.4,16
			c0,0-0.8,1-1.4,3.1c-0.1,1,0.3,1.8,1.7,1.5c0,0-1.3,3.2,1,2.6c0.5-0.1,1-0.4,1.3-0.7c1.7-1.5,8.1-7.2,9.5-8.5l-4.8,5.2l-2.6,3
			c-0.5,0.5-1.7,1.9-1.3,2.5c0.7,1.2,2.7-1,2.7-1s0.7,0.9,4.8-3c0.6-0.5,1-0.9,1.4-1.2c-1.2,1.3-3.3,3.9-4.2,5.6
			c-1.2,2.3,1.1,1.3,1.1,1.3s-0.8,1.7-1.1,3.2c5.3-4.9,7.1-12.8,3.9-19.7c0-0.1-0.1-0.2-0.2-0.3l-10.4,9.8l7.6-8.5l2.7-1.5
			C30.5,6.1,28,3.6,25,2C21.1,5.9,17.2,10.4,16,14z"/>
		<path class="st0" d="M25.8,31.6C13.4,20.4,8.1,9.9,8.1,9.9L7.8,15c2.4,6.3,7.8,13.1,12.9,18.6c1.2-0.3,2.3-0.7,3.4-1.2
			C25.7,31.7,25.8,31.6,25.8,31.6z"/>
		<path class="st0" d="M12,26c-2.9-3.5-5.1-7-6-9.8c-0.9-2.9-0.5-5.4,0.7-7.9c0.9-1.8,2.5-3.8,4.6-5.7c-1.1,1.3-1.9,2.7-1.6,3.7
			c0.4,1.3,8.3-5.4,8.3-5.4s-7.3,7.7-5.9,8.8c1,0.8,4.8-2.6,7.9-5.6c-1.5,1.8-2.9,3.5-2.7,3.8c0.4,0.6,5.2-4.2,7.1-6.2
			c-4.5-2.2-9.9-2.5-14.8-0.2c-8.5,4-12.2,14.1-8.2,22.6c3.3,6.9,10.6,10.6,17.8,9.6C17.2,31.7,14.7,29.1,12,26z"/>
	</g>
</g>
</svg>
