<svg enable-background="new 0 0 34 34" viewBox="0 0 34 34" xmlns="http://www.w3.org/2000/svg"><g fill="#1e1e1e"><path d="m34 15.8c-.7-9.4-8.9-16.4-18.2-15.8-6.6.5-12 4.7-14.4 10.3 1.4 0 2.9 0 4.1-.1 3.3-.2 6.5-.6 6.5-.6s-2.9 1.2-6 1.9c-2 .5-4.1.7-5.4.9-.3.9-.4 1.9-.5 2.8l5-.4-5 2.5v.9c.1 1.3.3 2.6.7 3.8 2.1-1 4.5-2.1 6.2-3.1 4.4-2.7 7.5-5.9 7.5-5.9s-4.5 1-7.1 1.1c3-1.7 7.6-4.5 10.4-6.4s6.5-3.8 9.4-1.5c1.1.9 1.9 2.4 1.8 3.9-.1 3.1-2.7 7.1-2.7 7.1v-2.4s-2.2 2.1-4.4 5.2c-2.1 3.1-4.2 7.3-4.2 7.3s0-.8 0-2.4c.1-1 .1-2.1.1-2.1s-1 .7-3.3 4.5c-1.3 2.1-2.2 4.2-2.9 5.8 1.3.4 2.7.7 4.1.8l1.5-3.7.2 3.8h.5c1-.1 2-.2 2.9-.5.7-4.7 2.6-10.9 4.1-13.7 0 0-.3 1.1-.5 2.7-.1.6-.9 6-.8 10 6.7-2.9 10.9-9.4 10.4-16.7z"/><path d="m21.1 16.1c3.5-2.6 8.1-6.1 5.4-8.9-2.7-2.9-6.4 1.6-9.3 5.6-2.2 2.9-4.5 6.3-7.2 9.2-2.1 2.2-4.4 4.1-6.3 5.6 1 1.3 2.2 2.4 3.5 3.3 1.5-2.1 3.5-4.7 5.8-7.2 2-2.3 5.2-5.5 8.1-7.6z"/></g></svg>