<svg enable-background="new 0 0 34 34" viewBox="0 0 34 34" xmlns="http://www.w3.org/2000/svg"><g fill="#1e1e1e"><path d="m31.9 8.8c.1.2.2.3.3.5-.1-.2-.2-.3-.3-.5z"/><path d="m31.1 7.5c.1.1.1.2.2.3 0-.1-.1-.2-.2-.3z"/><path d="m23.4 1.2c.1.1.3.1.4.2-.1-.1-.3-.1-.4-.2z"/><path d="m29.2 5.2c-.1-.2-.2-.3-.4-.4.2.1.3.2.4.4z"/><path d="m28.1 4.1c-.1-.1-.3-.2-.4-.4.1.2.3.3.4.4z"/><path d="m26.9 3.1c-.1-.1-.3-.2-.4-.3.1.1.2.2.4.3z"/><path d="m32.6 10.2c.1.2.2.4.2.5-.1-.2-.1-.3-.2-.5z"/><path d="m33.2 22-7.5 1.9 6.7.1c.4-.6.6-1.3.8-2z"/><path d="m33.4 12.4-7.7 9.5 8.3-4.1c0-.3 0-.5 0-.8 0-1.5-.2-3.1-.6-4.6z"/><path d="m18.8 33.9c1-.1 2-.3 2.9-.6l-2.1-7.7z"/><path d="m20.5 26.2 2.9 6.5c.8-.3 1.5-.7 2.2-1.1z"/><path d="m20.3.3c.2 0 .4.1.6.1-.2 0-.4-.1-.6-.1z"/><path d="m17.4 28.2-2 2.4-.7-2.3-6 3.5c2.4 1.4 5.2 2.2 8.2 2.2h.2z"/><path d="m21.8.7c.2.1.4.1.5.2-.1-.1-.3-.2-.5-.2z"/><path d="m13.5 27.3-9.4.9c.7.9 1.6 1.6 2.5 2.3z"/><path d="m23 25.8 5.1 4c.8-.7 1.6-1.5 2.3-2.4z"/><path d="m3 26.7c-.1-.2-.3-.4-.4-.6.2.2.3.4.4.6z"/><path d="m1.9 24.7c.1.2.2.4.3.6-.1-.2-.2-.4-.3-.6z"/><path d="m18.7 0c.2 0 .3 0 .5.1-.1 0-.3 0-.5-.1z"/><path d="m1.2 23.2c.1.2.2.4.3.6-.1-.1-.2-.3-.3-.6z"/><path d="m.4 20.8c0-.2-.1-.4-.1-.6 0 .2.1.4.1.6z"/><path d="m.1 18.5c0 .2 0 .4.1.5-.1-.1-.1-.3-.1-.5z"/><path d="m3.2 27 7.9-.6-10-3.2c.6 1.3 1.3 2.6 2.1 3.8z"/><path d="m28.3 15.9 4.6-4.8c-.6-1.8-1.6-3.4-2.7-4.8z"/><path d="m25.8 2.4-1.1 3.8h1.8l-1.3 5.2.9 3.1 3.3-9.2c-1-1.1-2.2-2.1-3.6-2.9z"/><path d="m3.6 20.3 4.3 1.1-.9-1.9-7-3.9v1.3c0 1.6.2 3.2.6 4.7l4 .8z"/><path d="m.4 13.4c2.5.8 5 1.5 5 1.5l2.4-1.3-5.8-4.7c-.7 1.4-1.3 2.9-1.6 4.5z"/><path d="m22.9 13.6.6-3-2.9.7c-.6-.3-1.2-.6-1.9-.8l-1.7-2.4-1.7 2.5c-.6.1-1.2.4-1.7.7l-7.3-7.5c-1.1.9-2 1.8-2.8 2.9l7.3 7.4c-.3.5-.4 1-.6 1.5l-2.5 1.6 2.5 1.7c.2.8.5 1.5.9 2.1l-.6 3 2.9-.7c.6.3 1.2.6 1.9.8l1.6 2.5 1.7-2.5c.8-.2 1.5-.5 2.1-.9l2.9.6-.6-2.9c.3-.6.6-1.2.8-1.9l2.5-1.6-2.5-1.7c-.2-.7-.5-1.4-.9-2.1z"/><path d="m15.7 0c-2.4.2-4.7.9-6.7 2l2.4 4 2.1.5.7-2.5 2.9-1.7z"/><path d="m19.4 7.1 1.2.4 1.1-2.6 1.1 2.7 1.7-5.9c-1.9-1-4.1-1.6-6.3-1.8l1.6 2.6-2.3 1.7z"/></g></svg>