<svg enable-background="new 0 0 34 34" viewBox="0 0 34 34" xmlns="http://www.w3.org/2000/svg"><g fill="#1e1e1e"><path d="m6.5 3.6c-1.5 1.2-2.9 2.7-3.9 4.4l8.4 8z"/><path d="m29.1 5.1c-1.1-1.1-2.3-2.1-3.7-2.9l-2.9 15.4z"/><path d="m17.1 27.5 2.8-5.4 2.9-21c-1.8-.7-3.8-1.1-5.8-1.1-2.3 0-4.5.5-6.5 1.3l3.5 20.8z"/><path d="m32.3 9.6c-.5-1.1-1.1-2.1-1.9-3-2 4-4.4 8.6-4.4 8.6z"/><path d="m19.3 28.1 14.7-9.9c0-.4 0-.8 0-1.2 0-1.7-.2-3.2-.7-4.8l-8.7 9.3 6.6-3.5-14.1 10.3-15-8.8 9.4 3.7-10.3-12.5c-.8 1.9-1.2 4.1-1.2 6.3 0 1.7.2 3.3.7 4.8l14.8 6.7-12.7-2.2c3 4.6 8.3 7.7 14.2 7.7 6.3 0 11.7-3.4 14.7-8.4z"/><path d="m33.9 19-4.9 4.8 3.5.4c.7-1.6 1.2-3.4 1.4-5.2z"/></g></svg>