<svg enable-background="new 0 0 34 34" viewBox="0 0 34 34" xmlns="http://www.w3.org/2000/svg"><g fill="#fff"><path d="m12.5 33.4c-.2 0-.3-.1-.5-.1.2 0 .4.1.5.1z"/><path d="m13.2 33.6c-.1 0-.3-.1-.4-.1.1 0 .2 0 .4.1z"/><path d="m11.9 33.2c-.2-.1-.4-.1-.6-.2.2.1.4.2.6.2z"/><path d="m13.8 33.7c-.1 0-.3-.1-.4-.1.1 0 .3.1.4.1z"/><path d="m10.8 32.8c.1 0 .2.1.3.1-.1 0-.2 0-.3-.1z"/><path d="m34 18.3v.3c0-.1 0-.2 0-.3z"/><path d="m12.1 33.3c-.4-.1-.7-.2-1.1-.4.4.1.7.3 1.1.4z"/><path d="m10.4 32.7c-.3-.1-.7-.3-1-.5.4.2.7.3 1 .5z"/><path d="m11 32.9c-.2-.1-.3-.1-.5-.2.2.1.3.1.5.2z"/><path d="m12.7 33.4c-.2 0-.3-.1-.5-.1.1 0 .3.1.5.1z"/><path d="m13.8 33.7c-.4-.1-.7-.2-1.1-.3.4.1.7.2 1.1.3z"/></g><g fill="#1e1e1e"><path d="m7 26.7c1.7 1.4 4 1.2 4 1.2l-5.7 1.4c.5.4.9.8 1.4 1.2l26.3-7.7c.1-.3.2-.6.3-.9l-7.3 1.9s0-1-.1-1.4l7.7-1.7c.4-1.6.5-3.2.4-5-.7-9.3-8.9-16.3-18.2-15.7-9.4.7-16.4 8.9-15.8 18.2.3 3.5 1.6 6.7 3.6 9.2zm14.4-9.5c.3-.9 1-2.1 2-2.6-.2-1.6-.1-3.8 0-4.8.2-1 .4-1.9.8-1.9.2 0 .3.2.2.4-.6 1.9-.8 4-.6 6 .2-.1.5-.2.7-.1.2-1.9.7-3.1 1.2-4.3.5-1.1 1.1-1.7 1.4-1.4.2.4-.2.5-1 2.1-.2.4-.9 2-1.1 3.6 1.1.2 1.6 1.8.4 2.3-.4.2-.8.4-1 .9-.2 1 .9 4.9.7 6.7l-11.8 3.3c1.1-.5 1.8-1.1 2-1.4.8-.8 1.1-1.6 1.3-2 .5-.3 1.4-.8 1.7-.9 2.2-1.1 5.1-2.4 3.1-5.9zm-5.4-3.3c1.7.7 6 4.3 4.2 6.4-1 1-2.5 2-3.9 2.7.8-4.8-5.5-8-7.7-3.4-.8 2 .4 4.6 2.4 4.8h.8c.4 0 .5-.7.1-.9-.5-.1-.9 0-1.3-.2-2.5-1.1-1.1-5.1 1.4-4.9 3.9.1 4.5 5.6 1.6 7.6-3.6 2.5-8.7-.2-8.7-5.7 0-5.7 6.3-8.7 11.1-6.4z"/><path d="m32.2 24.6c.2-.3.3-.6.5-1l-23.3 8.6c1.4.7 2.9 1.2 4.4 1.5z"/></g></svg>