<?xml version="1.0" encoding="utf-8"?>
<!-- Generator: Adobe Illustrator 27.4.0, SVG Export Plug-In . SVG Version: 6.00 Build 0)  -->
<svg version="1.1" id="Layer_1" xmlns="http://www.w3.org/2000/svg" xmlns:xlink="http://www.w3.org/1999/xlink" x="0px" y="0px"
	 viewBox="0 0 34 34" style="enable-background:new 0 0 34 34;" xml:space="preserve">
<style type="text/css">
	.st0{fill:#1E1E1E;}
</style>
<g>
	<path class="st0" d="M23.4,32.8c0.7-0.3,1.3-0.6,2-0.9l1.7-9.3l6.1-1.7l0.6-1.3c0.1-0.5,0.1-1,0.1-1.4l-6.5,3.8
		c0,0,4.3-5.7,6.2-8.1c-0.5-2.3-1.4-4.5-2.7-6.4L27.6,19l1.5-13.9C25.8,1.7,21-0.3,15.8,0C8.4,0.6,2.4,5.8,0.6,12.5
		c3.8,3.1,8.2,5.8,11.6,7.4c4.5,2,9.1,2.9,11,2c1.9-0.9,2.7-2.9,1.4-4.6c-0.7-0.9-2.5-1.2-3-0.9l0-1.5c0.5-0.2,2.1-0.3,3.1,0.7
		c2.4,2.4,1,5.8-1.1,7.1c-1.9,1.2-4.7,1.1-8.6,0c-3.1-0.9-7.9-3-10.9-4.7c-1-0.6-2.9-1.7-4.1-2.4C0,16.4,0,17.3,0,18.2
		c0.4,6.2,4.1,11.3,9.3,13.9l8.2-4.9L15,25.8c0,0,1.6,0.2,4.5-0.1c3-0.3,4.3-1,4.3-1s-11.2,8.1-11.7,8.6c1.8,0.5,3.7,0.8,5.6,0.7
		L26.5,23L23.4,32.8z"/>
	<path class="st0" d="M28.2,27.8l-0.7-3.4l-0.6,2.7l-1.2,4.6c1.5-0.9,2.8-2,4-3.3l-1.1-2.1L28.2,27.8z"/>
	<path class="st0" d="M30.9,26.8c0.9-1.3,1.6-2.7,2.1-4.2l-4.2,0.6L30.9,26.8z"/>
</g>
</svg>
