<svg enable-background="new 0 0 34 34" viewBox="0 0 34 34" xmlns="http://www.w3.org/2000/svg"><g fill="#1e1e1e"><path d="m10.6 20.8c1.7 3.2 4.4 5.3 6 6.3v-17.9l-7.8 2.3c-.1 2 0 5.9 1.8 9.3z"/><path d="m34 15.8c-.7-9.4-8.9-16.4-18.2-15.8-9.4.7-16.4 8.9-15.8 18.2.7 9.4 8.9 16.4 18.2 15.8 9.4-.7 16.4-8.9 15.8-18.2zm-7-2.3v.6c0 .3 0 .6-.1.9 0 .2 0 .3-.1.5 0 .3-.1.6-.1.9-.1.3-.1.6-.2 1-.1.2-.1.5-.2.7-.3 1.2-.7 2.4-1.3 3.5-2.8 5.4-8 7.7-8 7.7s-5.2-2.3-8-7.7c-2.8-5.3-1.9-11.5-1.9-11.5l9.9-3 9.9 3s.1.5.1 1.3v.1c.1.6.1 1.3 0 2z"/></g></svg>