<?xml version="1.0" encoding="utf-8"?>
<!-- Generator: Adobe Illustrator 27.4.0, SVG Export Plug-In . SVG Version: 6.00 Build 0)  -->
<svg version="1.1" id="Layer_1" xmlns="http://www.w3.org/2000/svg" xmlns:xlink="http://www.w3.org/1999/xlink" x="0px" y="0px"
	 viewBox="0 0 34 34" style="enable-background:new 0 0 34 34;" xml:space="preserve">
<style type="text/css">
	.st0{fill:#1E1E1E;}
</style>
<g>
	<path class="st0" d="M33.8,14.4l-3.4-0.9l3.1-0.2C31.9,5.7,25.1,0,17,0C7.6,0,0,7.6,0,17c0,8.9,6.8,16.1,15.4,16.9l-2.6-6.3
		l4.9,6.4c4.1-0.2,7.7-1.8,10.6-4.3l-9.5-6.9l3,7.9l-8.9-9.4l-0.7,4.9L2.7,9.3L22.9,9l-5.6,2.1l12,2.2L19,14.9l14.4,6.4
		c0.4-1.4,0.5-2.8,0.5-4.3C34,16.1,33.9,15.2,33.8,14.4z"/>
	<path class="st0" d="M17.4,12.3l-14-2.6l8.5,11.1l1-4.5l18,10.4c0.5-0.7,0.9-1.3,1.2-2l-18.5-9.9L17.4,12.3z"/>
</g>
</svg>
