<svg enable-background="new 0 0 34 34" viewBox="0 0 34 34" xmlns="http://www.w3.org/2000/svg"><g fill="#1e1e1e"><path d="m4.3 5.7c-3 3.3-4.6 7.8-4.3 12.5.7 9.4 8.9 16.4 18.2 15.8 3.9-.3 7.3-1.8 10-4.2zm12.7 19.9c-7.7 0-13.9-8.6-13.9-8.6s2.1-3 5.5-5.4l1.6 1.6c-2.4 1.8-3.9 3.8-3.9 3.8s4.1 5.7 9.4 6.5c-1.4-1.3-3.4-3.8-3.4-6.5 0-.5.1-1 .2-1.5l6.9 6.9c-.4.4-.7.8-1.1 1.1.6-.1 1.2-.3 1.7-.5l1.6 1.6c-1.4.7-3 1-4.6 1z"/><path d="m34 15.8c-.7-9.4-8.9-16.4-18.2-15.8-3.9.3-7.3 1.8-10 4.2l24 24c2.9-3.2 4.5-7.7 4.2-12.4zm-8.5 6.6-1.6-1.6c2.3-1.8 3.8-3.9 3.8-3.9s-4.1-5.7-9.4-6.5c1.4 1.3 3.4 3.8 3.4 6.5 0 .5-.1 1-.2 1.5l-6.9-6.9c.4-.4.7-.8 1.1-1.1-.6.1-1.2.3-1.7.5l-1.6-1.6c1.4-.6 3-1 4.6-1 7.7 0 14 8.6 14 8.6s-2.2 3.1-5.5 5.5z"/></g></svg>