<?xml version="1.0" encoding="utf-8"?>
<!-- Generator: Adobe Illustrator 27.4.0, SVG Export Plug-In . SVG Version: 6.00 Build 0)  -->
<svg version="1.1" id="Layer_1" xmlns="http://www.w3.org/2000/svg" xmlns:xlink="http://www.w3.org/1999/xlink" x="0px" y="0px"
	 viewBox="0 0 34 34" style="enable-background:new 0 0 34 34;" xml:space="preserve">
<style type="text/css">
	.st0{fill:none;}
	.st1{fill:#1E1E1E;}
</style>
<g>
	<path class="st0" d="M22.9,16.4l6.6,6L20,21.1L13.5,15L22.9,16.4z"/>
	<path class="st0" d="M21.7,5.7l5.7,1.5L21.7,9l-4.7-1.5L21.7,5.7z"/>
	<path class="st0" d="M8,21.4l5.2,3.2l2.1,5.8l-5.1-3.5L8,21.4z"/>
	<polygon class="st1" points="13.2,24.6 8,21.4 10.2,26.9 15.3,30.4 	"/>
	<path class="st1" d="M0.4,13.2c-0.4,1.6-0.5,3.3-0.4,5.1c0.1,1,0.2,2.1,0.5,3l6.6,2.4L0.4,13.2z"/>
	<polygon class="st1" points="29.5,22.4 22.9,16.4 13.5,15 20,21.1 	"/>
	<path class="st1" d="M34,15.8C33.3,6.4,25.1-0.6,15.8,0C10.7,0.4,6.3,3,3.5,6.7l8.2-0.3l4.2-0.2L20.1,5l-1.3-1.4l8.5,2.8l2.1,0.8
		l-12.3,4.4l1.3-2.2l-3.4-1l-12.1-1C2.7,7.8,2.4,8.2,2.2,8.6l8.8,3l10.4,2.8l-0.6-2.2l5.8,5.5l0-1.2l4.7,6.7l-15.9-0.6l2.8-0.6
		l-8.4-6.2l2.4,0.2L1.6,9.8C1.3,10.5,1,11.3,0.7,12l7.4,7.1l4.9,4l0.4-2.7l3.1,11.6l-15.7-10c2.3,7.3,9.4,12.4,17.4,11.8
		C27.6,33.3,34.6,25.1,34,15.8z"/>
	<polygon class="st1" points="27.4,7.2 21.7,5.7 16.9,7.6 21.7,9 	"/>
</g>
</svg>
