<svg enable-background="new 0 0 34 34" viewBox="0 0 34 34" xmlns="http://www.w3.org/2000/svg"><g fill="#1e1e1e"><path d="m16 14c-.2.6-.2 3.8 2.9 1.5 0 0 .1-.1.1-.1 2.3-2.1 4.7-4.4 6.2-5.9l-3.4 4.3-1.4 2.2s-.8 1-1.4 3.1c-.1 1 .3 1.8 1.7 1.5 0 0-1.3 3.2 1 2.6.5-.1 1-.4 1.3-.7 1.7-1.5 8.1-7.2 9.5-8.5l-4.8 5.2-2.6 3c-.5.5-1.7 1.9-1.3 2.5.7 1.2 2.7-1 2.7-1s.7.9 4.8-3c.6-.5 1-.9 1.4-1.2-1.2 1.3-3.3 3.9-4.2 5.6-1.2 2.3 1.1 1.3 1.1 1.3s-.8 1.7-1.1 3.2c5.3-4.9 7.1-12.8 3.9-19.7 0-.1-.1-.2-.2-.3l-10.4 9.8 7.6-8.5 2.7-1.5c-1.6-3.3-4.1-5.8-7.1-7.4-3.9 3.9-7.8 8.4-9 12z"/><path d="m25.8 31.6c-12.4-11.2-17.7-21.7-17.7-21.7l-.3 5.1c2.4 6.3 7.8 13.1 12.9 18.6 1.2-.3 2.3-.7 3.4-1.2 1.6-.7 1.7-.8 1.7-.8z"/><path d="m12 26c-2.9-3.5-5.1-7-6-9.8-.9-2.9-.5-5.4.7-7.9.9-1.8 2.5-3.8 4.6-5.7-1.1 1.3-1.9 2.7-1.6 3.7.4 1.3 8.3-5.4 8.3-5.4s-7.3 7.7-5.9 8.8c1 .8 4.8-2.6 7.9-5.6-1.5 1.8-2.9 3.5-2.7 3.8.4.6 5.2-4.2 7.1-6.2-4.5-2.2-9.9-2.5-14.8-.2-8.5 4-12.2 14.1-8.2 22.6 3.3 6.9 10.6 10.6 17.8 9.6-2-2-4.5-4.6-7.2-7.7z"/></g></svg>