<svg enable-background="new 0 0 34 34" viewBox="0 0 34 34" xmlns="http://www.w3.org/2000/svg"><g fill="#1e1e1e"><path d="m20.6 29 1.7 4.2s1.1-.4 2.3-.9c.1 0 .2-.1.2-.1z"/><path d="m31.5 25.9c.2-.3.4-.7.6-1-.2.3-.4.7-.6 1z"/><path d="m30.8 26.9c.2-.3.5-.7.7-1-.2.3-.4.7-.7 1z"/><path d="m20 33.7c-.1 0-.1 0 0 0z"/><path d="m14.5 28.3s-3.2-6.9-5.6-12.5c-3.1-7.2-3.5-9.6-3.5-9.6l16.4 3.9-3.7.5 15.9 5.6c-.1-1.1-.2-2.3-.5-3.4l-9-2.5 8-.3c-.1-.2-.2-.4-.3-.6-4.2-8.4-14.4-11.8-22.8-7.6s-11.8 14.4-7.6 22.8c2.8 5.5 8.1 8.9 13.9 9.4l-.9-4.4 2.5 4.4c.9 0 1.8-.1 2.6-.2l-4.4-9.1z"/><path d="m27.4 20.9 2.7-4-2.3-1.5-1.4 2-20.2-10.5s.7 2.2 3.6 7c2.3 3.8 5.6 7.5 5.6 7.5l.1-2.1 3.7 4.4.2-1.9 2.5 2.4-1.2 1.8 2.2 1.6 2.7-4 5.1 3.5c.6-.9 1.2-1.8 1.6-2.7z"/></g></svg>