<svg enable-background="new 0 0 34 34" viewBox="0 0 34 34" xmlns="http://www.w3.org/2000/svg"><g fill="#1e1e1e"><path d="m23.4 32.8c.7-.3 1.3-.6 2-.9l1.7-9.3 6.1-1.7.6-1.3c.1-.5.1-1 .1-1.4l-6.5 3.8s4.3-5.7 6.2-8.1c-.5-2.3-1.4-4.5-2.7-6.4l-3.3 11.5 1.5-13.9c-3.3-3.4-8.1-5.4-13.3-5.1-7.4.6-13.4 5.8-15.2 12.5 3.8 3.1 8.2 5.8 11.6 7.4 4.5 2 9.1 2.9 11 2s2.7-2.9 1.4-4.6c-.7-.9-2.5-1.2-3-.9v-1.5c.5-.2 2.1-.3 3.1.7 2.4 2.4 1 5.8-1.1 7.1-1.9 1.2-4.7 1.1-8.6 0-3.1-.9-7.9-3-10.9-4.7-1-.6-2.9-1.7-4.1-2.4 0 .8 0 1.7 0 2.6.4 6.2 4.1 11.3 9.3 13.9l8.2-4.9-2.5-1.4s1.6.2 4.5-.1c3-.3 4.3-1 4.3-1s-11.2 8.1-11.7 8.6c1.8.5 3.7.8 5.6.7l8.8-11z"/><path d="m28.2 27.8-.7-3.4-.6 2.7-1.2 4.6c1.5-.9 2.8-2 4-3.3l-1.1-2.1z"/><path d="m30.9 26.8c.9-1.3 1.6-2.7 2.1-4.2l-4.2.6z"/></g></svg>