<svg enable-background="new 0 0 34 34" viewBox="0 0 34 34" xmlns="http://www.w3.org/2000/svg"><g fill="#1e1e1e"><path d="m26.3 11c-.3-.3-.5-.5-.8-.6v9.3s.1-.1.2-.2c2.5-2.5 2.8-6.2.6-8.5z"/><path d="m24 20.8c.2-.1.4-.3.6-.4v-10.5c-.2-.1-.4-.1-.6-.2z"/><path d="m18.2.1 2.4 7s-1.3.3-2.2.8l-4-7.7c-1.9.3-3.7.9-5.4 1.8l6.7 8c-.3.3-.5.5-.7.7l-8.8-6.8c-.9.7-1.8 1.6-2.5 2.5l10.3 6.1c-.1.1-.1.2-.2.3l-10.7-5.5c-.3.4-.6.8-.8 1.3l11.2 4.9c-.3.7-.5 1.6-.6 2.1l-12.2-3c-.2.6-.3 1.3-.4 2l12.7 2.1c0 .4 0 .9.1 1.3l-13.1-1.2v.2c0 9.4 7.6 17 17 17s17-7.6 17-17c0-9-7-16.3-15.8-16.9zm8.5 20.6c-1.8 1.8-4 2.7-6.3 2.7-1.3 0-2.5-.3-3.6-1l-.8 1c-1.4 1.7-3.1 3.2-4.9 4.4v1.3h-3.1v-3h1.3c1.2-1.8 2.7-3.5 4.4-4.9l1-.8c-1.8-2.8-1.2-7.1 1.7-9.9 1.8-1.8 4-2.7 6.3-2.7 1.7 0 3.4.6 4.7 1.9 2.9 2.8 2.6 7.7-.7 11z"/><path d="m17.1 20.2c.8.8 1.9 1.3 3.1 1.4v-11.6c-.9.3-1.8.9-2.5 1.6-2.5 2.6-2.8 6.4-.6 8.6z"/></g></svg>