<svg enable-background="new 0 0 34 34" viewBox="0 0 34 34" xmlns="http://www.w3.org/2000/svg"><g fill="#1e1e1e"><path d="m6.4 3.8c-.2 1-.3 2.1-.3 3 0 1.3.3 2.5.8 3.7.8-1.9 1.4-2.8 2.3-3.6.8-.8 1.5-1 1.5-1l1.6 2.3 2.3-2.2 2.4 2.6 2.4-2.7 2.3 2.2 1.8-2.3c1.1.7 3 3.2 3.6 4.7.1-.3.7-1.5 1-3.2s.1-3.4-.2-4.4c-2.9-2.4-6.8-2.9-10.9-2.9-4 0-7.7 1.4-10.6 3.7z"/><path d="m29.6 27.1c0-1.4-.4-3.3-1-4.4-.5 1.9-1.4 3.4-2.4 4.6-.8.9-1.2 1.3-1.2 1.3l-2.5-2.9-2.7 2.8-2.8-3.3-2.8 3.3-2.7-2.8-2.1 2.5s-.8-.4-1.8-1.6-1.6-2.4-2.1-4.1c-.7 1.4-1.1 3.3-1 5.2 0 .3 0 .6.1.9.1.1.2.2.3.3.2.2.3.3.5.5s.5.4.7.6c.2.1.4.3.5.4.2.2.5.4.8.6.2.1.4.2.6.4.3.2.5.3.8.5.2.1.4.2.6.3.3.1.6.3.9.4.2.1.4.2.6.2.3.1.6.3 1 .4.2.1.4.1.6.2.4.1.7.2 1.1.3.2 0 .3.1.5.1.4.1.8.1 1.2.2h.5c.4 0 .8.1 1.2.1h.6c.4 0 .8 0 1.2-.1.2 0 .4-.1.6-.1.4-.1.8-.1 1.1-.2.2 0 .4-.1.6-.1.4-.1.8-.2 1.2-.3.1 0 .3-.1.4-.1.4-.2.9-.3 1.3-.5.1 0 .2-.1.3-.1.5-.2.9-.4 1.4-.7 0 0 .1 0 .1-.1 1.5-.9 2.8-1.9 4-3.2-.2-.7-.2-1.1-.2-1.5z"/><path d="m34 15.8c-.2-3.3-1.4-6.2-3.2-8.7-.4 2.4-1.5 4.5-2.2 5.5-.8 1.2-1.8 2.3-1.8 2.3l-.6-1.9c-.4-1.3-1.3-3.4-2.3-4.4l-1.8 2.4-2.5-2.4-2.5 2.7-2.5-2.7-2.5 2.4-1.8-2.3c-1.2 1.2-1.9 2.8-2.3 4-.4 1.1-.6 2.1-.6 2.1s-.8-.5-1.8-2.1c-.7-1.3-1.7-3.5-1.9-6.4-2.4 3.1-3.8 7.1-3.7 11.3v.8c0 .3.1.6.1 1 0 .2.1.5.1.7.1.3.1.6.2.9.1.2.1.5.2.7.1.3.2.6.3.8.1.3.2.5.3.8s.2.5.3.7c.1.3.2.5.4.8.1.2.2.4.4.6.1.1.1.2.2.3.2-2.5 1.5-5.1 2.2-6.2.8-.9 1.3-1.2 1.3-1.2l.5 1.8c.3 1.2 1.3 3.9 2.7 5.4l2.1-2.7 2.8 3 2.9-3.4 2.8 3.5 2.8-3 2.3 2.7c1.2-1.2 2-3.7 2.5-5.4l.5-1.8s.6.2 1.9 2c1 1.3 1.7 3.2 2.1 4.8 1.5-2.8 2.3-6 2.1-9.4z"/></g></svg>