<?xml version="1.0" encoding="utf-8"?>
<!-- Generator: Adobe Illustrator 27.4.0, SVG Export Plug-In . SVG Version: 6.00 Build 0)  -->
<svg version="1.1" id="Layer_1" xmlns="http://www.w3.org/2000/svg" xmlns:xlink="http://www.w3.org/1999/xlink" x="0px" y="0px"
	 viewBox="0 0 34 34" style="enable-background:new 0 0 34 34;" xml:space="preserve">
<style type="text/css">
	.st0{fill:#1E1E1E;}
</style>
<path class="st0" d="M33,11.3C29.9,2.5,20.2-2.2,11.3,1C2.5,4.1-2.2,13.8,1,22.7C4.1,31.5,13.8,36.2,22.7,33S36.2,20.2,33,11.3z
	 M6,9.6l1.7,0.2c0,0,8-8.6,17.7-1c0,0-6.1-2.9-12.4,3l3.2,1.2L5.6,19.7C5.6,19.7,5.1,14.9,6,9.6z M26.9,25.4l-1.7-0.3
	c0,0-9.2,6.8-17.8-1.1c0,0,6.5,3.9,12.9-1.2l-2.1-1.3l10.1-6.4C28.4,15.3,28.2,20.5,26.9,25.4z"/>
</svg>
