<?xml version="1.0" encoding="utf-8"?>
<!-- Generator: Adobe Illustrator 27.4.0, SVG Export Plug-In . SVG Version: 6.00 Build 0)  -->
<svg version="1.1" id="Layer_1" xmlns="http://www.w3.org/2000/svg" xmlns:xlink="http://www.w3.org/1999/xlink" x="0px" y="0px"
	 viewBox="0 0 34 34" style="enable-background:new 0 0 34 34;" xml:space="preserve">
<style type="text/css">
	.st0{fill:#1E1E1E;}
</style>
<g>
	<g>
		<path class="st0" d="M31.9,8.8C32,9,32.1,9.1,32.2,9.3C32.1,9.1,32,9,31.9,8.8z"/>
		<path class="st0" d="M31.1,7.5c0.1,0.1,0.1,0.2,0.2,0.3C31.3,7.7,31.2,7.6,31.1,7.5z"/>
		<path class="st0" d="M23.4,1.2c0.1,0.1,0.3,0.1,0.4,0.2C23.7,1.3,23.5,1.3,23.4,1.2z"/>
		<path class="st0" d="M29.2,5.2C29.1,5,29,4.9,28.8,4.8C29,4.9,29.1,5,29.2,5.2z"/>
		<path class="st0" d="M28.1,4.1C28,4,27.8,3.9,27.7,3.7C27.8,3.9,28,4,28.1,4.1z"/>
		<path class="st0" d="M26.9,3.1c-0.1-0.1-0.3-0.2-0.4-0.3C26.6,2.9,26.7,3,26.9,3.1z"/>
		<path class="st0" d="M32.6,10.2c0.1,0.2,0.2,0.4,0.2,0.5C32.7,10.5,32.7,10.4,32.6,10.2z"/>
		<path class="st0" d="M33.2,22l-7.5,1.9l6.7,0.1C32.8,23.4,33,22.7,33.2,22z"/>
		<path class="st0" d="M33.4,12.4l-7.7,9.5l8.3-4.1c0-0.3,0-0.5,0-0.8C34,15.5,33.8,13.9,33.4,12.4z"/>
		<path class="st0" d="M18.8,33.9c1-0.1,2-0.3,2.9-0.6l-2.1-7.7L18.8,33.9z"/>
		<path class="st0" d="M20.5,26.2l2.9,6.5c0.8-0.3,1.5-0.7,2.2-1.1L20.5,26.2z"/>
		<path class="st0" d="M20.3,0.3c0.2,0,0.4,0.1,0.6,0.1C20.7,0.4,20.5,0.3,20.3,0.3z"/>
		<path class="st0" d="M17.4,28.2l-2,2.4l-0.7-2.3l-6,3.5c2.4,1.4,5.2,2.2,8.2,2.2c0.1,0,0.1,0,0.2,0L17.4,28.2z"/>
		<path class="st0" d="M21.8,0.7c0.2,0.1,0.4,0.1,0.5,0.2C22.2,0.8,22,0.7,21.8,0.7z"/>
		<path class="st0" d="M13.5,27.3l-9.4,0.9c0.7,0.9,1.6,1.6,2.5,2.3L13.5,27.3z"/>
		<path class="st0" d="M23,25.8l5.1,4c0.8-0.7,1.6-1.5,2.3-2.4L23,25.8z"/>
		<path class="st0" d="M3,26.7c-0.1-0.2-0.3-0.4-0.4-0.6C2.8,26.3,2.9,26.5,3,26.7z"/>
		<path class="st0" d="M1.9,24.7c0.1,0.2,0.2,0.4,0.3,0.6C2.1,25.1,2,24.9,1.9,24.7z"/>
		<path class="st0" d="M18.7,0c0.2,0,0.3,0,0.5,0.1C19.1,0.1,18.9,0.1,18.7,0z"/>
		<path class="st0" d="M1.2,23.2c0.1,0.2,0.2,0.4,0.3,0.6C1.4,23.7,1.3,23.5,1.2,23.2z"/>
		<path class="st0" d="M0.4,20.8c0-0.2-0.1-0.4-0.1-0.6C0.3,20.4,0.4,20.6,0.4,20.8z"/>
		<path class="st0" d="M0.1,18.5c0,0.2,0,0.4,0.1,0.5C0.1,18.9,0.1,18.7,0.1,18.5z"/>
		<polygon class="st0" points="0,16.9 0,16.9 0,16.9 		"/>
	</g>
	<path class="st0" d="M3.2,27l7.9-0.6l-10-3.2C1.7,24.5,2.4,25.8,3.2,27z"/>
	<path class="st0" d="M28.3,15.9l4.6-4.8c-0.6-1.8-1.6-3.4-2.7-4.8L28.3,15.9z"/>
	<path class="st0" d="M25.8,2.4l-1.1,3.8l1.8,0l-1.3,5.2l0.9,3.1l3.3-9.2C28.4,4.2,27.2,3.2,25.8,2.4z"/>
	<path class="st0" d="M3.6,20.3l4.3,1.1l-0.9-1.9l-7-3.9C0,16,0,16.4,0,16.9c0,1.6,0.2,3.2,0.6,4.7l4,0.8L3.6,20.3z"/>
	<path class="st0" d="M0.4,13.4c2.5,0.8,5,1.5,5,1.5l2.4-1.3L2,8.9C1.3,10.3,0.7,11.8,0.4,13.4z"/>
	<path class="st0" d="M22.9,13.6l0.6-3l-2.9,0.7c-0.6-0.3-1.2-0.6-1.9-0.8L17,8.1l-1.7,2.5c-0.6,0.1-1.2,0.4-1.7,0.7L6.3,3.8
		c-1.1,0.9-2,1.8-2.8,2.9l7.3,7.4c-0.3,0.5-0.4,1-0.6,1.5l-2.5,1.6l2.5,1.7c0.2,0.8,0.5,1.5,0.9,2.1l-0.6,3l2.9-0.7
		c0.6,0.3,1.2,0.6,1.9,0.8l1.6,2.5l1.7-2.5c0.8-0.2,1.5-0.5,2.1-0.9l2.9,0.6L23,20.9c0.3-0.6,0.6-1.2,0.8-1.9l2.5-1.6l-2.5-1.7
		C23.6,15,23.3,14.3,22.9,13.6z"/>
	<path class="st0" d="M15.7,0C13.3,0.2,11,0.9,9,2L11.4,6l2.1,0.5L14.2,4l2.9-1.7L15.7,0z"/>
	<path class="st0" d="M19.4,7.1l1.2,0.4l1.1-2.6l1.1,2.7l1.7-5.9c-1.9-1-4.1-1.6-6.3-1.8l1.6,2.6l-2.3,1.7L19.4,7.1z"/>
</g>
</svg>
