<svg enable-background="new 0 0 34 34" viewBox="0 0 34 34" xmlns="http://www.w3.org/2000/svg"><path d="m22.9 16.4 6.6 6-9.5-1.3-6.5-6.1z" fill="none"/><path d="m21.7 5.7 5.7 1.5-5.7 1.8-4.7-1.5z" fill="none"/><path d="m8 21.4 5.2 3.2 2.1 5.8-5.1-3.5z" fill="none"/><g fill="#1e1e1e"><path d="m13.2 24.6-5.2-3.2 2.2 5.5 5.1 3.5z"/><path d="m.4 13.2c-.4 1.6-.5 3.3-.4 5.1.1 1 .2 2.1.5 3l6.6 2.4z"/><path d="m29.5 22.4-6.6-6-9.4-1.4 6.5 6.1z"/><path d="m34 15.8c-.7-9.4-8.9-16.4-18.2-15.8-5.1.4-9.5 3-12.3 6.7l8.2-.3 4.2-.2 4.2-1.2-1.3-1.4 8.5 2.8 2.1.8-12.3 4.4 1.3-2.2-3.4-1-12.1-1c-.2.4-.5.8-.7 1.2l8.8 3 10.4 2.8-.6-2.2 5.8 5.5v-1.2l4.7 6.7-15.9-.6 2.8-.6-8.4-6.2 2.4.2-10.6-6.2c-.3.7-.6 1.5-.9 2.2l7.4 7.1 4.9 4 .4-2.7 3.1 11.6-15.7-10c2.3 7.3 9.4 12.4 17.4 11.8 9.4-.5 16.4-8.7 15.8-18z"/><path d="m27.4 7.2-5.7-1.5-4.8 1.9 4.8 1.4z"/></g></svg>