<svg enable-background="new 0 0 34 34" viewBox="0 0 34 34" xmlns="http://www.w3.org/2000/svg"><g fill="#1e1e1e"><path d="m22.3 33.1c.1 0 .1 0 .2-.1-.1.1-.1.1-.2.1z"/><path d="m23.6 32.7h.1c0-.1-.1 0-.1 0z"/><path d="m21.7 33.3h-.1c0 .1.1 0 .1 0z"/><path d="m22 33.3h.2c-.1-.1-.2-.1-.2 0z"/><path d="m22.7 33s.1 0 .1-.1c0 .1 0 .1-.1.1z"/><path d="m23.1 32.9h.1c0-.1 0-.1-.1 0z"/><path d="m23.9 32.5s.1 0 .1-.1c0 .1 0 .1-.1.1z"/><path d="m26.4 31.1c.1 0 .1-.1.2-.1 0 .1-.1.1-.2.1z"/><path d="m24.3 32.4c.1 0 .1 0 .2-.1-.1 0-.2 0-.2.1z"/><path d="m26.9 30.8c-.1 0-.1.1-.2.1.1 0 .2-.1.2-.1z"/><path d="m34 15.8c-.7-9.4-8.9-16.4-18.2-15.8-9.4.7-16.4 8.9-15.8 18.2.7 9.3 8.7 16.2 17.9 15.8-.7-1.4-.8-3.7-3.5-4.9-1.5-.7-2.9-1.2-4.2-1.9.8 2 1.9 4.1 1.9 4.1-4.7-3.4-7.4-9.2-7.6-12.9-.6-5.7 2.3-10.4 5.4-12.2 3.5-2.1 7.4-2.6 11.8-.4.5.2.9.5 1.4.8.7.4 1.2.8 1.7 1.2 1.6 1.3 2.9 2.9 3.4 3.8.7 1.2 1.1 2.2 1.1 2.2s-.9-1-2.5-2.2c.2 1.1.2 2.3.8 3.5 1.2 2.6 3.4 4 6.2 4.4.2-1.2.2-2.5.2-3.7z"/><path d="m27.4 30.5c.1 0 .1-.1.2-.1-.1 0-.2 0-.2.1z"/><path d="m27.1 30.7c.1 0 .1-.1.2-.1-.1 0-.2.1-.2.1z"/><path d="m24.8 32.1c-.1 0-.1.1-.2.1.1 0 .2-.1.2-.1z"/><path d="m26.3 31.2s-.1.1-.1.1 0 0 .1-.1z"/><path d="m25 32c.1 0 .1-.1.2-.1-.1.1-.2.1-.2.1z"/><path d="m25.3 31.8s.1-.1.1-.1c0 .1 0 .1-.1.1z"/><path d="m25.8 31.6s.1-.1.1-.1-.1 0-.1.1z"/><path d="m30.3 27.6c0-.1.1-.1.1-.2 0 0 0 .1-.1.2z"/><path d="m31.7 25.6c0-.1.1-.2.1-.2s-.1.1-.1.2z"/><path d="m32.8 23.3c0-.1.1-.2.1-.3-.1.2-.1.3-.1.3z"/><path d="m31.9 25.2c0-.1.1-.2.1-.2 0 .1-.1.2-.1.2z"/><path d="m32.1 24.9c0-.1.1-.2.1-.2-.1 0-.1.1-.1.2z"/><path d="m31 26.7c.2-.3.3-.5.5-.8-.2.3-.4.5-.5.8z"/><path d="m32.2 24.6c.2-.4.4-.8.5-1.2-.1.4-.3.8-.5 1.2z"/><path d="m29.4 28.6.6-.6c-.2.2-.4.4-.6.6z"/><path d="m29.2 28.8.2-.2c-.1.1-.2.2-.2.2z"/><path d="m30.1 27.9.2-.2c-.1 0-.2.1-.2.2z"/><path d="m30.5 27.3c0-.1.1-.1.1-.2 0 0 0 .1-.1.2z"/><path d="m30.8 27c0-.1.1-.1.1-.2 0 0-.1.1-.1.2z"/><path d="m31.5 25.9c0-.1.1-.2.1-.2s-.1.1-.1.2z"/><path d="m28.8 29.2c-.1 0-.1.1-.2.1.1 0 .2 0 .2-.1z"/><path d="m32.9 23c0-.1.1-.2.1-.3 0 .1-.1.2-.1.3z"/><path d="m28.5 29.5c-.1 0-.1.1-.2.1.1 0 .2-.1.2-.1z"/><path d="m28.9 29.1c.1 0 .1-.1.2-.1-.1 0-.1.1-.2.1z"/><path d="m28 30c-.1.1-.2.2-.3.2.1-.1.2-.1.3-.2z"/><path d="m28.3 29.7c-.1 0-.1.1-.2.1.1 0 .1 0 .2-.1z"/><path d="m33 22.6c0-.1.1-.2.1-.3 0 .2 0 .3-.1.3z"/><path d="m33.1 22.3-12.2-5.2.6-4.5-1.8-3.6-2.5.1-2.9-3c-.5.1-4.7 2.1-4.7 2.1l-2.2 7.8 6.2 8.4 7.8 9c5.6-1.5 10-5.7 11.7-11.1z"/></g></svg>