<svg enable-background="new 0 0 34 34" viewBox="0 0 34 34" xmlns="http://www.w3.org/2000/svg"><path d="m17 0c-9.4 0-17 7.6-17 17s7.6 17 17 17 17-7.6 17-17-7.6-17-17-17zm-11.4 19.9s0 0-.1-.1c.3-.5.6-.9.9-1.4l.9-1.5c.1-.1.2-.3.3-.4.7-.8 1.3-1.6 2-2.4.1-.1.2-.2.3-.4.4-.4.7-.9 1.1-1.3s.8-.8 1.2-1.2c.3-.3.7-.7 1-1 .8-.6 1.5-1.3 2.4-1.9 1-.7 2-1.4 3.1-2.2h.2c-.3.3-.6.5-.9.8-.9.8-1.7 1.7-2.6 2.5-.7.7-1.5 1.4-2.2 2.1-.5.6-1.2 1-1.6 1.7-.6.9-1.3 1.6-2 2.3-.5.5-1 1-1.4 1.6-.8.9-1.6 1.8-2.5 2.7 0 0 0 .1-.1.1zm2.4 4.5c.1-.3.3-.5.4-.8.5-.8.9-1.5 1.4-2.3.1-.2.2-.4.2-.5.1-.1.1-.3.2-.4.2-.2.4-.5.7-.7.4-.3.7-.8 1-1.2s.6-.8.9-1.3c0-.1.1-.2.2-.2.6-.3 1-.8 1.4-1.3.2-.2.3-.5.5-.8.2-.2.3-.5.5-.6.4-.3.7-.8 1-1.3.1-.2.3-.4.5-.5.7-.6 1.3-1.2 2-1.8 1.3-1.2 2.6-2.4 4-3.5.6-.4 1.3-1.1 2.1-1.7-1.1 1.2-2.3 2.3-3.4 3.5-.6.6-1.1 1.2-1.7 1.8-.2.2-.4.5-.6.8 0 .1-.1.2-.2.2-.3.1-.4.4-.6.6-.8.9-1.6 1.7-2.3 2.5-.4.4-.7.9-1.1 1.4s-.8 1-1.2 1.5-.8.9-1.2 1.3c-.1.1-.1.1-.1.2-.1.3-.3.6-.5.8-.9.7-1.5 1.6-2.2 2.4-.6.7-1.3 1.3-1.9 1.9zm19.9-11.5s-.1.2-.1.3c-.1.1-.2.2-.3.3-.2.2-.2.4-.4.6-.4.6-.9 1.4-1.3 2.1-.3.4-.6.8-.9 1.3-.3.4-.5.9-.8 1.3 0 0 0 .1-.1.1-.6.5-.8 1.2-1.2 1.9-.4.5-.6 1.1-.9 1.6-.2.3-.4.6-.7 1-.1.1-.2.2-.2.4-.4.7-.8 1.5-1.3 2.3l-.1.1c-.1.5-.4.8-.7 1.2-.3.5-.7.9-1 1.4.2-.6.5-1.1.7-1.7.1-.3.2-.7.3-1 .1-.2.2-.3.3-.5.2-.3.3-.6.5-.9.2-.4.5-.8.7-1.2.1-.2.2-.5.3-.7s.2-.4.3-.6.2-.3.3-.5c.2-.4.4-.8.7-1.1.2-.4.4-.8.6-1.1.1-.2.3-.4.5-.7.3-.3.5-.7.8-1 .2-.3.4-.6.6-.9.3-.4.6-.7.9-1 .8-.8 1.3-1.7 2-2.5.1-.3.3-.4.5-.5 0-.2 0-.2.1-.3-.1.1 0 .2-.1.3zm.1-6.1c-.9 1-1.7 2.1-2.6 3.1-.1.1-.1.2-.2.3-.4.5-.7 1.1-1.1 1.6-.3.5-.7 1-1 1.6-.3.5-.7 1-1.1 1.5-.3.3-.6.7-.8 1.1-.4.5-.7.9-1.1 1.4-.2.3-.4.5-.6.8-.1.2-.3.3-.5.5-.3.3-.7.6-1 .9-.1.2-.1.4-.2.6-.1.1-.1.3-.2.4-.2.3-.5.5-.7.8-.2.2-.3.4-.4.6-.3.5-.7.9-1 1.3-.7.8-1.3 1.7-2 2.5-.6.7-1.4 1.6-2.2 2.5.5-.9.9-1.9 1.4-2.8.4-.7.8-1.5 1.3-2.2.2-.3.3-.5.5-.7.1-.1.2-.3.2-.4.2-.3.4-.6.6-.9.1-.2.3-.4.4-.6.2-.4.5-.7.7-1 .1-.2.3-.4.4-.5.4-.5.8-.9 1.1-1.4.1-.1.2-.3.2-.5.1-.1.1-.3.2-.4.4-.3.7-.7.9-1.1.2-.3.4-.6.7-.8.6-.7 1.3-1.4 1.9-2 2.1-2.2 4.3-4.4 6.4-6.6h.1c-.1.1-.2.3-.3.4z" fill="#1e1e1e"/></svg>