<?xml version="1.0" encoding="utf-8"?>
<!-- Generator: Adobe Illustrator 27.4.0, SVG Export Plug-In . SVG Version: 6.00 Build 0)  -->
<svg version="1.1" id="Layer_1" xmlns="http://www.w3.org/2000/svg" xmlns:xlink="http://www.w3.org/1999/xlink" x="0px" y="0px"
	 viewBox="0 0 34 34" style="enable-background:new 0 0 34 34;" xml:space="preserve">
<style type="text/css">
	.st0{fill:#1E1E1E;}
</style>
<g>
	<g>
		<path class="st0" d="M22.3,33.1c0.1,0,0.1,0,0.2-0.1C22.4,33.1,22.4,33.1,22.3,33.1z"/>
		<path class="st0" d="M23.6,32.7c0,0,0.1,0,0.1,0C23.7,32.6,23.6,32.7,23.6,32.7z"/>
		<path class="st0" d="M21.7,33.3c0,0-0.1,0-0.1,0C21.6,33.4,21.7,33.3,21.7,33.3z"/>
		<path class="st0" d="M22,33.3c0.1,0,0.1,0,0.2,0C22.1,33.2,22,33.2,22,33.3z"/>
		<path class="st0" d="M22.7,33c0,0,0.1,0,0.1-0.1C22.8,33,22.8,33,22.7,33z"/>
		<path class="st0" d="M23.1,32.9c0,0,0.1,0,0.1,0C23.2,32.8,23.2,32.8,23.1,32.9z"/>
		<path class="st0" d="M23.9,32.5c0,0,0.1,0,0.1-0.1C24,32.5,24,32.5,23.9,32.5z"/>
		<path class="st0" d="M26.4,31.1c0.1,0,0.1-0.1,0.2-0.1C26.6,31.1,26.5,31.1,26.4,31.1z"/>
		<path class="st0" d="M24.3,32.4c0.1,0,0.1,0,0.2-0.1C24.4,32.3,24.3,32.3,24.3,32.4z"/>
		<path class="st0" d="M26.9,30.8c-0.1,0-0.1,0.1-0.2,0.1C26.8,30.9,26.9,30.8,26.9,30.8z"/>
		<g>
			<path class="st0" d="M33.8,19.6C33.8,19.6,33.8,19.6,33.8,19.6L33.8,19.6z"/>
			<path class="st0" d="M34,15.8C33.3,6.4,25.1-0.6,15.8,0C6.4,0.7-0.6,8.9,0,18.2C0.7,27.5,8.7,34.4,17.9,34
				c-0.7-1.4-0.8-3.7-3.5-4.9c-1.5-0.7-2.9-1.2-4.2-1.9c0.8,2,1.9,4.1,1.9,4.1c-4.7-3.4-7.4-9.2-7.6-12.9l0,0
				C3.9,12.7,6.8,8,9.9,6.2c3.5-2.1,7.4-2.6,11.8-0.4c0.5,0.2,0.9,0.5,1.4,0.8c0.7,0.4,1.2,0.8,1.7,1.2c1.6,1.3,2.9,2.9,3.4,3.8
				c0.7,1.2,1.1,2.2,1.1,2.2s-0.9-1-2.5-2.2c0.2,1.1,0.2,2.3,0.8,3.5c1.2,2.6,3.4,4,6.2,4.4c0,0,0,0,0,0C34,18.3,34,17,34,15.8z"/>
		</g>
		<path class="st0" d="M27.4,30.5c0.1,0,0.1-0.1,0.2-0.1C27.5,30.4,27.4,30.4,27.4,30.5z"/>
		<path class="st0" d="M27.1,30.7c0.1,0,0.1-0.1,0.2-0.1C27.2,30.6,27.1,30.7,27.1,30.7z"/>
		<path class="st0" d="M24.8,32.1c-0.1,0-0.1,0.1-0.2,0.1C24.7,32.2,24.8,32.1,24.8,32.1z"/>
		<path class="st0" d="M26.3,31.2c0,0-0.1,0.1-0.1,0.1C26.2,31.3,26.2,31.3,26.3,31.2z"/>
		<path class="st0" d="M25,32c0.1,0,0.1-0.1,0.2-0.1C25.1,32,25,32,25,32z"/>
		<path class="st0" d="M25.3,31.8c0,0,0.1-0.1,0.1-0.1C25.4,31.8,25.4,31.8,25.3,31.8z"/>
		<path class="st0" d="M25.8,31.6c0,0,0.1-0.1,0.1-0.1C25.9,31.5,25.8,31.5,25.8,31.6z"/>
		<path class="st0" d="M30.3,27.6c0-0.1,0.1-0.1,0.1-0.2C30.4,27.4,30.4,27.5,30.3,27.6z"/>
		<path class="st0" d="M31.7,25.6c0-0.1,0.1-0.2,0.1-0.2C31.8,25.4,31.7,25.5,31.7,25.6z"/>
		<path class="st0" d="M32.8,23.3c0-0.1,0.1-0.2,0.1-0.3C32.8,23.2,32.8,23.3,32.8,23.3z"/>
		<path class="st0" d="M31.9,25.2c0-0.1,0.1-0.2,0.1-0.2C32,25.1,31.9,25.2,31.9,25.2z"/>
		<path class="st0" d="M32.1,24.9c0-0.1,0.1-0.2,0.1-0.2C32.1,24.7,32.1,24.8,32.1,24.9z"/>
		<path class="st0" d="M31,26.7c0.2-0.3,0.3-0.5,0.5-0.8C31.3,26.2,31.1,26.4,31,26.7z"/>
		<path class="st0" d="M32.2,24.6c0.2-0.4,0.4-0.8,0.5-1.2C32.6,23.8,32.4,24.2,32.2,24.6z"/>
		<path class="st0" d="M29.4,28.6c0.2-0.2,0.4-0.4,0.6-0.6C29.8,28.2,29.6,28.4,29.4,28.6z"/>
		<path class="st0" d="M29.2,28.8c0.1-0.1,0.1-0.1,0.2-0.2C29.3,28.7,29.2,28.8,29.2,28.8z"/>
		<path class="st0" d="M30.1,27.9c0.1-0.1,0.1-0.1,0.2-0.2C30.2,27.7,30.1,27.8,30.1,27.9z"/>
		<path class="st0" d="M30.5,27.3c0-0.1,0.1-0.1,0.1-0.2C30.6,27.1,30.6,27.2,30.5,27.3z"/>
		<path class="st0" d="M30.8,27c0-0.1,0.1-0.1,0.1-0.2C30.9,26.8,30.8,26.9,30.8,27z"/>
		<path class="st0" d="M31.5,25.9c0-0.1,0.1-0.2,0.1-0.2C31.6,25.7,31.5,25.8,31.5,25.9z"/>
		<path class="st0" d="M28.8,29.2c-0.1,0-0.1,0.1-0.2,0.1C28.7,29.3,28.8,29.3,28.8,29.2z"/>
		<path class="st0" d="M32.9,23c0-0.1,0.1-0.2,0.1-0.3C33,22.8,32.9,22.9,32.9,23z"/>
		<path class="st0" d="M28.5,29.5c-0.1,0-0.1,0.1-0.2,0.1C28.4,29.6,28.5,29.5,28.5,29.5z"/>
		<path class="st0" d="M28.9,29.1C29,29.1,29,29,29.1,29C29,29,29,29.1,28.9,29.1z"/>
		<path class="st0" d="M28,30c-0.1,0.1-0.2,0.2-0.3,0.2C27.8,30.1,27.9,30.1,28,30z"/>
		<path class="st0" d="M28.3,29.7c-0.1,0-0.1,0.1-0.2,0.1C28.2,29.8,28.2,29.8,28.3,29.7z"/>
		<path class="st0" d="M33,22.6c0-0.1,0.1-0.2,0.1-0.3C33.1,22.5,33.1,22.6,33,22.6z"/>
	</g>
	<path class="st0" d="M33.1,22.3l-12.2-5.2l0.6-4.5L19.7,9l-2.5,0.1l-2.9-3c-0.5,0.1-4.7,2.1-4.7,2.1L7.4,16l6.2,8.4l7.8,9
		C27,31.9,31.4,27.7,33.1,22.3z"/>
</g>
</svg>
