<svg enable-background="new 0 0 34 34" viewBox="0 0 34 34" xmlns="http://www.w3.org/2000/svg"><g fill="#1e1e1e"><path d="m18.3 10.5c1.4 1.3 3.4 3.8 3.4 6.5 0 2.8-2 5.2-3.4 6.5 5.3-.9 9.4-6.5 9.4-6.5s-4.1-5.7-9.4-6.5z"/><path d="m6.3 17s4.1 5.7 9.4 6.5c-1.4-1.4-3.4-3.8-3.4-6.5 0-2.8 2-5.2 3.4-6.5-5.3.8-9.4 6.5-9.4 6.5z"/><path d="m34 15.8c-.7-9.4-8.9-16.4-18.2-15.8-9.4.7-16.4 8.9-15.8 18.2.7 9.4 8.9 16.4 18.2 15.8 9.4-.7 16.4-8.9 15.8-18.2zm-17 9.9c-7.7 0-13.9-8.7-13.9-8.7s6.2-8.7 13.9-8.7 14 8.7 14 8.7-6.3 8.7-14 8.7z"/></g></svg>