<svg enable-background="new 0 0 34 34" viewBox="0 0 34 34" xmlns="http://www.w3.org/2000/svg"><path d="m5.4 29.4.5-2.6 1.3.2-.6 3.3c3.2 2.5 7.3 3.9 11.7 3.6 3.5-.3 6.7-1.6 9.2-3.6l-.7-3.5 1.3-.2.5 2.7c3.6-3.4 5.7-8.3 5.3-13.6-.6-9.3-8.8-16.3-18.1-15.7-9.4.7-16.4 8.9-15.8 18.2.4 4.5 2.4 8.4 5.4 11.2zm11.7-1.1c-.2.2-.5.3-.9.3s-.7-.1-.9-.3-.4-.5-.4-.8.1-.6.4-.8c.2-.2.5-.3.9-.3s.7.1.9.3.3.5.3.8-.1.6-.3.8zm10.6-3.8-1.3.2s-.1-.4-.1-.4c-.2-1-.4-2-.8-2.9l1.2-.5c.5 1.2.8 2.4 1 3.6zm-2.8-6.8c.3.4.6.8.9 1.3l-1.1.7c-.6-1-1.3-1.8-2.1-2.4l.8-1c.3.2.6.5.9.8.2.1.4.3.6.6zm-1.8-4.4c0 .1 0 .1 0 0 0 .1-.1.1-.1.2-.1.1-.1.2-.2.3v.1c-.2.3-.4.7-.6 1l-1.1-.8c.7-1 1.1-1.9 1.3-2.8l1.3.2c-.1.7-.4 1.3-.6 1.8zm-1.1-7.2c.5.5.9 1.2 1.2 1.8.2.4.3.9.4 1.4l-1.3.2c-.2-1-.6-1.9-1.3-2.6zm-2.4 17.2c-.6.5-1.4.7-2.4.7l-.1 1.1h-1.8l-.1-2.5h.7c.8 0 1.5-.1 1.9-.3.5-.2.7-.6.7-1.2 0-.4-.1-.8-.4-1-.2-.3-.6-.4-1-.4s-.8.1-1 .4c-.2.2-.4.6-.4 1h-1.9c0-.6.1-1.1.4-1.6s.6-.8 1.2-1.1c.5-.3 1.1-.4 1.8-.4 1 0 1.8.3 2.4.8s.9 1.3.9 2.3-.3 1.7-.9 2.2zm-2.6-19.5c.4 0 .8 0 1.3.1h.1.1.1c.6.1 1.3.4 1.8.7l-.7 1.1c-1.7-1-3.9-.9-5.5.1l-.7-1.1c1-.5 2.2-.9 3.5-.9zm-5.1 11.2c-.4-.6-.8-1.2-1.1-1.8s0 0 0-.1c-.2-.5-.3-.9-.4-1.4l1.3-.2c.2.9.6 1.8 1.3 2.7zm-.1-8.8 1 .9c-.6.8-1.1 1.7-1.2 2.6l-1.3-.2c.2-1.2.7-2.3 1.5-3.3zm-1.8 10.6c0-.1 0-.1 0 0 .2-.2.3-.3.5-.4l.9 1c-.8.7-1.5 1.5-2 2.5l-1.1-.7c.3-.9 1-1.8 1.7-2.4zm-3.6 7.3c0-.3.1-.5.2-.8.2-.8.4-1.5.7-2.3l1.2.5c-.4 1-.7 2.2-.9 3.3l-1.3-.2c0 .1.1-.5.1-.5z" fill="#1e1e1e"/></svg>