<?xml version="1.0" encoding="utf-8"?>
<!-- Generator: Adobe Illustrator 27.4.0, SVG Export Plug-In . SVG Version: 6.00 Build 0)  -->
<svg version="1.1" id="Layer_1" xmlns="http://www.w3.org/2000/svg" xmlns:xlink="http://www.w3.org/1999/xlink" x="0px" y="0px"
	 viewBox="0 0 34 34" style="enable-background:new 0 0 34 34;" xml:space="preserve">
<style type="text/css">
	.st0{fill:#1E1E1E;}
</style>
<g>
	<g>
		<path class="st0" d="M6.5,3.6C5,4.8,3.6,6.3,2.6,8l8.4,8L6.5,3.6z"/>
		<path class="st0" d="M29.1,5.1C28,4,26.8,3,25.4,2.2l-2.9,15.4L29.1,5.1z"/>
		<path class="st0" d="M17.1,27.5l2.8-5.4l2.9-21C21,0.4,19,0,17,0c-2.3,0-4.5,0.5-6.5,1.3L14,22.1L17.1,27.5z"/>
		<path class="st0" d="M32.3,9.6c-0.5-1.1-1.1-2.1-1.9-3c-2,4-4.4,8.6-4.4,8.6L32.3,9.6z"/>
	</g>
	<g>
		<path class="st0" d="M19.3,28.1L34,18.2c0-0.4,0-0.8,0-1.2c0-1.7-0.2-3.2-0.7-4.8l-8.7,9.3l6.6-3.5L17.1,28.3l-15-8.8l9.4,3.7
			L1.2,10.7C0.4,12.6,0,14.8,0,17c0,1.7,0.2,3.3,0.7,4.8l14.8,6.7L2.8,26.3c3,4.6,8.3,7.7,14.2,7.7c6.3,0,11.7-3.4,14.7-8.4
			L19.3,28.1z"/>
		<path class="st0" d="M33.9,19L29,23.8l3.5,0.4C33.2,22.6,33.7,20.8,33.9,19z"/>
	</g>
</g>
</svg>
