<svg enable-background="new 0 0 34 34" viewBox="0 0 34 34" xmlns="http://www.w3.org/2000/svg"><path d="m34 15.8c-.3-4-1.9-7.5-4.4-10.2-.2.3-.5.7-.7 1-.5.9-.6 2.3-1 4-.7 2.3-2.3 5-2.7 7.3 0 .2-.1.7-.2.9-.3.7-.9 1.1-1.5 1-.8-.1-1.3-.6-1.4-1.3-.1-.4-.1-1.1-.1-1.5.1-.8.3-1.4.3-2.2 0-.4-.1-.9-.2-1.3-.2-.5-.6-.9-1.1-1.1-.6-.3-1.3-.4-2-.3-1.3.1-2.2.4-3.1.9s-2 1.4-3.2 3.3c-.3.5-.6 1-.9 1.6-.2.4-.5.8-.9 1-.8.2-1.4.1-1.9-.5-.3-.5-.4-1-.3-1.7.2-.9.5-1.7.9-2.5.9-1.6 2.1-3 3.5-4.2-1.3.6-2.4 1.5-3.3 2.7-.6.8-1.1 1.6-1.4 2.5-.2.5-.3.9-.4 1.6-.3-.1-.6-.2-.9-.6-.4-.6-.4-1.4.1-2.4.1-.2.3-.5.4-.8-.1 0-.1 0-.2 0-.9-.3-.9-1.5-.5-2.3.5-.9 1.4-2 2-2.6.6-.5 1.3-1.4 4.2-3 3.4-1.9 5.2-2.2 7.2-3.4.5-.3 1-.7 1.5-1.1-1.9-.6-4-.8-6.2-.7-9.2.8-16.2 9-15.6 18.3.7 9.4 8.9 16.4 18.2 15.8 9.4-.7 16.4-8.9 15.8-18.2zm-14.4 3.8 3.4 3.1h-6zm-.6-.2-2.7 3.3-2.6-3.3zm-5.9.2 2.5 3.1h-5.9zm3.2 11.2-6.6-7.3h13.3z" fill="#1e1e1e"/></svg>