<svg enable-background="new 0 0 150 150" viewBox="0 0 150 150" xmlns="http://www.w3.org/2000/svg"><path d="m91.2 41.4 22 .8v24.7l-13.5 1.7-1.6 26-23.1 17.7-23.1-17.8-1.6-25.9-13.5-1.7v-24.7l22-.8 16.2 13.6zm-1-3.1-.9.7-14.3 12.1-14.3-12-.9-.7h-1.2l-22 .8-2.9.1v2.9 24.7 2.7l2.6.3 11.1 1.4 1.4 23.5.2 1.2 1.1.8 23.1 17.8 1.8 1.4 1.8-1.4 23.1-17.8 1.1-.8.1-1.4 1.4-23.5 11.1-1.4 2.6-.3v-2.7-24.5-2.9l-2.9-.1-22-.8z" fill="#f69200"/><g fill="none"><path d="m0-37.5h150"/><path d="m150 187.5h-150"/></g></svg>