<svg enable-background="new 0 0 34 34" viewBox="0 0 34 34" xmlns="http://www.w3.org/2000/svg"><path d="m14.8 1.3c-4.6.3-8.8 2.6-11.9 6.2 0 .1-.1.1-.1.2-3.2 3.7-2.9 9.5.1 13.4l.5.6c-1.7 1.9-.8 5.2 1.7 5.2 2.1 0 3.4-.8 3.7 1.1.1.7.1.6.2 1.7 0 1 .9 2.3 2.5 1.8 1.2-.4 1.2-1.8 1.2-1.8s.1 2.2.8 2.9c.7.6 2.4.6 2.9-.1.6-.8.6-1.7.6-1.7s.2 1.3.9 1.9c.7.5 2.1.5 2.8-.2.6-.6.7-2.4.7-2.4s.1 1 1 1.3c1.5.5 2.7-.5 2.8-1.6s.1-.8.1-1.6c.1-2 1.6-1.2 3.7-1.2 2.5 0 3.4-3.3 1.7-5.2 3.1-4.1 3.6-10.1.5-14.2l-.1-.1c-3.1-3.6-7.4-5.8-11.9-6.1-1.5-.2-3-.2-4.4-.1zm9 19.1-2.7-.8c-1.5-.4-2.4-1.7-2.4-3.2 0-1.1.5-2.2 1.3-3s1.9-1.3 3.1-1.3h1c2.4 0 4.4 1.9 4.4 4.3v.6c0 .9-.4 1.8-1 2.5-1.1.9-2.4 1.3-3.7.9zm-17.6-.9c-.7-.7-1-1.6-1-2.5v-.6c0-2.4 2-4.3 4.4-4.3h1c1.2 0 2.3.5 3.1 1.3s1.3 1.9 1.3 3c0 1.5-1 2.8-2.4 3.2l-2.7.8c-1.4.4-2.8 0-3.7-.9zm12.2 4.8-1.4-1.5-1.4 1.5-1.4-1.5 2.1-2.3c.3-.4.9-.4 1.3 0l2.1 2.3z" fill="#231f20"/></svg>