<svg enable-background="new 0 0 34 34" viewBox="0 0 34 34" xmlns="http://www.w3.org/2000/svg"><path d="m14.8.9c-4.7.3-9 2.7-12.2 6.4 0 .1-.1.1-.1.2-3.3 3.8-3 9.8.1 13.8l.5.6c-1.7 2-.8 5.3 1.7 5.3 2.2 0 5.3.2 5.3 3.4 0 .4.5 2.6 7.2 2.6s6.8-2 6.8-2.5c0-2.9 3.1-3.4 5.2-3.4 2.6 0 3.5-3.4 1.7-5.3 3.2-4.2 3.7-10.4.5-14.6l-.1-.1c-3-3.7-7.4-6-12-6.3-1.6-.2-3.1-.2-4.6-.1zm9.3 19-2.4-.7c-1.3-.3-2.2-1.5-2.2-2.9 0-1 .4-2 1.1-2.7s1.7-1.1 2.8-1.1h.9c2.2 0 3.9 1.7 3.9 3.8v.5c0 .8-.3 1.6-.9 2.2-.9.9-2.1 1.3-3.2.9zm-17.8-.6c-.6-.6-.9-1.5-.9-2.4v-.5c0-2.3 1.8-4 4.1-4h.9c1.1 0 2.2.5 2.9 1.2s1.2 1.8 1.2 2.8c0 1.4-.9 2.7-2.3 3l-2.6.7c-1.1.4-2.4.1-3.3-.8zm12.2 5.2-1.4-1.5-1.4 1.5-1.5-1.5 2.2-2.4c.3-.4.9-.4 1.3 0l2.2 2.4z" fill="#231f20"/></svg>