<svg enable-background="new 0 0 34 34" viewBox="0 0 34 34" xmlns="http://www.w3.org/2000/svg"><path d="m14.8.9c-4.7.3-9 2.7-12.2 6.4 0 .1-.1.1-.1.2-3.3 3.8-3 9.8.1 13.8l.5.6c-1.7 2-.8 5.3 1.7 5.3 2.2 0 5.3.2 5.3 3.4 0 .4.5 2.6 7.2 2.6s6.8-2 6.8-2.5c0-2.9 3.1-3.4 5.2-3.4 2.6 0 3.5-3.4 1.7-5.3 3.2-4.2 3.7-10.4.5-14.6l-.1-.1c-3-3.7-7.4-6-12-6.3-1.6-.2-3.1-.2-4.6-.1zm9.3 19.6-2.8-.8c-1.5-.4-2.5-1.7-2.5-3.3 0-1.1.5-2.3 1.3-3.1s2-1.3 3.2-1.3h1c2.5 0 4.5 2 4.5 4.4v.6c0 .9-.4 1.8-1 2.6-1 .9-2.4 1.3-3.7.9zm-18.1-.9c-.7-.7-1-1.6-1-2.6v-.6c0-2.5 2-4.4 4.5-4.4h1c1.2 0 2.4.5 3.2 1.3s1.3 2 1.3 3.1c0 1.5-1 2.9-2.5 3.3l-2.8.8c-1.3.4-2.8 0-3.7-.9zm12.5 4.9-1.4-1.5-1.4 1.5-1.5-1.5 2.2-2.4c.3-.4.9-.4 1.3 0l2.2 2.4z" fill="#231f20"/></svg>