<?xml version="1.0" encoding="utf-8"?>
<!-- Generator: Adobe Illustrator 27.4.0, SVG Export Plug-In . SVG Version: 6.00 Build 0)  -->
<svg version="1.1" id="Layer_1" xmlns="http://www.w3.org/2000/svg" xmlns:xlink="http://www.w3.org/1999/xlink" x="0px" y="0px"
	 viewBox="0 0 34 34" style="enable-background:new 0 0 34 34;" xml:space="preserve">
<style type="text/css">
	.st0{fill:#231F20;}
</style>
<path class="st0" d="M14.8,0.9c-4.7,0.3-9,2.7-12.2,6.4c0,0.1-0.1,0.1-0.1,0.2c-3.3,3.8-3,9.8,0.1,13.8l0.5,0.6
	c-1.7,2-0.8,5.3,1.7,5.3c2.2,0,5.3,0.2,5.3,3.4c0,0.4,0.5,2.6,7.2,2.6s6.8-2,6.8-2.5c0-2.9,3.1-3.4,5.2-3.4c2.6,0,3.5-3.4,1.7-5.3
	c3.2-4.2,3.7-10.4,0.5-14.6l-0.1-0.1c-3-3.7-7.4-6-12-6.3C17.8,0.8,16.3,0.8,14.8,0.9z M24.1,19.9l-2.4-0.7
	c-1.3-0.3-2.2-1.5-2.2-2.9c0-1,0.4-2,1.1-2.7c0.7-0.7,1.7-1.1,2.8-1.1h0.9c2.2,0,3.9,1.7,3.9,3.8v0.5c0,0.8-0.3,1.6-0.9,2.2
	C26.4,19.9,25.2,20.3,24.1,19.9z M6.3,19.3c-0.6-0.6-0.9-1.5-0.9-2.4v-0.5c0-2.3,1.8-4,4.1-4h0.9c1.1,0,2.2,0.5,2.9,1.2
	s1.2,1.8,1.2,2.8c0,1.4-0.9,2.7-2.3,3l-2.6,0.7C8.5,20.5,7.2,20.2,6.3,19.3z M18.5,24.5L17.1,23l-1.4,1.5L14.2,23l2.2-2.4
	c0.3-0.4,0.9-0.4,1.3,0l2.2,2.4L18.5,24.5z"/>
</svg>
