<svg enable-background="new 0 0 314.5 314" viewBox="0 0 314.5 314" xmlns="http://www.w3.org/2000/svg"><path d="m37 253.5h-18.1v42h42v-18.1c24.2-8.4 29.3-17.8 48.8-41.8l11.1-13.7c14.9 9.2 32.2 13.7 50.1 13.7 30.2 0 62.1-12.8 87-37.7 45.4-45.4 50.6-113.9 11.5-153-17.6-17.6-41.2-26.3-66-26.3-30.2 0-62.1 12.8-87 37.7-39.8 39.8-48.7 97.4-23.9 137.3l-13.6 11.1c-24.1 19.4-34.5 28.9-41.9 48.8zm201.3-199.2c4.3 2.7 8.4 5.8 12.1 9.5 30.1 30.1 26.1 82.8-8.8 117.7-1.1 1.1-2.2 2.1-3.3 3.1zm-19.8-8.4c2.8.7 5.5 1.6 8.2 2.6v145.3c-2.7 1.8-5.4 3.5-8.2 5zm-85.9 26.7c10.4-10.4 22.4-18.1 34.9-22.9v160.5c-16.5-1.4-31.9-8-43.8-19.9-30-30-26-82.7 8.9-117.7z" fill="#008ecc"/><g fill="#94e6ff"><path d="m238.3 54.3c4.3 2.7 8.4 5.8 12.1 9.5 30.1 30.1 26.1 82.8-8.8 117.7-1.1 1.1-2.2 2.1-3.3 3.1z"/><path d="m218.5 45.9c2.8.7 5.5 1.6 8.2 2.6v145.3c-2.7 1.8-5.4 3.5-8.2 5z"/><path d="m132.6 72.6c10.4-10.4 22.4-18.1 34.9-22.9v160.5c-16.5-1.4-31.9-8-43.8-19.9-30-30-26-82.7 8.9-117.7z"/></g></svg>