<svg enable-background="new 0 0 314.5 314" viewBox="0 0 314.5 314" xmlns="http://www.w3.org/2000/svg"><path d="m171.2 103.9c-19.1-10.4-40.5-14.2-61-12.2-45.9 4.5-87.7 37.7-90.9 89.6-3.7 58.5 38.7 95.3 81.3 91.2 10.1-1 20.2-4.3 29.7-10.1 40.3-24.3 35.9-97.3-15.2-101.6-2.4-.4-4.8-.4-7-.2-28.2 2.7-44.7 48-14.9 63.5 5.3 3.3 11.1 1.8 17 3.3 5.1 2.7 3.7 11.8-1.8 12.3-.1 0-.2 0-.3 0-3.5 0-7 0-10.6-.5-27-3.9-40.6-39.5-27.8-64.4 9.6-17.9 23.5-26.4 37.9-27.8 34.1-3.3 71 32.9 61.1 77.5 18.9-8.5 39.3-20.2 53.8-33.4 9.1-9.3 8-21.8 1.8-34.5-1.3-2.4-2.8-4.8-4.6-7.4.1-.2.1-.4.2-.5-12.9-19.9-35.9-38.9-48.7-44.8z" fill="#efb614"/><path d="m307.5 17.5c-3.7-4-12.5 3.7-20.4 20.1-8 16.4-15.5 34.3-19.5 62.5-3.5-.2-7.2.5-10.3 2-2-29.7.6-60 10.7-87.7.9-2.9-.3-5.6-3-6-6.4-1.1-10.2 13.1-13 27.4-2.8 14.2-4.1 47.1-2 70.8-9.5 4.8-18.3 17.1-24.3 28.5-4-5.3-8.2-10.1-12-14.2-12-12.5-26.1-23.4-36.7-28.4-20.6-11.1-44.1-15.8-68-13.4-26 2.5-50.5 13.3-68.9 30.3-20.2 18.7-31.8 43.3-33.5 71.1-2 32.2 8.3 60.9 29 80.9 18 17.4 42.1 26 66.2 23.7 12.4-1.2 24.2-5.2 35.1-11.9 3.6-2.2 7-4.7 10.1-7.6 33.5-6.1 80.3-14.4 101.6-34.3 19.3-15.4 13.1-66.9 16.8-83.5 2.4-7.2 8.6-10.4 14.8-12.9 17.9-7.1 11-30.1-5.6-33.8 3.7-24.5 13.7-46.8 17.2-53 12.2-22.6 18.8-24.8 15.7-30.6zm-207 255c-42.6 4.2-84.9-32.6-81.3-91.2 3.2-51.9 45-85.1 90.9-89.6 20.5-2 41.9 1.7 61 12.2 12.9 5.9 35.8 24.9 48.6 45-.1.2-.1.4-.2.5 1.8 2.5 3.3 5 4.6 7.4 6.2 12.7 7.2 25.2-1.8 34.5-14.5 13.1-35 24.8-53.8 33.4 9.9-44.6-27.1-80.8-61.1-77.5-14.4 1.4-28.3 9.9-37.9 27.8-12.8 24.9.8 60.5 27.8 64.4 3.6.5 7.1.5 10.6.5h.3c5.5-.5 6.9-9.6 1.8-12.3-5.9-1.6-11.7 0-17-3.3-29.8-15.4-13.3-60.7 14.9-63.5 2.3-.2 4.6-.2 7 .2 51.1 4.3 55.6 77.3 15.2 101.6-9.4 5.6-19.5 8.9-29.6 9.9z" fill="#d8941d"/></svg>