<svg enable-background="new 0 0 314.5 314" viewBox="0 0 314.5 314" xmlns="http://www.w3.org/2000/svg"><path d="m225.1 285.5-19.8-89.2 83.6-79.5-95.9 12-40.7-101.6-36.9 111.7-81.6 14.1 65.6 48.6-23.2 86.7 76.1-55z" fill="#e5b51c"/><g fill="#ffdb06"><path d="m66.1 42.9 18.8 27 31.9-8.1-19.9 26.3 17.6 27.9-31.1-10.8-21.1 25.3.7-33-30.6-12.1 31.5-9.6z"/><path d="m243 178.1 14.7 21.1 24.9-6.4-15.4 20.5 13.8 21.8-24.3-8.5-16.4 19.8.6-25.8-23.9-9.6 24.6-7.5z"/><path d="m244.2 114.7-21.1 3s34.1-36.6 20.2-41.3c-15.6-5.4-56 15-56 15l-3.9-10.9s63.2-34.2 80.1-21.6-19.3 55.8-19.3 55.8z"/><path d="m82.6 232.7-4.3 15.8s-41.5 18.3-47.1.9c-5.5-17.4 35.6-55.6 35.6-55.6s-30.7 36.2-19.4 44.8c9.4 7 35.2-5.9 35.2-5.9z"/></g></svg>