<svg enable-background="new 0 0 314.5 314" viewBox="0 0 314.5 314" xmlns="http://www.w3.org/2000/svg"><path d="m295.1 169.1c0 76.1-49.2 122.9-137.9 122.9s-137.8-46.7-137.8-122.9 53.5-147.1 137.9-147.1 137.8 71 137.8 147.1z" fill="#81a7c9"/><g fill="#3b2644"><path d="m76.9 117.8-.5-21c21.6-.5 42.8-3.6 50.9-22.2l19.2 8.4c-14.6 33.5-53.1 34.4-69.6 34.8z"/><path d="m234.8 117.8c-16.6-.4-55.4-1.3-70.2-34.9l19.3-8.5c8.2 18.7 29.5 21.8 51.3 22.3z"/><path d="m133.1 144.6c-.8 0-1.6-.3-2.2-.8-11.4-9.5-26.6-10.8-52.5-9.8-1.9.1-3.6-1.4-3.6-3.4-.1-1.9 1.4-3.6 3.4-3.6 23.6-.9 42.8-.6 57.2 11.4 1.5 1.2 1.7 3.4.4 4.9-.7.9-1.7 1.3-2.7 1.3z"/><path d="m180.7 144.6c-.9 0-1.8-.4-2.5-1.1-1.3-1.4-1.3-3.6.1-4.9 11.7-11.3 27.4-13.1 51.2-15.9l1.8-.2c1.9-.2 3.7 1.1 3.9 3.1.2 1.9-1.1 3.7-3.1 3.9l-1.8.2c-23.2 2.7-37.2 4.4-47.2 14-.7.6-1.6.9-2.4.9z"/><path d="m203.6 242c0 13.2-5.3 15.7-14 15-8.6-.7-20.5-23-33.7-23-12.8 0-24.5 22.1-33 23-9 .9-14.6-1.5-14.6-15 0-26.3 9.6-80.7 47.7-80.7s47.6 54.4 47.6 80.7z"/></g><g fill="#e1f9ff"><path d="m60.1 158c-48.1-8-68.4 31.8-46 50.7 24.1 20.5 56.4-10.3 46-50.7z"/><path d="m253.2 159.6c-8 48.1 31.8 68.4 50.7 46 20.5-24.1-10.3-56.5-50.7-46z"/></g></svg>