<?xml version="1.0" encoding="utf-8"?>
<!-- Generator: Adobe Illustrator 27.4.1, SVG Export Plug-In . SVG Version: 6.00 Build 0)  -->
<svg version="1.1" id="Layer_1" xmlns="http://www.w3.org/2000/svg" xmlns:xlink="http://www.w3.org/1999/xlink" x="0px" y="0px"
	 viewBox="0 0 314.5 314" style="enable-background:new 0 0 314.5 314;" xml:space="preserve">
<style type="text/css">
	.st0{fill:#474A51;}
	.st1{fill:#95989E;}
</style>
<path class="st0" d="M311.8,157c0,0-69.2-95.8-154.6-95.8c-17.9,0-35.1,4.2-51.1,10.9l17.4,17.4c6.2-2.2,12.6-4,19.2-5
	c-3.7,3.5-7.7,7.7-11.8,12.4l76.8,76.8c1.4-5.4,2.2-11,2.2-16.8c0-30.7-22.5-57.5-38.1-72.4c58.6,9.6,104,72.4,104,72.4
	s-16.3,22.6-42,42.8l17.3,17.3C288,189.9,311.8,157,311.8,157L311.8,157z"/>
<path class="st0" d="M16.2,32.2L282.1,298c5.7-5.1,11.1-10.5,16.2-16.2L32.4,16C26.7,21.1,21.3,26.5,16.2,32.2L16.2,32.2z"/>
<g>
	<g>
		<path class="st1" d="M240.3,223.8l10.8-6.8l-17.3-17.3c25.7-20.2,42-42.8,42-42.8s-45.4-62.8-104-72.4
			c15.6,14.9,38.1,41.7,38.1,72.4c0,5.8-0.8,11.4-2.2,16.8l-76.8-76.8c4.1-4.7,8.1-8.9,11.8-12.4c-6.6,1-13,2.8-19.2,5l-17.4-17.4
			c-4.1,1.7-8.1,3.6-12,5.6L240.3,223.8z"/>
		<path class="st1" d="M73.7,89.7c-3.6,2.4-7,4.8-10.4,7.3l17.3,17.3C54.8,134.3,38.5,157,38.5,157s45.5,63.1,104.2,72.5
			c-15.6-15-38.1-41.9-38.1-72.5c0-5.7,0.8-11.3,2.2-16.7l76.8,76.8c-4,4.7-8.1,8.8-11.7,12.3c6.5-1.1,12.9-2.8,19-5l17.5,17.5
			c4.1-1.7,8.1-3.6,12-5.6l0,0L73.7,89.7z"/>
	</g>
	<path class="st0" d="M2.7,157c0,0,69.1,95.8,154.5,95.8c17.9,0,35.1-4.2,51.2-10.9l-17.5-17.5c-6.1,2.2-12.5,3.9-19,5
		c3.6-3.5,7.7-7.6,11.7-12.3l-76.8-76.8c-1.4,5.4-2.2,11-2.2,16.7c0,30.6,22.5,57.5,38.1,72.5C84,220.1,38.5,157,38.5,157
		s16.3-22.7,42.1-42.8L63.3,96.9C26.5,124.1,2.7,157,2.7,157L2.7,157z"/>
</g>
</svg>
