<?xml version="1.0" encoding="utf-8"?>
<!-- Generator: Adobe Illustrator 27.4.0, SVG Export Plug-In . SVG Version: 6.00 Build 0)  -->
<svg version="1.1" id="Layer_1" xmlns="http://www.w3.org/2000/svg" xmlns:xlink="http://www.w3.org/1999/xlink" x="0px" y="0px"
	 viewBox="0 0 314.5 314" style="enable-background:new 0 0 314.5 314;" xml:space="preserve">
<style type="text/css">
	.st0{fill:#992C07;}
	.st1{fill:#CC6111;}
</style>
<path class="st0" d="M143,296.7c-62.3-6.7-112-67.5-94.7-139.7c6.6-28,26.5-68.8,40-86.7c0,0,6.4,21,30,15.7s28.1-50.7,54-86
	c22.7,69.3,99.8,131.7,96,199C264.6,266.3,210.1,304,143,296.7z"/>
<path class="st1" d="M147.7,268.6c-41.5-4.5-77-46-73.7-91.9c3-41.7,14.7-51.3,23-65.7c0,0,15.7,13.3,33,5.7s35.2-45.8,40.3-59
	c18,44,74.1,92.5,65.4,143.4C227,251.7,192.3,273.4,147.7,268.6z"/>
</svg>
