<svg enable-background="new 0 0 314.5 314" viewBox="0 0 314.5 314" xmlns="http://www.w3.org/2000/svg"><g fill="#934d00"><path d="m237.6 310-23.6-106.3 99.6-94.8-114.2 14.4-48.5-121.1-44 133.1-97.3 16.8 78.2 57.9-27.6 103.3 90.7-65.6z"/><path d="m48.1 20.9 22.4 32.2 38-9.7-23.7 31.3 21 33.2-37.1-12.9-25.1 30.2.8-39.3-36.5-14.4 37.6-11.4z"/><path d="m259 182 17.5 25.2 29.7-7.6-18.4 24.4 16.4 26-29-10.1-19.6 23.6.7-30.7-28.5-11.4 29.3-8.9z"/><path d="m260.4 106.4-25.2 3.6s40.7-43.6 24.1-49.2c-18.6-6.4-66.7 17.9-66.7 17.9l-4.6-13s75.3-40.8 95.5-25.8c20.1 15-23.1 66.5-23.1 66.5z"/><path d="m67.8 247.1-5.1 18.8s-49.5 21.8-56.1 1.1c-6.5-20.7 42.4-66.3 42.4-66.3s-36.6 43.1-23.1 53.4c11.1 8.4 41.9-7 41.9-7z"/></g></svg>