<svg enable-background="new 0 0 314.5 314" viewBox="0 0 314.5 314" xmlns="http://www.w3.org/2000/svg"><path d="m295.1 169.1c0 76.1-49.2 122.9-137.9 122.9s-137.8-46.7-137.8-122.9 53.5-147.1 137.9-147.1 137.8 71 137.8 147.1z" fill="#f15143"/><g fill="#4c2816"><path d="m235.4 116.5 22-7.2-6.8-20.6-70 23 6.8 20.6 8.8-2.9c-1.7 3.6-2.6 7.6-2.6 11.9 0 15.6 12.7 23.6 28.3 23.6s28.3-8 28.3-23.6c-.1-10.7-6-20-14.8-24.8z"/><path d="m59.5 109.3 21.5 7.1c-8.9 4.8-15 14.1-15 24.9 0 15.6 12.7 23.6 28.3 23.6s28.3-8 28.3-23.6c0-4.4-1-8.5-2.8-12.2l9.8 3.2 6.8-20.6-70-23z"/><path d="m157.5 161.1c-21.7 1.3-29.7 17-32.3 22.1-1.2 2.3-.2 5.1 2 6.3 2.3 1.2 5.1.2 6.3-2 3.8-7.5 10-16.2 24.6-17.1 18.5-1.1 23.4 7.8 27.2 17.9.7 1.9 2.5 3 4.4 3 .5 0 1.1-.1 1.6-.3 2.4-.9 3.6-3.6 2.7-6-4.7-12.6-12.8-25.4-36.5-23.9z"/></g></svg>