<svg enable-background="new 0 0 314.5 314" viewBox="0 0 314.5 314" xmlns="http://www.w3.org/2000/svg"><path d="m0 0h140.9 173.6" fill="#5400e7"/><path d="m314.5 314h-188.4-126.1" fill="#5400e7"/><g fill="#057c73"><path d="m39.9 117.5-33.7-36.9c.7-.6 7.1-6.4 18-14.3l29.2 40.6c-8.5 6.1-13.4 10.5-13.5 10.6z"/><path d="m233 89.6c-9.9-5.2-20-9.5-29.8-12.7l15.7-47.5c12.4 4.1 25 9.5 37.3 15.9zm-151.6 0-23.2-44.3c12.3-6.4 24.9-11.8 37.3-15.9l15.7 47.5c-9.8 3.2-19.9 7.5-29.8 12.7zm60.5-19.7-5.9-49.6c7.1-.8 14.2-1.3 21.2-1.3 6.9 0 14.1.4 21.1 1.3l-5.8 49.7c-5.1-.6-10.3-.9-15.3-.9-5-.1-10.2.2-15.3.8z"/><path d="m274.5 117.4s-4.9-4.4-13.4-10.5l29.2-40.6c10.9 7.8 17.3 13.6 18 14.2z"/><path d="m157.2 97c-87.2 0-158 98-158 98s70.7 98 158 98 158.1-98 158.1-98-70.8-98-158.1-98zm-121.4 98s46.5-64.4 106.6-74.1c-16 15.3-39 42.8-39 74.1s23 58.8 39 74.1c-60.1-9.7-106.6-74.1-106.6-74.1zm136.5 74c15.9-15.3 38.9-42.7 38.9-74s-22.9-58.7-38.9-74c59.9 9.8 106.3 74 106.3 74s-46.3 64.2-106.3 74z"/><path d="m315.3 195s-70.8-98-158.1-98c-87.2 0-158 98-158 98h36.6s46.5-64.4 106.6-74.1c-16 15.3-39 42.8-39 74.1h107.8c0-31.3-22.9-58.7-38.9-74 59.9 9.8 106.3 74 106.3 74z"/></g><path d="m35.8 195s31.9-44.2 77-64.9c2.6-1.2 5.1-2.3 7.8-3.3 4.4-1.7 8.9-3.1 13.5-4.3 2.8-.7 5.5-1.3 8.4-1.7-16 15.3-39 42.8-39 74.1s23 58.8 39 74.1c-60.2-9.6-106.7-74-106.7-74z" fill="#3ab5b1"/><path d="m172.1 269.1c16-15.3 39-42.8 39-74.1s-23-58.8-39-74.1c2.8.5 5.6 1 8.4 1.7 4.6 1.1 9.1 2.6 13.5 4.3 2.6 1 5.2 2.1 7.8 3.3 45.1 20.7 77 64.9 77 64.9s-46.6 64.3-106.7 74z" fill="#3ab5b1"/></svg>