<svg enable-background="new 0 0 314.5 314" viewBox="0 0 314.5 314" xmlns="http://www.w3.org/2000/svg"><path d="m270.9 224.9c-16.6 69-81.6 99-142.7 84.3s-101.3-65.8-84.7-134.8c5.9-24.4 19.5-43.8 33-80.4-1.8 32.1 32.9 30.1 40.2 17.4 10.1-17.5 6.7-29.3 20.9-58.1 21-42.3 61.1-48.6 61.1-48.6s-3.9 38.6 25.7 79.9c14.8 20.6 28.3 33.7 41.7 65.2 10.6 25 10.5 51 4.8 75.1z" fill="#992c07"/><path d="m150.1 298.8c-43.5-3.3-84.8-51-74.4-101.6 4-19.6 11.5-35 20.5-47.7 0 0 14.7 12.3 32.5 3.7s36-63.6 40.9-77.6c17.4 48.3 77.6 96.2 70.2 149.7-7.4 53.2-42.9 77.1-89.7 73.5z" fill="#cc6111"/></svg>