<svg enable-background="new 0 0 314.5 314" viewBox="0 0 314.5 314" xmlns="http://www.w3.org/2000/svg"><path d="m160 284.7c12.9 9.3 19.2 12.8 34 20.3l14 6.7-6-53.4z" fill="#812323"/><path d="m217.1 300.8c31.1-37.1 37.2-48.8 53.9-84.5l-69 42 6 53.4v-.1z" fill="#600a0a"/><path d="m192.5 64-65.2-1.8.8 31.7z" fill="#600a0a"/><path d="m25.3 59.5c-.7 26.2 2.9 52.1 10.9 77.2l92-42.7-.8-31.6z" fill="#812323"/><path d="m23.9 174.5c20.4 42.4 49.1 81.2 87.8 114.2l57-32.7-17.3-160.7z" fill="#812323"/><path d="m286.7 52.7-85.9 12-49.4 30.6 17.3 160.7 100-58.3c16-32 22.9-103.9 18-145z" fill="#600a0a"/></svg>