<svg enable-background="new 0 0 314.5 314" viewBox="0 0 314.5 314" xmlns="http://www.w3.org/2000/svg"><path d="m251.5 206.3c-5.9-23-16.8-46.8-33.7-60.1 6-10.8 9.1-22 9.1-33.2 0-38.1-31.1-69-69.3-69s-69.3 30.9-69.3 69c0 11.2 3.1 22.3 9.1 33.2-16.8 13.3-27.8 37.1-33.7 60.1-7.2 27.5-10.5 52.7-10.5 52.7 30.8 6.6 59.3 11 104.4 11s73.6-4.4 104.4-10.9c0-.1-3.3-25.4-10.5-52.8z" fill="#1e1e1e"/><g fill="#fff"><path d="m139 236.5c0-3 1.1-5.4 3.2-7.5 2.1-2 4.8-3 8.1-3 3.2 0 5.8 1.1 7.9 3 2.1 2 3.2 4.5 3.2 7.5s-1.1 5.6-3.2 7.5c-2.1 2-4.6 3-7.9 3s-5.9-1.1-8.1-3c-2.1-2-3.2-4.5-3.2-7.5z"/><path d="m180.3 199.7c-5.4 4.4-12.6 6.6-21.4 6.6l-.5 9.9h-15.9l-.7-21.9h5.8c7.4 0 13.2-.9 17.3-2.9 4-2 6.1-5.6 6.1-10.8 0-3.8-1.1-6.7-3.3-9.1-2.2-2.2-5.2-3.4-9-3.4-4 0-7 1.1-9.3 3.3-2.2 2.1-3.3 5-3.3 9h-17.3c-.1-5.2 1.1-9.9 3.4-14s5.7-7.3 10.3-9.6c4.5-2.4 9.8-3.6 16-3.6 9 0 16.1 2.5 21.5 7.3 5.4 4.9 8.2 11.5 8.2 20.1 0 8.3-2.6 14.7-7.9 19.1z"/></g></svg>