<svg enable-background="new 0 0 150 143" viewBox="0 0 150 143" xmlns="http://www.w3.org/2000/svg"><path d="m69.2 55.3v38.4h-40.8v-9.4c0-2.9 1.4-5.7 3.8-7.4 1.5-1.1 3.4-1.7 5.2-1.7h7v-19.9zm3-3h-3-24.7-3v3 16.9h-4c-2.5 0-4.9.8-7 2.2-3.2 2.3-5.1 5.9-5.1 9.9v9.3 3h3 40.8 3v-3-38.3z" fill="#f69200"/><path d="m105.5 55.3v19.9h7c1.9 0 3.7.6 5.2 1.7 2.4 1.7 3.8 4.5 3.8 7.4v9.4h-40.7v-38.4zm3-3h-3-24.7-3v3 38.4 3h3 40.8 3v-3-9.4c0-3.9-1.9-7.6-5.1-9.9-2-1.4-4.5-2.2-7-2.2h-4v-16.9z" fill="#f69200"/><g fill="none"><path d="m0 0h150"/><path d="m150 143h-150"/></g></svg>