<svg enable-background="new 0 0 150 143" viewBox="0 0 150 143" xmlns="http://www.w3.org/2000/svg"><path d="m75.4 32.9c19.1 0 25 14.6 25 25.7l2.4 46.5h-21.2l-.4-37h11v-13.6h-33.6v13.7h11l-.4 37h-21.2l2.4-46.5c0-11.2 5.9-25.8 25-25.8m0-3c-12 0-18.6 5.4-22 9.9-5.2 6.7-6 14.6-6 18.8l-2.4 46.4-.2 3.2h3.2 21.2 3v-3l.4-37v-3h-3-8v-7.7h27.7v7.7h-8-3v3l.4 37v3h3 21.2 3.2l-.2-3.2-2.4-46.5c0-4.2-.8-12-6-18.8-3.5-4.4-10.1-9.8-22.1-9.8z" fill="#f69200"/><g fill="none"><path d="m0 0h150"/><path d="m150 143h-150"/></g></svg>