<svg enable-background="new 0 0 34 34" viewBox="0 0 34 34" xmlns="http://www.w3.org/2000/svg"><g fill="#546dfe"><path d="m29.6 9.6c.2 0 .6.2.6.6v13.6c0 .4-.3.6-.6.6-.2 0-.2-.1-.4-.2l-6.7-6.8c-.2-.2-.2-.6 0-.7l6.7-6.7c0-.3.2-.4.4-.4m.8-3.1c-.4 0-.8.2-1.3.5l-8.7 8.7c-.6.6-.6 1.8 0 2.5l8.7 8.7c.3.3.8.5 1.3.5.9 0 1.8-.7 1.8-1.8v-17.3c-.1-1.1-1-1.8-1.8-1.8z"/><path d="m12.8 18.2-8.2 8.2c-1 1-2.8.3-2.8-1.2v-16.4c0-1.5 1.8-2.2 2.8-1.2l8.2 8.2c.7.7.7 1.7 0 2.4z"/><path d="m15.5 2.2h2.4v29.6h-2.4z"/></g></svg>