<svg enable-background="new 0 0 150 150" viewBox="0 0 150 150" xmlns="http://www.w3.org/2000/svg"><path d="m114.7 36.1-.5 11.9-48.9 48.9 6.1 6.1-4.3 4.3-9.4-9.4-16.2 16.2v3.5h-8.3v-8.3h3.6l16.2-16.2-9.4-9.4 4.3-4.3 6.1 6.1 48.8-48.8zm2.6-2.6-2.7.1-11.9.5h-1l-.7.7-47.1 47.1-4.4-4.4-1.8-1.8-1.8 1.8-4.2 4.4-1.8 1.8 1.8 1.8 7.7 7.7-13.7 13.5h-2.5-2.5v2.5 8.3 2.5h2.5 8.3 2.5v-2.5-2.5l13.7-13.6 7.7 7.7 1.8 1.8 1.8-1.8 4.3-4.3 1.8-1.8-1.8-1.8-4.4-4.4 47.1-47.1.7-.7v-1l.5-11.9z" fill="#f69200"/><g fill="none"><path d="m0-37.5h150"/><path d="m150 187.5h-150"/></g></svg>