<?xml version="1.0" encoding="utf-8"?>
<!-- Generator: Adobe Illustrator 26.5.0, SVG Export Plug-In . SVG Version: 6.00 Build 0)  -->
<svg version="1.1" id="Layer_1" xmlns="http://www.w3.org/2000/svg" xmlns:xlink="http://www.w3.org/1999/xlink" x="0px" y="0px"
	 viewBox="0 0 314.2 237.6" style="enable-background:new 0 0 314.2 237.6;" xml:space="preserve">
<g id="ac41f039-2eeb-45cd-b1c0-a693c8e00f31">
	<g id="bbb9cc84-0167-4707-9913-1b92a187ba5a">
		<path id="bc43b4b4-723f-4121-b7a5-be6ac97b1b96" d="M185.2,8.7L11.6,94.4l105.2,134.6l185.9-105.2L185.2,8.7z M132.4,195.7
			l-13.8-5l9.3-25.3l13.8,5L132.4,195.7z M154.3,158.4l-8.8-11.7l21.5-16.2l8.8,11.7L154.3,158.4z M194,121.8l-14.6-1.1l2-26.9
			l14.6,1.1L194,121.8z M177.8,70.9l-12.8,24L152,88l11.7-22l-22.2-7.7l4.8-13.9l24.5,8.4l10.4-19.5l13,6.9l-9.3,17.5l26.2,9.1
			l-4.8,13.9L177.8,70.9z"/>
	</g>
</g>
</svg>
