<?xml version="1.0" encoding="utf-8"?>
<!-- Generator: Adobe Illustrator 27.1.1, SVG Export Plug-In . SVG Version: 6.00 Build 0)  -->
<svg version="1.1" id="Layer_1" xmlns="http://www.w3.org/2000/svg" xmlns:xlink="http://www.w3.org/1999/xlink" x="0px" y="0px"
	 viewBox="0 0 34 34" style="enable-background:new 0 0 34 34;" xml:space="preserve">
<style type="text/css">
	.st0{fill:#546DFE;}
</style>
<g>
	<path class="st0" d="M17,33.6C7.8,33.6,0.4,26.2,0.4,17S7.8,0.4,17,0.4S33.6,7.9,33.6,17C33.6,26.2,26.2,33.6,17,33.6z M17,3.4
		C9.5,3.4,3.4,9.5,3.4,17S9.5,30.6,17,30.6S30.6,24.5,30.6,17S24.5,3.4,17,3.4z"/>
	<circle class="st0" cx="17" cy="17" r="2.2"/>
</g>
<g>
	<path class="st0" d="M17,27.5c-5.8,0-10.5-4.7-10.5-10.5S11.2,6.5,17,6.5S27.5,11.2,27.5,17S22.8,27.5,17,27.5z M17,9.5
		c-4.1,0-7.5,3.4-7.5,7.5s3.4,7.5,7.5,7.5s7.5-3.4,7.5-7.5S21.1,9.5,17,9.5z"/>
	<circle class="st0" cx="17" cy="17" r="2.2"/>
</g>
</svg>
