<svg enable-background="new 0 0 314.5 314" viewBox="0 0 314.5 314" xmlns="http://www.w3.org/2000/svg"><path d="m0 0h140.9 173.6" fill="#5400e7"/><path d="m314.5 314h-188.4-126.1" fill="#5400e7"/><path d="m239.1 107.8-24-24-57.9-57.9-57.8 57.9-24 24-58 57.9.1.1 57.9 57.9 23.9 23.9 58 58v-.1l57.9-57.9 24-24 58-57.9zm-81.8 156.6-98.9-98.8h.1l98.8-98.9 98.9 98.9z"/><path d="m157.2 132.8-32.6 32.7 32.6 32.7v-.1l32.7-32.6z"/><path d="m60.2 203v59.7l.1-.1 59.6.1z"/><path d="m256.1 66.8h-59.7l59.7 59.6z"/><path d="m119.9 66.8h-59.7l.1.1-.1 59.5z"/><path d="m256.1 262.7v-59.7l-59.7 59.7z"/></svg>