<svg enable-background="new 0 0 50 50" viewBox="0 0 50 50" xmlns="http://www.w3.org/2000/svg"><path d="m0 0h50" fill="none"/><path d="m50 50h-50" fill="none"/><path d="m24.8 13.4c-6.4 0-12.4 3.4-15.6 9s-3.2 12.4 0 18 9.1 9 15.6 9c6.4 0 12.4-3.4 15.6-9s3.2-12.4 0-18c-3.3-5.6-9.2-9-15.6-9zm7.1 8.3c-.7-.4-.9-1.3-.5-2s1.3-.9 2-.5.9 1.3.5 2-1.3.9-2 .5zm6.2 10.1-1.2-2.8c-.5-1.1-1-2.2-1.7-3.2l-.6-1c-.4-.6-.3-1.4.2-1.9.6-.6 1.6-.5 2.1.2l.1.1c1.1 1.4 1.8 3 2.1 4.7.2 1.3.2 2.5 0 3.8-.2.5-.8.6-1 .1z"/><path d="m33.1 8h2.9v2.9h-2.9z" transform="matrix(.7071 -.7071 .7071 .7071 3.4842 27.1832)"/><path d="m28.3 1h2v2h-2z" transform="matrix(.7071 -.7071 .7071 .7071 7.184 21.3178)"/><path d="m17.6 2.2h5.3v5.3h-5.3z" transform="matrix(.7071 -.7071 .7071 .7071 2.5267 15.7459)"/><path d="m10.1 12.4h3v3h-3z" transform="matrix(.7071 -.7071 .7071 .7071 -6.426 12.2853)"/><path d="m25.7 8.4h2.3v2.3h-2.3z" transform="matrix(.7071 -.7071 .7071 .7071 1.1485 21.7717)"/><path d="m37.4 13.6h2v2h-2z" transform="matrix(.7071 -.7071 .7071 .7071 .9197 31.404)"/></svg>