<svg enable-background="new 0 0 34 34" viewBox="0 0 34 34" xmlns="http://www.w3.org/2000/svg"><path d="m23.8 18.5c-.4-.9-.9-1.7-1.7-2.4-1-.8-2.1-1.5-3.3-2.1-3.2-1.5-3.5-2.5-3.5-2.9s.2-.8.4-1.1c.4-.3.8-.5 1.4-.5 1.3 0 2.6.4 3.6 1.2l1 .8 1.8-5.1-.6-.4c-1.1-.7-2.3-1.2-3.5-1.3v-2.6h-5.2v2.9c-1.2.4-2.2 1.1-3.1 2.1-1 1.1-1.5 2.6-1.5 4.1 0 1 .2 1.9.5 2.8.3.8.9 1.6 1.6 2.2 1 .8 2.2 1.5 3.4 2.1 1.1.5 2.1 1.1 2.9 2 .4.4.6 1 .6 1.6 0 .4 0 1.4-2.3 1.4-1.4 0-2.7-.5-3.9-1.4l-.8-.9-2.2 5.1.7.4c1.3.8 2.7 1.4 4.2 1.6v3.1h5.2v-3.5c1.3-.4 2.5-1.2 3.4-2.2 1-1.2 1.6-2.6 1.5-4.1-.1-1-.2-2-.6-2.9z" fill="#546dfe"/></svg>