<svg enable-background="new 0 0 314.5 314" viewBox="0 0 314.5 314" xmlns="http://www.w3.org/2000/svg"><path d="m0 0h140.9 173.6" fill="#5400e7"/><path d="m314.5 314h-188.4-126.1" fill="#5400e7"/><path d="m250.5 100.4-.1-.1-.1-.1h-25.8l-30.7-30.7-.2-.2v-.1h-72.8v.1l-.2.2-30.6 30.7h-25.8v.1l-.1.1v61.8l18.3 18.3-12.9 12.9.1.1 12.8 12.8 38.6-.2-.2 38.6.1.1 12.9-12.9 10.6 10.7.1-.1 12.7-12.6.1-.1v.1l.1-.1.1.1v-.1l.1.1 12.6 12.6.1.1 10.6-10.6 12.9 12.8.1-.1-.2-38.6 38.6.2 12.8-12.9.1-.1-12.9-12.9 18.3-18.3v-61.7zm-85.7 100.5-7.6-7.5-7.5 7.5-7.6-7.5 15.2-15 15.1 15zm-7.6-59.7-24.4-24.4 24.4-24.4 24.4 24.4z" fill="#231f20"/></svg>