<svg enable-background="new 0 0 314.5 314" viewBox="0 0 314.5 314" xmlns="http://www.w3.org/2000/svg"><path d="m0 0h140.9 173.6" fill="#5400e7"/><path d="m314.5 314h-188.4-126.1" fill="#5400e7"/><path d="m257.2 248.6s-36.9 12.3-85.7 17.3c-43.1 4.4-61.2 2.2-83.2-4.1-16-4.5-32.4-14.4-44.6-30.3-16.7-21.9-15-59.1 2.9-80.8 23.6-28.6 63.7-25.1 90.3-8.1 17.5 11.2 31.5 21.8 31.5 21.8l31.4-66s-5-.6-22.6-5c-12.9-3.2-2.9-49.9-2.9-49.9l18.3 1.4 1.4-20.4 49.3 4s26.4 42.5 25.2 59.2c-1.3 16.8-11.3 160.9-11.3 160.9z"/></svg>