<?xml version="1.0" encoding="utf-8"?>
<!-- Generator: Adobe Illustrator 27.2.0, SVG Export Plug-In . SVG Version: 6.00 Build 0)  -->
<svg version="1.1" id="Layer_1" xmlns="http://www.w3.org/2000/svg" xmlns:xlink="http://www.w3.org/1999/xlink" x="0px" y="0px"
	 viewBox="0 0 314.2 237.6" style="enable-background:new 0 0 314.2 237.6;" xml:space="preserve">
<path d="M157.1,16c-40,0-72.4,32.4-72.4,72.4c0,7.7,1.2,15.1,3.4,22.1c2,6.3,4.8,12.1,8.4,17.5l60.6,86.5l60.6-86.5
	c3.7-5.7,6.6-11.9,8.7-18.5c2-6.7,3.1-13.8,3.1-21.1C229.5,48.4,197.1,16,157.1,16z M157.1,139.1c-28.5,0-51.6-23.1-51.6-51.6
	S128.6,36,157.1,36c28.5,0,51.6,23.1,51.6,51.6S185.6,139.1,157.1,139.1z"/>
</svg>
