<svg enable-background="new 0 0 314.5 314" viewBox="0 0 314.5 314" xmlns="http://www.w3.org/2000/svg"><path d="m0 0h140.9 173.6" fill="#5400e7"/><path d="m314.5 314h-188.4-126.1" fill="#5400e7"/><path d="m157.2 97c-87.2 0-158 98-158 98s70.7 98 158 98 158.1-98 158.1-98-70.8-98-158.1-98zm0 173.3c-67 0-121.4-75.3-121.4-75.3s54.3-75.3 121.4-75.3c67 0 121.4 75.3 121.4 75.3s-54.3 75.3-121.4 75.3z"/><path d="m39.9 117.5-33.7-36.9c.7-.6 7.1-6.4 18-14.3l29.2 40.6c-8.5 6.1-13.4 10.5-13.5 10.6z"/><path d="m233 89.6c-9.9-5.2-20-9.5-29.8-12.7l15.7-47.5c12.4 4.1 25 9.5 37.3 15.9zm-151.6 0-23.2-44.3c12.3-6.4 24.9-11.8 37.3-15.9l15.7 47.5c-9.8 3.2-19.9 7.5-29.8 12.7zm60.5-19.7-5.9-49.6c7.1-.8 14.2-1.3 21.2-1.3 6.9 0 14.1.4 21.1 1.3l-5.8 49.7c-5.1-.6-10.3-.9-15.3-.9-5-.1-10.2.2-15.3.8z"/><path d="m274.5 117.4s-4.9-4.4-13.4-10.5l29.2-40.6c10.9 7.8 17.3 13.6 18 14.2z"/><path d="m211.2 195c0-48-53.9-86.9-53.9-86.9s-53.9 39-53.9 86.9 53.9 86.9 53.9 86.9 53.9-38.9 53.9-86.9z"/></svg>