<svg enable-background="new 0 0 34 34" viewBox="0 0 34 34" xmlns="http://www.w3.org/2000/svg"><g fill="#546dfe"><path d="m24.4 29.6c0 .2-.2.6-.6.6h-13.6c-.4 0-.6-.3-.6-.6 0-.2.1-.2.2-.4l6.8-6.7c.2-.2.6-.2.7 0l6.7 6.7c.3 0 .4.2.4.4m3.1.8c0-.4-.2-.8-.5-1.3l-8.7-8.7c-.6-.6-1.8-.6-2.5 0l-8.7 8.7c-.3.3-.5.8-.5 1.3 0 .9.7 1.8 1.8 1.8h17.3c1.1-.1 1.8-1 1.8-1.8z"/><path d="m15.8 12.8-8.2-8.2c-1-1-.3-2.8 1.2-2.8h16.4c1.5 0 2.2 1.8 1.2 2.8l-8.2 8.2c-.7.7-1.7.7-2.4 0z"/><path d="m31.8 15.5v2.4h-29.6v-2.4z"/></g></svg>