<svg enable-background="new 0 0 314.5 314" viewBox="0 0 314.5 314" xmlns="http://www.w3.org/2000/svg"><path d="m0 0h140.9 173.6" fill="#5400e7"/><path d="m314.5 314h-188.4-126.1" fill="#5400e7"/><path d="m157.2 63.9c-84.6 0-153.3 95.1-153.3 95.1s68.6 95.1 153.3 95.1 153.4-95.1 153.4-95.1-68.7-95.1-153.4-95.1zm0 168.2c-65 0-117.8-73.1-117.8-73.1s52.7-73.1 117.8-73.1c65 0 117.8 73.1 117.8 73.1s-52.7 73.1-117.8 73.1z"/><path d="m209.6 159c0-46.6-52.3-84.3-52.3-84.3s-52.3 37.8-52.3 84.3 52.3 84.3 52.3 84.3 52.3-37.7 52.3-84.3z"/></svg>