<svg enable-background="new 0 0 32 32" viewBox="0 0 32 32" xmlns="http://www.w3.org/2000/svg"><path d="m0 0h32" fill="#fff"/><path d="m32 32h-32" fill="#fff"/><path d="m24.5 22.7h-.4-5.8v2.3c-1.3 0-3.3 0-4.7 0 0-.6 0-1.7 0-2.3-2.1 0-4.8 0-7 0v5.8h18.6c0-1.9 0-3.9 0-5.8z" fill="#893927"/><path d="m24.1 16.9v1.1c-.6 0-1.7 0-2.3 0v-1.2c-3.8 0-7.8 0-11.6 0v1.2c-.6 0-1.7 0-2.3 0v-1.2h-1.2v3.5h18.6c0-1 0-2.5 0-3.5h-1.2z" fill="#56504e"/><path d="m16 22.7h-1.2v1.2h2.3v-1.2z" fill="#56504e"/><g fill="#cdc0b8"><path d="m26.5 8.7c-7.3 0-14.7 0-22.1 0v1.2h23.3v-1.2z"/><path d="m25.3 16.9v3.5c-6.2 0-12.4 0-18.6 0 0-1 0-2.5 0-3.5-.6 0-1.7 0-2.3 0v4.7h23.3c0-1.5 0-3.2 0-4.7-.7 0-1.8 0-2.4 0z"/><path d="m24.1 16.9v-1.2c-.6 0-1.7 0-2.3 0v1.2z"/><path d="m10.2 16.9v-1.2c-.6 0-1.7 0-2.3 0v1.2z"/><path d="m23 28.5c-5.4 0-10.9 0-16.3 0v1.2h18.6v-1.2c-.6 0-1.7 0-2.3 0z"/></g><g fill="#938c87"><path d="m26.5 9.9c-7.3 0-14.7 0-22.1 0v7h3.5v-1.2h-1.2c0-1.5 0-3.2 0-4.7h18.6v4.7h-1.2v1.2h3.5c0-2.3 0-4.7 0-7z"/><path d="m21.8 16.9v1.1h2.3v-1.2c-.5.1-1.7.1-2.3.1z"/><path d="m20.7 15.7c-3.4 0-7 0-10.5 0v1.2h11.6v-1.2z"/><path d="m7.9 16.9v1.1h2.3v-1.2c-.6.1-1.8.1-2.3.1z"/><path d="m25.3 21.5c-6.9 0-14 0-20.9 0v10.5h23.3c0-3.4 0-7 0-10.5zm-9.3 1.2h1.2v1.2c-.6 0-1.7 0-2.3 0v-1.2zm5.8 7c-5 0-10.1 0-15.1 0 0-2.3 0-4.7 0-7h7v2.3h4.7c0-.6 0-1.7 0-2.3h7v7c-1.1 0-2.6 0-3.6 0z"/></g><path d="m24.1 11.1c-5.8 0-11.7 0-17.4 0v4.7h18.6c0-1.5 0-3.2 0-4.7z" fill="#6b4528"/></svg>