<?xml version="1.0" encoding="utf-8"?>
<!-- Generator: Adobe Illustrator 27.2.0, SVG Export Plug-In . SVG Version: 6.00 Build 0)  -->
<svg version="1.1" id="Layer_1" xmlns="http://www.w3.org/2000/svg" xmlns:xlink="http://www.w3.org/1999/xlink" x="0px" y="0px"
	 viewBox="0 0 32 32" style="enable-background:new 0 0 32 32;" xml:space="preserve">
<style type="text/css">
	.st0{fill:#FFFFFF;}
	.st1{fill:#893927;}
	.st2{fill:#56504E;}
	.st3{fill:#CDC0B8;}
	.st4{fill:#938C87;}
	.st5{fill:#6B4528;}
</style>
<g>
	<g id="Guides">
		<line class="st0" x1="0" y1="0" x2="32" y2="0"/>
		<line class="st0" x1="32" y1="32" x2="0" y2="32"/>
	</g>
	<g>
		<g>
			<path class="st1" d="M24.5,22.7h-0.4h-5.8c0,0.6,0,1.7,0,2.3c-1.3,0-3.3,0-4.7,0c0-0.6,0-1.7,0-2.3c-2.1,0-4.8,0-7,0
				c0,1.9,0,3.9,0,5.8c6,0,12.6,0,18.6,0c0-1.9,0-3.9,0-5.8H24.5z"/>
		</g>
		<g>
			<path class="st2" d="M24.1,16.9V18c-0.6,0-1.7,0-2.3,0v-1.2c-3.8,0-7.8,0-11.6,0V18c-0.6,0-1.7,0-2.3,0v-1.2H6.7c0,1,0,2.5,0,3.5
				c6.2,0,12.4,0,18.6,0c0-1,0-2.5,0-3.5H24.1z"/>
			<path class="st2" d="M16,22.7h-1.2v1.2c0.6,0,1.7,0,2.3,0v-1.2H16z"/>
		</g>
		<g>
			<path class="st3" d="M26.5,8.7c-7.3,0-14.7,0-22.1,0v1.2c7.7,0,15.5,0,23.3,0V8.7H26.5z"/>
			<path class="st3" d="M25.3,16.9c0,1,0,2.5,0,3.5c-6.2,0-12.4,0-18.6,0c0-1,0-2.5,0-3.5c-0.6,0-1.7,0-2.3,0c0,1.5,0,3.2,0,4.7
				c7.7,0,15.5,0,23.3,0c0-1.5,0-3.2,0-4.7C27,16.9,25.9,16.9,25.3,16.9z"/>
			<path class="st3" d="M24.1,16.9v-1.2c-0.6,0-1.7,0-2.3,0v1.2C22.4,16.9,23.6,16.9,24.1,16.9z"/>
			<path class="st3" d="M10.2,16.9v-1.2c-0.6,0-1.7,0-2.3,0v1.2C8.4,16.9,9.6,16.9,10.2,16.9z"/>
			<g>
				<path class="st3" d="M23,28.5c-5.4,0-10.9,0-16.3,0v1.2c6.2,0,12.4,0,18.6,0v-1.2C24.7,28.5,23.6,28.5,23,28.5z"/>
			</g>
		</g>
		<g>
			<path class="st4" d="M26.5,9.9c-7.3,0-14.7,0-22.1,0c0,2.3,0,4.7,0,7c1,0,2.5,0,3.5,0v-1.2H6.7c0-1.5,0-3.2,0-4.7
				c6.2,0,12.4,0,18.6,0c0,1.5,0,3.2,0,4.7h-1.2v1.2c1,0,2.5,0,3.5,0c0-2.3,0-4.7,0-7H26.5z"/>
			<path class="st4" d="M21.8,16.9V18c0.6,0,1.7,0,2.3,0v-1.2C23.6,16.9,22.4,16.9,21.8,16.9z"/>
			<path class="st4" d="M20.7,15.7c-3.4,0-7,0-10.5,0v1.2c3.8,0,7.8,0,11.6,0v-1.2H20.7z"/>
			<path class="st4" d="M7.9,16.9V18c0.6,0,1.7,0,2.3,0v-1.2C9.6,16.9,8.4,16.9,7.9,16.9z"/>
			<g>
				<path class="st4" d="M25.3,21.5c-6.9,0-14,0-20.9,0c0,3.4,0,7,0,10.5c7.7,0,15.5,0,23.3,0c0-3.4,0-7,0-10.5H25.3z M16,22.7h1.2
					v1.2c-0.6,0-1.7,0-2.3,0v-1.2H16z M21.8,29.7c-5,0-10.1,0-15.1,0c0-2.3,0-4.7,0-7c2.3,0,4.7,0,7,0c0,0.6,0,1.7,0,2.3
					c1.5,0,3.2,0,4.7,0c0-0.6,0-1.7,0-2.3c2.3,0,4.7,0,7,0c0,2.3,0,4.7,0,7C24.3,29.7,22.8,29.7,21.8,29.7z"/>
			</g>
		</g>
		<path class="st5" d="M24.1,11.1c-5.8,0-11.7,0-17.4,0c0,1.5,0,3.2,0,4.7c6.2,0,12.4,0,18.6,0c0-1.5,0-3.2,0-4.7H24.1z"/>
	</g>
</g>
</svg>
