<svg viewBox="0 0 32 32" xmlns="http://www.w3.org/2000/svg"><path d="m16 15.18-.8.8h.8.8z" fill="#9e6b3b"/><path d="m19.2 14.38h-.8l.8.8.8-.8z" fill="#6b4f1f"/><path d="m12 14.38.8.8.8-.8h-.8z" fill="#6b4f1f"/><g fill="#ede4bb"><path d="m20 14.38-.8.8h.8.8v-.8z"/><path d="m17.6 15.18h.8.8l-.8-.8z"/><path d="m12.8 15.18h.8.8l-.8-.8z"/><path d="m11.2 14.38v.8h.8.8l-.8-.8z"/></g><g fill="#c69463"><path d="m17.6 12.78h.8.8.8.8.8.8v-.8l-.8-.8-.8-.8h-.8-.8-.8-.8l-.8.8-.8.8-.8-.8-.8-.8h-.8-.8-.8-.8l-.8.8-.8.8v.8h.8.8.8.8.8.8.8l.8.8.8-.8z"/><path d="m15.2 19.18h.8.8l-.8-.8z"/><path d="m15.2 15.98.8.8.8-.8h-.8z"/><path d="m14.4 14.38h-.8l.8.8h-.8-.8-.8-.8v-.8h-.8l-.8-.8v.8.8.8.8l.8.8.8-.8.8-.8h.8.8.8.8l.8-.8.8.8h.8.8.8.8l.8.8.8.8.8-.8v-.8-.8-.8-.8l-.8.8h-.8v.8h-.8-.8-.8-.8l.8-.8h-.8-.8l-.8-.8-.8.8z"/></g><path d="m24 15.18v-3.2l-.8-.8v-3.2l-.8.8h-9.6l-.8-.8v.8h-.8l-.8.8h-1.6v.8h-.8v4.8l-.8-.8v3.2l.8.8v1.6l.8.8.8.8.8.8.8.8.8.8h8l.8-.8.8-.8.8-.8.8-.8.8-.8v-1.6l.8-.8v-3.2zm-12-4.8h2.4l.8.8.8.8.8-.8.8-.8h3.2l.8.8.8.8v.8h-5.6l-.8.8.8.8h4.8l.8-.8v3.2l-.8.8-.8-.8-.8-.8h-3.2l-.8.8-.8-.8h-3.2l-.8.8-.8.8-.8-.8v-3.2l.8.8h4.8l.8-.8-.8-.8h-5.6v-.8l.8-.8.8-.8zm4.8 8.8h-1.6l.8-.8z" fill="#a65225"/></svg>