<svg viewBox="0 0 32 32" xmlns="http://www.w3.org/2000/svg"><path d="m14.4 26.4h-.8v4h1.6v-3.2z" fill="#6b4f1f"/><path d="m12.8 30.4h-.8l.8.8.8-.8z" fill="#ede4bb"/><path d="m12.8 26.4h-.8v4h1.6v-4z" fill="#9e7a2c"/><path d="m14.4 30.4h-.8l-.8.8-.8-.8-.8.8v.8h4v-1.6z" fill="#89532a"/><path d="m10.4 27.2h.8v-.8z" fill="#9e6b3b"/><path d="m8 23.2h.8.8l-.8-.8z" fill="#9e6b3b"/><path d="m10.4 24.8v.8.8h.8v-.8-.8z" fill="#6b4f1f"/><path d="m7.2 22.4.8.8.8-.8h-.8z" fill="#6b4f1f"/><path d="m11.2 26.4v.8h-.8l.8-.8h-.8-.8l-.8.8-.8.8-.8.8.8.8h.8.8l.8-.8.8-.8.8-.8z" fill="#c69463"/><path d="m8.8 24.8h.8.8.8l-.8-.8-.8-.8h-.8-.8l-.8.8v.8h.8z" fill="#c69463"/><path d="m6.63 25.83h1.13v1.13h-1.13z" fill="#ede4bb" transform="matrix(.70710678 -.70710678 .70710678 .70710678 -16.56 12.82)"/><path d="m10.4 20h-.8l-.8.8-.8.8h-.8v.8h.8.8l.8.8.8.8.8.8v-.8-.8-.8-.8-.8-.8z" fill="#9e7a2c"/><path d="m8.8 24.8h-.8-.8-.8v.8.8l.8-.8.8.8-.8.8-.8-.8v.8.8l.8.8.8-.8.8-.8.8-.8h.8v-.8-.8h-.8z" fill="#9e7a2c"/><path d="m17.6 26.4h.8v4h-1.6v-3.2z" fill="#6b4f1f"/><path d="m19.2 30.4h.8l-.8.8-.8-.8z" fill="#ede4bb"/><path d="m19.2 26.4h.8v4h-1.6v-4z" fill="#9e7a2c"/><path d="m17.6 30.4h.8l.8.8.8-.8.8.8v.8h-4v-1.6z" fill="#89532a"/><path d="m15.43 26.63h1.13v1.13h-1.13z" fill="#ede4bb" transform="matrix(.70710678 -.70710678 .70710678 .70710678 -14.55 19.28)"/><path d="m19.2 26.4h-.8-.8-.8-.8l.8.8-.8.8h.8.8.8.8.8v-.8-.8z" fill="#89532a"/><path d="m16 26.4h-.8-.8-.8-.8-.8v.8.8h.8.8.8.8.8l-.8-.8z" fill="#89532a"/><path d="m20 23.2v-2.4l.8-.8-.8-.8h-8l-.8.8.8.8v3.2l-.8.8.8.8.8.8h6.4l.8-.8.8-.8-.8-.8zm-7.2-2.4v-.8h6.4v1.6l-.8.8h-1.6v1.6l-.8.8-.8-.8v-1.6h-1.6l-.8-.8z" fill="#9e7a2c"/><path d="m16 28h-.8-.8l.8.8h.8.8l.8-.8h-.8z" fill="#9e7a2c"/><g fill="#6b4f1f"><path d="m20 20.8v.8.8.8.8l.8.8v-.8-.8-.8-.8-.8-.8z"/><path d="m20 26.4v-.8l-.8.8z"/><path d="m19.2 20.8v-.8h-.8-.8-.8-.8-.8-.8-.8-.8v.8.8l.8.8h.8.8v.8.8l.8.8.8-.8v-.8-.8h.8.8l.8-.8z"/><path d="m12 26.4h.8l-.8-.8z"/><path d="m12 23.2v-.8-.8-.8l-.8-.8v.8.8.8.8.8.8l.8-.8z"/></g><path d="m20.8 27.2h.8l-.8-.8z" fill="#9e6b3b"/><path d="m23.2 22.4-.8.8h.8.8z" fill="#9e6b3b"/><path d="m20.8 25.6v.8h.8v-.8-.8h-.8z" fill="#6b4f1f"/><path d="m24 22.4h-.8l.8.8.8-.8z" fill="#6b4f1f"/><path d="m23.2 27.2-.8-.8h-.8-.8l.8.8h-.8v-.8l-.8.8.8.8.8.8.8.8h.8.8l.8-.8-.8-.8z" fill="#c69463"/><path d="m24 23.2h-.8-.8l-.8.8-.8.8h.8.8.8.8.8v-.8z" fill="#c69463"/><path d="m24.23 25.83h1.13v1.13h-1.13z" fill="#ede4bb" transform="matrix(.70710678 -.70710678 .70710678 .70710678 -11.4 25.27)"/><g fill="#9e7a2c"><path d="m22.4 23.2.8-.8h.8.8v-.8h-.8l-.8-.8-.8-.8h-.8-.8v.8.8.8.8.8.8l.8-.8z"/><path d="m24.8 24.8h-.8-.8-.8-.8v.8.8h.8l.8.8.8.8.8.8.8-.8v-.8-.8l-.8.8-.8-.8.8-.8.8.8v-.8-.8z"/></g></svg>