<svg enable-background="new 0 0 320 320" viewBox="0 0 320 320" xmlns="http://www.w3.org/2000/svg"><path d="m207.7 105.6c-13.7-5.9-28.1-.8-33.8 2.6-3 1.8-1.6 8.7.5 14.8h4.6l-3.7 2.6c1.6 4.2 3.1 7.5 3.1 7.5 6.9-6.4 14.1-10.8 26.9-8.6 12.7 2.2 15.5 9.5 13.8 14.6s-6.1 6.6-15.6 7.9c-9.5 1.4-25.8 2-37.4 2.2-11.6.1-18.2 5.5-17.9 18.9s13 18 19.8 19.2 20.7 2.3 26.7 3.6c5 1.1 5.6 4.4 3.5 6.6-1.6 1.7-6.6 3.8-19.2 3.8-12.5 0-20.5-1.1-24.8-2.2s-7.4-3.6-9.3-8.5c-.8-2-2.1-6.9-2.7-10.3-1.8-9.9-8.2-17-16.2-18.3-7.3-1.2-11.6-.4-19.2 3.2-6.7 3.1-10.9 4.2-10.9 4.2l10.9 19.4s2.9-2.6 5.7-5.2c3.3-3 7.7-4.4 12.2-3.9h.2c4.4.5 10.3 3.5 11.5 12.4.8 6.2-.4 11.3 3.9 16.9 4.1 5.4 10.6 7.9 34.3 7.9s29-6.3 31-18.3-4.6-20.8-16.7-22.2c-12-1.3-21.5-1.7-25.2-2s-4.9-2-5.2-2.7c-.7-1.5 1-3.6 3.3-4.2 5.3-1.4 27.2-.8 37.9-2.2 11.2-1.4 16.4-3.6 18.8-10.5l2.8-7.8c5.3-14.5 3.6-34-13.6-41.4z"/></svg>