<svg enable-background="new 0 0 320 320" viewBox="0 0 320 320" xmlns="http://www.w3.org/2000/svg"><path d="m256.7 97.8c-1.3 3.6-3.4 7-6.2 9.9-9 9-22.8 10.2-33.1 3.5l2.9-2.8 1.6 1.6 5.2-5.2v-.1l-11.7-11.7h-.1l-5.2 5.2 1.6 1.6-2.7 2.6c-6-10.1-4.6-23.4 4.1-32.2 2.9-2.9 6.3-5 9.9-6.2-20-7.3-43.3-2.9-59.3 13.1-15.7 15.7-20.2 38.3-13.6 58 1.2-2.5 2.9-4.8 4.9-6.9 8.7-8.7 21.9-10.1 32.1-4.1l-81.3 80.7-1.6-1.6-5.2 5.2v.1l1.7 1.7-34 33.8-1.6-1.6-5.2 5.2v.1l1.4 1.4v8.8h8.8l1.5 1.5h.1l5.2-5.2-1.6-1.6 34-33.9 1.5 1.5h.1l5.2-5.2-1.5-1.5 44.2-44.1 37.2-36.9c6.7 10.3 5.6 24.2-3.4 33.2-2.1 2.1-4.4 3.7-6.9 4.9 19.7 6.6 42.3 2.1 58-13.6 15.9-16 20.3-39.2 13-59.2z"/></svg>