<svg enable-background="new 0 0 320 320" viewBox="0 0 320 320" xmlns="http://www.w3.org/2000/svg"><path d="m185.6 90.6c-13.1 2.4-19.9 7.4-25 15.7-3.4 5.6-6.8 15-8.2 25.4l-1.1-.8-.9 1c-5.5 6.1-2.9 3.4-8.9 9.4s-.1.1-.1.1-.1.1-.1.1c-6 6-3.3 3.5-9.4 8.9l-1 .9.8 1.1c-10.4 1.4-19.8 4.7-25.4 8.2-8.3 5.1-13.3 11.9-15.7 25-3.7 20.2 2.6 45 2.6 45l10.5-10.5-1.5-4.7 113.2-113.2 4.7 1.5 10.5-10.5s-24.8-6.3-45-2.6zm-84.3 121s-3.7-13.3-.7-29.7c.9-4.6 3.6-11.5 10.1-16.5 5.4-4.2 14.7-6.7 25.2-7.7v.1l1 1.2 1.1-1c5.4-4.9 4.7-4.2 10-9.6 0 0 .1-.1.1-.1s.1-.1.1-.1c5.4-5.4 4.7-4.7 9.6-10l1-1.1-1.2-1s0 0-.1 0c1.1-10.5 3.6-19.8 7.7-25.2 5-6.4 11.9-9.2 16.5-10.1 16.3-3 29.7.7 29.7.7z"/></svg>