<svg enable-background="new 0 0 320 320" viewBox="0 0 320 320" xmlns="http://www.w3.org/2000/svg"><path d="m108.4 203.1s-2.5-1.2-5.5.3c-3.1 1.6-3.7 3.8-4.1 5l-4.7.6s1.2 2.8-6.7 10.7-16 10.5-24.7 19.2c-1.5 1.5-2.8 2.9-4 4.4l.4 2.9-2.9.4c-10.1 14.2-10.1 27.4-10.1 27.4s21-2.6 34.3-15.9c7.1-7.1 13.1-18.6 19.7-25.2s10.8-6.5 10.8-6.5l.6-4.4c4-1 7.1-6 5-10.6l94.7-94.7c4.6 2.1 9.6-1 10.6-5l4.4-.6s-.1-4.2 6.5-10.8 18.1-12.5 25.2-19.7c13.3-13.3 15.9-34.3 15.9-34.3s-13.2 0-27.4 10.1l-.4 2.9-2.9-.4c-1.5 1.2-2.9 2.5-4.4 4-8.7 8.7-11.2 16.7-19.2 24.7-7.9 7.9-10.7 6.7-10.7 6.7l-.6 4.7c-1.2.3-3.4 1-5 4.1-1.5 3-.3 5.5-.3 5.5z"/></svg>