<svg enable-background="new 0 0 320 320" viewBox="0 0 320 320" xmlns="http://www.w3.org/2000/svg"><path d="m221.6 175.8-8-4.8v-.4l6.6-3.5-1.7-3.2-5.4 2.9-.8-.8 1.8-45h.1 1.2l.2-.7 1.3.7 1.6-3.3-1.5-.8 2.8-1.2-1-2.6-2.8 1.1-.6-1.2-1-.1.2-5.9h-3.6l-.2 5.7h-.6l-.2.5-48-25.2.1-.4.2-1.2 3.7-2.2-1.9-3.1-3.9 2.4v-5.4l-2.8-.1-.1 5.8-2.2.7-1.9-1-1.6 3.3 1.6.9-36 21.7.3-1.4-3.5-.9-.6 2.9-.7.2-2-1.2-2.4 3 2.4 1.4-4.6 2.7 1.9 3.1 3.9-2.3-8.7 39.8-2.3.6-7.1-4.9-2.2 2.9 7.7 5.3-.2.8-3 1.2 1 3.7 3.4-1.4.8.3-1.4 6.5 3.5.9 1.3-6.2 1.3.5.5-1.2 7.2 5-.2 22.6 5.2 4.6.2-23.6 33.9 23.5v.6l-1.8.9 1.7 3.2 2.5-1.3.8.7.4.1v10.1c-1.5.5-2.6 2-2.6 3.7 0 1.3.7 2.5 1.7 3.2-11.7 10.2-12.6 30-2.1 41.5 4 4.4 10.1 7.7 16.2 6.6-.2-3-.5-5.3-.4-8.1.1-6 .4-11.1-.6-16.9-1.2-7.7-4.4-16-9.1-22.8 1.3-.6 2.2-2 2.2-3.5 0-1.6-1-3-2.4-3.6v-10l7.7 5.3 2.2-2.9-7.5-5.2.9-1-.6-.9 46-24.2.1.2-.1 3.5h3.6l.1-3.7 8 4.8zm-102.6-63.2 36.2-21.8 1.8.8h.3l-.1 15.2-1.1-.5-1 2.1 1.1.5-22.6 13.6.6-2.4-2.2-.5-.4 1.8-12.7-7.6zm78.4 44.5-3.5 1.8-.8-.8-.1-30.4h.4l.1-.4.8.4.8-1.6 4.2-1.7-.2 21.6 4.8-3.7.1-19.8 5.5-2.3.9.4-1.8 45-1.5.4-.3 1.1-10.9-6.6 2.4-1.3zm10.6-39.5-14.2 5.7-.3-.7h-.5v-3.8h-2.3v3.6h-.5l-.2.4-28.3-14v-.1l.1-.8 2.4-1.4-1.2-2-2.8 1.7v-15.1l48.3 25.3zm-92.5.2 1.3-.9 12.7 7.5-.2.6-2.9 1.8 1.2 2 2.5-1.5-5.5 22.4-.4-.2-1.3.2-.3.6-4.3-3.2-1.4 1.8 4.7 3.5-14.1 5.7-.7-.3zm-7.2 44.5.3-.7 5.5-2.3-.1 6.9zm11-5 3.6-1.5-.9 3.6 2.2.5.8-3.4.7-.8 29.5 22-.4.4.2.8-2.3 1.2 1.1 2 2.5-1.3-.1 13-1.1.9-35.9-24.9zm40.7 36.8v-13l4.9 3.7 1.4-1.8-5-3.7.3-.4-.3-.4 29.6-15.3v2.4h2.3v-2.6l.8-.2 12.7 7.5-46.3 24.4z"/></svg>