<svg enable-background="new 0 0 320 320" viewBox="0 0 320 320" xmlns="http://www.w3.org/2000/svg"><path d="m231.3 210.3 7.6-3.5-7.4-2.6c-.4-2.7-1.4-5.3-2.9-7.4l3.1-7.5-7.1 3.4c-2.2-1.6-4.8-2.8-7.6-3.3 0-.8-.4-1.5-1-1.9l-.1-.1.8-5.8-.8-4.8.6-4.5-.4-4.4 1-5.9-1.2-7.4.8-6.1-1.1-4.8 1.3-5.1-1-6 1.2-5.8-1-5.3.8-4.2-1.3-7.3.7-6-.8-6.7.5-5.3-5-3.3-3.9 2-2.5-2.5-83.4 83.4-1.8-1.8-4.1 4.1v.1l1.7 1.7-30.1 30.1-1.8-1.8-4.1 4.1v.1 12.1h12.1.1l4.1-4.1-1.6-1.6 30.1-30.1 1.5 1.5h.1l4.1-4.1-1.6-1.6 81.9-81.9-1 7.8 1.7 5.1-1.3 5.1 1.8 7.6-1.7 7.3 1.7 7.9-1.8 8.7 1 6.2-1.1 5.8 1.2 6.2-1.7 6.7 1.7 5.8-1.1 4.9.3 3.5-.1.1c-.6.4-1 1.2-1 1.9v.1c-2.6.5-5 1.6-7.1 3.2l-7.1-3.4 3.1 7.5c-1.5 2.2-2.5 4.7-2.9 7.4l-7.4 2.6 7.6 3.5c.5 2.5 1.5 4.8 2.9 6.7l-3.2 7.4 7.9-2.9c1.9 1.3 4.1 2.1 6.4 2.6l3.3 7.6 3.3-7.6c2.3-.4 4.5-1.3 6.4-2.6l7.9 2.9-3.2-7.4c1.5-1.5 2.5-3.8 3-6.3z"/></svg>