<svg enable-background="new 0 0 320 320" viewBox="0 0 320 320" xmlns="http://www.w3.org/2000/svg"><path d="m151.4 195.7c-2.8.1-6.2-1.4-8.7 0-1 1-6.9 6.2-7.2 7.4 2.8 8.7-.1 19.2-10 21.6-7.8 2-15.8-2.6-18-10.5-.2-.9-.6-1.3-1.5-1.5-8.3-2.3-13-11.1-10.1-19.2s12.1-12.1 19.9-8.7c1.6 1.3 8.4-6.9 9.2-7.9-2.3-33.6 20-102.3 64.4-76.2 19.6 11 37.8 31.6 35.5 55.4-7.6 26.3-48.9 38.2-73.5 39.6zm17-93.2c-38.5 4.8 6.4 67.2 35.5 63.7 13.9.2 16.2-15.5 11.6-25.8-8-19.4-25.4-36.3-47.1-37.9zm-40.4 81.1c-7.6 8.2-9 8.8-11.1 9.1-3.7.6-3.3-5.9-13.5-1.7-6.8 4.5-3.4 15.6 4.9 15.5 3.9.1 5.3 1.5 5.3 5.3.8 15.3 23.9 7.3 15.1-5.3-1.1-1.3-1.4-2.5-1.2-3.7.8-4.7 6.9-7.2 9.2-10.5-3.5-2.8-6-5.3-8.7-8.7z"/><path d="m190.5 144.4c-5.8-.4-9-6.6-13-10.1-2.7-3-2.5-7.1.3-10 7.1-7.1 13.8 3.3 18.6 8.1 4.3 4.4 0 12.2-5.9 12z"/></svg>