<svg enable-background="new 0 0 320 320" viewBox="0 0 320 320" xmlns="http://www.w3.org/2000/svg"><path d="m229.1 121.4c3.1-2.6 5.8-4.8 7.8-6.5 2.7-2.2 3.3-6.1 1.5-9.1 0 0 0 0 0-.1-.4-.6-3.3.6-3.3.6l1.8-3.3c-5.2-7.1-11.2-13.6-18.9-18.1 0 0 0 0-.1 0-1.8-.8-3.9-.3-5.1 1.3l-2.5 2.7c-1.1-5.5-1.9-9.1-1.9-9.1l-1.6-2.5-.3 4.5 1.8 9.3-8.3 9.4c-6.2-4.4-10.6-7.5-10.6-7.5l-2.5-.7 2.5 3.1 9.2 6.7-8.7 9.9-3.6-6.4s-2.1-.5-2 1.4c.1.5 1.7 3.2 3.9 7l-53.4 63.2-1.1-.5-11.6 13.3c-9.3 10.7-19.1 20.9-29.2 30.8-3.7 3.6-7 6.8-8.3 8l-1.6 1.4 1 1s-1.3 1.3-2.5 2.8c-1.3 1.6-1.2 3.4 0 4.5l3.3 3.2c1.1 1.1 2.8 1.2 4.1.3 1-.8 1.5-1.3 3.1-2.6l.9 1c1.5-1.7 5.7-5.9 10.2-10.5 9.8-9.9 20-19.3 30.5-28.4l12.9-11-.4-1c11.4-9.7 42.1-33.7 58.5-47.5 2.4 4.1 4.1 6.8 4.1 6.8l2.1 1.6-1.1-3.9-3.4-5.9c3.4-2.9 6.7-5.7 9.8-8.3l2.5 13.3s2 1.3 2.7-.7c0-.7-1.1-6.7-2.7-14.8 3.1-2.6 5.9-5 8.5-7.2l8.4 6.1s2.1-.4 1.3-2c-.3-.2-3.3-2.5-7.7-5.6z" fill="#231f20"/></svg>