<svg enable-background="new 0 0 320 320" viewBox="0 0 320 320" xmlns="http://www.w3.org/2000/svg"><path d="m195 107.1-.4 3-3-.4c-1.5 1.3-3.1 2.6-4.6 4.1-9.1 9.1-22.2 27.9-37 42.7s-16.7 12.6-16.7 12.6l-5.4-2.8-1.5 1.5c-4.5 4.5-5.1 11.7-1.3 16.8l.6.8s-4.8 4.9-9.5 9.9c-4.4 4.8-8.7 9.8-10.1 11.5-.5-.1-1-.1-1.5-.1-4.6 0-8.4 3.7-8.4 8.4s3.7 8.4 8.4 8.4c4.6 0 8.4-3.7 8.4-8.4 0-.6-.1-1.1-.2-1.6 1.5-1.2 7.1-5.9 11.7-10.2 4.9-4.6 9.8-9.3 9.8-9.3 5.1 3.7 12.2 3.1 16.7-1.4l1.6-1.6-1.7-4.3s-1.9-2.2 12.8-16.9 35.9-30.1 43.3-37.5c13.9-13.9 16.6-35.8 16.6-35.8s-13.8 0-28.6 10.6z"/></svg>