<svg enable-background="new 0 0 50 50" viewBox="0 0 50 50" xmlns="http://www.w3.org/2000/svg"><path d="m0 0h50" fill="none"/><path d="m50 50h-50" fill="none"/><path d="m37.3 30.6c0-4.8-3.1-10.3-8.1-15.7l1.1-1.3-3-.4 3.3-3.8h-12.1l3 4.2c-5.8 5.9-9.9 11.7-9.9 17 0 6.6 4 12 12.8 12h.1.1c8.8 0 12.7-5.3 12.7-12zm-12.3 3.1v1.8h-1.1v-1.8c-1 0-2.1-.3-2.7-.8l.4-1.2c.6.4 1.6.8 2.5.8 1.3 0 2.1-.7 2.1-1.7s-.7-1.6-2-2.1c-1.8-.7-2.9-1.5-2.9-3.1 0-1.5 1-2.6 2.7-2.8v-1.8h1.1v1.7c1.1 0 1.8.3 2.3.6l-.4 1.2c-.4-.2-1.1-.6-2.2-.6-1.4 0-1.9.8-1.9 1.5 0 .9.7 1.4 2.2 2 1.8.7 2.7 1.7 2.7 3.2 0 1.4-1 2.8-2.8 3.1z" fill="#231f20"/></svg>