<svg enable-background="new 0 0 320 320" viewBox="0 0 320 320" xmlns="http://www.w3.org/2000/svg"><path d="m200.1 105.3c-5-5.2-10.7-8-10.8-4.9-.1 4.1-38.5 42-38.5 42s-3.3-1.3-7.4 1.7c-2.3 1.7-6.5 4.8-10.9 9.9-.5-.2-1-.3-1.5-.3-2.4-.3-4.7.6-6.3 2.2-3.3-1.2-7-1.2-10.4.1l1.2 3.1c2.4-.9 5-1 7.4-.3-.2.5-.3 1-.3 1.5-.3 2.3.5 4.5 1.9 6-5.6 11.3-10.7 28.6-5.4 45.4 2.2 6.9 9.5 10.7 16.3 8.5l9.7-2.8c4.6-1.5 6.7-6.8 4.3-11s-5.5-10.7-6.1-16.8c1.4.5 3 .9 4.8.7 6-.5 12.6-6.2 13.2-14.5.2-3.4-1.8-6.5-3.1-8.3l29.3-30.4c2.2-2.3 2.8-5.6 1.7-8.6s3.6-3.6 7.6-6.9c2.9-2.4 5.7-4.6 7.6-4.6 2.9.2.9-6.3-4.3-11.7z"/></svg>