<svg enable-background="new 0 0 320 320" viewBox="0 0 320 320" xmlns="http://www.w3.org/2000/svg"><path d="m203.3 168.1c-.5-5.8-2.1-14.2-3.6-20.3-1.3-5-3.3-9.8-6.1-14.2l-1-1.6c-1.5-2.4-3.1-4.4-4.8-6.3l3.2-3.2 4-.4 3.7-10.5-10.5 3.7-.4 4-3.2 3.2c-1.6-1.4-3.2-2.6-5-3.8-5-3.2-10.9-5.3-15.7-6.7-6.6-1.9-13.9-3.1-22.1-3.7-17.1-1.4-26.4-1.5-26.4-1.5l2.6 8.7h4.2l28.2 28.2-27.4 27.6 4 4-6.1 30.4 5.6 5.4c1.3 1.3 3.1 2 5 2s3.7-.8 5.1-2.1l15.7-15.7v-20.5l14.5-14.5 27.5 27.5v4.2l10.2 2.6c0-.1.4-9.3-1.2-26.5zm-78.6-53.1s6.3.3 17.5 1.1c2.9.2 9.8 1.1 14.3 2.5 5.6 1.7 9.4 3.3 13.3 5.9l-17.8 17.8zm70.2 70.2-26.5-26.5 17.5-17.5c3.1 4.9 5.4 10.4 6.7 16.2.9 3.9 1.4 8.8 1.6 11.3.8 11.2.7 16.5.7 16.5z"/></svg>