<svg enable-background="new 0 0 320 320" viewBox="0 0 320 320" xmlns="http://www.w3.org/2000/svg"><path d="m219.4 134.3c-1.7-6.8-4.6-13.3-8.3-19.3l-1.4-2.2c-1.9-3-4.1-5.9-6.4-8.5l7.4-7.4 4.4 12.4 13.8-35.6-35.6 13.8 12.4 4.4-7.4 7.4c-2.6-2.4-5.3-4.5-8.3-6.5-5.7-3.8-12-6.6-18.6-8.5-9-2.6-19.7-4.7-30.8-5.6-23.3-1.9-42-6.1-42-6.1l4.6 22.8h5.7l38.3 38.3-50.4 50.3 6.1 6.1-12.1 45.5 10.1 9.9c1.3 1.3 3.1 2 5 2s3.8-.8 5.1-2.1l18.8-18.8v-20.8l44.7-44.7 32.5 32.5v5.7l22.1 4.8s-2.7-18.8-4.9-42.2c-.6-8-2.7-19.3-4.8-27.6zm-70.1-2.8-37-37s8.5-.5 23.8.6c3.9.3 10.6 1.8 16.8 3.3 7.3 1.8 14.2 4.9 20.5 8.9zm58.7 58.6-31.2-31.2 6.8-6.8-.8-10.7 12.3-12.3c4.6 7 8 14.8 9.8 23 1.2 5.3 1.9 12 2.2 15.4 1 15.3.9 22.6.9 22.6z"/></svg>