<svg enable-background="new 0 0 320 320" viewBox="0 0 320 320" xmlns="http://www.w3.org/2000/svg"><path d="m239.1 115.7c-4.5-6.3-11.7-16.6-18.8-25.5l-4.2-.5.5-3.9c-9.4-10.8-12.4-15.2-17.7-20.7-10.8 8.7-25.2 16.3-38.3 16.1-15.2-.2-29.6-7.3-40.7-14.3l-29.2 36 1.2 5.7-5.8 1.2c-1.6 2.5-3.9 4.5-5.3 7 12.1 9.5 24.6 26.4 24.6 43.5 0 18.7-1.1 46-1.1 46l23.5 20.4 6.2-2.7-3.5 5.1 30.1 26 32.7-30.2.9-10.8 3 7.2 16.9-15.6s1.9-28.2 1.9-45.4c.1-15.8 12.7-35.1 23.1-44.6zm-78.7 10.8h.3c.3 0 .6.1.8.2.1 0 .2 0 .2.1.3.1.6.2.9.3.1 0 .1 0 .2.1.3.1.7.3 1 .4 2.1 1.1 3.8 3 4.6 5.2.1.3.2.5.3.8v.1c.1.2.1.5.2.7v.3c0 .2.1.4.1.6v.9c0 .5-.1 1-.1 1.5v.2c-.1.5-.2.9-.4 1.4 0 0 0 .1-.1.1-.4 1-.8 1.9-1.5 2.7-.9 1.1-2 2-3.2 2.7-.3.2-.6.3-1 .4-.1 0-.1 0-.2.1-.3.1-.6.2-.9.3-.1 0-.2 0-.2.1-.3.1-.5.1-.8.2-.1 0-.2 0-.3 0-.4 0-.7.1-1.1.1s-.7 0-1.1-.1c-.1 0-.2 0-.3 0-.3 0-.6-.1-.8-.2-.1 0-.2 0-.2-.1-.3-.1-.6-.2-.9-.3-.1 0-.1 0-.2-.1-.3-.1-.7-.3-1-.4-1.3-.6-2.4-1.6-3.2-2.7-.6-.8-1.1-1.7-1.5-2.7 0 0 0-.1-.1-.1-.2-.5-.3-.9-.4-1.4 0-.1 0-.2 0-.2-.1-.5-.1-1-.1-1.5 0-.3 0-.6 0-.9 0-.2.1-.4.1-.6 0-.1 0-.2 0-.3 0-.3.1-.5.2-.8 0 0 0 0 0-.1.1-.3.2-.5.3-.8.8-2.3 2.5-4.1 4.6-5.2.3-.2.6-.3 1-.4.1 0 .1 0 .2-.1.3-.1.6-.2.9-.3.1 0 .2 0 .2-.1.3-.1.5-.1.8-.2h.3c.4 0 .7-.1 1.1-.1.6.2.9.2 1.3.2zm-46.8-26c8.6-9.7 12.9-15.5 12.9-15.5s14.5 8.3 28.4 9.8v23.5c-6.9 1.7-12.3 7.4-13.6 14.4h-26.3c-5.3-11.8-13.3-18.7-13.3-18.7s3.2-3.8 11.9-13.5zm7.5 101.9s-.6-20-.6-45.4c0-5.3-.8-10.3-2.1-14.9h23.5c2 5.9 6.9 10.4 13 11.9l1 78.8zm41.6 30.4 1-78.8c6.1-1.5 10.9-6 13-11.9h23.5c-1.3 4.6-2.1 9.6-2.1 14.9 0 25.4-.6 45.4-.6 45.4zm40.8-100h-26.2c-1.3-7.1-6.7-12.7-13.6-14.4v-23.4c16.6-1.4 31.1-10.2 31.1-10.2s4.1 3.6 12.1 13.8c7.2 9.2 10.3 12.9 10.3 12.9s-8.3 9.4-13.7 21.3z"/></svg>