<svg enable-background="new 0 0 320 320" viewBox="0 0 320 320" xmlns="http://www.w3.org/2000/svg"><path d="m203.9 158.1c-.2-17.5-8.9-46.8-43.5-47.2h-.7c-34.6.4-43.3 29.7-43.5 47.2v.1 26l35.3 25c0-3.8 1.4-16.5-1.6-20.6-9.7-13.3-17.9-20.3-17-35.8v-.1c1.1-10.7 14.4-11.8 18.1-4.4 2.7 5.5 1.9 11.5 1.9 11.5 0 3.6-1.8 7.1-4.6 10l11.8 12.1 11.7-12.1c-2.7-2.9-4.7-6.3-4.9-10 0 0-.5-5.2 2.2-10.7 3-5.9 9.1-6 13.4-3.4 1.3.8 7.3 7.4 1.8 21.2-3.3 8.2-10.1 14.6-14.8 21-3 4.1-1.1 17.4-1.1 21.2l35.3-25v-26z"/></svg>