<svg enable-background="new 0 0 320 320" viewBox="0 0 320 320" xmlns="http://www.w3.org/2000/svg"><path d="m197.8 164.4-4.6-4.5-62.1 61.5-.8-.9-2.1 2.1v6.3l.2.2h6.2.1l2.1-2.1-.9-.8z"/><path d="m221.5 132.8-1.4.5c-2.6 1.1-5.4 2.6-7.5 4.4l-1.1 1c-4.5 4.7-5.1 7.5-6.3 8.7-.1.1-1-.6-1-.6l-5.3 6.5-4.3 4.9 4.7 4.7 4.9-4.3 6.5-5.3s-.7-.9-.6-1c.8-.8 2.2-1.3 4.4-2.7l1.3-.8c1.2-.8 2.1-1.7 3.6-3.2 1.4-1.4 2.4-3 3.4-4.8l.6-1.1c2-4.2 3.1-8.5 3.1-8.5s-1.9.4-5 1.6z"/><path d="m168.2 156.2-4.7-4.6-61.8 61.4-.9-.9-2.1 2v.1 6.2l.3.3h6.2l2.1-2.1-.9-.9z"/><path d="m192.1 124.4-1.4.5c-2.8 1.2-5.9 2.8-8 4.9-1.4 1.4-2.4 2.6-3.2 3.6l.5 1.1-1.3.1c-1.5 2.2-2 3.6-2.8 4.4-.1.1-1-.6-1-.6l-5.3 6.5-4.4 5.1 4.7 4.7 5.1-4.4 6.5-5.3s-.7-.9-.6-1c.8-.8 2.2-1.3 4.4-2.7l1.3-.8c1.2-.8 2.1-1.7 3.6-3.2 4.6-4.6 7.1-14.4 7.1-14.4s-2.2.3-5.2 1.5z"/><path d="m162.8 124.4-4.6-4.5-61.8 61.3-.8-.9-2.1 2.1v6.2l.2.3h6.2.1l2.1-2.1-.9-.9z"/><path d="m186.8 92.6-.3.8-.8-.5-.4.2c-2.8 1.2-5.9 2.8-8 4.9-5 5-5.5 7.9-6.8 9.2-.1.1-1-.6-1-.6l-5.3 6.5-4.5 5.1 4.7 4.7 5.1-4.5 6.5-5.3s-.7-.9-.6-1c.8-.8 2.2-1.3 4.4-2.7l1.3-.8c1.2-.8 2.1-1.7 3.6-3.2 4.6-4.6 7.1-14.4 7.1-14.4s-1.9.4-5 1.6z"/></svg>