<svg enable-background="new 0 0 320 320" viewBox="0 0 320 320" xmlns="http://www.w3.org/2000/svg"><path d="m152.5 151.8 19.5-19.5 3.9-.5c1-.1 2-.4 2.9-.9 1.8-1 3.1-2.7 3.6-4.7.7-2.7 0-5.6-2-7.5-2-2-4.8-2.7-7.5-2-1.8.5-3.3 1.6-4.4 3-.7 1.1-1.1 2.3-1.3 3.6l-.4 3.8-19.5 19.5h-13.4l-22.3 40.8 40.9-22.3zm21.4-31.7c1.5-.4 3 0 4.1 1.1s1.5 2.6 1.1 4.1c-.4 1.4-1.5 2.6-3 2.9-1.5.4-3 0-4.1-1.1s-1.5-2.6-1.1-4.1c.4-1.4 1.5-2.5 3-2.9z"/><path d="m167.5 168.2-19.5 19.5-3.9.5c-1 .1-2 .4-2.9.9-1.8 1-3.1 2.7-3.6 4.7-.7 2.7 0 5.6 2 7.5 2 2 4.8 2.7 7.5 2 1.8-.5 3.3-1.6 4.4-3 .7-1.1 1.1-2.3 1.3-3.6l.4-3.8 19.5-19.5h13.4l22.3-40.8-40.9 22.3zm-21.4 31.7c-1.5.4-3 0-4.1-1.1s-1.5-2.6-1.1-4.1c.4-1.4 1.5-2.6 3-2.9 1.5-.4 3 0 4.1 1.1s1.5 2.6 1.1 4.1c-.4 1.4-1.5 2.5-3 2.9z"/></svg>