<svg enable-background="new 0 0 320 320" viewBox="0 0 320 320" xmlns="http://www.w3.org/2000/svg"><path d="m208.1 147.7c-3.6-.5-5.1 1.2-9.8 3.8-5.2 2.8-9.6 4.7-9.6 4.7s12.5-9.5 16.7-14.8c1.8-2.3 5.2-7.5.9-11.3s-10.9 3.2-10.9 3.2c-3.8 3.3-16 12.8-16 12.8s11.2-12.8 14.7-18.9c2.3-4 2.4-6.8 1.8-8.7-.8-2.2-3.6-3.6-6-3.1-2.3.5-4 1.8-6.5 4.9-1.2 1.5-3.5 5.3-7.4 9.6-3.8 4.2-8.1 8-8.1 8s5.1-7.6 7.6-12.5 4.6-9 3.8-12.1-3.6-4.6-6.7-4-6.1 4.3-7.9 7.1c0 0-4.5 7.8-8 13.3-2.9 4.6-7.8 10-7.8 10s-.1-3.2-.5-6.4-2-8.6-7.5-8.6c-3.9 0-5.4 2.6-6.4 5.3-1.5 4-1.4 12.7-1.8 19.7s-2.5 8.1-5.7 10c-2.6 1.5-18.7 3.4-18.7 3.4s-4.5 17.4 7.6 32.5c.4.5.9 1 1.3 1.5l15.6-2.2-3.8 11.3c8.6 4.4 16.2 4.4 16.2 4.4l12.9-17s21.5-13.7 27.3-17.5 18.4-12.4 21.9-15.3 4.3-3.9 5-6.2-.2-6.3-4.2-6.9z"/></svg>