<svg enable-background="new 0 0 320 320" viewBox="0 0 320 320" xmlns="http://www.w3.org/2000/svg"><path d="m208.1 107.8 9.8-21.4-21.4 9.8 3.7 3.7-3.8 3.8c-1.3-1.1-2.6-2.1-4-3-4-2.6-8.3-4.6-12.8-5.9-6.2-1.8-13.6-3.3-21.3-3.9-16.1-1.3-24.8-1.5-24.8-1.5l-.3 12.3h4l25.9 25.9-58.1 58.1 4.5 4.5-7.2 35.9 5.7 5.4c1.4 1.3 3.2 2 5 2 1.9 0 3.8-.8 5.1-2.1l18.3-18.2v-16.1l37.5-37.5-.8-9.9 6-6 25.9 25.9v4l12.3-.3s.4-8.7-1.1-24.8c-.5-5.5-2-13.3-3.4-19.1-1.2-4.7-3.1-9.2-5.8-13.3l-1-1.5c-1.5-2.4-3.3-4.7-5.2-6.8l3.7-3.7zm-68.7-6.7s5.9-.3 16.4.4c2.7.2 7.3 1.2 11.6 2.3 4.8 1.2 9.3 3.2 13.5 5.8l-16.5 16.5zm66.1 66.2-25-25 16.5-16.5c3 4.7 5.1 9.8 6.4 15.3.8 3.7 1.3 8.3 1.5 10.6.7 10.5.6 15.6.6 15.6z"/></svg>