<svg enable-background="new 0 0 320 320" viewBox="0 0 320 320" xmlns="http://www.w3.org/2000/svg"><path d="m283.6 78.9s1.7-1 3.4-1.9c0-.4 0-.9 0-1.3 0-7.1-1.5-13.8-4.1-20-6 6.2-14.4 10-23.7 10-3.6 0-6.8-.9-9.6-2.4l4.2-4.2-8.3-8.2-4.9 4.8c-3.2-3.7-3.2-4.3-5.3-6.9-5.5 5.3-18.9 18.7-24 24 3.3 2.2 3.9 1.9 7.3 4.7l-180.3 179.6-1.6-1.6-3.7 3.7v.1c.4 6.2 5.3 11.2 11.5 11.6h.1.1l3.7-3.7-1.6-1.6 179.2-178.7c1.3 2.8 2.1 6.1 2.1 10 0 9.9-4.4 18.8-11.3 24.9 6.1 2.7 12.9 4.2 20 4.2 25.9 0 47.2-19.6 49.9-44.7z"/></svg>