<svg enable-background="new 0 0 320 320" viewBox="0 0 320 320" xmlns="http://www.w3.org/2000/svg"><path d="m227.6 75.1c-19.1 3-42 8.2-65.4 21.8 0 0 0 0 0-.1l-.8-1.2-1.2.7c-11.4 6.8-22.2 15.3-32.1 25.1-9.6 9.6-18 20.4-24.9 32.1l-.8 1.4 1.4.6c-14.2 24.5-19.7 48.9-22.5 66.3-4 25.4-6.4 41.2-6.4 41.2l12.4-12.3v-6.3l164-164h6.3l12.3-12.4c0 .1-16.9 3.1-42.3 7.1zm-140 164.4s.5-14.5 4.7-30.8c2.6-10.2 8.1-29.1 19.5-48.9l1.3.7.7-1.3c6.5-11.1 14.1-21 22.5-29.4 8.6-8.6 18.8-16.4 30.2-23l1.3-.8-.8-1.3c19.5-11.1 38.2-16.6 48.2-19.1 16.3-4.2 30.8-4.7 30.8-4.7z"/></svg>