<svg enable-background="new 0 0 320 320" viewBox="0 0 320 320" xmlns="http://www.w3.org/2000/svg"><path d="m198.7 136.6-38.7-25.2-38.7 25.2s.2 20.4 11.5 40.5c12.7 22.7 27.2 29.7 27.2 29.7s14.5-7 27.2-29.7c11.3-20.1 11.5-40.5 11.5-40.5z"/><path d="m227.5 120.8-67.5-44-13.7 8.9-2.8 7.9-2.1-4.7-49 31.9s.3 30.2 15.7 62.5l4.2 1-1.5 4.4c.5.9 1 1.9 1.5 2.8 22.2 39.6 47.5 51.8 47.5 51.8s25.3-12.2 47.5-51.8c10.1-18.1 15.1-36.2 17.6-49.6l-2-7.3 3.3-.5c1.2-8.3 1.3-13.3 1.3-13.3zm-31.3 63.2c-16.9 30.2-36.2 39.4-36.2 39.4s-19.3-9.3-36.2-39.4c-15-26.7-15.2-53.8-15.2-53.8l51.4-33.6 51.4 33.5s-.2 27.1-15.2 53.9z"/></svg>