<svg enable-background="new 0 0 320 320" viewBox="0 0 320 320" xmlns="http://www.w3.org/2000/svg"><path d="m240.5 67.6-7-7-2.3 2.2-1.6-1.5-3 3.1 1.5 1.5-23.3 23.8-1-1-3.1 3.3.9 1-44.6 45.7-1.1-1.1-4.2 4.4 1 1.1-21.1 21.6-4.3-3.5-1.8 2.2 2.9 4.5-5.8 5.7c-3.7-1.9-6.3-3.9-7.8-4.9-1.2.9-3.8 5.5-2.7 8.7.5 1.4 1.2 3.1 1.8 4.8-2.8 2.8-3.9 7-2.7 10.8l1.1 3.5-30.6 36.1c-3.4 4-2.8 9.9 1.2 13.2l16.4 13.6 27.6-57.9s1.9.6 4.5-.4c3-1.1 6.8-8.1 5.6-12.4-.9-3-1.5-4.1-1.5-4.1l27.6-30.7.7.7 4.3-4.8-.7-.7 42.7-47.4.8.8 3.2-3.6-.8-.8z"/></svg>