<svg enable-background="new 0 0 320 320" viewBox="0 0 320 320" xmlns="http://www.w3.org/2000/svg"><path d="m199.6 127.4c4.8.5 10.2-3.4 10.1-8.6-.1-4.8-4.1-8.8-8.9-8.9-5.2-.1-9 5.3-8.6 10.1 0 .3 0 .6.1.9l-13.4 11.8c-2.6 2.6-6.2 4-9.9 3.8-4.4-.2-8.5-2.1-12.1-3.5-3.9-1.5-8.9.7-11.4 8.1 5-.5 11.1 4.3 7.9 10.2-3 5.4-9 9-12.4 17.2-2.4 5.9-4 7.9-8.1 10.8-5.3 3.7-8.8 4.5-14.6 11.1-8.2 9.4-7.9 19.7-7.9 19.7s5.1-6.8 14.2-11.4c7.8-4 10.8-3.2 18.1-7 6.4-3.3 9.2-6.6 13.2-12.4 2.4-3.5 6.9-7.6 10.7-10.1 3.8-2.6 7.3-2.7 10.3-.8 3.1 1.9 3.4 5.8 3.4 5.8s12.2-2.9 6.9-12.7c-1.9-3.4-3.3-6-3.6-9.3-.4-4.4 1.1-8.8 4.2-12l11.1-12.7c.1-.1.4-.1.7-.1z"/></svg>