<svg enable-background="new 0 0 320 320" viewBox="0 0 320 320" xmlns="http://www.w3.org/2000/svg"><path d="m111.3 198.3 10.9 10.2 14.9-14.9-10.6-10.5z"/><path d="m182.2 174.8-12.8-13.5 39.2-39.2-10.5-10.5-39.1 39-11.2-10.9c-1.6-1.6-3.6-2.6-5.8-3l-1.9-.2-9.9-9.9-2.3-.7.7 2.4 9.8 9.8.3 2.3c.4 2.1 1.4 4.1 2.9 5.6l10.8 11.1-24 24 10.5 10.5 24-24 13.7 12.9 1-1.1 1.8 18.7 4.4-1.5c1.4-.5 2.8-1.1 4.1-1.9l-1.5-4 2.7 3.3c.7-.4 1.3-.9 1.9-1.4l-1.5-2 2.2 1.3c.3-.3.7-.6 1-.9 2.2-2.2 3.9-4.8 5.1-7.6l-2.4-1.2 2.8.2c0-.1.1-.2.1-.4l1.5-4.3-18.8-1.9z"/></svg>