<svg enable-background="new 0 0 320 320" viewBox="0 0 320 320" xmlns="http://www.w3.org/2000/svg"><path d="m189.2 132.3v-3.9l-3 5.4-4.8 2.3-3.6-2.3 2.6-3.2c1.3-2 1.6-3 1.8-5.1.2-1.6.2-3.2.1-4.8-.1-.9-.2-1.8-.4-2.4s-.5-1-.5-1l.8-1.6c1.2-2.2 1.3-3.1 1.7-4.8l.3-2.1-1.2 1.7-1.4-1.4c.3 1 .5 1.3.6 2.7.1 1-.2 1.7-.9 3.4l-.9 1.7s-.9 0-1.5.2c-.6.3-4.5 2.4-5.7 3.5-2.1 1.8-2.6 2.6-3.7 5.2l-.8 3.9-4.6-1.7-.5-5 2.7-5-3.1 2.6-2.5-2.8 1.4 5.6-.6 6.7 3.7 3.7-10.4 7.6c-3.5 3.1-6.4 5.7-8.4 9.9l-1.6 3.4-3.5-.7c-1-.2-3-.3-4-.1-1.1.2-2.5 1-3.5 1.8l-2.5 2.7-2.9-2.1.7 1.7-2.4.5 5.4 2.4 1.8-1.5c2.9-2.5 5.7.1 7.9 1.3-11.2 16.5-13.3 27.4-8.7 38.7 5.1 12.4 23.6 16.9 32.2 3.6 2.7-4.1 2.4-9.5 0-13.3-2.7-4.4-8.5-6.5-13.1-3.8 0 0 9 0 9.8 8.2.7 7.1-9.3 14.2-17.3 8-9-7-6.2-17.7-2.4-25.1 2.2-4.2 5.7-7.6 9.9-9.8s6 4 4 8.7l-.5 1.2 3.4 3v-1.6l1.9-.2-2.6-1.5 1.1-2.6c.9-2.1 1-4.5.2-6.7l-1.5-3.7 3.4-2.1c2.6-2 6.7-5.7 9.7-11.3s5.3-11.2 5.3-11.2l4.4 1.1 6.6-5.5 5.3-2z"/></svg>