<svg enable-background="new 0 0 320 320" viewBox="0 0 320 320" xmlns="http://www.w3.org/2000/svg"><path d="m266.1 62.7c0-4.8-3.9-8.8-8.8-8.8-4.6 0-8.3 3.5-8.7 7.9-1-.4-2.1-.2-2.9.6l-1.1 1.1c-1.1 1.1-1.1 2.8 0 3.9l-39.8 39.8c-1.1-1.1-2.8-1.1-3.9 0l-.6.6c-1.1 1.1-1.1 2.8 0 3.9l-42.1 42.1c-1.1-1.1-2.8-1.1-3.9 0l-.6.6c-1.1 1.1-1.1 2.8 0 3.9l-45.4 45.4c-1.1-1.1-2.8-1.1-3.9 0l-.6.6c-1.1 1.1-1.1 2.8 0 3.9l-36.6 36.6c-1.1-1.1-2.8-1.1-3.9 0l-.6.6c-.9.9-1 2.2-.5 3.2-4.7.2-8.4 4-8.4 8.8s3.9 8.8 8.8 8.8c4.7 0 8.6-3.7 8.8-8.4 1 .5 2.3.4 3.2-.5l.6-.6c1.1-1.1 1.1-2.8 0-3.9l36.6-36.6c1.1 1.1 2.8 1.1 3.9 0l.6-.6c1.1-1.1 1.1-2.8 0-3.9l45.4-45.4c1.1 1.1 2.8 1.1 3.9 0l.6-.6c1.1-1.1 1.1-2.8 0-3.9l42.1-42.1c1.1 1.1 2.8 1.1 3.9 0l.6-.6c1.1-1.1 1.1-2.8 0-3.9l39.8-39.8c1.1 1.1 2.8 1.1 3.9 0l1.1-1.1c.8-.8 1-1.9.6-2.9 4.4-.4 7.9-4.2 7.9-8.7z"/></svg>