<svg enable-background="new 0 0 320 320" viewBox="0 0 320 320" xmlns="http://www.w3.org/2000/svg"><path d="m234.8 84.7c-24.5 21-108.8 103.9-108.8 103.9-1.5-1-5.4-2.8-9.9-2.6-3.8.2-7.4 1.8-10.6 4l-3.5 2.2 10 11.3-.6.6c-3.2 2.9-6.1 5.3-9.6 8.8-5.4 5.4-7.8 8.6-11 12.8l-.1.1h-.1c-2.9 0-6.7 3-4.8 6.8.5 1 1.3 1.8 2.3 2.3 3.8 1.9 6.8-2 6.8-4.8 0-.1 0-.2 0-.2 3.8-2.9 7.6-6 12.2-10.5 3.8-3.7 6.4-6.8 9.4-10.2l.6-.6 11.1 9.8 2.2-3.6c2.2-3.4 3.5-7.2 3.8-11.2.3-3.6-.6-7-2.9-9.6-.1-.2 82.3-84.9 103.5-109.3z"/></svg>