<svg enable-background="new 0 0 320 320" viewBox="0 0 320 320" xmlns="http://www.w3.org/2000/svg"><path d="m195.9 99.1c-15.4.6-29.5 2.9-42.3 8.8l-.6-1.3-1.4.7c-8.5 4.1-16 9.5-23 16.5-6.2 6.2-11.1 12.8-15 20.1l-.6 1.2 1.1.8c-7 13.7-9.6 28.7-10.2 45.4-1 25.7-1.8 39.5-1.8 39.5l9.6-9.5v-6.3l108-108h6.3l9.5-9.6c-.1-.1-14 .7-39.6 1.7zm-85.3 112s-.5-9.3.7-26.1c.7-10 1.9-22.6 8.3-35.7h.1l1.4.8.7-1.4c3.4-6.5 7.9-12.7 13.5-18.2 6.2-6.2 13.1-11.2 20.5-14.6l1.4-.7-.7-1.4c12.2-5.4 23.8-6.4 33.1-7.1 16.8-1.2 26.1-.7 26.1-.7z"/></svg>