<svg enable-background="new 0 0 320 320" viewBox="0 0 320 320" xmlns="http://www.w3.org/2000/svg"><path d="m196.2 156c-1.9-2.6-4.6-3.6-6.4-2.7-3.7 2-6.2 2.7-6.2 2.7s3.6-2.8 8.4-6.9c.7-.8 1.4-4.1-1.4-7.9-2.6-3.4-5.5-3.8-7.6-2.2-4.9 4-8.6 7-8.6 7s3.1-3.5 7.4-9c2.3-2.9-.4-6.2-2.4-7.6-1.4-1-5.4-3.2-8.2.2-.6.7-1.2 1.5-1.9 2.2-3.8 4.2-6.3 6.1-6.3 6.1s1.6-2.4 3.8-6.9c1.7-3.6-.4-6.7-3.9-7.9-4.3-1.5-6.8.5-7.9 2.3-1.6 2.8-2.4 3.4-4.5 6.6-2.9 4.6-6.2 8.2-6.2 8.2s-.5-1.7-.9-4.8c-.2-1.6-5.2-2.7-8.9-1.4s-6 4.5-5.9 6.2c.1 2.3.1 5.1-.4 10.1-.4 5-.7 10.4 0 14.2l-5.8 4.6s-.3 6.5 10.1 16.6c11.3 10.9 19.2 12.2 19.2 12.2l6.1-8.6.9-.3c7.8-2.7 17.8-10 21.9-12.7 5.8-3.8 12.2-8.5 15.8-11.3 1.9-3.1 2.1-5.8-.2-9zm-28.9 15.9s-3.4-4.8-9.4-11-11.5-9.8-11.5-9.8c2.2-2.8 5.4-5.2 8.3-3.3 2.4 1.5 6.4 4.7 9.1 7.6 3 3.1 5.6 6.5 6.9 8.9 1.9 3.3-.1 5.8-3.4 7.6z"/></svg>