<svg enable-background="new 0 0 320 320" viewBox="0 0 320 320" xmlns="http://www.w3.org/2000/svg"><path d="m241.6 184 1.3-2.2-4.7-2.7-78.2-51.1 3.1-3.4-1.8-1.7-3.5 3.8-1.7-2.1-2 1.6 1.6 2-61 41.2-17.6 11.6 1.4 2.1 4.2-2.8c2.9 1.3 8.5 3.5 17 5.6l-1.9 2 1.8 1.8 3-3c6.4 1.5 14.2 2.9 23.6 3.9l-2.3 3.8 2.1 1.3 2.9-4.8c8.4.8 18 1.3 28.9 1.3h2.8l.1 3.7h2.5l-.1-3.6c10-.2 19-.7 26.9-1.6 1.4-.2 2.8-.3 4.2-.5l3.9 7.1 2.2-1.2-3.4-6.2c7.1-1 13.2-2.1 18.4-3.3l2 2.8 2.1-1.4-1.4-2c8.4-2 14.1-4.1 17.2-5.3z"/></svg>