<svg enable-background="new 0 0 320 320" viewBox="0 0 320 320" xmlns="http://www.w3.org/2000/svg"><path d="m278.3 34.7c-4.9 1.6-11.3 5.6-15.9 10.8-5.3 6-15.7 24.9-25.1 26.5-1.9.3-4-.6-4.7-2.4-2.5-5.8 5.7-8.7 8.8-10.5 4-2.3 6-4.8 6.2-8.2.3-5.1-1.7-9.9-1.7-9.9s-5 6.1-10.1 10c-3.2 2.4-7.6 5.1-12.7 11.4-4.1 5.1-5.4 11.6-5.4 21v5.5l-2.9 3.1c-1.1 1.2-1.1 3.1 0 4.3l-177.6 176.4-1.6-1.6-2.5 2.5c-3.2 3.3-3.2 8.5.1 11.7 3.2 3.2 8.5 3.2 11.7 0l2.5-2.5-1.6-1.6 177.3-177c1.3 1.3 3.4 1.3 4.7 0l2.6-2.6h5.7c9.3 0 14.4-.3 21-5.1 5.3-3.9 8.5-8.8 11.4-12.2 4.6-5.6 9.9-10 9.9-10s-5.1-1.8-9.3-1.1c-3.3.6-5.8 1.9-8 5.2-2 2.9-4.3 11.6-10.9 8.7-1.9-.9-2.5-3.5-1.3-6 1-2.2 2.9-4.6 9.1-9.6 3.9-3.2 9.5-7.3 17.7-13.2 6.7-4.8 10.6-14.5 11.6-17.9s2.2-8.3 2.2-8.3-8 1.6-11.2 2.6z"/></svg>