<svg viewBox="0 0 50 50" xmlns="http://www.w3.org/2000/svg"><path d="m0 0h50" fill="none"/><path d="m50 50h-50" fill="none"/><path d="m157.25 148-20 13.06 20 14 20-14zm-.39 21.79-12.81-8.74 12.81-8.74-5.33 8.74zm.78-17.48 12.81 8.74-12.81 8.74 5.33-8.74z" transform="translate(-132.25 -132)"/><path d="m33.82 9.95-2.46-4.1-3.5 8.46 3.11 2.05z"/><path d="m39.27 17.25-2.13-3.74-2.43 5.25 2.85 1.87z"/><path d="m16.22 9.95 2.46-4.1 3.5 8.46-3.11 2.05z"/><path d="m10.77 17.25 2.13-3.74 2.42 5.25-2.84 1.87z"/></svg>