<svg enable-background="new 0 0 320 320" viewBox="0 0 320 320" xmlns="http://www.w3.org/2000/svg"><path d="m208.6 177.5c1.4-4.3 2.6-10 4.7-16.3s6.1-9.2 8.4-10.1c4.3-1.7 7.8-1.9 10.9-2.1l-.5-4.4c-2.9 0-7.8.2-12.6 2.8 2.1-3.3 4.6-6.2 8.2-9.3l-4.2-3.2c-2.3 2.2-6.4 5.8-10.1 12-2 3.4-4.4 8-6.2 13.4-2 5.9-3 11.2-4.6 15.2-2 5.2-4.3 8.4-7.2 11.1-1.2 1.1-2.7 2-3.8 2.4-.9.4-2.3.7-3.2.7-3.9.1-7.9-1.1-10.7-3.9-2.1-2.1-2.9-4.2-3.3-6-.6-2.7-1.4-6.4 2.2-12 1.3-2 4.6-5.8 6.8-7.7 6.6-5.7 20.7-16.3 26.6-26.8 7.9-14.2 3.2-26.2-6.4-31.4-6.7-3.7-22.5-5.6-33.4 7-11 12.5-13.5 32.2-23.6 46.6-6.3 9.1-10.4 11.2-10.4 11.2l-3.8-3.8-4.2 4.3v.1l1.8 1.8-36.4 36.8-5.9 2.5v.1c0 6.9 5.7 12.4 12.5 12.4h.1l2.7-5.6 36.4-36.8 1.5 1.5h.1l4.2-4.3-3.9-3.8s4.1-3.6 10.4-12.2c11.3-15.5 15.7-37 23.8-45.8 10-10.8 19-8.5 24.4-6.1s9.8 12.5 4.2 22.6c-4.7 8.5-18.6 20-25.6 26-2.3 2-5.6 5.3-7.1 7.7-3.9 6.1-5 11.5-3.8 17.3.9 3.9 3 7.3 5.2 9.4.3.3.7.6 1 .9 4.1 3.6 9.9 5.5 15.1 5.1 1.7-.1 4.1-.6 5.7-1.3 1.9-.8 4.3-2 6.1-3.7 4.5-4.5 6.4-9.8 7.9-14.3z" fill="#231f20"/></svg>