<svg enable-background="new 0 0 320 320" viewBox="0 0 320 320" xmlns="http://www.w3.org/2000/svg"><path d="m220.8 140.1-3.5-.8-.2-8.5c-10.6-20.5-32.4-34.8-57.1-34.8-9 0-17.5 1.8-25.2 5.2l-1.6 5.1-5.2-1.7c-19.2 11.1-32 31.7-32 55.4 0 35.3 28.7 64 64 64s64-28.7 64-64c0-7-1.1-13.6-3.2-19.9zm-60.8 70.5c-27.9 0-50.6-22.6-50.6-50.6s22.6-50.6 50.6-50.6 50.6 22.6 50.6 50.6-22.7 50.6-50.6 50.6z"/><path d="m160 113.8c-25.5 0-46.2 20.7-46.2 46.2s20.7 46.2 46.2 46.2 46.2-20.7 46.2-46.2-20.7-46.2-46.2-46.2zm27.8 11.9h-55.7c7.6-6.2 17.3-9.9 27.8-9.9s20.3 3.7 27.9 9.9zm-57.3 1.4h59c4.9 4.4 8.8 9.8 11.3 16h-29.5c-3.2-2.2-7.1-3.4-11.3-3.4s-8.1 1.3-11.3 3.4h-29.5c2.5-6.1 6.4-11.6 11.3-16zm-12.1 17.8h27.9c-4.1 3.7-6.7 9.1-6.7 15.1 0 3.2.8 6.2 2.1 8.9h-25.1c-.6-2.9-.9-5.8-.9-8.9.1-5.3 1-10.4 2.7-15.1zm13.6 49.3h56c-7.6 6.2-17.4 10-28 10s-20.3-3.7-28-10zm58.2-1.9h-60.3c-6.1-5.7-10.7-13.2-12.8-21.6h25.6c.8 1.2 1.6 2.3 2.6 3.4l3.7-.1.1 3.3c3.1 2 6.8 3.1 10.8 3.1 7.3 0 13.7-3.9 17.3-9.6h25.6c-2 8.3-6.5 15.8-12.6 21.5zm13.1-23.4h-25.1c1.3-2.7 2.1-5.7 2.1-8.9 0-6-2.6-11.3-6.7-15.1h27.9c1.7 4.7 2.6 9.8 2.6 15.1.1 3-.2 6-.8 8.9z"/></svg>