<svg enable-background="new 0 0 640 640" viewBox="0 0 640 640" xmlns="http://www.w3.org/2000/svg"><path d="m0 0h640v640h-640z" fill="#111"/><path d="m576 0h-64-64-64-64-64-64-64-64-64v64 64 64 64 64 64 64 64 64 64h64 64 64 64 64 64 64 64 64 64v-64-64-64-64-64-64-64-64-64-64zm62.5 127.5h-62v-63h62zm0 64h-62v-63h62zm0 64h-62v-63h62zm0 64h-62v-63h62zm0 64h-62v-63h62zm0 64h-62v-63h62zm0 64h-62v-63h62zm0 64h-62v-63h62zm-62 1h62v62h-62zm-1 62h-63v-62h63zm-64 0h-63v-62h63zm-64 0h-63v-62h63zm-64 0h-63v-62h63zm-64 0h-63v-62h63zm-64 0h-63v-62h63zm-64 0h-63v-62h63zm-64 0h-63v-62h63zm-64 0h-62v-62h62zm-62-126h62v63h-62zm0-64h62v63h-62zm0-64h62v63h-62zm0-64h62v63h-62zm0-64h62v63h-62zm0-64h62v63h-62zm0-64h62v63h-62zm0-64h62v63h-62zm62-1h-62v-62h62zm1-62h63v62h-63zm64 0h63v62h-63zm64 0h63v62h-63zm64 0h63v62h-63zm64 0h63v62h-63zm64 0h63v62h-63zm64 0h63v62h-63zm64 0h63v62h-63zm63 511v63h-63v-63zm-64 0v63h-63v-63zm-64 0v63h-63v-63zm-64 0v63h-63v-63zm-64 0v63h-63v-63zm-64 0v63h-63v-63zm-64 0v63h-63v-63zm-64 0v63h-63v-63zm-63-385v-63h63v63zm64 0v-63h63v63zm64 0v-63h63v63zm64 0v-63h63v63zm64 0v-63h63v63zm64 0v-63h63v63zm64 0v-63h63v63zm63 321v63h-63v-63zm-64 0v63h-63v-63zm-64 0v63h-63v-63zm-64 0v63h-63v-63zm-64 0v63h-63v-63zm-64 0v63h-63v-63zm-63-257v-63h63v63zm64 0v-63h63v63zm64 0v-63h63v63zm64 0v-63h63v63zm64 0v-63h63v63zm63 193v63h-63v-63zm-64 0v63h-63v-63zm-64 0v63h-63v-63zm-64 0v63h-63v-63zm-63-129v-63h63v63zm64 0v-63h63v63zm64 0v-63h63v63zm63 65v63h-63v-63zm-64 0v63h-63v-63zm-63-1v-63h63v63zm127 0h-63v-63h63zm-191-63h63v63h-63zm0 64h63v63h-63zm255 63h-63v-63h63zm0-64h-63v-63h63zm0-64h-63v-63h63zm-319-63h63v63h-63zm0 64h63v63h-63zm0 64h63v63h-63zm0 64h63v63h-63zm383 63h-63v-63h63zm0-64h-63v-63h63zm0-64h-63v-63h63zm0-64h-63v-63h63zm0-64h-63v-63h63zm-447-63h63v63h-63zm0 64h63v63h-63zm0 64h63v63h-63zm0 64h63v63h-63zm0 64h63v63h-63zm0 64h63v63h-63zm511 63h-63v-63h63zm0-64h-63v-63h63zm0-64h-63v-63h63zm0-64h-63v-63h63zm0-64h-63v-63h63zm0-64h-63v-63h63zm0-64h-63v-63h63zm1-126h62v62h-62z" fill="#333"/></svg>