<svg enable-background="new 0 0 640 640" viewBox="0 0 640 640" xmlns="http://www.w3.org/2000/svg"><g fill="#111"><path d="m384.2 192.2h63.5v63.5h-63.5z"/><path d="m384.2 256.2h63.5v63.5h-63.5z"/><path d="m384.2 128.2h63.5v63.5h-63.5z"/><path d="m384.2 64.2h63.5v63.5h-63.5z"/><path d="m256.2 320.2h63.5v63.5h-63.5z"/><path d="m384.2 512.2h63.5v63.5h-63.5z"/><path d="m384.2 448.2h63.5v63.5h-63.5z"/><path d="m384.2 1h63.5v62.7h-63.5z"/><path d="m448.2 64.2h63.5v63.5h-63.5z"/><path d="m320.2 448.2h63.5v63.5h-63.5z"/><path d="m384.2 384.2h63.5v63.5h-63.5z"/><path d="m384.2 320.2h63.5v63.5h-63.5z"/><path d="m320.2 128.2h63.5v63.5h-63.5z"/><path d="m256.2 1h63.5v62.7h-63.5z"/><path d="m256.2 448.2h63.5v63.5h-63.5z"/><path d="m256.2 384.2h63.5v63.5h-63.5z"/><path d="m320.2 64.2h63.5v63.5h-63.5z"/><path d="m256.2 512.2h63.5v63.5h-63.5z"/><path d="m320.2 256.2h63.5v63.5h-63.5z"/><path d="m320.2 384.2h63.5v63.5h-63.5z"/><path d="m320.2 320.2h63.5v63.5h-63.5z"/><path d="m320.2 192.2h63.5v63.5h-63.5z"/><path d="m320.2 512.2h63.5v63.5h-63.5z"/><path d="m448.2 128.2h63.5v63.5h-63.5z"/><path d="m320.2 1h63.5v62.7h-63.5z"/><path d="m512.2 384.2h63.5v63.5h-63.5z"/><path d="m576.2 1h62.7v62.7h-62.7z"/><path d="m576.2 128.2h62.7v63.5h-62.7z"/><path d="m512.2 1h63.5v62.7h-63.5z"/><path d="m512.2 448.2h63.5v63.5h-63.5z"/><path d="m512.2 512.2h63.5v63.5h-63.5z"/><path d="m576.2 192.2h62.7v63.5h-62.7z"/><path d="m576.2 448.2h62.7v63.5h-62.7z"/><path d="m576.2 512.2h62.7v63.5h-62.7z"/><path d="m576.2 384.2h62.7v63.5h-62.7z"/><path d="m576.2 256.2h62.7v63.5h-62.7z"/><path d="m576.2 320.2h62.7v63.5h-62.7z"/><path d="m512.2 64.2h63.5v63.5h-63.5z"/><path d="m448.2 512.2h63.5v63.5h-63.5z"/><path d="m512.2 320.2h63.5v63.5h-63.5z"/><path d="m448.2 448.2h63.5v63.5h-63.5z"/><path d="m448.2 256.2h63.5v63.5h-63.5z"/><path d="m448.2 320.2h63.5v63.5h-63.5z"/><path d="m448.2 384.2h63.5v63.5h-63.5z"/><path d="m512.2 256.2h63.5v63.5h-63.5z"/><path d="m512.2 192.2h63.5v63.5h-63.5z"/><path d="m512.2 128.2h63.5v63.5h-63.5z"/><path d="m448.2 1h63.5v62.7h-63.5z"/><path d="m448.2 192.2h63.5v63.5h-63.5z"/><path d="m576.2 64.2h62.7v63.5h-62.7z"/><path d="m1 320.2h62.7v63.5h-62.7z"/><path d="m1 384.2h62.7v63.5h-62.7z"/><path d="m1 128.2h62.7v63.5h-62.7z"/><path d="m1 512.2h62.7v63.5h-62.7z"/><path d="m64.2 384.2h63.5v63.5h-63.5z"/><path d="m1 192.2h62.7v63.5h-62.7z"/><path d="m1 448.2h62.7v63.5h-62.7z"/><path d="m64.2 320.2h63.5v63.5h-63.5z"/><path d="m64.2 256.2h63.5v63.5h-63.5z"/><path d="m64.2 128.2h63.5v63.5h-63.5z"/><path d="m64.2 64.2h63.5v63.5h-63.5z"/><path d="m64.2 192.2h63.5v63.5h-63.5z"/><path d="m1 256.2h62.7v63.5h-62.7z"/><path d="m1 64.2h62.7v63.5h-62.7z"/><path d="m256.2 256.2h63.5v63.5h-63.5z"/><path d="m320.2 576.2h63.5v62.7h-63.5z"/><path d="m384.2 576.2h63.5v62.7h-63.5z"/><path d="m512.2 576.2h63.5v62.7h-63.5z"/><path d="m576.2 576.2h62.7v62.7h-62.7z"/><path d="m256.2 576.2h63.5v62.7h-63.5z"/><path d="m1 576.2h62.7v62.7h-62.7z"/><path d="m1 1h62.7v62.7h-62.7z"/><path d="m128.2 576.2h63.5v62.7h-63.5z"/><path d="m192.2 576.2h63.5v62.7h-63.5z"/><path d="m64.2 576.2h63.5v62.7h-63.5z"/><path d="m448.2 576.2h63.5v62.7h-63.5z"/><path d="m192.2 512.2h63.5v63.5h-63.5z"/><path d="m192.2 256.2h63.5v63.5h-63.5z"/><path d="m192.2 384.2h63.5v63.5h-63.5z"/><path d="m192.2 320.2h63.5v63.5h-63.5z"/><path d="m192.2 128.2h63.5v63.5h-63.5z"/><path d="m192.2 192.2h63.5v63.5h-63.5z"/><path d="m64.2 512.2h63.5v63.5h-63.5z"/><path d="m256.2 192.2h63.5v63.5h-63.5z"/><path d="m256.2 128.2h63.5v63.5h-63.5z"/><path d="m192.2 64.2h63.5v63.5h-63.5z"/><path d="m192.2 1h63.5v62.7h-63.5z"/><path d="m192.2 448.2h63.5v63.5h-63.5z"/><path d="m256.2 64.2h63.5v63.5h-63.5z"/><path d="m128.2 128.2h63.5v63.5h-63.5z"/><path d="m128.2 1h63.5v62.7h-63.5z"/><path d="m128.2 192.2h63.5v63.5h-63.5z"/><path d="m64.2 448.2h63.5v63.5h-63.5z"/><path d="m64.2 1h63.5v62.7h-63.5z"/><path d="m128.2 64.2h63.5v63.5h-63.5z"/><path d="m128.2 512.2h63.5v63.5h-63.5z"/><path d="m128.2 448.2h63.5v63.5h-63.5z"/><path d="m128.2 320.2h63.5v63.5h-63.5z"/><path d="m128.2 256.2h63.5v63.5h-63.5z"/><path d="m128.2 384.2h63.5v63.5h-63.5z"/></g><path d="m576.2-.2h-.5-63.5-.5-63.5-.5-63.5-.5-63.5-.5-63.5-.5-63.5-.5-63.5-.5-63.5-.5-64v64 .5 63.5.5 63.5.5 63.5.5 63.5.5 63.5.5 63.5.5 63.5.5 63.5.5 64h64 .5 63.5.5 63.5.5 63.5.5 63.5.5 63.5.5 63.5.5 63.5.5 63.5.5 64v-64-.5-63.5-.5-63.5-.5-63.5-.5-63.5-.5-63.5-.5-63.5-.5-63.5-.5-63.6-.5-64h-64zm-64 .4h63.5v63.5h-63.5zm63.6 127.6h-63.5v-63.6h63.5zm0 64h-63.5v-63.5h63.5zm0 64h-63.5v-63.5h63.5zm0 64h-63.5v-63.5h63.5zm0 64h-63.5v-63.5h63.5zm0 64h-63.5v-63.5h63.5zm0 64h-63.5v-63.5h63.5zm0 64h-63.5v-63.5h63.5zm-511.6-63.6h63.5v63.5h-63.5zm0-64h63.5v63.5h-63.5zm0-64h63.5v63.5h-63.5zm0-64h63.5v63.5h-63.5zm0-64h63.5v63.5h-63.5zm0-64h63.5v63.5h-63.5zm0-64h63.5v63.5h-63.5zm0-64h63.5v63.5h-63.5zm447.6 63.6h-63.5v-63.6h63.5zm0 64h-63.5v-63.5h63.5zm0 64h-63.5v-63.5h63.5zm0 64h-63.5v-63.5h63.5zm0 64h-63.5v-63.5h63.5zm0 64h-63.5v-63.5h63.5zm0 64h-63.5v-63.5h63.5zm-383.6-63.6h63.5v63.5h-63.5zm0-64h63.5v63.5h-63.5zm0-64h63.5v63.5h-63.5zm0-64h63.5v63.5h-63.5zm0-64h63.5v63.5h-63.5zm0-64h63.5v63.5h-63.5zm319.6 63.6h-63.5v-63.5h63.5zm0 64h-63.5v-63.5h63.5zm0 64h-63.5v-63.5h63.5zm0 64h-63.5v-63.5h63.5zm0 64h-63.5v-63.5h63.5zm-255.6-63.6h63.5v63.5h-63.5zm0-64h63.5v63.5h-63.5zm0-64h63.5v63.5h-63.5zm0-64h63.5v63.5h-63.5zm191.6 63.6h-63.5v-63.5h63.5zm0 64h-63.5v-63.5h63.5zm0 64h-63.5v-63.5h63.5zm-127.6-63.6h63.5v63.5h-63.5zm0-64h63.5v63.5h-63.5zm63.6-.4h-63.5v-63.5h63.5zm-63.6 128.4h63.5v63.5h-63.5zm64 0h63.5v63.5h-63.5zm63.6-192.4h-63.5v-63.5h63.5zm-64 0h-63.5v-63.5h63.5zm-64 0h-63.5v-63.5h63.5zm-63.6 256.4h63.5v63.5h-63.5zm64 0h63.5v63.5h-63.5zm64 0h63.5v63.5h-63.5zm64 0h63.5v63.5h-63.5zm63.6-320.4h-63.5v-63.6h63.5zm-64 0h-63.5v-63.6h63.5zm-64 0h-63.5v-63.6h63.5zm-64 0h-63.5v-63.6h63.5zm-64 0h-63.5v-63.6h63.5zm-63.6 384.4h63.5v63.5h-63.5zm64 0h63.5v63.5h-63.5zm64 0h63.5v63.5h-63.5zm64 0h63.5v63.5h-63.5zm64 0h63.5v63.5h-63.5zm64 0h63.5v63.5h-63.5zm0-512h63.5v63.5h-63.5zm-64 0h63.5v63.5h-63.5zm-64 0h63.5v63.5h-63.5zm-64 0h63.5v63.5h-63.5zm-64 0h63.5v63.5h-63.5zm-64 0h63.5v63.5h-63.5zm-64 0h63.5v63.5h-63.5zm-64 0h63.5v63.5h-63.5zm0 64h63.5v63.5h-63.5zm0 64h63.5v63.5h-63.5zm0 64h63.5v63.5h-63.5zm0 64h63.5v63.5h-63.5zm0 64h63.5v63.5h-63.5zm0 64h63.5v63.5h-63.5zm0 64h63.5v63.5h-63.5zm0 64h63.5v63.5h-63.5zm63.6 127.6h-63.6v-63.5h63.5v63.5zm64 0h-63.6v-63.5h63.5v63.5zm64 0h-63.5v-63.5h63.5zm64 0h-63.5v-63.5h63.5zm64 0h-63.5v-63.5h63.5zm64 0h-63.5v-63.5h63.5zm64 0h-63.5v-63.5h63.5zm64 0h-63.5v-63.5h63.5zm64 0h-63.5v-63.5h63.5zm64 0h-63.5v-63.5h63.5zm0-64h-63.5v-63.5h63.5zm0-64h-63.5v-63.5h63.5zm0-64h-63.5v-63.5h63.5zm0-64h-63.5v-63.5h63.5zm0-64h-63.5v-63.5h63.5zm0-64h-63.5v-63.5h63.5zm0-64h-63.5v-63.5h63.5zm0-64h-63.5v-63.6h63.5zm-63.6-64v-63.6h63.5v63.5h-63.5z" fill="#262626"/><path d="m639 1v638h-638v-638zm1-1h-640v640h640z" fill="#333"/></svg>