<svg enable-background="new 0 0 320 320" viewBox="0 0 320 320" xmlns="http://www.w3.org/2000/svg"><g fill="#a7a07f"><path d="m312 48v8l4-4v-4z"/><path d="m312 100v4h4v-4l-4-4z"/><path d="m312 116v4l4-4-4-4z"/><path d="m304 96v4h4c0-2 0-6 0-8h-4z"/><path d="m304 76v12h4c0-5 0-11 0-16h-4z"/><path d="m300 132c-10.5 0-21.5 0-32 0 0-26.6 0-53.4 0-80-2 0-6 0-8 0v4h4v100h4c0-6.4 0-13.6 0-20h40v-4c-2 0-6 0-8 0z"/><path d="m300 116-4 4v8h12c0-3.6 0-8.4 0-12-2 0-6 0-8 0z"/><path d="m300 60v8h8c0-2 0-6 0-8-2 0-6 0-8 0z"/><path d="m300 44-4 4v8h12c0-3.6 0-8.4 0-12-2 0-6 0-8 0z"/><path d="m300 104h-4v8h12c0-2 0-6 0-8-2 0-6 0-8 0z"/><path d="m300 28v12h4l4-4v-4h-4z"/><path d="m300 80c0-2 0-6 0-8-3.6 0-8.4 0-12 0v12h12z"/><path d="m296 100h4c0-2 0-6 0-8l-4-4c-2 0-6 0-8 0v12z"/><path d="m288 104h4v4h-4z"/><path d="m292 28 4-4c-2 0-6 0-8 0l-4 4z"/><path d="m288 116v12h4c0-5 0-11 0-16h-4z"/><path d="m288 68h8v-4c-2-2-6-6-8-8-2 0-6 0-8 0v12z"/><path d="m288 52h4c0-2 0-6 0-8-2 0-6 0-8 0l-4 4v4z"/><path d="m288 40h8c0-2 0-6 0-8-5 0-11 0-16 0v8z"/><path d="m284 112c0-3.6 0-8.4 0-12l-4-4c-2 0-6 0-8 0v20h12z"/><path d="m284 88v-4l-4-4c-2 0-6 0-8 0v12h12z"/><path d="m280 24v4h4z"/><path d="m276 120h-4v8h12v-4l-4-4z"/><path d="m272 72v4h12v-4c-3.6 0-8.4 0-12 0z"/><path d="m276 64c0-3.6 0-8.4 0-12h-4v16h4z"/><path d="m272 32h4c0-3.6 0-8.4 0-12-2 0-6 0-8 0l-4 4v8z"/><path d="m272 48h4c0-3.6 0-8.4 0-12-2 0-6 0-8 0l-4 4v8z"/><path d="m252 52c-13.2 0-26.8 0-40 0 0-11.9 0-24.1 0-36h4l-4-4h-4v4h-4v4h4v36h48l4-4c-2 0-6 0-8 0z"/><path d="m252 44v4h8v-4c-2 0-6 0-8 0z"/><path d="m256 24h4v-4c-2 0-6 0-8 0l-4 4z"/><path d="m252 40h8c0-3.6 0-8.4 0-12-5 0-11 0-16 0v12z"/><path d="m244 44h4v4h-4z"/><path d="m236 48h4c0-2 0-6 0-8-2 0-6 0-8 0l-4 4v4z"/><path d="m236 36h4c0-3.6 0-8.4 0-12l-4 4c-2 0-6 0-8 0v8z"/><path d="m216 20v12h8c0-2 0-6 0-8h-4v-4z"/><path d="m216 36v12h8c0-2 0-6 0-8l-4-4z"/><path d="m212 112c-7.8 0-16.2 0-24 0v4h-4v4h4v24h8v-4h-4c0-7.8 0-16.2 0-24h24v24c-6.4 0-13.6 0-20 0l4 4h20c0-10.5 0-21.5 0-32-2 0-6 0-8 0z"/><path d="m208 196c0-10.5 0-21.5 0-32h-4v40l4-4z"/><path d="m208 128 4 4c0-3.6 0-8.4 0-12-3.6 0-8.4 0-12 0z"/><path d="m204 56h4v4h-4z"/><path d="m204 136h4c-3.6-3.6-8.4-8.4-12-12v12z"/><path d="m200 20h4v4h-4z"/><path d="m200 60h4v4h-4z"/><path d="m196 196h4v4h-4z"/><path d="m200 188v-4h-4v8h4z"/><path d="m200 172c0-2 0-6 0-8h-4l-4-4v20h4l4-4z"/><path d="m196 24h4v4h-4z"/><path d="m196 64h4v4h-4z"/><path d="m196 208v4h4c0-2 0-6 0-8h-4z"/><path d="m192 196c0-3.6 0-8.4 0-12-3.6 0-8.4 0-12 0v12l4 4h8z"/><path d="m188 164v-4c-2 0-6 0-8 0v4z"/><path d="m184 140c0-6.4 0-13.6 0-20-5 0-11 0-16 0l-4 4h16v32h8l-4-4v-4h4v-4h-4z"/><path d="m180 172v8h8c0-3.6 0-8.4 0-12-2 0-6 0-8 0z"/><path d="m176 0h4v4h-4z"/><path d="m180 212h8l4-4v-4c-6.4 0-13.6 0-20 0v8z"/><path d="m176 156v-4c-3.6 0-8.4 0-12 0v8h12z"/><path d="m176 144c0-5 0-11 0-16-6.4 0-13.6 0-20 0v20h20z"/><path d="m172 12v4h4z"/><path d="m176 96-4-4h-4v4z"/><path d="m172 200h4c0-2 0-6 0-8-2 0-6 0-8 0l-4 4v4z"/><path d="m172 4c-2 0-6 0-8 0v4h4z"/><path d="m168 164h-4v8h12v-4l-4-4z"/><path d="m168 208v-4h-4v8h4z"/><path d="m168 188h4l4-4c0-2 0-6 0-8-5 0-11 0-16 0v8l4 4z"/><path d="m168 12h-4l4 4z"/><path d="m168 32v-4h-4l-4 4z"/><path d="m164 44v4h4z"/><path d="m160 120c-23.9 0-48.1 0-72 0v4h-4v4h4v36h-4v4h4v40l4 4c0-29.3 0-58.7 0-88h72v-4z"/><path d="m160 100h4v4h-4z"/><path d="m160 72h4v4h-4z"/><path d="m160 20h4v4h-4z"/><path d="m156 168h4v4h-4z"/><path d="m160 4h-4l4 4z"/><path d="m160 96-4-4h-4v4z"/><path d="m156 188c-2 0-6 0-8 0v8h8l4-4z"/><path d="m152 152-4 4v8h12c0-3.6 0-8.4 0-12-2 0-6 0-8 0z"/><path d="m152 44h4v4h-4z"/><path d="m152 36h4v4h-4z"/><path d="m152 56h4v4h-4z"/><path d="m156 212h4c0-3.6 0-8.4 0-12-2 0-6 0-8 0l-4 4v8z"/><path d="m148 180v4h8v-4c-2 0-6 0-8 0z"/><path d="m148 28h4v4h-4z"/><path d="m148 76h8v-4c-2 0-6 0-8 0z"/><path d="m152 16-4-4-4 4z"/><path d="m148 176h4c0-2 0-6 0-8-2 0-6 0-8 0l-4 4v4z"/><path d="m144 128v12h8c0-3.6 0-8.4 0-12-2 0-6 0-8 0z"/><path d="m148 0h-4l4 4z"/><path d="m148 36c-2 0-6 0-8 0l4 4z"/><path d="m148 44c-2 0-6 0-8 0v4h4z"/><path d="m144 80h4v4h-4z"/><path d="m144 200c0-2 0-6 0-8h-4v12h4z"/><path d="m144 184-4-4c-2 0-6 0-8 0v8h12z"/><path d="m144 72-4 4h4z"/><path d="m144 52h-4l4 4z"/><path d="m140 28h4v4h-4z"/><path d="m140 144v8h4l4-4v-4c-2 0-6 0-8 0z"/><path d="m140 208h4v4h-4z"/><path d="m140 160v4h4c0-2 0-6 0-8h-4z"/><path d="m136 88v4h8v-4c-2 0-6 0-8 0z"/><path d="m136 212c0-2 0-6 0-8-2 0-6 0-8 0v4l4 4z"/><path d="m136 196v-4c-2 0-6 0-8 0v8h8z"/><path d="m132 84h8v-4h-4z"/><path d="m136 28h-4l4 4z"/><path d="m136 72c-2 0-6 0-8 0l4 4z"/><path d="m132 128h-4v12h12c0-2 0-6 0-8l-4-4z"/><path d="m128 160-4 4v12h12c0-5 0-11 0-16-2 0-6 0-8 0z"/><path d="m132 92v-4h-4z"/><path d="m128 44v4l4-4z"/><path d="m128 84v-4c-2 0-6 0-8 0v4z"/><path d="m124 64h4v4h-4z"/><path d="m128 56-4 4h4z"/><path d="m124 144h-4v8l4 4h12c0-3.6 0-8.4 0-12-3.6 0-8.4 0-12 0z"/><path d="m128 184v-4c-3.6 0-8.4 0-12 0v8h8z"/><path d="m124 200c0-2 0-6 0-8h-4c-2 2-6 6-8 8v4h12z"/><path d="m120 136h4v4h-4z"/><path d="m120 220h28v28h4c0-9.2 0-18.8 0-28h52v28h4c0-14.6 0-29.4 0-44h-4v12c-30.6 0-61.4 0-92 0l4 4z"/><path d="m120 212h4v-4c-3.6 0-8.4 0-12 0v4z"/><path d="m120 92v-4l-4 4z"/><path d="m116 128v4h8v-4c-2 0-6 0-8 0z"/><path d="m112 168c-2 0-6 0-8 0v12h8v-4h8c0-2 0-6 0-8-2 0-6 0-8 0z"/><path d="m116 76v-4h-4z"/><path d="m112 156v8h8v-4l-4-4z"/><path d="m112 196c0-3.6 0-8.4 0-12-2 0-6 0-8 0v8l4 4z"/><path d="m108 56h4v4h-4z"/><path d="m108 136v12l4 4h4c0-5 0-11 0-16-2 0-6 0-8 0z"/><path d="m104 128c-2 0-6 0-8 0v4h16v-4c-2 0-6 0-8 0z"/><path d="m108 96h-4l4 4z"/><path d="m100 92v-4c-2 0-6 0-8 0v4z"/><path d="m96 140v8h8c0-3.6 0-8.4 0-12-2 0-6 0-8 0z"/><path d="m96 156v8h12c0-2 0-6 0-8l-4-4c-2 0-6 0-8 0z"/><path d="m96 168h4v4h-4z"/><path d="m96 180v8h4c0-3.6 0-8.4 0-12h-4z"/><path d="m96 192h4v4h-4z"/><path d="m96 204v8h12c0-2 0-6 0-8l-4-4c-2 0-6 0-8 0z"/><path d="m88 96v4h4l4-4c-2 0-6 0-8 0z"/><path d="m88 48v4h4l4-4-4-4z"/><path d="m92 60c-2-2-6-6-8-8v12h4z"/><path d="m88 216v4h24v-4c-6.4 0-13.6 0-20 0v-4h-4z"/><path d="m92 36c0-2 0-6 0-8-2 0-6 0-8 0v8z"/><path d="m84 72v-4l-4-4c-2 0-6 0-8 0v8z"/><path d="m80 128h4v4h-4z"/><path d="m80 168h4v4h-4z"/><path d="m80 60v-4l-4-4h-4v8z"/><path d="m76 112h4l-4-4z"/><path d="m76 132h4v4h-4z"/><path d="m76 172h4v4h-4z"/><path d="m76 48h4c0-5 0-11 0-16-2 0-6 0-8 0l-4 4v12z"/><path d="m76 28h4v-4l-4-4v4h-4l4-4c-2 0-6 0-8 0v8z"/><path d="m72 136h4v4h-4z"/><path d="m72 176h4v4h-4z"/><path d="m60 68-4 4h12v-4c-2 0-6 0-8 0z"/><path d="m60 52v12h4l4-4c0-2 0-6 0-8-2 0-6 0-8 0z"/><path d="m56 40v8h8c0-2 0-6 0-8-2 0-6 0-8 0z"/><path d="m56 36h8c0-3.6 0-8.4 0-12-2 0-6 0-8 0l-4 4 4 4z"/><path d="m56 60v-4c-5 0-11 0-16 0v12h12l4-4z"/><path d="m48 48h4v4h-4z"/><path d="m44 32h4c-2-2-6-6-8-8v4h-4v4z"/><path d="m44 44h8c0-2 0-6 0-8-5 0-11 0-16 0v8z"/><path d="m44 52v-4c-2 0-6 0-8 0v4z"/><path d="m36 24v4l4-4z"/><path d="m32 56h4v4h-4z"/><path d="m28 64h-4v8h12c0-2 0-6 0-8-2 0-6 0-8 0z"/><path d="m32 32c0-2 0-6 0-8-2 2-6 6-8 8z"/><path d="m24 44v4l4 4 4-4c0-3.6 0-8.4 0-12-3.6 0-8.4 0-12 0l4 4z"/></g><g fill="#928d6f"><path d="m308 60 4-4c0-2 0-6 0-8l-4-4v12c-3.6 0-8.4 0-12 0 0-2 0-6 0-8l4-4h8l-4-4h-4c0-3.6 0-8.4 0-12l-4-4-4 4c-4 0-8.3 0-12 0v-4l-4-4v12c-3.6 0-8.4 0-12 0 0-2 0-6 0-8l4-4-4-4-4 4v4c-3.6 0-8.4 0-12 0l4 4h8v12c-5 0-11 0-16 0 0-3.6 0-8.4 0-12h4v-4c-2 0-6 0-8 0v12c-3.6 0-8.4 0-12 0 0-2 0-6 0-8l-4-4v8c-2 0-6 0-8 0 0-3.6 0-8.4 0-12h4l-4-4h-4v36h56v80h40v-4c-3.6 0-8.4 0-12 0 0-2 0-6 0-8l4-4h8v8l4-4c0-7.8 0-16.2 0-24l-4-4v8h-4c0-2 0-6 0-8h4l4-4-4-4v4h-4c0-5 0-11 0-16h4v4h4v-4l-4-4c-2 0-6 0-8 0 0-2 0-6 0-8zm-84-12h-4-4c0-3.6 0-8.4 0-12h4l4 4zm16 0h-4c-2 0-6 0-8 0v-4l4-4h8zm8 0h-4v-4h4zm12 0h-4-4v-4h8zm40 24v12c-3.6 0-8.4 0-12 0 0-3.6 0-8.4 0-12zm-20-40h4 12v8c-5 0-11 0-16 0 0-2 0-6 0-8zm0 16 4-4h8v4 4c-3.6 0-8.4 0-12 0zm0 8h8l8 8v4c-5 0-11 0-16 0 0-3.6 0-8.4 0-12zm-16-8c0-2 0-6 0-8l4-4h8v12c-2 0-6 0-8 0zm12 4v16h-4v-4c0-3.6 0-8.4 0-12zm8 76h-4c-2 0-6 0-8 0 0-2 0-6 0-8h8l4 4zm0-12c-3.6 0-8.4 0-12 0v-4c0-5 0-11 0-16h8l4 4zm0-24c-3.6 0-8.4 0-12 0v-4c0-2 0-6 0-8h8l4 4zm0-16c-3.6 0-8.4 0-12 0v-4h12zm8 44v8h-4c0-5 0-11 0-16h4zm0-12h-4v-4h4zm-4-8c0-3.6 0-8.4 0-12h8l4 4v4 4c-3.6 0-8.4 0-12 0zm20 4v8c-3.6 0-8.4 0-12 0 0-2 0-6 0-8z"/><path d="m192 116v24h24c0-7.8 0-16.2 0-24-2 0-6 0-8 0-5 0-11 0-16 0zm12 20c-2 0-6 0-8 0 0-3.6 0-8.4 0-12l12 12zm8-12v8c-3.6-3.6-8.4-8.4-12-12h12z"/><path d="m200 168v8l-4 4h-4c0-6.4 0-13.6 0-20l-4-4c-2 0-6 0-8 0 0-10.5 0-21.5 0-32-29.3 0-58.7 0-88 0v92h112c0-17.2 0-34.8 0-52h-4zm-20-8h4 4v4c-2 0-6 0-8 0zm0 8h8v4 8c-2 0-6 0-8 0 0-3.6 0-8.4 0-12zm-24-40h4 16v20c-6.4 0-13.6 0-20 0 0-6.4 0-13.6 0-20zm8 32c0-2 0-6 0-8h12v4 4c-3.6 0-8.4 0-12 0zm12 8v4c-3.6 0-8.4 0-12 0 0-2 0-6 0-8h4 4zm-16-16v12c-3.6 0-8.4 0-12 0 0-2 0-6 0-8l4-4h4zm0 16v4h-4v-4zm-16-12v8h-4c0-2 0-6 0-8zm-4-4c0-2 0-6 0-8h8v4l-4 4zm4 16h4 4v8c-3.6 0-8.4 0-12 0v-4zm4 12h8v4c-2 0-6 0-8 0zm-4-52h4 4v12c-2 0-6 0-8 0 0-3.6 0-8.4 0-12zm-16 0h4 4l4 4v8c-3.6 0-8.4 0-12 0 0-3.6 0-8.4 0-12zm-4 28-4-4c0-2 0-6 0-8h12 4v12c-3.6 0-8.4 0-12 0zm12 4v16c-3.6 0-8.4 0-12 0v-4c0-2 0-6 0-8l4-4zm-16-20v-4h4v4zm-4-12h4 4v4c-2 0-6 0-8 0zm-4 36v-4-4h4l4 4v4c-2 0-6 0-8 0zm8 4v8c-2 0-6 0-8 0v4c-2 0-6 0-8 0v-4c0-2 0-6 0-8zm-4-16h-4l-4-4c0-3.6 0-8.4 0-12h8zm-20-24h16v4c-5 0-11 0-16 0zm0 16c0-2 0-6 0-8h8v12c-2 0-6 0-8 0zm0 16c0-2 0-6 0-8h8l4 4v8c-3.6 0-8.4 0-12 0zm0 8h4v4h-4zm0 16c0-2 0-6 0-8h4v12h-4zm0 8h4v4h-4zm12 20h-4c-2 0-6 0-8 0 0-3.6 0-8.4 0-12h8l4 4zm-4-20c0-2 0-6 0-8h8v12h-4zm20 20h-4c-2 0-6 0-8 0v-4h12zm0-8h-4c-2 0-6 0-8 0v-4l8-8h4zm-4-16h-4c0-2 0-6 0-8h12v4l-4 4zm16 24h-4l-4-4v-4h8zm0-12h-4-4c0-2 0-6 0-8h8zm8 12h-4v-4h4zm0-8h-4c0-3.6 0-8.4 0-12h4zm0-16c-3.6 0-8.4 0-12 0 0-2 0-6 0-8h8l4 4zm16 24h-4c-2 0-6 0-8 0 0-2 0-6 0-8l4-4h8zm-4-16h-4-4c0-2 0-6 0-8h8l4 4zm4-20h16v4 4l-4 4c-2 0-6 0-8 0l-4-4c0-2 0-6 0-8zm16 16v8h-4c-2 0-6 0-8 0v-4l4-4zm-8 20h-4c0-2 0-6 0-8h4zm24-4-4 4h-4c-3.6 0-8.4 0-12 0 0-2 0-6 0-8h20zm0-20v12c-2 0-6 0-8 0l-4-4c0-3.6 0-8.4 0-12h12zm8 20v4h-4c0-2 0-6 0-8h4zm0-8h-4v-4h4zm0-12v4h-4c0-2 0-6 0-8h4z"/><path d="m184 4h4v4h-4z"/><path d="m184 12h-4l-4 4h8z"/><path d="m180 28h4v4h-4z"/><path d="m176 12h-4l4 4z"/><path d="m172 24h4v-4h-4l-4 4z"/><path d="m164 92h4v4h-4z"/><path d="m168 44h-4l4 4z"/><path d="m160 16h8l-4-4h-4z"/><path d="m160 28v4l4-4z"/><path d="m160 96v-4h-4z"/><path d="m156 44h4v4h-4z"/><path d="m156 20h4v4h-4z"/><path d="m156 4h-4v4h8z"/><path d="m152 28h4v4h-4z"/><path d="m144 64h4v4h-4z"/><path d="m148 44-4 4h4z"/><path d="m144 12v4l4-4z"/><path d="m144 0v4h4z"/><path d="m140 72v4l4-4z"/><path d="m140 52h-4v4h8z"/><path d="m136 40h8l-4-4h-4z"/><path d="m140 64c-2 0-6 0-8 0v4h8z"/><path d="m132 80v4l4-4z"/><path d="m132 28v4h4z"/><path d="m132 44-4 4h4z"/><path d="m128 72h-4v4h8z"/><path d="m132 92-4-4v4z"/><path d="m128 56c-2 0-6 0-8 0v4h4z"/><path d="m120 88c-2 0-6 0-8 0v4h4z"/><path d="m112 72h-4v4h8z"/><path d="m108 100-4-4v4z"/><path d="m112 80c-3.6 0-8.4 0-12 0v4h12z"/><path d="m96 96-4 4h4z"/><path d="m96 48-4 4h-4v4h8c0-2 0-6 0-8z"/><path d="m84 60c0-6.4 0-13.6 0-20h12c0-2 0-6 0-8l4-4c-2 0-6 0-8 0v8c-2 0-6 0-8 0 0-2 0-6 0-8l-4-4v4c-3.6 0-8.4 0-12 0 0-2 0-6 0-8l-4 4v12c-2 0-6 0-8 0v-4l-4-4-4 4c-3.6 0-8.4 0-12 0 0-2 0-6 0-8h-4v8c-2 0-6 0-8 0l-4 4h12v12l-4 4 4 4h4v4h-4v-4c-2 2-6 6-8 8h12v8h16v-4c-3.6 0-8.4 0-12 0 0-3.6 0-8.4 0-12h16v8l-4 4 4 4 4-4h8v4h4c0-2 0-6 0-8h8l4 4 4-4h-4zm-40-8h-4-4v-4h8zm8 0h-4v-4h4zm0-8c-5 0-11 0-16 0v-4-4h16zm4 4c0-2 0-6 0-8h4 4v8c-2 0-6 0-8 0zm12 12-4 4h-4c0-3.6 0-8.4 0-12h8zm12 0h-4-4c0-2 0-6 0-8h4l4 4zm0-12c-3.6 0-8.4 0-12 0 0-3.6 0-8.4 0-12l4-4h8z"/><path d="m80 96h4v4h-4z"/><path d="m80 112h4v-4c-2 0-6 0-8 0z"/><path d="m28 28 4-4h-4z"/></g><g fill="#9b9272"><path d="m312 32v16h4c0-5 0-11 0-16z"/><path d="m312 96 4 4c0-2 0-6 0-8h-4z"/><path d="m312 124v4h4c0-3.6 0-8.4 0-12l-4 4z"/><path d="m312 148v8h4c0-3.6 0-8.4 0-12h-4z"/><path d="m312 12c-33.3 0-66.7 0-100 0l4 4h96z"/><path d="m300 20v8l4 4h4c0-3.6 0-8.4 0-12-2 0-6 0-8 0z"/><path d="m288 20c-2 0-6 0-8 0v4l4 4 4-4h8v-4c-2 0-6 0-8 0z"/><path d="m244 20v4h4l4-4c-2 0-6 0-8 0z"/><path d="m232 20h-4v8h8l4-4v-4c-2 0-6 0-8 0z"/><path d="m220 24h4l-4-4z"/><path d="m200 152c-5 0-11 0-16 0l4 4h16v8h4c0-3.6 0-8.4 0-12-2 0-6 0-8 0z"/><path d="m192 160 4 4h4v-4c-2 0-6 0-8 0z"/><path d="m100 12c-27.9 0-56.1 0-84 0v4h92v-4c-2 0-6 0-8 0z"/><path d="m96 20h4v4h-4z"/><path d="m84 20v8h8c0-2 0-6 0-8-2 0-6 0-8 0z"/><path d="m80 24v-4h-4z"/><path d="m76 24v-4l-4 4z"/><path d="m56 20h-4v8l4-4h8v-4c-2 0-6 0-8 0z"/><path d="m40 20h-4v4h4l8 8c0-3.6 0-8.4 0-12-2 0-6 0-8 0z"/><path d="m40 28v-4l-4 4z"/><path d="m24 20h-4v12h4l4-4v-4h4l-4-4z"/><path d="m24 44v-4l-4-4v16h8l-4-4z"/><path d="m20 56v4h8v-4c-2 0-6 0-8 0z"/><path d="m20 72h4c0-2 0-6 0-8l-4 4z"/><path d="m12 24v12l4 4c0-7.8 0-16.2 0-24l-4 4z"/><path d="m12 56v12l4 4c0-7.8 0-16.2 0-24l-4 4z"/></g><g fill="#898264"><path d="m312 96c0-2 0-6 0-8l-4 4z"/><path d="m308 32v4l-4 4 8 8c0-5 0-11 0-16l-4-4z"/><path d="m308 128v4l4-4c0-2 0-6 0-8l-4 4z"/><path d="m304 140c-11.9 0-24.1 0-36 0v4h44l-4-4z"/><path d="m304 148c-11.9 0-24.1 0-36 0v4h44v-4c-2 0-6 0-8 0z"/><path d="m304 156c-11.9 0-24.1 0-36 0v4h44v-4c-2 0-6 0-8 0z"/><path d="m272 20h4l4 4v-4h16v4l4 4c0-2 0-6 0-8h8l4-4c-15.9 0-32.1 0-48 0l4 4z"/><path d="m260 56h4v4h-4z"/><path d="m256 16c-13.2 0-26.8 0-40 0 3.6 3.6 8.4 8.4 12 12 0-2 0-6 0-8h12v4h4v-4h16l4-4c-2 0-6 0-8 0z"/><path d="m252 56c-6.4 0-13.6 0-20 0l-4 4h32l-4-4z"/><path d="m248 24v4h4z"/><path d="m224 56c-5 0-11 0-16 0v4h20v-4z"/><path d="m208 48c0-9.2 0-18.8 0-28h-4v4h-4v4h-4v36h4v-4h4v-4h4c0-2 0-6 0-8z"/><path d="m196 156c-2 0-6 0-8 0l4 4h8v4h4c0-2 0-6 0-8-2 0-6 0-8 0z"/><path d="m196 224c-14.6 0-29.4 0-44 0v4h52v-4c-2 0-6 0-8 0z"/><path d="m196 232c-14.6 0-29.4 0-44 0v4h52v-4c-2 0-6 0-8 0z"/><path d="m196 240c-14.6 0-29.4 0-44 0v4h52v-4c-2 0-6 0-8 0z"/><path d="m196 248c-14.6 0-29.4 0-44 0v4h52v-4c-2 0-6 0-8 0z"/><path d="m188 140c0-6.4 0-13.6 0-20h-4v24h4z"/><path d="m140 220c-7.8 0-16.2 0-24 0l-4 4h32l4-4c-2 0-6 0-8 0z"/><path d="m108 220c-6.4 0-13.6 0-20 0v4h24v-4z"/><path d="m88 160c0-10.5 0-21.5 0-32h-4v4h-4v4h-4v4h-4v36h4v-4h4v-4h4v-4h4z"/><path d="m76 20h4v4l4 4c0-2 0-6 0-8h8v8h8l8-8v-4c-30.6 0-61.4 0-92 0v56h4v-4l8-8c-2 0-6 0-8 0v-4h8v4l4-4-4-4c-2 0-6 0-8 0 0-5 0-11 0-16l4-4h-4c0-3.6 0-8.4 0-12h8l4 4h4v-4h12v12l4-4c0-2 0-6 0-8h12v4l4-4zm24 0v4h-4v-4z"/></g><g fill="#646355"><path d="m308 144c-13.2 0-26.8 0-40 0v4h44v-4z"/><path d="m304 152c-11.9 0-24.1 0-36 0v4h44v-4c-2 0-6 0-8 0z"/><path d="m276 140h32v-4c-13.2 0-26.8 0-40 0v4z"/><path d="m264 160v4h44l4-4c-14.6 0-29.4 0-44 0v-4h-4z"/><path d="m264 68v-4l-4 4 4 4z"/><path d="m264 60h-4l4 4z"/><path d="m260 60c-18.6 0-37.4 0-56 0v4h-4v4h-4v4h4l4-4v4h8v-4l4 4 4-4 4 4h4v-4l4 4 4-4 4 4 4-4 4 4h4v-4l4 4 4-4c0-2 0-6 0-8z"/><path d="m212 144c-3.6 0-8.4 0-12 0l-4 4 4 4h8v32h4v-4l4 4h4c0-2 0-6 0-8h-4l4-4c0-9.2 0-18.8 0-28-2 0-6 0-8 0z"/><path d="m204 252c-17.2 0-34.8 0-52 0v-4h-4v8h60c0-2 0-6 0-8h-4z"/><path d="m192 144h-4v4h-4v4h8l4-4v-4z"/><path d="m160 224h44v-4c-17.2 0-34.8 0-52 0v4z"/><path d="m160 232h44v-4c-17.2 0-34.8 0-52 0v4z"/><path d="m160 240h44v-4c-17.2 0-34.8 0-52 0v4z"/><path d="m160 248h44v-4c-17.2 0-34.8 0-52 0v4z"/><path d="m148 232v-4l-4-4c-18.6 0-37.4 0-56 0v8l4 4h8l4 4h4v-4l4 4 4-4v4h4l4-4 4 4h4v-4l4 4h4v-4l4 4 4-4z"/><path d="m104 32 4-4c0-2 0-6 0-8-3.6 3.6-8.4 8.4-12 12v8z"/><path d="m96 56c-2 0-6 0-8 0l4 4h4z"/><path d="m88 240h8l-4-4h-4z"/><path d="m92 44h4v-4c-3.6 0-8.4 0-12 0v4z"/><path d="m88 212h4l-4-4z"/><path d="m88 180c0-3.6 0-8.4 0-12h-4v4h-4v4h-4v4h-4v4h12v-4l4 4z"/><path d="m76 76h8l8-8c0-2 0-6 0-8-2 2-6 6-8 8v4c-3.6 0-8.4 0-12 0v4z"/><path d="m68 72c-3.6 0-8.4 0-12 0l-4 4h16l4-4z"/><path d="m48 72c-10.5 0-21.5 0-32 0l4 4h32v-4z"/></g><g fill="#565045"><path d="m260 68 4-4-4-4z"/><path d="m260 52-4 4 4 4c0-2 0-6 0-8z"/><path d="m228 60 4-4h-4z"/><path d="m220 176v-4l-4 4z"/><path d="m196 140v8l4-4z"/><path d="m196 152h4l-4-4-4 4z"/><path d="m148 228c0-2 0-6 0-8l-4 4z"/><path d="m112 220v4l4-4-4-4z"/><path d="m96 236h-4l4 4h8l-4-4z"/><path d="m88 236h4l-4-4z"/><path d="m52 72v4l4-4-4-4z"/></g><g fill="#9a7536"><path d="m320 216c0-2 0-6 0-8l-4 4z"/><path d="m320 8c-2 0-6 0-8 0v8l-4 4 4 4 8-8-4-4h4z"/><path d="m316 104h-4l4 4 4-4c0-2 0-6 0-8l-4 4z"/><path d="m316 128h-4l-4 4v8l4-4h4v-4l4 4c0-5 0-11 0-16l-4 4z"/><path d="m312 304-4 4c-2-2-6-6-8-8-2 0-6 0-8 0l-4 4h-4v4c-2 0-6 0-8 0l-4-4c-2 2-6 6-8 8l-4-4c-2 0-6 0-8 0v4c-2 0-6 0-8 0v-4c-5 0-11 0-16 0l-4 4-4-4c-2 2-6 6-8 8v-4h-4c-2-2-6-6-8-8l-4 4c-2 0-6 0-8 0l-4 4c-2 0-6 0-8 0l-4-4c-2 0-6 0-8 0v-4h-4l-4 4-4-4h8c-2-2-6-6-8-8l-4 4c-2 0-6 0-8 0l-4 4v4h-4v4h-4l-4-4c-2 0-6 0-8 0l-4 4-4-4v-4h-4l-4-4c-2 0-6 0-8 0l-4 4h-4v-4c-2 0-6 0-8 0l-4 4c-2 0-6 0-8 0v4h-4l-4 4c-3.6-3.6-8.4-8.4-12-12l-4 4c-2 0-6 0-8 0-2 2-6 6-8 8l-4-4-4 4c-2-2-6-6-8-8-2 0-6 0-8 0v16l4-4c0-2 0-6 0-8l4 4v8l4-4h8l4 4 4-4 4 4c0-2 0-6 0-8l4 4h8c0-2 0-6 0-8l-4 4-4-4h8l4 4-4 4 4 4 4-4h8l4-4v8l4-4h4v-4l4 4 4-4 4 4 4-4 4 4h8c0-2 0-6 0-8l-4 4-4-4h8l4 4v4h4l4 4 4-4h8l4 4h8l12-12v8l4-4 4 4h4v-4l4 4v4h12l4-4v4h12l-4-4 4-4v8l8-8v8h8l-4-4h4v4h16l4-4 4 4h8l4-4v4h12c0-2 0-6 0-8l4 4h8l4-4h4v4l4 4h4v-4l4-4v8h4c0-3.6 0-8.4 0-12l4 4 4-4 8 8 4-4 4 4c0-2 0-6 0-8l4 4c0-2 0-6 0-8-2 0-6 0-8 0zm-176 12h-4l4-4zm32-4h4v4zm68 4v-4h4z"/><path d="m312 272v4h-4c-2 2-6 6-8 8v8l8-8v8l8-8v8h4c0-7.8 0-16.2 0-24h-4z"/><path d="m312 248v8l4 4c0-2 0-6 0-8l4 4c0-3.6 0-8.4 0-12h-4z"/><path d="m312 200-4 4v8l-4 4 4 4 4-4 4 4c0-2 0-6 0-8l-4-4h8c0-2 0-6 0-8-2 0-6 0-8 0z"/><path d="m312 72v4h-4v4h4l4 4 4-4c0-5 0-11 0-16-2 2-6 6-8 8z"/><path d="m312 56-4 4 4 4 4-4h4c0-3.6 0-8.4 0-12-2 2-6 6-8 8z"/><path d="m312 156v4l4 4 4-4c0-2 0-6 0-8l-4 4z"/><path d="m12 164 4 4 4-4c-2 0-6 0-8 0z"/><path d="m8 120c0-2 0-6 0-8l4-4v8l4 4 4-4 8 8c0-2 0-6 0-8l-4-4v-4h-4c0-2 0-6 0-8-5 0-11 0-16 0l-4 4v8z"/><path d="m8 0c-2 0-6 0-8 0v8z"/><path d="m4 12h8l4 4c0-2 0-6 0-8l-4-4-4 4-4-4z"/><path d="m8 192 4 4 4-4-4-4h4v4l4 4c0-2 0-6 0-8l-4-4v-4h-4l-4-4c-2 0-6 0-8 0v8h8l-4 4-4-4v8l4 4z"/><path d="m8 248-4-4h8l-4 4v8l4 4c0-2 0-6 0-8l4-4v4h-4l8 8 4-4-4-4c0-2 0-6 0-8l-4-4h-4v-4l-4-4c-2 0-6 0-8 0v4h4l-4 4v8l4 4z"/><path d="m4 276v8l4 4c0-2 0-6 0-8l4 4h8c0-2 0-6 0-8l-4-4c-2 0-6 0-8 0-2-2-6-6-8-8v8h4zm12 4h-4v-4z"/><path d="m8 40 4 4 4-4-4-4c0-2 0-6 0-8-2 0-6 0-8 0l-4-4v8h8l-4 4-4-4v8z"/><path d="m8 80-4-4h8l-4 4h8l4-4c-3.6-3.6-8.4-8.4-12-12l-4 4-4-4v16z"/><path d="m4 160v-4l8 8 4-4 4 4c0-2 0-6 0-8-2-2-6-6-8-8-2 0-6 0-8 0l-4-4v16l4 4zm8-4h-4v-4z"/><path d="m0 272v8l4-4z"/></g><g fill="#814f32"><path d="m12 188 4 4v-4z"/><path d="m320 16v-4h-4z"/><path d="m312 0v8h8c-2-2-6-6-8-8z"/><path d="m316 24v4c-2-2-6-6-8-8v8l4 4h4v4l4 4c0-7.8 0-16.2 0-24l-4 4z"/><path d="m316 64v4l4-4v-4h-4z"/><path d="m316 136h-4l-4 4 4 4h4v-4l4-4-4-4z"/><path d="m316 168v4l4 4c0-5 0-11 0-16l-4 4z"/><path d="m316 292h4v4h-4z"/><path d="m316 260-4-4-4 4v8l4 4 4-4h4v-4h-4z"/><path d="m316 224v-4l-4-4v8c-2-2-6-6-8-8v8h4v4l4 4h8l-4-4z"/><path d="m316 212 4-4c-2 0-6 0-8 0z"/><path d="m316 164-4-4-4 4v8l-4 4 8 8h4c0-3.6 0-8.4 0-12l-4-4z"/><path d="m312 104v8l4 4h4c0-3.6 0-8.4 0-12l-4 4z"/><path d="m308 316 4 4h8c-2-2-6-6-8-8z"/><path d="m312 288-4 4h4z"/><path d="m308 80v4l4 4v4h4c0-2 0-6 0-8h-4v-4z"/><path d="m308 68 4 4 4-4c-2-2-6-6-8-8z"/><path d="m316 300-4-4h-4v-4l-4-4-4 4 8 8z"/><path d="m308 0h-4l-4 4v4h8c0-2 0-6 0-8z"/><path d="m304 316v4h4v-4l-4-4z"/><path d="m304 312-4-4-4 4v8h8l-4-4z"/><path d="m284 4 4 4h4c0-2 0-6 0-8-2 0-6 0-8 0z"/><path d="m276 312h-4l-4 4c-2 0-6 0-8 0v4h20l-4-4z"/><path d="m272 0v8h8v-4h-4z"/><path d="m268 4 4-4c-2 0-6 0-8 0z"/><path d="m260 0c-2 0-6 0-8 0v4l4 4h8l4-4c-2 0-6 0-8 0z"/><path d="m236 0c-3.6 0-8.4 0-12 0l8 8h8l4-4-4-4z"/><path d="m236 316 4-4h-4z"/><path d="m224 320h8l-4-4z"/><path d="m224 4h-4l-4-4c-2 0-6 0-8 0l8 8h8z"/><path d="m208 320v-4h-4z"/><path d="m196 320v-4l-4 4z"/><path d="m172 316v-4h-4z"/><path d="m156 316h4v4h-4z"/><path d="m156 308 4-4c-2 0-6 0-8 0z"/><path d="m148 320h4c0-2 0-6 0-8l-4 4z"/><path d="m144 320c0-2 0-6 0-8-2 2-6 6-8 8z"/><path d="m136 312-4 4h4z"/><path d="m120 4h4l-4-4z"/><path d="m112 320h12v-4c-2 0-6 0-8 0z"/><path d="m104 316v4h8l-4-4z"/><path d="m112 12v-4l-4-4-4 4c-2 0-6 0-8 0l-4 4h16z"/><path d="m92 320h8v-4c-2 0-6 0-8 0z"/><path d="m96 312 4-4c-2 0-6 0-8 0z"/><path d="m80 312-4 4 4 4h8c0-2 0-6 0-8l-4 4z"/><path d="m72 8v-4h-4z"/><path d="m64 320h8v-4h-4z"/><path d="m48 320h12v-4c-2 0-6 0-8 0z"/><path d="m48 0-4 4h8z"/><path d="m40 316h-4v4h12l-4-4z"/><path d="m40 312 4-4c-2 0-6 0-8 0z"/><path d="m24 8v4h12l-4-4c-2 0-6 0-8 0z"/><path d="m24 320h8l-4-4z"/><path d="m16 128-4 4v8l4-4h4v-4l8-8c-2-2-6-6-8-8l-4 4 4 4z"/><path d="m20 4h8l4-4c-6.4 0-13.6 0-20 0v4l4 4z"/><path d="m20 268c0-2 0-6 0-8l-4-4-4 4-4-4v8l-4 4 4 4h8z"/><path d="m16 316h-4l4 4h8l-4-4z"/><path d="m16 160-4 4h8z"/><path d="m16 248-4 4h4z"/><path d="m16 280-4-4v4z"/><path d="m12 320v-4l-4 4z"/><path d="m8 76h-4l4 4 4-4z"/><path d="m0 216h8v-4h4c0-2 0-6 0-8l4 4v4h-4c-1 1-2.5 2.5-4 4s-3 3-4 4h8l8-8c0-5 0-11 0-16l-4-4-4 4-4-4c-2 2-6 6-8 8v8h4v-4l4-4v8c-2 2-6 6-8 8z"/><path d="m12 308 8-8c0-2 0-6 0-8l4-4-4-4c-2 0-6 0-8 0v4h-4l-4-4v8l-4-4v16h4v-4l8-8z"/><path d="m8 156h4l-4-4z"/><path d="m8 248 4-4c-2 0-6 0-8 0z"/><path d="m8 56 8-8c0-2 0-6 0-8l-4 4-4-4v8c-2 2-6 6-8 8v4h8z"/><path d="m8 20h4l4-4-4-4c-2 0-6 0-8 0l-4 4v8l4-4z"/><path d="m8 4v-4l-4 4 4 4z"/><path d="m8 32c-2 0-6 0-8 0l4 4z"/><path d="m8 184c-2 0-6 0-8 0l4 4z"/><path d="m4 88v4l8-8v8c-2 0-6 0-8 0v8h8v-4h4l8-8c0-2 0-6 0-8l-4-4-4 4c-2.5 0-5.3 0-8 0s-5.5 0-8 0l4 4z"/><path d="m12 180 8-8c0-2 0-6 0-8l-4 4c-1-1-2.5-2.5-4-4s-3-3-4-4v8l-4 4c0-2 0-6 0-8l-4-4v16h8z"/><path d="m4 320v-4l-4 4z"/><path d="m4 272h-4l4 4z"/><path d="m4 256v-4l-4-4v16l4-4z"/><path d="m4 136v-4l4-4h8c0-2 0-6 0-8l-4-4v4h-4l-4-4v8l-4 4v8l4 4z"/><path d="m0 48 8-8c-2 0-6 0-8 0z"/><path d="m0 236v4l4-4z"/><path d="m0 116v4l4-4-4-4z"/></g><g fill="#442f23"><path d="m320 144c0-2 0-6 0-8l-4 4z"/><path d="m316 0h-4l8 8c0-2 0-6 0-8z"/><path d="m316 88v4l4 4c0-5 0-11 0-16l-4 4z"/><path d="m316 176v12l4 4c0-5 0-11 0-16l-4-4z"/><path d="m316 216v12l4 4c0-5 0-11 0-16l-4-4z"/><path d="m316 256v8h4c0-2 0-6 0-8l-4-4z"/><path d="m316 312v4l4 4c0-2 0-6 0-8l-4-4z"/><path d="m316 292c0-2 0-6 0-8l-4 4v4h-4v4h4l4 4v4h4c0-2 0-6 0-8h-4z"/><path d="m312 240h8c0-2 0-6 0-8-2 2-6 6-8 8z"/><path d="m316 164-4 4 4 4c0-2 0-6 0-8z"/><path d="m316 68c0-2 0-6 0-8l-4 4z"/><path d="m316 24v-4l-4 4 4 4z"/><path d="m312 84h4l-4-4z"/><path d="m312 220v-4l-4 4 4 4z"/><path d="m308 4v8h4c0-3.6 0-8.4 0-12h-4z"/><path d="m308 320h4l-4-4z"/><path d="m308 284-4 4 4 4c0-2 0-6 0-8z"/><path d="m304 320c0-2 0-6 0-8l-4 4z"/><path d="m300 8v-4l4-4c-3.6 0-8.4 0-12 0v12h8z"/><path d="m292 312v8h4c0-2 0-6 0-8l-4-4z"/><path d="m284 320h4c0-2 0-6 0-8l-4 4z"/><path d="m280 12h4c0-3.6 0-8.4 0-12-3.6 0-8.4 0-12 0l4 4h4z"/><path d="m264 8v4h8c0-3.6 0-8.4 0-12-2 2-6 6-8 8z"/><path d="m260 0v4h8l-4-4z"/><path d="m256 316v4h4v-4l-4-4z"/><path d="m256 8-4-4v-4c-3.6 0-8.4 0-12 0l8 8-4 4h12z"/><path d="m244 320v-4l-4 4z"/><path d="m224 0c-2 0-6 0-8 0l4 4h4v8h8v-4c-2-2-6-6-8-8z"/><path d="m196 320h4c0-2 0-6 0-8l-4 4z"/><path d="m192 320c0-2 0-6 0-8l-4 4z"/><path d="m180 320v-4l-4 4z"/><path d="m160 316v4h4v-4l-4-4z"/><path d="m152 316v4h4v-4l-4-4z"/><path d="m144 316v4h4c0-3.6 0-8.4 0-12l-4 4z"/><path d="m124 320h4l-4-4z"/><path d="m112 4v4h4c0-2 0-6 0-8h-4z"/><path d="m100 312v8h4c0-2 0-6 0-8l-4-4z"/><path d="m96 0c-2 2-6 6-8 8h12v-4l4-4c-2 0-6 0-8 0z"/><path d="m88 316v4h4v-4l-4-4z"/><path d="m80 8h8l-4-4z"/><path d="m72 312v8h8c-2-2-6-6-8-8z"/><path d="m64 4v-4c-2 0-6 0-8 0v12h12l-4-4z"/><path d="m60 320h4c0-2 0-6 0-8l-4 4z"/><path d="m44 312v4l4-4-4-4z"/><path d="m44 0c-2 0-6 0-8 0v4l-4 4h16l-4-4z"/><path d="m32 316v4h4v-4l-4-4z"/><path d="m20 8v4h4c0-2 0-6 0-8h-4z"/><path d="m16 124v4l4-4-4-4z"/><path d="m12 208v4h4v-4l-4-4z"/><path d="m12 256v4l4-4-4-4z"/><path d="m12 320h4l-4-4z"/><path d="m12 304c0-3.6 0-8.4 0-12-2 2-6 6-8 8v4h4l4 4z"/><path d="m8 128-4 4v16h8c0-5 0-11 0-16l4-4c-2 0-6 0-8 0z"/><path d="m12 0h-4v8l4-4z"/><path d="m8 216 4-4h-4z"/><path d="m12 92c0-2 0-6 0-8-2 2-6 6-8 8z"/><path d="m8 116v4h4c0-3.6 0-8.4 0-12l-4 4z"/><path d="m8 284v4h4v-4l-4-4z"/><path d="m8 28c0-2 0-6 0-8h-4l-4 4 4 4z"/><path d="m8 48c0-2 0-6 0-8-2 2-6 6-8 8v8z"/><path d="m8 208c0-2 0-6 0-8l-4 4v4h-4v8z"/><path d="m8 64-4-4-4 4z"/><path d="m4 168v4l4-4c0-2 0-6 0-8l-4-4z"/><path d="m4 256v4l-4 4 4 4 4-4c0-5 0-11 0-16l-4 4z"/><path d="m4 312v8h4c0-2 0-6 0-8l-4-4z"/><path d="m4 288c0-3.6 0-8.4 0-12l-4 4v8l4 4z"/><path d="m0 216v16h4c0-3.6 0-8.4 0-12l4-4c-2 0-6 0-8 0z"/><path d="m4 120v-4l-4 4v8l4-4z"/><path d="m4 96c0-3.6 0-8.4 0-12l-4-4v24l4-4z"/><path d="m4 8v-4l-4 4v8l4-4z"/><path d="m0 192v8l4-4z"/></g><g fill="#44512f"><path d="m316 188-4 4-4-4v8c-2-2-6-6-8-8v8h-4v4l-4-4v8l-4-4v8l-4 4h8l-4 4h-4v4l-4 4-4-4v8l-4-4v8l8 8h-4v4l-4-4v8l-4 4h8l4 4-4 4h8l-4 4h-4v-4l-4 4-4-4v8h-4v4l-4-4-4 4-4-4v8c-2-2-6-6-8-8v8l-4 4h-4v4l-4-4v8h-4v12l-4-4v8h-4v4l4 4 4-4h16v4h8v-4h8l4 4 8-8 4 4h8v-4h4l4-4h8l8 8 4-4h4v-4c-2 0-6 0-8 0-2-2-6-6-8-8 0-2 0-6 0-8l8-8h4v-4l-4-4c0-2 0-6 0-8l4-4c0-2 0-6 0-8l4-4h4v-4c-2 0-6 0-8 0l8-8c-2 0-6 0-8 0l-4-4v-4h-4c0-2 0-6 0-8l4-4c0-2 0-6 0-8l4-4h8c0-2 0-6 0-8z"/><path d="m220 196h8l4-4c0-2 0-6 0-8l-4 4c0-2 0-6 0-8l-4 4-4-4v4h-4l-4-4v4h-4v12h4l4-4v4z"/><path d="m216 84h4l4-4v4h32v-4l4 4h4c0-3.6 0-8.4 0-12l-4-4-4 4-4-4v4h-4l-4-4-4 4-4-4-4 4-4-4v4h-4l-4-4-4 4-4-4v8l-4-4v8l4 4z"/><path d="m156 112h-4c0-2 0-6 0-8l-4 4-4-4c0-2 0-6 0-8l-4 4-4-4v4h-4l-4-4-4 4-4-4v8h-4v4l-4-4v4h-4v8l-4-4v4h-4l-4 4h64c0-2 0-6 0-8l-4 4z"/><path d="m140 236v4h-4l-4-4v4h-4l-4-4-4 4h-4v-4l-4 4-4-4v8l-4-4v8l4 4h8l4-4v4h16v-4l4 4h8c0-5 0-11 0-16l-4 4z"/><path d="m120 300h-4c0-2 0-6 0-8l-4 4-4-4c-2 0-6 0-8 0l-4-4v8l-4-4c0-2 0-6 0-8-2 2-6 6-8 8l-4-4-4 4-4-4v8l-4-4v12h4l4-4h8v4h4l4-4h8l4 4h4v4l4 4 4-4h8l-4-4z"/><path d="m52 128v-4l-4 4c0-2 0-6 0-8l-4 4-4-4 8-8c0-2 0-6 0-8l-4 4c0-2 0-6 0-8l-4 4h-4c0-3.6 0-8.4 0-12l-4 4h-4v-4l-4 4-4-4-4 4h-4v4h8v8h4v4l4 4v8c-2 2-6 6-8 8v4h-4l-4 4v8l8 8v12h12l-4-4 4-4h8l-4-4h8l-4-4 4-4c0-2 0-6 0-8l-4 4c0-2 0-6 0-8l-4 4-4-4h12v-4l4 4h8l-4-4z"/><path d="m48 260v-4l-4 4c0-2 0-6 0-8l-4 4c0-2 0-6 0-8h8l-4-4v-4h-4c0-2 0-6 0-8l-4 4-4-4h8l-4-4c0-2 0-6 0-8l-4 4c0-2 0-6 0-8l-4 4-4-4-4 4-4-4-4 4c-2 0-6 0-8 0v12h4l4 4v4h4l4 4v8l4 4-4 4v8l-4 4 4 4v8l4 4-4 4v8c-2 2-6 6-8 8l4 4 4-4 4 4 8-8h8l4-4c0-2 0-6 0-8l-4 4c0-2 0-6 0-8l-4 4v-4h12l-4-4c0-2 0-6 0-8l-4 4v-4h-4l-4-4h16l-4-4h8l-4-4z"/><path d="m4 144v-4l-4-4v8l4 4z"/></g><path d="m304 180h-4l-4-4v4c-6.4 0-13.6 0-20 0v-4h-4v-4h-4v-4h-4c0-26.6 0-53.4 0-80-18.6 0-37.4 0-56 0v-4h-4v-4h-4v-4h-4c0-17.2 0-34.8 0-52h4v-4h4v-4h4c0-2 0-6 0-8l4-4-4-4c-9.2 0-18.8 0-28 0v4h-4v-4c-9.2 0-18.8 0-28 0v4h-4v-4c-5 0-11 0-16 0l4 4v8h-4v4l-4 4h-4v-4l-4 4h-4v12c-3.6 3.6-8.4 8.4-12 12v4h-4l4 4v12c-2 0-6 0-8 0v4l4 4c-2 2-6 6-8 8-21.3 0-42.7 0-64 0v8l-4 4 4 4 4-4v4h4l4-4h-4v-4l4 4v12h4l4-4v8l4-4v8c-2 2-6 6-8 8l4 4 4-4v8l4-4v8l4 4c-2 0-6 0-8 0l-4-4v4h-4v8l4-4v8l-4 4 4 4 4-4v4c-3.6 0-8.4 0-12 0l4 4c-2 0-6 0-8 0l-4 4 4 4c-3.6 0-8.4 0-12 0v4c-2 2-6 6-8 8h4v4l4 4v24l-4 4 4 4 4-4 4 4 4-4v8l4-4v8l4 4v8h4v4l4 4 4-4v4c-3.6 0-8.4 0-12 0v8l4-4v8l4-4v8l4 4c-2 0-6 0-8 0l4 4c-5 0-11 0-16 0l4 4h4v4l4-4v8l4 4c-2 0-6 0-8 0v8l4-4v8l12 12 4-4h4v-4h4c0-3.6 0-8.4 0-12l4 4c0-2 0-6 0-8l4 4 4-4 4 4 8-8v8l4 4c0-2 0-6 0-8l4-4v4h-4l4 4h8l4 4 4-4v8h4v4l8 8h4v-4h4v-4l4-4h8l4-4 8 8h4v4h8l4 4h8l4-4h8l4-4 8 8h4v4l8-8v-4h4c0-2 0-6 0-8l4 4c0-3.6 0-8.4 0-12h4c0-2 0-6 0-8l4 4v-4h4l4-4c0-2 0-6 0-8l8 8c0-2 0-6 0-8l4 4 4-4 4 4v-4h4c0-2 0-6 0-8l4 4 8-8-4-4c-2 0-6 0-8 0l4-4c0-2 0-6 0-8l4 4v-4h4c-2-2-6-6-8-8 0-2 0-6 0-8l4 4c0-2 0-6 0-8l4 4 4-4v-4h4l4-4c-2 0-6 0-8 0l4-4c0-2 0-6 0-8l4 4c0-2 0-6 0-8l4 4v-4h4c0-2 0-6 0-8l4 4c0-2 0-6 0-8l4-4zm-100 116v-4l4 4zm-80 0v-4l4 4zm-68-12v-4l4 4zm44-204h12v4c-3.6 0-8.4 0-12 0zm8-24h4v4h-4zm12-16v4h-4zm48-28v4c-2 0-6 0-8 0v-4zm8 0v4l4-4h4v4c-3.6 0-8.4 0-12 0v-4zm-4 284v-4l4 4zm-140-104 4 4h-4zm60-96h4v4c-2 0-6 0-8 0v-4zm20-20h-4v-4h8v4zm28-48h4v4h-4zm20-8h4v4c-2 0-6 0-8 0v-4zm16 0v4c-2 0-6 0-8 0l4-4zm8 12h-4v-4h4zm0 20h-4l4-4zm68 92h-4l4-4zm-24 112v4c-2 0-6 0-8 0l-4-4v4c-31.9 0-64.1 0-96 0v-4l-4 4c-2 0-6 0-8 0-6.4-6.4-13.6-13.6-20-20 0-13.2 0-26.8 0-40h-4v-4h-4v-4h-4v-4h-4c0-17.2 0-34.8 0-52h4v-4h4v-4h4v-4h4v-4h8l4-4h4v-4l4 4c0-2 0-6 0-8h4v-4l4 4v-4h4c0-2 0-6 0-8l4 4 4-4 4 4h4v-4l4 4 4-4v8l4 4 4-4v8h4v4l4-4v8h4v4l4-4h16v-4h4v-4h32v44l20 20v32h-4v-4l-4 4h-4zm-28 20v-4l4 4zm-36-8h-4v-4zm-88-16 4 4h-4zm-4-48h-4l4-4zm-24-12h-4v-4zm36-96v4h-4v-4zm-8 12h8v4c-2 0-6 0-8 0zm44-24v-4h8v4c-2 0-6 0-8 0zm0-28h8v4c-2 0-6 0-8 0zm8-12h4v4h-4zm16 0h4v4c-2 0-6 0-8 0v-4zm8-8h4v4h-4zm-4-4v-4h8v4c-2 0-6 0-8 0zm20-4v4c-2 0-6 0-8 0v-4zm80 88h-4l4-4zm-4 116h-4l4-4zm-8-96h-4l4-4zm20 60h-4l4-4zm-120-104v-4h8v4c-2 0-6 0-8 0zm-8 0v-4h4v4zm4-12h8v4c-2 0-6 0-8 0zm-4-4h-4v-4h12l-4 4zm-4-12h4v4h-4zm20-12v4c-2 0-6 0-8 0v-4zm8-8h8v4c-2 0-6 0-8 0zm8 52c-2 0-6 0-8 0v-4h8zm16 12h-4l4-4zm-12-4h-4v-4h4zm-20-20v-4h4v4zm-4-12h4v4h-4zm-4-4h-4v-4h8v4zm28-24h4v4h-4zm-16 28h8v4c-2 0-6 0-8 0zm-4-4v-4h4v4zm20 4v4h-4v-4zm-8-16v4h-4v-4zm16 8h-4l4-4zm0 32c-2 0-6 0-8 0v-4h8l4 4zm12-4h-4l4-4zm-40-56h4l-4 4c-2 0-6 0-8 0v-4zm-28 52h4v4c-2 0-6 0-8 0v-4zm-8 8v4h-4v-4zm-36 0h-4v-4zm-4 20v4h-4zm136-16h-4v-4zm-52-84c-2 0-6 0-8 0v-4h4zm-16 12v4h-4v-4zm-36 60v4c-2 0-6 0-8 0v-4zm156 156v-4l4 4zm-72-240h4v4h-4zm-16 0h4l-4 4h-4v-4zm-16 0h8v4c-2 0-6 0-8 0zm-100 96 4 4h-4zm-16 76h-4l4-4zm124 112v4h-4zm116-80v-4l4 4z" fill="#8b893d"/><g fill="#8e8c3c"><path d="m280 264 4-4c-2 0-6 0-8 0v4z"/><path d="m36 292 4-4h-4z"/><path d="m32 232 4 4 4-4c-2 0-6 0-8 0z"/><path d="m32 136 4 4 4-4c-2 0-6 0-8 0z"/></g><g fill="#656935"><path d="m276 208h4l-4-4z"/><path d="m256 244h4l-4-4z"/><path d="m256 192-4 4h4z"/><path d="m252 140-4 4h4z"/><path d="m248 112-4 4h4z"/><path d="m244 232v-4l-4 4z"/><path d="m236 132-4 4h4z"/><path d="m212 72h-4l4 4z"/><path d="m204 296h4l-4-4z"/><path d="m200 100h4l-4-4z"/><path d="m200 272v4h4z"/><path d="m184 88-4 4h4z"/><path d="m184 48-4 4h4z"/><path d="m176 108v-4l-4 4z"/><path d="m172 296h4l-4-4z"/><path d="m172 60-4 4h4z"/><path d="m160 268h4l-4-4z"/><path d="m160 292v-4l-4 4z"/><path d="m124 296h4l-4-4z"/><path d="m108 240h-4l4 4z"/><path d="m100 288v-4l-4 4z"/><path d="m88 200v-4-4-4-4l-4-4v4h-4-4-4v4h4v4h4v4h4v4z"/><path d="m76 256h4l-4-4z"/><path d="m72 204v-4l-4 4z"/><path d="m68 96h4l-4-4z"/><path d="m68 116-4 4h4z"/><path d="m68 80h4 4 4 4 4l4-4 4-4-4-4-4 4-4 4h-4-4-4v-4l-4 4h-4-4-4-4-4-4-4-4-4-4-4-4l4 4h4 4 4 4 4 4 4 4 4 4z"/><path d="m56 284h4l-4-4z"/><path d="m52 100v4h4z"/><path d="m52 248v-4l-4 4z"/><path d="m48 152-4 4h4z"/><path d="m44 0v4l4-4z"/><path d="m44 192h4l-4-4z"/><path d="m36 176v-4l-4 4z"/><path d="m32 92h4l-4-4z"/><path d="m32 196h4l-4-4z"/><path d="m316 36v16l4-4c0-2 0-6 0-8z"/><path d="m316 96v4l4-4-4-4z"/><path d="m316 120v4l4-4v-4h-4z"/><path d="m316 144v12l4-4c0-2 0-6 0-8l-4-4z"/><path d="m308 180-4 4v8l4 4c0-2 0-6 0-8l4 4 4-4v-4h-4z"/><path d="m308 172c0-2 0-6 0-8-14.6 0-29.4 0-44 0v4h4v4h4v4h4v4h20v-4l4 4h8l-4-4z"/><path d="m308 8c-2 0-6 0-8 0v4h8z"/><path d="m292 8h-4l-4-4v8h8z"/><path d="m280 8c-2 0-6 0-8 0v4h8z"/><path d="m200 80h4v4h4v4h56v-4h-4l-4-4v4c-10.5 0-21.5 0-32 0v-4l-4 4c-2 0-6 0-8 0l-4-4c0-2 0-6 0-8h-4v-4l-4 4h-4v4h4z"/><path d="m264 8c-2 0-6 0-8 0v4h8z"/><path d="m244 12 4-4-4-4-4 4c-2 0-6 0-8 0v4h8z"/><path d="m240 208c0-10.5 0-21.5 0-32-2-2-6-6-8-8-3.6-3.6-8.4-8.4-12-12v24l4 4 4-4v8l4-4v8l-4 4c-3.6 0-8.4 0-12 0v-4l-4 4h-4v4l-4 4h4v52c-19.9 0-40.1 0-60 0v-4c-2 0-6 0-8 0l-4-4v4c-5 0-11 0-16 0v-4l-4 4c-2 0-6 0-8 0l-4-4c0-2 0-6 0-8-5 0-11 0-16 0l20 20h8l4-4v4h96v-4l4 4h8c0-17.2 0-34.8 0-52h4l4-4v4z"/><path d="m224 12v-4c-2 0-6 0-8 0l-4-4-4 4v4h8z"/><path d="m120 44v-4l-4 4z"/><path d="m108 12v16c-3.6 3.6-8.4 8.4-12 12v4h-4l4 4h4v-4c3.6-3.6 8.4-8.4 12-12 0-3.6 0-8.4 0-12h4l4-4v4h4l4-4v-4h4c0-2 0-6 0-8l-4-4c-2 0-6 0-8 0l4 4h-4v-4h-4v8h-4v4z"/><path d="m108 4 4 4c0-2 0-6 0-8-2 0-6 0-8 0l-4 4v4h4z"/><path d="m96 60h-4v4h8c0-3.6 0-8.4 0-12l-4-4v8z"/><path d="m84 52 4 4c0-2 0-6 0-8l4-4c-2 0-6 0-8 0z"/><path d="m88 12h4l4-4c-2.5 0-5.3 0-8 0s-5.5 0-8 0l4-4 4 4 8-8c-10.5 0-21.5 0-32 0v8l4 4zm-16-8v4l-4-4z"/><path d="m56 12c0-3.6 0-8.4 0-12-2 0-6 0-8 0l4 4c-2 0-6 0-8 0l4 4c-5 0-11 0-16 0l4 4z"/><path d="m36 4v-4h-4l-4 4h-4v4h8z"/><path d="m20 4-4 4v4h4c0-2 0-6 0-8z"/><path d="m8 24v4h4c0-2 0-6 0-8h-4z"/><path d="m8 60h-4l4 4 4 4c0-5 0-11 0-16l-4 4z"/><path d="m0 64 4 4 4-4h-4z"/><path d="m0 60v4l4-4z"/></g><g fill="none"><path d="m0 0h320"/><path d="m320 320h-320"/></g></svg>