<svg enable-background="new 0 0 32 32" viewBox="0 0 32 32" xmlns="http://www.w3.org/2000/svg"><path d="m16.8 7.3c-.4 0-1.2 0-1.6 0l-.8.8h3.2z" fill="#3e2118"/><path d="m14.4 22.5v.8h-.8z" fill="#482814"/><path d="m20 15.3-.8-.8h-.8v.8c-.4 0-1.2 0-1.6 0l-.8.8.8.8-.8.8-.8-.8.8-.8-.8-.8c-.4 0-1.2 0-1.6 0v-.8h-.8l-.8.8v.8h-.8l.8.8v.8h.8l.8.8h1.6l.8.8.8-.8h1.6l.8-.8h.8v-.8l.8-.8zm-7.2 1.6v-.8h.8v.8zm6.4 0h-.8v-.8h.8z" fill="#b19389"/><path d="m18.4 19.3v.8c-.4.4-1.2 1.2-1.6 1.6h1.6l1.6-1.6-.8-.8z" fill="#b19389"/><path d="m16 13.7h.8l.8-.8-.8-.8h.8c0-.4 0-1.2 0-1.6-.7 0-1.7 0-2.4 0l-.8.8v1.6l.8.8z" fill="#b19389"/><path d="m13.6 20.1v-.8h-.8l-.8.8 1.6 1.6h1.6c-.4-.4-1.2-1.2-1.6-1.6z" fill="#b19389"/><path d="m20 20.1c-.4.4-1.2 1.2-1.6 1.6-.4 0-1.2 0-1.6 0l-.8.8-.8-.8c-.4 0-1.2 0-1.6 0-.4-.4-1.2-1.2-1.6-1.6l-.8.8 2.4 2.4.8-.8v.8h4l2.4-2.4z" fill="#8d6f5b"/><path d="m17.6 12.9v-.8h-.8z" fill="#8d6f5b"/><path d="m16 10.5h1.6v-.8c-1 0-2.2 0-3.2 0v1.6l.8-.8z" fill="#8d6f5b"/><path d="m12 15.3-.8.8h.8z" fill="#8d6f5b"/><g fill="#177d88"><path d="m20 18.5-.8.8.8.8.8-.8c0-.4 0-1.2 0-1.6z"/><path d="m18.4 16.1h.8v.8h-.8z"/><path d="m16.8 20.1c-.4 0-1.2 0-1.6 0l-.8-.8h-.8v.8c.4.4 1.2 1.2 1.6 1.6h1.6c.4-.4 1.2-1.2 1.6-1.6v-.8h-.8z"/><path d="m15.4 16.4h1.1v1.1h-1.1z" transform="matrix(.7071 -.7071 .7071 .7071 -7.2796 16.2702)"/><path d="m13.6 8.9h1.6l.8.8.8-.8h1.6v-.8h.8l-.8-.8-.8.8c-1 0-2.2 0-3.2 0l-.8-.8-.8.8h.8z"/><path d="m13.6 15.3h1.6l.8.8.8-.8h1.6v-.8h.8l-.8-.8h-.8v.8c-1 0-2.2 0-3.2 0v-.8h-.8l-.8.8h.8z"/><path d="m12.8 16.1h.8v.8h-.8z"/><path d="m11.2 17.7v1.6l.8.8.8-.8c-.4-.4-1.2-1.2-1.6-1.6z"/></g><g fill="#134761"><path d="m20.8 20.9c0-.4 0-1.2 0-1.6l-.8.8z"/><path d="m20 16.9v.8h-.8l-.8.8c-.4 0-1.2 0-1.6 0l-.8.8-.8-.8c-.4 0-1.2 0-1.6 0l-.8-.8h-.8v-.8l-.8-.8v1.6c.4.4 1.2 1.2 1.6 1.6h1.6l.8.8h1.6l.8-.8h1.6c.4-.4 1.2-1.2 1.6-1.6 0-.4 0-1.2 0-1.6z"/><path d="m18.4 8.1v.8l.8-.8z"/><path d="m17.6 9.7.8-.8c-.4 0-1.2 0-1.6 0l-.8.8z"/><path d="m15.2 21.7.8.8.8-.8c-.4 0-1.2 0-1.6 0z"/><path d="m15.2 14.5h2.4v-.8h.8l-.8-.8-.8.8c-.4 0-1.2 0-1.6 0l-.8-.8-.8.8h.8v.8z"/><path d="m15.2 9.7h.8l-.8-.8c-.4 0-1.2 0-1.6 0l.8.8z"/><path d="m15.2 7.3h1.6l.8.8.8-.8-.8-.8c-1 0-2.2 0-3.2 0l-.8.8.8.8z"/><path d="m13.6 8.1h-.8l.8.8z"/><path d="m11.2 20.1v.8l.8-.8-.8-.8z"/></g><path d="m20 21.7c-.4.4-1.2 1.2-1.6 1.6-1.6 0-3.2 0-4.8 0-.4-.4-1.2-1.2-1.6-1.6l-.8.8v1.6c.4.4 1.2 1.2 1.6 1.6h6.4l1.6-1.6c0-.4 0-1.2 0-1.6z" fill="#352e23" opacity=".75"/></svg>