<svg enable-background="new 0 0 32 32" viewBox="0 0 32 32" xmlns="http://www.w3.org/2000/svg"><path d="m17.2 22.7h-2.3v1.2h2.3z" fill="#3c4656"/><path d="m24.1 14.6c-5.8 0-11.7 0-17.4 0v5.8h18.6c0-1.8 0-4 0-5.8z" fill="#3e6b84"/><path d="m24.5 22.7h-.4-5.7v2.3c-1.3 0-3.3 0-4.7 0 0-.6 0-1.7 0-2.3-2.1 0-4.8 0-7 0v5.8h18.6c0-1.9 0-3.9 0-5.8z" fill="#3e6b84"/><g fill="#bec6cc"><path d="m26.5 14.6h-1.2v1.1h2.4v-1.1z"/><path d="m23 20.4c-5.4 0-10.9 0-16.3 0v1.1h18.6v-1.1c-.6 0-1.7 0-2.3 0z"/><path d="m23 28.5c-5.4 0-10.9 0-16.3 0v1.2h18.6v-1.2c-.6 0-1.7 0-2.3 0z"/><path d="m6.7 14.6c-.6 0-1.7 0-2.3 0v1.1h2.3z"/></g><g fill="#878c91"><path d="m26.5 13.4h-1.2l-1.2 1.2h3.6v-1.2z"/><path d="m25.3 15.7v5.8c-6.2 0-12.4 0-18.6 0 0-1.9 0-3.9 0-5.8-.6 0-1.7 0-2.3 0v16.3h23.3c0-5.4 0-10.9 0-16.3-.7 0-1.8 0-2.4 0zm-10.4 7h2.3v1.2c-.6 0-1.7 0-2.3 0zm6.9 7c-5 0-10.1 0-15.1 0 0-2.3 0-4.7 0-7h7v2.3h4.7c0-.6 0-1.7 0-2.3h6.9v7c-1.1 0-2.5 0-3.5 0z"/><path d="m6.7 14.6h1.2l-1.2-1.2c-.6 0-1.7 0-2.3 0v1.2z"/></g></svg>