<svg enable-background="new 0 0 32 32" height="32" viewBox="0 0 32 32" width="32" xmlns="http://www.w3.org/2000/svg"><path d="m21.6 9.2c-4 0-8 0-12 0v3.2h12.8c0-1 0-2.2 0-3.2z" fill="#472b1e"/><path d="m21.6 13.2v.8c-.4 0-1.2 0-1.6 0v-.8c-2.6 0-5.4 0-8 0v.8c-.4 0-1.2 0-1.6 0v-.8h-.8v2.4h12.8c0-.7 0-1.7 0-2.4z" fill="#523123"/><path d="m15.2 17.2v.8h1.6v-.8c-.4 0-1.2 0-1.6 0z" fill="#472b1e"/><path d="m21.6 17.2c-1.3 0-2.7 0-4 0v1.6c-1 0-2.2 0-3.2 0 0-.4 0-1.2 0-1.6-1.6 0-3.2 0-4.8 0v4h12.8c0-1.3 0-2.7 0-4z" fill="#7a2116"/><g fill="#b6ac96"><path d="m23.2 7.6c-5.1 0-10.1 0-15.2 0v.8h16v-.8z"/><path d="m22.4 13.2v2.4c-4.3 0-8.5 0-12.8 0 0-.7 0-1.7 0-2.4-.4 0-1.2 0-1.6 0v3.2h16c0-1 0-2.2 0-3.2-.4 0-1.2 0-1.6 0z"/><path d="m20.8 21.2c-3.7 0-7.5 0-11.2 0v.8h12.8v-.8c-.4 0-1.2 0-1.6 0z"/><path d="m21.6 13.2v-.8c-.4 0-1.2 0-1.6 0v.8z"/><path d="m12 13.2v-.8c-.4 0-1.2 0-1.6 0v.8z"/></g><g fill="#7d6d61"><path d="m23.2 8.4c-5.1 0-10.1 0-15.2 0v4.8h2.4v-.8h-.8c0-1 0-2.2 0-3.2h12.8v3.2h-.8v.8h2.4c0-1.6 0-3.2 0-4.8z"/><path d="m22.4 16.4c-4.8 0-9.6 0-14.4 0v7.2h16c0-2.4 0-4.8 0-7.2-.4 0-1.2 0-1.6 0zm-6.4.8h.8v.8c-.4 0-1.2 0-1.6 0v-.8zm-5.6 0h4v1.6h3.2c0-.4 0-1.2 0-1.6h4.8v4.8c-4.3 0-8.5 0-12.8 0 0-1.6 0-3.2 0-4.8z"/><path d="m20 13.2v.8h1.6v-.8c-.4 0-1.2 0-1.6 0z"/><path d="m19.2 12.4c-2.4 0-4.8 0-7.2 0v.8h8v-.8z"/><path d="m10.4 13.2v.8h1.6v-.8c-.4 0-1.2 0-1.6 0z"/></g><path d="m26.4 21.2c-.7-.7-1.7-1.7-2.4-2.4v4.8c-5.3 0-10.7 0-16 0l3.2 3.2h16c0-1.6 0-3.2 0-4.8z" fill="#352e23" opacity=".5"/></svg>