<svg enable-background="new 0 0 32 32" viewBox="0 0 32 32" xmlns="http://www.w3.org/2000/svg"><path d="m26.4 28.8-.8.8h1.6z" fill="#827e7b"/><path d="m12 32h1.6l-.8-.8z" fill="#827e7b"/><path d="m11.2 12c-1.3 1.3-2.7 2.7-4 4 .4.4 1.2 1.2 1.6 1.6 1-1 2.2-2.2 3.2-3.2 0-1 0-2.2 0-3.2z" fill="#a89f9b"/><g fill="#928b86"><path d="m17.6 11.2c-1.8 0-3.8 0-5.6 0v3.2h1.6l.8.8v-.8h4c0-1 0-2.2 0-3.2z"/><path d="m7.2 22.4v4.8c.4.4 1.2 1.2 1.6 1.6 0-2.1 0-4.3 0-6.4-.4 0-1.2 0-1.6 0z"/><path d="m7.2 16v4.8c.4.4 1.2 1.2 1.6 1.6 0-1.6 0-3.2 0-4.8-.4-.4-1.2-1.2-1.6-1.6z"/></g><path d="m24.8 30.4-.8-.8c-.4.4-1.2 1.2-1.6 1.6h3.2z" fill="#56504e"/><path d="m23.2 28.8.8-.8-.8-.8v-.8-.8l-.8-.8h.8c0-2.9 0-5.9 0-8.8-1.6-1.6-3.2-3.2-4.8-4.8v3.2l3.2 3.2-.8.8.8.8v3.2 6.4c-2.9 0-5.9 0-8.8 0-1.3 0-2.7 0-4 0-.4-.4-1.2-1.2-1.6-1.6l-.8.8 2.4 2.4h5.6 5.6 1.6z" fill="#5b5655"/><g fill="#56504e"><path d="m12 25.6h1.6c0-.4 0-1.2 0-1.6l1.6-1.6 1.6 1.6v1.6h1.6v-.8h.8c0-.4 0-1.2 0-1.6-.4 0-1.2 0-1.6 0-.4-.4-1.2-1.2-1.6-1.6.4-.4 1.2-1.2 1.6-1.6h1.6c0-.4 0-1.2 0-1.6h-.8v-.8c-.4 0-1.2 0-1.6 0v1.6c-.4.4-1.2 1.2-1.6 1.6-.4-.4-1.2-1.2-1.6-1.6 0-.4 0-1.2 0-1.6-.4 0-1.2 0-1.6 0v.8h-.8v1.6h1.6c.4.4 1.2 1.2 1.6 1.6-.4.4-1.2 1.2-1.6 1.6-.4 0-1.2 0-1.6 0v1.6h.8z"/><path d="m8.8 22.4-.8-.8-.8.8z"/><path d="m7.2 30.4c-.4.4-1.2 1.2-1.6 1.6h3.2c-.4-.4-1.2-1.2-1.6-1.6z"/><path d="m6.4 29.6-.8-.8-.8.8z"/></g><path d="m21.6 17.6-.8-.8c-.7-.7-1.7-1.7-2.4-2.4-1.3 0-2.7 0-4 0v.8l-.8-.8c-.4 0-1.2 0-1.6 0-1 1-2.2 2.2-3.2 3.2v11.2h12.8c0-2.1 0-4.3 0-6.4 0-1 0-2.2 0-3.2l-.8-.8zm-6.4-1.6.8.8-.8.8-.8-.8zm0 11.2-.8-.8.8-.8.8.8zm4-8v.8c-.4 0-1.2 0-1.6 0-.4.4-1.2 1.2-1.6 1.6l1.6 1.6h1.6v1.6h-.8v.8c-.4 0-1.2 0-1.6 0 0-.4 0-1.2 0-1.6-.4-.4-1.2-1.2-1.6-1.6-.4.4-1.2 1.2-1.6 1.6v1.6c-.4 0-1.2 0-1.6 0v-.8h-.8c0-.4 0-1.2 0-1.6h1.6c.4-.4 1.2-1.2 1.6-1.6-.4-.4-1.2-1.2-1.6-1.6-.4 0-1.2 0-1.6 0 0-.4 0-1.2 0-1.6h.8v-.8h1.6v1.6c.4.4 1.2 1.2 1.6 1.6l1.6-1.6c0-.4 0-1.2 0-1.6h1.6v.8h.8z" fill="#726f6e"/><g fill="#5b5655"><path d="m14.4 26.4.8-.8.8.8-.8.8z"/><path d="m14.4 16.8.8-.8.8.8-.8.8z"/></g></svg>