<svg enable-background="new 0 0 32 32" viewBox="0 0 32 32" xmlns="http://www.w3.org/2000/svg"><path d="m16 17.2h-.8v.8h1.6v-.8z" fill="#523123"/><path d="m21.6 11.6c-4 0-8 0-12 0v4h12.8c0-1.3 0-2.7 0-4z" fill="#7a2116"/><path d="m20.8 17.2c-1 0-2.2 0-3.2 0v1.6c-1 0-2.2 0-3.2 0 0-.4 0-1.2 0-1.6-1.6 0-3.2 0-4.8 0v4h12.8c0-1.3 0-2.7 0-4-.4 0-1.2 0-1.6 0z" fill="#7a2116"/><path d="m26.4 21.2c-.7-.7-1.7-1.7-2.4-2.4v4.8c-5.3 0-10.7 0-16 0l3.2 3.2h16c0-1.6 0-3.2 0-4.8z" fill="#352e23" opacity=".5"/><g fill="#b6ac96"><path d="m23.2 11.6h-.8v.8h1.6v-.8z"/><path d="m20.8 15.6c-3.7 0-7.5 0-11.2 0v.8h12.8v-.8c-.4 0-1.2 0-1.6 0z"/><path d="m20.8 21.2c-3.7 0-7.5 0-11.2 0v.8h12.8v-.8c-.4 0-1.2 0-1.6 0z"/><path d="m9.6 11.6c-.4 0-1.2 0-1.6 0v.8h1.6z"/></g><g fill="#7d6d61"><path d="m23.2 10.8h-.8l-.8.8h2.4v-.8z"/><path d="m22.4 12.4v4c-4.3 0-8.5 0-12.8 0 0-1.3 0-2.7 0-4-.4 0-1.2 0-1.6 0v11.2h16c0-3.7 0-7.5 0-11.2-.4 0-1.2 0-1.6 0zm-6.4 4.8h.8v.8c-.4 0-1.2 0-1.6 0v-.8zm-5.6 0h4v1.6h3.2c0-.4 0-1.2 0-1.6h4.8v4.8c-4.3 0-8.5 0-12.8 0 0-1.6 0-3.2 0-4.8z"/><path d="m9.6 11.6h.8l-.8-.8c-.4 0-1.2 0-1.6 0v.8z"/></g></svg>