<svg enable-background="new 0 0 32 32" viewBox="0 0 32 32" xmlns="http://www.w3.org/2000/svg"><path d="m21.6 15.3h-.8v-.8z" fill="#cc6c83"/><path d="m20.8 14.5h-.8v-.8z" fill="#cc6c83"/><path d="m17.6 12.9c-1 0-2.2 0-3.2 0l-.8.8.8.8h3.2l.8-.8z" fill="#46162c"/><path d="m17.6 20.1v-.8l-.8.8z" fill="#46162c"/><path d="m14.4 20.1h.8l-.8-.8z" fill="#46162c"/><path d="m20 20.1c-.4-.4-1.2-1.2-1.6-1.6l-.8.8.8.8-.8.8c-1 0-2.2 0-3.2 0l-.8-.8.8-.8-.8-.8c-.7.7-1.7 1.7-2.4 2.4.7.7 1.7 1.7 2.4 2.4h4.8l2.4-2.4z" fill="#352e23" opacity=".75"/><path d="m12 13.7v.8h-.8z" fill="#cc6c83"/><g fill="#492c6a"><path d="m20 13.7.8.8v-.8z"/><path d="m20 15.3.8-.8h-.8z"/><path d="m18.4 16.9.8-.8h-.8z"/><path d="m17.6 12.1c-1.3 0-2.7 0-4 0v.8h-.8v.8h.8l.8-.8h3.2l.8.8h.8v-.8l-.8-.8z"/><path d="m17.6 20.1h-.8l.8.8.8-.8-.8-.8z"/><path d="m16.8 16.9-.8-.8-.8.8z"/><path d="m15.2 20.1.8.8.8-.8c-.4 0-1.2 0-1.6 0z"/><path d="m14.4 19.3-.8.8.8.8.8-.8h-.8z"/><path d="m13.6 16.1h-.8l.8.8z"/><path d="m12 14.5h-.8l.8.8z"/><path d="m11.2 13.7v.8l.8-.8z"/></g><path d="m20 15.3v-.8h-.8l-.8.8c-.4 0-1.2 0-1.6 0l-.8.8.8.8-.8.8-.8-.8.8-.8-.8-.8c-.4 0-1.2 0-1.6 0l-.8-.8h-.8v.8h-.8v.8l2.4 2.4h4.8c.7-.7 1.7-1.7 2.4-2.4v-.8zm-7.2 1.6v-.8h.8v.8zm6.4 0h-.8v-.8h.8z" fill="#cc6c83"/><g fill="#7e489b"><path d="m20 15.3h.8v-.8z"/><path d="m20 13.7-.8-.8v.8h-.8l-.8.8c-1 0-2.2 0-3.2 0l-.8-.8h-.8v-.8l-.8.8v.8h.8l.8.8h1.6l.8.8.8-.8h1.6l.8-.8h.8z"/><path d="m19.2 16.9v-.8l-.8.8z"/><path d="m16 20.9h1.6l-.8-.8z"/><path d="m16.8 16.9c-.4 0-1.2 0-1.6 0l.8.8z"/><path d="m14.4 20.9h1.6l-.8-.8z"/><path d="m12.8 16.9h.8l-.8-.8z"/><path d="m11.2 15.3h.8l-.8-.8z"/></g><path d="m20.8 15.3v.8l.8-.8z" fill="#953c58"/><path d="m16.8 18.5c-1 0-2.2 0-3.2 0l1.6 1.6h1.6c.4-.4 1.2-1.2 1.6-1.6-.4 0-1.2 0-1.6 0z" fill="#953c58"/><path d="m11.2 16.1v-.8h-.8z" fill="#953c58"/><path d="m11.2 14.5v.8h-.8z" fill="#cc6c83"/></svg>