<svg enable-background="new 0 0 32 32" height="32" viewBox="0 0 32 32" width="32" xmlns="http://www.w3.org/2000/svg"><path d="m22.8334 11.4445 1.1389 1.1389h-1.1389z" fill="#c07288"/><path d="m21.6944 11.4445v-1.1389l1.139 1.1389z" fill="#c07288"/><path d="m18.2778 9.1666c-1.4269 0-3.1287 0-4.5555 0l-1.1389 1.1389 1.1389 1.139h4.5555l1.1389-1.139z" fill="#46162c"/><path d="m18.2778 19.4167v-1.1389l-1.139 1.1389z" fill="#46162c"/><path d="m13.7222 19.4167h1.139l-1.139-1.1389z" fill="#46162c"/><path d="m10.3056 10.3056v1.1389h-1.139z" fill="#c07288"/><path d="m21.6944 19.4167c-.5673-.5673-1.7106-1.7106-2.2777-2.2777l-1.1389 1.1389 1.1389 1.1389-1.1389 1.1389c-1.4269 0-3.1287 0-4.5555 0l-1.1389-1.1389 1.1389-1.1389-1.1389-1.1389c-1.0144 1.0143-2.4025 2.4024-3.4167 3.4166 1.0143 1.0143 2.4024 2.4025 3.4167 3.4167h6.8333c1.0143-1.0143 2.4024-2.4025 3.4166-3.4167z" fill="#352e23" opacity=".5"/><path d="m21.6944 12.5833v-1.1389h-1.1389l-1.1389 1.1389c-.5671 0-1.7108 0-2.2778 0l-1.1388 1.1389 1.1389 1.1389-1.1389 1.1389-1.1389-1.1389 1.1389-1.1389-1.1389-1.1389c-.5671 0-1.7108 0-2.2777 0l-1.139-1.1389h-1.1389v1.1389h-1.139v1.1389l3.4167 3.4167h6.8333c1.0143-1.0144 2.4024-2.4025 3.4166-3.4167v-1.1389zm-10.2499 2.2778v-1.1389h1.139v1.1389zm9.111 0h-1.1389v-1.1389h1.1389z" fill="#cc6c83"/><path d="m21.6944 12.5833h1.1389v-1.1389z" fill="#7e489b"/><path d="m21.6944 10.3055-1.1389-1.1389v1.1389h-1.1389l-1.1389 1.139c-1.4269 0-3.1287 0-4.5555 0l-1.1389-1.139h-1.139v-1.1389l-1.1389 1.1389v1.139h1.1389l1.139 1.1389h2.2777l1.139 1.1388 1.1389-1.1389h2.2778l1.1389-1.1389h1.1389z" fill="#7e489b"/><path d="m20.5555 14.8611v-1.139l-1.1389 1.139z" fill="#7e489b"/><path d="m16 20.5555h2.2778l-1.139-1.1389z" fill="#7e489b"/><path d="m17.1389 14.8611c-.5671 0-1.7108 0-2.2777 0l1.1388 1.1389z" fill="#7e489b"/><path d="m13.7222 20.5555h2.2777l-1.1389-1.1389z" fill="#7e489b"/><path d="m11.4445 14.8611h1.1389l-1.1389-1.139z" fill="#7e489b"/><path d="m9.1666 12.5833h1.1389l-1.1389-1.1389z" fill="#7e489b"/><g fill="#492c6a"><path d="m21.6944 10.3055 1.1389 1.139v-1.139z"/><path d="m21.6944 12.5833 1.1389-1.1389h-1.1389z"/><path d="m19.4167 14.8611 1.1389-1.139h-1.1389z"/><path d="m18.2778 19.4167h-1.139l1.139 1.1389 1.1389-1.1389-1.1389-1.1389z"/><path d="m18.2778 8.0278c-1.8256 0-3.8688 0-5.6944 0v1.1389h-1.139v1.1389h1.139l1.1389-1.1389h4.5555l1.1389 1.1389h1.1389v-1.139l-1.1389-1.1389h-1.1389z"/><path d="m17.1389 14.8611-1.1389-1.1389-1.1389 1.1389z"/><path d="m14.8611 19.4167 1.1389 1.1388 1.1389-1.1389c-.5671.0001-1.7109.0001-2.2778.0001z"/><path d="m13.7222 18.2778-1.1389 1.1389 1.1389 1.1389 1.139-1.1389h-1.139z"/><path d="m12.5833 13.7222h-1.1389l1.1389 1.139z"/><path d="m10.3055 11.4445h-1.1389l1.1389 1.1389z"/><path d="m9.1666 10.3055v1.139l1.1389-1.139z"/></g><path d="m9.1666 11.4445v1.1389h-1.1388z" fill="#c07288"/><path d="m22.8333 12.5833v1.1389l1.139-1.1389z" fill="#953c58"/><path d="m17.1389 17.1389c-1.4269 0-3.1286 0-4.5555 0l2.2777 2.2777h2.2777c.5673-.5673 1.7106-1.7105 2.2778-2.2777-.567 0-1.7108 0-2.2777 0z" fill="#953c58"/><path d="m9.1666 13.7222v-1.1389h-1.1388z" fill="#953c58"/></svg>