<svg enable-background="new 0 0 32 32" viewBox="0 0 32 32" xmlns="http://www.w3.org/2000/svg"><path d="m28.8 15.6c-7.2 0-14.4 0-21.6 0v1.6h16l.8-.8.8.8h4.8c0-.4 0-1.2 0-1.6z" fill="#958c6a"/><path d="m6.4 16.4c-1.3-1.3-2.7-2.7-4-4v1.6c1.6 1.6 3.2 3.2 4.8 4.8 0-.4 0-1.2 0-1.6z" fill="#5a4935"/><path d="m28.8 14.8c-1.6-1.6-3.2-3.2-4.8-4.8-3.2 0-6.4 0-9.6 0l-.8.8v-.8c-4 0-8 0-12 0l5.6 5.6h22.4zm-18.4 0c-.7 0-1.7 0-2.4 0-1.3-1.3-2.7-2.7-4-4h3.2l4 4zm4.8 0c-.7 0-1.7 0-2.4 0-1.3-1.3-2.7-2.7-4-4h3.2l4 4zm6.4 0c-.7 0-1.7 0-2.4 0-1.3-1.3-2.7-2.7-4-4h3.2l4 4zm4.8 0c-.7 0-1.7 0-2.4 0-1.3-1.3-2.7-2.7-4-4h3.2l4 4z" fill="#a9a176"/><path d="m27.2 18.8c-6.7 0-13.3 0-20 0v6.4h4.8l3.2-3.2v3.2h13.6c0-1.3 0-2.7 0-4l-.8-.8h.8c0-.4 0-1.2 0-1.6-.4 0-1.2 0-1.6 0z" fill="#a9a176"/><path d="m30.4 26c-.4-.4-1.2-1.2-1.6-1.6v.8c-7.2 0-14.4 0-21.6 0-1.6-1.5-3.2-3.2-4.8-4.8h-.8v.8l5.6 5.6h24z" fill="#352e23" opacity=".75"/><g fill="#7c7355"><path d="m28.8 21.2v-.8h-.8z"/><path d="m28 17.2c-1 0-2.2 0-3.2 0l-.8-.8-.8.8c-5.3 0-10.7 0-16 0v1.6h21.6c0-.4 0-1.2 0-1.6z"/><path d="m21.6 12.4 2.4 2.4h3.2c-1.3-1.3-2.7-2.7-4-4-1 0-2.2 0-3.2 0 .4.4 1.2 1.2 1.6 1.6z"/><path d="m16.8 12.4 2.4 2.4h3.2c-1.3-1.3-2.7-2.7-4-4-1 0-2.2 0-3.2 0 .4.4 1.2 1.2 1.6 1.6z"/><path d="m13.6 23.6c-.4.4-1.2 1.2-1.6 1.6h3.2c0-1 0-2.2 0-3.2-.4.4-1.2 1.2-1.6 1.6z"/><path d="m13.6 10v.8l.8-.8z"/><path d="m10.4 12.4 2.4 2.4h3.2c-1.3-1.3-2.7-2.7-4-4-1 0-2.2 0-3.2 0z"/><path d="m7.2 15.6c-1.8-1.8-3.8-3.8-5.6-5.6v1.6c1.8 1.8 3.8 3.8 5.6 5.6 0-.4 0-1.2 0-1.6z"/><path d="m5.6 17.2c-1-1-2.2-2.2-3.2-3.2v6.4c1.6 1.6 3.2 3.3 4.8 4.8 0-2.1 0-4.3 0-6.4-.4-.4-1.2-1.2-1.6-1.6z"/><path d="m5.6 12.4c.7.7 1.7 1.7 2.4 2.4h3.2c-1.3-1.3-2.7-2.7-4-4-1 0-2.2 0-3.2 0z"/></g></svg>