<svg enable-background="new 0 0 32 32" viewBox="0 0 32 32" xmlns="http://www.w3.org/2000/svg"><path d="m12 11.6h-.8l.8-.8z" fill="#837d64"/><path d="m22.4 7.6h.8l-.8.8z" fill="#837d64"/><path d="m26.4 15.6c-.7-.7-1.7-1.7-2.4-2.4v3.2h3.2z" fill="#5a4935"/><path d="m30.4 26c-.4-.4-1.2-1.2-1.6-1.6v.8c-7.2 0-14.4 0-21.6 0-1.6-1.5-3.2-3.2-4.8-4.8v1.6l4.8 4.8h24z" fill="#352e23" opacity=".75"/><path d="m28 17.2c-6.9 0-13.9 0-20.8 0v8h4.8c1-1 2.2-2.2 3.2-3.2v3.2h13.6c0-1.8 0-3.8 0-5.6l-.8-.8h.8c0-.4 0-1.2 0-1.6z" fill="#a9a176"/><path d="m12 12.4c1-1 2.2-2.2 3.2-3.2 0-.4 0-1.2 0-1.6-1 1-2.2 2.2-3.2 3.2v.8h-.8l-.8.8z" fill="#a9a176"/><path d="m28 15.6c-1-1-2.2-2.2-3.2-3.2-7.5 0-14.9 0-22.4 0 1.6 1.6 3.2 3.3 4.8 4.8h21.6v-.8zm-1.6.8c-6.1 0-12.3 0-18.4 0-1-1-2.2-2.2-3.2-3.2h19.2l3.2 3.2z" fill="#958c6a"/><path d="m16.8 9.2h8c0-.4 0-1.2 0-1.6-.4 0-1.2 0-1.6 0l-.8.8v-.8c-2.4 0-4.8 0-7.2 0v1.6z" fill="#958c6a"/><g fill="#7c7355"><path d="m5.6 15.6c-1-1-2.2-2.2-3.2-3.2v8c1.6 1.6 3.2 3.3 4.8 4.8 0-2.6 0-5.4 0-8-.4-.4-1.2-1.2-1.6-1.6z"/><path d="m13.6 23.6c-.4.4-1.2 1.2-1.6 1.6h3.2c0-1 0-2.2 0-3.2-.4.4-1.2 1.2-1.6 1.6z"/><path d="m28 18.8.8.8v-.8z"/><path d="m22.4 13.2c-5.9 0-11.7 0-17.6 0l3.2 3.2h16c0-1 0-2.2 0-3.2-.4 0-1.2 0-1.6 0z"/><path d="m23.2 9.2c-2.6 0-5.4 0-8 0-1 1-2.2 2.2-3.2 3.2h9.6l.8-.8v-.8h.8c.4-.4 1.2-1.2 1.6-1.6-.4 0-1.2 0-1.6 0z"/></g></svg>