<svg enable-background="new 0 0 32 32" height="32" viewBox="0 0 32 32" width="32" xmlns="http://www.w3.org/2000/svg"><path d="m16.9347 5.5507c-.4674 0-1.4021 0-1.8694 0l-.9347.9347h3.7389z" fill="#3e2118"/><path d="m14.1306 23.3104v.9347h-.9347z" fill="#482814"/><path d="m20.6736 14.8979-.9347-.9347h-.9347v.9347c-.4674 0-1.4021 0-1.8694 0l-.9348.9347.9347.9347-.9347.9348-.9347-.9347.9347-.9348-.9347-.9347c-.4674 0-1.4021 0-1.8694 0v-.9347h-.9347l-.9347.9347v.9347h-.9347l.9347.9347v.9347h.9347l.9347.9347h1.8694l.9347.9348.9347-.9347h1.8694l.9347-.9347h.9347v-.9347l.9347-.9347zm-8.4125 1.8695v-.9347h.9347v.9347zm7.4778 0h-.9347v-.9347h.9347z" fill="#b19389"/><path d="m18.8042 19.5715v.9347c-.4674.4674-1.4021 1.4021-1.8694 1.8694h1.8694l1.8694-1.8694-.9347-.9347z" fill="#b19389"/><path d="m16 13.0285h.9347l.9347-.9347-.9347-.9347h.9347c0-.4674 0-1.4021 0-1.8694-.8179 0-1.9863 0-2.8042 0l-.9347.9347v1.8694l.9347.9347z" fill="#b19389"/><path d="m13.1958 20.5062v-.9347h-.9347l-.9347.9347c.4674.4674 1.4021 1.4021 1.8694 1.8694h1.8694c-.4673-.4673-1.402-1.402-1.8694-1.8694z" fill="#b19389"/><path d="m20.6736 20.5062c-.4674.4674-1.4021 1.4021-1.8694 1.8694-.4674 0-1.4021 0-1.8694 0l-.9348.9348-.9347-.9347c-.4674 0-1.4021 0-1.8694 0-.4674-.4674-1.4021-1.4021-1.8694-1.8694l-.9347.9347 2.8042 2.8042.9347-.9347v.9347h4.6736l2.8042-2.8042z" fill="#8d6f5b"/><path d="m17.8694 12.0938v-.9348h-.9347z" fill="#8d6f5b"/><path d="m16 9.2896h1.8694v-.9347c-1.1684 0-2.5705 0-3.7389 0v1.8694l.9347-.9347z" fill="#8d6f5b"/><path d="m11.3264 14.8979-.9347.9347h.9347z" fill="#8d6f5b"/><path d="m20.6736 18.6368-.9347.9347.9347.9347.9347-.9347c0-.4674 0-1.4021 0-1.8694z" fill="#177d88"/><path d="m18.8042 15.8326h.9347v.9347h-.9347z" fill="#177d88"/><path d="m16.9347 20.5062c-.4674 0-1.4021 0-1.8694 0l-.9347-.9347h-.9347v.9347c.4674.4674 1.4021 1.4021 1.8694 1.8694h1.8694l1.8694-1.8694v-.9347h-.9347z" fill="#177d88"/><path d="m15.0653 16.7674.9347-.9348.9347.9347-.9347.9348z" fill="#177d88"/><path d="m13.1958 7.4201h1.8694l.9348.9348.9347-.9347h1.8694v-.9348h.9347l-.9347-.9347-.9347.9347c-1.1684 0-2.5705 0-3.7389 0l-.9347-.9347-.9347.9347h.9347z" fill="#177d88"/><path d="m13.1958 14.8979h1.8694l.9348.9347.9347-.9347h1.8694v-.9347h.9347l-.9347-.9347h-.9347v.9347c-1.1684 0-2.5705 0-3.7389 0v-.9347h-.9347l-.9347.9347h.9347z" fill="#177d88"/><path d="m12.2611 15.8326h.9347v.9347h-.9347z" fill="#177d88"/><path d="m10.3917 17.7021v1.8694l.9347.9347.9347-.9347c-.4673-.4673-1.4021-1.4021-1.8694-1.8694z" fill="#177d88"/><g fill="#134761"><path d="m21.6083 21.441c0-.4674 0-1.4021 0-1.8694l-.9347.9347z"/><path d="m20.6736 16.7674v.9347h-.9347l-.9347.9347c-.4674 0-1.4021 0-1.8694 0l-.9348.9347-.9347-.9347c-.4674 0-1.4021 0-1.8694 0l-.9347-.9347h-.9347v-.9347l-.9347-.9347v1.8694c.4674.4674 1.4021 1.4021 1.8694 1.8694h1.8694l.9347.9347h1.8694l.9347-.9347h1.8694l1.8694-1.8694c0-.4674 0-1.4021 0-1.8694z"/><path d="m18.8042 6.4854v.9347l.9347-.9347z"/><path d="m17.8694 8.3549.9347-.9347c-.4674 0-1.4021 0-1.8694 0l-.9347.9347z"/><path d="m15.0653 22.3757.9347.9347.9347-.9347c-.4673 0-1.4021 0-1.8694 0z"/><path d="m15.0653 13.9632h2.8042v-.9347h.9347l-.9347-.9347-.9347.9347c-.4674 0-1.4021 0-1.8694 0l-.9347-.9347-.9347.9347h.9347v.9347z"/><path d="m15.0653 8.3549h.9347l-.9347-.9347c-.4674 0-1.4021 0-1.8694 0l.9347.9347z"/><path d="m15.0653 5.5507h1.8694l.9347.9347.9347-.9347-.9347-.9347c-1.1684 0-2.5705 0-3.7389 0l-.9347.9347.9347.9347z"/><path d="m13.1958 6.4854h-.9347l.9347.9347z"/><path d="m10.3917 20.5062v.9347l.9347-.9347-.9347-.9347z"/></g><path d="m20.6736 22.3757c-.4674.4674-1.4021 1.4021-1.8694 1.8694-1.8694 0-3.7389 0-5.6083 0-.4674-.4674-1.4021-1.4021-1.8694-1.8694l-.9347.9347v1.8694c.4674.4674 1.4021 1.4021 1.8694 1.8694h7.4778c.4674-.4674 1.4021-1.4021 1.8694-1.8694 0-.4674 0-1.4021 0-1.8694z" fill="#352e23" opacity=".5"/></svg>