<svg enable-background="new 0 0 32 32" viewBox="0 0 32 32" xmlns="http://www.w3.org/2000/svg"><path d="m19.2 10.6-.8-.8c-1.6 0-3.2 0-4.8 0-.4.4-1.2 1.2-1.6 1.6l.8.8c.4-.4 1.2-1.2 1.6-1.6h3.2c.4.4 1.2 1.2 1.6 1.6l.8-.8z" fill="#631713"/><path d="m21.6 19.4c-.7.7-1.7 1.7-2.4 2.4-2.1 0-4.3 0-6.4 0-.7-.7-1.7-1.7-2.4-2.4l-.8.8v1.6l2.4 2.4h8c.7-.7 1.7-1.7 2.4-2.4 0-.4 0-1.2 0-1.6z" fill="#352e23" opacity=".5"/><path d="m19.2 20.2c-2.1 0-4.3 0-6.4 0-1-1-2.2-2.2-3.2-3.2v1.6l3.2 3.2h6.4c.4-.4 1.2-1.2 1.6-1.6 0-.4 0-1.2 0-1.6-.4.4-1.2 1.2-1.6 1.6z" fill="#8d4533"/><path d="m21.6 17.8-.8.8.8.8.8-.8c0-.4 0-1.2 0-1.6z" fill="#8d4533"/><path d="m20.8 18.6v1.6l.8-.8z" fill="#3a1912"/><path d="m17.6 10.6c-1 0-2.2 0-3.2 0-.4.4-1.2 1.2-1.6 1.6v.8h.8l.8.8h3.2c.4-.4 1.2-1.2 1.6-1.6-.4-.4-1.2-1.2-1.6-1.6z" fill="#3a1912"/><g fill="#8d1a1c"><path d="m14.4 17c-.4 0-1.2 0-1.6 0 .4.4 1.2 1.2 1.6 1.6.4-.4 1.2-1.2 1.6-1.6-.4 0-1.2 0-1.6 0z"/><path d="m9.6 13.8v1.6h1.6c-.4-.4-1.2-1.2-1.6-1.6z"/><path d="m19.2 17h1.6c0-.4 0-1.2 0-1.6-.4.4-1.2 1.2-1.6 1.6z"/><path d="m12.8 13.8.8.8h4.8c.7-.7 1.7-1.7 2.4-2.4l-.8-.8c-.7.7-1.7 1.7-2.4 2.4-1 0-2.2 0-3.2 0l-.8-.8h-.8v-.8l-.8-.8-.8.8z"/><path d="m11.2 15.4v1.6h1.6c-.4-.4-1.2-1.2-1.6-1.6z"/><path d="m17.6 17c-.4 0-1.2 0-1.6 0l1.6 1.6 1.6-1.6c-.4 0-1.2 0-1.6 0z"/><path d="m21.6 14.6-.8.8h1.6c0-.4 0-1.2 0-1.6z"/></g><g fill="#ab6f44"><path d="m20.8 15.4v1.6c-.4 0-1.2 0-1.6 0-.4.4-1.2 1.2-1.6 1.6-.4-.4-1.2-1.2-1.6-1.6-.4.4-1.2 1.2-1.6 1.6-.4-.4-1.2-1.2-1.6-1.6-.4 0-1.2 0-1.6 0 0-.4 0-1.2 0-1.6-.4 0-1.2 0-1.6 0v1.6l3.2 3.2h6.4c1-1 2.2-2.2 3.2-3.2 0-.4 0-1.2 0-1.6-.4 0-1.2 0-1.6 0z"/><path d="m12.8 17h6.4l3.2-3.2c-.4-.4-1.2-1.2-1.6-1.6-.7.7-1.7 1.7-2.4 2.4-1.6 0-3.2 0-4.8 0-.7-.7-1.7-1.7-2.4-2.4-.4.4-1.2 1.2-1.6 1.6z"/></g></svg>