<svg enable-background="new 0 0 32 32" height="32" viewBox="0 0 32 32" width="32" xmlns="http://www.w3.org/2000/svg"><path d="m16.9849 22.9369h.9849l-.9849-.9849z" fill="#383418"/><path d="m17.9698 7.1782-.9849-.9849c-.4377 0-1.5321 0-1.9698 0l-.9849.9849 1.9698 1.9698z" fill="#383418"/><path d="m21.9095 13.0877c-.8755 0-2.0793 0-2.9548 0v.9849c-.4377 0-1.5321 0-1.9698 0l-.9849.9849-.9849-.9849c-.4377 0-1.5321 0-1.9698 0v-.9849c-.8755 0-2.0793 0-2.9548 0l.9849.9849-.9849.9849 3.9397 3.9397h3.9397c1.2038-1.2038 2.7359-2.7359 3.9397-3.9397l-.9849-.9849z" fill="#c9af35"/><path d="m15.0151 12.1028h1.9698l1.9698-1.9698-.9849-.985-.9849.9849c-.4377 0-1.5321 0-1.9698 0l-.9849-.9849-.9849.9849z" fill="#c9af35"/><path d="m20.9246 14.0726.9849.9849c0-.4377 0-1.5321 0-1.9698z" fill="#86752d"/><path d="m19.9397 17.0274c-.4377.4377-1.5321 1.5321-1.9698 1.9698-1.2038 0-2.7359 0-3.9397 0-1.2038-1.2038-2.7359-2.7359-3.9397-3.9397v1.9698l3.9397 3.9397h3.9397c1.2038-1.2038 2.7359-2.7359 3.9397-3.9397 0-.4377 0-1.5321 0-1.9698-.4378.4378-1.5322 1.5321-1.9699 1.9699z" fill="#86752d"/><path d="m18.9548 9.148v-.9849l-.985.9849.9849.9849v-.9849z" fill="#86752d"/><path d="m13.0452 8.1631v1.9698l.9849-.9849z" fill="#86752d"/><path d="m10.0905 13.0877v1.9698l.9849-.9849z" fill="#86752d"/><path d="m22.8944 20.9671c-.8755 0-2.0793 0-2.9548 0l-.9849-.9849-.9849.9849.9849.9849v.9849c-1.9698 0-3.9397 0-5.9095 0v-.9849l.9849-.9849-.9849-.9849-.9849.9849c-1.2038 0-2.7359 0-3.9397 0v.9849h.9849l.9849.9849h.9849v.9849l1.9698 1.9698h5.9095c.4377-.4377 1.5321-1.5321 1.9698-1.9698v-.9849h.9849l.9849-.9849h.9849v-.9849z" fill="#352e23" opacity=".5"/><g fill="#43471c"><path d="m22.8944 13.0877h.9849l-.9849-.9849c-.4377 0-1.5321 0-1.9698 0l.9849.9849z"/><path d="m21.9095 17.0274-.9849.9849.9849.9849h.9849v-.9849l.9849-.9849c0-.4377 0-1.5321 0-1.9698-.4377.4377-1.532 1.532-1.9698 1.9698z"/><path d="m16.9849 20.9671c-.8755 0-2.0793 0-2.9548 0l-.9849.9849h5.9095l-.9849-.9849z"/><path d="m16.9849 5.2083c-.8755 0-2.0793 0-2.9548 0l-.9849.9849.9849.9849.9849-.9849h1.9698l.9849.9849.9849-.9849-.9849-.9849z"/><path d="m9.1056 12.1028-.9849.9849h1.9698l.9849-.9849c-.4377 0-1.5321 0-1.9698 0z"/><path d="m9.1056 16.0425-.9849-.9849v1.9698l.9849.9849v.9849h.9849l.9849-.9849c-.4377-.4377-1.5321-1.5321-1.9698-1.9698z"/></g><path d="m23.8794 11.1179-.9849.9849.9849.9849v3.9397l.9849-.9849c0-1.2038 0-2.7359 0-3.9397z" fill="#477537"/><path d="m19.9397 11.1179-.9849-.9849c-.4377.4377-1.5321 1.5321-1.9698 1.9698-.4377 0-1.5321 0-1.9698 0-.4377-.4377-1.5321-1.5321-1.9698-1.9698-.8755.8755-2.0793 2.0793-2.9548 2.9548h2.9548v.9849h1.9698l.9848.9848.9849-.9849h1.9698v-.9849h2.9548c-.4377-.4377-1.5321-1.5321-1.9698-1.9698z" fill="#477537"/><path d="m16.9849 21.952.9849.9849h.9849v-.9849c-.4377 0-1.532 0-1.9698 0z" fill="#477537"/><path d="m15.0151 21.952c-.4377 0-1.5321 0-1.9698 0v.9849h3.9397v-.9849c-.4378 0-1.5322 0-1.9699 0z" fill="#477537"/><path d="m14.0302 9.148.9849.9849h1.9698c.8755-.8755 2.0793-2.0793 2.9548-2.9548l-.9849-.9849c-.8755.8755-2.0793 2.0793-2.9548 2.9548-.8755-.8755-2.0793-2.0793-2.9548-2.9548l-.9849.9849z" fill="#477537"/><path d="m7.1357 12.1028v3.9397l.9849.9849c0-1.2038 0-2.7359 0-3.9397l.9849-.9849-.9849-.9849z" fill="#477537"/></svg>