<svg enable-background="new 0 0 32 32" viewBox="0 0 32 32" xmlns="http://www.w3.org/2000/svg"><path d="m20.4 19.6c-.5.5-1.6 1.6-2.2 2.2-1.4 0-3 0-4.4 0-.5-.5-1.6-1.6-2.2-2.2l-1.1 1.1v2.2c.5.5 1.6 1.6 2.2 2.2h6.6l2.2-2.2c0-.5 0-1.6 0-2.2z" fill="#352e23" opacity=".5"/><g fill="#aa4625"><path d="m21.5 12v1.1h-1.1v1.1h-1.1v1.1c-.5 0-1.6 0-2.2 0v1.1c-.5 0-1.6 0-2.2 0v-1.1c-.5 0-1.6 0-2.2 0v-1.1h-1.1v-1.1h-1.1v-1.1h-1.1v2.2h1.1v1.1h1.1v1.1h2.2v1.1h4.4v-1.1h2.2v-1.1h1.1v-1.1h1.1c0-.5 0-1.6 0-2.2z"/><path d="m13.8 13.1h4.4c.5-.5 1.6-1.6 2.2-2.2v-1.1h-1.1c-.5.5-1.6 1.6-2.2 2.2-.5 0-1.6 0-2.2 0-.5-.5-1.6-1.6-2.2-2.2h-1.1v1.1z"/><path d="m21.5 17.4c-.5 0-1.6 0-2.2 0v1.1c-2.2 0-4.4 0-6.6 0v-1.1c-.5 0-1.6 0-2.2 0v-1.1h-1.1v1.1c.5.5 1.6 1.6 2.2 2.2h2.2v1.1h4.4v-1.1h2.2l2.2-2.2v-1.1h-1.1z"/></g><path d="m11.6 14.2h1.1v1.1h2.2v1.1h2.2v-1.1h2.2v-1.1h1.1v-1.1h1.1c0-.5 0-1.6 0-2.2h-1.1c-.5.5-1.6 1.6-2.2 2.2-1.4 0-3 0-4.4 0-.5-.5-1.6-1.6-2.2-2.2h-1.1v2.2h1.1z" fill="#c78945"/><path d="m21.5 14.2v1.1h-1.1v1.1c-.5 0-1.6 0-2.2 0v1.1c-1.4 0-3 0-4.4 0v-1.1c-.5 0-1.6 0-2.2 0v-1.1h-1.1v-1.1h-1.1v2.2h1.1v1.1h2.2v1.1h6.6v-1.1h2.2v-1.1h1.1c0-.5 0-1.6 0-2.2z" fill="#c78945"/><path d="m19.3 19.6h-1.1v1.1c-1.4 0-3 0-4.4 0v-1.1c-.5 0-1.6 0-2.2 0l2.2 2.2h4.4c.5-.5 1.6-1.6 2.2-2.2z" fill="#7f2c19"/><path d="m14.9 9.8h2.2l1.1 1.1 1.1-1.1-1.1-1.1c-1.4 0-3 0-4.4 0l-1.1 1.1 1.1 1.1z" fill="#7f2c19"/><path d="m17.1 9.8c-.5 0-1.6 0-2.2 0l-1.1 1.1 1.1 1.1h2.2l1.1-1.1z" fill="#482814"/></svg>