<svg enable-background="new 0 0 32 32" viewBox="0 0 32 32" xmlns="http://www.w3.org/2000/svg"><path d="m17.6 10.5-.8-.8c-.4 0-1.2 0-1.6 0l-.8.8 1.6 1.6c.4-.4 1.2-1.2 1.6-1.6z" fill="#383418"/><path d="m16.8 23.3h.8l-.8-.8z" fill="#383418"/><path d="m20.8 15.3c-.7 0-1.7 0-2.4 0v.8c-.4 0-1.2 0-1.6 0l-.8.8-.8-.8c-.4 0-1.2 0-1.6 0v-.8c-.7 0-1.7 0-2.4 0l.8.8-.8.8 3.2 3.2h3.2l3.2-3.2-.8-.8z" fill="#c9af35"/><path d="m15.2 14.5h1.6c.4-.4 1.2-1.2 1.6-1.6l-.8-.8-.8.8c-.4 0-1.2 0-1.6 0l-.8-.8-.8.8z" fill="#c9af35"/><path d="m20 16.1.8.8c0-.4 0-1.2 0-1.6z" fill="#86752d"/><path d="m19.2 18.5c-.4.4-1.2 1.2-1.6 1.6-1 0-2.2 0-3.2 0-1-1-2.2-2.2-3.2-3.2v1.6l3.2 3.2h3.2c1-1 2.2-2.2 3.2-3.2 0-.4 0-1.2 0-1.6-.4.4-1.2 1.2-1.6 1.6z" fill="#86752d"/><path d="m18.4 12.1v-.8l-.8.8.8.8z" fill="#86752d"/><path d="m13.6 11.3v1.6l.8-.8z" fill="#86752d"/><path d="m11.2 15.3v1.6l.8-.8z" fill="#86752d"/><g fill="#43471c"><path d="m20.8 18.5-.8.8.8.8h.8v-.8l.8-.8c0-.4 0-1.2 0-1.6-.4.4-1.2 1.2-1.6 1.6z"/><path d="m21.6 15.3h.8l-.8-.8c-.4 0-1.2 0-1.6 0l.8.8z"/><path d="m16.8 8.9c-.7 0-1.7 0-2.4 0l-.8.8.8.8.8-.8h1.6l.8.8.8-.8-.8-.8z"/><path d="m16.8 21.7c-.7 0-1.7 0-2.4 0l-.8.8h4.8l-.8-.8z"/><path d="m10.4 14.5-.8.8h1.6l.8-.8c-.4 0-1.2 0-1.6 0z"/><path d="m10.4 17.7-.8-.8v1.6l.8.8v.8h.8l.8-.8c-.4-.4-1.2-1.2-1.6-1.6z"/></g><path d="m21.6 21.7c-.7 0-1.7 0-2.4 0l-.8-.8-.8.8.8.8v.8c-1.6 0-3.2 0-4.8 0v-.8l.8-.8-.8-.8-.8.8c-1 0-2.2 0-3.2 0v.8h.8l.8.8h.8v.8l1.6 1.6h4.8l1.6-1.6v-.8h.8l.8-.8h.8v-.8z" fill="#352e23" opacity=".75"/><g fill="#477537"><path d="m22.4 13.7-.8.8.8.8v3.2l.8-.8c0-1 0-2.2 0-3.2z"/><path d="m19.2 13.7-.8-.8c-.4.4-1.2 1.2-1.6 1.6-.4 0-1.2 0-1.6 0-.4-.4-1.2-1.2-1.6-1.6-.7.7-1.7 1.7-2.4 2.4h2.4v.8h1.6l.8.8.8-.8h1.6v-.8h2.4c-.4-.4-1.2-1.2-1.6-1.6z"/><path d="m16.8 22.5.8.8h.8v-.8c-.4 0-1.2 0-1.6 0z"/><path d="m15.2 22.5c-.4 0-1.2 0-1.6 0v.8h3.2v-.8c-.4 0-1.2 0-1.6 0z"/><path d="m14.4 12.1.8.8h1.6c.7-.7 1.7-1.7 2.4-2.4l-.8-.8c-.7.7-1.7 1.7-2.4 2.4-.7-.7-1.7-1.7-2.4-2.4l-.8.8z"/><path d="m8.8 14.5v3.2l.8.8c0-1 0-2.2 0-3.2l.8-.8-.8-.8z"/></g></svg>