<svg enable-background="new 0 0 32 32" viewBox="0 0 32 32" xmlns="http://www.w3.org/2000/svg"><path d="m17.6 17.6-.8.8h1.6z" fill="#352e23"/><path d="m16 20h.8l-.8-.8-.8.8z" fill="#352e23"/><path d="m15.2 18.4v.8h1.6v-.8c-.4 0-1.2 0-1.6 0z" fill="#352e23"/><path d="m13.6 18.4h1.6l-.8-.8z" fill="#352e23"/><path d="m19.2 16.8h.8v.8h-.8z" fill="#ba7c70"/><path d="m12 16.8h.8v.8h-.8z" fill="#ba7c70"/><g fill="#6d443c"><path d="m20 22.4v.8l.8-.8z"/><path d="m19.2 20.8v1.6l.8-.8z"/><path d="m18.4 25.6v-.8l-.8.8z"/><path d="m17.6 24-.8.8h2.4v-.8c-.4 0-1.2 0-1.6 0z"/><path d="m18.4 18.4.8-.8-.8-.8c-.4 0-1.2 0-1.6 0v1.6l.8-.8z"/><path d="m15.2 26.4v-.8h-.8z"/><path d="m13.6 16.8-.8.8.8.8.8-.8.8.8c0-.4 0-1.2 0-1.6-.4 0-1.2 0-1.6 0z"/><path d="m13.6 24h-.8v.8h2.4l-.8-.8z"/><path d="m12.8 21.6v-.8l-.8.8.8.8z"/><path d="m12 24h.8l-.8-.8z"/></g><g fill="#957e7a"><path d="m20 20.8h-.8l.8.8.8-.8z"/><path d="m19.2 22.4c0-.4 0-1.2 0-1.6l-.8.8z"/><path d="m16.8 23.2.8-.8h-.8z"/><path d="m16 20.8c-.4.4-1.2 1.2-1.6 1.6v1.6c1-1 2.2-2.2 3.2-3.2-.4 0-1.2 0-1.6 0z"/><path d="m16 24.8h.8l.8-.8c-1 0-2.2 0-3.2 0l.8.8z"/><path d="m12.8 21.6v.8l.8-.8-.8-.8z"/><path d="m11.2 20.8.8.8.8-.8c-.4 0-1.2 0-1.6 0z"/></g><path d="m20 20c-1.8 0-3.8 0-5.6 0v.8l-.8-.8c-.4 0-1.2 0-1.6 0l-.8.8h1.6l.8.8-.8.8v1.6h1.6c0-.4 0-1.2 0-1.6l1.6-1.6h1.6c-1 1-2.2 2.2-3.2 3.2h4.8c0-.4 0-1.2 0-1.6l-.8-.8.8-.8h1.6zm-3.2 3.2v-.8h.8z" fill="#b4a2a0"/><path d="m20.8 22.4-.8.8v-.8h.8l-.8-.8-.8.8v1.6l.8.8 1.6-1.6z" fill="#815146"/><path d="m19.2 24.8h-.8v.8h-.8l.8-.8c-.4 0-1.2 0-1.6 0v2.4h.8l.8-.8.8.8.8-.8-.8-.8z" fill="#815146"/><path d="m17.6 20h1.6c0-.4 0-1.2 0-1.6h.8l.8-.8c0-.4 0-1.2 0-1.6-.4 0-1.2 0-1.6 0l-.8.8.8.8v-.8h.8v.8h-.8l-.8.8c-.4 0-1.2 0-1.6 0v.8h-.8l.8.8z" fill="#815146"/><path d="m15.2 18.4c-.4 0-1.2 0-1.6 0l-.8-.8h-.8v-.8h.8v.8l.8-.8-.8-.8c-.4 0-1.2 0-1.6 0v1.6l.8.8h.8v1.6h.8l.8.8v-.8h.8l.8-.8h-.8z" fill="#815146"/><path d="m15.2 16.8v1.6h1.6c0-.4 0-1.2 0-1.6h1.6l-.8-.8c-1 0-2.2 0-3.2 0l-.8.8z" fill="#815146"/><path d="m13.6 24.8h-.8v.8l-.8.8.8.8.8-.8.8.8h.8v-.8l-.8-.8h.8v-.8c-.4 0-1.2 0-1.6 0z" fill="#815146"/><path d="m12.8 24h-.8v-.8l.8.8c0-.4 0-1.2 0-1.6l-.8-.8c-.4.4-1.2 1.2-1.6 1.6l1.6 1.6z" fill="#815146"/><g fill="#d06692"><path d="m20.8 24 .8.8c0-.4 0-1.2 0-1.6z"/><path d="m20.8 24.8v-.8l-.8.8z"/><path d="m20 27.2v-.8l-.8.8z"/><path d="m17.6 27.2h1.6l-.8-.8z"/><path d="m12.8 27.2h1.6l-.8-.8z"/><path d="m12 27.2h.8l-.8-.8z"/><path d="m12 24.8-.8-.8v.8z"/><path d="m10.4 24v.8l.8-.8-.8-.8z"/></g></svg>