<svg enable-background="new 0 0 32 32" viewBox="0 0 32 32" xmlns="http://www.w3.org/2000/svg"><path d="m27.4 27.4v.8l.8-.8z" fill="#ece4ba"/><path d="m25.8 27.4h.8l-.8-.8z" fill="#ece4ba"/><path d="m24.2 28.2.8-.8h-.8z" fill="#ece4ba"/><path d="m23.4 25h-.8l.8.8h1.6l-.8-.8z" fill="#ece4ba"/><path d="m22.6 27.4v-.8l-.8.8z" fill="#ece4ba"/><path d="m21.8 25.8-.8.8.8.8c0-.4 0-1.2 0-1.6z" fill="#ece4ba"/><path d="m29 26.6-.8-.8c0-.4 0-1.2 0-1.6-.4 0-1.2 0-1.6 0-.7-.7-1.7-1.7-2.4-2.4v1.6c-.4-.4-1.2-1.2-1.6-1.6-.4 0-1.2 0-1.6 0-.7-.7-1.7-1.7-2.4-2.4-1 0-2.2 0-3.2 0-.7.7-1.7 1.7-2.4 2.4h.8v.8h.8v.8h.8v.8l.8-.8c-.4-.4-1.2-1.2-1.6-1.6h.8v.8h.8v.8h1.6c-.7-.7-1.7-1.7-2.4-2.4h.8v.8h.8v.8h.8v.8h.8v.8h.8v1.6h.8l.8.8.8-.8v1.6l.8-.8v.8h3.2v-.8l.8.8h1.6l-.8-.8h.8v.8h1.6v-.8zm-6.4-4v.8l-.8-.8zm-2.4-.8v.8h.8v.8c-.4-.4-1.2-1.2-1.6-1.6zm-1.6-1.6v.8l-.8-.8zm.8 3.2c-.7-.7-1.7-1.7-2.4-2.4h.8v.8h.8v.8h.8v.8h.8v.8zm6.4 2.4c-.7 0-1.7 0-2.4 0-.4-.4-1.2-1.2-1.6-1.6h3.2l1.6 1.6z" fill="#717a72"/><path d="m18.6 25h.8l-.8-.8z" fill="#717a72"/><path d="m17.8 24.2h.8l-.8-.8z" fill="#717a72"/><path d="m13.8 22.6-.8-.8v1.6h.8v.8h.8v.8l.8-.8c-.4-.4-1.2-1.2-1.6-1.6z" fill="#717a72"/><path d="m13 23.4-.8-.8-.8.8h.8v.8h.8v.8h1.6c-.4-.4-1.2-1.2-1.6-1.6z" fill="#717a72"/><path d="m11.4 23.4v1.6h.8v.8l.8.8c0-.4 0-1.2 0-1.6-.4-.4-1.2-1.2-1.6-1.6z" fill="#717a72"/><path d="m10.6 24.2c-.4 0-1.2 0-1.6 0l-.8.8h.8v.8l.8.8v-.8h.8l-.8-.8h.8v.8l.8.8v-.8h.8c-.4-.4-1.2-1.2-1.6-1.6z" fill="#717a72"/><path d="m9.8 19.4v-.8l-.8.8.8.8z" fill="#717a72"/><path d="m9 21 .8-.8h-.8z" fill="#717a72"/><path d="m9 21.8v-.8l-.8.8z" fill="#717a72"/><path d="m9 17.8c-.4-.4-1.2-1.2-1.6-1.6h-.8v.8h.8v.8h.8v.8h.8z" fill="#717a72"/><path d="m8.2 20.2.8-.8-.8-.8-.8.8h.8z" fill="#717a72"/><path d="m7.4 21h.8v-.8l-.8-.8-.8.8h.8z" fill="#717a72"/><path d="m7.4 18.6h.8l-.8-.8z" fill="#717a72"/><path d="m7.4 21.8h.8l-.8-.8z" fill="#717a72"/><path d="m7.4 24.2h-.8v.8h.8v.8l.8.8v-.8h.8c-.4-.4-1.2-1.2-1.6-1.6z" fill="#717a72"/><path d="m6.6 21.8.8-.8-.8-.8-.8.8h.8z" fill="#717a72"/><path d="m6.6 17.8h.8l-.8-.8z" fill="#717a72"/><path d="m6.6 25.8h.8l-.8-.8z" fill="#717a72"/><path d="m5.8 23.4h.8v.8h-.8z" fill="#717a72"/><path d="m5.8 22.6.8-.8-.8-.8-.8.8h.8z" fill="#717a72"/><path d="m5.8 25h.8l-.8-.8z" fill="#717a72"/><path d="m5.8 26.6h.8l-.8-.8z" fill="#717a72"/><path d="m5.8 22.6-.8-.8v1.6h.8z" fill="#717a72"/><path d="m5 17h1.6l-.8-.8z" fill="#717a72"/><path d="m5 24.2h.8l-.8-.8z" fill="#717a72"/><path d="m5 25.8h.8l-.8-.8z" fill="#717a72"/><g fill="#50514f"><path d="m29 27.4h-.8l-.8.8v-.8c-.7 0-1.7 0-2.4 0l-.8.8v-.8c-.7 0-1.7 0-2.4 0-.4-.4-1.2-1.2-1.6-1.6h-.8v-.8h-.8v-.8h-.8v-.8c-.4 0-1.2 0-1.6 0-.4.4-1.2 1.2-1.6 1.6-.4 0-1.2 0-1.6 0v1.6l-.8-.8h-.8v.8l-.8-.8h-.8v.8l-.8-.8h-.8v.8l-.8-.8h-.8v-.8h-.8v-.8h-.8c0-.7 0-1.7 0-2.4h-.8v4l1.6 1.6v.8h7.2l2.4-2.4h1.6l1.6 1.6-.8.8h1.6v.8h8.8l1.6-1.6zm-23.2-.8v-.8h-.8v-.8l1.6 1.6z"/><path d="m27.4 26.6.8.8v-.8z"/><path d="m25.8 25.8h.8l-.8-.8-.8.8z"/><path d="m23.4 25h2.4l-.8-.8c-1 0-2.2 0-3.2 0l.8.8z"/><path d="m22.6 22.6h-.8l.8.8z"/><path d="m21 22.6h-.8l.8.8z"/><path d="m20.2 23.4h-.8l.8.8z"/><path d="m20.2 21.8h-.8l.8.8z"/><path d="m19.4 24.2h-.8l.8.8z"/><path d="m19.4 22.6h-.8l.8.8z"/><path d="m18.6 23.4h-.8l.8.8z"/><path d="m18.6 21.8h-.8l.8.8z"/><path d="m18.6 20.2h-.8l.8.8z"/><path d="m17 22.6.8.8v-.8z"/><path d="m17.8 21h-.8l.8.8z"/><path d="m16.2 21.8.8.8v-.8z"/><path d="m15.4 22.6.8.8v-.8z"/><path d="m15.4 21 .8.8v-.8z"/><path d="m14.6 23.4.8.8v-.8z"/><path d="m14.6 21.8.8.8v-.8z"/><path d="m13.8 24.2.8.8v-.8z"/><path d="m13.8 22.6.8.8v-.8z"/><path d="m13 23.4.8.8v-.8z"/><path d="m13 21.8.8.8v-.8z"/><path d="m12.2 24.2.8.8v-.8z"/><path d="m12.2 22.6.8.8v-.8z"/><path d="m11.4 25 .8.8v-.8z"/><path d="m11.4 23.4.8.8v-.8z"/><path d="m10.6 24.2.8.8v-.8z"/><path d="m9.8 25 .8.8v-.8z"/><path d="m9.8 20.2-.8-.8v.8z"/><path d="m9 21.8h-.8v1.6l.8-.8h.8c0-.7 0-1.7 0-2.4l-.8.8z"/><path d="m8.2 25 .8.8v-.8z"/><path d="m9 18.6h-.8l.8.8z"/><path d="m9 17h-.8l.8.8z"/><path d="m7.4 21 .8.8v-.8z"/><path d="m8.2 19.4h-.8l.8.8z"/><path d="m8.2 17.8h-.8l.8.8z"/><path d="m7.4 25h-.8l.8.8z"/><path d="m6.6 20.2.8.8v-.8z"/><path d="m7.4 17h-.8l.8.8z"/><path d="m6.6 24.2h-.8l.8.8z"/><path d="m6.6 21.8v-.8h-.8z"/><path d="m5.8 16.2.8.8v-.8z"/><path d="m5.8 23.4h-.8l.8.8z"/><path d="m5.8 21.8h-.8l.8.8z"/><path d="m4.2 20.2v-.8l1.6-1.6.8.8v1.6l1.6-1.6h-.8v-.8h-.8v-.8c-.4 0-1.2 0-1.6 0l-.8.8v.8h-.8v1.6l.8.8z"/></g><path d="m25 21v.8h.8z" fill="#aa8022"/><path d="m24.2 25 .8.8.8-.8c-.4 0-1.2 0-1.6 0z" fill="#aa8022"/><path d="m23.4 22.6.8.8c0-1 0-2.2 0-3.2h-.8v-.8l-.8.8.8.8z" fill="#aa8022"/><path d="m22.6 18.6c0-.4 0-1.2 0-1.6l-.8.8c0-.4 0-1.2 0-1.6l-.8-.8c0-.4 0-1.2 0-1.6l-.8.8v1.6l.8.8v2.4h.8v1.6l.8-.8c0-.4 0-1.2 0-1.6z" fill="#aa8022"/><path d="m22.6 14.6v-.8l-.8.8.8.8z" fill="#aa8022"/><path d="m18.6 14.6v1.6l-.8-.8-.8.8.8.8-.8.8.8.8 1.6-1.6v1.6l.8-.8c0-.4 0-1.2 0-1.6-.4-.4-1.2-1.2-1.6-1.6z" fill="#aa8022"/><path d="m17.8 13v-.8l-.8.8v1.6l.8-.8z" fill="#aa8022"/><path d="m17 16.2c0-.4 0-1.2 0-1.6l-.8.8v3.2l.8-.8c0-.4 0-1.2 0-1.6z" fill="#aa8022"/><path d="m15.4 17v-.8c-.4.4-1.2 1.2-1.6 1.6v2.4h-.8l.8.8.8-.8c0-.4 0-1.2 0-1.6l.8.8.8-.8-.8-.8z" fill="#aa8022"/><path d="m13 17.8v-.8l-.8-.8v1.6l.8.8z" fill="#aa8022"/><path d="m12.2 20.2v.8l.8.8c0-.4 0-1.2 0-1.6l-.8-.8z" fill="#aa8022"/><path d="m10.6 21.8v.8h.8c0-.7 0-1.7 0-2.4l-.8.8z" fill="#aa8022"/><path d="m9 17v.8l.8-.8c0-.4 0-1.2 0-1.6l-.8.8z" fill="#aa8022"/><path d="m9 21c0-.4 0-1.2 0-1.6l-.8.8z" fill="#aa8022"/><path d="m8.2 15.4h-.8v-.8l-.8.8.8.8z" fill="#aa8022"/><path d="m7.4 13v1.6l.8-.8z" fill="#aa8022"/><path d="m7.4 21-.8.8v1.6l.8-.8.8.8c0-.4 0-1.2 0-1.6h-.8z" fill="#aa8022"/><path d="m6.6 11.4v-.8l-.8.8.8.8z" fill="#aa8022"/><path d="m5.8 14.6c0-.4 0-1.2 0-1.6-.4.4-1.2 1.2-1.6 1.6v.8h-.8v3.2l.8-.8c0-.4 0-1.2 0-1.6l.8-.8v.8h.8l.8-.8z" fill="#aa8022"/><path d="m2.6 13v1.6l.8-.8z" fill="#aa8022"/><path d="m24.2 18.6.8.8c0-.4 0-1.2 0-1.6z" fill="#d5c238"/><path d="m23.4 13v1.6l.8-.8z" fill="#d5c238"/><path d="m21.8 21c0-.4 0-1.2 0-1.6h-.8c0-.7 0-1.7 0-2.4l-.8-.8v1.6l-.8.8c0-.4 0-1.2 0-1.6-.4.4-1.2 1.2-1.6 1.6l-.8-.8c-.4.4-1.2 1.2-1.6 1.6h3.2l2.4 2.4h1.6l.8.8c0-.4 0-1.2 0-1.6l-.8-.8z" fill="#d5c238"/><path d="m22.6 11.4v-.8l-.8-.8v1.6l.8.8z" fill="#d5c238"/><path d="m17 16.2v1.6l.8-.8z" fill="#d5c238"/><path d="m15.4 15.4v-.8l-.8.8.8.8z" fill="#d5c238"/><path d="m14.6 19.4v.8l.8-.8-.8-.8z" fill="#d5c238"/><path d="m13 14.6v.8l.8.8c0-.4 0-1.2 0-1.6l-.8-.8z" fill="#d5c238"/><path d="m13 21v.8l.8-.8-.8-.8z" fill="#d5c238"/><path d="m11.4 21.8v.8h-.8l-.8-.8v.8h-.8l-.8.8-.8-.8-.8.8v.8h.8l.8.8.8-.8h2.4v-.8l.8-.8h.8v-.8l-.8-.8z" fill="#d5c238"/><path d="m11.4 19.4v-.8l-.8-.8v1.6l.8.8z" fill="#d5c238"/><path d="m9 18.6v.8l.8-.8c0-.4 0-1.2 0-1.6l-.8.8z" fill="#d5c238"/><path d="m9 17c0-.7 0-1.7 0-2.4-.4.4-1.2 1.2-1.6 1.6l.8.8z" fill="#d5c238"/><path d="m8.2 21v.8l.8-.8-.8-.8z" fill="#d5c238"/><path d="m7.4 16.2-.8-.8-.8.8z" fill="#d5c238"/><path d="m6.6 21.8-.8.8v.8h.8c0-.4 0-1.2 0-1.6z" fill="#d5c238"/><path d="m5 16.2v-.8l-.8.8v1.6l1.6-1.6z" fill="#d5c238"/><path d="m4.2 18.6v-.8l-.8.8z" fill="#d5c238"/><path d="m3.4 17-.8-.8v3.2l.8.8c0-1 0-2.2 0-3.2z" fill="#d5c238"/></svg>