<svg enable-background="new 0 0 32 32" viewBox="0 0 32 32" xmlns="http://www.w3.org/2000/svg"><path d="m27.4 30.4v.8l.8-.8z" fill="#ece4ba"/><path d="m25.8 30.4h.8l-.8-.8z" fill="#ece4ba"/><path d="m24.2 31.2.8-.8h-.8z" fill="#ece4ba"/><path d="m23.4 28h-.8l.8.8h1.6l-.8-.8z" fill="#ece4ba"/><path d="m22.6 30.4v-.8l-.8.8z" fill="#ece4ba"/><path d="m21.8 28.8-.8.8.8.8c0-.4 0-1.2 0-1.6z" fill="#ece4ba"/><path d="m29 29.6-.8-.8c0-.4 0-1.2 0-1.6-.4 0-1.2 0-1.6 0-.7-.7-1.7-1.7-2.4-2.4v1.6c-.4-.4-1.2-1.2-1.6-1.6-.4 0-1.2 0-1.6 0-.7-.7-1.7-1.7-2.4-2.4-1 0-2.2 0-3.2 0-.7.7-1.7 1.7-2.4 2.4h.8v.8h.8v.8h.8v.8l.8-.8c-.4-.4-1.2-1.2-1.6-1.6h.8v.8h.8v.8h1.6c-.7-.7-1.7-1.7-2.4-2.4h.8v.8h.8v.8h.8v.8h.8v.8h.8v1.6h.8l.8.8.8-.8v1.6l.8-.8v.8h3.2v-.8l.8.8h1.6l-.8-.8h.8v.8h1.6v-.8zm-6.4-4v.8l-.8-.8zm-2.4-.8v.8h.8v.8c-.4-.4-1.2-1.2-1.6-1.6zm-1.6-1.6v.8l-.8-.8zm.8 3.2c-.7-.7-1.7-1.7-2.4-2.4h.8v.8h.8v.8h.8v.8h.8v.8zm6.4 2.4c-.7 0-1.7 0-2.4 0-.4-.4-1.2-1.2-1.6-1.6h3.2l1.6 1.6z" fill="#79817c"/><path d="m18.6 28h.8l-.8-.8z" fill="#79817c"/><path d="m17.8 27.2h.8l-.8-.8z" fill="#79817c"/><path d="m13.8 25.6-.8-.8v1.6h.8v.8h.8v.8l.8-.8c-.4-.4-1.2-1.2-1.6-1.6z" fill="#79817c"/><path d="m13 26.4-.8-.8-.8.8h.8v.8h.8v.8h1.6c-.4-.4-1.2-1.2-1.6-1.6z" fill="#79817c"/><path d="m11.4 26.4v1.6h.8v.8l.8.8c0-.4 0-1.2 0-1.6-.4-.4-1.2-1.2-1.6-1.6z" fill="#79817c"/><path d="m10.6 27.2c-.4 0-1.2 0-1.6 0l-.8.8h.8v.8l.8.8v-.8h.8l-.8-.8h.8v.8l.8.8v-.8h.8c-.4-.4-1.2-1.2-1.6-1.6z" fill="#79817c"/><path d="m9.8 22.4v-.8l-.8.8.8.8z" fill="#79817c"/><path d="m9 24 .8-.8h-.8z" fill="#79817c"/><path d="m9 24.8v-.8l-.8.8z" fill="#79817c"/><path d="m9 20.8c-.4-.4-1.2-1.2-1.6-1.6h-.8v.8h.8v.8h.8v.8h.8z" fill="#79817c"/><path d="m8.2 23.2.8-.8-.8-.8-.8.8h.8z" fill="#79817c"/><path d="m7.4 24h.8v-.8l-.8-.8-.8.8h.8z" fill="#79817c"/><path d="m7.4 21.6h.8l-.8-.8z" fill="#79817c"/><path d="m7.4 24.8h.8l-.8-.8z" fill="#79817c"/><path d="m7.4 27.2h-.8v.8h.8v.8l.8.8v-.8h.8c-.4-.4-1.2-1.2-1.6-1.6z" fill="#79817c"/><path d="m6.6 24.8.8-.8-.8-.8-.8.8h.8z" fill="#79817c"/><path d="m6.6 20.8h.8l-.8-.8z" fill="#79817c"/><path d="m6.6 28.8h.8l-.8-.8z" fill="#79817c"/><path d="m5.8 26.4h.8v.8h-.8z" fill="#79817c"/><path d="m5.8 25.6.8-.8-.8-.8-.8.8h.8z" fill="#79817c"/><path d="m5.8 28h.8l-.8-.8z" fill="#79817c"/><path d="m5.8 29.6h.8l-.8-.8z" fill="#79817c"/><path d="m5.8 25.6-.8-.8v1.6h.8z" fill="#79817c"/><path d="m5 20h1.6l-.8-.8z" fill="#79817c"/><path d="m5 27.2h.8l-.8-.8z" fill="#79817c"/><path d="m5 28.8h.8l-.8-.8z" fill="#79817c"/><g fill="#50514f"><path d="m29 30.4h-.8l-.8.8v-.8c-.7 0-1.7 0-2.4 0l-.8.8v-.8c-.7 0-1.7 0-2.4 0-.4-.4-1.2-1.2-1.6-1.6h-.8v-.8h-.8v-.8h-.8v-.8c-.4 0-1.2 0-1.6 0-.4.4-1.2 1.2-1.6 1.6-.4 0-1.2 0-1.6 0v1.6l-.8-.8h-.8v.8l-.8-.8h-.8v.8l-.8-.8h-.8v.8l-.8-.8h-.8v-.8h-.8v-.8h-.8c0-.7 0-1.7 0-2.4h-.8v4l1.6 1.6v.8h7.2c.7-.7 1.7-1.7 2.4-2.4h1.6l1.6 1.6-.8.8h1.6v.8h8.8l1.6-1.6zm-23.2-.8v-.8h-.8v-.8l1.6 1.6z"/><path d="m27.4 29.6.8.8v-.8z"/><path d="m25.8 28.8h.8l-.8-.8-.8.8z"/><path d="m23.4 28h2.4l-.8-.8c-1 0-2.2 0-3.2 0l.8.8z"/><path d="m22.6 25.6h-.8l.8.8z"/><path d="m21 25.6h-.8l.8.8z"/><path d="m20.2 26.4h-.8l.8.8z"/><path d="m20.2 24.8h-.8l.8.8z"/><path d="m19.4 27.2h-.8l.8.8z"/><path d="m19.4 25.6h-.8l.8.8z"/><path d="m18.6 26.4h-.8l.8.8z"/><path d="m18.6 24.8h-.8l.8.8z"/><path d="m18.6 23.2h-.8l.8.8z"/><path d="m17 25.6.8.8v-.8z"/><path d="m17.8 24h-.8l.8.8z"/><path d="m16.2 24.8.8.8v-.8z"/><path d="m15.4 25.6.8.8v-.8z"/><path d="m15.4 24 .8.8v-.8z"/><path d="m14.6 26.4.8.8v-.8z"/><path d="m14.6 24.8.8.8v-.8z"/><path d="m13.8 27.2.8.8v-.8z"/><path d="m13.8 25.6.8.8v-.8z"/><path d="m13 26.4.8.8v-.8z"/><path d="m13 24.8.8.8v-.8z"/><path d="m12.2 27.2.8.8v-.8z"/><path d="m12.2 25.6.8.8v-.8z"/><path d="m11.4 28 .8.8v-.8z"/><path d="m11.4 26.4.8.8v-.8z"/><path d="m10.6 27.2.8.8v-.8z"/><path d="m9.8 28 .8.8v-.8z"/><path d="m9.8 23.2-.8-.8v.8z"/><path d="m9 24.8h-.8v1.6l.8-.8h.8c0-.7 0-1.7 0-2.4l-.8.8z"/><path d="m8.2 28 .8.8v-.8z"/><path d="m9 21.6h-.8l.8.8z"/><path d="m9 20h-.8l.8.8z"/><path d="m7.4 24 .8.8v-.8z"/><path d="m8.2 22.4h-.8l.8.8z"/><path d="m8.2 20.8h-.8l.8.8z"/><path d="m7.4 28h-.8l.8.8z"/><path d="m6.6 23.2.8.8v-.8z"/><path d="m7.4 20h-.8l.8.8z"/><path d="m6.6 27.2h-.8l.8.8z"/><path d="m6.6 24.8v-.8h-.8z"/><path d="m5.8 19.2.8.8v-.8z"/><path d="m5.8 26.4h-.8l.8.8z"/><path d="m5.8 24.8h-.8l.8.8z"/><path d="m4.2 23.2v-.8l1.6-1.6.8.8v1.6l1.6-1.6h-.8v-.8h-.8v-.8c-.4 0-1.2 0-1.6 0l-.8.8v.8h-.8v1.6l.8.8z"/></g><path d="m25 24v.8h.8z" fill="#ac9e56"/><path d="m24.2 28 .8.8.8-.8c-.4 0-1.2 0-1.6 0z" fill="#ac9e56"/><path d="m23.4 25.6.8.8c0-1 0-2.2 0-3.2h-.8v-.8l-.8.8.8.8z" fill="#ac9e56"/><path d="m22.6 21.6c0-.4 0-1.2 0-1.6l-.8.8c0-.4 0-1.2 0-1.6l-.8-.8c0-.4 0-1.2 0-1.6l-.8.8v1.6l.8.8v2.4h.8v1.6l.8-.8c0-.4 0-1.2 0-1.6z" fill="#ac9e56"/><path d="m22.6 17.6v-.8l-.8.8.8.8z" fill="#ac9e56"/><path d="m18.6 17.6v1.6l-.8-.8-.8.8.8.8-.8.8.8.8c.4-.4 1.2-1.2 1.6-1.6v1.6l.8-.8c0-.4 0-1.2 0-1.6-.4-.4-1.2-1.2-1.6-1.6z" fill="#ac9e56"/><path d="m17.8 16v-.8l-.8.8v1.6l.8-.8z" fill="#ac9e56"/><path d="m17 19.2c0-.4 0-1.2 0-1.6l-.8.8v3.2l.8-.8c0-.4 0-1.2 0-1.6z" fill="#ac9e56"/><path d="m15.4 20v-.8c-.4.4-1.2 1.2-1.6 1.6v2.4h-.8l.8.8.8-.8c0-.4 0-1.2 0-1.6l.8.8.8-.8-.8-.8z" fill="#ac9e56"/><path d="m13 20.8v-.8l-.8-.8v1.6l.8.8z" fill="#ac9e56"/><path d="m12.2 23.2v.8l.8.8c0-.4 0-1.2 0-1.6l-.8-.8z" fill="#ac9e56"/><path d="m10.6 24.8v.8h.8c0-.7 0-1.7 0-2.4l-.8.8z" fill="#ac9e56"/><path d="m9 20v.8l.8-.8c0-.4 0-1.2 0-1.6l-.8.8z" fill="#ac9e56"/><path d="m9 24c0-.4 0-1.2 0-1.6l-.8.8z" fill="#ac9e56"/><path d="m8.2 18.4h-.8v-.8l-.8.8.8.8z" fill="#ac9e56"/><path d="m7.4 16v1.6l.8-.8z" fill="#ac9e56"/><path d="m7.4 24-.8.8v1.6l.8-.8.8.8c0-.4 0-1.2 0-1.6h-.8z" fill="#ac9e56"/><path d="m6.6 14.4v-.8l-.8.8.8.8z" fill="#ac9e56"/><path d="m5.8 17.6c0-.4 0-1.2 0-1.6-.4.4-1.2 1.2-1.6 1.6v.8h-.8v3.2l.8-.8c0-.4 0-1.2 0-1.6l.8-.8v.8h.8l.8-.8z" fill="#ac9e56"/><path d="m2.6 16v1.6l.8-.8z" fill="#ac9e56"/><path d="m24.2 21.6.8.8c0-.4 0-1.2 0-1.6z" fill="#d5c238"/><path d="m23.4 16v1.6l.8-.8z" fill="#d5c238"/><path d="m21.8 24c0-.4 0-1.2 0-1.6h-.8c0-.7 0-1.7 0-2.4l-.8-.8v1.6l-.8.8c0-.4 0-1.2 0-1.6-.4.4-1.2 1.2-1.6 1.6l-.8-.8c-.4.4-1.2 1.2-1.6 1.6h3.2l2.4 2.4h1.6l.8.8c0-.4 0-1.2 0-1.6l-.8-.8z" fill="#d5c238"/><path d="m22.6 14.4v-.8l-.8-.8v1.6l.8.8z" fill="#d5c238"/><path d="m17 19.2v1.6l.8-.8z" fill="#d5c238"/><path d="m15.4 18.4v-.8l-.8.8.8.8z" fill="#d5c238"/><path d="m14.6 22.4v.8l.8-.8-.8-.8z" fill="#d5c238"/><path d="m13 17.6v.8l.8.8c0-.4 0-1.2 0-1.6l-.8-.8z" fill="#d5c238"/><path d="m13 24v.8l.8-.8-.8-.8z" fill="#d5c238"/><path d="m11.4 24.8v.8h-.8l-.8-.8v.8h-.8l-.8.8-.8-.8-.8.8v.8h.8l.8.8.8-.8h2.4v-.8l.8-.8h.8v-.8l-.8-.8z" fill="#d5c238"/><path d="m11.4 22.4v-.8l-.8-.8v1.6l.8.8z" fill="#d5c238"/><path d="m9 21.6v.8l.8-.8c0-.4 0-1.2 0-1.6l-.8.8z" fill="#d5c238"/><path d="m9 20c0-.7 0-1.7 0-2.4-.4.4-1.2 1.2-1.6 1.6l.8.8z" fill="#d5c238"/><path d="m8.2 24v.8l.8-.8-.8-.8z" fill="#d5c238"/><path d="m7.4 19.2-.8-.8-.8.8z" fill="#d5c238"/><path d="m6.6 24.8-.8.8v.8h.8c0-.4 0-1.2 0-1.6z" fill="#d5c238"/><path d="m5 19.2v-.8l-.8.8v1.6l1.6-1.6z" fill="#d5c238"/><path d="m4.2 21.6v-.8l-.8.8z" fill="#d5c238"/><path d="m3.4 20-.8-.8v3.2l.8.8c0-1 0-2.2 0-3.2z" fill="#d5c238"/></svg>