<svg enable-background="new 0 0 32 32" height="32" viewBox="0 0 32 32" width="32" xmlns="http://www.w3.org/2000/svg"><g fill="#484d22"><path d="m17.6000366 21.7999878v.7999878h.7999878z"/><path d="m15.2000122 22.5999756.8000488.7999878.7999878-.7999878c-.3982315 0-1.2019024 0-1.6000366 0z"/><path d="m14.4000244 22.5999756v-.7999878l-.7999878.7999878z"/></g><g fill="#352e23"><path d="m20.000061 20.1999512h-.8000488l.8000488.8000488.7999878-.8000488z"/><path d="m19.2000122 21.7999878h1.6000366l-.7999878-.7999878z"/><path d="m12.000061 20.1999512h-.8000488l.8000488.8000488.7999878-.8000488z"/><path d="m12.000061 21.7999878h.7999878l-.7999878-.7999878-.8000488.7999878z"/></g><path d="m20.8000488 20.1999512-.7999878.8000488h1.5999756z" fill="#ece4ba"/><path d="m10.4000244 21h1.6000366l-.8000488-.8000488z" fill="#ece4ba"/><g fill="#9eac3b"><path d="m21.6000366 23.3999634v.7999878l.7999878-.7999878z"/><path d="m15.2000122 19.3999634.8000488.7999878.7999878-.7999878c-.3982315 0-1.2019024 0-1.6000366 0z"/><path d="m10.4000244 24.1999512v-.7999878h-.7999878z"/></g><path d="m21.6000366 22.5999756c-1.2823696 0-2.7176704 0-4 0 0-.7122631 0-1.6878262 0-2.4000244.3983784-.3983784 1.2016964-1.2016964 1.5999756-1.5999756-.3982182 0-1.2018566 0-1.5999756 0-.3983784.3983784-1.2016964 1.2016964-1.5999756 1.5999756-.3984089-.398365-1.2017565-1.2016811-1.6000366-1.5999756-.3982182 0-1.2018566 0-1.5999756 0 .3983793.3983784 1.2016954 1.2016964 1.5999756 1.5999756v2.4000244c-1.2823696 0-2.7176704 0-4 0l-.7999878.7999878h.7999878v.7999878h11.2000122v-.7999878h.7999878zm-6.4000244 0h1.6000366l-.7999878.7999878z" fill="#558140"/><path d="m21.6000366 19.3999634-.7999878-.7999878c-.3982315 0-1.2019024 0-1.6000366 0-.3983784.3983784-1.2016964 1.2016964-1.5999756 1.5999756v1.6000366l.7999878.7999878h3.2000122l.7999878-.7999878c0-.3982315 0-1.2019024 0-1.6000366zm-.7999878 1.6000366h-.7999878l.7999878.7999878c-.3982315 0-1.2019024 0-1.6000366 0l.8000488-.7999878-.8000488-.8000488h1.6000366l.7999878.8000488z" fill="#d7d1b3"/><path d="m12.8000488 18.5999756c-.3982325 0-1.2019024 0-1.6000366 0-.3983793.3983784-1.2016954 1.2016964-1.5999756 1.5999756v1.6000366l.7999878.7999878h3.2000122l.7999878-.7999878c0-.3982315 0-1.2019024 0-1.6000366-.3983793-.3983784-1.2016954-1.2016964-1.5999756-1.5999756zm-.7999878 2.4000244.7999878.7999878c-.3982325 0-1.2019024 0-1.6000366 0l.8000488-.7999878c-.3982344 0-1.2019033 0-1.6000366 0l.7999878-.8000488h1.6000366z" fill="#d7d1b3"/><path d="m8.000061 24.1999512h-.8000488l.8000488.8000488.7999878-.8000488z" fill="#dd4760"/><path d="m22.4000244 23.3999634-.7999878.7999878c-3.7154484 0-7.4845781 0-11.2000122 0l-.7999878-.7999878.7999878-.7999878c-.3982182 0-1.2018566 0-1.5999756 0v.7999878h-.7999878l-.8000488.7999878h1.6000366l-.7999878.8000488h14.3999634l.7999878-.8000488z" fill="#bb2035"/></svg>