<svg enable-background="new 0 0 32 32" height="32" viewBox="0 0 32 32" width="32" xmlns="http://www.w3.org/2000/svg"><g fill="#db7a49"><path d="m27.0000305 23.8000126h-.8000488l-.7999878.7999878h1.6000366l.7999878-.7999878z"/><path d="m24.6000061 21.3999882v.7999878l.7999878-.7999878z"/><path d="m15.8000183 21.3999882h1.5999756v-.7999878h-.7999878z"/><path d="m12.6000061 22.199976h.7999878l-.7999878-.7999878z"/><path d="m12.6000061 23.8000126v2.3999634l.7999878-.7999878c0-.3982182 0-1.2018566 0-1.5999756l-.7999878-.8000488z"/><path d="m12.6000061 26.9999638h.7999878l-.7999878-.7999878-.7999878.7999878z"/><path d="m11.8000183 22.9999638v-.7999878l-.7999878.7999878.7999878.8000488z"/><path d="m6.1999817 26.199976.8000488.7999878.7999878-.7999878c-.398232 0-1.2019019 0-1.6000366 0z"/></g><g fill="#50524f"><path d="m27.8000183 18.9999638-.7999878-.7999878v.7999878z"/><path d="m27.0000305 20.6000004h.7999878l-.7999878-.7999878z"/><path d="m26.1999817 17.3999882v.7999878h.8000488z"/><path d="m26.1999817 20.6000004c-.3982182 0-1.2018566 0-1.5999756 0l-.7999878.7999878v1.5999756l.7999878.8000488c0-.712265 0-1.6878262 0-2.4000244h1.5999756v1.5999756h-.7999878l-.7999878.8000488h1.5999756l1.6000366-1.6000366c0-.3982182 0-1.2018566 0-1.5999756l-.7999878.7999878z"/><path d="m24.5999928 19.0000076.7999725-.8000336.8000336.7999725-.7999725.8000336z"/><path d="m24.6000061 17.3999882.7999878.7999878v-.7999878z"/><path d="m23.0000305 25.3999882-.8000488.7999878v-.7999878c-.7122459 0-1.6877842 0-2.3999634 0l-.7999878.7999878v-.7999878c-.712265 0-1.6878262 0-2.4000244 0-.3983784-.3983784-1.2016954-1.2016964-1.5999756-1.5999756v1.5999756l-.8000488.7999878h1.6000366v.7999878h7.2000122c.3983784-.3983784 1.2016964-1.2016964 1.5999756-1.5999756-.3982182 0-1.2018566 0-1.5999756 0z"/><path d="m22.1999817 24.6000004.8000488.7999878v-.7999878z"/><path d="m19.8000183 21.3999882h-.7999878l.7999878.7999878z"/><path d="m19.0000305 23.8000126h2.3999634l-.7999878-.8000488c-1.0022583 0-2.1978035 0-3.2000122 0l.7999878.8000488z"/><path d="m18.1999817 21.3999882h-.7999878l.7999878.7999878z"/><path d="m15.8000183 21.3999882v.7999878h.7999878z"/><path d="m13.3999939 23.8000126v1.5999756l.7999878-.7999878c0-1.0022583 0-2.1978054 0-3.2000122h-.7999878v-.7999878l-.7999878-.7999878c-.3982182 0-1.2018566 0-1.5999756 0-.3984089.398365-1.2017565 1.2016811-1.6000366 1.5999756v.7999878h-.7999878l.7999878.7999878v1.6000366l-.7999878-.7999878h-.7999878v.7999878l-.7999878-.7999878h-.8000488v.7999878c.3984094.398365 1.201756 1.2016811 1.6000366 1.5999756h3.2000122l.7999878-.7999878c-.3983793-.3983936-1.2017269-1.2017097-1.6000366-1.5999756 0-.712265 0-1.6878262 0-2.4000244h.8000488l.7999878-.7999878h.7999878v.7999878l.7999878.7999878z"/><path d="m12.6000061 25.3999882v-.7999878l-.7999878-.7999878v1.5999756l.7999878.7999878z"/><path d="m8.6000061 20.6000004.7999878.7999878v-.7999878z"/><path d="m7.8000183 22.9999638.7999878.8000488v-.8000488z"/><path d="m7.8000183 21.3999882.7999878.7999878v-.7999878z"/><path d="m7.0000305 22.199976.7999878.7999878v-.7999878z"/><path d="m6.1999817 22.9999638.8000488.8000488v-.8000488z"/></g><path d="m27.0000305 18.9999638v-.7999878h-.8000488v-.7999878h-.7999878v.7999878l.7999878.7999878-.7999878.8000488v.7999878h.7999878l.8000488.7999878.7999878-.7999878h-.7999878v-.7999878l.7999878.7999878c0-.3982315 0-1.2019024 0-1.6000366z" fill="#717b73"/><path d="m23.8000183 18.199976v1.6000366c.398365-.3984089 1.2016811-1.2017555 1.5999756-1.6000366l-.7999878-.7999878z" fill="#717b73"/><path d="m23.0000305 23.8000126c0-.3982334 0-1.2019024 0-1.6000366-.3982334 0-1.2019024 0-1.6000366 0-.7123756-.7123756-1.6876545-1.6876545-2.3999634-2.3999634v.7999878c-.3982334 0-1.2019024 0-1.6000366 0v.7999878h.7999878v.7999878l-.7999878-.7999878c-.3982182 0-1.2018566 0-1.5999756 0l.7999878.7999878h-.7999878v.7999878l-.7999878-.7999878v1.6000366l.7999878.7999878.7999878-.7999878v1.5999756l.7999878-.7999878v.7999878h3.2000122v-.7999878l.7999878.7999878h1.6000366l-.8000488-.7999878h.8000488v.7999878h1.5999756v-.7999878h-.7999878zm-3.2000122-2.4000244v.7999878l-.7999878-.7999878zm.7999878 2.4000244c-.7122631 0-1.6878262 0-2.4000244 0l-.7999878-.8000488h3.2000122l.7999878.8000488z" fill="#717b73"/><path d="m9.3999939 19.8000126c-.3982182 0-1.2018566 0-1.5999756 0-.3983793.3983936-1.2017264 1.2017097-1.6000366 1.5999756l.8000488.7999878h.7999878v.7999878h.7999878v.8000488l.7999878.7999878c0-.3982315 0-1.2019024 0-1.6000366-.3983793-.3983784-1.2016954-1.2016964-1.5999756-1.5999756h.7999878v.7999878h.7999878v-.7999878l-.7999878-.7999878h.7999878v.7999878c.3983793-.3983936 1.2017269-1.2017097 1.6000366-1.5999756-.3982343 0-1.2019033 0-1.6000366 0z" fill="#717b73"/><path d="m7.0000305 22.199976h-.8000488v.7999878h.8000488v.8000488l.7999878.7999878v-.7999878h.7999878c-.398365-.3984089-1.2016811-1.2017555-1.5999756-1.6000366z" fill="#717b73"/><path d="m6.1999817 23.8000126h.8000488l-.8000488-.8000488z" fill="#717b73"/><path d="m22.1999817 25.3999882v.7999878l.8000488-.7999878z" fill="#ece4ba"/><path d="m20.6000061 25.3999882h.7999878l-.7999878-.7999878z" fill="#ece4ba"/><path d="m19.0000305 26.199976.7999878-.7999878h-.7999878z" fill="#ece4ba"/><path d="m17.3999939 25.3999882v-.7999878l-.7999878.7999878z" fill="#ece4ba"/><path d="m16.6000061 23.8000126-.7999878.7999878.7999878.7999878c0-.3982182 0-1.2018566 0-1.5999756z" fill="#ece4ba"/><path d="m11.8000183 22.199976v1.6000366h.7999878v-.8000488l.7999878-.7999878c-.3982182 0-1.2018566 0-1.5999756 0z" fill="#ece4ba"/><path d="m6.1999817 23.8000126v-.8000488l-.7999878.8000488z" fill="#ece4ba"/><path d="m5.3999939 22.199976h.7999878v.7999878h-.7999878z" fill="#ece4ba"/><g fill="#ba3f26"><path d="m28.6000061 22.9999638-.7999878-.7999878-.7999878.7999878z"/><path d="m27.8000183 24.6000004v-.7999878l-.7999878.7999878z"/><path d="m27.0000305 23.8000126h.7999878l-.7999878-.8000488-.8000488.8000488z"/><path d="m25.3999939 24.6000004.7999878-.7999878c-.3982182 0-1.2018566 0-1.5999756 0l-.7999878-.8000488h-.7999878v.8000488l.7999878.7999878h.7999878v.7999878c-.3983784.3983784-1.2016964 1.2016964-1.5999756 1.5999756-2.3720779 0-4.8279572 0-7.2000122 0v-.7999878c-.3982325 0-1.2019024 0-1.6000366 0l.8000488-.7999878c0-.3982182 0-1.2018566 0-1.5999756l-.8000488-.8000488v1.6000366c-.3983793.3983784-1.2016954 1.2016964-1.5999756 1.5999756.3983927.3983784 1.2017097 1.2017269 1.5999756 1.6000366h9.6000366c.398365-.3984089 1.2016811-1.2017555 1.5999756-1.6000366v-.7999878h.7999878l.8000488-.7999878c-.3982334 0-1.2019024 0-1.6000366 0z"/><path d="m26.1999817 22.9999638c0-.3982182 0-1.2018566 0-1.5999756h-.7999878l-.7999878.7999878v1.6000366l.7999878-.8000488z"/><path d="m25.3999939 19.8000126-.7999878.7999878h.7999878z"/><path d="m19.0000305 19.8000126-.8000488.7999878h.8000488z"/><path d="m15.8000183 22.199976h-.7999878l.7999878.7999878z"/><path d="m13.3999939 20.6000004v.7999878h.7999878z"/><path d="m13.3999939 23.8000126c0-.3982334 0-1.2019024 0-1.6000366l-.7999878.7999878z"/><path d="m12.6000061 23.8000126h-.7999878l.7999878.7999878z"/><path d="m11.0000305 26.199976c-1.0022583 0-2.1978045 0-3.2000122 0l-.7999878.7999878h4.7999878l.7999878-.7999878-.7999878-.7999878z"/><path d="m11.8000183 23.8000126-.7999878-.8000488.7999878-.7999878h.7999878c0-.3982182 0-1.2018566 0-1.5999756h-.7999878l-.7999878.7999878h-.8000488v2.4000244c.3984089.398365 1.2017565 1.2016811 1.6000366 1.5999756 0-.3982182 0-1.2018566 0-1.5999756z"/><path d="m6.1999817 21.3999882v.7999878h.8000488z"/><path d="m6.1999817 24.6000004-.7999878.7999878.7999878.7999878h1.6000366c-.3983793-.3983937-1.2017264-1.2017098-1.6000366-1.5999756z"/><path d="m4.6000061 26.199976h.7999878v.7999878h-.7999878z"/></g></svg>