<svg enable-background="new 0 0 32 32" height="32" viewBox="0 0 32 32" width="32" xmlns="http://www.w3.org/2000/svg"><path d="m22.4000187 20.7999878v-.7999878l-.7999878.7999878z" fill="#ece4ba"/><path d="m21.6000309 19.2000122-.8000488-.7999878v1.5999756l-.7999878.7999878h1.6000366c0-.3982182 0-1.2018566 0-1.5999756z" fill="#ece4ba"/><path d="m20.7999821 14.4000244v-.7999878c-.3982182 0-1.2018566 0-1.5999756 0 .3983784.3983793 1.2016945 1.2016954 1.5999756 1.5999756h1.6000366l-.7999878-.7999878z" fill="#ece4ba"/><path d="m18.4000187 19.2000122v1.5999756h1.5999756c-.3983803-.3983784-1.2016964-1.2016964-1.5999756-1.5999756z" fill="#ece4ba"/><path d="m16.7999821 20.7999878h1.6000366l-.7999878-.7999878z" fill="#ece4ba"/><path d="m15.2000065 20.7999878h1.5999756l-.7999878-.7999878z" fill="#ece4ba"/><path d="m15.2000065 19.2000122c-.3983793.3983784-1.2016964 1.2016964-1.5999756 1.5999756h1.5999756c0-.3982182 0-1.2018566 0-1.5999756z" fill="#ece4ba"/><path d="m12.7999821 19.2000122v-.7999878l-.7999878.7999878v1.5999756h1.6000366l-.8000488-.7999878z" fill="#ece4ba"/><path d="m11.2000065 20.7999878h.7999878l-.7999878-.7999878z" fill="#ece4ba"/><g fill="#424f55"><path d="m27.2000065 21.6000366h1.5999756l-.7999878-.8000488z"/><path d="m27.2000065 26.4000244.7999878-.7999878h-.7999878z"/><path d="m24.7999821 25.6000366.8000488-.8000488h-.8000488z"/><path d="m23.9999943 16.7999878.7999878.8000488-.7999878.7999878.7999878.7999878.8000488-.7999878c0-1.0022583 0-2.1978054 0-3.2000122-.3984089.398365-1.2017574 1.2016811-1.6000366 1.5999756z"/><path d="m23.9999943 24v.7999878l.7999878-.7999878z"/><path d="m21.6000309 16.7999878c-.712265 0-1.6878281 0-2.4000244 0 0-.3982182 0-1.2018566 0-1.5999756-.3983803.3983793-1.2016964 1.2016964-1.5999756 1.5999756l.7999878.8000488h4.7999878l-.7999878-.8000488z"/><path d="m20.7999821 23.2000122c-3.1791019 0-6.4208908 0-9.5999756 0l.7999878.7999878h9.6000366l.7999878-.7999878c-.3982334 0-1.2019024 0-1.6000366 0z"/><path d="m17.6000309 15.2000122c0-.3982182 0-1.2018566 0-1.5999756-.3982353 0-1.2019043 0-1.6000366 0v1.5999756l.7999878.7999878z"/><path d="m16.7999821 17.6000366-.7999878.7999878h1.6000366z"/><path d="m15.9999943 21.6000366.7999878.7999878.8000488-.7999878c-.3982353 0-1.2019043 0-1.6000366 0z"/><path d="m12.7999821 14.4000244v-.7999878l-.7999878.7999878.7999878.7999878z"/><path d="m11.9999943 17.6000366h3.2000122l.7999878-.8000488c-.3983793-.3983784-1.2016964-1.2016954-1.5999756-1.5999756v1.5999756c-1.0022583 0-2.1978054 0-3.2000122 0l-.7999878.8000488z"/><path d="m9.6000309 24.7999878v-.7999878h-.8000488z"/><path d="m8.7999821 16-.7999883-.7999878v3.2000122l.7999883.7999878.8000488-.7999878-.8000488-.7999878.8000488-.8000488z"/><path d="m8.7999821 25.6000366v-.8000488h-.7999883z"/><path d="m6.4000182 26.4000244v-.7999878h-.7999878z"/><path d="m4.7999816 21.6000366h1.6000366l-.7999878-.8000488z"/></g><path d="m28.7999821 21.6000366c-.7122459 0-1.6877842 0-2.3999634 0v.7999878h3.2000122z" fill="#3f8a81"/><path d="m25.6000309 16.7999878.7999878-.7999878c0-.7122459 0-1.6877842 0-2.3999634h-.7999878z" fill="#3f8a81"/><path d="m24.7999821 22.4000244c-.3983803.3983784-1.2016964 1.2016964-1.5999756 1.5999756v.7999878h.7999878v-.7999878h.7999878l-.7999878.7999878v.8000488h.7999878v-.8000488h.8000488l-.8000488.8000488v.7999878h2.4000244v-.7999878h.7999878c0-.3982334 0-1.2019024 0-1.6000366l-.7999878-.7999878v1.5999756l-.7999878-.7999878.7999878-.7999878-.7999878-.7999878c-.3982334 0-1.2019024 0-1.6000366 0z" fill="#3f8a81"/><path d="m23.2000065 21.6000366v-.8000488l-.7999878-.7999878v.7999878c-3.7154484 0-7.4845791 0-11.2000122 0v2.4000244h11.2000122l.7999878-.7999878zm-7.2000122 0h1.6000366l-.8000488.7999878z" fill="#3f8a81"/><path d="m23.2000065 17.6000366v3.1999512l.7999878.8000488v-.8000488h.7999878c.3984089-.398365 1.2017555-1.2016811 1.6000366-1.5999756 0-.7122631 0-1.6878262 0-2.4000244h-.7999878v1.6000366l-.8000488.7999878-.7999878-.7999878.7999878-.7999878-.7999878-.8000488c.3983784-.3983936 1.2017269-1.2017097 1.6000366-1.5999756l-.8000488-.7999878c-.3983803.3983793-1.2016964 1.2016955-1.5999756 1.5999756v-.7999878h-.7999878l-.7999878.7999878c.3983917.3983784 1.2017097 1.2017269 1.5999756 1.6000366z" fill="#3f8a81"/><path d="m11.9999943 19.2000122.7999878-.7999878v1.5999756l.8000488.7999878c.3983784-.3983784 1.2016954-1.2016964 1.5999756-1.5999756v1.5999756l.7999878-.7999878.7999878.7999878.8000488-.7999878.7999878.7999878c0-.3982182 0-1.2018566 0-1.5999756.3983784.3983784 1.2016945 1.2016964 1.5999756 1.5999756l.7999878-.7999878c0-.3982182 0-1.2018566 0-1.5999756l.8000488.7999878v1.5999756l.7999878-.7999878c0-.7122459 0-1.6877842 0-2.3999634-1.2823696 0-2.7176704 0-4 0l-.7999878-.8000488c.3983784-.3983784 1.2016945-1.2016954 1.5999756-1.5999756v1.5999756h2.4000244v-.7999878l-.8000488-.7999878h-.7999878v-.7999878l-.7999878-.7999878-.7999878.7999878c0-.3982325 0-1.2019024 0-1.6000366l-.7999878.8000488v1.5999756l-.8000488.7999878-.7999878-.7999878c0-.3982182 0-1.2018566 0-1.5999756-1.0022583 0-2.1978045 0-3.2000122 0v1.5999756l-.7999878.7999878v.7999878h2.4000244c0-.3982182 0-1.2018566 0-1.5999756.3983784.3983793 1.2016954 1.2016964 1.5999756 1.5999756l-.7999878.8000488c-1.2823696 0-2.7176714 0-4 0v2.3999634l.7999878.7999878c0-.3982182 0-1.2018566 0-1.5999756zm4.7999878-1.5999756.8000488.7999878c-.3982353 0-1.2019043 0-1.6000366 0z" fill="#3f8a81"/><path d="m11.9999943 14.4000244c-.3983793.3983793-1.2016964 1.2016955-1.5999756 1.5999756-.3983793-.3983927-1.2017269-1.2017097-1.6000366-1.5999756l-.7999883.7999878c.3983788.3983927 1.2017264 1.2017097 1.6000371 1.5999756l-.8000488.8000488.8000488.7999878-.8000488.7999878-.7999883-.7999878-.7999878.7999878c.3983788.3983784 1.2016959 1.2016964 1.5999761 1.5999756h.8000488v.8000488l.7999878.7999878c0-1.557785 0-3.2422371 0-4.7999878.3983641-.3984089 1.2016811-1.2017555 1.5999756-1.6000366 0-.3982182 0-1.2018566 0-1.5999756z" fill="#3f8a81"/><path d="m8.7999821 22.4000244c-.3982182 0-1.2018571 0-1.5999761 0-.3983788.3983784-1.2016954 1.2016964-1.5999756 1.5999756v1.6000366h.7999878v.7999878h2.3999639v-.7999878l-.7999883-.8000488h.7999883v.8000488h.8000488v-.8000488l-.8000488-.7999878h.8000488v.7999878h.7999878v-.7999878c-.3983793-.3983936-1.2017269-1.2017097-1.6000366-1.5999756z" fill="#3f8a81"/><path d="m7.9999938 16.7999878c0-.3982182 0-1.2018566 0-1.5999756l-.7999878.7999878v1.6000366l.7999878.7999878c0-.3982315 0-1.2019024 0-1.6000366z" fill="#3f8a81"/><path d="m5.6000304 21.6000366h-.8000488l-.7999878.7999878h3.2000122l-.7999878-.7999878z" fill="#3f8a81"/><path d="m27.9999943 20.7999878.7999878.8000488.8000488-.8000488c-.3982353 0-1.2019043 0-1.6000366 0z" fill="#442821"/><path d="m27.9999943 19.2000122v.7999878h.7999878z" fill="#442821"/><path d="m23.9999943 21.6000366.7999878.7999878c0-.3982315 0-1.2019024 0-1.6000366h-.7999878z" fill="#442821"/><path d="m8.7999821 21.6000366v.7999878l.8000488-.7999878v-.8000488h-.8000488z" fill="#442821"/><path d="m5.6000304 18.4000244h.7999878l-.7999878-.7999878z" fill="#442821"/><path d="m3.9999938 20.7999878.7999878.8000488.8000488-.8000488c-.3982339 0-1.2019028 0-1.6000366 0z" fill="#442821"/><path d="m3.9999938 24.7999878v-.7999878l-.7999878.7999878z" fill="#442821"/><path d="m29.6000309 22.4000244c-1.0022583 0-2.1978054 0-3.2000122 0 .3983784.3983784 1.2016945 1.2016964 1.5999756 1.5999756v1.6000366h1.6000366v-.8000488h.7999878c0-.7122459 0-1.6877842 0-2.3999634z" fill="#634c42"/><path d="m27.2000065 21.6000366.7999878-.8000488h1.6000366l-.8000488-.7999878h-.7999878v-.7999878l.7999878.7999878c0-.3982182 0-1.2018566 0-1.5999756h-.7999878v-.7999878c-.3982182 0-1.2018566 0-1.5999756 0v1.5999756c-.3983803.3983936-1.2017269 1.2017097-1.6000366 1.5999756v1.6000366h1.6000366v-.7999878z" fill="#634c42"/><path d="m7.200006 19.2000122.7999878-.7999878-.7999878-.7999878c-.3982177 0-1.2018566 0-1.5999756 0l.7999878.7999878c-.398232 0-1.2019019 0-1.6000366 0v1.5999756l-.7999878.7999878h1.6000366c.398365.3984089 1.2016811 1.2017555 1.5999756 1.6000366h1.5999761c0-.3982315 0-1.2019024 0-1.6000366-.3983794-.3983784-1.2016959-1.2016964-1.5999761-1.5999756z" fill="#634c42"/><path d="m5.6000304 22.4000244c-.7122645 0-1.6878271 0-2.4000244 0v2.3999634l.7999878-.7999878v1.6000366h1.6000366c0-.3982334 0-1.2019024 0-1.6000366.3983788-.3983784 1.2016954-1.2016964 1.5999756-1.5999756-.3982177 0-1.2018566 0-1.5999756 0z" fill="#634c42"/><path d="m26.4000187 24 .7999878.7999878c0-.3982182 0-1.2018566 0-1.5999756z" fill="#bb2035"/><path d="m25.6000309 15.2000122c0-.3982182 0-1.2018566 0-1.5999756l-.8000488.7999878z" fill="#bb2035"/><path d="m23.2000065 20.7999878v1.6000366c-.3983803.3983784-1.2016964 1.2016964-1.5999756 1.5999756h1.5999756c.3983784-.3983784 1.2016945-1.2016964 1.5999756-1.5999756-.3983937-.3983784-1.2017098-1.2017269-1.5999756-1.6000366z" fill="#bb2035"/><path d="m23.2000065 19.2000122c0-.3982182 0-1.2018566 0-1.5999756h-.7999878v2.3999634l.7999878.7999878c0-.3982182 0-1.2018566 0-1.5999756z" fill="#bb2035"/><path d="m22.4000187 15.2000122c-.3982334 0-1.2019024 0-1.6000366 0l.8000488.7999878z" fill="#bb2035"/><path d="m22.4000187 16.7999878-.7999878-.7999878v.7999878z" fill="#bb2035"/><path d="m19.9999943 24c-2.6415615 0-5.3584585 0-8 0l-.7999878-.7999878-.7999878.7999878v.7999878h-.7999878v.8000488h-.8000488v.7999878h4l.8000488-.7999878h6.3999634c.398365-.3984241 1.2017116-1.2017708 1.6000366-1.6000366-.3982353 0-1.2019043 0-1.6000366 0z" fill="#bb2035"/><path d="m18.4000187 13.6000366v.7999878l.7999878-.7999878z" fill="#bb2035"/><path d="m11.9999943 14.4000244v1.5999756l.7999878-.7999878z" fill="#bb2035"/><path d="m11.2000065 20.7999878c0-1.0022392 0-2.1977615 0-3.1999512h-.7999878v3.1999512l.7999878.8000488z" fill="#bb2035"/><path d="m10.4000187 22.4000244-.7999878-.7999878-.8000488.7999878c.3984089.398365 1.2017555 1.2016812 1.6000366 1.5999756 0-.3982182 0-1.2018566 0-1.5999756z" fill="#bb2035"/><path d="m3.200006 24v-.7999878l-.7999878.7999878c-.3982322 0-1.201902 0-1.6000366 0 .3984232.398365 1.2017703 1.2017117 1.6000366 1.6000366h1.5999756v-.8000488h-.7999878z" fill="#bb2035"/><path d="m22.4000187 24h-.7999878c-.3984241.398365-1.2017708 1.2017117-1.6000366 1.6000366h1.6000366l.7999878-.8000488h.7999878v-.7999878z" fill="#dd4760"/><path d="m19.9999943 14.4000244v.7999878h.7999878z" fill="#dd4760"/><path d="m13.6000309 25.6000366-.8000488.7999878h1.6000366l.7999878-.7999878c-.3982182 0-1.2018576 0-1.5999756 0z" fill="#dd4760"/><path d="m11.9999943 16.7999878v-.7999878l-.7999878.7999878z" fill="#dd4760"/><path d="m10.4000187 21.6000366v2.3999634l.7999878-.7999878c0-.3982182 0-1.2018566 0-1.5999756l-.7999878-.8000488z" fill="#dd4760"/><path d="m7.9999938 15.2000122.7999883-.7999878h-.7999883z" fill="#dd4760"/><path d="m1.6000304 23.2000122-.8000488.7999878h1.6000366l.7999878-.7999878c-.3982179 0-1.2018566 0-1.5999756 0z" fill="#dd4760"/></svg>