<svg enable-background="new 0 0 32 32" height="32" viewBox="0 0 32 32" width="32" xmlns="http://www.w3.org/2000/svg"><path d="m20.6000175 20c-1.0022583 0-2.1978035 0-3.2000122 0l.7999878.7999878h3.2000122z" fill="#352e23"/><path d="m18.9999809 23.2000122h1.6000366l-.7999878-.7999878z" fill="#352e23"/><path d="m18.1999931 23.2000122h.7999878l-.7999878-.7999878z" fill="#352e23"/><g fill="#885250"><path d="m22.1999931 18.4000244c-.3983917-.3983784-1.2017097-1.2017269-1.5999756-1.6000366-.398365.3984241-1.2017117 1.2017708-1.6000366 1.6000366h1.6000366v.7999878h.7999878l.7999878.7999878.7999878-.7999878z"/><path d="m16.6000175 18.4000244v.7999878l.7999878-.7999878c0-.3982315 0-1.2019024 0-1.6000366l-.7999878.8000488z"/><path d="m14.9999809 16.7999878h-.7999878l.7999878.8000488c-.3982172 0-1.2018566 0-1.5999756 0l.7999878.7999878h1.6000366l.7999878-.7999878-.7999878-.8000488z"/><path d="m12.6000175 17.6000366h-.7999878v1.5999756l.7999878-.7999878h.7999878v-.7999878l-.7999878-.8000488z"/></g><path d="m18.9999809 15.2000122v.7999878h.8000488z" fill="#666c57"/><path d="m15.8000298 21.6000366.7999878-.8000488c0-.3982182 0-1.2018566 0-1.5999756l-.7999878-.7999878c-1.0022583 0-2.1978035 0-3.2000122 0-1.0023527 1.0023689-2.1977692 2.1976337-3.2000122 3.2000122.3983793.3983784 1.2016964 1.2016964 1.5999756 1.5999756h3.2000122l.7999878-.7999878.8000488.7999878c.3983803-.3983784 1.2016964-1.2016964 1.5999756-1.5999756-.3982182 0-1.2018567 0-1.5999756 0zm-3.2000123-1.6000366.7999878-.7999878h1.5999756l.8000489.7999878v.7999878c-1.2823696 0-2.7176695 0-4 0zm-1.6000366 1.6000366h.8000488v.7999878z" fill="#666c57"/><path d="m13.4000053 15.2000122v.7999878l.7999878-.7999878z" fill="#666c57"/><g fill="#774545"><path d="m22.9999809 20v-.7999878l-.7999878.7999878.7999878.7999878.8000489-.7999878z"/><path d="m16.6000175 19.2000122c0-.3982182 0-1.2018566 0-1.5999756l-.7999878.7999878z"/><path d="m13.4000053 18.4000244h.7999878l-.7999878-.7999878z"/><path d="m10.9999809 20 .8000488-.7999878h-.8000488z"/><path d="m9.4000053 21.6000366.7999878-.8000488h-.7999878z"/></g><path d="m19.8000298 16h-.8000488v-.7999878c-1.5577831 0-3.2422361 0-4.7999878 0l-.7999879.7999878v-.7999878c-.3982172 0-1.2018566 0-1.5999756 0v.7999878c-.7124462.7123413-1.6876841 1.6877117-2.4000244 2.4000244h1.5999756l.8000488.7999878c0-.3982182 0-1.2018566 0-1.5999756h.7999878v-.8000488l.7999878.8000488h1.5999756l-.7999878-.8000488h1.6000366l.7999878.8000488.7999878-.8000488v1.6000366c.3983936-.3983784 1.2017097-1.2017269 1.5999756-1.6000366v.8000488h.8000488l.7999878-.8000488z" fill="#ac9e54"/><path d="m10.1999931 20h-.7999878c-.3983927.3983784-1.2017097 1.2017269-1.5999751 1.6000366.3983788.3983784 1.2016959 1.2016964 1.5999751 1.5999756 0-.7122631 0-1.6878262 0-2.4000244h.7999878l.7999878-.7999878-.7999878-.7999878z" fill="#ac9e54"/><path d="m18.9999809 17.6000366v-.8000488c-.398365.3984089-1.2016811 1.2017555-1.5999756 1.6000366h1.5999756l.8000488-.7999878z" fill="#806d3b"/><path d="m10.1999931 18.4000244h-.7999878c.3983794.3983784 1.2016964 1.2016964 1.5999756 1.5999756v-.7999878h.8000488l-.8000488-.7999878z" fill="#806d3b"/><path d="m7.8000302 21.6000366h-.8000488v.7999878l.8000488.7999878h1.5999751c-.3983783-.3983784-1.2016954-1.2016964-1.5999751-1.5999756z" fill="#806d3b"/><g fill="#484d22"><path d="m25.4000053 18.4000244-.7999878.7999878h.7999878z"/><path d="m24.6000175 17.6000366-.7999878.7999878h.7999878z"/><path d="m22.9999809 19.2000122v.7999878h2.4000244l-.7999878-.7999878c-.3982315 0-1.2019023 0-1.6000366 0z"/><path d="m15.8000298 21.6000366h1.5999756l-.7999878-.8000488z"/><path d="m14.1999931 23.2000122h1.6000366l-.8000488-.7999878z"/><path d="m14.9999809 20.7999878h.8000488v-.7999878l-.8000488-.7999878c-.3982172 0-1.2018566 0-1.5999756 0-.3983784.3983784-1.2016954 1.2016964-1.5999756 1.5999756z"/><path d="m11.8000298 22.4000244v-.7999878h-.8000488z"/><path d="m9.4000053 21.6000366v1.5999756h1.5999756c-.3983783-.3983784-1.2016954-1.2016964-1.5999756-1.5999756z"/><path d="m7.8000302 20c0-.3982182 0-1.2018566 0-1.5999756l-.8000488.7999878z"/><path d="m6.1999936 20.7999878h-.7999878c.398365.3984089 1.2016811 1.2017555 1.5999756 1.6000366v-.7999878h.8000488l-.8000488-.8000488z"/></g><path d="m25.4000053 18.4000244v.7999878h-.7999878l.7999878.7999878.7999878-.7999878z" fill="#70775f"/><path d="m24.6000175 17.6000366v.7999878h-.7999878l.7999878-.7999878c-.7123394-.7124462-1.6877098-1.687685-2.4000244-2.4000244-.3983784.3983784-1.2016945 1.2016964-1.5999756 1.5999756.7123451.7124252 1.6876469 1.687706 2.3999634 2.4000244h1.6000366l.7999878-.7999878z" fill="#70775e"/><path d="m8.6000175 17.6000366v.7999878h-.7999873v2.3999634h-.8000488l.8000488.8000488c.3983646-.3984089 1.2016816-1.2017555 1.5999751-1.6000366h.7999878v-.7999878c-.3983783-.3983784-1.2016954-1.2016964-1.5999756-1.5999756z" fill="#70775f"/><path d="m5.4000058 20.7999878h1.5999756l-.7999878-.7999878z" fill="#70775f"/><path d="m22.1999931 20-.7999878-.7999878h-.7999878v-.7999878c-1.0022583 0-2.1978035 0-3.2000122 0l-.7999878.7999878v1.5999756l.7999878.8000488c-.3983784.3983784-1.2016945 1.2016964-1.5999756 1.5999756h2.3999634v-.7999878l.7999878.7999878.8000488-.7999878.7999878.7999878h1.5999756l.7999878-.7999878c0-.3982315 0-1.2019024 0-1.6000366zm-4.7999878 0h3.2000122l.7999878.7999878c-1.0022564 0-2.1978035 0-3.2000122 0z" fill="#d7cbb5"/><path d="m6.9999814 18.4000244h-.7999878v.7999878h-.7999878v.7999878h.7999878l.7999878.7999878h.8000488v-.7999878l-.8000488-.7999878z" fill="#d7cbb5"/><path d="m23.8000298 21.6000366c-.7124234.7123451-1.687706 1.687645-2.4000245 2.3999634h1.5999756c.3984089-.398365 1.2017574-1.2016811 1.6000366-1.5999756z" fill="#84718d"/><path d="m19.8000298 24h1.5999756l-.7999878-.7999878z" fill="#84718d"/><path d="m6.1999936 23.2000122c-.3982177 0-1.2018566 0-1.5999756 0l.7999878.7999878h1.5999756l.8000488-.7999878c-.3982339 0-1.2019028 0-1.6000366 0z" fill="#84718d"/><path d="m22.9999809 21.6000366v.7999878l.8000488-.7999878z" fill="#6d5b78"/><path d="m20.6000175 23.2000122.7999878.7999878.7999878-.7999878c-.3982181 0-1.2018566 0-1.5999756 0z" fill="#6d5b78"/><path d="m18.9999809 23.2000122c-3.7154274 0-7.4845371 0-11.1999512 0l-.8000483.7999878.8000488.7999878h4.7999873l.7999878-.7999878h6.4000244l.7999878-.7999878c-.3982315 0-1.2019023 0-1.6000366 0z" fill="#6d5b78"/><path d="m6.1999936 22.4000244h-.7999878l-.7999878.7999878h3.2000122l-.8000488-.7999878z" fill="#6d5b78"/></svg>