<svg enable-background="new 0 0 32 32" height="32" viewBox="0 0 32 32" width="32" xmlns="http://www.w3.org/2000/svg"><path d="m27.2000256 19.9999352h-.7999993v-.7999993z" fill="#6d645c"/><path d="m31.2000122 23.9999542c-.3982182 0-1.2018566 0-1.5999756 0l.7999878.7999878h1.5999756z" fill="#dd4760"/><path d="m22.4000244 24.799942v-.7999878h-.7999878z" fill="#dd4760"/><path d="m18.4000244 26.3999176h-.7999878l.7999878.7999878h1.5999756l-.7999878-.7999878z" fill="#dd4760"/><path d="m18.4000244 22.3999176v.7999878h.7999878z" fill="#dd4760"/><path d="m22.4000244 18.3999176-.7999878-.7999878v.7999878z" fill="#34191c"/><path d="m20 17.5999298c-.3982182 0-1.2018566 0-1.5999756 0l-.7999878.7999878h3.2000122l.7999878-.7999878c-.3982315 0-1.2019024 0-1.6000366 0z" fill="#34191c"/><path d="m12.8000488 17.5999298c-.712265 0-1.6878271 0-2.4000244 0l.7999878.7999878h3.2000122l-.7999878-.7999878z" fill="#34191c"/><path d="m20.8000488 21.5999298h.7999878v-.7999878z" fill="#ece4ba"/><path d="m20.8000488 19.9999542-.8000488-.8000488v1.6000366l-.7999878.7999878h1.6000366c0-.3982181 0-1.2018566 0-1.5999756z" fill="#ece4ba"/><path d="m17.6000366 19.9999542v1.5999756h1.5999756c-.3983784-.3983784-1.2016964-1.2016945-1.5999756-1.5999756z" fill="#ece4ba"/><path d="m16 21.5999298h1.6000366l-.7999878-.7999878z" fill="#ece4ba"/><path d="m14.4000244 21.5999298h1.5999756l-.7999878-.7999878z" fill="#ece4ba"/><path d="m14.4000244 19.9999542c-.3983793.3983803-1.2016954 1.2016964-1.5999756 1.5999756h1.5999756c0-.3982181 0-1.2018566 0-1.5999756z" fill="#ece4ba"/><path d="m12 19.9999542v-.8000488l-.7999878.8000488v1.5999756h1.6000366l-.8000488-.7999878z" fill="#ece4ba"/><path d="m10.4000244 21.5999298h.7999878l-.7999878-.7999878z" fill="#ece4ba"/><path d="m8.0000257 26.3999348-.7999997.8000011v-.8000011z" fill="#c49b3c"/><g fill="#553f2a"><path d="m28.8000488 21.5999298-.8000488-.7999878c-.3983784.3983803-1.2016964 1.2016964-1.5999756 1.5999756h3.2000122z"/><path d="m26.4000244 27.1999054.7999878-.7999878h-.7999878z"/><path d="m24 26.3999176.8000488-.7999878h-.8000488z"/><path d="m23.2000122 17.5999298.7999878.7999878-.7999878.7999878.7999878.8000488.8000488-.8000488c0-1.0022392 0-2.1977615 0-3.1999502-.3984089.398364-1.2017555 1.2016802-1.6000366 1.5999746z"/><path d="m23.2000122 24.799942v.7999878l.7999878-.7999878z"/><path d="m23.2000122 20.799942v.7999878h.7999878z"/><path d="m22.4000244 19.1999054v-.7999878l-.7999878.7999878z"/><path d="m21.6000366 18.3999176v-.7999878l-.7999878.7999878z"/><path d="m20.8000488 15.1999063c0-.3982182 0-1.2018576 0-1.5999756-.3982334 0-1.2019024 0-1.6000366 0 .3983784.3983927 1.2017269 1.2017098 1.6000366 1.5999756z"/><path d="m20 16.799942v-.7999868l-.7999878.7999868c-.3982182 0-1.2018566 0-1.5999756 0l-.7999878.7999878h4.7999878l-.7999878-.7999878z"/><path d="m15.2000122 22.3999176.7999878.7999878.8000488-.7999878c-.3982334 0-1.2019033 0-1.6000366 0z"/><path d="m15.2000122 19.1999054h1.6000366l-.8000488-.7999878z"/><path d="m14.4000244 16.799942c-.7122641 0-1.6878262 0-2.4000244 0v-.7999868c-.3983793.3983793-1.2016954 1.2016954-1.5999756 1.5999746h4.7999878z"/><path d="m14.4000244 13.5999308-.7999878-.7999878-.7999878.7999878v1.5999756c.3983794-.3983794 1.2016955-1.2016964 1.5999756-1.5999756z"/><path d="m10.4000244 14.3999186v.7999877h.7999878z"/><path d="m10.4000244 18.3999176h.7999878l-.7999878-.7999878-.7999878.7999878z"/><path d="m9.6000366 19.9999542.7999878-.8000488-.7999878-.7999878z"/><path d="m8.8000488 25.5999298v-.7999878h-.8000488z"/><path d="m8.8000488 21.5999298v-.7999878l-.8000488.7999878z"/><path d="m8 16.799942-.7999878-.7999868v3.1999502l.7999878.8000488.8000488-.8000488-.8000488-.7999878.8000488-.7999878z"/><path d="m8 26.3999176v-.7999878h-.7999878z"/><path d="m5.6000366 27.1999054v-.7999878h-.7999878z"/><path d="m4 20.799942c-.3983791.3983803-1.2016954 1.2016964-1.5999756 1.5999756h3.2000122c-.3983793-.3983917-1.2017264-1.2017097-1.6000366-1.5999756z"/></g><path d="m29.6000366 20.799942c-.3982315 0-1.2019024 0-1.6000366 0l.8000488.7999878z" fill="#2b2525"/><path d="m28.8000488 25.5999298h.7999878l-.7999878-.7999878z" fill="#2b2525"/><path d="m25.6000366 23.1999054.7999878-.7999878h-.7999878z" fill="#2b2525"/><path d="m23.2000122 21.5999298c0-2.1018734 0-4.2981758 0-6.4000235h-.7999878v-.7999878h-.7999878l-.7999878-.7999878v1.5999756l-.8000488-.7999877c-.3983936.3983784-1.2017097 1.201726-1.5999756 1.6000366 0-.3982344 0-1.2019033 0-1.6000366l.7999878-.7999878h1.6000366l-.8000488-.7999878c0-.3982325 0-1.2019024 0-1.6000366l-.7999878.8000488-.7999878-.8000488h-.7999878v-.7999878c-.3983784-.3983937-1.2017269-1.2017098-1.6000366-1.5999756v.7999878c-1.5577841 0-3.2422371 0-4.7999878 0v.7999878c-.3983927.3983784-1.2017097 1.201726-1.5999756 1.6000366v.7999878h.7999878c-.3983793.3983784-1.2016954 1.2016954-1.5999756 1.5999756h-.8000488v.7999878l.8000488.8000488v6.3999624l-.8000488.7999878h1.6000366c.398365.3984089 1.2016811 1.2017574 1.5999756 1.6000366h9.6000366l.7999878-.7999878h.7999878v-.8000488h1.5999756l-.7999878-.7999878zm-10.3999634-6.4000235c0-.3982182 0-1.2018576 0-1.5999756l.7999878-.7999878.7999878.7999878-.7999878.7999878v1.6000366zm-1.6000366 0h-.7999878v-.7999878zm10.4000244 7.2000113v.7999878h-.7999878l-.8000488.8000488c-2.6415615 0-5.3584585 0-8 0-.7123442-.7124233-1.6876459-1.687706-2.3999634-2.4000244 0-1.0022564 0-2.1978035 0-3.2000122.7123757-.7123756 1.6876545-1.6876545 2.3999634-2.3999624v.7999868h2.4000244c.3983793.3983803 1.2016955 1.2016964 1.5999756 1.5999756.3984089-.398365 1.2017555-1.2016811 1.6000366-1.5999756h1.5999756l.7999878-.7999868v.7999868h.8000488c.3983784.3983803 1.2016964 1.2016964 1.5999756 1.5999756v3.2000122z" fill="#2b2525"/><path d="m7.2000122 22.3999176v-.7999878h-.7999878z" fill="#2b2525"/><path d="m4.8000488 21.5999298v-.7999878h-.8000488z" fill="#2b2525"/><path d="m3.2000122 25.5999298v-.7999878l-.7999878.7999878z" fill="#2b2525"/><path d="m2.4000244 20.799942.7999878.7999878.7999878-.7999878c-.3982179 0-1.2018566 0-1.5999756 0z" fill="#2b2525"/><g fill="#7b6540"><path d="m28.8000488 22.3999176c-.712265 0-1.6878262 0-2.4000244 0l-.7999878.7999878h4v-.7999878z"/><path d="m24.8000488 17.5999298.7999878-.7999878c0-.7122631 0-1.6878271 0-2.4000235h-.7999878z"/><path d="m24 23.1999054c-.398365.3984089-1.2016811 1.2017574-1.5999756 1.6000366v.7999878h.7999878v-.7999878h.7999878l-.7999878.7999878v.7999878h.7999878v-.7999878h.8000488l-.8000488.7999878v.7999878h2.4000244v-.7999878h.7999878c0-.3982182 0-1.2018566 0-1.5999756l-.7999878-.7999878v1.5999756l-.7999878-.7999878.7999878-.7999878-.7999878-.8000488c-.3982315 0-1.2019024 0-1.6000366 0z"/><path d="m24.8000488 15.9999552-.8000488-.8000489-.7999878.8000488v1.5999746c.3983784-.3983916 1.2017269-1.2017096 1.6000366-1.5999745z"/><path d="m24.8000488 20.799942.7999878-.7999878c0-.712265 0-1.6878262 0-2.4000244h-.7999878v1.5999756l-.8000488.8000488-.7999878-.8000488v1.6000366l.7999878.7999878z"/><path d="m23.2000122 17.5999298v1.5999756l.7999878-.7999878z"/><path d="m22.4000244 20.799942v-.7999878l-.7999878-.8000488.7999878-.7999878c-1.557785 0-3.2422371 0-4.7999878 0l.7999878-.7999878c-.3982182 0-1.2018566 0-1.5999756 0l-.8000488.7999878.8000488.7999878c-.3982334 0-1.2019033 0-1.6000366 0l.7999878-.7999878-.7999878-.7999878c-.3982182 0-1.2018566 0-1.5999756 0l.7999878.7999878-.7999878.7999878v-.7999878c-1.2823696 0-2.7176704 0-4 0l.7999878.7999878-.7999878.8000488v1.5999756c.7123842.7123852 1.687686 1.6876679 2.3999634 2.4000244h6.4000244c0-.3982334 0-1.2019024 0-1.6000366.3983936.3983803 1.2017098 1.2017269 1.5999756 1.6000366l.8000488-.8000488h.7999878v-.7999878l.7999878-.7999878zm-7.2000122 1.5999756h1.6000366l-.8000488.7999878zm6.4000244-.7999878c-3.7154484 0-7.4845781 0-11.2000122 0v-.7999878l.7999878.7999878c0-.3982182 0-1.2018566 0-1.5999756l.7999878-.8000488v1.6000366l.8000488.7999878c.3983793-.3983784 1.2016954-1.2016945 1.5999756-1.5999756v1.5999756l.7999878-.7999878.7999878.7999878.8000488-.7999878.7999878.7999878c0-.3982182 0-1.2018566 0-1.5999756.3983784.3983803 1.2016964 1.2016964 1.5999756 1.5999756l.7999878-.7999878c0-.3982315 0-1.2019024 0-1.6000366l.8000488.8000488v1.5999756l.7999878-.7999878z"/><path d="m20 14.3999186-.7999878-.7999878-.7999878.7999878v1.6000366c.398365-.3984099 1.2016812-1.2017565 1.5999756-1.6000366z"/><path d="m13.6000366 15.1999063v-.7999877l-.7999878.7999877.7999878.8000489z"/><path d="m8.8000488 19.1999054c0-.3982182 0-1.2018566 0-1.5999756l-.8000488.7999878z"/><path d="m8.8000488 17.5999298c0-.3982182 0-1.2018566 0-1.5999746-.3983955-.3983955-1.2017417-1.2017422-1.6000366-1.6000366h-.7999878v.7999878c.7123537.7124328 1.6876574 1.6877374 2.4000244 2.4000234z"/><path d="m8 23.1999054c-.3982177 0-1.2018566 0-1.5999756 0-.398365.3984089-1.2016811 1.2017574-1.5999756 1.6000366v1.5999756h.7999878v.7999878h1.5999756v-.7999878h.7999878l-.7999878-.7999878h.7999878v.7999878h.8000488v-.7999878l-.8000488-.7999878h.8000488v.7999878h.7999878v-.7999878c-.3983936-.3983936-1.2017412-1.2017402-1.6000366-1.6000366z"/><path d="m8 27.1999054v-.7999878l-.7999878.7999878z"/><path d="m7.2000122 20.799942.7999878.7999878.8000488-.7999878c0-.3982315 0-1.2019024 0-1.6000366l-.8000488.8000488-.7999878-.8000488-.7999878.8000488z"/><path d="m7.2000122 17.5999298c0-.3982182 0-1.2018566 0-1.5999746l-.7999878.7999868v1.5999756l.7999878.7999878c0-.3982182 0-1.2018566 0-1.5999756z"/><path d="m4.8000488 22.3999176c-.7122645 0-1.6878271 0-2.4000244 0v.7999878h4l-.7999878-.7999878z"/></g><path d="m27.2000122 24.799942v1.5999756h1.6000366c0-.3982182 0-1.2018566 0-1.5999756l.7999878.7999878c0-.7122631 0-1.6878262 0-2.4000244-1.2823696 0-2.7176704 0-4 0 .398365.3984089 1.2016812 1.2017574 1.5999756 1.6000366z" fill="#423c3c"/><path d="m26.4000244 22.3999176c.3983784-.3983784 1.2016964-1.2016945 1.5999756-1.5999756h1.6000366v-.7999878h-.7999878c-.3983955-.3983955-1.2017422-1.2017422-1.6000366-1.6000366-.3982182 0-1.2018566 0-1.5999756 0v1.6000366c-.3983784.3983937-1.2017269 1.2017098-1.6000366 1.5999756h-.7999878v.7999878l.7999878.7999878h1.6000366v-.7999878zm0-3.2000122.7999878.8000488h-.7999878z" fill="#423c3c"/><path d="m7.2000122 20.799942-.7999878-.7999878.7999878-.8000488-.7999878-.7999878c-.3982177 0-1.2018566 0-1.5999756 0-.3984232.398365-1.2017703 1.2017136-1.6000366 1.6000366h-.7999878v.7999878h2.4000244v.7999878c.3983788.3983803 1.2016954 1.2016964 1.5999756 1.5999756h1.5999756l.8000488-.7999878v-.7999878h-.8000488zm-.7999878.7999878h.7999878v.7999878z" fill="#423c3c"/><path d="m4.8000488 23.1999054c-.7122645 0-1.6878271 0-2.4000244 0v2.4000244l.7999878-.7999878v1.5999756h1.6000366c0-.3982182 0-1.2018566 0-1.5999756.3983932-.3983784 1.2017097-1.2017269 1.5999756-1.6000366-.3982177 0-1.2018566 0-1.5999756 0z" fill="#423c3c"/><g fill="#bb2035"><path d="m31.2000122 24.799942h-.7999878l-.7999878-.7999878v1.5999756h-.7999878v.7999878h1.5999756c.3983784-.3983784 1.2016964-1.2016945 1.5999756-1.5999756z"/><path d="m26.4000244 25.5999298c0-.3982182 0-1.2018566 0-1.5999756l-.7999878.7999878z"/><path d="m24.8000488 15.9999552c0-.3982344 0-1.2019033 0-1.6000366l-.8000488.7999877z"/><path d="m24 23.1999054c-.3982182 0-1.2018566 0-1.5999756 0v1.6000366c.3983936-.3983784 1.2017098-1.2017269 1.5999756-1.6000366z"/><path d="m22.4000244 19.1999054h-.7999878l.7999878.8000488z"/><path d="m21.6000366 23.9999542-.7999878.7999878c-3.1791229 0-6.4209309 0-9.6000366 0-.3983927-.3983784-1.2017097-1.2017269-1.5999756-1.6000366-.3982325 0-1.2019024 0-1.6000366 0 .3983955.3983955 1.2017422 1.2017422 1.6000366 1.6000366v.7999878h-.7999878v.7999878h-.8000488v.7999878h4l.8000488-.7999878h6.3999634l.7999878.7999878h4v-.7999878h-.7999878v-.7999878h-.7999878v-.7999878z"/><path d="m20 23.9999542-.7999878-.8000488h-.7999878v.8000488z"/><path d="m13.6000366 18.3999176v.7999878l.7999878-.7999878z"/><path d="m6.4000244 15.9999552v.7999868l.7999878-.7999868-.7999878-.8000489z"/><path d="m.8000488 22.3999176-.8000488.7999878.8000488.8000488h.7999878v.7999878h.7999878c0-.7122631 0-1.6878262 0-2.4000244-.3982179 0-1.2018566 0-1.5999756 0z"/></g></svg>