<svg enable-background="new 0 0 32 32" height="32" viewBox="0 0 32 32" width="32" xmlns="http://www.w3.org/2000/svg"><path d="m21.6000061 20.7999878h-.7999878l.7999878.7999878v.8000488h.7999878c0-.3982334 0-1.2019024 0-1.6000366z" fill="#ece4ba"/><path d="m11.1999817 16 .8000488.7999878.7999878-.7999878v-.7999878h-.7999878z" fill="#ece4ba"/><path d="m14.3999939 16v.7999878h-.7999878v.7999878h.7999878l.7999878-.7999878v-.7999878z" fill="#352e23"/><path d="m14.3999939 20.7999878.7999878-.7999878h-.7999878z" fill="#352e23"/><path d="m14.3999939 18.4000244h-.7999878l-.7999878.7999878v.7999878h1.5999756c0-.3982182 0-1.2018566 0-1.5999756z" fill="#352e23"/><path d="m11.1999817 20h-.7999878v.7999878h.7999878l.8000488-.7999878v-.7999878h-.8000488z" fill="#352e23"/><path d="m21.6000061 24.7999878-.7999878.7999878h1.5999756v-.7999878z" fill="#957e7a"/><path d="m20.0000305 24.7999878h-.8000488v.7999878h1.6000366v-.7999878z" fill="#957e7a"/><path d="m20.8000183 23.2000122v-.7999878l-.7999878.7999878z" fill="#957e7a"/><path d="m20.8000183 21.5999756h.7999878l-.7999878-.7999878-.7999878.7999878z" fill="#957e7a"/><path d="m20.0000305 17.5999756v-.7999878l-.8000488.7999878v1.6000366l.8000488-.7999878z" fill="#957e7a"/><path d="m20.0000305 13.5999756-.8000488-.7999878-.7999878.7999878v1.6000366c.3983936-.3983936 1.2017403-1.2017403 1.6000366-1.6000366z" fill="#957e7a"/><path d="m19.1999817 20v-.7999878c-.3983784.3983784-1.2016964 1.2016964-1.5999756 1.5999756v.7999878h.7999878l.7999878-.7999878z" fill="#957e7a"/><path d="m9.6000061 17.5999756.7999878-.7999878h-.7999878z" fill="#957e7a"/><path d="m8.0000305 17.5999756.7999878.8000488h.7999878v-.8000488c-.3982182 0-1.2018566 0-1.5999756 0z" fill="#957e7a"/><path d="m8.0000305 16v.7999878h.7999878z" fill="#957e7a"/><path d="m26.3999939 24h-.7999878l-.7999878.7999878h1.5999756l.7999878-.7999878z" fill="#dd4760"/><path d="m24.0000305 16v1.5999756l.7999878-.7999878z" fill="#dd4760"/><path d="m23.1999817 26.4000244h1.6000366l.7999878-.8000488-.7999878-.7999878c-.3983936.3983936-1.2017403 1.2017403-1.6000366 1.6000366z" fill="#dd4760"/><path d="m22.3999939 22.4000244.7999878.7999878c0-.3982315 0-1.2019024 0-1.6000366l-.7999878-.7999878z" fill="#dd4760"/><path d="m21.6000061 20.7999878h.7999878l-.7999878-.7999878z" fill="#dd4760"/><path d="m20.8000183 20.7999878c0-.3982182 0-1.2018566 0-1.5999756l-.7999878.7999878z" fill="#dd4760"/><path d="m12.8000183 15.2000122h.7999878l-.7999878-.7999878z" fill="#dd4760"/><path d="m12.8000183 17.5999756c0-.3982182 0-1.2018566 0-1.5999756l-.7999878.7999878z" fill="#dd4760"/><path d="m12.0000305 23.2000122.7999878-.7999878h-.7999878z" fill="#dd4760"/><path d="m10.3999939 23.2000122c-.3982182 0-1.2018566 0-1.5999756 0l.7999878.7999878h1.5999756l.8000488-.7999878c-.3982343 0-1.2019033 0-1.6000366 0z" fill="#dd4760"/><path d="m9.6000061 14.4000244v.7999878h.7999878z" fill="#dd4760"/><path d="m7.1999817 23.2000122.8000488.7999878.7999878-.7999878c-.3982324 0-1.2019019 0-1.6000366 0z" fill="#dd4760"/><path d="m16.0000305 12.7999878-.8000488.7999878v.8000488h1.6000366v-.8000488z" fill="#ba7c70"/><path d="m7.1999817 20 .8000488.7999878h.7999878c0-.3982182 0-1.2018566 0-1.5999756h-.7999878z" fill="#ba7c70"/><path d="m21.6000061 23.2000122c0-.3982315 0-1.2019024 0-1.6000366-.3982182 0-1.2018566 0-1.5999756 0l.7999878-.7999878-.7999878-.7999878c-.7124329.7123528-1.6877365 1.6876583-2.4000244 2.4000244.3983784.3983784 1.2016964 1.2016964 1.5999756 1.5999756v.7999878h1.6000366v.7999878l.7999878-.7999878h.7999878v-.7999878zm-.7999878-.7999878v.7999878h-.7999878z" fill="#b4a2a0"/><path d="m18.3999939 16.7999878-.7999878.7999878v1.6000366l.7999878.7999878.7999878-.7999878c0-.3982315 0-1.2019024 0-1.6000366l.8000488-.7999878c-.3984089-.398365-1.2017555-1.2016811-1.6000366-1.5999756l-.7999878.7999878z" fill="#b4a2a0"/><path d="m17.6000061 20.7999878.7999878-.7999878h-.7999878z" fill="#b4a2a0"/><path d="m18.3999939 15.2000122c0-.3982315 0-1.2019024 0-1.6000366-.398365.3984089-1.2016811 1.2017555-1.5999756 1.6000366z" fill="#b4a2a0"/><path d="m9.6000061 16-.7999878-.7999878-.7999878.7999878.7999878.7999878h-.7999878v-.7999878l-.8000488.7999878.8000488.7999878h1.5999756v-.7999878h.7999878l.7999878-.7999878c-.3982182 0-1.2018566 0-1.5999756 0z" fill="#b4a2a0"/><path d="m27.1999817 21.5999756c0-.7122459 0-1.6877842 0-2.3999634l.8000488-.7999878c-.712265 0-1.6878262 0-2.4000244 0v.7999878l.7999878.7999878c-.3982182 0-1.2018566 0-1.5999756 0l.7999878.7999878-.7999878.7999878v1.6000366c-.3983784.3983936-1.2017269 1.2017097-1.6000366 1.5999756h-.7999878v.7999878c-1.0022583 0-2.1978035 0-3.2000122 0l-.7999878.8000488c-1.557785 0-3.2422371 0-4.7999878 0l.7999878-.8000488c-.3982182 0-1.2018566 0-1.5999756 0l.7999878-.7999878c-.3982182 0-1.2018566 0-1.5999756 0 .7123756-.7123756 1.6876545-1.6876545 2.3999634-2.3999634-.3982182 0-1.2018566 0-1.5999756 0-.7123709.7123966-1.6877203 1.6876335-2.4000244 2.3999634l.7999878.7999878v.8000488h.8000488l.7999878.7999878h6.3999634l.8000488-.7999878h3.1999512c.7123947-.7123947 1.6876984-1.6876984 2.4000244-2.4000244h1.5999756l.8000488-.7999878-.8000488-.7999878z" fill="#bb2035"/><path d="m24.8000183 17.5999756v-.7999878l-.7999878.7999878.7999878.8000488z" fill="#bb2035"/><path d="m24.0000305 22.4000244c0-.3982334 0-1.2019024 0-1.6000366l-.8000488-.7999878c-.3982182 0-1.2018566 0-1.5999756 0l1.5999756 1.5999756v1.6000366l.8000488.7999878c0-.3982182 0-1.2018566 0-1.5999756z" fill="#bb2035"/><path d="m21.6000061 22.4000244v.7999878l.7999878.7999878.7999878-.7999878-.7999878-.7999878z" fill="#bb2035"/><path d="m20.8000183 20h.7999878v.7999878h-.7999878z" fill="#bb2035"/><path d="m18.3999939 21.5999756c-.3982182 0-1.2018566 0-1.5999756 0v.8000488h.7999878z" fill="#bb2035"/><path d="m12.8000183 20c0-.7122631 0-1.6878262 0-2.4000244l-.7999878-.7999878v4.7999878l.7999878-.7999878z" fill="#bb2035"/><path d="m12.8000183 14.4000244-.7999878.7999878h.7999878z" fill="#bb2035"/><path d="m12.0000305 21.5999756-.8000488.8000488c-1.0022392 0-2.1977625 0-3.1999512 0l.7999878-.8000488c-.3982325 0-1.2019019 0-1.6000366 0l-.7999878-.7999878c-.3982177 0-1.2018566 0-1.5999756 0l-.7999878.7999878c.398365.3984089 1.2016811 1.2017555 1.5999756 1.6000366h6.4000244c0-.3982315 0-1.2019024 0-1.6000366z" fill="#bb2035"/><path d="m11.1999817 16.7999878v.7999878l.8000488-.7999878-.8000488-.7999878z" fill="#bb2035"/><path d="m9.6000061 18.4000244h-.7999878l.7999878.7999878z" fill="#bb2035"/><path d="m8.8000183 24.7999878h.7999878v.7999878h-.7999878z" fill="#bb2035"/><path d="m8.8000183 24h.7999878l-.7999878-.7999878-.7999878.7999878z" fill="#bb2035"/><path d="m7.1999817 18.4000244-.7999878.7999878h.7999878z" fill="#bb2035"/><path d="m4.8000183 16.7999878v.7999878l.7999878-.7999878z" fill="#bb2035"/><g fill="#6d443c"><path d="m24.0000305 22.4000244v1.5999756l.7999878-.7999878c0-.3982315 0-1.2019024 0-1.6000366z"/><path d="m22.3999939 24v.7999878h.7999878l.8000488-.7999878-.8000488-.7999878z"/><path d="m23.1999817 20v-.7999878h-.7999878z"/><path d="m21.6000061 17.5999756v.8000488l.7999878-.8000488z"/><path d="m21.6000061 14.4000244h-.7999878l.7999878.7999878z"/><path d="m19.1999817 15.2000122v-.7999878l-.7999878.7999878c.3983784.3983936 1.2017269 1.2017097 1.6000366 1.5999756l.7999878-.7999878-.7999878-.7999878z"/><path d="m19.1999817 20v.7999878l.8000488-.7999878c0-.3982182 0-1.2018566 0-1.5999756l-.8000488.7999878z"/><path d="m17.6000061 25.5999756c-1.0022583 0-2.1978045 0-3.2000122 0l.7999878.8000488h3.2000122l.7999878-.8000488c-.3982182 0-1.2018566 0-1.5999756 0z"/><path d="m17.6000061 19.2000122v.7999878h.7999878z"/><path d="m16.8000183 24.7999878v-.7999878h-.7999878z"/><path d="m16.0000305 20.7999878v.7999878h-.8000488l-.7999878.8000488h2.4000244v-.8000488h.7999878c0-.3982182 0-1.2018566 0-1.5999756h-.7999878z"/><path d="m16.8000183 16.7999878-.7999878.7999878h.7999878z"/><path d="m16.8000183 15.2000122-.7999878-.7999878-.8000488.7999878z"/><path d="m15.1999817 16.7999878.8000488-.7999878h-.8000488z"/><path d="m15.1999817 14.4000244h-.7999878l.7999878.7999878z"/><path d="m14.3999939 24.7999878h-.7999878l.7999878.7999878.7999878-.7999878z"/><path d="m14.3999939 16-.7999878.7999878h.7999878z"/><path d="m13.6000061 24h-.7999878l.7999878.7999878.7999878-.7999878z"/><path d="m13.6000061 21.5999756-.7999878.8000488h.7999878z"/><path d="m11.1999817 20v-.7999878l-.7999878.7999878z"/><path d="m11.1999817 14.4000244c-.3983793.3983784-1.2016955 1.2016964-1.5999756 1.5999756h1.5999756l.8000488-.7999878h-.8000488z"/><path d="m10.3999939 21.5999756.7999878-.7999878h-.7999878z"/><path d="m9.6000061 20.7999878c0-.3982182 0-1.2018566 0-1.5999756l-.7999878.7999878z"/><path d="m8.0000305 20.7999878c-.3982339 0-1.2019029 0-1.6000366 0l.7999878.7999878h1.6000366l-.7999878.8000488h1.5999756c0-.3982334 0-1.2019024 0-1.6000366-.3982182 0-1.2018566 0-1.5999756 0z"/><path d="m6.3999939 19.2000122.7999878-.7999878h1.6000366l-.7999878-.8000488c-.3982339 0-1.2019029 0-1.6000366 0-.398365.3984089-1.2016811 1.2017555-1.5999756 1.6000366-.398232 0-1.2019022 0-1.6000366 0 .3984091.398365 1.201756 1.2016811 1.6000366 1.5999756h1.5999756c0-.3982182 0-1.2018566 0-1.5999756z"/><path d="m4.8000183 16.7999878h-.7999878l.7999878.7999878z"/><path d="m3.1999817 18.4000244h-.7999878l.7999878.7999878.8000488-.7999878z"/></g><path d="m25.6000061 18.4000244h.7999878l-.7999878-.8000488c0-.3982182 0-1.2018566 0-1.5999756l-.7999878-.7999878v-.7999878h-.7999878v-.8000488c-.712265 0-1.6878262 0-2.4000244 0l.7999878-.7999878c-.3982182 0-1.2018566 0-1.5999756 0-.3983936.3983936-1.2017403 1.2017403-1.6000366 1.6000366v.7999878h.8000488l.7999878.7999878-.7999878.7999878v3.2000122l.7999878-.7999878v.7999878h2.3999634l-.7999878-.7999878h.7999878v.7999878l.8000488.7999878v1.6000366c.398365-.3984089 1.2016811-1.2017555 1.5999756-1.6000366l-.7999878-.7999878h1.5999756l-.7999878-.7999878zm-4.7999878-4h.7999878v.7999878zm.7999878 3.1999512h.7999878l-.7999878.8000488zm2.4000244 0c0-.3982182 0-1.2018566 0-1.5999756l.7999878.7999878v1.6000366z" fill="#815146"/><path d="m17.6000061 22.4000244c-1.0022583 0-2.1978045 0-3.2000122 0-.3983793.3983784-1.2016954 1.2016964-1.5999756 1.5999756h1.5999756l-.7999878.7999878h1.5999756l-.7999878.7999878h4.7999878c0-.3982182 0-1.2018566 0-1.5999756-.3983784-.3983784-1.2016964-1.2016964-1.5999756-1.5999756zm-1.5999756 1.5999756h.7999878v.7999878z" fill="#815146"/><path d="m16.0000305 21.5999756v-.7999878l.7999878-.7999878h.7999878c0-.7122631 0-1.6878262 0-2.4000244l.7999878-.7999878-.7999878-.7999878.7999878-.7999878c-1.0022583 0-2.1978035 0-3.2000122 0l-.7999878-.7999878c-.3982182 0-1.2018566 0-1.5999756 0l.7999878.7999878h-.7999878v4l.7999878-.7999878h.7999878v1.5999756h.7999878l-.7999878.7999878v-.7999878c-.3982182 0-1.2018566 0-1.5999756 0v.7999878l-.7999878.7999878v.8000488h.7999878l.7999878-.8000488v.8000488h.7999878l.7999878-.8000488zm.7999878-4h-.7999878l.7999878-.7999878zm-3.2000122 0v-.7999878l.7999878-.7999878h1.6000366c-.3984089.398365-1.2017565 1.2016811-1.6000366 1.5999756z" fill="#815146"/><path d="m15.1999817 14.4000244v.7999878l.8000488-.7999878z" fill="#815146"/><path d="m15.1999817 13.5999756.8000488-.7999878.7999878.7999878v.8000488h-.7999878l.7999878.7999878.7999878-.7999878c0-.3982334 0-1.2019024 0-1.6000366l-.7999878-.7999878c-.3982315 0-1.2019024 0-1.6000366 0l-.7999878.7999878v1.6000366h.7999878z" fill="#815146"/><path d="m12.0000305 15.2000122.7999878-.7999878h-.7999878z" fill="#815146"/><path d="m12.0000305 20c-.3984089.398365-1.2017565 1.2016811-1.6000366 1.5999756 0-.3982182 0-1.2018566 0-1.5999756l.7999878-.7999878h.8000488c0-.7122631 0-1.6878281 0-2.4000244l-.8000488.7999878c0-.3982182 0-1.2018566 0-1.5999756-.3983793.3983784-1.2016954 1.2016964-1.5999756 1.5999756v4.8000488h1.5999756l.8000488-.8000488c0-.3982182 0-1.2018566 0-1.5999756z" fill="#815146"/><path d="m10.3999939 15.2000122h-.7999878v-.7999878l-.7999878-.8000488v1.6000366l.7999878.7999878z" fill="#815146"/><path d="m8.8000183 18.4000244c-.3982325 0-1.2019019 0-1.6000366 0v.7999878h-.7999878v1.5999756h1.6000366l-.8000488-.7999878.8000488-.7999878h.7999878v.7999878l.7999878-.7999878z" fill="#815146"/><path d="m8.8000183 20.7999878h.7999878l-.7999878-.7999878z" fill="#815146"/><path d="m7.1999817 17.5999756h.8000488l-.8000488-.7999878c-.3982177 0-1.2018566 0-1.5999756 0l-.7999878.7999878-.7999878-.7999878c-.3984232.398365-1.2017703 1.2017117-1.6000366 1.6000366h1.6000366l-.8000488.7999878h1.6000366c.3983932-.3983784 1.2017097-1.2017269 1.5999756-1.6000366z" fill="#815146"/><path d="m14.3999939 25.5999756-.7999878.8000488h1.5999756z" fill="#d06692"/><path d="m12.8000183 25.5999756h1.5999756l-.7999878-.7999878z" fill="#d06692"/><path d="m12.0000305 24.7999878h1.5999756l-.7999878-.7999878z" fill="#d06692"/><path d="m3.1999817 20.7999878h1.6000366l-.7999878-.7999878z" fill="#d06692"/><path d="m2.3999939 20h1.6000366l-.8000488-.7999878z" fill="#d06692"/><path d="m1.6000061 19.2000122h1.5999756l-.7999878-.7999878z" fill="#d06692"/></svg>