<svg enable-background="new 0 0 32 32" height="32" viewBox="0 0 32 32" width="32" xmlns="http://www.w3.org/2000/svg"><path d="m22.4000168 21.000061h.7999878v.7999878h-.7999878z" fill="#5b2833"/><g fill="#715c99"><path d="m19.2000046 21.8000488.7999878.7999878v-.7999878z"/><path d="m18.4000168 19.4000244h.7999878v-.7999878l-.7999878-.7999878z"/><path d="m17.599968 23.4000244h1.6000366c0-.3982182 0-1.2018566 0-1.5999756-.3983803.3983937-1.2017269 1.2017098-1.6000366 1.5999756z"/><path d="m17.599968 17.000061-.7999878.7999878v.7999878h.7999878l.8000488-.7999878z"/><path d="m16.7999802 21.000061h.7999878v.7999878c.3984222-.398365 1.2017689-1.2017117 1.6000366-1.6000366-.3983803-.3983936-1.2017269-1.2017097-1.6000366-1.5999756l-.7999878.7999878.7999878.7999878z"/><path d="m16.7999802 21.000061c0-.3982334 0-1.2019024 0-1.6000366l-.7999878.7999878h-.7999878v2.4000244h.7999878v.7999878c.3983784-.3983784 1.2016945-1.2016964 1.5999756-1.5999756z"/><path d="m16.7999802 16.2000122c-.3982182 0-1.2018576 0-1.5999756 0v.8000488h-.7999878v1.5999756h1.5999756l.7999878-.7999878c0-.3982315 0-1.2019024 0-1.6000366z"/><path d="m15.2000046 21.000061-.7999878-.8000488c-.3982344 0-1.2019033 0-1.6000366 0l.7999878.8000488c-.3982182 0-1.2018576 0-1.5999756 0l-.7999878.7999878h1.5999756l.7999878.7999878h1.6000366l-.7999878-.7999878z"/><path d="m12.7999802 17.000061.7999878.7999878.8000488-.7999878c-.3982344 0-1.2019034 0-1.6000366 0z"/><path d="m12.7999802 23.4000244v-.7999878h-.7999878z"/></g><g fill="#5e3c6b"><path d="m20.7999802 21.8000488-.7999878-.7999878c0-.3982334 0-1.2019024 0-1.6000366-1.2824306 1.2824783-2.7175865 2.7175865-4 4v-.7999878c-.7122641 0-1.6878271 0-2.4000244 0l-.7999878-.7999878c-.3982182 0-1.2018576 0-1.5999756 0v2.3999634h8.7999878c.3983784-.3983784 1.2016945-1.2016964 1.5999756-1.5999756zm-8.7999878.7999878h.7999878v.7999878zm7.2000122.7999878c-.3982334 0-1.2019024 0-1.6000366 0 .3984089-.398365 1.2017555-1.2016811 1.6000366-1.5999756h.7999878v.7999878z"/><path d="m19.2000046 19.4000244h.7999878l-.7999878-.7999878z"/><path d="m15.2000046 16.2000122-.7999878.8000488h.7999878z"/><path d="m13.599968 20.2000122h2.4000244c.3983784-.3983784 1.2016945-1.2016964 1.5999756-1.5999756-1.0022392 0-2.1977625 0-3.1999512 0-.3984098-.398365-1.2017565-1.2016811-1.6000366-1.5999756v1.5999756l.7999878.7999878-.7999878.7999878z"/></g><g fill="#ae7d33"><path d="m21.599968 21.000061c-.3982182 0-1.2018566 0-1.5999756 0l.7999878.7999878h1.6000366v-.7999878z"/><path d="m19.9999924 19.4000244c-.3982182 0-1.2018566 0-1.5999756 0l.7999878.7999878z"/><path d="m19.2000046 22.6000366v.7999878l.7999878-.7999878-.7999878-.7999878z"/><path d="m18.4000168 17.8000488-.8000488.7999878.8000488.7999878c0-.3982181 0-1.2018566 0-1.5999756z"/><path d="m17.599968 21.000061h-.7999878l.7999878.7999878z"/><path d="m16.7999802 16.2000122v1.6000366l.7999878-.7999878z"/><path d="m16.7999802 19.4000244v1.6000366l.7999878-.8000488z"/><path d="m16.7999802 17.8000488-.7999878.7999878h.7999878z"/><path d="m15.2000046 22.6000366c0-.3982182 0-1.2018566 0-1.5999756l-.7999878.7999878z"/><path d="m15.2000046 21.000061v-.8000488h-.7999878z"/><path d="m14.4000168 17.8000488v-.7999878l-.8000488.7999878.8000488.7999878z"/><path d="m11.9999924 21.000061h1.5999756l-.7999878-.8000488z"/><path d="m10.4000168 21.000061-.8000488-.8000488c-.398365.3984089-1.2016821 1.2017555-1.5999761 1.6000366l.7999883.7999878.7999878-.7999878h1.6000366l.7999878-.7999878c-.3982182 0-1.2018576 0-1.5999756 0z"/></g></svg>