<svg enable-background="new 0 0 32 32" height="32" viewBox="0 0 32 32" width="32" xmlns="http://www.w3.org/2000/svg"><path d="m19.9999771 20c-.3982182 0-1.2018566 0-1.5999756 0-.3983803.3983784-1.2016964 1.2016964-1.5999756 1.5999756h3.1999512l.8000488-.7999878z" fill="#352e23"/><path d="m17.6000137 19.1999512-.7999878.8000488h.7999878z" fill="#352e23"/><path d="m13.6000137 20c-.3982325 0-1.2019024 0-1.6000366 0l-.7999878.7999878.7999878.7999878h3.2000122c-.3983793-.3983784-1.2016964-1.2016964-1.5999756-1.5999756z" fill="#352e23"/><g fill="#b5b735"><path d="m20.8000259 19.1999512v.8000488h.7999878z"/><path d="m19.1999893 18.3999634v.7999878l.7999878-.7999878-.7999878-.7999878z"/><path d="m16.8000259 16.7999878.7999878.7999878.7999878-.7999878c-.3982181 0-1.2018566 0-1.5999756 0z"/><path d="m15.9999771 17.5999756.8000488.7999878.7999878-.7999878c-.3982334 0-1.2019024 0-1.6000366 0z"/><path d="m16.8000259 16.7999878c-.3982353 0-1.2019033 0-1.6000366 0l.7999878.7999878z"/><path d="m15.1999893 18.3999634.7999878.7999878.8000488-.7999878c-.3982353 0-1.2019033 0-1.6000366 0z"/><path d="m15.1999893 17.5999756h-.7999878l.7999878.7999878.7999878-.7999878z"/><path d="m14.4000015 16.7999878h-.7999878l.7999878.7999878.7999878-.7999878z"/><path d="m12.8000259 19.1999512c0-.3982182 0-1.2018566 0-1.5999756l-.8000488.7999878z"/><path d="m11.1999893 20v-.8000488l-.7999878.8000488z"/></g><path d="m21.6000137 20.7999878v.7999878l.7999878-.7999878z" fill="#3a6b59"/><path d="m20.8000259 22.3999634.7999878.7999878.7999878-.7999878c-.3982181 0-1.2018566 0-1.5999756 0z" fill="#3a6b59"/><path d="m11.9999771 23.1999512.8000488-.7999878h-.8000488z" fill="#3a6b59"/><path d="m9.6000137 22.3999634.7999878.7999878h.7999878v-.7999878c-.3982181 0-1.2018575 0-1.5999756 0z" fill="#3a6b59"/><path d="m10.4000015 20.7999878h-.7999878l.7999878.7999878z" fill="#3a6b59"/><path d="m21.6000137 20.7999878h.7999878l-.7999878-.7999878h-.7999878v-.8000488l-.8000488-.7999878-.7999878.7999878c0-.3982182 0-1.2018566 0-1.5999756l-.7999878-.7999878c-.7123852.7123833-1.6876678 1.687685-2.4000244 2.3999634-.7123756-.7123756-1.6876554-1.6876545-2.3999634-2.3999634l-.7999878.7999878v1.5999756l-.8000488-.7999878-.7999878.7999878v.8000488h-.7999878l-.7999878.7999878h.7999878v.7999878l-.7999878.7999878h1.5999756c0-.3982182 0-1.2018566 0-1.5999756l.7999878-.7999878h1.6000366l.7999878.7999878c0-.3982315 0-1.2019024 0-1.6000366l.7999878.8000488-.7999878.7999878c.3983784.3983784 1.2016954 1.2016964 1.5999756 1.5999756v.7999878h.8000488l.7999878-.7999878.7999878.7999878.7999878-.7999878.7999878.7999878.8000488-.7999878-.8000488-.7999878c-1.0022392 0-2.1977634 0-3.1999512 0 .3983784-.3983784 1.2016945-1.2016964 1.5999756-1.5999756h1.5999756l.8000488.7999878v1.5999756h1.5999756l-.7999878-.7999878zm-4-.7999878h-.7999878l.7999878-.8000488z" fill="#4c7f6d"/><path d="m17.6000137 17.5999756-.7999878-.7999878-.8000488.7999878z" fill="#4c7f6d"/><path d="m15.9999771 18.3999634h.8000488l-.8000488-.7999878-.7999878.7999878z" fill="#4c7f6d"/><path d="m15.9999771 17.5999756-.7999878-.7999878-.7999878.7999878z" fill="#4c7f6d"/><path d="m13.6000137 21.5999756c-.3982325 0-1.2019024 0-1.6000366 0v.7999878h.8000488l.7999878.7999878h1.5999756c0-.3982182 0-1.2018566 0-1.5999756-.3982181 0-1.2018575 0-1.5999756 0z" fill="#4c7f6d"/><g fill="#d7cbb5"><path d="m22.4000015 22.3999634v-.7999878h-.7999878z"/><path d="m21.6000137 20 .7999878.7999878c0-.3982315 0-1.2019024 0-1.6000366z"/><path d="m19.9999771 23.1999512h1.6000366l-.7999878-.7999878z"/><path d="m20.8000259 18.3999634v-.7999878l-.8000488.7999878.8000488.7999878z"/><path d="m18.4000015 23.1999512h1.5999756l-.7999878-.7999878z"/><path d="m19.1999893 16.7999878v-.7999878l-.7999878.7999878.7999878.7999878z"/><path d="m16.8000259 23.1999512h1.5999756l-.7999878-.7999878z"/><path d="m12.8000259 16.7999878v.7999878l.7999878-.7999878-.7999878-.7999878z"/><path d="m11.9999771 23.1999512h1.6000366l-.7999878-.7999878z"/><path d="m11.1999893 17.5999756v1.5999756l.7999878-.7999878z"/><path d="m9.6000137 22.3999634.7999878-.7999878h-.7999878z"/><path d="m9.6000137 20v.7999878l.7999878-.7999878-.7999878-.8000488z"/></g><path d="m23.9999771 23.1999512h.8000488v.8000488h-.8000488z" fill="#8bb53f"/><path d="m23.1999893 21.5999756.7999878-.7999878c-.3982182 0-1.2018566 0-1.5999756 0l-.7999878.7999878h.7999878v.7999878l-.7999878.7999878.7999878.8000488v-.8000488h.7999878l.7999878-.7999878z" fill="#8bb53f"/><path d="m20.8000259 24-.8000488-.8000488c-1.2823696 0-2.7176704 0-4 0v-.7999878h-.7999878v.7999878c-1.0022583 0-2.1978045 0-3.2000122 0 0-.3982182 0-1.2018566 0-1.5999756l-.7999878.7999878v.7999878h-.7999878c.3983641.3984089 1.2016811 1.2017555 1.5999756 1.6000366h4.8000488l.7999878-.7999878.7999878.7999878h3.2000122l.7999878-.7999878c-.3982181 0-1.2018566 0-1.5999756 0z" fill="#8bb53f"/><path d="m14.4000015 19.1999512v1.6000366l.7999878-.7999878z" fill="#8bb53f"/><path d="m9.6000137 21.5999756h.7999878l-.7999878-.7999878h-.7999878v.7999878l-.8000493.7999878.8000493.7999878h1.5999756l-.7999878-.7999878z" fill="#8bb53f"/><g fill="#add03b"><path d="m23.1999912 21.5999737.8000031-.8000011.8000031.8000011-.8000031.8000031z"/><path d="m20.8000259 23.1999512h-.8000488l.8000488.8000488h1.5999756l-.7999878-.8000488z"/><path d="m20.8000259 21.5999756v-.7999878l-.8000488.7999878.8000488.7999878z"/><path d="m16.8000259 24.7999878h1.5999756l-.7999878-.7999878z"/><path d="m15.1999893 22.3999634h.7999878l-.7999878-.7999878z"/><path d="m11.1999893 21.5999756v.7999878l.7999878-.7999878-.7999878-.7999878z"/><path d="m9.6000137 23.1999512h-.7999878l.7999878.8000488h1.5999756l-.7999878-.8000488z"/><path d="m7.9999766 23.1999512h.8000493l-.8000493-.7999878z"/></g></svg>