<svg enable-background="new 0 0 32 32" height="32" viewBox="0 0 32 32" width="32" xmlns="http://www.w3.org/2000/svg"><path d="m19.1999512 20.1999817c-.7122459 0-1.6877842 0-2.3999634 0v.7999878l.7999878.8000488h1.5999756l.8000488-.8000488z" fill="#352e23"/><path d="m16.7999878 24.1999817h1.5999756l-.7999878-.7999878z" fill="#352e23"/><path d="m15.1999512 24.1999817h1.6000366l-.7999878-.7999878z" fill="#352e23"/><path d="m16 22.6000061h.7999878l-.7999878-.7999878-.8000488.7999878z" fill="#352e23"/><path d="m13.5999756 24.1999817h1.5999756l-.7999878-.7999878z" fill="#352e23"/><path d="m14.3999634 21.8000183.7999878-.8000488v-.7999878c-.7122459 0-1.6877842 0-2.3999634 0l-.7999878.7999878.7999878.8000488z" fill="#352e23"/><path d="m22.3999634 23.3999939v1.5999756h.7999878c0-.3982182 0-1.2018566 0-1.5999756z" fill="#9f974a"/><path d="m9.5999765 20.1999817.7999887-.7999878.7999878.7999878-.7999887.7999878z" fill="#9f974a"/><g fill="#af9d81"><path d="m20.7999878 23.3999939-.7999878.7999878.7999878.7999878h.7999878c0-.3982182 0-1.2018566 0-1.5999756z"/><path d="m20.7999878 18.6000061-.7999878.7999878h.7999878z"/><path d="m20 20.9999695-.8000488.8000488h.8000488z"/><path d="m19.1999512 22.6000061h-.7999878v.7999878h.7999878l.8000488-.7999878z"/><path d="m16.7999878 19.3999939.7999878-.7999878h-.7999878z"/><path d="m16.7999878 16.9999695v.8000488l.7999878-.8000488-.7999878-.7999878z"/><path d="m15.1999512 19.3999939v-.7999878h-.7999878z"/><path d="m12 22.6000061.7999878.7999878h.7999878v-.7999878c-.3982182 0-1.2018566 0-1.5999756 0z"/><path d="m12 21.8000183h.7999878l-.7999878-.8000488z"/><path d="m11.1999512 18.6000061v1.5999756l.8000488-.7999878z"/><path d="m10.3999634 24.1999817h1.6000366l-.8000488-.7999878z"/><path d="m8.7999878 25.8000183h1.5999756v-.8000488h-.7999878z"/></g><path d="m21.5999756 22.6000061-.7999878.7999878h1.5999756c0-.3982182 0-1.2018566 0-1.5999756z" fill="#675e51"/><path d="m12 24.9999695v-.7999878l-.8000488.7999878z" fill="#675e51"/><path d="m10.3999634 22.6000061-.7999878-.7999878-.7999878.7999878c.3983793.3983784 1.2016954 1.2016964 1.5999756 1.5999756l.7999878-.7999878z" fill="#675e51"/><path d="m22.3999634 20.9999695h-.7999878l-.7999878-.7999878v1.6000366c-.3983784.3983936-1.2017269 1.2017097-1.6000366 1.5999756h-.7999878v.7999878l-.7999878.7999878h3.2000122l-.7999878-.7999878c1.002346-1.0023575 2.1977005-2.1976604 3.1999512-3.2000122z" fill="#7c786d"/><path d="m13.5999756 23.3999939h-.7999878c-.3983793-.3983936-1.2017269-1.2017097-1.6000366-1.5999756 0-.3982334 0-1.2019024 0-1.6000366l-.7999878.7999878c-.3982182 0-1.2018566 0-1.5999756 0 1.0023165 1.0024071 2.1976557 2.1977463 3.2000122 3.2000122v.7999878h2.3999634l-.7999878-.7999878z" fill="#7c786d"/><path d="m23.1999512 18.6000061v-.7999878h-.7999878v.7999878c-.3983784.3983784-1.2016964 1.2016964-1.5999756 1.5999756l.7999878.7999878c.3983784-.3983784 1.2016964-1.2016964 1.5999756-1.5999756h.8000488v-.7999878z" fill="#d7cbb5"/><path d="m23.1999512 23.3999939v.7999878l.8000488-.7999878z" fill="#d7cbb5"/><path d="m24 24.9999695-.8000488-.7999878v.7999878z" fill="#d7cbb5"/><path d="m21.5999756 24.1999817v.7999878h.7999878c0-.3982182 0-1.2018566 0-1.5999756h-.7999878z" fill="#d7cbb5"/><path d="m20 19.3999939.7999878-.7999878c-.7123928-.7123928-1.6876984-1.6876984-2.4000244-2.4000244-.3983936.3983784-1.2017097 1.2017269-1.5999756 1.6000366 0-.3982334 0-1.2019024 0-1.6000366-1.0022583 0-2.1978045 0-3.2000122 0-.7124062.7123795-1.687645 1.6877499-2.4000244 2.4000244l.8000488.7999878-.8000488.7999878v1.6000366l.8000488.7999878h1.5999756v1.5999756l.7999878-.7999878.7999878.7999878.8000488-.7999878.7999878.7999878.7999878-.7999878.7999878.7999878c0-.3982182 0-1.2018566 0-1.5999756h1.6000366l.7999878-.7999878c0-.712265 0-1.6878262 0-2.4000244zm-2.4000244-.7999878-.7999878.7999878v-.7999878zm-3.2000122 0h.7999878v.7999878zm-.7999878 3.2000122c-.3982182 0-1.2018566 0-1.5999756 0v-.8000488l.7999878-.7999878h2.3999634v.7999878l-.7999878.8000488zm2.4000244.7999878h-.8000488l.8000488-.7999878.7999878.7999878zm4-.7999878c-.712265 0-1.6878262 0-2.4000244 0l-.7999878-.8000488v-.7999878h2.3999634l.8000488.7999878z" fill="#d7cbb5"/><path d="m16.7999878 24.1999817c-1.0022583 0-2.1978045 0-3.2000122 0 .3983927.3983784 1.2017097 1.2017269 1.5999756 1.6000366h1.6000366c.398365-.3984089 1.2016811-1.2017555 1.5999756-1.6000366-.3982182 0-1.2018566 0-1.5999756 0z" fill="#d7cbb5"/><path d="m10.3999634 24.1999817-.7999878.7999878h.7999878v.8000488c.398365-.3984241 1.2017126-1.2017708 1.6000366-1.6000366-.3982344 0-1.2019033 0-1.6000366 0z" fill="#d7cbb5"/><path d="m10.3999634 19.3999939-.7999878-.7999878v.7999878h-.7999878l.7999878.7999878z" fill="#d7cbb5"/></svg>