<svg enable-background="new 0 0 32 32" height="32" viewBox="0 0 32 32" width="32" xmlns="http://www.w3.org/2000/svg"><path d="m21.6 25.6h-.8l.8.8v.8h.8c0-.4 0-1.2 0-1.6z" fill="#ece4ba"/><path d="m11.2 20.8.8.8.8-.8v-.8h-.8z" fill="#ece4ba"/><path d="m14.4 20.8v.8h-.8v.8h.8l.8-.8v-.8z" fill="#352e23"/><path d="m14.4 25.6.8-.8h-.8z" fill="#352e23"/><path d="m14.4 23.2h-.8l-.8.8v.8h1.6c0-.4 0-1.2 0-1.6z" fill="#352e23"/><path d="m11.2 24.8h-.8v.8h.8l.8-.8v-.8h-.8z" fill="#352e23"/><path d="m21.6 29.6-.8.8h1.6v-.8z" fill="#957e7a"/><path d="m20 29.6h-.8v.8h1.6v-.8z" fill="#957e7a"/><path d="m20.8 28v-.8l-.8.8z" fill="#957e7a"/><path d="m20.8 26.4h.8l-.8-.8-.8.8z" fill="#957e7a"/><path d="m20 22.4v-.8l-.8.8v1.6l.8-.8z" fill="#957e7a"/><path d="m20 18.4-.8-.8-.8.8v1.6z" fill="#957e7a"/><path d="m19.2 24.8v-.8c-.4.4-1.2 1.2-1.6 1.6v.8h.8l.8-.8z" fill="#957e7a"/><path d="m9.6 22.4.8-.8h-.8z" fill="#957e7a"/><path d="m8 22.4.8.8h.8v-.8c-.4 0-1.2 0-1.6 0z" fill="#957e7a"/><path d="m8 20.8v.8h.8z" fill="#957e7a"/><path d="m26.4 28.8h-.8l-.8.8h1.6l.8-.8z" fill="#dd4760"/><path d="m24 20.8v1.6l.8-.8z" fill="#dd4760"/><path d="m23.2 31.2h1.6l.8-.8-.8-.8c-.4.4-1.2 1.2-1.6 1.6z" fill="#dd4760"/><path d="m22.4 27.2.8.8c0-.4 0-1.2 0-1.6l-.8-.8z" fill="#dd4760"/><path d="m21.6 25.6h.8l-.8-.8z" fill="#dd4760"/><path d="m20.8 25.6c0-.4 0-1.2 0-1.6l-.8.8z" fill="#dd4760"/><path d="m12.8 20h.8l-.8-.8z" fill="#dd4760"/><path d="m12.8 22.4c0-.4 0-1.2 0-1.6l-.8.8z" fill="#dd4760"/><path d="m12 28 .8-.8h-.8z" fill="#dd4760"/><path d="m10.4 28c-.4 0-1.2 0-1.6 0l.8.8h1.6l.8-.8c-.4 0-1.2 0-1.6 0z" fill="#dd4760"/><path d="m9.6 19.2v.8h.8z" fill="#dd4760"/><path d="m7.2 28 .8.8.8-.8c-.4 0-1.2 0-1.6 0z" fill="#dd4760"/><path d="m16 17.6-.8.8v.8h1.6v-.8z" fill="#ba7c70"/><path d="m7.2 24.8.8.8h.8c0-.4 0-1.2 0-1.6h-.8z" fill="#ba7c70"/><path d="m21.6 28c0-.4 0-1.2 0-1.6-.4 0-1.2 0-1.6 0l.8-.8-.8-.8c-.7.7-1.7 1.7-2.4 2.4l1.6 1.6v.8h1.6v.8l.8-.8h.8v-.8zm-.8-.8v.8h-.8z" fill="#b4a2a0"/><path d="m18.4 21.6-.8.8v1.6l.8.8.8-.8c0-.4 0-1.2 0-1.6l.8-.8c-.4-.4-1.2-1.2-1.6-1.6l-.8.8z" fill="#b4a2a0"/><path d="m17.6 25.6.8-.8h-.8z" fill="#b4a2a0"/><path d="m18.4 20c0-.4 0-1.2 0-1.6-.4.4-1.2 1.2-1.6 1.6z" fill="#b4a2a0"/><path d="m9.6 20.8-.8-.8-.8.8.8.8h-.8v-.8l-.8.8.8.8h1.6v-.8h.8l.8-.8c-.4 0-1.2 0-1.6 0z" fill="#b4a2a0"/><path d="m27.2 26.4c0-.7 0-1.7 0-2.4l.8-.8c-.7 0-1.7 0-2.4 0v.8l.8.8c-.4 0-1.2 0-1.6 0l.8.8-.8.8v1.6c-.4.4-1.2 1.2-1.6 1.6h-.8v.8c-1 0-2.2 0-3.2 0l-.8.8c-1.6 0-3.2 0-4.8 0l.8-.8c-.4 0-1.2 0-1.6 0l.8-.8c-.4 0-1.2 0-1.6 0l2.4-2.4c-.4 0-1.2 0-1.6 0-.7.7-1.7 1.7-2.4 2.4l.8.8v.8h.8l.8.8h6.4l.8-.8h3.2c.7-.7 1.7-1.7 2.4-2.4h1.6l.8-.8-.8-.8z" fill="#bb2035"/><path d="m24.8 22.4v-.8l-.8.8.8.8z" fill="#bb2035"/><path d="m24 27.2c0-.4 0-1.2 0-1.6l-.8-.8c-.4 0-1.2 0-1.6 0l1.6 1.6v1.6l.8.8c0-.4 0-1.2 0-1.6z" fill="#bb2035"/><path d="m21.6 27.2v.8l.8.8.8-.8-.8-.8z" fill="#bb2035"/><path d="m20.8 24.8h.8v.8h-.8z" fill="#bb2035"/><path d="m18.4 26.4c-.4 0-1.2 0-1.6 0v.8h.8z" fill="#bb2035"/><path d="m12.8 24.8c0-.7 0-1.7 0-2.4l-.8-.8v4.8l.8-.8z" fill="#bb2035"/><path d="m12.8 19.2-.8.8h.8z" fill="#bb2035"/><path d="m12 26.4-.8.8c-1 0-2.2 0-3.2 0l.8-.8c-.4 0-1.2 0-1.6 0l-.8-.8c-.4 0-1.2 0-1.6 0l-.8.8c.4.4 1.2 1.2 1.6 1.6h6.4c0-.4 0-1.2 0-1.6z" fill="#bb2035"/><path d="m11.2 21.6v.8l.8-.8-.8-.8z" fill="#bb2035"/><path d="m9.6 23.2h-.8l.8.8z" fill="#bb2035"/><path d="m8.8 29.6h.8v.8h-.8z" fill="#bb2035"/><path d="m8.8 28.8h.8l-.8-.8-.8.8z" fill="#bb2035"/><path d="m7.2 23.2-.8.8h.8z" fill="#bb2035"/><path d="m4.8 21.6v.8l.8-.8z" fill="#bb2035"/><g fill="#6d443c"><path d="m24 27.2v1.6l.8-.8c0-.4 0-1.2 0-1.6z"/><path d="m22.4 28.8v.8h.8l.8-.8-.8-.8z"/><path d="m23.2 24.8v-.8h-.8z"/><path d="m21.6 22.4v.8l.8-.8z"/><path d="m21.6 19.2h-.8l.8.8z"/><path d="m19.2 20v-.8l-.8.8 1.6 1.6.8-.8-.8-.8z"/><path d="m19.2 24.8v.8l.8-.8c0-.4 0-1.2 0-1.6l-.8.8z"/><path d="m17.6 30.4c-1 0-2.2 0-3.2 0l.8.8h3.2l.8-.8c-.4 0-1.2 0-1.6 0z"/><path d="m17.6 24v.8h.8z"/><path d="m16.8 29.6v-.8h-.8z"/><path d="m16 25.6v.8h-.8l-.8.8h2.4v-.8h.8c0-.4 0-1.2 0-1.6h-.8z"/><path d="m16.8 21.6-.8.8h.8z"/><path d="m16.8 20-.8-.8-.8.8z"/><path d="m15.2 21.6.8-.8h-.8z"/><path d="m15.2 19.2h-.8l.8.8z"/><path d="m14.4 29.6h-.8l.8.8.8-.8z"/><path d="m14.4 20.8-.8.8h.8z"/><path d="m13.6 28.8h-.8l.8.8.8-.8z"/><path d="m13.6 26.4-.8.8h.8z"/><path d="m11.2 24.8v-.8l-.8.8z"/><path d="m11.2 19.2c-.4.4-1.2 1.2-1.6 1.6h1.6l.8-.8h-.8z"/><path d="m10.4 26.4.8-.8h-.8z"/><path d="m9.6 25.6c0-.4 0-1.2 0-1.6l-.8.8z"/><path d="m8 25.6c-.4 0-1.2 0-1.6 0l.8.8h1.6l-.8.8h1.6c0-.4 0-1.2 0-1.6-.4 0-1.2 0-1.6 0z"/><path d="m6.4 24 .8-.8h1.6l-.8-.8c-.4 0-1.2 0-1.6 0-.4.4-1.2 1.2-1.6 1.6-.4 0-1.2 0-1.6 0l1.6 1.6h1.6c0-.4 0-1.2 0-1.6z"/><path d="m4.8 21.6h-.8l.8.8z"/><path d="m3.2 23.2h-.8l.8.8.8-.8z"/></g><path d="m25.6 23.2h.8l-.8-.8c0-.4 0-1.2 0-1.6l-.8-.8v-.8h-.8v-.8c-.7 0-1.7 0-2.4 0l.8-.8c-.4 0-1.2 0-1.6 0-.4.4-1.2 1.2-1.6 1.6v.8h.8l.8.8-.8.8v3.2l.8-.8v.8h2.4l-.8-.8h.8v.8l.8.8v1.6l1.6-1.6-.8-.8h1.6l-.8-.8zm-4.8-4h.8v.8zm.8 3.2h.8l-.8.8zm2.4 0c0-.4 0-1.2 0-1.6l.8.8v1.6z" fill="#815146"/><path d="m17.6 27.2c-1 0-2.2 0-3.2 0-.4.4-1.2 1.2-1.6 1.6h1.6l-.8.8h1.6l-.8.8h4.8c0-.4 0-1.2 0-1.6-.4-.4-1.2-1.2-1.6-1.6zm-1.6 1.6h.8v.8z" fill="#815146"/><path d="m16 26.4v-.8l.8-.8h.8c0-.7 0-1.7 0-2.4l.8-.8-.8-.8.8-.8c-1 0-2.2 0-3.2 0l-.8-.8c-.4 0-1.2 0-1.6 0l.8.8h-.8v4l.8-.8h.8v1.6h.8l-.8.8v-.8c-.4 0-1.2 0-1.6 0v.8l-.8.8v.8h.8l.8-.8v.8h.8l.8-.8zm.8-4h-.8l.8-.8zm-3.2 0v-.8l.8-.8h1.6c-.4.4-1.2 1.2-1.6 1.6z" fill="#815146"/><path d="m15.2 19.2v.8l.8-.8z" fill="#815146"/><path d="m15.2 18.4.8-.8.8.8v.8h-.8l.8.8.8-.8c0-.4 0-1.2 0-1.6l-.8-.8c-.4 0-1.2 0-1.6 0l-.8.8v1.6h.8z" fill="#815146"/><path d="m12 20 .8-.8h-.8z" fill="#815146"/><path d="m12 24.8c-.4.4-1.2 1.2-1.6 1.6 0-.4 0-1.2 0-1.6l.8-.8h.8c0-.7 0-1.7 0-2.4l-.8.8c0-.4 0-1.2 0-1.6-.4.4-1.2 1.2-1.6 1.6v4.8h1.6l.8-.8c0-.4 0-1.2 0-1.6z" fill="#815146"/><path d="m10.4 20h-.8v-.8l-.8-.8v1.6l.8.8z" fill="#815146"/><path d="m8.8 23.2c-.4 0-1.2 0-1.6 0v.8h-.8v1.6h1.6l-.8-.8.8-.8h.8v.8l.8-.8z" fill="#815146"/><path d="m8.8 25.6h.8l-.8-.8z" fill="#815146"/><path d="m7.2 22.4h.8l-.8-.8c-.4 0-1.2 0-1.6 0l-.8.8-.8-.8c-.4.4-1.2 1.2-1.6 1.6h1.6l-.8.8h1.6l1.6-1.6z" fill="#815146"/><path d="m14.4 30.4-.8.8h1.6z" fill="#d06692"/><path d="m12.8 30.4h1.6l-.8-.8z" fill="#d06692"/><path d="m12 29.6h1.6l-.8-.8z" fill="#d06692"/><path d="m3.2 25.6h1.6l-.8-.8z" fill="#d06692"/><path d="m2.4 24.8h1.6l-.8-.8z" fill="#d06692"/><path d="m1.6 24h1.6l-.8-.8z" fill="#d06692"/></svg>