<svg enable-background="new 0 0 32 32" height="32" viewBox="0 0 32 32" width="32" xmlns="http://www.w3.org/2000/svg"><path d="m15.2000132 19.4000015h.8000002v-.7999992z" fill="#db90be"/><g fill="#352e23"><path d="m14.4000187 21.8000183.7999878-.7999878v-.8000488c-.7122459 0-1.6877842 0-2.3999634 0l-.8000488.8000488.8000488.7999878z"/><path d="m13.6000309 24.1999817h1.5999756l-.7999878-.7999878z"/><path d="m15.9999943 22.6000061h.8000488l-.8000488-.7999878-.7999878.7999878z"/><path d="m15.2000065 24.1999817h1.6000366l-.8000488-.7999878z"/><path d="m16.8000431 24.1999817h1.5999756l-.7999878-.7999878z"/><path d="m19.2000065 20.1999817c-.7122459 0-1.6877842 0-2.3999634 0v.8000488l.7999878.7999878h1.5999756l.7999878-.7999878z"/></g><path d="m10.4000187 21.0000305-.7999878.7999878h.7999878z" fill="#68487f"/><path d="m10.4000187 23.3999939h.7999878l-.7999878-.7999878z" fill="#68487f"/><path d="m12.8000431 25.0000305h1.5999756l-.7999878-.8000488z" fill="#68487f"/><path d="m19.9999943 25.0000305h.8000488l-.8000488-.8000488z" fill="#68487f"/><path d="m20.8000431 22.6000061v.7999878l.7999878.7999878c0-.3982182 0-1.2018566 0-1.5999756z" fill="#68487f"/><path d="m11.9999943 22.6000061-.7999878-.7999878c0-.3982315 0-1.2019024 0-1.6000366l-.7999878.8000488v.7999878h-.7999878c.7123747.7123756 1.6876545 1.6876545 2.3999634 2.3999634l-.7999878.8000488h1.6000366l.7999878-.8000488v-.7999878h-.7999878z" fill="#787098"/><path d="m21.6000309 21.0000305-.7999878-.8000488v1.6000366c-.3984089.398365-1.2017574 1.2016811-1.6000366 1.5999756h-.7999878v.7999878l-.7999878.8000488h2.3999634v-.8000488l.8000488-.7999878v-.7999878h.7999878l.7999878-.7999878z" fill="#787098"/><path d="m8.8000431 24.1999817v.8000488h.7999878c0-.3982334 0-1.2019024 0-1.6000366h-.7999878z" fill="#ba4b9b"/><path d="m15.9999943 19.3999939h-.7999878l.7999878.7999878.8000488-.7999878-.8000488-.7999878z" fill="#ba4b9b"/><path d="m20.8000298 20.1999969.8000031-.8000031.8000031.8000031-.8000031.8000011z" fill="#ba4b9b"/><g fill="#af9d81"><path d="m10.4000187 23.3999939v1.6000366h.7999878l.7999878-.8000488-.7999878-.7999878z"/><path d="m11.2000065 18.6000061v.7999878h.7999878z"/><path d="m11.9999943 21.8000183h.8000488l-.8000488-.7999878z"/><path d="m11.9999943 22.6000061.8000488.7999878h.7999878v-.7999878c-.3982325 0-1.2019024 0-1.6000366 0z"/><path d="m15.2000065 17.8000183c0-.3982315 0-1.2019024 0-1.6000366l-.7999878.8000488z"/><path d="m19.2000065 22.6000061h-.7999878v.7999878h.7999878l.7999878-.7999878z"/><path d="m19.9999943 21.0000305-.7999878.7999878h.7999878z"/><path d="m20.8000431 19.3999939v-.7999878l-.8000488.7999878.8000488.7999878z"/><path d="m20.8000431 23.3999939-.8000488.7999878h1.6000366z"/><path d="m21.6000309 22.6000061v.7999878h.7999878z"/><path d="m22.4000187 25.0000305h-.7999878v.7999878h1.5999756z"/></g><g fill="#d7cbb5"><path d="m8.8000431 24.1999817v-.7999878h-.8000493z"/><path d="m8.8000431 25.0000305v-.8000488l-.8000493.8000488z"/><path d="m9.6000309 24.1999817v.8000488h.7999878c0-.3982334 0-1.2019024 0-1.6000366h-.7999878z"/><path d="m9.6000309 18.6000061v-.7999878h-.7999878v.7999878h-.8000493v.7999878h.8000493c.3983927.3983784 1.2017097 1.2017269 1.5999756 1.6000366l.7999878-.8000488c-.3983793-.3983784-1.2016964-1.2016964-1.5999756-1.5999756z"/><path d="m16.8000431 24.1999817c-1.0022593 0-2.1978045 0-3.2000122 0 .3983641.3984089 1.2016811 1.2017555 1.5999756 1.6000366h1.6000366c.3983917-.3983784 1.2017097-1.2017269 1.5999756-1.6000366-.3982182 0-1.2018566 0-1.5999756 0z"/><path d="m20.8000431 21.8000183c0-.3982315 0-1.2019024 0-1.6000366l-.8000488-.7999878.8000488-.7999878c-.7124348-.7123528-1.6877384-1.6876583-2.4000244-2.4000244-1.0022583 0-2.1978054 0-3.2000122 0v1.6000366c-.3983936-.3983784-1.2017107-1.2017269-1.5999756-1.6000366-.7123413.7124462-1.6877117 1.687685-2.4000244 2.4000244l.7999878.7999878h-.7999878v2.4000244l.7999878.7999878h1.6000366v1.5999756l.7999878-.7999878.7999878.7999878.7999878-.7999878.8000488.7999878.7999878-.7999878.7999878.7999878c0-.3982182 0-1.2018566 0-1.5999756h1.5999756zm-4-2.4000244-.8000488.7999878-.7999878-.7999878.7999878-.7999878zm-3.2000122 2.4000244c-.3982325 0-1.2019024 0-1.6000366 0v-.7999878l.8000488-.8000488h2.3999634v.8000488l-.7999878.7999878zm2.3999634.7999878h-.7999878l.7999878-.7999878.8000488.7999878zm3.2000122-.7999878c-.3982182 0-1.2018566 0-1.5999756 0l-.7999878-.7999878v-.8000488h2.3999634l.7999878.8000488v.7999878z"/><path d="m20.8000431 24.1999817h-.8000488l1.6000366 1.6000366v-.7999878h.7999878l-.7999878-.8000488z"/><path d="m21.6000309 22.6000061.7999878.7999878.7999878-.7999878c-.3982182 0-1.2018566 0-1.5999756 0z"/><path d="m23.2000065 19.3999939h-.7999878v-.7999878l-.7999878.7999878.7999878.7999878z"/></g></svg>