<svg enable-background="new 0 0 32 32" height="32" viewBox="0 0 32 32" width="32" xmlns="http://www.w3.org/2000/svg"><path d="m9.5999756 21.8000183.7999878.8000488c0-.3982334 0-1.2019024 0-1.6000366z" fill="#96662f"/><path d="m14.3999634 21.8000183.8000488-.7999878-.8000488-.7999878c-.3982182 0-1.2018566 0-1.5999756 0l-.7999878.7999878.7999878.7999878z" fill="#352e23"/><path d="m13.5999756 24.2000427h1.6000366l-.8000488-.7999878z" fill="#352e23"/><path d="m16 22.6000671h.7999878l-.7999878-.8000488-.7999878.8000488z" fill="#352e23"/><path d="m15.2000122 24.2000427h1.5999756l-.7999878-.7999878z" fill="#352e23"/><path d="m16.7999878 24.2000427h1.5999756l-.7999878-.7999878z" fill="#352e23"/><path d="m19.2000122 20.2000427c-.3982334 0-1.2019024 0-1.6000366 0l-.7999878.7999878.7999878.7999878h1.6000366l.7999878-.7999878z" fill="#352e23"/><path d="m20.0000019 24.2000427.7999878-.7999878.7999878.7999878-.7999878.7999878z" fill="#aa7b33"/><path d="m8 23.4000549v1.5999756h1.5999756c0-.3982182 0-1.2018566 0-1.5999756l-.7999878-.7999878z" fill="#8c2f40"/><path d="m12.7999878 24.2000427h-.7999878v.7999878h2.3999634l-.7999878-.7999878z" fill="#8c2f40"/><path d="m19.2000122 24.2000427h-.8000488l-.7999878.7999878h3.2000122l-.7999878-.7999878z" fill="#8c2f40"/><path d="m21.5999756 22.6000671c0-1.5578041 0-3.2422771 0-4.8000488-1.0023575-1.002346-2.1976604-2.1977005-3.2000122-3.1999512-1.557785 0-3.2422371 0-4.7999878 0-1.0023575 1.002346-2.1976595 2.1977005-3.2000122 3.1999512v4.8000488l-.7999878.7999878h1.6000366c0-1.0022583 0-2.1978054 0-3.2000122.3983793-.3983784 1.2016954-1.2016964 1.5999756-1.5999756 1.0023346 1.002369 2.1977129 2.197649 3.2000122 3.1999512 1.0023575-1.002346 2.1976604-2.1977005 3.2000122-3.1999512l1.5999756 1.5999756v3.2000122h1.5999756zm-4.7999878-6.4000244v.7999878h-.7999878l-.7999878-.7999878.7999878-.7999878zm0 4h-.7999878l-.7999878-.7999878.7999878-.7999878.7999878.7999878z" fill="#8c2f40"/><path d="m12 25.0000305v-.7999878l-.7999878.7999878z" fill="#5b2833"/><path d="m12 22.6000671-.7999878-.8000488v1.6000366l.7999878.7999878h1.5999756v-.7999878h-.7999878z" fill="#5b2833"/><path d="m12 19.4000549h1.5999756l-.7999878-.7999878z" fill="#5b2833"/><path d="m16.7999878 17.0000305v-.7999878l-.7999878.7999878z" fill="#5b2833"/><path d="m16.7999878 20.2000427v-.7999878l-.7999878.7999878z" fill="#5b2833"/><path d="m20 19.4000549-.7999878-.7999878-.8000488.7999878z" fill="#5b2833"/><path d="m20.7999878 21.8000183c-.398365.3984089-1.2016811 1.2017555-1.5999756 1.6000366h-.8000488v.7999878h1.6000366l.7999878-.7999878c0-.3982315 0-1.2019024 0-1.6000366z" fill="#5b2833"/><path d="m21.5999756 24.2000427v-.7999878h-.7999878z" fill="#5b2833"/><path d="m21.5999756 21.8000183v.8000488l.7999878-.8000488-.7999878-.7999878z" fill="#5b2833"/><path d="m21.5999756 19.4000549v1.5999756l.7999878-.7999878z" fill="#5b2833"/><g fill="#af9d81"><path d="m10.3999634 23.4000549v1.5999756h.8000488l.7999878-.7999878-.7999878-.7999878z"/><path d="m11.2000122 17.0000305c-.3982344 0-1.2019033 0-1.6000366 0l.7999878.7999878z"/><path d="m12 21.0000305v.7999878h.7999878z"/><path d="m12 22.6000671.7999878.7999878h.7999878v-.7999878c-.3982182 0-1.2018566 0-1.5999756 0z"/><path d="m12.7999878 19.4000549h-.7999878l-.7999878.7999878h3.1999512l-.7999878-.7999878z"/><path d="m15.2000122 16.2000427.7999878.7999878.7999878-.7999878c-.3982182 0-1.2018566 0-1.5999756 0z"/><path d="m15.2000122 19.4000549.7999878.7999878.7999878-.7999878c-.3982182 0-1.2018566 0-1.5999756 0z"/><path d="m18.3999634 22.6000671v.7999878h.8000488l.7999878-.7999878c-.3982315 0-1.2019024 0-1.6000366 0z"/><path d="m19.2000122 19.4000549h-.8000488l-.7999878.7999878h3.2000122l-.7999878-.7999878z"/><path d="m20 21.8000183v-.7999878l-.7999878.7999878z"/><path d="m22.3999634 17.0000305c-.3982182 0-1.2018566 0-1.5999756 0l.7999878.7999878z"/><path d="m22.3999634 23.4000549h-.7999878v.7999878l.7999878.7999878c0-.3982181 0-1.2018566 0-1.5999756z"/><path d="m22.3999634 25.0000305h-.7999878v.7999878h1.6000366z"/></g><path d="m7.2000122 24.2000427-.8000488.7999878h1.6000366c0-.3982182 0-1.2018566 0-1.5999756h-.7999878z" fill="#d7cbb5"/><path d="m9.5999756 17.8000183h-.7999878v.8000488h-.7999878v.7999878h.7999878c.3983793.3983784 1.2016954 1.2016964 1.5999756 1.5999756 0-.3982182 0-1.2018566 0-1.5999756l-.7999878-.7999878z" fill="#d7cbb5"/><path d="m9.5999756 24.2000427v.7999878h.7999878c0-.3982182 0-1.2018566 0-1.5999756h-.7999878z" fill="#d7cbb5"/><path d="m12 16.2000427-.7999878-.7999878-.8000488.7999878-.7999878-.7999878v1.5999756h1.6000366z" fill="#d7cbb5"/><path d="m16.7999878 19.4000549-.7999878-.7999878-.7999878.7999878z" fill="#d7cbb5"/><path d="m16.7999878 16.2000427-.7999878-.7999878-.7999878.7999878z" fill="#d7cbb5"/><path d="m16.7999878 14.6000671-.7999878-.8000488-.7999878.8000488z" fill="#d7cbb5"/><path d="m16.7999878 24.2000427c-1.0022573 0-2.1978045 0-3.2000122 0 .3983793.3983936 1.2017269 1.2017097 1.6000366 1.5999756h1.5999756l1.5999756-1.5999756c-.3982182 0-1.2018566 0-1.5999756 0z" fill="#d7cbb5"/><path d="m20.7999878 21.0000305v-.7999878c-.3982182 0-1.2018566 0-1.5999756 0l.7999878.7999878v.7999878c-.7122631 0-1.6878281 0-2.4000244 0l-.7999878-.7999878-.7999878.7999878.7999878.8000488c-.3982182 0-1.2018566 0-1.5999756 0l.7999878-.8000488-.7999878-.7999878-.8000488.7999878c-.7122459 0-1.6877842 0-2.3999634 0v-.7999878l.7999878-.7999878c-.3982182 0-1.2018566 0-1.5999756 0v1.5999756l.7999878.8000488h1.5999756v1.5999756l.7999878-.7999878.8000488.7999878.7999878-.7999878.7999878.7999878.7999878-.7999878.7999878.7999878c0-.3982182 0-1.2018566 0-1.5999756h1.6000366l.7999878-.8000488z" fill="#d7cbb5"/><path d="m21.5999756 17.0000305h.7999878c0-.3982182 0-1.2018566 0-1.5999756-.3983936-.3983784-1.2017097-1.2017269-1.5999756-1.6000366v1.6000366l-.7999878.7999878.7999878.7999878z" fill="#d7cbb5"/><path d="m20.7999878 25.0000305.7999878.7999878v-.7999878h.7999878l-.7999878-.7999878z" fill="#d7cbb5"/><path d="m21.5999756 19.4000549.7999878.7999878.8000488-.7999878h-.8000488v-.7999878z" fill="#d7cbb5"/><path d="m24 23.4000549c-.3982315 0-1.2019024 0-1.6000366 0v1.5999756h1.6000366l-.7999878-.7999878z" fill="#d7cbb5"/></svg>