<svg enable-background="new 0 0 32 32" height="32" viewBox="0 0 32 32" width="32" xmlns="http://www.w3.org/2000/svg"><path d="m17.1999817 19.3999634c-.3982182 0-1.2018566 0-1.5999756 0l.7999878.7999878h1.6000366z" fill="#ece4ba"/><path d="m17.1999817 21.7999878h-.7999878l.7999878.7999878.8000488-.7999878z" fill="#352e23"/><path d="m15.6000061 23.3999634h.7999878l-.7999878-.7999878-.7999878.7999878z" fill="#352e23"/><path d="m14.8000183 21.7999878v.7999878h1.5999756v-.7999878c-.3982182 0-1.2018566 0-1.5999756 0z" fill="#352e23"/><path d="m13.1999817 21.7999878.8000488.7999878.7999878-.7999878c-.3982324 0-1.2019024 0-1.6000366 0z" fill="#352e23"/><path d="m18.0000305 20.1999512c-.3982334 0-1.2019024 0-1.6000366 0v1.6000366h1.6000366l.7999878-.7999878z" fill="#6d443c"/><path d="m13.1999817 20.1999512-.7999878.8000488.7999878.7999878h1.6000366c0-.3982315 0-1.2019024 0-1.6000366-.3982324 0-1.2019024 0-1.6000366 0z" fill="#6d443c"/><path d="m18.8000183 20.1999512h.7999878v.8000488h-.7999878z" fill="#ba7c70"/><path d="m11.6000061 20.1999512h.7999878v.8000488h-.7999878z" fill="#ba7c70"/><path d="m19.6000061 24.1999512c-.7122631 0-1.6878262 0-2.4000244 0l.8000488.8000488h1.5999756l.7999878-.8000488z" fill="#dd4760"/><path d="m16.3999939 23.3999634.7999878.7999878v-.7999878z" fill="#dd4760"/><path d="m11.6000061 20.1999512.7999878-.7999878h-.7999878z" fill="#dd4760"/><path d="m11.6000061 24.1999512h.7999878l-.7999878-.7999878z" fill="#dd4760"/><g fill="#bb2035"><path d="m20.3999939 22.5999756h.7999878v.7999878h-.7999878z"/><path d="m19.6000061 22.5999756h-.7999878v.7999878c-.3982315 0-1.2019024 0-1.6000366 0v.7999878h3.2000122l-.7999878-.7999878z"/><path d="m17.1999817 22.5999756-.7999878-.7999878v1.5999756h.7999878z"/><path d="m16.3999939 20.1999512-.7999878-.7999878v2.4000244h.7999878c0-.3982315 0-1.2019024 0-1.6000366z"/><path d="m15.6000061 23.3999634c-1.0022573 0-2.1978045 0-3.2000122 0v-.7999878l-.7999878.7999878c.3983927.3983784 1.2017098 1.2017269 1.5999756 1.6000366h4.8000488c-.3983955-.3983955-1.2017422-1.2017422-1.6000366-1.6000366z"/><path d="m11.6000061 19.3999634h-.7999878l.7999878.7999878z"/></g><path d="m19.6000061 19.3999634h-.7999878l-.7999878.7999878.7999878.8000488v-.8000488h.7999878v.8000488h-.7999878c-.3983784.3983936-1.2017269 1.2017097-1.6000366 1.5999756v.7999878h1.6000366c0-.3982182 0-1.2018566 0-1.5999756h.7999878l.7999878-.7999878c0-.3982334 0-1.2019024 0-1.6000366z" fill="#815146"/><path d="m16.3999939 22.5999756h-.7999878l.7999878.7999878z" fill="#815146"/><path d="m16.3999939 19.3999634v-.7999878l-.7999878.7999878z" fill="#815146"/><path d="m14.0000305 19.3999634-.8000488.7999878h1.6000366v1.6000366h.7999878c0-.7122631 0-1.6878281 0-2.4000244-.3982182 0-1.2018566 0-1.5999756 0z" fill="#815146"/><path d="m13.1999817 21.7999878-.7999878-.7999878h-.7999878v-.8000488l-.7999878-.7999878v1.6000366l.7999878.7999878h.7999878v1.5999756h2.4000244l.7999878-.7999878h-.7999878v-.7999878l-.7999878.7999878z" fill="#815146"/><path d="m12.3999939 21 .7999878-.8000488-.7999878-.7999878-.7999878.7999878h.7999878z" fill="#815146"/></svg>