<svg enable-background="new 0 0 32 32" height="32" viewBox="0 0 32 32" width="32" xmlns="http://www.w3.org/2000/svg"><path d="m17.5999889 22.6998634h-.7999992v-.7999992z" fill="#d5a029"/><path d="m16 21.099884-.7999878.7999878h1.5999756z" fill="#964440"/><path d="m15.1999893 21.8998642v.7999992h-.8000002z" fill="#d5a029"/><path d="m25.5999756 23.4998474h.7999878v.7999878h-.7999878z" fill="#bb2035"/><path d="m24.7999878 22.6998596c-.7122631 0-1.6878262 0-2.4000244 0-.3983784.3983784-1.2016964 1.2016964-1.5999756 1.5999756h1.5999756l.8000488-.7999878h1.5999756l.7999878-.7999878z" fill="#bb2035"/><path d="m20 22.6998596c-.7122631 0-1.6878281 0-2.4000244 0l.7999878.7999878c-1.557785 0-3.2422371 0-4.7999878 0l.7999878-.7999878c-.3982182 0-1.2018566 0-1.5999756 0l-.7999878.7999878.7999878.7999878h6.4000244l.7999878-.7999878h1.5999756l-.7999878-.7999878z" fill="#bb2035"/><path d="m20.7999878 23.4998474h-.7999878l.7999878.7999878.7999878-.7999878z" fill="#dd4760"/><path d="m11.2000122 22.6998596-.8000488.7999878h1.6000366l.7999878-.7999878c-.3982182 0-1.2018566 0-1.5999756 0z" fill="#dd4760"/><g fill="#815146"><path d="m23.2000122 21.8998718h.7999878v-.7999878z"/><path d="m20.7999878 21.099884-.7999878.7999878h.7999878v.7999878l1.5999756-1.5999756c0-.3982334 0-1.2019024 0-1.6000366-.3983937.3983784-1.2017098 1.2017269-1.5999756 1.6000366z"/><path d="m21.5999756 18.6998596-.7999878-.7999878-.7999878.7999878v1.5999756c.3983784-.3983784 1.2016964-1.2016964 1.5999756-1.5999756z"/><path d="m18.3999634 19.4998474v2.4000244l.8000488-.7999878c0-1.0022583 0-2.1978035 0-3.2000122l-.8000488.7999878z"/><path d="m16.7999878 18.6998596c-.3982182 0-1.2018566 0-1.5999756 0l-.8000488.7999878h1.6000366c-.3983936.3983936-1.2017412 1.2017403-1.6000366 1.6000366h1.6000366l.7999878-.8000488.7999878.8000488.7999878-.8000488c-.3983784-.3983784-1.2016964-1.2016964-1.5999756-1.5999756z"/><path d="m15.2000122 23.4998474h1.5999756l-.7999878-.7999878z"/><path d="m13.5999756 20.2998352.7999878.8000488v-.8000488z"/><path d="m13.5999756 18.6998596-.7999878-.7999878v1.5999756l.7999878.7999878.7999878-.7999878z"/><path d="m12 20.2998352-.7999878-.7999878-.8000488.7999878.8000488.8000488h.7999878v.7999878h1.5999756c-.3983927-.3983783-1.2017098-1.2017269-1.5999756-1.6000366z"/><path d="m8.7999878 20.2998352v.8000488h-.7999878c.3983793.3983784 1.2016954 1.2016964 1.5999756 1.5999756l.7999878-.7999878c-.3983927-.3983783-1.2017098-1.2017269-1.5999756-1.6000366z"/></g><path d="m24.7999878 21.8998718-.7999878-.7999878v.7999878h-.7999878l.7999878-.7999878c0-.3982334 0-1.2019024 0-1.6000366l-.7999878.7999878c0-.3982182 0-1.2018566 0-1.5999756l-.8000488.7999878v1.6000366c-.3983784.3983784-1.2016964 1.2016964-1.5999756 1.5999756l.7999878.7999878.7999878-.7999878h3.2000122c0-.3982182 0-1.2018566 0-1.5999756z" fill="#533232"/><path d="m20 21.8998718c.7123966-.7123718 1.6876335-1.6877193 2.3999634-2.4000244 0-.3982182 0-1.2018566 0-1.5999756l-.7999878-.7999878v1.5999756c-.3983784.3983784-1.2016964 1.2016964-1.5999756 1.5999756 0-1.0022392 0-2.1977615 0-3.1999512l-.7999878.7999878v3.2000122l-.8000488.7999878c0-.3982315 0-1.2019024 0-1.6000366l-.7999878.8000488-.7999878-.8000488-.7999878.8000488 1.5999756 1.5999756h3.2000122v-.7999878z" fill="#533232"/><path d="m18.3999634 20.2998352c0-.3982182 0-1.2018566 0-1.5999756l-.7999878-.7999878c0-.3982315 0-1.2019024 0-1.6000366l-.7999878.8000488v1.5999756z" fill="#533232"/><path d="m16.7999878 21.8998718c-.3982182 0-1.2018566 0-1.5999756 0v.7999878h-.8000488l-.7999878.7999878h1.6000366l.7999878-.7999878.7999878.7999878h1.5999756l-.7999878-.7999878h-.7999878z" fill="#533232"/><path d="m16.7999878 18.6998596-.7999878-.7999878-.7999878.7999878z" fill="#533232"/><path d="m16 21.099884c-.3982325 0-1.2019024 0-1.6000366 0-.398365-.3984089-1.2016811-1.2017555-1.5999756-1.6000366 0-.3982182 0-1.2018566 0-1.5999756l-.7999878-.7999878v1.5999756l-.7999878-.7999878v1.5999756c.7123966.7123718 1.6876326 1.6877193 2.3999634 2.4000244-.3982182 0-1.2018566 0-1.5999756 0v-.7999878h-.7999878c-.7123938-.7123947-1.6876974-1.6876984-2.4000244-2.4000244v1.5999756c.398365.3984089 1.2016811 1.2017555 1.5999756 1.6000366l-.7999878.7999878.7999878.7999878.8000488-.7999878h3.1999512c.3984089-.398365 1.2017565-1.2016811 1.6000366-1.5999756z" fill="#533232"/><path d="m14.3999634 21.099884c.3983955-.3983955 1.2017422-1.2017421 1.6000366-1.6000366-.3982325 0-1.2019024 0-1.6000366 0l-.7999878.7999878h.7999878z" fill="#533232"/><path d="m14.3999634 17.8998718v1.5999756l.8000488-.7999878z" fill="#533232"/><path d="m8 21.099884-.7999878-.8000488v1.6000366l.7999878.7999878h1.5999756c-.3983793-.3983784-1.2016955-1.2016964-1.5999756-1.5999756z" fill="#533232"/></svg>