<svg enable-background="new 0 0 32 32" viewBox="0 0 32 32" xmlns="http://www.w3.org/2000/svg"><path d="m17.6 26.2h-.8-.8-.8-.8-.8l-.8.8.8.8h.8.8.8.8.8.8l.8-.8-.8-.8z" fill="#352e23"/><path d="m19.2 17.4-.8.8-.8-.8-.8.8-.8-.8-.8.8-.8-.8-.8.8-.8-.8-.8.8-.8-.8v1.6h.8v.8l.8-.8h6.4l.8.8v-.8h.8c0-.4 0-1.2 0-1.6l-.8.8z" fill="#352e23"/><path d="m18.4 15.8v.8l.8-.8.8.8.8-.8-.8-.8c-.4 0-1.2 0-1.6 0l-.8.8z" fill="#352e23"/><path d="m17.6 14.2-.8.8h.8z" fill="#352e23"/><path d="m14.4 14.2v.8h.8z" fill="#352e23"/><path d="m12.8 15.8.8.8v-.8h.8l-.8-.8c-.4 0-1.2 0-1.6 0l-.8.8.8.8z" fill="#352e23"/><path d="m20.8 14.2v.8h.8z" fill="#b5b735"/><path d="m19.2 13.4v.8l.8-.8-.8-.8z" fill="#b5b735"/><path d="m18.4 16.6h1.6l-.8-.8z" fill="#b5b735"/><path d="m17.6 15.8-.8.8h1.6v-.8z" fill="#b5b735"/><path d="m18.4 11.8c-.4 0-1.2 0-1.6 0l.8.8z" fill="#b5b735"/><path d="m16 12.6.8.8.8-.8c-.4 0-1.2 0-1.6 0z" fill="#b5b735"/><path d="m16.8 11.8c-.4 0-1.2 0-1.6 0l.8.8z" fill="#b5b735"/><path d="m16 13.4h-.8l.8.8.8-.8z" fill="#b5b735"/><path d="m15.2 12.6h-.8l.8.8.8-.8z" fill="#b5b735"/><path d="m14.4 11.8h-.8l.8.8.8-.8z" fill="#b5b735"/><path d="m13.6 15.8v.8h1.6l-.8-.8z" fill="#b5b735"/><path d="m12 16.6h1.6l-.8-.8z" fill="#b5b735"/><path d="m12.8 13.4v-.8l-.8.8.8.8z" fill="#b5b735"/><path d="m11.2 15v-.8l-.8.8z" fill="#b5b735"/><path d="m22.4 15.8-.8-.8h-.8v-.8l-.8-.8-.8.8c0-.4 0-1.2 0-1.6l-.8-.8c-.7.7-1.7 1.7-2.4 2.4-.7-.7-1.7-1.7-2.4-2.4l-.8.8v1.6l-.8-.8-.8.8v.8h-.8l-.8.8.8.8-.8.8.8.8v1.6l4 4 .8-.8.8.8.8-.8.8.8 4-4c0-.4 0-1.2 0-1.6l.8-.8-.8-.8zm-4.8-1.6v.8h-.8zm-3.2 0 .8.8h-.8zm-2.4.8h1.6l1.6 1.6c-1 0-2.2 0-3.2 0l-.8-.8zm8.8 3.2v.8c-.4.4-1.2 1.2-1.6 1.6-2.1 0-4.3 0-6.4 0-.4-.4-1.2-1.2-1.6-1.6 0-.4 0-1.2 0-1.6h9.6zm-.8-1.6c-1 0-2.2 0-3.2 0 .4-.4 1.2-1.2 1.6-1.6h1.6l.8.8z" fill="#4c7f6d"/><path d="m17.6 12.6-.8-.8-.8.8z" fill="#4c7f6d"/><path d="m16 13.4h.8l-.8-.8-.8.8z" fill="#4c7f6d"/><path d="m16 12.6-.8-.8-.8.8z" fill="#4c7f6d"/><g fill="#d7cbb5"><path d="m22.4 17.4v-.8h-.8z"/><path d="m21.6 15 .8.8c0-.4 0-1.2 0-1.6z"/><path d="m20.8 14.2c0-.4 0-1.2 0-1.6l-.8.8z"/><path d="m20 19.8.8-.8h-.8z"/><path d="m19.2 17.4.8.8.8-.8c-.4 0-1.2 0-1.6 0z"/><path d="m19.2 20.6.8-.8h-.8z"/><path d="m19.2 11.8v-.8l-.8.8.8.8z"/><path d="m17.6 20.6h1.6l-.8-.8z"/><path d="m17.6 17.4.8.8.8-.8c-.4 0-1.2 0-1.6 0z"/><path d="m16 20.6h1.6l-.8-.8z"/><path d="m16 17.4.8.8.8-.8c-.4 0-1.2 0-1.6 0z"/><path d="m14.4 20.6h1.6l-.8-.8z"/><path d="m14.4 17.4.8.8.8-.8c-.4 0-1.2 0-1.6 0z"/><path d="m12.8 20.6h1.6l-.8-.8z"/><path d="m12.8 17.4.8.8.8-.8c-.4 0-1.2 0-1.6 0z"/><path d="m12.8 11v1.6l.8-.8z"/><path d="m12 19.8.8.8v-.8z"/><path d="m11.2 19 .8.8v-.8z"/><path d="m11.2 17.4.8.8.8-.8c-.4 0-1.2 0-1.6 0z"/><path d="m11.2 12.6v1.6l.8-.8z"/><path d="m9.6 17.4.8-.8h-.8z"/><path d="m9.6 15v.8l.8-.8-.8-.8z"/></g><g fill="#5ec3cb" opacity=".8"><path d="m24 12.6v1.6h-.8c0-.7 0-1.7 0-2.4l-.8-.8-.8.8.8.8-.8.8c0-1.6 0-3.2 0-4.8-.4-.4-1.2-1.2-1.6-1.6v1.6c-.4.4-1.2 1.2-1.6 1.6l-.8-.8c0-.4 0-1.2 0-1.6l-.8-.8v1.6l-.8.8.8.8-.8.8c0-.4 0-1.2 0-1.6l-.8-.8c0-.4 0-1.2 0-1.6l-.8-.8c0-.4 0-1.2 0-1.6-.4.4-1.2 1.2-1.6 1.6v1.6l-.8.8.8.8v1.6l.8.8h4.8l.8-.8v1.6l.8.8c0-1 0-2.2 0-3.2l.8.8-.8.8h.8v2.4l.8.8.8-.8v1.6l-.8.8h.8v.8l-.8.8v1.6c-1.3 1.3-2.7 2.7-4 4l-.8-.8-.8.8-.8-.8-.8.8c-1.3-1.3-2.7-2.7-4-4 0-.4 0-1.2 0-1.6l-.8-.8v-.8h.8l-.8-.8c0-.7 0-1.7 0-2.4h-.8l-.8-.8v1.6l.8.8v1.6l-.8-.8v1.6c.4.4 1.2 1.2 1.6 1.6h-.8v.8l2.4 2.4c-.4 0-1.2 0-1.6 0 .4.4 1.2 1.2 1.6 1.6h1.6l.8.8h4.8l3.2-3.2v1.6l.8-.8c0-1 0-2.2 0-3.2l.8-.8v1.6l.8-.8c0-.7 0-1.7 0-2.4h-.8c.4-.4 1.2-1.2 1.6-1.6 0-.4 0-1.2 0-1.6zm-10.4-3.2v-.8l.8-.8v1.6l-.8.8z"/><path d="m11.2 14.2c0-.4 0-1.2 0-1.6l.8.8.8-.8c0-.4 0-1.2 0-1.6l-.8.8v-.8h-.8l-.8-.8-.8.8c0-.4 0-1.2 0-1.6l-.8.8v1.6l.8.8.8-.8v1.6l-.8.8.8.8z"/><path d="m10.4 9.4v-.8l-.8.8.8.8z"/></g><g fill="#3f8a81"><path d="m24.8 16.6v1.6l.8-.8z"/><path d="m24 16.6v-.8l-.8.8z"/><path d="m22.4 9.4v1.6l.8-.8z"/><path d="m22.4 19.8v.8l.8-.8c0-.4 0-1.2 0-1.6l-.8.8z"/><path d="m21.6 11.8v1.6l.8-.8z"/><path d="m20 23h1.6c0-.4 0-1.2 0-1.6-.4.4-1.2 1.2-1.6 1.6z"/><path d="m20.8 11.8h-.8v1.6l.8-.8z"/><path d="m20 10.2v1.6l.8-.8z"/><path d="m19.2 19c-2.1 0-4.3 0-6.4 0l-.8.8h.8v.8l.8-.8.8.8.8-.8.8.8.8-.8.8.8.8-.8.8.8v-.8h.8z"/><path d="m18.4 9.4c0-.7 0-1.7 0-2.4l-.8.8v1.6l.8.8z"/><path d="m17.6 4.6v1.6l.8-.8z"/><path d="m16 9.4v1.6l.8-.8z"/><path d="m14.4 8.6v-.8l-.8.8v1.6l.8-.8z"/><path d="m12 9.4v2.4l.8-.8c0-.4 0-1.2 0-1.6l-.8-.8z"/><path d="m11.2 6.2v1.6l.8-.8z"/><path d="m10.4 12.6v-.8l-.8.8v1.6l.8-.8z"/><path d="m9.6 9.4v1.6l.8-.8z"/><path d="m9.6 20.6v1.6h1.6c-.4-.4-1.2-1.2-1.6-1.6z"/><path d="m8.8 18.2v.8h.8z"/><path d="m8.8 15.8v-.8l-.8-.8v1.6l.8.8z"/><path d="m7.2 19v.8l.8.8c0-.4 0-1.2 0-1.6l-.8-.8z"/><path d="m7.2 14.2v-.8l-.8.8.8.8z"/></g></svg>