<svg enable-background="new 0 0 32 32" height="32" viewBox="0 0 32 32" width="32" xmlns="http://www.w3.org/2000/svg"><path d="m20 13.6000004h-.7999992v1.6000004l.7999992-.8000002z" fill="#352e23"/><path d="m19.2000008 16.7999992h.7999992c0-.3999996 0-1.1999998 0-1.6000004h-.7999992z" fill="#352e23"/><path d="m12 14.3999996.8000002.8000002c0-.3999996 0-1.1999998 0-1.6000004h-.8000002z" fill="#352e23"/><path d="m12 16v.7999992h.8000002c0-.3999996 0-1.1999998 0-1.6000004h-.8000002z" fill="#352e23"/><path d="m19.2000008 23.2000008v1.6000004c-.3999997.3999996-1.2000008 1.2000007-1.6000004 1.6000003h1.6000004l.7999992-.7999992c0-.3999996 0-1.2000008 0-1.6000004z" fill="#bfaf94"/><path d="m16 26.3999996c-.3999996 0-1.1999998 0-1.6000004 0l.8000002.7999992v.7999992h1.5999994v-.7999992l.7999992-.7999992c-.3999995 0-1.2000007 0-1.5999984 0z" fill="#bfaf94"/><path d="m12.8000002 24.7999992c0-.3999996 0-1.2000008 0-1.6000004l-.8000002.7999993v1.6000004l.8000002.7999992h1.6000004c-.3999996-.3999996-1.1999998-1.2000008-1.6000004-1.5999985z" fill="#bfaf94"/><path d="m20 14.3999996-.7999992.8000002h1.6000004z" fill="#ece4ba"/><path d="m11.1999998 15.1999998h1.6000004l-.8000002-.8000002z" fill="#ece4ba"/><path d="m20.7999992 13.6000004-.7999992-.8000002c-.3999996 0-1.2000008 0-1.6000004 0-.3999996.3999996-1.2000007 1.1999998-1.6000004 1.6000004v1.5999994l1.6000004 1.6000004h1.6000004l1.6000004-1.6000004c0-.3999996 0-1.1999998 0-1.6000004zm-.7999992 1.6000004v1.6000004h-.7999992c0-1 0-2.1999998 0-3.1999998h.7999992v.8000002l.7999992.8000002z" fill="#d7d2b4"/><path d="m18.3999996 21.6000004c-1.6000004 0-3.1999998 0-4.8000002 0v.7999992l-.8000002.7999992v1.6000004c.3999997.3999997 1.1999998 1.2000008 1.6000004 1.6000004h3.2000008l1.6000004-1.6000004c0-.3999996 0-1.2000008 0-1.6000004l-.7999992-.7999992z" fill="#d7d2b4"/><path d="m13.6000004 17.6000004 1.6000004-1.6000004c0-.3999996 0-1.1999998 0-1.6000004-.3999997-.3999996-1.1999998-1.1999998-1.6000004-1.6000004-.3999996 0-1.1999998 0-1.6000004 0-.3999996.3999996-1.1999998 1.1999998-1.6000004 1.6000004v1.6000004l1.6000004 1.6000004zm-1.6000004-.7999993c0-.3999996 0-1.1999998 0-1.6000004h-.8000002l.8000002-.8000001v-.8000002h.8000002v3.2000008h-.8000002z" fill="#d7d2b4"/><path d="m23.2000008 21.6000004h-.7999992v1.6000004l1.6000004-1.6000004z" fill="#484d22"/><path d="m20 25.6000004.7999992-.7999992h-.7999992z" fill="#484d22"/><path d="m20 28h.7999992l-.7999992-.7999992z" fill="#484d22"/><path d="m20 23.2000008v-.7999992l-.7999992.7999992.7999992.7999992z" fill="#484d22"/><path d="m18.3999996 28v-.7999992l-.7999992.7999992z" fill="#484d22"/><path d="m15.1999998 19.2000008h1.5999994l-.8000002-.7999992z" fill="#484d22"/><path d="m13.6000004 28h.8000002l-.8000002-.7999992z" fill="#484d22"/><path d="m12 23.2000008v.7999992l.8000002-.7999992-.8000002-.7999993z" fill="#484d22"/><path d="m12 28v-.7999992l-.8000002.7999992z" fill="#484d22"/><path d="m12 25.6000004v-.7999992h-.8000002z" fill="#484d22"/><path d="m8 21.6000004c.3999996.3999996 1.1999998 1.2000007 1.6000004 1.6000004 0-.3999996 0-1.2000008 0-1.6000004-.3999996 0-1.1999998 0-1.6000004 0z" fill="#484d22"/><g fill="#548241"><path d="m24.7999992 20.7999992c-.3999996 0-1.2000008 0-1.6000004 0l-.7999992.8000011 1.6000004-.0000018v.7999992h.7999992l.7999992.7999992c0-.3999996 0-1.2000008 0-1.6000004z"/><path d="m24.7999992 28h.7999992l-.7999992-.7999992z"/><path d="m24.7999992 23.2000008h-.7999992l.7999992.7999992z"/><path d="m24 24h-.7999992l.7999992.7999992z"/><path d="m24 23.2000008v-.7999992h-.7999992z"/><path d="m23.2000008 28h.7999992l-.7999992-.7999992z"/><path d="m23.2000008 24.7999992h-.7999992l.7999992.7999992z"/><path d="m23.2000008 23.2000008h-.7999992l.7999992.7999992z"/><path d="m22.3999996 25.6000004h-.7999992l.7999992.7999992z"/><path d="m20.7999992 21.6000004c0-.3999996 0-1.2000008 0-1.6000004-.3999996 0-1.2000008 0-1.6000004 0 .7000008-.7000008 1.7000008-1.7000008 2.3999996-2.3999996l-.7999992-.7999992-.7999992.7999992c-.3999996 0-1.2000008 0-1.6000004 0-.3999996-.3999996-1.2000007-1.2000008-1.6000004-1.6000004 0-.3999996 0-1.1999998 0-1.6000004l1.6000004-1.6000004c-.3999996 0-1.2000008 0-1.6000004 0l-.8000002.8000002-.8000002-.8000002c-.3999996 0-1.1999998 0-1.6000004 0l1.6000004 1.6000004v1.6000004c-.3999996.3999996-1.1999998 1.2000008-1.6000004 1.6000004-.3999996 0-1.1999998 0-1.6000004 0l-.8000002-.7999992-.8000002.7999992 2.3999997 2.3999996c-.3999996 0-1.1999998 0-1.6000004 0v1.6000004c-.3999996 0-1.1999998 0-1.6000004 0v3.2000008l1.6000004 1.6000004-.8000002.7999992v.7999992h.8000002l.8000002-.7999992v.7999992h1.6000004v-.7999992l.8000002.7999992h.8000002v-.7999992l-.8000002-.7999992c-.3999996 0-1.1999998 0-1.6000004 0-.3999996-.3999996-1.1999998-1.2000008-1.6000004-1.6000004h.8000002c0-.7000008 0-1.7000008 0-2.3999996l.8000002.7999992.8000002-.7999992v-.7999992h4.8000002v.7999992l.7999992.7999992.7999992-.7999992v2.3999996h.7999992c-.3999996.3999996-1.2000008 1.2000008-1.6000004 1.6000004-.3999996 0-1.2000008 0-1.6000004 0l-.7999992.7999992v.7999992h.7999992l.7999992-.7999992v.7999992h1.6000004v-.7999992l.7999994.7999992h.7999992v-.7999992l-.7999992-.7999992 1.6000004-1.6000004c0-1 0-2.2000008 0-3.2000008-.3999996 0-1.2000008 0-1.5999947 0zm-4.8000002-3.2000008.8000002.7999992c-.3999996 0-1.1999998 0-1.6000004 0z"/><path d="m9.6000004 26.3999996.8000002-.7999992h-.8000002z"/><path d="m8.8000002 24 .8000002-.7999992h-.8000002z"/><path d="m8.8000002 25.6000004.8000002-.7999992h-.8000002z"/><path d="m8.8000002 28v-.7999992l-.8000002.7999992z"/><path d="m8 20.7999992h-.8000002l-.8000002.7999992v1.6000004l.8000002-.7999992h.8000002v-.7999992h1.6000004l-.8000002-.7999992z"/><path d="m8.8000002 22.3999996h-.8000002v.7999992z"/><path d="m8 24.7999992.8000002-.7999992h-.8000002z"/><path d="m7.1999998 24 .8000002-.7999992h-.8000002z"/><path d="m7.1999998 28v-.7999992l-.8000002.7999992z"/></g><g fill="#9fad3d"><path d="m24.7999992 27.2000008.7999992-.7999992.7999992.7999992-.7999991.7999992z"/><path d="m24.7999992 23.2000008v.7999992l.7999992-.7999992-.7999992-.7999992h-.7999992v.7999992z"/><path d="m23.2000008 27.2000008.7999992.7999992h.7999992v-.7999992l-.7999992-.7999993z"/><path d="m24 21.6000004-.7999992.7999992h.7999992z"/><path d="m23.2000008 24h.7999992v.7999992l.7999992-.7999992c-.3999996-.3999996-1.2000008-1.2000008-1.6000004-1.6000004l-.7999992.7999992h.7999992z"/><path d="m23.2000008 25.6000004.7999992-.7999993c-.3999996-.3999996-1.2000008-1.2000008-1.6000004-1.6000004v1.6000004h.7999992z"/><path d="m22.3999996 26.3999996.7999992-.7999992-.7999992-.7999992-.7999992.7999992h.7999992z"/><path d="m21.6000004 25.6000004-.7999992.7999992.7999992.7999992v.7999992h1.6000004v-.7999992c-.3999997-.3999996-1.2000008-1.2000007-1.6000004-1.5999984z"/><path d="m20.7999992 21.6000004h1.6000004c-.3999996-.3999996-1.2000007-1.2000008-1.6000004-1.6000004z"/><path d="m20 19.2000008-.7999992.7999992h1.6000004z"/><path d="m11.1999998 20h1.6000004l-.8000002-.7999992z"/><path d="m9.6000004 26.3999996-.8000002.7999992v.7999992h1.6000004v-.7999992l.8000002-.7999992-.8000002-.7999992z"/><path d="m9.6000004 21.6000004h1.6000004c0-.3999996 0-1.2000008 0-1.6000004-.3999997.3999996-1.1999998 1.2000008-1.6000004 1.6000004z"/><path d="m10.3999996 25.6000004-.8000002-.7999992-.8000002.7999992.8000002.7999992v-.7999992z"/><path d="m9.6000004 24.7999992c0-.3999996 0-1.2000008 0-1.6000004-.3999996.3999997-1.1999998 1.2000008-1.6000004 1.6000004l.8000002.7999992v-.7999992z"/><path d="m8 21.6000004v.7999992h.8000002z"/><path d="m8.8000002 24v-.7999992h.8000002l-.8000002-.7999992c-.3999996.3999996-1.1999998 1.2000008-1.5999999 1.6000004l.7999997.7999991v-.7999992z"/><path d="m7.1999998 27.2000008v.7999992h.8000002l.8000002-.7999992-.8000002-.7999993z"/><path d="m8 23.2000008v-.7999992h-.8000002l-.8000002.7999992.8000002.7999992v-.7999992z"/><path d="m5.5999999 27.2000008.8000002-.7999992.8000002.7999992-.8000007.7999992z"/></g></svg>