<svg enable-background="new 0 0 32 32" viewBox="0 0 32 32" xmlns="http://www.w3.org/2000/svg"><path d="m17.6 18.9-.8.8v-.8z" fill="#d5a029"/><path d="m16 19.7h-.8l.8.8.8-.8z" fill="#964440"/><path d="m15.2 18.9v.8l-.8-.8z" fill="#d5a029"/><g fill="#7d4e4a"><path d="m25.6 22.1c-.7-.7-1.7-1.7-2.4-2.4l-.8.8v1.6l-.8-.8c-.7 0-1.7 0-2.4 0v.8l-.8-.8c-.4 0-1.2 0-1.6 0l-.8.8-.8-.8c-1.6 0-3.2 0-4.8 0l-.8.8c0-.4 0-1.2 0-1.6l-.8-.8c-1 1-2.2 2.2-3.2 3.2v3.2l1.6-1.6v1.6l.8-.8v1.6l.8.8c0-.4 0-1.2 0-1.6l.8-.8v.8h.8l.8-.8v.8h.8c0-.4 0-1.2 0-1.6l.8.8c0-.7 0-1.7 0-2.4h.8l.8-.8v2.4h.8l-.8.8.8.8h.8v-.8l.8.8.8-.8-.8-.8.8-.8c0-.4 0-1.2 0-1.6l.8.8h.8v2.4l.8-.8v1.6l.8.8.8-.8c0-.4 0-1.2 0-1.6l.8-.8v1.6l.8-.8v1.6l.8.8.8-.8c0-.4 0-1.2 0-1.6l1.6 1.6c0-1 0-2.2 0-3.2zm-15.2 1.6h-.8l.8-.8zm-4 0 .8-.8v.8zm10.4 0h-.8l.8-.8zm3.2-.8h.8v.8zm4 .8.8-.8v.8z"/><path d="m18.4 17.3h.8c0-.4 0-1.2 0-1.6h-.8v.8l-.8.8v1.6l.8-.8z"/><path d="m15.4 17.5h1.1v1.1h-1.1z" transform="matrix(.7071 -.7071 .7071 .7071 -8.0887 16.6044)"/><path d="m13.6 18.1.8.8c0-.4 0-1.2 0-1.6l-.8-.8v-.8h-.8v1.6h.8z"/></g><g fill="#533232"><path d="m28 22.9c-1.3-1.3-2.7-2.7-4-4v-.8h.8l-.8-.8-.8.8h-.8v.8c-.4.4-1.2 1.2-1.6 1.6-1 0-2.2 0-3.2 0l.8-.8-.8-.8c-.4.4-1.2 1.2-1.6 1.6-.4-.4-1.2-1.2-1.6-1.6l-.8.8.8.8c-1 0-2.2 0-3.2 0-.4-.4-1.2-1.2-1.6-1.6v-.8h-.8l-.8-.8-.8.8h.8v.8c-1.6 1.6-3.2 3.2-4.8 4.8h1.6v3.2l.8-.8c0-1 0-2.2 0-3.2l3.2-3.2.8.8v1.6l.8-.8h4.8l.8.8.8-.8h1.6l.8.8v-.8h2.4l.8.8c0-.4 0-1.2 0-1.6l.8-.8 3.2 3.2v3.2l.8.8c0-1 0-2.2 0-3.2h1.6z"/><path d="m24.8 25.3v.8l.8-.8-.8-.8z"/><path d="m24.8 22.9-.8.8h.8z"/><path d="m23.2 25.3v-.8l-.8.8c0-.4 0-1.2 0-1.6l-.8.8v1.6l1.6 1.6.8-.8-.8-.8z"/><path d="m20.8 23.7v-.8h-.8z"/><path d="m20 26.1c0-.4 0-1.2 0-1.6l-.8.8z"/><path d="m19.2 24.5c0-.4 0-1.2 0-1.6h-.8l-.8-.8v1.6l.8.8z"/><path d="m17 25.5h1.1v1.1h-1.1z" transform="matrix(.7071 -.7071 .7071 .7071 -13.277 20.0798)"/><path d="m17.6 23.7-.8.8.8.8c0-.4 0-1.2 0-1.6z"/><path d="m16.8 27.7.8-.8h-.8z"/><path d="m16.8 22.9-.8.8h.8z"/><path d="m16 26.1h-.8l.8.8.8-.8-.8-.8z"/><path d="m15.2 19.7h1.6v-.8h.8c0-.4 0-1.2 0-1.6l.8-.8v-.8h.8c0-.4 0-1.2 0-1.6-.7.7-1.7 1.7-2.4 2.4v1.6l-.8.8-.8-.8c0-.4 0-1.2 0-1.6-.7-.7-1.7-1.7-2.4-2.4v1.6h.8v.8l.8.8v1.6h.8z"/><path d="m15.2 26.9h-.8l.8.8z"/><path d="m14.4 24.5v.8l.8-.8z"/><path d="m13.8 25.5h1.1v1.1h-1.1z" transform="matrix(.7071 -.7071 .7071 .7071 -14.2143 17.8171)"/><path d="m14.4 23.7c0-.4 0-1.2 0-1.6l-.8.8h-.8v1.6h.8z"/><path d="m13.6 17.3h-.8l.8.8z"/><path d="m12 25.3v.8l.8-.8-.8-.8z"/><path d="m11.2 25.3-.8.8.8.8.8-.8h-.8z"/><path d="m10.4 22.9-.8.8h.8z"/><path d="m9.6 25.3-.8.8v1.6c.4-.4 1.2-1.2 1.6-1.6h-.8z"/><path d="m8 26.1v-.8l-.8.8.8.8z"/><path d="m7.2 23.7v-.8l-.8.8z"/><path d="m7.2 26.1c0-.4 0-1.2 0-1.6-.4.4-1.2 1.2-1.6 1.6z"/></g></svg>