<svg enable-background="new 0 0 32 32" viewBox="0 0 32 32" xmlns="http://www.w3.org/2000/svg"><path d="m20 17.6h-.8v1.6l.8-.8z" fill="#352e23"/><path d="m19.2 20.8h.8c0-.4 0-1.2 0-1.6h-.8z" fill="#352e23"/><path d="m12 18.4.8.8c0-.4 0-1.2 0-1.6h-.8z" fill="#352e23"/><path d="m12 20v.8h.8c0-.4 0-1.2 0-1.6h-.8z" fill="#352e23"/><path d="m19.2 27.2v1.6c-.4.4-1.2 1.2-1.6 1.6h1.6l.8-.8c0-.4 0-1.2 0-1.6z" fill="#bfaf94"/><path d="m16 30.4c-.4 0-1.2 0-1.6 0l.8.8v.8h1.6v-.8l.8-.8c-.4 0-1.2 0-1.6 0z" fill="#bfaf94"/><path d="m12.8 28.8c0-.4 0-1.2 0-1.6l-.8.8v1.6l.8.8h1.6c-.4-.4-1.2-1.2-1.6-1.6z" fill="#bfaf94"/><path d="m20 18.4-.8.8h1.6z" fill="#ece4ba"/><path d="m11.2 19.2h1.6l-.8-.8z" fill="#ece4ba"/><path d="m20.8 17.6-.8-.8c-.4 0-1.2 0-1.6 0-.4.4-1.2 1.2-1.6 1.6v1.6l1.6 1.6h1.6c.4-.4 1.2-1.2 1.6-1.6 0-.4 0-1.2 0-1.6zm-.8 1.6v1.6h-.8c0-1 0-2.2 0-3.2h.8v.8l.8.8z" fill="#d7d2b4"/><path d="m18.4 25.6c-1.6 0-3.2 0-4.8 0v.8l-.8.8v1.6c.4.4 1.2 1.2 1.6 1.6h3.2c.4-.4 1.2-1.2 1.6-1.6 0-.4 0-1.2 0-1.6l-.8-.8z" fill="#d7d2b4"/><path d="m13.6 21.6 1.6-1.6c0-.4 0-1.2 0-1.6-.4-.4-1.2-1.2-1.6-1.6-.4 0-1.2 0-1.6 0-.4.4-1.2 1.2-1.6 1.6v1.6l1.6 1.6zm-1.6-.8c0-.4 0-1.2 0-1.6h-.8l.8-.8v-.8h.8v3.2z" fill="#d7d2b4"/><path d="m23.2 25.6h-.8v1.6l1.6-1.6z" fill="#484d22"/><path d="m20 29.6.8-.8h-.8z" fill="#484d22"/><path d="m20 32h.8l-.8-.8z" fill="#484d22"/><path d="m20 27.2v-.8l-.8.8.8.8z" fill="#484d22"/><path d="m18.4 32v-.8l-.8.8z" fill="#484d22"/><path d="m15.2 23.2h1.6l-.8-.8z" fill="#484d22"/><path d="m13.6 32h.8l-.8-.8z" fill="#484d22"/><path d="m12 27.2v.8l.8-.8-.8-.8z" fill="#484d22"/><path d="m12 32v-.8l-.8.8z" fill="#484d22"/><path d="m12 29.6v-.8h-.8z" fill="#484d22"/><path d="m8 25.6c.4.4 1.2 1.2 1.6 1.6 0-.4 0-1.2 0-1.6-.4 0-1.2 0-1.6 0z" fill="#484d22"/><path d="m24.8 24.8c-.4 0-1.2 0-1.6 0l-.8.8h1.6v.8h.8l.8.8c0-.4 0-1.2 0-1.6z" fill="#697845"/><path d="m24.8 32h.8l-.8-.8z" fill="#697845"/><path d="m24.8 27.2h-.8l.8.8z" fill="#697845"/><path d="m24 28h-.8l.8.8z" fill="#697845"/><path d="m24 27.2v-.8h-.8z" fill="#697845"/><path d="m23.2 32h.8l-.8-.8z" fill="#697845"/><path d="m23.2 28.8h-.8l.8.8z" fill="#697845"/><path d="m23.2 27.2h-.8l.8.8z" fill="#697845"/><path d="m22.4 29.6h-.8l.8.8z" fill="#697845"/><path d="m20.8 25.6c0-.4 0-1.2 0-1.6-.4 0-1.2 0-1.6 0 .7-.7 1.7-1.7 2.4-2.4l-.8-.8-.8.8c-.4 0-1.2 0-1.6 0-.4-.4-1.2-1.2-1.6-1.6 0-.4 0-1.2 0-1.6l1.6-1.6c-.4 0-1.2 0-1.6 0l-.8.8-.8-.8c-.4 0-1.2 0-1.6 0 .4.4 1.2 1.2 1.6 1.6v1.6c-.4.4-1.2 1.2-1.6 1.6-.4 0-1.2 0-1.6 0l-.8-.8-.8.8 2.4 2.4c-.4 0-1.2 0-1.6 0v1.6c-.4 0-1.2 0-1.6 0v3.2c.4.4 1.2 1.2 1.6 1.6l-.8.8v.8h.8l.8-.8v.8h1.6v-.8l.8.8h.8v-.8l-.8-.8c-.4 0-1.2 0-1.6 0-.4-.4-1.2-1.2-1.6-1.6h.8c0-.7 0-1.7 0-2.4l.8.8.8-.8v-.8h4.8v.8l.8.8.8-.8v2.4h.8c-.4.4-1.2 1.2-1.6 1.6-.4 0-1.2 0-1.6 0l-.8.8v.8h.8l.8-.8v.8h1.6v-.8l.8.8h.8v-.8l-.8-.8 1.6-1.6c0-1 0-2.2 0-3.2-.4 0-1.2 0-1.6 0zm-4.8-3.2.8.8c-.4 0-1.2 0-1.6 0z" fill="#697845"/><path d="m9.6 30.4.8-.8h-.8z" fill="#697845"/><path d="m8.8 28 .8-.8h-.8z" fill="#697845"/><path d="m8.8 29.6.8-.8h-.8z" fill="#697845"/><path d="m8.8 32v-.8l-.8.8z" fill="#697845"/><path d="m8 24.8h-.8l-.8.8v1.6l.8-.8h.8v-.8h1.6l-.8-.8z" fill="#697845"/><path d="m8.8 26.4h-.8v.8z" fill="#697845"/><path d="m8 28.8.8-.8h-.8z" fill="#697845"/><path d="m7.2 28 .8-.8h-.8z" fill="#697845"/><path d="m7.2 32v-.8l-.8.8z" fill="#697845"/><g fill="#9f974a"><path d="m25 30.6h1.1v1.1h-1.1z" transform="matrix(.7071 -.7071 .7071 .7071 -14.5636 27.2402)"/><path d="m24.8 27.2v.8l.8-.8-.8-.8h-.8v.8z"/><path d="m23.2 31.2.8.8h.8v-.8l-.8-.8z"/><path d="m24 25.6-.8.8h.8z"/><path d="m23.2 28h.8v.8l.8-.8c-.4-.4-1.2-1.2-1.6-1.6l-.8.8h.8z"/><path d="m23.2 29.6.8-.8c-.4-.4-1.2-1.2-1.6-1.6v1.6h.8z"/><path d="m22.4 30.4.8-.8-.8-.8-.8.8h.8z"/><path d="m21.6 29.6-.8.8.8.8v.8h1.6v-.8c-.4-.4-1.2-1.2-1.6-1.6z"/><path d="m20.8 25.6h1.6c-.4-.4-1.2-1.2-1.6-1.6z"/><path d="m20 23.2-.8.8h1.6z"/><path d="m11.2 24h1.6l-.8-.8z"/><path d="m9.6 30.4-.8.8v.8h1.6v-.8l.8-.8-.8-.8z"/><path d="m9.6 25.6h1.6c0-.4 0-1.2 0-1.6-.4.4-1.2 1.2-1.6 1.6z"/><path d="m10.4 29.6-.8-.8-.8.8.8.8v-.8z"/><path d="m9.6 28.8c0-.4 0-1.2 0-1.6-.4.4-1.2 1.2-1.6 1.6l.8.8v-.8z"/><path d="m8 25.6v.8h.8z"/><path d="m8.8 28v-.8h.8l-.8-.8c-.4.4-1.2 1.2-1.6 1.6l.8.8v-.8z"/><path d="m7.2 31.2v.8h.8l.8-.8-.8-.8z"/><path d="m8 27.2v-.8h-.8l-.8.8.8.8v-.8z"/><path d="m5.8 30.6h1.1v1.1h-1.1z" transform="matrix(.7071 -.7071 .7071 .7071 -20.1865 13.6627)"/></g></svg>