<svg enable-background="new 0 0 32 32" viewBox="0 0 32 32" xmlns="http://www.w3.org/2000/svg"><path d="m17.6 11.9-.8.8v-.8z" fill="#d5a029"/><path d="m16 12.7h-.8l.8.8.8-.8z" fill="#964440"/><path d="m15.2 11.9v.8l-.8-.8z" fill="#d5a029"/><path d="m25.6 15.1c-.7-.7-1.7-1.7-2.4-2.4l-.8.8v1.6l-.8-.8c-.7 0-1.7 0-2.4 0v.8l-.8-.8c-.4 0-1.2 0-1.6 0l-.8.8-.8-.8c-1.6 0-3.2 0-4.8 0l-.8.8c0-.4 0-1.2 0-1.6l-.8-.8c-1 1-2.2 2.2-3.2 3.2v3.2l1.6-1.6v1.6l.8-.8v1.6l.8.8c0-.4 0-1.2 0-1.6l.8-.8v.8h.8l.8-.8v.8h.8c0-.4 0-1.2 0-1.6l.8.8c0-.7 0-1.7 0-2.4h.8l.8-.8v2.4h.8l-.8.8.8.8h.8v-.8l.8.8.8-.8-.8-.8.8-.8c0-.4 0-1.2 0-1.6l.8.8h.8v2.4l.8-.8v1.6l.8.8.8-.8c0-.4 0-1.2 0-1.6l.8-.8v1.6l.8-.8v1.6l.8.8.8-.8c0-.4 0-1.2 0-1.6l1.6 1.6c0-1 0-2.2 0-3.2zm-15.2 1.6h-.8l.8-.8zm-4 0 .8-.8v.8zm10.4 0h-.8l.8-.8zm3.2-.8h.8v.8zm4 .8.8-.8v.8z" fill="#7d4e4a"/><path d="m18.4 10.3h.8c0-.4 0-1.2 0-1.6h-.8v.8l-.8.8v1.6l.8-.8z" fill="#7d4e4a"/><path d="m15.2 11.1.8-.8.8.8-.8.8z" fill="#7d4e4a"/><path d="m13.6 11.1.8.8c0-.4 0-1.2 0-1.6l-.8-.8v-.8h-.8v1.6h.8z" fill="#7d4e4a"/><g fill="#533232"><path d="m28 15.9c-1.3-1.3-2.7-2.7-4-4v-.8h.8l-.8-.8-.8.8h-.8v.8c-.4.4-1.2 1.2-1.6 1.6-1 0-2.2 0-3.2 0l.8-.8-.8-.8c-.4.4-1.2 1.2-1.6 1.6-.4-.4-1.2-1.2-1.6-1.6l-.8.8.8.8c-1 0-2.2 0-3.2 0-.4-.4-1.2-1.2-1.6-1.6v-.8h-.8l-.8-.8-.8.8h.8v.8c-1.6 1.6-3.2 3.2-4.8 4.8h1.6v3.2l.8-.8c0-1 0-2.2 0-3.2l3.2-3.2.8.8v1.6l.8-.8h4.8l.8.8.8-.8h1.6l.8.8v-.8h2.4l.8.8c0-.4 0-1.2 0-1.6l.8-.8 3.2 3.2v3.2l.8.8c0-1 0-2.2 0-3.2h1.6z"/><path d="m24.8 18.3v.8l.8-.8-.8-.8z"/><path d="m24.8 15.9-.8.8h.8z"/><path d="m23.2 18.3v-.8l-.8.8c0-.4 0-1.2 0-1.6l-.8.8v1.6l1.6 1.6.8-.8-.8-.8z"/><path d="m20.8 16.7v-.8h-.8z"/><path d="m20 19.1c0-.4 0-1.2 0-1.6l-.8.8z"/><path d="m19.2 17.5c0-.4 0-1.2 0-1.6h-.8l-.8-.8v1.6l.8.8z"/><path d="m16.8 19.1.8-.8.8.8-.8.8z"/><path d="m17.6 16.7-.8.8.8.8c0-.4 0-1.2 0-1.6z"/><path d="m16.8 20.7.8-.8h-.8z"/><path d="m16.8 15.9-.8.8h.8z"/><path d="m16 19.1h-.8l.8.8.8-.8-.8-.8z"/><path d="m15.2 12.7h1.6v-.8h.8c0-.4 0-1.2 0-1.6l.8-.8v-.8h.8c0-.4 0-1.2 0-1.6-.7.7-1.7 1.7-2.4 2.4v1.6l-.8.8-.8-.8c0-.4 0-1.2 0-1.6-.7-.7-1.7-1.7-2.4-2.4v1.6h.8v.8l.8.8v1.6h.8z"/><path d="m15.2 19.9h-.8l.8.8z"/><path d="m14.4 17.5v.8l.8-.8z"/><path d="m13.6 19.1.8-.8.8.8-.8.8z"/><path d="m14.4 16.7c0-.4 0-1.2 0-1.6l-.8.8h-.8v1.6h.8z"/><path d="m13.6 10.3h-.8l.8.8z"/><path d="m12 18.3v.8l.8-.8-.8-.8z"/><path d="m11.2 18.3-.8.8.8.8.8-.8h-.8z"/><path d="m10.4 15.9-.8.8h.8z"/><path d="m9.6 18.3-.8.8v1.6c.4-.4 1.2-1.2 1.6-1.6h-.8z"/><path d="m8 19.1v-.8l-.8.8.8.8z"/><path d="m7.2 16.7v-.8l-.8.8z"/><path d="m7.2 19.1c0-.4 0-1.2 0-1.6-.4.4-1.2 1.2-1.6 1.6z"/></g></svg>