<svg enable-background="new 0 0 32 32" viewBox="0 0 32 32" xmlns="http://www.w3.org/2000/svg"><path d="m20 13.6h-.8v1.6l.8-.8z" fill="#352e23"/><path d="m19.2 16.8h.8c0-.4 0-1.2 0-1.6h-.8z" fill="#352e23"/><path d="m12 14.4.8.8c0-.4 0-1.2 0-1.6h-.8z" fill="#352e23"/><path d="m12 16v.8h.8c0-.4 0-1.2 0-1.6h-.8z" fill="#352e23"/><path d="m19.2 23.2v1.6c-.4.4-1.2 1.2-1.6 1.6h1.6l.8-.8c0-.4 0-1.2 0-1.6z" fill="#bfaf94"/><path d="m16 26.4c-.4 0-1.2 0-1.6 0l.8.8v.8h1.6v-.8l.8-.8c-.4 0-1.2 0-1.6 0z" fill="#bfaf94"/><path d="m12.8 24.8c0-.4 0-1.2 0-1.6l-.8.8v1.6l.8.8h1.6c-.4-.4-1.2-1.2-1.6-1.6z" fill="#bfaf94"/><path d="m20 14.4-.8.8h1.6z" fill="#ece4ba"/><path d="m11.2 15.2h1.6l-.8-.8z" fill="#ece4ba"/><path d="m20.8 13.6-.8-.8c-.4 0-1.2 0-1.6 0-.4.4-1.2 1.2-1.6 1.6v1.6l1.6 1.6h1.6l1.6-1.6c0-.4 0-1.2 0-1.6zm-.8 1.6v1.6h-.8c0-1 0-2.2 0-3.2h.8v.8l.8.8z" fill="#d7d2b4"/><path d="m18.4 21.6c-1.6 0-3.2 0-4.8 0v.8l-.8.8v1.6c.4.4 1.2 1.2 1.6 1.6h3.2c.4-.4 1.2-1.2 1.6-1.6 0-.4 0-1.2 0-1.6l-.8-.8z" fill="#d7d2b4"/><path d="m13.6 17.6 1.6-1.6c0-.4 0-1.2 0-1.6-.4-.4-1.2-1.2-1.6-1.6-.4 0-1.2 0-1.6 0-.4.4-1.2 1.2-1.6 1.6v1.6l1.6 1.6zm-1.6-.8c0-.4 0-1.2 0-1.6h-.8l.8-.8v-.8h.8v3.2z" fill="#d7d2b4"/><path d="m23.2 21.6h-.8v1.6l1.6-1.6z" fill="#484d22"/><path d="m20 25.6.8-.8h-.8z" fill="#484d22"/><path d="m20 28h.8l-.8-.8z" fill="#484d22"/><path d="m20 23.2v-.8l-.8.8.8.8z" fill="#484d22"/><path d="m18.4 28v-.8l-.8.8z" fill="#484d22"/><path d="m15.2 19.2h1.6l-.8-.8z" fill="#484d22"/><path d="m13.6 28h.8l-.8-.8z" fill="#484d22"/><path d="m12 23.2v.8l.8-.8-.8-.8z" fill="#484d22"/><path d="m12 28v-.8l-.8.8z" fill="#484d22"/><path d="m12 25.6v-.8h-.8z" fill="#484d22"/><path d="m8 21.6c.4.4 1.2 1.2 1.6 1.6 0-.4 0-1.2 0-1.6-.4 0-1.2 0-1.6 0z" fill="#484d22"/><path d="m24.8 20.8c-.4 0-1.2 0-1.6 0l-.8.8h1.6v.8h.8l.8.8c0-.4 0-1.2 0-1.6z" fill="#548241"/><path d="m24.8 28h.8l-.8-.8z" fill="#548241"/><path d="m24.8 23.2h-.8l.8.8z" fill="#548241"/><path d="m24 24h-.8l.8.8z" fill="#548241"/><path d="m24 23.2v-.8h-.8z" fill="#548241"/><path d="m23.2 28h.8l-.8-.8z" fill="#548241"/><path d="m23.2 24.8h-.8l.8.8z" fill="#548241"/><path d="m23.2 23.2h-.8l.8.8z" fill="#548241"/><path d="m22.4 25.6h-.8l.8.8z" fill="#548241"/><path d="m20.8 21.6c0-.4 0-1.2 0-1.6-.4 0-1.2 0-1.6 0 .7-.7 1.7-1.7 2.4-2.4l-.8-.8-.8.8c-.4 0-1.2 0-1.6 0-.4-.4-1.2-1.2-1.6-1.6 0-.4 0-1.2 0-1.6l1.6-1.6c-.4 0-1.2 0-1.6 0l-.8.8-.8-.8c-.4 0-1.2 0-1.6 0l1.6 1.6v1.6c-.4.4-1.2 1.2-1.6 1.6-.4 0-1.2 0-1.6 0l-.8-.8-.8.8 2.4 2.4c-.4 0-1.2 0-1.6 0v1.6c-.4 0-1.2 0-1.6 0v3.2l1.6 1.6-.8.8v.8h.8l.8-.8v.8h1.6v-.8l.8.8h.8v-.8l-.8-.8c-.4 0-1.2 0-1.6 0-.4-.4-1.2-1.2-1.6-1.6h.8c0-.7 0-1.7 0-2.4l.8.8.8-.8v-.8h4.8v.8l.8.8.8-.8v2.4h.8c-.4.4-1.2 1.2-1.6 1.6-.4 0-1.2 0-1.6 0l-.8.8v.8h.8l.8-.8v.8h1.6v-.8l.8.8h.8v-.8l-.8-.8 1.6-1.6c0-1 0-2.2 0-3.2-.4 0-1.2 0-1.6 0zm-4.8-3.2.8.8c-.4 0-1.2 0-1.6 0z" fill="#548241"/><path d="m9.6 26.4.8-.8h-.8z" fill="#548241"/><path d="m8.8 24 .8-.8h-.8z" fill="#548241"/><path d="m8.8 25.6.8-.8h-.8z" fill="#548241"/><path d="m8.8 28v-.8l-.8.8z" fill="#548241"/><path d="m8 20.8h-.8l-.8.8v1.6l.8-.8h.8v-.8h1.6l-.8-.8z" fill="#548241"/><path d="m8.8 22.4h-.8v.8z" fill="#548241"/><path d="m8 24.8.8-.8h-.8z" fill="#548241"/><path d="m7.2 24 .8-.8h-.8z" fill="#548241"/><path d="m7.2 28v-.8l-.8.8z" fill="#548241"/><g fill="#9fad3d"><path d="m24.8 27.2.8-.8.8.8-.9.8z"/><path d="m24.8 23.2v.8l.8-.8-.8-.8h-.8v.8z"/><path d="m23.2 27.2.8.8h.8v-.8l-.8-.8z"/><path d="m24 21.6-.8.8h.8z"/><path d="m23.2 24h.8v.8l.8-.8c-.4-.4-1.2-1.2-1.6-1.6l-.8.8h.8z"/><path d="m23.2 25.6.8-.8c-.4-.4-1.2-1.2-1.6-1.6v1.6h.8z"/><path d="m22.4 26.4.8-.8-.8-.8-.8.8h.8z"/><path d="m21.6 25.6-.8.8.8.8v.8h1.6v-.8c-.4-.4-1.2-1.2-1.6-1.6z"/><path d="m20.8 21.6h1.6c-.4-.4-1.2-1.2-1.6-1.6z"/><path d="m20 19.2-.8.8h1.6z"/><path d="m11.2 20h1.6l-.8-.8z"/><path d="m9.6 26.4-.8.8v.8h1.6v-.8l.8-.8-.8-.8z"/><path d="m9.6 21.6h1.6c0-.4 0-1.2 0-1.6-.4.4-1.2 1.2-1.6 1.6z"/><path d="m10.4 25.6-.8-.8-.8.8.8.8v-.8z"/><path d="m9.6 24.8c0-.4 0-1.2 0-1.6-.4.4-1.2 1.2-1.6 1.6l.8.8v-.8z"/><path d="m8 21.6v.8h.8z"/><path d="m8.8 24v-.8h.8l-.8-.8c-.4.4-1.2 1.2-1.6 1.6l.8.8v-.8z"/><path d="m7.2 27.2v.8h.8l.8-.8-.8-.8z"/><path d="m8 23.2v-.8h-.8l-.8.8.8.8v-.8z"/><path d="m5.6 27.2.8-.8.8.8-.9.8z"/></g></svg>