<svg enable-background="new 0 0 32 32" viewBox="0 0 32 32" xmlns="http://www.w3.org/2000/svg"><path d="m17.6 12.9-.8.8v-.8z" fill="#d5a029"/><path d="m16 13.7h-.8l.8.8.8-.8z" fill="#964440"/><path d="m15.2 12.9v.8l-.8-.8z" fill="#d5a029"/><path d="m25.6 16.1c-.7-.7-1.7-1.7-2.4-2.4l-.8.8v1.6l-.8-.8c-.7 0-1.7 0-2.4 0v.8l-.8-.8c-.4 0-1.2 0-1.6 0l-.8.8-.8-.8c-1.6 0-3.2 0-4.8 0l-.8.8c0-.4 0-1.2 0-1.6l-.8-.8c-1 1-2.2 2.2-3.2 3.2v3.2l1.6-1.6v1.6l.8-.8v1.6l.8.8c0-.4 0-1.2 0-1.6l.8-.8v.8h.8l.8-.8v.8h.8c0-.4 0-1.2 0-1.6l.8.8c0-.7 0-1.7 0-2.4h.8l.8-.8v2.4h.8l-.8.8.8.8h.8v-.8l.8.8.8-.8-.8-.8.8-.8c0-.4 0-1.2 0-1.6l.8.8h.8v2.4l.8-.8v1.6l.8.8.8-.8c0-.4 0-1.2 0-1.6l.8-.8v1.6l.8-.8v1.6l.8.8.8-.8c0-.4 0-1.2 0-1.6l1.6 1.6c0-1 0-2.2 0-3.2zm-15.2 1.6h-.8l.8-.8zm-4 0 .8-.8v.8zm10.4 0h-.8l.8-.8zm3.2-.8h.8v.8zm4 .8.8-.8v.8z" fill="#825145"/><path d="m18.4 11.3h.8c0-.4 0-1.2 0-1.6h-.8v.8l-.8.8v1.6l.8-.8z" fill="#825145"/><path d="m15.2 12.1.8-.8.8.8-.8.8z" fill="#825145"/><path d="m13.6 12.1.8.8c0-.4 0-1.2 0-1.6l-.8-.8v-.8h-.8v1.6h.8z" fill="#825145"/><g fill="#56342f"><path d="m28 16.9c-1.3-1.3-2.7-2.7-4-4v-.8h.8l-.8-.8-.8.8h-.8v.8c-.4.4-1.2 1.2-1.6 1.6-1 0-2.2 0-3.2 0l.8-.8-.8-.8c-.4.4-1.2 1.2-1.6 1.6-.4-.4-1.2-1.2-1.6-1.6l-.8.8.8.8c-1 0-2.2 0-3.2 0-.4-.4-1.2-1.2-1.6-1.6v-.8h-.8l-.8-.8-.8.8h.8v.8c-1.6 1.6-3.2 3.2-4.8 4.8h1.6v3.2l.8-.8c0-1 0-2.2 0-3.2l3.2-3.2.8.8v1.6l.8-.8h4.8l.8.8.8-.8h1.6l.8.8v-.8h2.4l.8.8c0-.4 0-1.2 0-1.6l.8-.8 3.2 3.2v3.2l.8.8c0-1 0-2.2 0-3.2h1.6z"/><path d="m24.8 19.3v.8l.8-.8-.8-.8z"/><path d="m24.8 16.9-.8.8h.8z"/><path d="m23.2 19.3v-.8l-.8.8c0-.4 0-1.2 0-1.6l-.8.8v1.6l1.6 1.6.8-.8-.8-.8z"/><path d="m20.8 17.7v-.8h-.8z"/><path d="m20 20.1c0-.4 0-1.2 0-1.6l-.8.8z"/><path d="m19.2 18.5c0-.4 0-1.2 0-1.6h-.8l-.8-.8v1.6l.8.8z"/><path d="m16.8 20.1.8-.8.8.8-.8.8z"/><path d="m17.6 17.7-.8.8.8.8c0-.4 0-1.2 0-1.6z"/><path d="m16.8 21.7.8-.8h-.8z"/><path d="m16.8 16.9-.8.8h.8z"/><path d="m16 20.1h-.8l.8.8.8-.8-.8-.8z"/><path d="m15.2 13.7h1.6v-.8h.8c0-.4 0-1.2 0-1.6l.8-.8v-.8h.8c0-.4 0-1.2 0-1.6-.7.7-1.7 1.7-2.4 2.4v1.6l-.8.8-.8-.8c0-.4 0-1.2 0-1.6-.7-.7-1.7-1.7-2.4-2.4v1.6h.8v.8l.8.8v1.6h.8z"/><path d="m15.2 20.9h-.8l.8.8z"/><path d="m14.4 18.5v.8l.8-.8z"/><path d="m13.6 20.1.8-.8.8.8-.8.8z"/><path d="m14.4 17.7c0-.4 0-1.2 0-1.6l-.8.8h-.8v1.6h.8z"/><path d="m13.6 11.3h-.8l.8.8z"/><path d="m12 19.3v.8l.8-.8-.8-.8z"/><path d="m11.2 19.3-.8.8.8.8.8-.8h-.8z"/><path d="m10.4 16.9-.8.8h.8z"/><path d="m9.6 19.3-.8.8v1.6c.4-.4 1.2-1.2 1.6-1.6h-.8z"/><path d="m8 20.1v-.8l-.8.8.8.8z"/><path d="m7.2 17.7v-.8l-.8.8z"/><path d="m7.2 20.1c0-.4 0-1.2 0-1.6-.4.4-1.2 1.2-1.6 1.6z"/></g><path d="m18.4 26.2h-.8-.8-.8-.8-.8-.8l-.8.8.8.8h.8.8.8.8.8.8l.8-.8z" fill="#352e23"/></svg>