<svg enable-background="new 0 0 32 32" viewBox="0 0 32 32" xmlns="http://www.w3.org/2000/svg"><path d="m17.6 16h-.8l.8.8.8-.8z" fill="#f9f1e8"/><path d="m13.6 16 .8.8.8-.8c-.4 0-1.2 0-1.6 0z" fill="#f9f1e8"/><g fill="#5e3c6b"><path d="m21.6 20.8h-.8v-.8l-.8-.8v.8h-.8l-.8.8v.8h.8l.8-.8v.8h.8l.8.8h.8v-.8z"/><path d="m20 15.2h.8l-.8-.8-.8.8z"/><path d="m19.2 12.8h.8l-.8-.8z"/><path d="m20 14.4c0-.4 0-1.2 0-1.6-.4.4-1.2 1.2-1.6 1.6z"/><path d="m17.6 23.2-.8.8h1.6l.8-.8c0-.4 0-1.2 0-1.6-.4.4-1.2 1.2-1.6 1.6z"/><path d="m17.6 12c-1 0-2.2 0-3.2 0-.4-.4-1.2-1.2-1.6-1.6v1.6l.8.8-.8.8h3.2c.4-.4 1.2-1.2 1.6-1.6z"/><path d="m15.2 9.6-.8.8h.8z"/><path d="m13.6 22.4v1.6l.8-.8.8.8c0-.4 0-1.2 0-1.6l-.8-.8z"/><path d="m13.6 20.8-.8.8-.8-.8v1.6h.8v.8l.8-.8c0-.4 0-1.2 0-1.6z"/></g><g fill="#a0a0a0"><path d="m20.8 16.8v.8h.8z"/><path d="m20 19.2.8-.8h-.8z"/><path d="m19.2 17.6v-.8l-.8.8z"/><path d="m19.2 20-.8-.8-.8.8-.8-.8c-.4 0-1.2 0-1.6 0l-.8.8h-.8v-.8l-.8.8v1.6l.8-.8v1.6l.8-.8v-.8h.8l.8-.8.8.8h.8v.8l-.8-.8v1.6c-.4-.4-1.2-1.2-1.6-1.6l-.8.8.8.8v3.2c.4.4 1.2 1.2 1.6 1.6 0-1 0-2.2 0-3.2l-.8.8c0-.4 0-1.2 0-1.6l.8.8c.7-.7 1.7-1.7 2.4-2.4h-.8v-.8z"/><path d="m16 28 .8-.8h-.8z"/><path d="m12 17.6v.8h.8z"/><path d="m11.2 19.2h.8l-.8-.8z"/></g><path d="m11.2 22.4v.8l-.8-.8z" fill="#a4732d"/><g fill="#bbb"><path d="m20.8 15.2c-.4 0-1.2 0-1.6 0l.8-.8c-.7 0-1.7 0-2.4 0v-.8c-.4.4-1.2 1.2-1.6 1.6l-.8-.8h-.8v-.8l-.8.8h-.8v.8l-.8-.8v.8h-.8l.8.8v.8h-.8l-.8.8h.8v.8l.8.8-.8.8h1.6l.8-.8v.8h.8c.4-.4 1.2-1.2 1.6-1.6l1.6 1.6.8-.8.8.8h.8c0-.4 0-1.2 0-1.6h.8c0-.4 0-1.2 0-1.6l-.8-.8zm-8.8 3.2v-.8l.8.8zm7.2-1.6v.8c-1.8 0-3.8 0-5.6 0l-.8-.8v-.8h6.4z"/><path d="m17.6 21.6v-.8h-.8z"/><path d="m16 24v.8l.8-.8-.8-.8z"/><path d="m16 27.2h.8l-.8-.8z"/><path d="m15.2 20.8c.4.4 1.2 1.2 1.6 1.6 0-.4 0-1.2 0-1.6l-.8-.8z"/><path d="m14.4 21.6.8-.8h-.8z"/></g><path d="m11.2 21.6-.8.8v-.8z" fill="#a4732d"/><g fill="#715c99"><path d="m21.6 19.2h-.8v-.8l-.8.8.8.8v.8h.8l.8.8c0-.7 0-1.7 0-2.4z"/><path d="m19.2 22.4v.8l-.8.8h1.6c0-1 0-2.2 0-3.2l-.8.8z"/><path d="m18.4 12.8h.8v-.8l-.8-.8z"/><path d="m17.6 10.4-.8.8v.8h.8l.8-.8z"/><path d="m18.4 14.4.8-.8c-.4-.4-1.2-1.2-1.6-1.6l-.8.8.8.8v.8z"/><path d="m16.8 9.6c-.4 0-1.2 0-1.6 0v.8h-.8v1.6h1.6l.8-.8c0-.4 0-1.2 0-1.6z"/><path d="m15.2 13.6v.8l.8.8.8-.8c0-.4 0-1.2 0-1.6l-.8.8z"/><path d="m14.4 14.4h.8l-.8-.8z"/><path d="m13.6 24h1.6l-.8-.8z"/><path d="m13.6 22.4-.8.8v.8h.8c0-.4 0-1.2 0-1.6z"/><path d="m12.8 13.6.8.8.8-.8c-.4 0-1.2 0-1.6 0z"/><path d="m12.8 10.4.8.8.8-.8c-.4 0-1.2 0-1.6 0z"/><path d="m12.8 20.8v-.8c-.4 0-1.2 0-1.6 0 .4.4 1.2 1.2 1.6 1.6z"/><path d="m12.8 14.4h-.8l.8.8z"/><path d="m12 14.4.8-.8h-.8z"/><path d="m12 15.2v-.8l-.8.8z"/><path d="m11.2 19.2c-.4 0-1.2 0-1.6 0v.8h1.6l.8-.8z"/></g><g fill="#5b2833"><path d="m20 24.8v-.8h-.8v.8c-.7 0-1.7 0-2.4 0v.8h.8v.8h1.6v-.8h1.6v-.8z"/><path d="m13.6 24.8h-.8v-.8h-.8v.8h-.8v.8h1.6v.8h1.6v-.8h.8v-.8c-.4 0-1.2 0-1.6 0z"/><path d="m9.6 27.2h.8v.8h-.8z"/></g><g fill="#ae7d33"><path d="m20.8 18.4v.8h.8z"/><path d="m18.4 12.8.8.8.8-.8c-.4 0-1.2 0-1.6 0z"/><path d="m17.6 26.4v.8h1.6v-.8c-.4 0-1.2 0-1.6 0z"/><path d="m18.4 11.2-.8.8.8.8c0-.4 0-1.2 0-1.6z"/><path d="m16.8 9.6v1.6l.8-.8z"/><path d="m16.8 12.8v1.6l.8-.8z"/><path d="m16.8 11.2-.8.8h.8z"/><path d="m15.2 14.4v-.8h-.8z"/><path d="m14.4 11.2v-.8l-.8.8.8.8z"/><path d="m12.8 26.4v.8h1.6v-.8c-.4 0-1.2 0-1.6 0z"/><path d="m13.6 14.4-.8-.8-.8.8z"/><path d="m11.2 19.2v-.8l-.8.8z"/><path d="m9.6 23.2v4h.8c0-1 0-2.2 0-3.2l.8-.8c-.4 0-1.2 0-1.6 0z"/></g><g fill="#6d443c"><path d="m21.6 16c-.4 0-1.2 0-1.6 0l.8.8z"/><path d="m20 21.6v.8h1.6l-.8-.8z"/><path d="m20.8 23.2-.8-.8v.8z"/><path d="m19.2 16.8v-.8h-.8z"/><path d="m16.8 24h.8v.8h-.8z"/><path d="m16 16.8-.8.8h1.6z"/><path d="m14.4 24h.8v.8h-.8z"/><path d="m12.8 16.8.8-.8h-.8z"/><path d="m10.4 22.4h1.6c0-.4 0-1.2 0-1.6-.4.4-1.2 1.2-1.6 1.6z"/><path d="m10.4 16 .8.8h.8v-.8c-.4 0-1.2 0-1.6 0z"/><path d="m10.4 21.6h.8l-.8-.8z"/><path d="m9.6 21.6-.8.8.8.8h1.6l-.8-.8h-.8z"/></g><g fill="#815146"><path d="m22.4 15.2c-.4 0-1.2 0-1.6 0l-.8.8h3.2z"/><path d="m20 22.4.8.8.8-.8c-.4 0-1.2 0-1.6 0z"/><path d="m20 24.8h.8l-.8-.8z"/><path d="m17.6 16.8-.8-.8c-.4 0-1.2 0-1.6 0l-.8.8-.8-.8-.8.8.8.8h1.6l.8-.8.8.8h1.6l.8-.8-.8-.8z"/><path d="m17.6 24v.8h1.6v-.8c-.4 0-1.2 0-1.6 0z"/><path d="m15.2 19.2h1.6l-.8-.8z"/><path d="m12.8 24v.8h1.6v-.8c-.4 0-1.2 0-1.6 0z"/><path d="m12 24.8v-.8l-.8.8z"/><path d="m10.4 15.2h-.8l-.8.8h3.2l-.8-.8z"/><path d="m10.4 20h-.8l-.8.8v1.6l.8-.8v.8h.8c0-.4 0-1.2 0-1.6l.8.8.8-.8-.8-.8z"/></g></svg>