<svg enable-background="new 0 0 32 32" viewBox="0 0 32 32" xmlns="http://www.w3.org/2000/svg"><path d="m24.8 18h.8v.8h-.8z" fill="#c3c1bf"/><path d="m15.2 18h.8v.8h-.8z" fill="#c3c1bf"/><path d="m14.4 18-.8-.8v1.6h1.6v-.8z" fill="#a77c2c"/><path d="m20 17.2c-1 0-2.2 0-3.2 0l-.8.8h4.8z" fill="#7f776f"/><path d="m18.4 22.8h.8l-.8-.8z" fill="#7f776f"/><path d="m16.8 20.4c-.4 0-1.2 0-1.6 0l-.8.8c-.4 0-1.2 0-1.6 0v.8h-.8v.8h1.6v-.8c.4.4 1.2 1.2 1.6 1.6h1.6c.4-.4 1.2-1.2 1.6-1.6-.4-.4-1.2-1.2-1.6-1.6z" fill="#7f776f"/><path d="m14.4 17.2h-.8l.8.8h1.6l-.8-.8z" fill="#7f776f"/><path d="m12 17.2-.8.8v.8h.8v-.8h1.6v-.8c-.4 0-1.2 0-1.6 0z" fill="#7f776f"/><path d="m26.4 18h-.8v.8h.8l.8-.8z" fill="#ece4ba"/><path d="m22.4 19.6v3.2l.8-.8c0-1 0-2.2 0-3.2h-.8z" fill="#ece4ba"/><path d="m22.4 15.6v2.4h.8c0-.7 0-1.7 0-2.4l-.8-.8z" fill="#ece4ba"/><path d="m21.6 13.2v-.8l-.8.8z" fill="#ece4ba"/><path d="m20.8 11.6-.8-.8v1.6l-.8.8h1.6c0-.4 0-1.2 0-1.6z" fill="#ece4ba"/><path d="m19.2 24.4.8.8.8-.8c-.4 0-1.2 0-1.6 0z" fill="#ece4ba"/><path d="m18.4 10h.8l-.8-.8c-.4 0-1.2 0-1.6 0l.8.8z" fill="#ece4ba"/><path d="m17.6 11.6v1.6h1.6c-.4-.4-1.2-1.2-1.6-1.6z" fill="#ece4ba"/><path d="m16 13.2h1.6l-.8-.8z" fill="#ece4ba"/><path d="m14.4 13.2h1.6l-.8-.8z" fill="#ece4ba"/><path d="m14.4 11.6c-.4.4-1.2 1.2-1.6 1.6h1.6c0-.4 0-1.2 0-1.6z" fill="#ece4ba"/><path d="m11.2 24.4.8.8.8-.8c-.4 0-1.2 0-1.6 0z" fill="#ece4ba"/><path d="m12 11.6v-.8l-.8.8v1.6h1.6l-.8-.8z" fill="#ece4ba"/><path d="m12 10h.8l-.8-.8c-.4 0-1.2 0-1.6 0l.8.8z" fill="#ece4ba"/><path d="m10.4 13.2h.8l-.8-.8z" fill="#ece4ba"/><path d="m24 14.8c-.4-.4-1.2-1.2-1.6-1.6v1.6l1.6 1.6v1.6h.8c0-.7 0-1.7 0-2.4z" fill="#55332c"/><path d="m23.2 18.8v1.6l.8-.8v1.6c-.4.4-1.2 1.2-1.6 1.6v1.6l2.4-2.4c0-1 0-2.2 0-3.2-.4 0-1.2 0-1.6 0z" fill="#55332c"/><path d="m22.4 19.6v-.8c-2.9 0-5.9 0-8.8 0v-.8c-.4 0-1.2 0-1.6 0v.8l-.8.8.8.8h1.6v.8h.8l.8-.8h1.6l.8-.8.8.8.8-.8.8.8.8-.8.8.8h.8z" fill="#55332c"/><path d="m20 25.2c-1 0-2.2 0-3.2 0v.8h4.8v-.8c-.4 0-1.2 0-1.6 0z" fill="#55332c"/><path d="m20 17.2.8.8h.8v-.8l-.8-.8z" fill="#55332c"/><path d="m20 10h.8l.8-.8c-1 0-2.2 0-3.2 0l.8.8z" fill="#55332c"/><path d="m18.4 22-.8.8h.8z" fill="#55332c"/><path d="m16 18 .8-.8c-.4 0-1.2 0-1.6 0z" fill="#55332c"/><path d="m13.6 25.2c-1 0-2.2 0-3.2 0v.8h4.8v-.8c-.4 0-1.2 0-1.6 0z" fill="#55332c"/><path d="m13.6 22v.8h.8z" fill="#55332c"/><path d="m13.6 10h.8l.8-.8c-1 0-2.2 0-3.2 0l.8.8z" fill="#55332c"/><path d="m12 17.2-.8-.8-.8.8v.8h.8z" fill="#55332c"/><path d="m11.2 22.8c-.4 0-1.2 0-1.6 0l-.8-.8-.8.8.8.8h1.6z" fill="#55332c"/><g fill="#424f55"><path d="m24 8.4-.8.8.8.8-.8.8.8.8.8-.8c0-1 0-2.2 0-3.2z"/><path d="m22.4 11.6v-.8h-.8z"/><path d="m20.8 10h1.6l-.8-.8z"/><path d="m20 23.6h1.6l-.8-.8z"/><path d="m20 8.4c-.4 0-1.2 0-1.6 0v-.8c-.4.4-1.2 1.2-1.6 1.6h4.8l-.8-.8z"/><path d="m20 6v1.6l.8-.8z"/><path d="m18.4 22.8h-.8l-.8.8h3.2l-.8-.8z"/><path d="m16.8 7.6c0-.4 0-1.2 0-1.6-.4 0-1.2 0-1.6 0v1.6l.8.8z"/><path d="m16 14h-.8l.8.8.8-.8z"/><path d="m15.2 10.8h1.6l-.8-.8z"/><path d="m13.6 22.8c-.7 0-1.7 0-2.4 0v.8h4l-.8-.8z"/><path d="m12 6.8v-.8l-.8.8.8.8z"/><path d="m12 9.2h3.2c-.4-.4-1.2-1.2-1.6-1.6v.8c-.7 0-1.7 0-2.4 0l-.8.8z"/><path d="m10.4 9.2-.8.8h1.6z"/><path d="m9.6 11.6.8-.8h-.8z"/><path d="m8 8.4-.8-.8v3.2l.8.8.8-.8-.8-.8.8-.8z"/></g><path d="m24.8 6c-.7.7-1.7 1.7-2.4 2.4-.4-.4-1.2-1.2-1.6-1.6l-.8.8c0-.4 0-1.2 0-1.6-1 0-2.2 0-3.2 0v1.6l-.8.8-.8-.8c0-.4 0-1.2 0-1.6-1 0-2.2 0-3.2 0v1.6l-.8-.8c-.4.4-1.2 1.2-1.6 1.6-.7-.7-1.7-1.7-2.4-2.4h-.8v4l.8.8c0-1 0-2.2 0-3.2l1.6 1.6-.8.8.8.8-.8.8-.8-.8-.8.8 1.6 1.6h.8v.8l3.2 3.2h8l2.4-2.4c0-.4 0-1.2 0-1.6l.8.8v-.8h.8l1.6-1.6c0-.7 0-1.7 0-2.4h-.8v1.6l-.8.8-.8-.8.8-.8-.8-.8c.4-.4 1.2-1.2 1.6-1.6v1.6l.8-.8c0-.7 0-1.7 0-2.4zm-8 4.8c-.4 0-1.2 0-1.6 0l.8-.8zm-6.4-1.6.8-.8h2.4v-.8l1.6 1.6-.8.8c-1.6 0-3.2 0-4.8 0zm-.8 1.6h.8l-.8.8zm6.4 3.2h.8l-.8.8-.8-.8zm5.6-.8c-3.7 0-7.5 0-11.2 0v-.8l.8.8c0-.4 0-1.2 0-1.6l.8-.8v1.6l.8.8 1.6-1.6v1.6l.8-.8.8.8.8-.8.8.8c0-.4 0-1.2 0-1.6l1.6 1.6.8-.8c0-.4 0-1.2 0-1.6l.8.8v1.6l.8-.8zm.8-1.6-.8-.8h.8zm-.8-1.6c-1.3 0-2.7 0-4 0l-.8-.8c.4-.4 1.2-1.2 1.6-1.6v.8h2.4c.4.4 1.2 1.2 1.6 1.6z" fill="#458484"/><path d="m23.2 17.2h.8v.8h-.8z" fill="#458484"/><path d="m21.6 17.2h.8v.8h-.8z" fill="#458484"/><path d="m20.8 19.6-.8.8-.8-.8-.8.8-.8-.8-.8.8 1.6 1.6h3.2l.8-.8v-.8h-.8z" fill="#458484"/><path d="m19.2 23.6c-.7 0-1.7 0-2.4 0v.8h4v-.8c-.4 0-1.2 0-1.6 0z" fill="#458484"/><path d="m13.6 23.6c-.7 0-1.7 0-2.4 0v.8h4v-.8c-.4 0-1.2 0-1.6 0z" fill="#458484"/><path d="m12 22.8v-.8h.8v-.8h.8v-.8c-.4 0-1.2 0-1.6 0l-.8-.8.8-.8c-.4 0-1.2 0-1.6 0-.7.7-1.7 1.7-2.4 2.4.4.4 1.2 1.2 1.6 1.6z" fill="#458484"/><path d="m8.8 18h1.6v-.8c-1 0-2.2 0-3.2 0v.8z" fill="#458484"/><path d="m25.6 16.4c0-.4 0-1.2 0-1.6h-.8v-.8c-.4 0-1.2 0-1.6 0l1.6 1.6v1.6h1.6z" fill="#64544d"/><path d="m24 16.4-.8-.8v1.6h.8z" fill="#64544d"/><path d="m23.2 18c-2.4 0-4.8 0-7.2 0v.8h8.8v-.8c-.4 0-1.2 0-1.6 0z" fill="#64544d"/><path d="m23.2 21.2v.8l.8-.8c0-.4 0-1.2 0-1.6l-.8.8z" fill="#64544d"/><path d="m22.4 17.2c0-.7 0-1.7 0-2.4-.4.4-1.2 1.2-1.6 1.6l.8.8z" fill="#64544d"/><path d="m20.8 22c-.7 0-1.7 0-2.4 0l1.6 1.6.8-.8.8.8.8-.8c0-.4 0-1.2 0-1.6l-.8.8z" fill="#64544d"/><path d="m20 25.2h1.6l-.8-.8z" fill="#64544d"/><path d="m18.4 24.4c-.4 0-1.2 0-1.6 0v.8h3.2l-.8-.8z" fill="#64544d"/><path d="m13.6 24.4h-.8l-.8.8h3.2v-.8c-.4 0-1.2 0-1.6 0z" fill="#64544d"/><path d="m10.4 25.2h1.6l-.8-.8z" fill="#64544d"/><path d="m11.2 18.8v-.8c-1.6 0-3.2 0-4.8 0v2.4h.8v.8h.8l2.4-2.4z" fill="#64544d"/><path d="m7.2 17.2h3.2l.8-.8c-.7-.7-1.7-1.7-2.4-2.4-.4 0-1.2 0-1.6 0v.8h-.8v1.6l-.8.8z" fill="#64544d"/></svg>