<svg enable-background="new 0 0 32 32" viewBox="0 0 32 32" xmlns="http://www.w3.org/2000/svg"><path d="m24.8 24h.8v.8h-.8z" fill="#c3c1bf"/><path d="m15.2 24h.8v.8h-.8z" fill="#c3c1bf"/><path d="m14.4 24-.8-.8v1.6h1.6v-.8z" fill="#a77c2c"/><path d="m20 23.2c-1 0-2.2 0-3.2 0l-.8.8h4.8z" fill="#7f776f"/><path d="m18.4 28.8h.8l-.8-.8z" fill="#7f776f"/><path d="m16.8 26.4c-.4 0-1.2 0-1.6 0l-.8.8c-.4 0-1.2 0-1.6 0v.8h-.8v.8h1.6v-.8c.4.4 1.2 1.2 1.6 1.6h1.6c.4-.4 1.2-1.2 1.6-1.6-.4-.4-1.2-1.2-1.6-1.6z" fill="#7f776f"/><path d="m14.4 23.2h-.8l.8.8h1.6l-.8-.8z" fill="#7f776f"/><path d="m12 23.2-.8.8v.8h.8v-.8h1.6v-.8c-.4 0-1.2 0-1.6 0z" fill="#7f776f"/><g fill="#ece4ba"><path d="m26.4 24h-.8v.8h.8l.8-.8z"/><path d="m22.4 25.6v3.2l.8-.8c0-1 0-2.2 0-3.2h-.8z"/><path d="m22.4 21.6v2.4h.8c0-.7 0-1.7 0-2.4l-.8-.8z"/><path d="m21.6 19.2v-.8l-.8.8z"/><path d="m20.8 17.6-.8-.8v1.6l-.8.8h1.6c0-.4 0-1.2 0-1.6z"/><path d="m19.2 30.4.8.8.8-.8c-.4 0-1.2 0-1.6 0z"/><path d="m18.4 16h.8l-.8-.8c-.4 0-1.2 0-1.6 0l.8.8z"/><path d="m17.6 17.6v1.6h1.6c-.4-.4-1.2-1.2-1.6-1.6z"/><path d="m16 19.2h1.6l-.8-.8z"/><path d="m14.4 19.2h1.6l-.8-.8z"/><path d="m14.4 17.6c-.4.4-1.2 1.2-1.6 1.6h1.6c0-.4 0-1.2 0-1.6z"/><path d="m11.2 30.4.8.8.8-.8c-.4 0-1.2 0-1.6 0z"/><path d="m12 17.6v-.8l-.8.8v1.6h1.6l-.8-.8z"/><path d="m12 16h.8l-.8-.8c-.4 0-1.2 0-1.6 0l.8.8z"/><path d="m10.4 19.2h.8l-.8-.8z"/></g><path d="m24 20.8c-.4-.4-1.2-1.2-1.6-1.6v1.6l1.6 1.6v1.6h.8c0-.7 0-1.7 0-2.4z" fill="#55332c"/><path d="m23.2 24.8v1.6l.8-.8v1.6c-.4.4-1.2 1.2-1.6 1.6v1.6l2.4-2.4c0-1 0-2.2 0-3.2-.4 0-1.2 0-1.6 0z" fill="#55332c"/><path d="m22.4 25.6v-.8c-2.9 0-5.9 0-8.8 0v-.8c-.4 0-1.2 0-1.6 0v.8l-.8.8.8.8h1.6v.8h.8l.8-.8h1.6l.8-.8.8.8.8-.8.8.8.8-.8.8.8h.8z" fill="#55332c"/><path d="m20 31.2c-1 0-2.2 0-3.2 0v.8h4.8v-.8c-.4 0-1.2 0-1.6 0z" fill="#55332c"/><path d="m20 23.2.8.8h.8v-.8l-.8-.8z" fill="#55332c"/><path d="m20 16h.8l.8-.8c-1 0-2.2 0-3.2 0l.8.8z" fill="#55332c"/><path d="m18.4 28-.8.8h.8z" fill="#55332c"/><path d="m16 24 .8-.8c-.4 0-1.2 0-1.6 0z" fill="#55332c"/><path d="m13.6 31.2c-1 0-2.2 0-3.2 0v.8h4.8v-.8c-.4 0-1.2 0-1.6 0z" fill="#55332c"/><path d="m13.6 28v.8h.8z" fill="#55332c"/><path d="m13.6 16h.8l.8-.8c-1 0-2.2 0-3.2 0l.8.8z" fill="#55332c"/><path d="m12 23.2-.8-.8-.8.8v.8h.8z" fill="#55332c"/><path d="m11.2 28.8c-.4 0-1.2 0-1.6 0l-.8-.8-.8.8.8.8h1.6z" fill="#55332c"/><g fill="#424f55"><path d="m24 14.4-.8.8.8.8-.8.8.8.8.8-.8c0-1 0-2.2 0-3.2z"/><path d="m22.4 17.6v-.8h-.8z"/><path d="m20.8 16h1.6l-.8-.8z"/><path d="m20 29.6h1.6l-.8-.8z"/><path d="m20 14.4c-.4 0-1.2 0-1.6 0v-.8c-.4.4-1.2 1.2-1.6 1.6h4.8l-.8-.8z"/><path d="m20 12v1.6l.8-.8z"/><path d="m18.4 28.8h-.8l-.8.8h3.2l-.8-.8z"/><path d="m16.8 13.6c0-.4 0-1.2 0-1.6-.4 0-1.2 0-1.6 0v1.6l.8.8z"/><path d="m16 20h-.8l.8.8.8-.8z"/><path d="m15.2 16.8h1.6l-.8-.8z"/><path d="m13.6 28.8c-.7 0-1.7 0-2.4 0v.8h4l-.8-.8z"/><path d="m12 12.8v-.8l-.8.8.8.8z"/><path d="m12 15.2h3.2c-.4-.4-1.2-1.2-1.6-1.6v.8c-.7 0-1.7 0-2.4 0l-.8.8z"/><path d="m10.4 15.2-.8.8h1.6z"/><path d="m9.6 17.6.8-.8h-.8z"/><path d="m8 14.4-.8-.8v3.2l.8.8.8-.8-.8-.8.8-.8z"/></g><path d="m24.8 12c-.7.7-1.7 1.7-2.4 2.4-.4-.4-1.2-1.2-1.6-1.6l-.8.8c0-.4 0-1.2 0-1.6-1 0-2.2 0-3.2 0v1.6l-.8.8-.8-.8c0-.4 0-1.2 0-1.6-1 0-2.2 0-3.2 0v1.6l-.8-.8c-.4.4-1.2 1.2-1.6 1.6-.7-.7-1.7-1.7-2.4-2.4h-.8v4l.8.8c0-1 0-2.2 0-3.2l1.6 1.6-.8.8.8.8-.8.8-.8-.8-.8.8 1.6 1.6h.8v.8l3.2 3.2h8l2.4-2.4c0-.4 0-1.2 0-1.6l.8.8v-.8h.8l1.6-1.6c0-.7 0-1.7 0-2.4h-.8v1.6l-.8.8-.8-.8.8-.8-.8-.8c.4-.4 1.2-1.2 1.6-1.6v1.6l.8-.8c0-.7 0-1.7 0-2.4zm-8 4.8c-.4 0-1.2 0-1.6 0l.8-.8zm-6.4-1.6.8-.8h2.4v-.8l1.6 1.6-.8.8c-1.6 0-3.2 0-4.8 0zm-.8 1.6h.8l-.8.8zm6.4 3.2h.8l-.8.8-.8-.8zm5.6-.8c-3.7 0-7.5 0-11.2 0v-.8l.8.8c0-.4 0-1.2 0-1.6l.8-.8v1.6l.8.8c.4-.4 1.2-1.2 1.6-1.6v1.6l.8-.8.8.8.8-.8.8.8c0-.4 0-1.2 0-1.6l1.6 1.6.8-.8c0-.4 0-1.2 0-1.6l.8.8v1.6l.8-.8zm.8-1.6-.8-.8h.8zm-.8-1.6c-1.3 0-2.7 0-4 0l-.8-.8c.4-.4 1.2-1.2 1.6-1.6v.8h2.4c.4.4 1.2 1.2 1.6 1.6z" fill="#458484"/><path d="m23.2 23.2h.8v.8h-.8z" fill="#458484"/><path d="m21.6 23.2h.8v.8h-.8z" fill="#458484"/><path d="m20.8 25.6-.8.8-.8-.8-.8.8-.8-.8-.8.8 1.6 1.6h3.2l.8-.8v-.8h-.8z" fill="#458484"/><path d="m19.2 29.6c-.7 0-1.7 0-2.4 0v.8h4v-.8c-.4 0-1.2 0-1.6 0z" fill="#458484"/><path d="m13.6 29.6c-.7 0-1.7 0-2.4 0v.8h4v-.8c-.4 0-1.2 0-1.6 0z" fill="#458484"/><path d="m12 28.8v-.8h.8v-.8h.8v-.8c-.4 0-1.2 0-1.6 0l-.8-.8.8-.8c-.4 0-1.2 0-1.6 0-.7.7-1.7 1.7-2.4 2.4.4.4 1.2 1.2 1.6 1.6z" fill="#458484"/><path d="m8.8 24h1.6v-.8c-1 0-2.2 0-3.2 0v.8z" fill="#458484"/><path d="m25.6 22.4c0-.4 0-1.2 0-1.6h-.8v-.8c-.4 0-1.2 0-1.6 0l1.6 1.6v1.6h1.6z" fill="#64544d"/><path d="m24 22.4-.8-.8v1.6h.8z" fill="#64544d"/><path d="m23.2 24c-2.4 0-4.8 0-7.2 0v.8h8.8v-.8c-.4 0-1.2 0-1.6 0z" fill="#64544d"/><path d="m23.2 27.2v.8l.8-.8c0-.4 0-1.2 0-1.6l-.8.8z" fill="#64544d"/><path d="m22.4 23.2c0-.7 0-1.7 0-2.4-.4.4-1.2 1.2-1.6 1.6l.8.8z" fill="#64544d"/><path d="m20.8 28c-.7 0-1.7 0-2.4 0l1.6 1.6.8-.8.8.8.8-.8c0-.4 0-1.2 0-1.6l-.8.8z" fill="#64544d"/><path d="m20 31.2h1.6l-.8-.8z" fill="#64544d"/><path d="m18.4 30.4c-.4 0-1.2 0-1.6 0v.8h3.2l-.8-.8z" fill="#64544d"/><path d="m13.6 30.4h-.8l-.8.8h3.2v-.8c-.4 0-1.2 0-1.6 0z" fill="#64544d"/><path d="m10.4 31.2h1.6l-.8-.8z" fill="#64544d"/><path d="m11.2 24.8v-.8c-1.6 0-3.2 0-4.8 0v2.4h.8v.8h.8l2.4-2.4z" fill="#64544d"/><path d="m7.2 23.2h3.2l.8-.8c-.7-.7-1.7-1.7-2.4-2.4-.4 0-1.2 0-1.6 0v.8h-.8v1.6l-.8.8z" fill="#64544d"/></svg>