<svg enable-background="new 0 0 32 32" viewBox="0 0 32 32" xmlns="http://www.w3.org/2000/svg"><path d="m20.8 22.4v-.8c-.4-.4-1.2-1.2-1.6-1.6h-.8c0-.7 0-1.7 0-2.4l-.8-.8v4h.8l2.4 2.4.8-.8z" fill="#c3c1bf"/><path d="m13.6 18.4v1.6h.8c0-1 0-2.2 0-3.2l-.8.8z" fill="#c3c1bf"/><path d="m12.8 20h.8v.8h-.8z" fill="#c3c1bf"/><path d="m12 20.8h.8v.8h-.8z" fill="#c3c1bf"/><path d="m10.4 22.4.8.8.8-.8v-.8h-.8z" fill="#c3c1bf"/><path d="m19.2 11.2c-.7 0-1.7 0-2.4 0l.8.8h1.6l.8-.8z" fill="#34191c"/><path d="m12 11.2c-.4 0-1.2 0-1.6 0l.8.8h1.6l.8-.8c-.4 0-1.2 0-1.6 0z" fill="#34191c"/><g fill="#ece4ba"><path d="m26.4 20v.8l.8-.8z"/><path d="m21.6 15.2v-.8l-.8.8z"/><path d="m20.8 13.6-.8-.8v1.6l-.8.8h1.6c0-.4 0-1.2 0-1.6z"/><path d="m20 11.2-.8.8h1.6l.8-.8c-.4 0-1.2 0-1.6 0z"/><path d="m19.2 26.4.8.8.8-.8c-.4 0-1.2 0-1.6 0z"/><path d="m17.6 13.6v1.6h1.6c-.4-.4-1.2-1.2-1.6-1.6z"/><path d="m16 15.2h1.6l-.8-.8z"/><path d="m14.4 15.2h1.6l-.8-.8z"/><path d="m14.4 13.6c-.4.4-1.2 1.2-1.6 1.6h1.6c0-.4 0-1.2 0-1.6z"/><path d="m14.4 12 .8-.8c-.4 0-1.2 0-1.6 0l-.8.8z"/><path d="m11.2 26.4.8.8.8-.8c-.4 0-1.2 0-1.6 0z"/><path d="m12 13.6v-.8l-.8.8v1.6h1.6l-.8-.8z"/><path d="m10.4 15.2h.8l-.8-.8z"/></g><g fill="#6d645c"><path d="m24 16.8v.8h.8z"/><path d="m20 27.2h1.6l-.8-.8z"/><path d="m20 19.2 1.6 1.6c0-.4 0-1.2 0-1.6l-.8-.8z"/><path d="m18.4 26.4c-.4 0-1.2 0-1.6 0v.8h3.2l-.8-.8z"/><path d="m17.6 23.2h3.2c-.7-.7-1.7-1.7-2.4-2.4h-.8c0-.4 0-1.2 0-1.6h-.8l-.8.8-.8-.8h-.8v.8h-.8v.8h-.8v.8h-.8v.8l-.8.8h1.6l.8-.8v.8zm-.8-1.6v-.8l.8.8-.8.8z"/><path d="m13.6 26.4h-.8l-.8.8h3.2v-.8c-.4 0-1.2 0-1.6 0z"/><path d="m12 19.2-.8-.8-.8.8v1.6z"/><path d="m10.4 27.2h1.6l-.8-.8z"/></g><path d="m21.6 20.8c-1-1-2.2-2.2-3.2-3.2v2.4h.8l1.6 1.6v.8h.8l.8-.8z" fill="#a29f9c"/><path d="m12 19.2c-.7.7-1.7 1.7-2.4 2.4l.8.8.8-.8h.8v-.8h.8v-.8h.8c0-.7 0-1.7 0-2.4-.4.4-1.2 1.2-1.6 1.6z" fill="#a29f9c"/><path d="m25.6 10.4h-.8v.8h1.6v-.8z" fill="#c49b3c"/><path d="m9.6 25.6v-.8l-.8.8z" fill="#c49b3c"/><g fill="#2b2525"><path d="m24.8 25.6-.8.8h1.6c0-.4 0-1.2 0-1.6z"/><path d="m24 15.2c0-1.6 0-3.2 0-4.8l-.8-.8v-.8h-.8c-2.1-2.1-4.3-4.3-6.4-6.4v.8c-1.6 0-3.2 0-4.8 0v.8c-.4.4-1.2 1.2-1.6 1.6v.8h.8c-.4.4-1.2 1.2-1.6 1.6h-.8v.8l.8.8v4.8l-.8.8-.8-.8v1.6h1.6l3.2 3.2c.4-.4 1.2-1.2 1.6-1.6-.4 0-1.2 0-1.6 0-.7-.7-1.7-1.7-2.4-2.4 0-1 0-2.2 0-3.2.7-.7 1.7-1.7 2.4-2.4v.8h2.4l1.6 1.6c.4-.4 1.2-1.2 1.6-1.6h1.6l.8-.8v.8h.8c.4.4 1.2 1.2 1.6 1.6v3.2l-.8.8v.8h-.8l-.8.8c-.4 0-1.2 0-1.6 0l1.6 1.6 3.2-3.2h.8z"/><path d="m21.6 22.4c-.4.4-1.2 1.2-1.6 1.6h1.6l1.6-1.6c0-.4 0-1.2 0-1.6-.4.4-1.2 1.2-1.6 1.6z"/><path d="m21.6 20v.8l.8-.8z"/><path d="m20 27.2c-1 0-2.2 0-3.2 0v.8h4.8v-.8c-.4 0-1.2 0-1.6 0z"/><path d="m17.6 24.8-.8.8v.8h4c0-.4 0-1.2 0-1.6-.7 0-1.7 0-2.4 0v-.8z"/><path d="m17.6 19.2c0-.4 0-1.2 0-1.6-1 0-2.2 0-3.2 0v1.6h.8l.8.8.8-.8z"/><path d="m13.6 27.2c-1 0-2.2 0-3.2 0v.8h4.8v-.8c-.4 0-1.2 0-1.6 0z"/><path d="m13.6 24v.8c-.7 0-1.7 0-2.4 0v1.6h4v-.8c-.4-.4-1.2-1.2-1.6-1.6z"/><path d="m13.6 22.4-.8.8h.8z"/><path d="m11.2 24h.8c-1-1-2.2-2.2-3.2-3.2v1.6c.4.4 1.2 1.2 1.6 1.6z"/><path d="m10.4 20h-.8l.8.8z"/><path d="m6.4 24.8v1.6h1.6c-.4-.4-1.2-1.2-1.6-1.6z"/></g><g fill="#553f2a"><path d="m25.6 19.2v.8l.8-.8z"/><path d="m24 11.2v2.4l.8-.8c0-1 0-2.2 0-3.2l-.8.8z"/><path d="m22.4 13.6v-.8h-.8z"/><path d="m20.8 12h1.6l-.8-.8z"/><path d="m20 10.4v-.8l-.8.8c-.4 0-1.2 0-1.6 0l-.8.8h4.8l-.8-.8z"/><path d="m15.2 16 .8.8.8-.8c-.4 0-1.2 0-1.6 0z"/><path d="m15.2 12.8h1.6l-.8-.8z"/><path d="m14.4 10.4c-.7 0-1.7 0-2.4 0v-.8c-.4.4-1.2 1.2-1.6 1.6h4.8z"/><path d="m10.4 12h.8l-.8-.8-.8.8z"/><path d="m9.6 13.6.8-.8h-.8z"/><path d="m7.2 9.6v3.2l.8.8h.8c0-.7 0-1.7 0-2.4-.4-.4-1.2-1.2-1.6-1.6z"/><path d="m6.4 20v-.8h-.8z"/></g><g fill="#7b6540"><path d="m25.6 20v-.8h.8l-.8-.8c-.4.4-1.2 1.2-1.6 1.6-.4 0-1.2 0-1.6 0v.8h2.4l.8.8v-.8h.8c0-.4 0-1.2 0-1.6z"/><path d="m25.6 11.2h-.8v1.6l.8-.8z"/><path d="m24.8 9.6v.8h.8c0-.7 0-1.7 0-2.4h-.8c-.4.4-1.2 1.2-1.6 1.6l.8.8z"/><path d="m24 14.4v.8c.4-.4 1.2-1.2 1.6-1.6l-.8-.8-.8.8z"/><path d="m24 23.2-.8-.8c-.4.4-1.2 1.2-1.6 1.6h-.8v.8h.8v.8h.8v.8h1.6c.4-.4 1.2-1.2 1.6-1.6-.4-.4-1.2-1.2-1.6-1.6z"/><path d="m21.6 16.8v-.8l.8-.8c0-.4 0-1.2 0-1.6l-.8-.8h.8v-.8c-1.6 0-3.2 0-4.8 0l-.8-.8-.8.8.8.8c-.4 0-1.2 0-1.6 0l.8-.8-.8-.8-.8.8c-1.6 0-3.2 0-4.8 0v.8h.8l-.8.8v1.6c.7.7 1.7 1.7 2.4 2.4h1.6l.8-.8v.8h3.2v-.8l.8.8h1.6l.8-.8zm-11.2-1.6v-.8l.8.8c0-.4 0-1.2 0-1.6l.8-.8v1.6l.8.8c.4-.4 1.2-1.2 1.6-1.6v1.6l.8-.8.8.8.8-.8.8.8c0-.4 0-1.2 0-1.6.4.4 1.2 1.2 1.6 1.6l.8-.8c0-.4 0-1.2 0-1.6l.8.8v1.6l.8-.8v.8c-3.7 0-7.5 0-11.2 0zm5.6 1.6-.8-.8h1.6z"/><path d="m9.6 23.2-.8-.8-.8.8h-.8v.8l-.8.8c.4.4 1.2 1.2 1.6 1.6h1.6v-.8h-.8l.8-.8v.8h.8v-.8h.8v-.8h-.8z"/><path d="m8 15.2.8-.8v-.8h-.8l-.8-.8c0-.4 0-1.2 0-1.6h-.8v2.4z"/><path d="m7.2 9.6 1.6 1.6c0-.4 0-1.2 0-1.6-.4-.4-1.2-1.2-1.6-1.6h-.8v2.4l.8.8c0-.4 0-1.2 0-1.6z"/><path d="m7.2 20.8h2.4v-.8c-.4 0-1.2 0-1.6 0v-.8h-.8l-.8-.8-.8.8h.8v.8l-.8-.8v1.6z"/></g><g fill="#423c3c"><path d="m27.2 21.6-.8-.8h-.8v.8l-.8-.8c-.4 0-1.2 0-1.6 0v1.6l2.4 2.4c.4-.4 1.2-1.2 1.6-1.6l-.8-.8z"/><path d="m22.4 21.6.8-.8h-.8z"/><path d="m22.4 20h1.6l2.4-2.4v-.8h-.8l-.8-.8c-.4 0-1.2 0-1.6 0-.7.7-1.7 1.7-2.4 2.4l.8.8v.8zm2.4-2.4h-.8v-.8z"/><path d="m20 23.2c-2.9 0-5.9 0-8.8 0l.8.8h-.8v.8h2.4v-.8c.4.4 1.2 1.2 1.6 1.6h1.6c.4-.4 1.2-1.2 1.6-1.6v.8h2.4v-.8h-.8l.8-.8z"/><path d="m16.8 20.8v1.6l.8-.8z"/><path d="m10.4 17.6c-.4-.4-1.2-1.2-1.6-1.6-.4 0-1.2 0-1.6 0l-.8.8h-.8v.8c.4.4 1.2 1.2 1.6 1.6h.8v.8h2.4v-.8l.8-.8z"/><path d="m9.6 21.6v-.8h-.8z"/><path d="m7.2 20.8c-.4 0-1.2 0-1.6 0l-.8.8.8.8-.8.8c.4.4 1.2 1.2 1.6 1.6l.8-.8v-.8h.8l.8-.8c0-.4 0-1.2 0-1.6-.4 0-1.2 0-1.6 0z"/></g></svg>