<svg enable-background="new 0 0 32 32" viewBox="0 0 32 32" xmlns="http://www.w3.org/2000/svg"><path d="m24.8 20h.8v.8h-.8z" fill="#c3c1bf"/><path d="m15.2 20h.8v.8h-.8z" fill="#c3c1bf"/><path d="m14.4 20-.8-.8v1.6h1.6v-.8z" fill="#a77c2c"/><g fill="#7f776f"><path d="m20 19.2c-1 0-2.2 0-3.2 0l-.8.8h4.8z"/><path d="m18.4 24.8h.8l-.8-.8z"/><path d="m16.8 22.4c-.4 0-1.2 0-1.6 0l-.8.8c-.4 0-1.2 0-1.6 0v.8h-.8v.8h1.6v-.8c.4.4 1.2 1.2 1.6 1.6h1.6c.4-.4 1.2-1.2 1.6-1.6-.4-.4-1.2-1.2-1.6-1.6z"/><path d="m14.4 19.2h-.8l.8.8h1.6l-.8-.8z"/><path d="m12 19.2-.8.8v.8h.8v-.8h1.6v-.8c-.4 0-1.2 0-1.6 0z"/></g><g fill="#ece4ba"><path d="m26.4 20h-.8v.8h.8l.8-.8z"/><path d="m22.4 21.6v3.2l.8-.8c0-1 0-2.2 0-3.2h-.8z"/><path d="m22.4 17.6v2.4h.8c0-.7 0-1.7 0-2.4l-.8-.8z"/><path d="m21.6 15.2v-.8l-.8.8z"/><path d="m20.8 13.6-.8-.8v1.6l-.8.8h1.6c0-.4 0-1.2 0-1.6z"/><path d="m19.2 26.4.8.8.8-.8c-.4 0-1.2 0-1.6 0z"/><path d="m18.4 12h.8l-.8-.8c-.4 0-1.2 0-1.6 0l.8.8z"/><path d="m17.6 13.6v1.6h1.6c-.4-.4-1.2-1.2-1.6-1.6z"/><path d="m16 15.2h1.6l-.8-.8z"/><path d="m14.4 15.2h1.6l-.8-.8z"/><path d="m14.4 13.6c-.4.4-1.2 1.2-1.6 1.6h1.6c0-.4 0-1.2 0-1.6z"/><path d="m11.2 26.4.8.8.8-.8c-.4 0-1.2 0-1.6 0z"/><path d="m12 13.6v-.8l-.8.8v1.6h1.6l-.8-.8z"/><path d="m12 12h.8l-.8-.8c-.4 0-1.2 0-1.6 0l.8.8z"/><path d="m10.4 15.2h.8l-.8-.8z"/></g><g fill="#442821"><path d="m24 16.8c-.4-.4-1.2-1.2-1.6-1.6v1.6l1.6 1.6v1.6h.8c0-.7 0-1.7 0-2.4z"/><path d="m23.2 20.8v1.6l.8-.8v1.6c-.4.4-1.2 1.2-1.6 1.6v1.6l2.4-2.4c0-1 0-2.2 0-3.2-.4 0-1.2 0-1.6 0z"/><path d="m22.4 21.6v-.8c-2.9 0-5.9 0-8.8 0v-.8c-.4 0-1.2 0-1.6 0v.8l-.8.8.8.8h1.6v.8h.8l.8-.8h1.6l.8-.8.8.8.8-.8.8.8.8-.8.8.8h.8z"/><path d="m20 27.2c-1 0-2.2 0-3.2 0v.8h4.8v-.8c-.4 0-1.2 0-1.6 0z"/><path d="m20 19.2.8.8h.8v-.8l-.8-.8z"/><path d="m20 12h.8l.8-.8c-1 0-2.2 0-3.2 0l.8.8z"/><path d="m18.4 24-.8.8h.8z"/><path d="m16 20 .8-.8c-.4 0-1.2 0-1.6 0z"/><path d="m13.6 27.2c-1 0-2.2 0-3.2 0v.8h4.8v-.8c-.4 0-1.2 0-1.6 0z"/><path d="m13.6 24v.8h.8z"/><path d="m13.6 12h.8l.8-.8c-1 0-2.2 0-3.2 0l.8.8z"/><path d="m12 19.2-.8-.8-.8.8v.8h.8z"/><path d="m11.2 24.8c-.4 0-1.2 0-1.6 0l-.8-.8-.8.8.8.8h1.6z"/></g><g fill="#424f55"><path d="m24 10.4-.8.8.8.8-.8.8.8.8.8-.8c0-1 0-2.2 0-3.2z"/><path d="m22.4 13.6v-.8h-.8z"/><path d="m20.8 12h1.6l-.8-.8z"/><path d="m20 25.6h1.6l-.8-.8z"/><path d="m20 10.4c-.4 0-1.2 0-1.6 0v-.8c-.4.4-1.2 1.2-1.6 1.6h4.8l-.8-.8z"/><path d="m20 8v1.6l.8-.8z"/><path d="m18.4 24.8h-.8l-.8.8h3.2l-.8-.8z"/><path d="m16.8 9.6c0-.4 0-1.2 0-1.6-.4 0-1.2 0-1.6 0v1.6l.8.8z"/><path d="m16 16h-.8l.8.8.8-.8z"/><path d="m15.2 12.8h1.6l-.8-.8z"/><path d="m13.6 24.8c-.7 0-1.7 0-2.4 0v.8h4l-.8-.8z"/><path d="m12 8.8v-.8l-.8.8.8.8z"/><path d="m12 11.2h3.2c-.4-.4-1.2-1.2-1.6-1.6v.8c-.7 0-1.7 0-2.4 0l-.8.8z"/><path d="m10.4 11.2-.8.8h1.6z"/><path d="m9.6 13.6.8-.8h-.8z"/><path d="m8 10.4-.8-.8v3.2l.8.8.8-.8-.8-.8.8-.8z"/></g><g fill="#3e8b82"><path d="m24.8 8c-.7.7-1.7 1.7-2.4 2.4-.4-.4-1.2-1.2-1.6-1.6l-.8.8c0-.4 0-1.2 0-1.6-1 0-2.2 0-3.2 0v1.6l-.8.8-.8-.8c0-.4 0-1.2 0-1.6-1 0-2.2 0-3.2 0v1.6l-.8-.8c-.4.4-1.2 1.2-1.6 1.6-.7-.7-1.7-1.7-2.4-2.4h-.8v4l.8.8c0-1 0-2.2 0-3.2l1.6 1.6-.8.8.8.8-.8.8-.8-.8-.8.8 1.6 1.6h.8v.8l3.2 3.2h8l2.4-2.4c0-.4 0-1.2 0-1.6l.8.8v-.8h.8l1.6-1.6c0-.7 0-1.7 0-2.4h-.8v1.6l-.8.8-.8-.8.8-.8-.8-.8c.4-.4 1.2-1.2 1.6-1.6v1.6l.8-.8c0-.7 0-1.7 0-2.4zm-8 4.8c-.4 0-1.2 0-1.6 0l.8-.8zm-6.4-1.6.8-.8h2.4v-.8l1.6 1.6-.8.8c-1.6 0-3.2 0-4.8 0zm-.8 1.6h.8l-.8.8zm6.4 3.2h.8l-.8.8-.8-.8zm5.6-.8c-3.7 0-7.5 0-11.2 0v-.8l.8.8c0-.4 0-1.2 0-1.6l.8-.8v1.6l.8.8 1.6-1.6v1.6l.8-.8.8.8.8-.8.8.8c0-.4 0-1.2 0-1.6l1.6 1.6.8-.8c0-.4 0-1.2 0-1.6l.8.8v1.6l.8-.8zm.8-1.6-.8-.8h.8zm-.8-1.6c-1.3 0-2.7 0-4 0l-.8-.8c.4-.4 1.2-1.2 1.6-1.6v.8h2.4c.4.4 1.2 1.2 1.6 1.6z"/><path d="m23.2 19.2h.8v.8h-.8z"/><path d="m21.6 19.2h.8v.8h-.8z"/><path d="m20.8 21.6-.8.8-.8-.8-.8.8-.8-.8-.8.8 1.6 1.6h3.2l.8-.8v-.8h-.8z"/><path d="m19.2 25.6c-.7 0-1.7 0-2.4 0v.8h4v-.8c-.4 0-1.2 0-1.6 0z"/><path d="m13.6 25.6c-.7 0-1.7 0-2.4 0v.8h4v-.8c-.4 0-1.2 0-1.6 0z"/><path d="m12 24.8v-.8h.8v-.8h.8v-.8c-.4 0-1.2 0-1.6 0l-.8-.8.8-.8c-.4 0-1.2 0-1.6 0-.7.7-1.7 1.7-2.4 2.4.4.4 1.2 1.2 1.6 1.6z"/><path d="m8.8 20h1.6v-.8c-1 0-2.2 0-3.2 0v.8z"/></g><g fill="#634b42"><path d="m25.6 18.4c0-.4 0-1.2 0-1.6h-.8v-.8c-.4 0-1.2 0-1.6 0l1.6 1.6v1.6h1.6z"/><path d="m24 18.4-.8-.8v1.6h.8z"/><path d="m23.2 20c-2.4 0-4.8 0-7.2 0v.8h8.8v-.8c-.4 0-1.2 0-1.6 0z"/><path d="m23.2 23.2v.8l.8-.8c0-.4 0-1.2 0-1.6l-.8.8z"/><path d="m22.4 19.2c0-.7 0-1.7 0-2.4-.4.4-1.2 1.2-1.6 1.6l.8.8z"/><path d="m20.8 24c-.7 0-1.7 0-2.4 0l1.6 1.6.8-.8.8.8.8-.8c0-.4 0-1.2 0-1.6l-.8.8z"/><path d="m20 27.2h1.6l-.8-.8z"/><path d="m18.4 26.4c-.4 0-1.2 0-1.6 0v.8h3.2l-.8-.8z"/><path d="m13.6 26.4h-.8l-.8.8h3.2v-.8c-.4 0-1.2 0-1.6 0z"/><path d="m10.4 27.2h1.6l-.8-.8z"/><path d="m11.2 20.8v-.8c-1.6 0-3.2 0-4.8 0v2.4h.8v.8h.8l2.4-2.4z"/><path d="m7.2 19.2h3.2l.8-.8c-.7-.7-1.7-1.7-2.4-2.4-.4 0-1.2 0-1.6 0v.8h-.8v1.6l-.8.8z"/></g></svg>