<svg enable-background="new 0 0 32 32" viewBox="0 0 32 32" xmlns="http://www.w3.org/2000/svg"><g fill="#352e23"><path d="m18.4 5.4h.8v-.8z"/><path d="m16.8 5.4.8.8.8-.8c-.4 0-1.2 0-1.6 0z"/><path d="m16 8.6h.8l-.8-.8-.8.8z"/><path d="m15.2 6.2v.8l.8.8.8-.8v-.8c-.4 0-1.2 0-1.6 0z"/><path d="m14.4 5.4h-.8l.8.8.8-.8z"/><path d="m12.8 5.4h.8l-.8-.8z"/></g><path d="m20.8 4.6h-.8v.8h.8v.8h.8c0-.4 0-1.2 0-1.6z" fill="#ba7c70"/><path d="m10.4 4.6v1.6h.8v-.8h.8v-.8c-.4 0-1.2 0-1.6 0z" fill="#ba7c70"/><g fill="#d06692"><path d="m24 25.4v1.6l.8-.8z"/><path d="m23.2 27v-.8l-.8.8z"/><path d="m21.6 7v.8h.8z"/><path d="m20.8 27h1.6l-.8-.8z"/><path d="m19.2 27h1.6l-.8-.8z"/><path d="m11.2 27h1.6l-.8-.8z"/><path d="m9.6 27h1.6l-.8-.8z"/><path d="m10.4 7-.8.8h.8z"/><path d="m8.8 27h.8l-.8-.8z"/><path d="m8 27c0-.4 0-1.2 0-1.6l-.8.8z"/></g><g fill="#9b3e6a"><path d="m25.6 25.4v1.6l.8-.8z"/><path d="m22.4 23.8.8-.8h-.8z"/><path d="m21.6 7.8v-.8l-.8.8z"/><path d="m10.4 7.8h.8l-.8-.8z"/><path d="m9.6 23.8v-.8h-.8z"/><path d="m6.4 27c0-.4 0-1.2 0-1.6l-.8.8z"/></g><g fill="#957e7a"><path d="m27.2 19v1.6l.8-.8z"/><path d="m25.6 19.8v.8l.8-.8c0-.4 0-1.2 0-1.6l-.8.8z"/><path d="m22.4 17.4c0-.4 0-1.2 0-1.6l-.8.8z"/><path d="m20.8 18.2c-.7 0-1.7 0-2.4 0v.8h3.2v.8l.8-.8-.8-.8z"/><path d="m20.8 23.8-.8-.8h-.8v.8l-.8-.8c-.4 0-1.2 0-1.6 0v1.6h4.8c0-.4 0-1.2 0-1.6h-.8z"/><path d="m20.8 11.8v-.8l-.8.8v1.6l.8-.8z"/><path d="m20.8 15.8h-.8c0-.7 0-1.7 0-2.4l-.8.8v3.2z"/><path d="m17.6 11.8v.8l.8-.8z"/><path d="m16.8 18.2c-.4 0-1.2 0-1.6 0l3.2-3.2c0-.4 0-1.2 0-1.6-1.6 1.6-3.2 3.2-4.8 4.8-.4 0-1.2 0-1.6 0l.8.8h4.8l.8-.8c-.4 0-1.2 0-1.6 0z"/><path d="m13.6 23-.8.8-.8-.8c-.4 0-1.2 0-1.6 0v1.6h.8v-.8l.8.8h3.2c0-.4 0-1.2 0-1.6-.4 0-1.2 0-1.6 0z"/><path d="m13.6 14.2c0-.7 0-1.7 0-2.4l-.8.8v1.6l.8.8z"/><path d="m12 15.8v.8l.8.8c0-.4 0-1.2 0-1.6l-.8-.8z"/><path d="m12 12.6v-.8l-.8-.8v1.6l.8.8z"/><path d="m10.4 18.2-.8.8.8.8v-.8h1.6v-.8c-.4 0-1.2 0-1.6 0z"/><path d="m9.6 15.8v1.6l.8-.8z"/><path d="m4.8 19.8h.8l-.8-.8z"/></g><g fill="#6d443c"><path d="m27.2 24.6h-.8l-.8.8.8.8 1.6-1.6z"/><path d="m27.2 23.8v-.8h-.8z"/><path d="m27.2 15v-.8l-.8.8.8.8z"/><path d="m25.6 22.2.8-.8h-.8z"/><path d="m24.8 11v.8l.8-.8z"/><path d="m24.8 17.4v-.8l-.8.8z"/><path d="m23.2 15v.8h.8z"/><path d="m22.4 23h.8l-.8-.8z"/><path d="m22.4 15c0-.7 0-1.7 0-2.4l.8-.8v-.8h.8c0-.4 0-1.2 0-1.6l-.8.8h-.8v.8l-.8.8v4.8l.8-.8z"/><path d="m20.8 6.2v.8h.8z"/><path d="m20.8 22.2v-.8h-.8z"/><path d="m20 19c-.4 0-1.2 0-1.6 0v-.8l-.8.8c-1.6 0-3.2 0-4.8 0l-.8-.8v.8c-.4 0-1.2 0-1.6 0v.8h11.2v-.8c-.4 0-1.2 0-1.6 0z"/><path d="m20 9.4v-.8l-.8.8z"/><path d="m18.4 26.2v-.8h-.8z"/><path d="m18.4 22.2v-.8l-.8.8z"/><path d="m18.4 5.4.8-.8c-.4 0-1.2 0-1.6 0l-.8.8z"/><path d="m16 22.2c-.4 0-1.2 0-1.6 0l.8.8h1.6l.8-.8c-.4 0-1.2 0-1.6 0z"/><path d="m16 11 .8-.8c-.4 0-1.2 0-1.6 0z"/><path d="m15.2 26.2v-.8h-.8z"/><path d="m14.4 5.4h.8l-.8-.8c-.4 0-1.2 0-1.6 0l.8.8z"/><path d="m12.8 9.4v.8h.8z"/><path d="m12 21.4v-.8h-.8z"/><path d="m11.2 23h.8l-.8-.8z"/><path d="m11.2 6.2-.8.8h.8z"/><path d="m10.4 11.8c-.7-.7-1.7-1.7-2.4-2.4v1.6l2.4 2.4c0-.4 0-1.2 0-1.6z"/><path d="m9.6 14.2v1.6l.8.8c0-.4 0-1.2 0-1.6l.8-.8h-.8v-.8h-.8z"/><path d="m9.6 23v-.8l-.8.8z"/><path d="m8.8 15-.8.8h.8z"/><path d="m8 22.2v-.8h-.8z"/><path d="m7.2 17.4h.8l-.8-.8z"/><path d="m5.6 12.6h.8l-.8-.8z"/><path d="m4.8 21.4v.8l.8-.8z"/><path d="m4.8 24.6h-.8c.4.4 1.2 1.2 1.6 1.6l.8-.8-.8-.8z"/><path d="m3.2 18.2v.8l.8-.8z"/></g><g fill="#b4a2a0"><path d="m28.8 19c-.4-.4-1.2-1.2-1.6-1.6-.4 0-1.2 0-1.6 0l-.8.8v-.8h-.8v3.2h1.6c0-.4 0-1.2 0-1.6l.8-.8v1.6l-.8.8h1.6c0-.4 0-1.2 0-1.6l.8.8-.8.8.8.8 1.6-1.6z"/><path d="m24 8.6c-.7 0-1.7 0-2.4 0-.4.4-1.2 1.2-1.6 1.6v.8h-.8v.8h-.8l-.8.8v-.8c-.7 0-1.7 0-2.4 0l-.8.8v-.8h-.8v3.2l-.8-.8c0-.4 0-1.2 0-1.6l.8-.8c-.4-.4-1.2-1.2-1.6-1.6-.4 0-1.2 0-1.6 0l.8-.8-.8-.8c-.7 0-1.7 0-2.4 0v.8l2.4 2.4v2.4h.8l-.8.8v1.6l-.8.8v1.6l.8-.8h3.2l4.8-4.8v1.6c-1 1-2.2 2.2-3.2 3.2h6.4l.8.8c0-.4 0-1.2 0-1.6l-.8-.8c0-1.6 0-3.2 0-4.8l.8-.8v-.8h.8l.8-.8zm-12.8 4c0-.4 0-1.2 0-1.6l.8.8v1.6zm.8 4c0-.4 0-1.2 0-1.6l.8.8v1.6zm8.8-4.8v.8l-.8.8v2.4h.8c-.4.4-1.2 1.2-1.6 1.6 0-1 0-2.2 0-3.2l.8-.8c0-.4 0-1.2 0-1.6l.8-.8z"/><path d="m19.2 23.8v-.8h-.8z"/><path d="m11.2 24.6h.8l-.8-.8z"/><path d="m7.2 18.2-.8-.8c-.4 0-1.2 0-1.6 0v.8h-.8c-.4.4-1.2 1.2-1.6 1.6.4.4 1.2 1.2 1.6 1.6l.8-.8h3.2c0-1 0-2.2 0-3.2h-.8zm-2.4 1.6v-.8l.8.8z"/></g><g fill="#815146"><path d="m29.6 17.4c0-.7 0-1.7 0-2.4l-.8.8c0-.4 0-1.2 0-1.6l-.8.8c0-.4 0-1.2 0-1.6l-.8-.8c0-.4 0-1.2 0-1.6h-.8v-.8c-.4 0-1.2 0-1.6 0l.8-.8c-.4 0-1.2 0-1.6 0v1.6h-.8v.8l-.8.8v3.2l1.6 1.6.8-.8v1.6l.8-.8h1.6l1.6 1.6 1.6-1.6zm-2.4-2.4v.8l-.8-.8.8-.8zm-2.4-4h.8l-.8.8zm-1.6 4.8v-.8l.8.8z"/><path d="m26.4 20.6c-.7 0-1.7 0-2.4 0-.4.4-1.2 1.2-1.6 1.6l1.6 1.6v1.6l.8.8 1.6-1.6h1.6c0-1 0-2.2 0-3.2l-.8-.8zm0 .8-.8.8v-.8zm.8 2.4-.8-.8h.8z"/><path d="m21.6 24.6c-1.6 0-3.2 0-4.8 0v2.4h2.4l.8-.8.8.8.8-.8.8.8.8-.8c-.4-.4-1.2-1.2-1.6-1.6zm-4 .8h.8v.8z"/><path d="m17.6 22.2.8-.8v.8h-.8l-.8.8h3.2l.8.8v-.8h.8c0-1 0-2.2 0-3.2-3.7 0-7.5 0-11.2 0v3.2h.8v-.8c.4.4 1.2 1.2 1.6 1.6l.8-.8h1.6l-.8-.8zm3.2 0-.8-.8h.8zm-9.6-1.6h.8v.8z"/><path d="m13.6 24.6c-1 0-2.2 0-3.2 0-.4.4-1.2 1.2-1.6 1.6l.8.8.8-.8.8.8.8-.8.8.8h2.4v-.8l-.8-.8h.8v-.8c-.4 0-1.2 0-1.6 0z"/><path d="m11.2 6.2h-.8c0-.4 0-1.2 0-1.6h1.6v.8h-.8v2.4l-.8.8.8.8-.8.8h1.6l1.6 1.6h.8v.8l.8-.8h4v-.8h.8v-.8c.4-.4 1.2-1.2 1.6-1.6l-.8-.8c0-.7 0-1.7 0-2.4h-.8v-.8h1.6v1.6h-.8l.8.8.8-.8c0-.4 0-1.2 0-1.6l-.8-.8c-.4 0-1.2 0-1.6 0l-.8.8v.8h-.8l-.8.8-.8-.8.8-.8h1.6l-.8-.8c-1.6 0-3.2 0-4.8 0l-.8.8h1.6l.8.8-.8.8-.8-.8h-.8v-.8l-.8-.8c-.4 0-1.2 0-1.6 0l-.8.8v1.6l.8.8zm1.6 4v-.8l.8.8zm2.4 0h1.6l-.8.8zm4.8-.8h-.8l.8-.8zm-4.8-3.2h1.6v.8l-.8.8.8.8c-.4 0-1.2 0-1.6 0l.8-.8-.8-.8z"/><path d="m9.6 22.2c-.4-.4-1.2-1.2-1.6-1.6-1 0-2.2 0-3.2 0l-.8.8v3.2h1.6c.4.4 1.2 1.2 1.6 1.6l.8-.8c0-.4 0-1.2 0-1.6zm-4.8-.8h.8l-.8.8zm2.4 0h.8v.8z"/><path d="m4.8 18.2v-.8h1.6l.8.8c0-.4 0-1.2 0-1.6l.8.8 1.6-1.6c0-.7 0-1.7 0-2.4h.8c-.7-.7-1.7-1.7-2.4-2.4 0-.4 0-1.2 0-1.6-.4 0-1.2 0-1.6 0l.8.8c-.4 0-1.2 0-1.6 0v.8h-.8v1.6l-.8.8v1.6l-.8-.8v1.6l-.8-.8v2.4h-.8c.4.4 1.2 1.2 1.6 1.6v-.8zm4-2.4h-.8l.8-.8zm-3.2-4 .8.8h-.8z"/></g></svg>