<svg enable-background="new 0 0 32 32" viewBox="0 0 32 32" xmlns="http://www.w3.org/2000/svg"><path d="m24.8 21.2v.8h-.8z" fill="#c3c1bf"/><path d="m23.1 21.2.8-.8.8.8-.8.8z" fill="#5b3e2f"/><path d="m20.8 17.2c-.4-.4-1.2-1.2-1.6-1.6l-.8.8 3.2 3.2.8-.8c-.4-.4-1.2-1.2-1.6-1.6z" fill="#5b3e2f"/><path d="m19.2 15.6-.8.8v-.8z" fill="#c3c1bf"/><path d="m24.8 21.2v.8h-.8l.8.8.8-.8z" fill="#989186"/><path d="m17.6 15.6.8.8v-.8h.8l-.8-.8z" fill="#989186"/><path d="m17.6 14h-.8v.8h1.6v-.8z" fill="#db90be"/><path d="m16 6.8v-.8l-.8.8z" fill="#db90be"/><path d="m19.2 7.6-.8.8-.8-.8h-.8v.8l.8.8h1.6l.8-.8v-.8z" fill="#352e23"/><path d="m16.8 11.6h1.6l-.8-.8z" fill="#352e23"/><path d="m15.2 11.6h1.6l-.8-.8z" fill="#352e23"/><path d="m16 10h.8l-.8-.8-.8.8z" fill="#352e23"/><path d="m13.6 11.6h1.6l-.8-.8z" fill="#352e23"/><path d="m14.4 9.2.8-.8v-.8h-.8l-.8.8-.8-.8h-.8v.8l.8.8z" fill="#352e23"/><path d="m20.8 18.8v.8h.8z" fill="#af9d81"/><path d="m19.2 13.2h.8l-.8-.8z" fill="#af9d81"/><path d="m18.4 10v.8h.8l.8-.8c-.4 0-1.2 0-1.6 0z" fill="#af9d81"/><path d="m18.4 20.4v-.8l-.8.8z" fill="#af9d81"/><path d="m15.2 16.4v1.6h1.6c0-.4 0-1.2 0-1.6-.4 0-1.2 0-1.6 0z" fill="#af9d81"/><path d="m13.6 20.4h.8l-.8-.8z" fill="#af9d81"/><path d="m13.6 10c-.4 0-1.2 0-1.6 0l.8.8h.8z" fill="#af9d81"/><path d="m12.8 13.2v-.8l-.8.8z" fill="#af9d81"/><path d="m12.8 4.4-.8.8h.8z" fill="#af9d81"/><path d="m11.2 19.6v-.8l-.8.8z" fill="#af9d81"/><path d="m20.7 14 .8-.8.8.8-.8.8z" fill="#ba4b9b"/><path d="m17.6 7.6.8.8.8-.8c-.4 0-1.2 0-1.6 0z" fill="#ba4b9b"/><path d="m16.8 14.8v.8h.8l.8-.8c-.4 0-1.2 0-1.6 0z" fill="#ba4b9b"/><path d="m16 6v.8h-.8l.8.8.8-.8z" fill="#ba4b9b"/><path d="m12.8 7.6.8.8.8-.8c-.4 0-1.2 0-1.6 0z" fill="#ba4b9b"/><path d="m9.5 14 .8-.8.8.8-.8.8z" fill="#ba4b9b"/><path d="m24 15.6c-.4 0-1.2 0-1.6 0v2.4h.8l.8.8c0-.4 0-1.2 0-1.6l-.8-.8h.8z" fill="#89669e"/><path d="m19.2 24.4h-.8l-.8.8h3.2l-.8-.8z" fill="#89669e"/><path d="m18.4 19.6v-.8c-1.6 0-3.2 0-4.8 0v.8c.4.4 1.2 1.2 1.6 1.6h.8v-.8l.8.8z" fill="#89669e"/><path d="m12.8 24.4h-.8l-.8.8h3.2l-.8-.8z" fill="#89669e"/><path d="m12.8 13.2v.8l.8.8.8-.8v1.6c-.4.4-1.2 1.2-1.6 1.6l.8.8 1.6-1.6h1.6l1.6 1.6.8-.8c-.4-.4-1.2-1.2-1.6-1.6h-.8c0-.4 0-1.2 0-1.6h1.6v.8l.8.8c0-1 0-2.2 0-3.2l.8-.8c-.4 0-1.2 0-1.6 0-.7.7-1.7 1.7-2.4 2.4-.7-.7-1.7-1.7-2.4-2.4-.4 0-1.2 0-1.6 0l.8.8z" fill="#89669e"/><path d="m8 15.6v1.6l.8-.8v1.6h.8c0-.7 0-1.7 0-2.4-.4 0-1.2 0-1.6 0z" fill="#89669e"/><path d="m23.2 16.4.8.8v-.8z" fill="#68487f"/><path d="m19.2 25.2c-.4 0-1.2 0-1.6 0v.8h3.2v-.8c-.4 0-1.2 0-1.6 0z" fill="#68487f"/><path d="m18.4 18c-.4-.4-1.2-1.2-1.6-1.6v1.6z" fill="#68487f"/><path d="m16 13.2h-.8l.8.8.8-.8z" fill="#68487f"/><path d="m13.6 18h1.6c0-.4 0-1.2 0-1.6-.4.4-1.2 1.2-1.6 1.6z" fill="#68487f"/><path d="m14.4 15.6c0-.4 0-1.2 0-1.6l-.8.8-.8-.8v3.2z" fill="#68487f"/><path d="m12.8 25.2c-.4 0-1.2 0-1.6 0v.8h3.2v-.8c-.4 0-1.2 0-1.6 0z" fill="#68487f"/><path d="m8 18v.8l.8-.8c0-.4 0-1.2 0-1.6l-.8.8z" fill="#68487f"/><g fill="#d7cbb5"><path d="m23.2 14.8-.8-.8-.8.8.8.8h1.6v-.8z"/><path d="m22.4 18h-.8l.8.8-.8.8h-.8v-.8l-.8.8 1.6 1.6h1.6l.8-.8c0-.4 0-1.2 0-1.6l-.8-.8z"/><path d="m20.8 14 .8-.8-.8-.8v-.8h-.8l-.8.8z"/><path d="m18.4 20.4h-.8v4.8l.8-.8c0-.4 0-1.2 0-1.6l.8-.8-.8-.8z"/><path d="m18.4 11.6c-1.6 0-3.2 0-4.8 0l1.6 1.6h1.6z"/><path d="m15.2 18v.8h1.6v-.8c-.4 0-1.2 0-1.6 0z"/><path d="m15.2 11.6.8-.8.8.8.8-.8.8.8c0-.4 0-1.2 0-1.6h1.6l.8-.8c0-1 0-2.2 0-3.2-.7-.7-1.7-1.7-2.4-2.4-1.6 0-3.2 0-4.8 0l-.8.8v.8h-.8l-.8.8v3.2l.8.8h1.6v1.6l.8-.8zm0-4.8.8-.8.8.8-.8.8zm4.8 1.6-.8.8c-.4 0-1.2 0-1.6 0l-.8-.8v-.8h3.2zm-6.4.8h-.8l-.8-.8v-.8h3.2v.8l-.8.8zm2.4 0 .8.8c-.4 0-1.2 0-1.6 0z"/><path d="m13.6 21.2-.8.8.8.8v1.6l.8.8c0-1.6 0-3.2 0-4.8h-.8z"/><path d="m12 11.6h-.8v.8l-.8.8.8.8 1.6-1.6z"/><path d="m11.2 19.6h-.8l.8-.8-.8-.8c-.4 0-1.2 0-1.6 0l-.8.8v1.6l.8.8h1.6l1.6-1.6-.8-.8z"/><path d="m9.6 15.6.8-.8-.8-.8-.8.8h-.8v.8z"/></g></svg>