<svg enable-background="new 0 0 32 32" viewBox="0 0 32 32" xmlns="http://www.w3.org/2000/svg"><path d="m24.8 27.2v.8h-.8z" fill="#c3c1bf"/><path d="m23.4 26.6h1.1v1.1h-1.1z" fill="#5b3e2f" transform="matrix(.7071 -.7071 .7071 .7071 -12.2056 24.9347)"/><path d="m20.8 23.2c-.4-.4-1.2-1.2-1.6-1.6l-.8.8 3.2 3.2.8-.8c-.4-.4-1.2-1.2-1.6-1.6z" fill="#5b3e2f"/><path d="m19.2 21.6-.8.8v-.8z" fill="#c3c1bf"/><path d="m24.8 27.2v.8h-.8l.8.8.8-.8z" fill="#989186"/><path d="m17.6 21.6.8.8v-.8h.8l-.8-.8z" fill="#989186"/><path d="m17.6 20h-.8v.8h1.6v-.8z" fill="#db90be"/><path d="m16 12.8v-.8l-.8.8z" fill="#db90be"/><g fill="#352e23"><path d="m19.2 13.6-.8.8-.8-.8h-.8v.8l.8.8h1.6l.8-.8v-.8z"/><path d="m16.8 17.6h1.6l-.8-.8z"/><path d="m15.2 17.6h1.6l-.8-.8z"/><path d="m16 16h.8l-.8-.8-.8.8z"/><path d="m13.6 17.6h1.6l-.8-.8z"/><path d="m14.4 15.2.8-.8v-.8h-.8l-.8.8-.8-.8h-.8v.8l.8.8z"/></g><g fill="#af9d81"><path d="m20.8 24.8v.8h.8z"/><path d="m19.2 19.2h.8l-.8-.8z"/><path d="m18.4 16v.8h.8l.8-.8c-.4 0-1.2 0-1.6 0z"/><path d="m18.4 26.4v-.8l-.8.8z"/><path d="m15.2 22.4v1.6h1.6c0-.4 0-1.2 0-1.6-.4 0-1.2 0-1.6 0z"/><path d="m13.6 26.4h.8l-.8-.8z"/><path d="m13.6 16c-.4 0-1.2 0-1.6 0l.8.8h.8z"/><path d="m12.8 19.2v-.8l-.8.8z"/><path d="m12.8 10.4-.8.8h.8z"/><path d="m11.2 25.6v-.8l-.8.8z"/></g><path d="m21 19.4h1.1v1.1h-1.1z" fill="#ba4b9b" transform="matrix(.7071 -.7071 .7071 .7071 -7.8173 21.1275)"/><path d="m17.6 13.6.8.8.8-.8c-.4 0-1.2 0-1.6 0z" fill="#ba4b9b"/><path d="m16.8 20.8v.8h.8l.8-.8c-.4 0-1.2 0-1.6 0z" fill="#ba4b9b"/><path d="m16 12v.8h-.8l.8.8.8-.8z" fill="#ba4b9b"/><path d="m12.8 13.6.8.8.8-.8c-.4 0-1.2 0-1.6 0z" fill="#ba4b9b"/><path d="m9.8 19.4h1.1v1.1h-1.1z" fill="#ba4b9b" transform="matrix(.7071 -.7071 .7071 .7071 -11.0977 13.2079)"/><path d="m24 21.6c-.4 0-1.2 0-1.6 0v2.4h.8l.8.8c0-.4 0-1.2 0-1.6l-.8-.8h.8z" fill="#89669e"/><path d="m19.2 30.4h-.8l-.8.8h3.2l-.8-.8z" fill="#89669e"/><path d="m18.4 25.6v-.8c-1.6 0-3.2 0-4.8 0v.8c.4.4 1.2 1.2 1.6 1.6h.8v-.8l.8.8z" fill="#89669e"/><path d="m12.8 30.4h-.8l-.8.8h3.2l-.8-.8z" fill="#89669e"/><path d="m12.8 19.2v.8l.8.8.8-.8v1.6c-.4.4-1.2 1.2-1.6 1.6l.8.8c.4-.4 1.2-1.2 1.6-1.6h1.6l1.6 1.6.8-.8c-.4-.4-1.2-1.2-1.6-1.6h-.8c0-.4 0-1.2 0-1.6h1.6v.8l.8.8c0-1 0-2.2 0-3.2l.8-.8c-.4 0-1.2 0-1.6 0-.7.7-1.7 1.7-2.4 2.4-.7-.7-1.7-1.7-2.4-2.4-.4 0-1.2 0-1.6 0l.8.8z" fill="#89669e"/><path d="m8 21.6v1.6l.8-.8v1.6h.8c0-.7 0-1.7 0-2.4-.4 0-1.2 0-1.6 0z" fill="#89669e"/><g fill="#68487f"><path d="m23.2 22.4.8.8v-.8z"/><path d="m19.2 31.2c-.4 0-1.2 0-1.6 0v.8h3.2v-.8c-.4 0-1.2 0-1.6 0z"/><path d="m18.4 24c-.4-.4-1.2-1.2-1.6-1.6v1.6z"/><path d="m16 19.2h-.8l.8.8.8-.8z"/><path d="m13.6 24h1.6c0-.4 0-1.2 0-1.6-.4.4-1.2 1.2-1.6 1.6z"/><path d="m14.4 21.6c0-.4 0-1.2 0-1.6l-.8.8-.8-.8v3.2z"/><path d="m12.8 31.2c-.4 0-1.2 0-1.6 0v.8h3.2v-.8c-.4 0-1.2 0-1.6 0z"/><path d="m8 24v.8l.8-.8c0-.4 0-1.2 0-1.6l-.8.8z"/></g><g fill="#d7cbb5"><path d="m23.2 20.8-.8-.8-.8.8.8.8h1.6v-.8z"/><path d="m22.4 24h-.8l.8.8-.8.8h-.8v-.8l-.8.8 1.6 1.6h1.6l.8-.8c0-.4 0-1.2 0-1.6l-.8-.8z"/><path d="m20.8 20 .8-.8-.8-.8v-.8h-.8l-.8.8z"/><path d="m18.4 26.4h-.8v4.8l.8-.8c0-.4 0-1.2 0-1.6l.8-.8-.8-.8z"/><path d="m18.4 17.6c-1.6 0-3.2 0-4.8 0 .4.4 1.2 1.2 1.6 1.6h1.6z"/><path d="m15.2 24v.8h1.6v-.8c-.4 0-1.2 0-1.6 0z"/><path d="m15.2 17.6.8-.8.8.8.8-.8.8.8c0-.4 0-1.2 0-1.6h1.6l.8-.8c0-1 0-2.2 0-3.2-.7-.7-1.7-1.7-2.4-2.4-1.6 0-3.2 0-4.8 0l-.8.8v.8h-.8l-.8.8v3.2l.8.8h1.6v1.6l.8-.8zm0-4.8.8-.8.8.8-.8.8zm4.8 1.6-.8.8c-.4 0-1.2 0-1.6 0l-.8-.8v-.8h3.2zm-6.4.8h-.8l-.8-.8v-.8h3.2v.8l-.8.8zm2.4 0 .8.8c-.4 0-1.2 0-1.6 0z"/><path d="m13.6 27.2-.8.8.8.8v1.6l.8.8c0-1.6 0-3.2 0-4.8h-.8z"/><path d="m12 17.6h-.8v.8l-.8.8.8.8 1.6-1.6z"/><path d="m11.2 25.6h-.8l.8-.8-.8-.8c-.4 0-1.2 0-1.6 0l-.8.8v1.6l.8.8h1.6l1.6-1.6-.8-.8z"/><path d="m9.6 21.6.8-.8-.8-.8-.8.8h-.8v.8z"/></g></svg>