<svg viewBox="0 0 314.5 314" xmlns="http://www.w3.org/2000/svg"><path d="m0 0h140.87 173.63" fill="#5400e7"/><path d="m314.5 314h-188.38-126.12" fill="#5400e7"/><path d="m250.34 100.31-.05-.06h-25.78l-30.7-30.72-.17-.17v-.06h-72.78v.06l-.17.17-30.69 30.72h-25.79v.06l-.1.12v61.78l18.26 18.27-12.91 12.85.06.06 12.8 12.81 38.62-.25-.25 38.63.11.12 12.87-12.85v-.1.1l10.61 10.65.06-.06 12.66-12.63.14-.14v.14l.11-.09.09.09v-.14l.14.14 12.63 12.63.06.06 10.61-10.65v-.1.1l12.92 12.85.11-.12-.25-38.58 38.62.25 12.82-12.86.06-.06-12.86-12.85 18.26-18.27v-61.78zm-85.53 100.57-7.63-7.55-7.49 7.55-7.58-7.55 15.21-15 15.07 15z" fill="#231f20"/></svg>