<svg enable-background="new 0 0 32 32" height="32" viewBox="0 0 32 32" width="32" xmlns="http://www.w3.org/2000/svg"><path d="m24.7999992 23.2000008v.7999992h-.7999992z" fill="#c3c1bf"/><path d="m23.2000027 23.1999989.7999992-.7999992.7999992.7999992-.7999992.7999992z" fill="#5b3e2f"/><path d="m20.7999992 19.2000008c-.3999996-.3999997-1.2000007-1.2000008-1.6000003-1.6000004l-.7999992.7999992 3.2000008 3.2000008.7999992-.7999992c-.3999997-.3999997-1.2000008-1.2000008-1.6000005-1.6000004z" fill="#5b3e2f"/><path d="m19.2000008 17.6000004-.7999992.7999992v-.7999992z" fill="#c3c1bf"/><path d="m24.7999992 23.2000008v.7999992h-.7999992l.7999992.7999992.7999993-.7999992z" fill="#989186"/><path d="m17.6000004 17.6000004.7999992.7999992v-.7999992h.7999992l-.7999992-.7999992z" fill="#989186"/><path d="m17.6000004 16h-.7999992v.7999992h1.6000004v-.8000002z" fill="#db90be"/><path d="m16 8.8000002v-.8000002l-.8000002.8000002z" fill="#db90be"/><g fill="#352e23"><path d="m19.2000008 9.6000004-.7999992.8000002-.7999992-.8000002h-.7999992v.8000002l.7999992.8000002h1.6000004l.7999992-.8000002v-.8000002z"/><path d="m16.7999992 13.6000004h1.6000004l-.7999992-.8000002z"/><path d="m15.1999998 13.6000004h1.5999994l-.8000002-.8000002z"/><path d="m16 12h.7999992l-.8000002-.8000002-.8000001.8000002z"/><path d="m13.6000004 13.6000004h1.6000004l-.8000002-.8000002z"/><path d="m14.3999996 11.1999998.8000002-.8000002v-.8000002h-.8000002l-.8000002.8000002-.8000002-.8000002h-.8000002v.8000002l.8000002.8000002z"/></g><g fill="#af9d81"><path d="m20.7999992 20.7999992v.7999992h.7999992z"/><path d="m19.2000008 15.1999998h.7999992l-.7999992-.8000002z"/><path d="m18.3999996 12v.8000002h.7999992l.7999993-.8000002c-.3999996 0-1.2000008 0-1.5999985 0z"/><path d="m18.3999996 22.3999996v-.7999992l-.7999992.7999992z"/><path d="m15.1999998 18.3999996v1.6000004h1.5999994c0-.3999996 0-1.2000008 0-1.6000004-.3999996 0-1.1999998 0-1.5999994 0z"/><path d="m13.6000004 22.3999996h.8000002l-.8000002-.7999992z"/><path d="m13.6000004 12c-.3999996 0-1.1999998 0-1.6000004 0l.8000002.8000002h.8000002z"/><path d="m12.8000002 15.1999998v-.8000002l-.8000002.8000002z"/><path d="m12.8000002 6.4000001-.8000002.8000002h.8000002z"/><path d="m11.1999998 21.6000004v-.7999992l-.8000002.7999992z"/></g><path d="m20.7999992 16 .7999992-.7999992.7999993.7999992-.7999992.7999992z" fill="#ba4b9b"/><path d="m17.6000004 9.6000004.7999992.8000002.7999992-.8000002c-.3999996 0-1.2000007 0-1.5999984 0z" fill="#ba4b9b"/><path d="m16.7999992 16.7999992v.7999992h.7999992l.7999992-.7999992c-.3999995 0-1.2000007 0-1.5999984 0z" fill="#ba4b9b"/><path d="m16 8v.8000002h-.8000002l.8000002.8000002.7999992-.8000002z" fill="#ba4b9b"/><path d="m12.8000002 9.6000004.8000002.8000002.8000002-.8000002c-.3999996 0-1.1999998 0-1.6000004 0z" fill="#ba4b9b"/><path d="m9.6000004 16 .8000002-.8000011.8000002.8000011-.8000002.7999992z" fill="#ba4b9b"/><path d="m24 17.6000004c-.3999996 0-1.2000008 0-1.6000004 0v2.3999996h.7999992l.7999992.7999992c0-.3999996 0-1.2000008 0-1.6000004l-.7999992-.7999992h.7999992z" fill="#777099"/><path d="m19.2000008 26.3999996h-.7999992l-.7999992.7999992h3.2000008l-.7999992-.7999992z" fill="#777099"/><path d="m18.3999996 21.6000004v-.7999992c-1.6000004 0-3.1999998 0-4.8000002 0v.7999992c.3999996.3999996 1.1999998 1.2000007 1.6000004 1.6000004h.8000002v-.7999992l.7999992.7999992z" fill="#777099"/><path d="m12.8000002 26.3999996h-.8000002l-.8000002.7999992h3.1999998l-.8000002-.7999992z" fill="#777099"/><path d="m12.8000002 15.1999998v.8000002l.8000002.7999992.8000002-.8000002v1.5999994c-.3999996.3999996-1.1999998 1.2000008-1.6000004 1.6000004l.8000002.7999992 1.6000004-1.6000004h1.6000004l1.6000004 1.6000004.7999992-.7999992c-.3999997-.3999996-1.2000008-1.2000007-1.6000004-1.6000003h-.7999992c0-.3999996 0-1.2000008 0-1.6000004h1.6000004v.7999992l.7999992.7999992c0-1 0-2.1999998 0-3.1999998l.7999992-.8000001c-.3999996 0-1.2000008 0-1.6000004 0-.7000007.6999998-1.7000007 1.6999998-2.3999996 2.3999996-.6999998-.6999998-1.6999998-1.6999998-2.3999996-2.3999996-.3999996 0-1.1999998 0-1.6000004 0l.8000002.8000002z" fill="#777099"/><path d="m8 17.6000004v1.6000004l.8000002-.7999992v1.6000004h.8000002c0-.7000008 0-1.7000008 0-2.3999996-.3999996-.0000001-1.1999998-.0000001-1.6000004-.000002z" fill="#777099"/><g fill="#68487f"><path d="m23.2000008 18.3999996.7999992.7999993v-.7999992h-.7999992z"/><path d="m19.2000008 27.2000008c-.3999996 0-1.2000008 0-1.6000004 0v.7999992h3.2000008v-.7999992c-.3999997 0-1.2000008 0-1.6000004 0z"/><path d="m18.3999996 20c-.3999996-.3999996-1.2000007-1.2000008-1.6000004-1.6000004v1.6000004z"/><path d="m16 15.1999998h-.8000002l.8000002.8000002.7999992-.8000002z"/><path d="m13.6000004 20h1.6000004c0-.3999996 0-1.2000008 0-1.6000004-.3999997.3999996-1.1999998 1.2000008-1.6000004 1.6000004z"/><path d="m14.3999996 17.6000004c0-.3999996 0-1.2000008 0-1.6000004l-.8000002.7999992-.8000002-.8000002v3.1999998z"/><path d="m12.8000002 27.2000008c-.3999996 0-1.1999998 0-1.6000004 0v.7999992h3.1999998v-.7999992c-.3999996 0-1.1999998 0-1.5999994 0z"/><path d="m8 20v.7999992l.8000002-.7999992c0-.3999996 0-1.2000008 0-1.6000004l-.8000002.7999993z"/></g><g fill="#d7cbb5"><path d="m23.2000008 16.7999992-.7999992-.8000002-.7999992.8000002.7999992.7999992h1.6000004v-.7999992z"/><path d="m22.3999996 20h-.7999992l.7999992.7999992-.7999992.7999992h-.7999992v-.7999992l-.7999992.7999992 1.6000004 1.6000004h1.6000004l.7999992-.7999992c0-.3999996 0-1.2000008 0-1.6000004l-.7999993-.7999992z"/><path d="m20.7999992 16 .7999992-.8000002-.7999992-.8000002v-.8000002h-.7999992l-.7999992.8000002z"/><path d="m18.3999996 22.3999996h-.7999992v4.8000011l.7999992-.7999992c0-.3999996 0-1.2000008 0-1.6000004l.7999992-.7999992-.7999992-.7999992z"/><path d="m18.3999996 13.6000004c-1.6000004 0-3.1999998 0-4.8000002 0l1.6000004 1.6000004h1.5999994z"/><path d="m15.1999998 20v.7999992h1.5999994v-.7999992c-.3999996 0-1.1999998 0-1.5999994 0z"/><path d="m15.1999998 13.6000004.8000002-.8000002.7999992.8000002.7999992-.8000002.7999992.8000002c0-.3999996 0-1.1999998 0-1.6000004h1.6000004l.7999992-.8000002c0-1 0-2.1999998 0-3.1999998-.7000008-.6999998-1.7000008-1.6999998-2.3999996-2.4000001-1.6000004 0-3.1999998 0-4.8000002 0l-.8000002.8000002v.8000002h-.8000002l-.8000001.7999997v3.1999998l.8000002.8000002h1.6000004v1.6000004l.8000002-.8000002zm0-4.8000002.8000002-.8000002.7999992.8000002-.8000002.8000002zm4.8000002 1.6000004-.7999992.8000002c-.3999996 0-1.2000008 0-1.6000004 0l-.7999992-.8000002v-.8000002h3.2000008zm-6.3999996.8000002h-.8000002l-.8000002-.8000002v-.8000002h3.1999998v.8000002l-.8000002.8000002zm2.3999996 0 .7999992.8000002c-.3999996 0-1.1999998 0-1.6000004 0z"/><path d="m13.6000004 23.2000008-.8000002.7999992.8000002.7999992v1.6000004l.8000002.7999992c0-1.6000004 0-3.2000008 0-4.8000011h-.8000002z"/><path d="m12 13.6000004h-.8000002v.8000002l-.8000002.8000002.8000002.7999992 1.6000004-1.6000004z"/><path d="m11.1999998 21.6000004h-.8000002l.8000002-.7999992-.8000002-.7999992c-.3999996 0-1.1999998 0-1.6000004 0l-.8000002.7999991v1.6000004l.8000002.7999992h1.6000004l1.6000004-1.6000003-.8000002-.7999992z"/><path d="m9.6000004 17.6000004.8000002-.7999992-.8000002-.7999992-.8000002.7999992h-.8000002v.7999992z"/></g></svg>