<svg enable-background="new 0 0 32 32" viewBox="0 0 32 32" xmlns="http://www.w3.org/2000/svg"><path d="m24.8 23.2v.8h-.8z" fill="#c3c1bf"/><path d="m23.1 23.2.8-.8.8.8-.8.8z" fill="#5b3e2f"/><path d="m20.8 19.2c-.4-.4-1.2-1.2-1.6-1.6l-.8.8 3.2 3.2.8-.8c-.4-.4-1.2-1.2-1.6-1.6z" fill="#5b3e2f"/><path d="m19.2 17.6-.8.8v-.8z" fill="#c3c1bf"/><path d="m24.8 23.2v.8h-.8l.8.8.8-.8z" fill="#989186"/><path d="m17.6 17.6.8.8v-.8h.8l-.8-.8z" fill="#989186"/><path d="m17.6 16h-.8v.8h1.6v-.8z" fill="#db90be"/><path d="m16 8.8v-.8l-.8.8z" fill="#db90be"/><g fill="#352e23"><path d="m19.2 9.6-.8.8-.8-.8h-.8v.8l.8.8h1.6l.8-.8v-.8z"/><path d="m16.8 13.6h1.6l-.8-.8z"/><path d="m15.2 13.6h1.6l-.8-.8z"/><path d="m16 12h.8l-.8-.8-.8.8z"/><path d="m13.6 13.6h1.6l-.8-.8z"/><path d="m14.4 11.2.8-.8v-.8h-.8l-.8.8-.8-.8h-.8v.8l.8.8z"/></g><g fill="#af9d81"><path d="m20.8 20.8v.8h.8z"/><path d="m19.2 15.2h.8l-.8-.8z"/><path d="m18.4 12v.8h.8l.8-.8c-.4 0-1.2 0-1.6 0z"/><path d="m18.4 22.4v-.8l-.8.8z"/><path d="m15.2 18.4v1.6h1.6c0-.4 0-1.2 0-1.6-.4 0-1.2 0-1.6 0z"/><path d="m13.6 22.4h.8l-.8-.8z"/><path d="m13.6 12c-.4 0-1.2 0-1.6 0l.8.8h.8z"/><path d="m12.8 15.2v-.8l-.8.8z"/><path d="m12.8 6.4-.8.8h.8z"/><path d="m11.2 21.6v-.8l-.8.8z"/></g><g fill="#ba4b9b"><path d="m20.7 16 .8-.8.8.8-.8.8z"/><path d="m17.6 9.6.8.8.8-.8c-.4 0-1.2 0-1.6 0z"/><path d="m16.8 16.8v.8h.8l.8-.8c-.4 0-1.2 0-1.6 0z"/><path d="m16 8v.8h-.8l.8.8.8-.8z"/><path d="m12.8 9.6.8.8.8-.8c-.4 0-1.2 0-1.6 0z"/><path d="m9.5 16 .8-.8.8.8-.8.8z"/></g><g fill="#777099"><path d="m24 17.6c-.4 0-1.2 0-1.6 0v2.4h.8l.8.8c0-.4 0-1.2 0-1.6l-.8-.8h.8z"/><path d="m19.2 26.4h-.8l-.8.8h3.2l-.8-.8z"/><path d="m18.4 21.6v-.8c-1.6 0-3.2 0-4.8 0v.8c.4.4 1.2 1.2 1.6 1.6h.8v-.8l.8.8z"/><path d="m12.8 26.4h-.8l-.8.8h3.2l-.8-.8z"/><path d="m12.8 15.2v.8l.8.8.8-.8v1.6c-.4.4-1.2 1.2-1.6 1.6l.8.8 1.6-1.6h1.6l1.6 1.6.8-.8c-.4-.4-1.2-1.2-1.6-1.6h-.8c0-.4 0-1.2 0-1.6h1.6v.8l.8.8c0-1 0-2.2 0-3.2l.8-.8c-.4 0-1.2 0-1.6 0-.7.7-1.7 1.7-2.4 2.4-.7-.7-1.7-1.7-2.4-2.4-.4 0-1.2 0-1.6 0l.8.8z"/><path d="m8 17.6v1.6l.8-.8v1.6h.8c0-.7 0-1.7 0-2.4-.4 0-1.2 0-1.6 0z"/></g><g fill="#68487f"><path d="m23.2 18.4.8.8v-.8z"/><path d="m19.2 27.2c-.4 0-1.2 0-1.6 0v.8h3.2v-.8c-.4 0-1.2 0-1.6 0z"/><path d="m18.4 20c-.4-.4-1.2-1.2-1.6-1.6v1.6z"/><path d="m16 15.2h-.8l.8.8.8-.8z"/><path d="m13.6 20h1.6c0-.4 0-1.2 0-1.6-.4.4-1.2 1.2-1.6 1.6z"/><path d="m14.4 17.6c0-.4 0-1.2 0-1.6l-.8.8-.8-.8v3.2z"/><path d="m12.8 27.2c-.4 0-1.2 0-1.6 0v.8h3.2v-.8c-.4 0-1.2 0-1.6 0z"/><path d="m8 20v.8l.8-.8c0-.4 0-1.2 0-1.6l-.8.8z"/></g><g fill="#d7cbb5"><path d="m23.2 16.8-.8-.8-.8.8.8.8h1.6v-.8z"/><path d="m22.4 20h-.8l.8.8-.8.8h-.8v-.8l-.8.8 1.6 1.6h1.6l.8-.8c0-.4 0-1.2 0-1.6l-.8-.8z"/><path d="m20.8 16 .8-.8-.8-.8v-.8h-.8l-.8.8z"/><path d="m18.4 22.4h-.8v4.8l.8-.8c0-.4 0-1.2 0-1.6l.8-.8-.8-.8z"/><path d="m18.4 13.6c-1.6 0-3.2 0-4.8 0l1.6 1.6h1.6z"/><path d="m15.2 20v.8h1.6v-.8c-.4 0-1.2 0-1.6 0z"/><path d="m15.2 13.6.8-.8.8.8.8-.8.8.8c0-.4 0-1.2 0-1.6h1.6l.8-.8c0-1 0-2.2 0-3.2-.7-.7-1.7-1.7-2.4-2.4-1.6 0-3.2 0-4.8 0l-.8.8v.8h-.8l-.8.8v3.2l.8.8h1.6v1.6l.8-.8zm0-4.8.8-.8.8.8-.8.8zm4.8 1.6-.8.8c-.4 0-1.2 0-1.6 0l-.8-.8v-.8h3.2zm-6.4.8h-.8l-.8-.8v-.8h3.2v.8l-.8.8zm2.4 0 .8.8c-.4 0-1.2 0-1.6 0z"/><path d="m13.6 23.2-.8.8.8.8v1.6l.8.8c0-1.6 0-3.2 0-4.8h-.8z"/><path d="m12 13.6h-.8v.8l-.8.8.8.8 1.6-1.6z"/><path d="m11.2 21.6h-.8l.8-.8-.8-.8c-.4 0-1.2 0-1.6 0l-.8.8v1.6l.8.8h1.6l1.6-1.6-.8-.8z"/><path d="m9.6 17.6.8-.8-.8-.8-.8.8h-.8v.8z"/></g></svg>