<svg enable-background="new 0 0 32 32" viewBox="0 0 32 32" xmlns="http://www.w3.org/2000/svg"><path d="m15.2 14.8c-1.3 1.3-2.7 2.7-4 4l.8.8 4-4c0-.4 0-1.2 0-1.6z" fill="#aeaca7"/><path d="m20 25.2c-.7 0-1.7 0-2.4 0v.8h3.2v-.8z" fill="#675e51"/><path d="m20 15.6v-.8l-.8.8.8.8z" fill="#675e51"/><path d="m18.4 18c-.4-.4-1.2-1.2-1.6-1.6v1.6z" fill="#675e51"/><path d="m16 13.2h-.8l.8.8.8-.8z" fill="#675e51"/><path d="m13.6 18h1.6c0-.4 0-1.2 0-1.6-.4.4-1.2 1.2-1.6 1.6z" fill="#675e51"/><path d="m12.8 25.2c-.4 0-1.2 0-1.6 0v.8h3.2v-.8c-.4 0-1.2 0-1.6 0z" fill="#675e51"/><path d="m15.2 14h-.8c-.7.7-1.7 1.7-2.4 2.4v.8h-.8l-.8.8.8.8c1.6-1.6 3.2-3.2 4.8-4.8z" fill="#c3c1bf"/><g fill="#af9d81"><path d="m21.6 13.2-.8-.8-.8.8z"/><path d="m20.8 19.6h.8l-.8-.8z"/><path d="m19.2 10h-.8v.8h.8l.8-.8z"/><path d="m17.6 3.6v.8l.8-.8z"/><path d="m18.4 20.4v-.8l-.8.8z"/><path d="m16.8 6v.8l.8-.8z"/><path d="m15.2 16.4v1.6h1.6c0-.4 0-1.2 0-1.6-.4 0-1.2 0-1.6 0z"/><path d="m15.2 6h-.8l.8.8z"/><path d="m13.6 20.4h.8l-.8-.8z"/><path d="m13.6 10c-.4 0-1.2 0-1.6 0l.8.8h.8z"/><path d="m10.4 13.2h1.6l-.8-.8z"/></g><path d="m21.6 14.8.8-.8.8.8-.8.8z" fill="#9f974a"/><path d="m17.6 7.6.8.8.8-.8c-.4 0-1.2 0-1.6 0z" fill="#9f974a"/><path d="m12.8 7.6.8.8.8-.8c-.4 0-1.2 0-1.6 0z" fill="#9f974a"/><path d="m9.6 14 .8-.8.8.8-.8.8z" fill="#9f974a"/><path d="m23.2 15.6h-.8v2.4h.8l.8.8c0-1 0-2.2 0-3.2z" fill="#817a6f"/><path d="m20 11.6c-.4 0-1.2 0-1.6 0-.7.7-1.7 1.7-2.4 2.4v1.6l-.8.8h1.6l1.6 1.6 1.6-1.6-.8-.8.8-.8c0-.4 0-1.2 0-1.6.4-.4 1.2-1.2 1.6-1.6-.4 0-1.2 0-1.6 0z" fill="#817a6f"/><path d="m19.2 24.4h-.8l-.8.8h3.2l-.8-.8z" fill="#817a6f"/><path d="m18.4 19.6v-.8c-1.6 0-3.2 0-4.8 0v.8c.4.4 1.2 1.2 1.6 1.6h1.6z" fill="#817a6f"/><path d="m14.4 12.4-.8-.8c-1 0-2.2 0-3.2 0l1.6 1.6v1.6l.8.8 1.6-1.6h1.6c-.4-.4-1.2-1.2-1.6-1.6z" fill="#817a6f"/><path d="m12.8 24.4h-.8l-.8.8h3.2l-.8-.8z" fill="#817a6f"/><path d="m8 15.6v3.2l.8-.8h.8c0-.7 0-1.7 0-2.4-.4 0-1.2 0-1.6 0z" fill="#817a6f"/><path d="m23.2 14.8-.8.8h1.6v-.8z" fill="#d7cbb5"/><path d="m22.4 18h-.8l-.8.8.8.8h-.8v-.8l-.8.8 1.6 1.6h1.6l.8-.8c0-.4 0-1.2 0-1.6l-.8-.8z" fill="#d7cbb5"/><path d="m20 13.2 1.6 1.6.8-.8-.8-.8c-.4 0-1.2 0-1.6 0z" fill="#d7cbb5"/><path d="m20.8 9.2c0-1 0-2.2 0-3.2-.7-.7-1.7-1.7-2.4-2.4l-.8.8v-.8c-1.3 0-2.7 0-4 0-.7.7-1.7 1.7-2.4 2.4v3.2l.8.8h1.6v1.6l.8-.8.8.8.8-.8.8.8.8-.8.8.8c0-.4 0-1.2 0-1.6h1.6zm-6.4-3.2h.8v.8zm2.4 0h.8l-.8.8zm-3.2 3.2h-.8l-.8-.8v-.8h3.2v.8l-.8.8zm2.4.8h-.8l.8-.8.8.8zm2.4-.8h-.8l-.8-.8v-.8h3.2v.8l-.8.8z" fill="#d7cbb5"/><path d="m18.4 20.4h-.8v4.8l.8-.8c0-.4 0-1.2 0-1.6l.8-.8-.8-.8z" fill="#d7cbb5"/><path d="m16.8 11.6c-1 0-2.2 0-3.2 0l1.6 1.6h1.6c.4-.4 1.2-1.2 1.6-1.6-.4 0-1.2 0-1.6 0z" fill="#d7cbb5"/><path d="m15.2 18v.8h1.6v-.8c-.4 0-1.2 0-1.6 0z" fill="#d7cbb5"/><path d="m13.6 21.2-.8.8.8.8v1.6l.8.8c0-1.6 0-3.2 0-4.8h-.8z" fill="#d7cbb5"/><path d="m10.4 13.2.8.8.8-.8c-.4 0-1.2 0-1.6 0z" fill="#d7cbb5"/><path d="m9.6 18.8v-.8h-.8l-.8.8v1.6l.8.8h1.6l.8-.8c-.4-.4-1.2-1.2-1.6-1.6z" fill="#d7cbb5"/><path d="m9.6 15.6.8-.8-.8-.8-.8.8h-.8v.8z" fill="#d7cbb5"/><path d="m19.2 7.6-.8.8-.8-.8h-.8v.8l.8.8h1.6l.8-.8v-.8z" fill="#352e23"/><path d="m16.8 11.6h1.6l-.8-.8z" fill="#352e23"/><path d="m15.2 11.6h1.6l-.8-.8z" fill="#352e23"/><path d="m16 10h.8l-.8-.8-.8.8z" fill="#352e23"/><path d="m13.6 11.6h1.6l-.8-.8z" fill="#352e23"/><path d="m14.4 9.2.8-.8v-.8h-.8l-.8.8-.8-.8h-.8v.8l.8.8z" fill="#352e23"/><path d="m10.4 18h-.8v.8c.4.4 1.2 1.2 1.6 1.6h.8v-.8c-.4-.4-1.2-1.2-1.6-1.6z" fill="#352e23"/><path d="m8 20.4v1.6h1.6v-.8h-.8z" fill="#352e23"/></svg>