<svg enable-background="new 0 0 32 32" height="32" viewBox="0 0 32 32" width="32" xmlns="http://www.w3.org/2000/svg"><path d="m19.2000008 9.6000004-.7999992.8000002-.7999992-.8000002-.7999992.8000002.7999992.8000002h1.6000004l.7999992-.8000002v-.8000002z" fill="#352e23"/><path d="m16.7999992 13.6000004h1.6000004l-.7999992-.8000002z" fill="#352e23"/><path d="m15.1999998 13.6000004h1.5999994l-.8000002-.8000002z" fill="#352e23"/><path d="m16 12h.7999992l-.8000002-.8000002-.8000001.8000002z" fill="#352e23"/><path d="m13.6000004 13.6000004h1.6000004l-.8000002-.8000002z" fill="#352e23"/><path d="m14.3999996 11.1999998.8000002-.8000002-.8000002-.8000002-.8000002.8000002-.8000002-.8000002h-.8000002v.8000002l.8000002.8000002z" fill="#352e23"/><path d="m14.3999996 17.6000004-.8000002.7999992c-.3999996-.3999996-1.1999998-1.2000007-1.6000004-1.6000004v1.6000004l.8000002.7999992h1.6000004l.8000002-.7999992c0-.3999996 0-1.2000008 0-1.6000004z" fill="#16100f"/><path d="m14.3999996 17.6000004-.8000002-.7999992-.8000002.7999992z" fill="#16100f"/><path d="m15.1999998 17.6000004v.7999992l.8000002-.7999992z" fill="#3c2913"/><path d="m15.1999998 19.2000008v-.7999992l-.8000002.7999992z" fill="#3c2913"/><path d="m14.3999996 16c-.3999996 0-1.1999998 0-1.6000004 0l.8000002.7999992z" fill="#3c2913"/><path d="m14.3999996 17.6000004c-.3999996 0-1.1999998 0-1.6000004 0l.8000002.7999992z" fill="#3c2913"/><path d="m12.8000002 19.2000008.8000002.7999954.8000002-.7999954c-.3999996 0-1.1999998 0-1.6000004 0z" fill="#3c2913"/><path d="m12 19.2000008h.8000002l-.8000002-.7999993z" fill="#3c2913"/><path d="m11.1999998 17.6000004.8000002.7999992v-.7999992z" fill="#3c2913"/><path d="m26.3999996 16.7999992c-.3999996-.3999996-1.2000007-1.1999998-1.6000004-1.6000003h-.7999992v-.8000002l-.7999992-.8000002c-2.1000004 2.1000004-4.2999992 4.2999992-6.3999996 6.3999996l4 4h4v-.7999992c-.3999996 0-1.2000008 0-1.6000004 0l-.7999992-.7999992v.7999992h-.7999992c-1-1-2.2000008-2.2000008-3.2000008-3.2000008 1.6000004-1.6000004 3.2000008-3.2000008 4.7999992-4.8000002.3999996.3999996 1.2000008 1.1999998 1.6000004 1.5999994v.7999992h.7999992l.7999992.7999992v2.3999996h-.7999992l.7999992.7999992v1.6000004c-.3999996 0-1.2000008 0-1.6000004 0l.7999992.7999992h1.6000004c0-2.1000004 0-4.3000011 0-6.3999996z" fill="#96662f"/><path d="m19.2000008 26.3999996h-.7999992l-.7999992.7999992h3.2000008l-.7999992-.7999992z" fill="#96662f"/><path d="m15.1999998 17.6000004h.8000002l-.8000002-.7999992z" fill="#96662f"/><path d="m14.3999996 16 .8000002.7999992v-.8000002z" fill="#96662f"/><path d="m12.8000002 16h1.6000004l-.8000002-.8000002z" fill="#96662f"/><path d="m12.8000002 26.3999996h-.8000002l-.8000002.7999992h3.1999998l-.8000002-.7999992z" fill="#96662f"/><path d="m12 16.7999992.8000002-.8000002h-.8000002z" fill="#96662f"/><path d="m12 17.6000004v-.7999992l-.8000002.7999992z" fill="#96662f"/><path d="m21.6000004 6.4000001h-.7999992l.7999992.8000002.7999992-.8000002z" fill="#af9d81"/><path d="m20 15.1999998h1.6000004l-.7999992-.8000002z" fill="#af9d81"/><path d="m19.2000008 12h-.7999992v.8000002h.7999992l.7999992-.8000002z" fill="#af9d81"/><path d="m19.2000008 9.6000004h1.6000004l-.7999992-.8000002c-.3999996 0-1.2000008 0-1.6000004 0l-.7999992.8000002z" fill="#af9d81"/><path d="m15.1999998 8.8000002.8000002.8000002.7999992-.8000002c-.3999996 0-1.1999998 0-1.5999994 0z" fill="#af9d81"/><path d="m15.1999998 5.5999999.8000002.8000002.7999992-.8000002c-.3999996 0-1.1999998 0-1.5999994 0z" fill="#af9d81"/><path d="m12.8000002 8.8000002h-.8000002l-.8000002.8000002h3.1999998l-.8000002-.8000002z" fill="#af9d81"/><path d="m12 12 .8000002.8000002h.8000002v-.8000002c-.3999996 0-1.1999998 0-1.6000004 0z" fill="#af9d81"/><path d="m10.3999996 15.1999998h1.6000004l-.8000002-.8000002z" fill="#af9d81"/><path d="m11.1999998 6.4000001c-.3999996 0-1.1999998 0-1.6000004 0l.8000002.8000002z" fill="#af9d81"/><path d="m24.7999992 18.3999996c-.3999996-.3999996-1.2000007-1.2000007-1.6000003-1.6000004-1 1-2.2000008 2.2000008-3.2000008 3.2000008l2.3999996 2.3999996h3.2000008c0-1 0-2.2000008 0-3.2000008z" fill="#725123"/><path d="m13.5999994 16.8000011.8000002-.8000011.8000002.7999992-.7999992.8000011z" fill="#725123"/><path d="m11.999999 16.7999992.8000011-.8000002.7999992.8000021-.8000002.7999992z" fill="#725123"/><path d="m12 20 .8000002-.7999992h-.8000002z" fill="#725123"/><path d="m8 24 .8000002-.7999992h-.8000002z" fill="#725123"/><g fill="#5b2833"><path d="m25.6000004 22.3999996c-1 0-2.2000008 0-3.2000008 0l.7999992.7999992h3.2000008c0-.3999996 0-1.2000008 0-1.6000004l-.7999992-.7999992z"/><path d="m25.6000004 17.6000004h-.7999992v-.7999992c-.3999996-.3999996-1.2000008-1.1999998-1.6000004-1.6000004-1.6000004 1.6000003-3.2000008 3.2000007-4.7999993 4.7999992l3.2000008 3.2000008h.7999992v-.7999992c-.7000008-.7000008-1.7000008-1.7000008-2.3999996-2.3999996l3.2000008-3.2000008 2.3999996 2.3999996v1.6000004h.7999992c0-.7000008 0-1.7000008 0-2.3999996z"/><path d="m21.6000004 15.1999998c0-.3999996 0-1.1999998 0-1.6000004l-.7999992.8000002z"/><path d="m20 16v.7999992l.7999992-.8000002-.7999992-.8000001z"/><path d="m19.2000008 27.2000008c-.7000008 0-1.7000008 0-2.3999996 0v.7999992h4v-.7999992c-.3999997 0-1.2000008 0-1.6000004 0z"/><path d="m20 8.8000002-.7999992-.8000002-.7999992.8000002z"/><path d="m20 13.6000004.7999992-.8000002c0-.3999996 0-1.1999998 0-1.6000004-.3999996.3999996-1.2000008 1.1999998-1.6000004 1.6000004h-.7999992v.8000002z"/><path d="m19.2000008 26.3999996v-.7999992l-.7999992.7999992z"/><path d="m16.7999992 24.7999992h2.3999996v-.7999992l-.7999992-.7999992v.7999992h-.7999992z"/><path d="m17.6000004 20.7999992c-.3999996-.3999996-1.2000008-1.2000007-1.6000004-1.6000003l-.8000002.7999973c-.6999998 0-1.6999998 0-2.4000006 0v.8000011z"/><path d="m16.7999992 8.8000002-.8000002.8000002h.8000002z"/><path d="m16.7999992 5.5999999-.8000002.8000002h.8000002z"/><path d="m16.7999992 15.1999998c-.3999996 0-1.1999998 0-1.6000004 0l.8000002.8000002z"/><path d="m13.6000004 24v-.7999992l-.8000002.7999992v.7999992h2.4000006l-.8000002-.7999992z"/><path d="m13.6000004 27.2000008c-.6999998 0-1.6999998 0-2.3999996 0v.7999992h4v-.7999992c-.3999997 0-1.1999998 0-1.6000004 0z"/><path d="m13.6000004 8.8000002-.8000002-.8000002-.8000002.8000002z"/><path d="m12.8000002 25.6000004v.7999992h.8000002z"/><path d="m12.8000002 13.6000004h.8000002v-.8000002h-.8000002c-.3999996-.3999996-1.1999998-1.1999998-1.6000004-1.6000004v1.6000004l.8000002.8000002z"/><path d="m12 16.7999992c0-.3999996 0-1.1999998 0-1.6000004l-.8000002.8000002z"/><path d="m12 20-.8000002-.7999992c-.3999996.3999996-1.1999998 1.2000007-1.6000004 1.6000003l.8000002.7999992z"/><path d="m10.3999996 13.6000004v1.6000004l.8000002-.8000002z"/><path d="m8 23.2000008h.8000002l-.8000002-.7999993z"/></g><path d="m21.6000004 12c0-1.6000004 0-3.1999998 0-4.8000002-1-1-2.2000008-2.1999998-3.2000008-3.2-1.6000004 0-3.1999998 0-4.8000002 0-1 1.0000002-2.1999998 2.2-3.1999998 3.2v4.8000002l-.8000002.8000002h1.6000004c0-1 0-2.1999998 0-3.1999998.3999996-.3999996 1.1999998-1.1999998 1.6000004-1.6000004l3.1999998 3.1999998 3.2000008-3.1999998c.3999996.3999996 1.2000008 1.1999998 1.6000004 1.6000004v3.1999998h1.6000004zm-4.8000012-6.4000001v.8000002h-.8000002l-.8000002-.8000002.8000002-.8000002zm0 4.0000005h-.8000002l-.8000002-.8000002.8000002-.8000002.8000002.8000002z" fill="#8c2f40"/><path d="m20 13.6000004c-.3999996 0-1.2000008 0-1.6000004 0-.7000007.6999998-1.7000007 1.6999998-2.3999996 2.3999996-.6999998-.6999998-1.6999998-1.6999998-2.3999996-2.3999996-1 0-2.1999998 0-3.1999998 0l1.6000004 1.6000004v.7999992h.8000002l.8000002-.8000002.8000001.8000002h.8000002v.7999992l.8000002.7999992-.8000002.7999992v.7999992h-.8000002l-.8000002.7999992h1.6000004l.8000002-.7999992.7999992.7999992 3.2000008-3.2000008c0-.3999996 0-1.1999998 0-1.6000004.3999996-.3999996 1.2000008-1.1999998 1.6000004-1.6000004-.3999996.0000003-1.2000008.0000003-1.6000023.000006z" fill="#8c2f40"/><path d="m17.6000004 24.7999992h-.7999992v2.3999996h.7999992c.3999996-.3999996 1.2000007-1.2000007 1.6000004-1.6000003v-.7999992c-.3999997-.0000001-1.2000008-.0000001-1.6000004-.0000001z" fill="#8c2f40"/><path d="m17.6000004 20.7999992c-1.6000004 0-3.1999998 0-4.8000002 0l.8000002.7999992h-.8000002v1.6000004h2.4000006v-.7999992h1.6000004v.7999992h2.3999996v-.7999992c-.3999997-.3999996-1.2000008-1.2000007-1.6000004-1.6000004z" fill="#8c2f40"/><path d="m13.6000004 24.7999992h-.8000002v.7999992c.3999996.3999997 1.1999998 1.2000008 1.6000004 1.6000005h.8000002c0-.7000008 0-1.7000008 0-2.3999996-.3999997-.0000001-1.1999998-.0000001-1.6000004-.0000001z" fill="#8c2f40"/><path d="m12.8000002 19.9999962h.8000002l-.8000002-.7999954z" fill="#8c2f40"/><path d="m9.6000004 15.1999998h-.8000002v1.5999994l.8000002.7999992c.3999996-.3999995 1.1999998-1.2000007 1.6000004-1.6000003l-.8000002-.8000002z" fill="#8c2f40"/><path d="m8 17.6000004-.8000002-.7999992v3.2000008l.8000002.7999991.8000002-.7999992h1.6000004c0-.7000008 0-1.7000008 0-2.3999996-.6999998 0-1.6999998 0-2.4000006-.0000019z" fill="#8c2f40"/><path d="m18.3999996 9.6000004h-.7999992l.7999992.8000002.7999992-.8000002z" fill="#aa7b33"/><path d="m12.8000002 9.6000004.8000002.8000002.8000002-.8000002c-.3999996 0-1.1999998 0-1.6000004 0z" fill="#aa7b33"/><path d="m12 20c0-.3999996 0-1.2000008 0-1.6000004l-.8000002.7999992z" fill="#aa7b33"/><path d="m7.1999998 24h.8000002c0-.3999996 0-1.2000008 0-1.6000004l-.8000002.7999992z" fill="#aa7b33"/><g fill="#d7cbb5"><path d="m21.6000004 4-.7999992-.8v1.6000001l-.7999992.8000002.7999992.8000002h1.6000004c0-.4000001 0-1.1999998 0-1.5999999z"/><path d="m20 15.1999998.7999992.8000002.7999992-.8000002c-.3999995 0-1.2000007 0-1.5999984 0z"/><path d="m20.7999992 11.1999998c0-.3999996 0-1.1999998 0-1.6000004h-.7999992v.8000002l-.7999992.8000002c-.3999996 0-1.2000008 0-1.6000004 0l-.7999992-.8000002-.7999992.8000002.7999991.8000002c-.3999996 0-1.1999998 0-1.6000004 0l.7999993-.8000002-.8000002-.8000002-.8000002.8000002c-.3999996 0-1.1999998 0-1.6000004 0l-.8000002-.8000002v-.8000002h-.8000002v1.6000004l.8000002.8000002h1.6000004v1.6000004l.8000002-.8000002.8000002.8000002.8000002-.8000002.7999992.8000002.7999992-.8000002.7999992.8000002c0-.3999996 0-1.1999998 0-1.6000004h1.6000004z"/><path d="m17.6000004 23.2000008h.7999992v.7999992h-.7999992z"/><path d="m16.7999992 13.6000004c-1 0-2.1999998 0-3.1999998 0l1.6000004 1.6000004h1.5999994c.3999997-.3999997 1.2000008-1.1999998 1.6000004-1.6000004-.3999996 0-1.2000007 0-1.6000004 0z"/><path d="m16.7999992 4-.8000002-.8-.8000001.8z"/><path d="m16.7999992 5.5999999-.8000002-.8000002-.8000002.8000002z"/><path d="m16.7999992 8.8000002-.8000002-.8000002-.8000002.8000002z"/><path d="m13.6000004 23.2000008h.8000002v.7999992h-.8000002z"/><path d="m10.3999996 15.1999998.8000002.8000002.8000002-.8000002c-.3999996 0-1.1999998 0-1.6000004 0z"/><path d="m11.1999998 6.4000001.8000002-.8000002-.8000002-.8000002c0-.4000001 0-1.2 0-1.5999999-.3999996.4000001-1.1999998 1.1999998-1.6000004 1.5999999v1.5999999z"/><path d="m9.6000004 20.7999992.8000002-.7999992c-.3999996 0-1.1999998 0-1.6000004 0l-.8000002.7999992v1.6000004l.8000002.7999992h1.6000004v-.7999992h.8000002c0-.3999996 0-1.2000008 0-1.6000004l-.8000002.7999992z"/><path d="m9.6000004 17.6000004-.8000002-.7999992-.8000002.7999992z"/><path d="m7.1999998 20v-.7999992h-.8000002z"/><path d="m7.1999998 18.3999996v-.7999992h-.8000002z"/></g></svg>