<svg enable-background="new 0 0 32 32" viewBox="0 0 32 32" xmlns="http://www.w3.org/2000/svg"><path d="m19.2 9.6-.8.8-.8-.8-.8.8.8.8h1.6l.8-.8v-.8z" fill="#352e23"/><path d="m16.8 13.6h1.6l-.8-.8z" fill="#352e23"/><path d="m15.2 13.6h1.6l-.8-.8z" fill="#352e23"/><path d="m16 12h.8l-.8-.8-.8.8z" fill="#352e23"/><path d="m13.6 13.6h1.6l-.8-.8z" fill="#352e23"/><path d="m14.4 11.2.8-.8-.8-.8-.8.8-.8-.8h-.8v.8l.8.8z" fill="#352e23"/><path d="m14.4 17.6-.8.8c-.4-.4-1.2-1.2-1.6-1.6v1.6l.8.8h1.6l.8-.8c0-.4 0-1.2 0-1.6z" fill="#16100f"/><path d="m14.4 17.6-.8-.8-.8.8z" fill="#16100f"/><path d="m15.2 17.6v.8l.8-.8z" fill="#3c2913"/><path d="m15.2 19.2v-.8l-.8.8z" fill="#3c2913"/><path d="m14.4 16c-.4 0-1.2 0-1.6 0l.8.8z" fill="#3c2913"/><path d="m14.4 17.6c-.4 0-1.2 0-1.6 0l.8.8z" fill="#3c2913"/><path d="m12.8 19.2.8.8.8-.8c-.4 0-1.2 0-1.6 0z" fill="#3c2913"/><path d="m12 19.2h.8l-.8-.8z" fill="#3c2913"/><path d="m11.2 17.6.8.8v-.8z" fill="#3c2913"/><path d="m26.4 16.8c-.4-.4-1.2-1.2-1.6-1.6h-.8v-.8l-.8-.8c-2.1 2.1-4.3 4.3-6.4 6.4l4 4h4v-.8c-.4 0-1.2 0-1.6 0l-.8-.8v.8h-.8c-1-1-2.2-2.2-3.2-3.2 1.6-1.6 3.2-3.2 4.8-4.8.4.4 1.2 1.2 1.6 1.6v.8h.8l.8.8v2.4h-.8l.8.8v1.6c-.4 0-1.2 0-1.6 0l.8.8h1.6c0-2.1 0-4.3 0-6.4z" fill="#96662f"/><path d="m19.2 26.4h-.8l-.8.8h3.2l-.8-.8z" fill="#96662f"/><path d="m15.2 17.6h.8l-.8-.8z" fill="#96662f"/><path d="m14.4 16 .8.8v-.8z" fill="#96662f"/><path d="m12.8 16h1.6l-.8-.8z" fill="#96662f"/><path d="m12.8 26.4h-.8l-.8.8h3.2l-.8-.8z" fill="#96662f"/><path d="m12 16.8.8-.8h-.8z" fill="#96662f"/><path d="m12 17.6v-.8l-.8.8z" fill="#96662f"/><g fill="#af9d81"><path d="m21.6 6.4h-.8l.8.8.8-.8z"/><path d="m20 15.2h1.6l-.8-.8z"/><path d="m19.2 12h-.8v.8h.8l.8-.8z"/><path d="m19.2 9.6h1.6l-.8-.8c-.4 0-1.2 0-1.6 0l-.8.8z"/><path d="m15.2 8.8.8.8.8-.8c-.4 0-1.2 0-1.6 0z"/><path d="m15.2 5.6.8.8.8-.8c-.4 0-1.2 0-1.6 0z"/><path d="m12.8 8.8h-.8l-.8.8h3.2l-.8-.8z"/><path d="m12 12 .8.8h.8v-.8c-.4 0-1.2 0-1.6 0z"/><path d="m10.4 15.2h1.6l-.8-.8z"/><path d="m11.2 6.4c-.4 0-1.2 0-1.6 0l.8.8z"/></g><path d="m24.8 18.4c-.4-.4-1.2-1.2-1.6-1.6-1 1-2.2 2.2-3.2 3.2l2.4 2.4h3.2c0-1 0-2.2 0-3.2z" fill="#725123"/><path d="m13.8 16.2h1.1v1.1h-1.1z" fill="#725123" transform="matrix(.7071 -.7071 .7071 .7071 -7.6618 15.1029)"/><path d="m12.2 16.2h1.1v1.1h-1.1z" fill="#725123" transform="matrix(.7071 -.7071 .7071 .7071 -8.1305 13.9724)"/><path d="m12 20 .8-.8h-.8z" fill="#725123"/><path d="m8 24 .8-.8h-.8z" fill="#725123"/><g fill="#5b2833"><path d="m25.6 22.4c-1 0-2.2 0-3.2 0l.8.8h3.2c0-.4 0-1.2 0-1.6l-.8-.8z"/><path d="m25.6 17.6h-.8v-.8c-.4-.4-1.2-1.2-1.6-1.6-1.6 1.6-3.2 3.2-4.8 4.8l3.2 3.2h.8v-.8c-.7-.7-1.7-1.7-2.4-2.4l3.2-3.2 2.4 2.4v1.6h.8c0-.7 0-1.7 0-2.4z"/><path d="m21.6 15.2c0-.4 0-1.2 0-1.6l-.8.8z"/><path d="m20 16v.8l.8-.8-.8-.8z"/><path d="m19.2 27.2c-.7 0-1.7 0-2.4 0v.8h4v-.8c-.4 0-1.2 0-1.6 0z"/><path d="m20 8.8-.8-.8-.8.8z"/><path d="m20 13.6.8-.8c0-.4 0-1.2 0-1.6-.4.4-1.2 1.2-1.6 1.6h-.8v.8z"/><path d="m19.2 26.4v-.8l-.8.8z"/><path d="m16.8 24.8h2.4v-.8l-.8-.8v.8h-.8z"/><path d="m17.6 20.8c-.4-.4-1.2-1.2-1.6-1.6l-.8.8c-.7 0-1.7 0-2.4 0v.8z"/><path d="m16.8 8.8-.8.8h.8z"/><path d="m16.8 5.6-.8.8h.8z"/><path d="m16.8 15.2c-.4 0-1.2 0-1.6 0l.8.8z"/><path d="m13.6 24v-.8l-.8.8v.8h2.4l-.8-.8z"/><path d="m13.6 27.2c-.7 0-1.7 0-2.4 0v.8h4v-.8c-.4 0-1.2 0-1.6 0z"/><path d="m13.6 8.8-.8-.8-.8.8z"/><path d="m12.8 25.6v.8h.8z"/><path d="m12.8 13.6h.8v-.8h-.8c-.4-.4-1.2-1.2-1.6-1.6v1.6l.8.8z"/><path d="m12 16.8c0-.4 0-1.2 0-1.6l-.8.8z"/><path d="m12 20-.8-.8c-.4.4-1.2 1.2-1.6 1.6l.8.8z"/><path d="m10.4 13.6v1.6l.8-.8z"/><path d="m8 23.2h.8l-.8-.8z"/></g><path d="m21.6 12c0-1.6 0-3.2 0-4.8-1-1-2.2-2.2-3.2-3.2-1.6 0-3.2 0-4.8 0-1 1-2.2 2.2-3.2 3.2v4.8l-.8.8h1.6c0-1 0-2.2 0-3.2.4-.4 1.2-1.2 1.6-1.6l3.2 3.2 3.2-3.2c.4.4 1.2 1.2 1.6 1.6v3.2h1.6zm-4.8-6.4v.8h-.8l-.8-.8.8-.8zm0 4h-.8l-.8-.8.8-.8.8.8z" fill="#8c2f40"/><path d="m20 13.6c-.4 0-1.2 0-1.6 0-.7.7-1.7 1.7-2.4 2.4-.7-.7-1.7-1.7-2.4-2.4-1 0-2.2 0-3.2 0l1.6 1.6v.8h.8l.8-.8.8.8h.8v.8l.8.8-.8.8v.8h-.8l-.8.8h1.6l.8-.8.8.8c1-1 2.2-2.2 3.2-3.2 0-.4 0-1.2 0-1.6.4-.4 1.2-1.2 1.6-1.6-.4 0-1.2 0-1.6 0z" fill="#8c2f40"/><path d="m17.6 24.8h-.8v2.4h.8c.4-.4 1.2-1.2 1.6-1.6v-.8c-.4 0-1.2 0-1.6 0z" fill="#8c2f40"/><path d="m17.6 20.8c-1.6 0-3.2 0-4.8 0l.8.8h-.8v1.6h2.4v-.8h1.6v.8h2.4v-.8c-.4-.4-1.2-1.2-1.6-1.6z" fill="#8c2f40"/><path d="m13.6 24.8h-.8v.8c.4.4 1.2 1.2 1.6 1.6h.8c0-.7 0-1.7 0-2.4-.4 0-1.2 0-1.6 0z" fill="#8c2f40"/><path d="m12.8 20h.8l-.8-.8z" fill="#8c2f40"/><path d="m9.6 15.2h-.8v1.6l.8.8c.4-.4 1.2-1.2 1.6-1.6l-.8-.8z" fill="#8c2f40"/><path d="m8 17.6-.8-.8v3.2l.8.8.8-.8h1.6c0-.7 0-1.7 0-2.4-.7 0-1.7 0-2.4 0z" fill="#8c2f40"/><path d="m18.4 9.6h-.8l.8.8.8-.8z" fill="#aa7b33"/><path d="m12.8 9.6.8.8.8-.8c-.4 0-1.2 0-1.6 0z" fill="#aa7b33"/><path d="m12 20c0-.4 0-1.2 0-1.6l-.8.8z" fill="#aa7b33"/><path d="m7.2 24h.8c0-.4 0-1.2 0-1.6l-.8.8z" fill="#aa7b33"/><g fill="#d7cbb5"><path d="m21.6 4-.8-.8v1.6l-.8.8.8.8h1.6c0-.4 0-1.2 0-1.6z"/><path d="m20 15.2.8.8.8-.8c-.4 0-1.2 0-1.6 0z"/><path d="m20.8 11.2c0-.4 0-1.2 0-1.6h-.8v.8l-.8.8c-.4 0-1.2 0-1.6 0l-.8-.8-.8.8.8.8c-.4 0-1.2 0-1.6 0l.8-.8-.8-.8-.8.8c-.4 0-1.2 0-1.6 0l-.8-.8v-.8h-.8v1.6l.8.8h1.6v1.6l.8-.8.8.8.8-.8.8.8.8-.8.8.8c0-.4 0-1.2 0-1.6h1.6z"/><path d="m17.6 23.2h.8v.8h-.8z"/><path d="m16.8 13.6c-1 0-2.2 0-3.2 0l1.6 1.6h1.6c.4-.4 1.2-1.2 1.6-1.6-.4 0-1.2 0-1.6 0z"/><path d="m16.8 4-.8-.8-.8.8z"/><path d="m16.8 5.6-.8-.8-.8.8z"/><path d="m16.8 8.8-.8-.8-.8.8z"/><path d="m13.6 23.2h.8v.8h-.8z"/><path d="m10.4 15.2.8.8.8-.8c-.4 0-1.2 0-1.6 0z"/><path d="m11.2 6.4.8-.8-.8-.8c0-.4 0-1.2 0-1.6-.4.4-1.2 1.2-1.6 1.6v1.6z"/><path d="m9.6 20.8.8-.8c-.4 0-1.2 0-1.6 0l-.8.8v1.6l.8.8h1.6v-.8h.8c0-.4 0-1.2 0-1.6l-.8.8z"/><path d="m9.6 17.6-.8-.8-.8.8z"/><path d="m7.2 20v-.8h-.8z"/><path d="m7.2 18.4v-.8h-.8z"/></g></svg>