<svg enable-background="new 0 0 32 32" viewBox="0 0 32 32" xmlns="http://www.w3.org/2000/svg"><path d="m15.2 16.8c-1.3 1.3-2.7 2.7-4 4l.8.8 4-4c0-.4 0-1.2 0-1.6z" fill="#aeaca7"/><path d="m20 27.2c-.7 0-1.7 0-2.4 0v.8h3.2v-.8z" fill="#675e51"/><path d="m20 17.6v-.8l-.8.8.8.8z" fill="#675e51"/><path d="m18.4 20c-.4-.4-1.2-1.2-1.6-1.6v1.6z" fill="#675e51"/><path d="m16 15.2h-.8l.8.8.8-.8z" fill="#675e51"/><path d="m13.6 20h1.6c0-.4 0-1.2 0-1.6-.4.4-1.2 1.2-1.6 1.6z" fill="#675e51"/><path d="m12.8 27.2c-.4 0-1.2 0-1.6 0v.8h3.2v-.8c-.4 0-1.2 0-1.6 0z" fill="#675e51"/><path d="m15.2 16h-.8c-.7.7-1.7 1.7-2.4 2.4v.8h-.8l-.8.8.8.8c1.6-1.6 3.2-3.2 4.8-4.8z" fill="#c3c1bf"/><g fill="#af9d81"><path d="m21.6 15.2-.8-.8-.8.8z"/><path d="m20.8 21.6h.8l-.8-.8z"/><path d="m19.2 12h-.8v.8h.8l.8-.8z"/><path d="m17.6 5.6v.8l.8-.8z"/><path d="m18.4 22.4v-.8l-.8.8z"/><path d="m16.8 8v.8l.8-.8z"/><path d="m15.2 18.4v1.6h1.6c0-.4 0-1.2 0-1.6-.4 0-1.2 0-1.6 0z"/><path d="m15.2 8h-.8l.8.8z"/><path d="m13.6 22.4h.8l-.8-.8z"/><path d="m13.6 12c-.4 0-1.2 0-1.6 0l.8.8h.8z"/><path d="m10.4 15.2h1.6l-.8-.8z"/></g><path d="m21.6 16.8.8-.8.8.8-.8.8z" fill="#9f974a"/><path d="m17.6 9.6.8.8.8-.8c-.4 0-1.2 0-1.6 0z" fill="#9f974a"/><path d="m12.8 9.6.8.8.8-.8c-.4 0-1.2 0-1.6 0z" fill="#9f974a"/><path d="m9.6 16 .8-.8.8.8-.8.8z" fill="#9f974a"/><path d="m23.2 17.6h-.8v2.4h.8l.8.8c0-1 0-2.2 0-3.2z" fill="#7c786d"/><path d="m20 13.6c-.4 0-1.2 0-1.6 0-.7.7-1.7 1.7-2.4 2.4v1.6l-.8.8h1.6l1.6 1.6 1.6-1.6-.8-.8.8-.8c0-.4 0-1.2 0-1.6.4-.4 1.2-1.2 1.6-1.6-.4 0-1.2 0-1.6 0z" fill="#7c786d"/><path d="m19.2 26.4h-.8l-.8.8h3.2l-.8-.8z" fill="#7c786d"/><path d="m18.4 21.6v-.8c-1.6 0-3.2 0-4.8 0v.8c.4.4 1.2 1.2 1.6 1.6h1.6z" fill="#7c786d"/><path d="m14.4 14.4-.8-.8c-1 0-2.2 0-3.2 0l1.6 1.6v1.6l.8.8 1.6-1.6h1.6c-.4-.4-1.2-1.2-1.6-1.6z" fill="#7c786d"/><path d="m12.8 26.4h-.8l-.8.8h3.2l-.8-.8z" fill="#7c786d"/><path d="m8 17.6v3.2l.8-.8h.8c0-.7 0-1.7 0-2.4-.4 0-1.2 0-1.6 0z" fill="#7c786d"/><path d="m23.2 16.8-.8.8h1.6v-.8z" fill="#d7cbb5"/><path d="m22.4 20h-.8l-.8.8.8.8h-.8v-.8l-.8.8 1.6 1.6h1.6l.8-.8c0-.4 0-1.2 0-1.6l-.8-.8z" fill="#d7cbb5"/><path d="m20 15.2 1.6 1.6.8-.8-.8-.8c-.4 0-1.2 0-1.6 0z" fill="#d7cbb5"/><path d="m20.8 11.2c0-1 0-2.2 0-3.2-.7-.7-1.7-1.7-2.4-2.4l-.8.8v-.8c-1.3 0-2.7 0-4 0-.7.7-1.7 1.7-2.4 2.4v3.2l.8.8h1.6v1.6l.8-.8.8.8.8-.8.8.8.8-.8.8.8c0-.4 0-1.2 0-1.6h1.6zm-6.4-3.2h.8v.8zm2.4 0h.8l-.8.8zm-3.2 3.2h-.8l-.8-.8v-.8h3.2v.8l-.8.8zm2.4.8h-.8l.8-.8.8.8zm2.4-.8h-.8l-.8-.8v-.8h3.2v.8l-.8.8z" fill="#d7cbb5"/><path d="m18.4 22.4h-.8v4.8l.8-.8c0-.4 0-1.2 0-1.6l.8-.8-.8-.8z" fill="#d7cbb5"/><path d="m16.8 13.6c-1 0-2.2 0-3.2 0l1.6 1.6h1.6c.4-.4 1.2-1.2 1.6-1.6-.4 0-1.2 0-1.6 0z" fill="#d7cbb5"/><path d="m15.2 20v.8h1.6v-.8c-.4 0-1.2 0-1.6 0z" fill="#d7cbb5"/><path d="m13.6 23.2-.8.8.8.8v1.6l.8.8c0-1.6 0-3.2 0-4.8h-.8z" fill="#d7cbb5"/><path d="m10.4 15.2.8.8.8-.8c-.4 0-1.2 0-1.6 0z" fill="#d7cbb5"/><path d="m9.6 20.8v-.8h-.8l-.8.8v1.6l.8.8h1.6l.8-.8c-.4-.4-1.2-1.2-1.6-1.6z" fill="#d7cbb5"/><path d="m9.6 17.6.8-.8-.8-.8-.8.8h-.8v.8z" fill="#d7cbb5"/><path d="m19.2 9.6-.8.8-.8-.8h-.8v.8l.8.8h1.6l.8-.8v-.8z" fill="#352e23"/><path d="m16.8 13.6h1.6l-.8-.8z" fill="#352e23"/><path d="m15.2 13.6h1.6l-.8-.8z" fill="#352e23"/><path d="m16 12h.8l-.8-.8-.8.8z" fill="#352e23"/><path d="m13.6 13.6h1.6l-.8-.8z" fill="#352e23"/><path d="m14.4 11.2.8-.8v-.8h-.8l-.8.8-.8-.8h-.8v.8l.8.8z" fill="#352e23"/><path d="m10.4 20h-.8v.8c.4.4 1.2 1.2 1.6 1.6h.8v-.8c-.4-.4-1.2-1.2-1.6-1.6z" fill="#352e23"/><path d="m8 22.4v1.6h1.6v-.8h-.8z" fill="#352e23"/></svg>