<svg enable-background="new 0 0 32 32" viewBox="0 0 32 32" xmlns="http://www.w3.org/2000/svg"><path d="m15.2 20.8c-1.3 1.3-2.7 2.7-4 4l.8.8 4-4c0-.4 0-1.2 0-1.6z" fill="#aeaca7"/><path d="m20 31.2c-.7 0-1.7 0-2.4 0v.8h3.2v-.8z" fill="#675e51"/><path d="m20 21.6v-.8l-.8.8.8.8z" fill="#675e51"/><path d="m18.4 24c-.4-.4-1.2-1.2-1.6-1.6v1.6z" fill="#675e51"/><path d="m16 19.2h-.8l.8.8.8-.8z" fill="#675e51"/><path d="m13.6 24h1.6c0-.4 0-1.2 0-1.6-.4.4-1.2 1.2-1.6 1.6z" fill="#675e51"/><path d="m12.8 31.2c-.4 0-1.2 0-1.6 0v.8h3.2v-.8c-.4 0-1.2 0-1.6 0z" fill="#675e51"/><path d="m15.2 20h-.8c-.7.7-1.7 1.7-2.4 2.4v.8h-.8l-.8.8.8.8c1.6-1.6 3.2-3.2 4.8-4.8z" fill="#c3c1bf"/><g fill="#af9d81"><path d="m21.6 19.2-.8-.8-.8.8z"/><path d="m20.8 25.6h.8l-.8-.8z"/><path d="m19.2 16h-.8v.8h.8l.8-.8z"/><path d="m17.6 9.6v.8l.8-.8z"/><path d="m18.4 26.4v-.8l-.8.8z"/><path d="m16.8 12v.8l.8-.8z"/><path d="m15.2 22.4v1.6h1.6c0-.4 0-1.2 0-1.6-.4 0-1.2 0-1.6 0z"/><path d="m15.2 12h-.8l.8.8z"/><path d="m13.6 26.4h.8l-.8-.8z"/><path d="m13.6 16c-.4 0-1.2 0-1.6 0l.8.8h.8z"/><path d="m10.4 19.2h1.6l-.8-.8z"/></g><path d="m21.8 20.2h1.1v1.1h-1.1z" fill="#9f974a" transform="matrix(.7071 -.7071 .7071 .7071 -8.147 21.9302)"/><path d="m17.6 13.6.8.8.8-.8c-.4 0-1.2 0-1.6 0z" fill="#9f974a"/><path d="m12.8 13.6.8.8.8-.8c-.4 0-1.2 0-1.6 0z" fill="#9f974a"/><path d="m9.8 19.4h1.1v1.1h-1.1z" fill="#9f974a" transform="matrix(.7071 -.7071 .7071 .7071 -11.0963 13.2126)"/><g fill="#817a6f"><path d="m23.2 21.6h-.8v2.4h.8l.8.8c0-1 0-2.2 0-3.2z"/><path d="m20 17.6c-.4 0-1.2 0-1.6 0-.7.7-1.7 1.7-2.4 2.4v1.6l-.8.8h1.6l1.6 1.6c.4-.4 1.2-1.2 1.6-1.6l-.8-.8.8-.8c0-.4 0-1.2 0-1.6.4-.4 1.2-1.2 1.6-1.6-.4 0-1.2 0-1.6 0z"/><path d="m19.2 30.4h-.8l-.8.8h3.2l-.8-.8z"/><path d="m18.4 25.6v-.8c-1.6 0-3.2 0-4.8 0v.8c.4.4 1.2 1.2 1.6 1.6h1.6z"/><path d="m14.4 18.4-.8-.8c-1 0-2.2 0-3.2 0 .4.4 1.2 1.2 1.6 1.6v1.6l.8.8c.4-.4 1.2-1.2 1.6-1.6h1.6c-.4-.4-1.2-1.2-1.6-1.6z"/><path d="m12.8 30.4h-.8l-.8.8h3.2l-.8-.8z"/><path d="m8 21.6v3.2l.8-.8h.8c0-.7 0-1.7 0-2.4-.4 0-1.2 0-1.6 0z"/></g><g fill="#d7cbb5"><path d="m23.2 20.8-.8.8h1.6v-.8z"/><path d="m22.4 24h-.8l-.8.8.8.8h-.8v-.8l-.8.8 1.6 1.6h1.6l.8-.8c0-.4 0-1.2 0-1.6l-.8-.8z"/><path d="m20 19.2 1.6 1.6.8-.8-.8-.8c-.4 0-1.2 0-1.6 0z"/><path d="m20.8 15.2c0-1 0-2.2 0-3.2-.7-.7-1.7-1.7-2.4-2.4l-.8.8v-.8c-1.3 0-2.7 0-4 0-.7.7-1.7 1.7-2.4 2.4v3.2l.8.8h1.6v1.6l.8-.8.8.8.8-.8.8.8.8-.8.8.8c0-.4 0-1.2 0-1.6h1.6zm-6.4-3.2h.8v.8zm2.4 0h.8l-.8.8zm-3.2 3.2h-.8l-.8-.8v-.8h3.2v.8l-.8.8zm2.4.8h-.8l.8-.8.8.8zm2.4-.8h-.8l-.8-.8v-.8h3.2v.8l-.8.8z"/><path d="m18.4 26.4h-.8v4.8l.8-.8c0-.4 0-1.2 0-1.6l.8-.8-.8-.8z"/><path d="m16.8 17.6c-1 0-2.2 0-3.2 0l1.6 1.6h1.6c.4-.4 1.2-1.2 1.6-1.6-.4 0-1.2 0-1.6 0z"/><path d="m15.2 24v.8h1.6v-.8c-.4 0-1.2 0-1.6 0z"/><path d="m13.6 27.2-.8.8.8.8v1.6l.8.8c0-1.6 0-3.2 0-4.8h-.8z"/><path d="m10.4 19.2.8.8.8-.8c-.4 0-1.2 0-1.6 0z"/><path d="m9.6 24.8v-.8h-.8l-.8.8v1.6l.8.8h1.6l.8-.8c-.4-.4-1.2-1.2-1.6-1.6z"/><path d="m9.6 21.6.8-.8-.8-.8-.8.8h-.8v.8z"/></g><g fill="#352e23"><path d="m19.2 13.6-.8.8-.8-.8h-.8v.8l.8.8h1.6l.8-.8v-.8z"/><path d="m16.8 17.6h1.6l-.8-.8z"/><path d="m15.2 17.6h1.6l-.8-.8z"/><path d="m16 16h.8l-.8-.8-.8.8z"/><path d="m13.6 17.6h1.6l-.8-.8z"/><path d="m14.4 15.2.8-.8v-.8h-.8l-.8.8-.8-.8h-.8v.8l.8.8z"/><path d="m10.4 24h-.8v.8c.4.4 1.2 1.2 1.6 1.6h.8v-.8c-.4-.4-1.2-1.2-1.6-1.6z"/><path d="m8 26.4v1.6h1.6v-.8h-.8z"/></g></svg>