<svg enable-background="new 0 0 32 32" viewBox="0 0 32 32" xmlns="http://www.w3.org/2000/svg"><path d="m20.8 21.4h-.8v.8h1.6z" fill="#533232"/><path d="m16.8 21.4h-.8l-.8.8h3.2l-.8-.8z" fill="#533232"/><path d="m13.6 21.4v.8h1.6l-.8-.8z" fill="#533232"/><path d="m18.4 18.2c-1.8 0-3.8 0-5.6 0l.8.8h4.8l.8-.8z" fill="#806d3b"/><path d="m13.6 7.8-.8.8h1.6z" fill="#a55225"/><path d="m20 7.8c-.4 0-1.2 0-1.6 0l.8.8h1.6z" fill="#352e23"/><path d="m18.4 11-.8-.8v.8c-.7 0-1.7 0-2.4 0l-.8-.8v.8h-.8l-.8-.8v.8h-.8v3.2l.8.8.8-.8h4.8l.8.8.8-.8c0-1 0-2.2 0-3.2l-.8-.8z" fill="#352e23"/><path d="m16.8 7.8.8.8.8-.8c-.4 0-1.2 0-1.6 0z" fill="#352e23"/><path d="m20.8 22.2c-3.4 0-7 0-10.4 0v3.2h3.2l.8-.8.8.8c0-.4 0-1.2 0-1.6h1.6v1.6h1.6l.8-.8v.8h2.4c0-1 0-2.2 0-3.2z" fill="#7d4e4a"/><path d="m12.8 6.2h2.4l.8.8.8-.8c0-.4 0-1.2 0-1.6-.4-.4-1.2-1.2-1.6-1.6v1.6l-.8-.8h-.8v.8l-.8.8-.8-.8v.8h-.8v1.6l.8-.8z" fill="#7d4e4a"/><path d="m9.6 7v1.6l.8-.8z" fill="#7d4e4a"/><g fill="#484d22"><path d="m20.8 26.2.8.8v-.8z"/><path d="m20 27v-.8h-.8z"/><path d="m15.2 9.4h1.6l-.8-.8z"/><path d="m15.2 8.6v-.8l-.8.8z"/><path d="m13.6 7h-.8l-.8.8h3.2l-.8-.8z"/><path d="m12 27 .8-.8h-.8z"/><path d="m11.2 10.2v-.8h-.8z"/><path d="m10.4 27 .8-.8h-.8z"/><path d="m9.6 14.2v-.8l-.8.8z"/><path d="m8.8 11.8v.8l.8.8c0-.4 0-1.2 0-1.6l-.8-.8z"/></g><path d="m24 15c-.4-.4-1.2-1.2-1.6-1.6v1.6c-1.3 1.3-2.7 2.7-4 4-1.6 0-3.2 0-4.8 0-1.3-1.3-2.7-2.7-4-4v-.8h-.8c-.4.4-1.2 1.2-1.6 1.6l.8.8h.8v.8h.8v4l.8.8h3.2c0-.4 0-1.2 0-1.6l1.6 1.6.8-.8h1.6l.8.8h1.6c0-.4 0-1.2 0-1.6l1.6 1.6.8-.8c0-1 0-2.2 0-3.2l.8-.8v.8h.8c0-.7 0-1.7 0-2.4h.8zm-13.6 4.8c0-.4 0-1.2 0-1.6h.8l.8.8v1.6l-.8-.8-.8.8zm11.2-1.6v2.4l-.8-.8c0-.4 0-1.2 0-1.6l.8-.8z" fill="#9f974a"/><path d="m19.2 8.6-.8-.8-.8.8z" fill="#9f974a"/><path d="m25.6 19.8c-.4 0-1.2 0-1.6 0l.8.8v.8h.8v-.8h.8v-.8z" fill="#ece4ba"/><path d="m20.8 7h-.8v-.8c-1 0-2.2 0-3.2 0l-.8.8v1.6l.8.8-.8.8c-.4 0-1.2 0-1.6 0l.8.8h2.4v-.8l.8.8.8-.8.8.8v.8h.8l.8.8c0-.4 0-1.2 0-1.6l.8-.8c0-.4 0-1.2 0-1.6-.4-.4-1.2-1.2-1.6-1.6zm-.8 1.6c-.7 0-1.7 0-2.4 0l-.8-.8h3.2l.8.8z" fill="#ece4ba"/><path d="m15.2 7.8c-.4 0-1.2 0-1.6 0l.8.8z" fill="#ece4ba"/><path d="m12.8 10.2.8.8h.8v-.8c-.4 0-1.2 0-1.6 0z" fill="#ece4ba"/><path d="m12.8 11v-.8l-.8.8z" fill="#ece4ba"/><path d="m12.8 8.6.8-.8c-.4 0-1.2 0-1.6 0l-.8.8z" fill="#ece4ba"/><path d="m6.4 19.8-.8.8h.8v.8l1.6-1.6c0-.4 0-1.2 0-1.6-.4.4-1.2 1.2-1.6 1.6z" fill="#ece4ba"/><path d="m25.6 16.6-.8-.8h-.8v2.4h-.8v-.8l-.8.8v1.6l.8.8.8-.8h1.6c0-.4 0-1.2 0-1.6l-.8-.8h.8z" fill="#697845"/><path d="m20.8 25.4c-.4 0-1.2 0-1.6 0v-.8l-.8.8c-.4 0-1.2 0-1.6 0v1.6h3.2l-.8-.8h.8v.8h1.6l-.8-.8h.8v.8h.8v-.8l-.8-.8z" fill="#697845"/><path d="m20.8 19v.8l.8.8c0-1 0-2.2 0-3.2l-.8.8z" fill="#697845"/><path d="m20 21.4h.8l-.8-.8z" fill="#697845"/><path d="m17.6 18.2h1.6c1-1 2.2-2.2 3.2-3.2 0-1 0-2.2 0-3.2l-.8.8-.8-.8h-.8v2.4l-.8.8-.8-.8c-1.6 0-3.2 0-4.8 0l-.8.8-.8-.8c0-1 0-2.2 0-3.2l.8-.8h3.2l.8-.8c-.4 0-1.2 0-1.6 0l.8-.8c0-.4 0-1.2 0-1.6l-.8-.8c-1 0-2.2 0-3.2 0-.7.7-1.7 1.7-2.4 2.4v1.6l-.8-.8-.8.8v3.2l.8.8.8-.8-.8-.8c0-.4 0-1.2 0-1.6l.8.8v3.2l3.2 3.2zm-5.6-10.4.8-.8h1.6l.8.8v.8c-1.3 0-2.7 0-4 0zm-.8 1.6v.8l-.8-.8z" fill="#697845"/><path d="m13.6 25.4c-1 0-2.2 0-3.2 0l-.8.8v.8h.8v-.8h.8l-.8.8h1.6v-.8h.8l-.8.8h3.2c0-.4 0-1.2 0-1.6l-.8-.8z" fill="#697845"/><path d="m13.6 20.6v.8h.8z" fill="#697845"/><path d="m12 20.6c0-.4 0-1.2 0-1.6l-.8-.8h-.8v2.4l.8-.8z" fill="#697845"/><path d="m9.6 19c0-.4 0-1.2 0-1.6h-.8v-.8h-.8l-.8-.8c-.4.4-1.2 1.2-1.6 1.6l.8.8v1.6c.4-.4 1.2-1.2 1.6-1.6v2.4h.8l.8-.8z" fill="#697845"/></svg>