<svg enable-background="new 0 0 32 32" viewBox="0 0 32 32" xmlns="http://www.w3.org/2000/svg"><path d="m19.7 16.7v-1.5c-.7.7-2.2 2.2-2.9 2.9v1.5c-1.8 0-4 0-5.9 0v1.5h5.9l2.9-2.9h1.5v-1.5z" fill="#a39d95"/><path d="m13.8 22.6c-.7 0-2.2 0-2.9 0v1.5h5.9v-1.5c-.8 0-2.3 0-3 0z" fill="#a39d95"/><path d="m19.7 13.8v-1.5c-2.9 0-6 0-8.8 0v7.3h5.9v-1.5c.7-.7 2.2-2.2 2.9-2.9v1.5h1.5c0-.7 0-2.2 0-2.9z" fill="#bfb7ab"/><path d="m13.8 21.1c-.7 0-2.2 0-2.9 0v1.5h5.9v-1.5c-.8 0-2.3 0-3 0z" fill="#bfb7ab"/><path d="m21.1 10.9v-1.5h-1.5c0-.7 0-2.2 0-2.9l-1.5 1.5h-1.5v-1.5l-1.5 1.5h-1.5v-1.5l-1.5 1.5h-1.5v-1.5l-1.2 1.4v17.6h1.5c0-4.4 0-8.9 0-13.2h8.8v1.5h1.5v1.5h1.5c0-1.3 0-3.1 0-4.4z" fill="#29201d"/></svg>