<svg viewBox="0 0 32 52.8" xmlns="http://www.w3.org/2000/svg"><g fill="#2b221f"><path d="m30.4 14.4c-.8-.8-2.4-2.4-3.2-3.2h-1.6v-1.6c-3.12-3.12-6.48-6.48-9.6-9.6v3.2c-2.01 2-4.4 4.4-6.4 6.4v1.6h-1.6c-2.01 2-4.4 4.4-6.4 6.4v20.8h1.6l-1.6 1.6v12.8h28.8l1.6-1.6v-1.6h-1.6l1.6-1.6v-14.4h-1.6l1.6-1.6v-16zm-1.6 4.8h-1.6v3.2h-1.6l1.6 1.6h-4.8v-4.8h4.8v-1.6h1.6zm-1.6 14.4v3.2h-4.8v-4.8h4.8zm-1.6 9.6h-3.2v-4.8h4.8v4.8zm-19.2-12.8h-1.6v-4.8h4.8v3.2l-1.6 1.6zm6.4-16h1.6l1.6 1.6 1.6-1.6h3.2c-1.43 1.43-3.38 3.37-4.8 4.8l-4.8-4.8zm3.2 17.6 1.6 1.6-1.6 1.6-1.6-1.6zm9.6-1.6h-1.6l-1.6-1.6v-3.2h4.8v4.8zm-14.4-19.2c1.43-1.43 3.37-3.38 4.8-4.8 2.01 2 4.4 4.4 6.4 6.4h-3.2c-.8-.8-2.4-2.4-3.2-3.2l-3.2 3.2h-3.2zm-8 6.4h1.6v1.6h4.8v4.8h-4.8v-4.8h-1.6zm1.6 17.6v-3.2h4.8v4.8h-4.8zm0 3.2h4.8v3.2l-1.6 1.6h-3.2zm-1.6 12.8v-1.6h1.6v-4.8h3.2v1.6h1.6v3.2h-4.8v1.6zm25.6 0h-1.6v-1.6h-4.8v-4.8l1.6 1.6v-1.6h1.6l1.6 1.6v3.2h1.6z"/><path d="m24 20.8h1.6v1.6h-1.6z"/><path d="m24 27.2h1.6v1.6h-1.6z"/><path d="m24 33.6h1.6v1.6h-1.6z"/><path d="m24 40h1.6v1.6h-1.6z"/><path d="m24 46.4h1.6v1.6h-1.6z"/><path d="m6.4 40h1.6v1.6h-1.6z"/><path d="m6.4 33.6h1.6v1.6h-1.6z"/><path d="m6.4 20.8h1.6v1.6h-1.6z"/><path d="m6.4 27.2h1.6v1.6h-1.6z"/><path d="m6.4 46.4h1.6v1.6h-1.6z"/></g><g fill="#4c3f39"><path d="m27.2 17.6h1.6v1.6h-1.6z"/><path d="m27.2 49.6h1.6v1.6h-1.6z"/><path d="m27.2 46.4-1.6-1.6h-1.6v1.6h1.6v1.6h-1.6v-1.6l-1.6-1.6v4.8h4.8z"/><path d="m27.2 35.2v-3.2h-4.8v4.8h4.8zm-3.2 0v-1.6h1.6v1.6z"/><path d="m27.2 28.8v-3.2h-4.8v3.2l1.6 1.6h3.2zm-3.2 0v-1.6h1.6v1.6z"/><path d="m24 19.2h-1.6v4.8h4.8l-1.6-1.6h-1.6v-1.6h1.6v1.6h1.6v-3.2z"/><path d="m24 38.4h-1.6v4.8h4.8v-4.8zm1.6 3.2h-1.6v-1.6h1.6z"/><path d="m20.8 11.2c-1.43-1.43-3.38-3.37-4.8-4.8-2.01 2-4.4 4.4-6.4 6.4h3.2l3.2-3.2c.8.8 2.4 2.4 3.2 3.2h3.2z"/><path d="m17.6 14.4-1.6 1.6-1.6-1.6h-3.2l4.8 4.8c1.43-1.43 3.38-3.37 4.8-4.8z"/><path d="m14.87 32.47h2.26v2.26h-2.26z" transform="matrix(.70710678 -.70710678 .70710678 .70710678 -19.07 21.15)"/><path d="m8 48h-1.6v-1.6h1.6v-1.6h-3.2v4.8h4.8v-3.2h-1.6z"/><path d="m6.4 38.4h-1.6v4.8h3.2l1.6-1.6v-3.2zm1.6 3.2h-1.6v-1.6h1.6z"/><path d="m6.4 32h-1.6v4.8h4.8v-4.8zm1.6 3.2h-1.6v-1.6h1.6z"/><path d="m6.4 25.6h-1.6v4.8h3.2l1.6-1.6v-3.2zm1.6 3.2h-1.6v-1.6h1.6z"/><path d="m6.4 19.2h-1.6v4.8h4.8v-4.8zm1.6 3.2h-1.6v-1.6h1.6z"/><path d="m3.2 17.6h1.6v1.6h-1.6z"/><path d="m3.2 49.6h1.6v1.6h-1.6z"/><path d="m1.6 51.2v-11.2l1.6-1.6h-1.6v-17.6l-1.6 1.6v28.8l1.6 1.6z"/><path d="m1.6 17.6c2.01-2 4.4-4.4 6.4-6.4h1.6v-1.6c2.01-2 4.4-4.4 6.4-6.4v-3.2c-5.28 5.28-10.72 10.72-16 16v3.2l1.6 1.6z"/></g></svg>