<svg enable-background="new 0 0 17 17" viewBox="0 0 17 17" xmlns="http://www.w3.org/2000/svg"><g fill="#2b221f"><path d="m12.1 9.7c-.2-.2-.6-.6-.8-.8h-.4v-.4c-.8-.8-1.6-1.6-2.4-2.4v.8c-.5.5-1.1 1.1-1.6 1.6v.4h-.4c-.5.5-1.1 1.1-1.6 1.6v4h7.2l.4-.4c0-1.3 0-2.7 0-4zm-.4 1.2h-.4v.8h-.4l.4.4c-.4 0-.8 0-1.2 0 0-.4 0-.8 0-1.2h1.2v-.4h.4zm-.8 2.8h-.4l-.4-.4c0-.2 0-.6 0-.8h1.2v1.2zm-4.8 0h-.4c0-.4 0-.8 0-1.2h1.2v.8l-.4.4zm1.6-4h.4l.4.4.4-.4h.8c-.4.4-.8.8-1.2 1.2-.4-.4-.8-.8-1.2-1.2zm-.4-.8 1.2-1.2 1.6 1.6c-.2 0-.6 0-.8 0-.2-.2-.6-.6-.8-.8-.2.2-.6.6-.8.8-.2 0-.6 0-.8 0zm-2 1.6h.4v.4h1.2v1.2c-.4 0-.8 0-1.2 0 0-.4 0-.8 0-1.2h-.4z"/><path d="m10.5 11.3h.4v.4h-.4z"/><path d="m10.5 12.9h.4v.4h-.4z"/><path d="m6.1 11.3h.4v.4h-.4z"/><path d="m6.1 12.9h.4v.4h-.4z"/></g><g fill="#4c3f3a"><path d="m11.3 10.5h.4v.4h-.4z"/><path d="m10.5 12.5h-.4v.8l.4.4h.8c0-.4 0-.8 0-1.2-.2 0-.6 0-.8 0zm.4.8h-.4v-.4h.4z"/><path d="m10.5 10.9h-.4v1.2h1.2l-.4-.4h-.4v-.4h.4v.4h.4c0-.2 0-.6 0-.8-.2 0-.6 0-.8 0z"/><path d="m9.7 8.9c-.4-.4-.8-.8-1.2-1.2-.5.5-1.1 1.1-1.6 1.6h.8l.8-.8.8.8h.8z"/><path d="m8.9 9.7-.4.4-.4-.4c-.2 0-.6 0-.8 0 .4.4.8.8 1.2 1.2l1.2-1.2c-.2 0-.6 0-.8 0z"/><path d="m6.1 10.9h-.4v1.2h1.2c0-.4 0-.8 0-1.2-.2 0-.6 0-.8 0zm.4.8h-.4v-.4h.4z"/><path d="m6.1 12.5h-.4v1.2h.8l.4-.4c0-.2 0-.6 0-.8-.2 0-.6 0-.8 0zm.4.8h-.4v-.4h.4z"/><path d="m5.3 10.5h.4v.4h-.4z"/><path d="m5.7 9.7c.2-.2.6-.6.8-.8h.4v-.4l1.6-1.6c0-.2 0-.6 0-.8-1.3 1.3-2.7 2.7-4 4v.8l.4.4c0-.2 0-.6 0-.8.2-.2.6-.6.8-.8z"/><path d="m4.5 12.1v2l.4.4c0-1.1 0-2.1 0-3.2l-.4.4z"/></g></svg>