<svg enable-background="new 0 0 40 40" viewBox="0 0 40 40" xmlns="http://www.w3.org/2000/svg"><path d="m20 7.6h-3.6v10.1h7.2v-10.1z" fill="#f2e2da"/><g fill="#ffcb4a"><path d="m34.4 15.9v1.8l1.8-1.8z"/><path d="m34.4 19.5h1.8v1.8h-1.8z"/><path d="m5.6 15.9h1.8l-1.8-1.8z"/><path d="m5.6 19.5v1.8l1.8-1.8-1.8-1.8z"/></g><g fill="#ecb821"><path d="m34.4 10.5v1.8h1.8z"/><path d="m34.4 19.5h1.8l-1.8-1.8z"/><path d="m32.6 19.5 1.8 1.8h-1.8z"/><path d="m7.4 21.3v-1.8l-1.8 1.8z"/><path d="m7.4 19.5v-3.6l-1.8 1.8z"/><path d="m5.6 17.7-1.8 1.8v1.8h1.8z"/></g><g fill="#302927"><path d="m39.8 19.5h-3.6v1.8h1.8z"/><path d="m36.2 23.1h-7.2l3.6 3.6h3.6c.9-.9 2.7-2.7 3.6-3.6z"/><path d="m29 19.5 1.8 1.8h1.8v-1.8z"/><path d="m32.6 19.5 1.8 1.8v-1.8z"/><path d="m7.4 23.1h-7.2l3.6 3.6h3.6c.9-.9 2.7-2.7 3.6-3.6z"/><path d="m7.4 19.5v1.8h1.8l1.8-1.8z"/><path d="m3.8 21.3v-1.8h-3.6l1.8 1.8z"/></g><path d="m38 21.3h-7.2l-1.8-1.8v3.6h10.8v-3.6z" fill="#4d3e39"/><path d="m7.4 21.3h-5.4l-1.8-1.8v3.6h10.8v-3.6l-1.8 1.8z" fill="#4d3e39"/><path d="m14.6 17.7v1.8l5.4 5.4 5.4-5.4v-3.6l1.8-1.8h-3.6v5.4h-7.2v-5.4h-3.6l1.8 1.8z" fill="#bdb49f"/><path d="m14.6 26.7 5.4 5.4 5.4-5.4v-1.8h1.8l1.8-1.8v-3.6l-1.8-1.8v3.6c-2.3 2.3-5 5-7.2 7.2l-7.2-7.2v-3.6l-1.8 1.8v3.6z" fill="#bdb49f"/><path d="m20 19.5h3.6v-1.8h-7.2v1.8z" fill="#7f7560"/><path d="m16.4 24.9 3.6 3.6 7.2-7.2v-7.2l-1.8 1.8v3.6l-5.4 5.4c-1.6-1.6-3.8-3.8-5.4-5.4v-3.6l-1.8-1.8v7.2z" fill="#857f69"/><path d="m11 24.9v1.8c2.9 2.9 6.1 6.1 9 9l9-9v-3.6l-1.8 1.8h-1.8v1.8c-1.6 1.6-3.8 3.8-5.4 5.4-2.9-2.9-6.1-6.1-9-9z" fill="#857f69"/><path d="m17.5 9.7h5v.6h-5z" fill="#302927"/><path d="m17.5 12h5v.6h-5z" fill="#302927"/><path d="m17.5 14.2h5v.6h-5z" fill="#302927"/></svg>