<svg enable-background="new 0 0 36.8 57.6" viewBox="0 0 36.8 57.6" xmlns="http://www.w3.org/2000/svg"><path d="m22.4 12.8-3.2-3.2c-1.4 1.4-3.4 3.4-4.8 4.8l4.8 4.8c1.4-1.4 3.4-3.4 4.8-4.8z" fill="#efe1da"/><path d="m19.2 28.8h-3.2v6.4h6.4v-6.4z" fill="#efe1da"/><path d="m17.6 24 1.6-1.6 1.6 1.6-1.6 1.6z" fill="#efe1da"/><g fill="#ffcb4a"><path d="m32 33.6v1.6l1.6-1.6z"/><path d="m32 36.8h1.6v1.6h-1.6z"/><path d="m6.4 33.6h1.6l-1.6-1.6z"/><path d="m6.4 36.8v1.6l1.6-1.6-1.6-1.6z"/></g><g fill="#ecb821"><path d="m32 28.8v1.6h1.6z"/><path d="m32 36.8h1.6l-1.6-1.6z"/><path d="m30.4 36.8h1.6v1.6h-1.6z"/><path d="m8 38.4v-1.6l-1.6 1.6z"/><path d="m8 36.8v-3.2l-1.6 1.6z"/><path d="m6.4 35.2-1.6 1.6v1.6h1.6z"/></g><g fill="#2c2320"><path d="m36.8 36.8h-3.2v1.6h1.6z"/><path d="m33.6 40h-6.4l3.2 3.2h3.2c.8-.8 2.4-2.4 3.2-3.2z"/><path d="m27.2 36.8 1.6 1.6h1.6v-1.6z"/><path d="m25.6 32v3.2c.8-.8 2.4-2.4 3.2-3.2v-20.8h-1.6l1.6-1.6c-2.6-2.6-5.4-5.4-8-8h-1.6v-1.6c-3.1 3.1-6.5 6.5-9.6 9.6l1.6 1.6h-1.6v20.8c.8.8 2.4 2.4 3.2 3.2v-4.8h1.6l-1.6-1.6v-9.6l1.6-1.6-1.6-1.6v-3.2l6.4-6.4c.8.8 2.4 2.4 3.2 3.2v1.6h1.6l1.6 1.6v14.4h-1.6l1.6 1.6z"/><path d="m8 40h-6.4l3.2 3.2h3.2c.8-.8 2.4-2.4 3.2-3.2z"/><path d="m8 36.8v1.6h1.6l1.6-1.6z"/><path d="m4.8 38.4v-1.6h-3.2l1.6 1.6z"/></g><g fill="#4d3e39"><path d="m35.2 38.4h-6.4l-1.6-1.6v3.2h9.6v-3.2z"/><path d="m28.8 9.6-1.6 1.6h1.6z"/><path d="m22.4 11.2v-1.6c-.8-.8-2.4-2.4-3.2-3.2l-6.4 6.4v3.2l1.6 1.6-1.6 1.6v9.6l1.6 1.6h-1.6v1.6h3.2v-3.2h6.4v3.2h3.2v-3.2l-1.6-1.6h1.6v-14.4l-1.6-1.6zm-3.2 14.4-1.6-1.6 1.6-1.6 1.6 1.6zm3.2-9.6c-.8.8-2.4 2.4-3.2 3.2-1.4-1.4-3.4-3.4-4.8-4.8 1.4-1.4 3.4-3.4 4.8-4.8l4.8 4.8z"/><path d="m19.2 0v1.6h1.6z"/><path d="m9.6 11.2h1.6l-1.6-1.6z"/><path d="m8 38.4h-4.8l-1.6-1.6v3.2h9.6v-3.2l-1.6 1.6z"/></g><g fill="#c0b8ac"><path d="m30.6 49.5-1.6 1.6h3.2z"/><path d="m32 43.2h-1.6c-.8-.8-2.4-2.4-3.2-3.2v3.2c-2.6 2.6-5.4 5.4-8 8-2.6-2.6-5.4-5.4-8-8v-3.2c-.8.8-2.4 2.4-3.2 3.2h-3.2l1.6 1.6h3.2l3.2 3.2h1.6v1.6h1.6v1.6l3.2 3.2 9.6-9.6h6.4v-3.2l-1.6 1.6z"/><path d="m14.4 35.2v1.6l4.8 4.8 4.8-4.8v-3.2l1.6-1.6h-3.2v4.8h-6.4v-4.8h-3.2l1.6 1.6z"/><path d="m14.4 43.2 4.8 4.8c1.4-1.4 3.4-3.4 4.8-4.8v-1.6h1.6l1.6-1.6v-3.2c.8-.8 2.4-2.4 3.2-3.2h3.2c-1.4-1.4-3.4-3.4-4.8-4.8v3.2c-.8.8-2.4 2.4-3.2 3.2v3.2c-2 2-4.4 4.4-6.4 6.4l-6.4-6.4v-3.2c-.8-.8-2.4-2.4-3.2-3.2v-3.2c-.8.8-2.4 2.4-3.2 3.2l1.6 1.6h1.6v1.6l1.6 1.6v3.2z"/><path d="m6.4 33.6v-1.6l-1.6 1.6z"/><path d="m3.2 43.2v1.6h1.6v-1.6l-1.6-1.6z"/><path d="m0 43.2h1.6v1.6h-1.6z"/></g><g fill="#a49e96"><path d="m30.6 51.1h-1.6v1.6h3.2v-1.6z"/><path d="m32 44.8h-3.2l-9.6 9.6c-.8-.8-2.4-2.4-3.2-3.2v-1.6h-1.6v-1.6h-1.6c-.8-.8-2.4-2.4-3.2-3.2h-3.2l-1.6-1.6v1.6h-1.6v1.6h4.8l11.2 11.2 11.2-11.2h4.8v-1.6z"/><path d="m33.6 35.2v-1.6l-1.6 1.6 1.6 1.6z"/><path d="m30.4 36.8h1.6v-3.2h-1.6c-.8.8-2.4 2.4-3.2 3.2z"/><path d="m19.2 36.8h3.2v-1.6h-6.4v1.6z"/><path d="m16 41.6 3.2 3.2 6.4-6.4v-6.4l-1.6 1.6v3.2l-4.8 4.8c-1.4-1.4-3.4-3.4-4.8-4.8v-3.2l-1.6-1.6v6.4z"/><path d="m11.2 41.6v1.6c2.6 2.6 5.4 5.4 8 8 2.6-2.6 5.4-5.4 8-8v-3.2l-1.6 1.6h-1.6v1.6c-1.4 1.4-3.4 3.4-4.8 4.8-2.6-2.6-5.4-5.4-8-8z"/><path d="m8 36.8h3.2l-1.6-1.6v-1.6h-1.6z"/><path d="m8 33.6h-3.2v3.2z"/><path d="m0 44.8h1.6v1.6h-1.6z"/></g></svg>