<svg enable-background="new 0 0 32 32" viewBox="0 0 32 32" xmlns="http://www.w3.org/2000/svg"><g fill="#f2e2da"><path d="m25.6 17.6.8.8.8-.8c-.4 0-1.2 0-1.6 0z"/><path d="m26.4 16.8.8-.8c-.4 0-1.2 0-1.6 0z"/><path d="m25.6 7.2c0-.7 0-1.7 0-2.4l-.8-.8c-.4 0-1.2 0-1.6 0l-.8.8.8.8v-.8h1.6v2.4c-.4 0-1.2 0-1.6 0l-.8.8h3.2z"/><path d="m23.2 8.8c-.4 0-1.2 0-1.6 0l.8.8h1.6l.8-.8c-.4 0-1.2 0-1.6 0z"/><path d="m15.2 6.4h-.8c0-.4 0-1.2 0-1.6l-.8-.8v3.2h1.6l.8-.8-.8-.8z"/><path d="m12.8 28.8h1.6l-.8-.8z"/><path d="m6.4 20.8.7-.8.8.8-.8.8z"/><path d="m4.8 11.2.8-.8.8.8-.9.8z"/></g><g fill="#302927"><path d="m29.6 15.2h.8v-.8z"/><path d="m28.8 17.6-.8-.8c0-.4 0-1.2 0-1.6-.4-.4-1.2-1.2-1.6-1.6l-.8.8v.8h-.8v3.2l-.8.8h6.4c-.4-.4-1.2-1.2-1.6-1.6zm-2.4-1.6h.8l-.8.8-.8-.8zm-.8 1.6h1.6l-.8.8z"/><path d="m28.8 24-.8-.8-.8.8z"/><path d="m27.2 20.8-.8-.8-.8.8z"/><path d="m25.6 22.4-.8.8c-.7-.7-1.7-1.7-2.4-2.4-1.6 1.6-3.2 3.2-4.8 4.8h7.2v.8l.8.8h2.4v-.8l-.8-.8-.8.8c-.4-.4-1.2-1.2-1.6-1.6h1.6l.8.8h1.6c-1-1-2.2-2.2-3.2-3.2z"/><path d="m23.2 16v-.8l-.8.8z"/><path d="m20.8 26.4h.8l-.8-.8-.8.8z"/><path d="m20 20-.8.8h2.4v-.8c-.4 0-1.2 0-1.6 0z"/><path d="m18.4 23.2h1.6l-.8-.8z"/><path d="m18.4 10.4h.8v.8l-.8.8h6.4c0-.4 0-1.2 0-1.6l.8.8h3.2l-.8-.8c0-.4 0-1.2 0-1.6l-.8-.8c0-.4 0-1.2 0-1.6l-.8-.8c0-.4 0-1.2 0-1.6-.4-.4-1.2-1.2-1.6-1.6v-.8c-.7 0-1.7 0-2.4 0-.4.4-1.2 1.2-1.6 1.6v1.6c-.4.4-1.2 1.2-1.6 1.6v1.6c-1-1-2.2-2.2-3.2-3.2 0-1 0-2.2 0-3.2l-.8-.8c-.4 0-1.2 0-1.6 0-.7.7-1.7 1.7-2.4 2.4v3.2c-.4.4-1.2 1.2-1.6 1.6v1.6l-.8.8h4.8l-.8.8h3.2l-.8-.8v-.8h-.8l.8-.8c.4.4 1.2 1.2 1.6 1.6zm4.8-.8h-.8l-.8-.8h3.2l-.8.8zm2.4-4.8v3.2c-1 0-2.2 0-3.2 0l.8-.8h1.6c0-.7 0-1.7 0-2.4-.4 0-1.2 0-1.6 0v.8l-.8-.8.8-.8h1.6zm-9.6 1.6-.8.8c-.4 0-1.2 0-1.6 0 0-1 0-2.2 0-3.2l.8.8v1.6h.8v-.8z"/><path d="m14.4 12.8h1.6l-.8-.8z"/><path d="m14.4 26.4c-.7 0-1.7 0-2.4 0-.4.4-1.2 1.2-1.6 1.6l.8.8h1.6l.8-.8.8.8h1.6c0-.4 0-1.2 0-1.6l-.8-.8z"/><path d="m14.4 24-.8-.8-.8.8z"/><path d="m10.4 24.8c-1 0-2.2 0-3.2 0-.4.4-1.2 1.2-1.6 1.6h6.4c-.4-.4-1.2-1.2-1.6-1.6z"/><path d="m10.4 12h.8v-.8c-.4 0-1.2 0-1.6 0l-.8.8z"/><path d="m8 9.6h1.6l-.8-.8z"/><path d="m7.2 28h1.6l-.8-.8z"/><path d="m4 26.4h1.6l-.8-.8z"/><path d="m4.8 23.2h5.6c-.4-.4-1.2-1.2-1.6-1.6 0-.4 0-1.2 0-1.6-.4-.4-1.2-1.2-1.6-1.6-.4.4-1.2 1.2-1.6 1.6v1.6c-.4.4-1.2 1.2-1.6 1.6zm2.4-3.2.8.8-.8.8-.8-.8z"/><path d="m4 20.8c-.7 0-1.7 0-2.4 0v.8h2.4z"/><path d="m4 19.2v-.8l-.8.8z"/><path d="m3.2 10.4v2.4l.8.8h3.2l.8-.8h1.6c-1-1-2.2-2.2-3.2-3.2 0-.4 0-1.2 0-1.6-.4-.4-1.2-1.2-1.6-1.6-.7.7-1.7 1.7-2.4 2.4l.8.8zm3.2.8-.8.8-.8-.8.8-.8z"/><path d="m.8 23.2h1.6l-.8-.8z"/><path d="m1.6 14.4-.8.8h.8z"/></g><g fill="#4d3e39"><path d="m30.4 14.4v.8h.8z"/><path d="m29.6 16.8-.8-.8c0-.4 0-1.2 0-1.6l-.8-.8c-.4 0-1.2 0-1.6 0 .4.4 1.2 1.2 1.6 1.6v1.6l2.4 2.4.8-.8c-.4-.4-1.2-1.2-1.6-1.6z"/><path d="m27.2 8 .8.8v1.6l.8.8.8-.8-.8-.8c0-.4 0-1.2 0-1.6-.4-.4-1.2-1.2-1.6-1.6z"/><path d="m26.4 4v1.6l.8.8c0-1 0-2.2 0-3.2-.4-.4-1.2-1.2-1.6-1.6h-.8v.8c.4.4 1.2 1.2 1.6 1.6z"/><path d="m25.6 24.8h-.8l1.6 1.6.8-.8-.8-.8z"/><path d="m25.6 14.4-.8.8h.8z"/><path d="m25.6 22.4-.8-.8c-.4 0-1.2 0-1.6 0l1.6 1.6z"/><path d="m24.8 10.4v1.6l.8-.8z"/><path d="m23.2 15.2v.8h.8z"/><path d="m20 20h1.6l-.8-.8z"/><path d="m19.2 8v-.8h-.8z"/><path d="m16.8 4.8c0-.7 0-1.7 0-2.4l-.8-.8v3.2l.8.8z"/><path d="m16 9.6-.8-.8-.8.8h.8v.8l.8.8h1.6c-.4-.4-1.2-1.2-1.6-1.6z"/><path d="m13.6 25.6h-.8l-.8.8h3.2l-.8-.8z"/><path d="m11.2 11.2v.8h.8z"/><path d="m9.6 20.8c0-.4 0-1.2 0-1.6-.4-.4-1.2-1.2-1.6-1.6l-.8.8c.4.4 1.2 1.2 1.6 1.6v1.6l1.6 1.6.8-.8c-.4-.4-1.2-1.2-1.6-1.6z"/><path d="m8.8 24h-.8l-.8.8h3.2l-.8-.8z"/><path d="m4 19.2h.8l-.8-.8z"/><path d="m2.4 20-.8.8h2.4v-.8c-.4 0-1.2 0-1.6 0z"/><path d="m2.4 13.6h1.6l-.8-.8c0-1 0-2.2 0-3.2l-.8-.8v3.2c-.4.4-1.2 1.2-1.6 1.6z"/><path d="m1.6 15.2h.8l-.8-.8z"/></g></svg>