<svg enable-background="new 0 0 60.8 49.6" viewBox="0 0 60.8 49.6" xmlns="http://www.w3.org/2000/svg"><g fill="#eee1d9"><path d="m52.8 27.2-1.6 1.6h3.2v-3.2z"/><path d="m51.2 24h1.6v1.6h-1.6z"/><path d="m46.4 6.4h-1.6l-1.6 1.6 1.6 1.6v-1.6h3.2v4.8h1.6v-4.8l-1.6-1.6z"/><path d="m44.8 12.8h-1.6v1.6h3.2l1.6-1.6z"/><path d="m46.4 11.2v-3.2l-1.6 1.6z"/><path d="m41.6 11.2h1.6v1.6h-1.6z"/><path d="m36.8 25.6h-10.6l1.6 1.6h9c-2 2-4.4 4.4-6.4 6.4-2.6-2.6-5.4-5.4-8-8h-3.2l1.6 1.6h1.6v1.6c.8.8 2.4 2.4 3.2 3.2h1.6v1.6l3.2 3.2 1.6-1.6v-1.6h1.6c2-2 4.4-4.4 6.4-6.4l-1.6-1.6z"/><path d="m28.8 12.8 1.6-1.6-1.6-1.6v1.6h-1.6v-3.2l-1.6-1.6v6.4z"/><path d="m9.6 16-1.6 1.6 1.6 1.6-1.6 1.6h3.2v-3.2h-1.6z"/></g><g fill="#4c3f39"><path d="m59.2 27.2c-.8-.8-2.4-2.4-3.2-3.2v3.2c.8.8 2.4 2.4 3.2 3.2l1.6-1.6z"/><path d="m56 20.8-1.6-1.6v-6.4l-1.6-1.6v6.4l-1.6 1.6 3.2 3.2v1.6h1.6z"/><path d="m52.8 8v-3.2c-.8-.8-2.4-2.4-3.2-3.2h-1.6v1.6c.8.8 2.4 2.4 3.2 3.2v3.2l1.6 1.6z"/><path d="m49.6 41.6h-1.6l3.2 3.2 1.6-1.6-1.6-1.6z"/><path d="m49.6 20.8-1.6 1.6h1.6z"/><path d="m49.6 36.8-1.6-1.6h-3.2l3.2 3.2z"/><path d="m44.8 22.4v1.6h1.6z"/><path d="m38.4 32h3.2l-1.6-1.6z"/><path d="m32 8v-4.8l-1.6-1.6v6.4l1.6 1.6z"/><path d="m30.4 17.6-1.6-1.6-1.6 1.6h1.6v1.6l1.6 1.6h3.2c-.8-.8-2.4-2.4-3.2-3.2z"/><path d="m25.6 43.2h-1.6l-1.6 1.6h6.4l-1.6-1.6z"/><path d="m20.8 20.8v1.6h1.6z"/><path d="m17.6 32h-1.6l1.6 1.6h3.2l-1.6-1.6z"/><path d="m17.6 27.2v1.6h1.6z"/><path d="m16 40h-1.6l-1.6 1.6h6.4l-1.6-1.6z"/><path d="m11.2 32h-1.6l1.6 1.6 1.6-1.6z"/><path d="m4.8 22.4v-4.8l-1.6-1.6v9.6h3.2l-1.6-1.6z"/></g><g fill="#2d2421"><path d="m57.6 28.8-1.6-1.6v-3.2h-1.6v-1.6l-3.2-3.2 1.6-1.6v-6.4l-1.6-1.6v-3.2c-.8-.8-2.4-2.4-3.2-3.2v-1.6h-4.8c-.8.8-2.4 2.4-3.2 3.2v3.2l-3.2 3.2v1.6h-1.6l-4.8-4.8v-6.4l-1.6-1.6h-3.2c-1.4 1.4-3.4 3.4-4.8 4.8v6.4c-.8.8-2.4 2.4-3.2 3.2v3.2l-1.6 1.6h9.6l-1.6 1.6h6.4l-1.6-1.6v-1.6h-1.6l1.6-1.6c.8.8 2.4 2.4 3.2 3.2h4.8v1.6l-1.6 1.6h12.8l1.6-1.6v1.6h-1.6v3.2c-1.4 1.4-3.4 3.4-4.8 4.8h3.2l1.6 1.6h9.6l1.6-1.6zm-8-20.8v4.8h-1.6l-1.6 1.6h-3.2v-1.6h-1.6v-1.6h1.6v1.6h4.8v-4.8h-1.6v3.2l-3.2-3.2 1.6-1.6h3.2zm-19.2 3.2-1.6 1.6h-3.2v-6.4l1.6 1.6v3.2h1.6v-1.6zm24 16v1.6h-3.2l3.2-3.2zm-1.6-1.6h-1.6v-1.6h1.6z"/><path d="m52.8 40c-.8-.8-2.4-2.4-3.2-3.2l-1.6 1.6c-1.4-1.4-3.4-3.4-4.8-4.8-3.1 3.1-6.5 6.5-9.6 9.6h14.4v1.6l1.6 1.6h4.8v-1.6l-1.6-1.6-1.6 1.6-3.2-3.2h3.2l1.6 1.6h3.2c-.8-.8-2.4-2.4-3.2-3.2z"/><path d="m51.2 33.6h1.6l-1.6-1.6-1.6 1.6z"/><path d="m44.8 9.6 1.6-1.6h-1.6z"/><path d="m44.8 24v-1.6l-1.6 1.6z"/><path d="m40 44.8h1.6l-1.6-1.6-1.6 1.6z"/><path d="m40 33.6h1.6v-1.6h-3.2l-1.6 1.6z"/><path d="m35.2 38.4h3.2l-1.6-1.6z"/><path d="m27.2 24h3.2l-1.6-1.6z"/><path d="m27.2 44.8h-4.8v1.6h8l-1.6-1.6z"/><path d="m22.4 41.6h6.4l-8-8h-3.2l-1.6-1.6-1.6 1.6-1.6-1.6-1.6 1.6-1.6-1.6v-3.2l-1.6-1.6c-2.6 2.6-5.4 5.4-8 8h3.2l3.2 3.2h3.2c-.8.8-2.4 2.4-3.2 3.2h6.4l1.6-1.6h3.2l1.6 1.6z"/><path d="m19.2 20.8h1.6v1.6h-1.6z"/><path d="m16 41.6h-3.2c-.8.8-2.4 2.4-3.2 3.2l1.6 1.6h3.2l1.6 1.6v-3.2h4.8v-1.6l-1.6-1.6z"/><path d="m14.4 27.2-1.6 1.6h4.8v-1.6z"/><path d="m6.4 44.8h3.2l-1.6-1.6z"/><path d="m4.8 19.2v4.8l1.6 1.6h6.4l1.6-1.6h3.2c-2-2-4.4-4.4-6.4-6.4v3.2h-3.2l1.6-1.6-1.6-1.6 1.6-1.6v1.6h1.6v-3.2c-.8-.8-2.4-2.4-3.2-3.2l-4.8 4.8 1.6 1.6z"/><path d="m0 38.4h3.2l-1.6-1.6z"/></g><g fill="#c0b8ac"><path d="m57.6 17.6h-3.2v1.6l1.6 1.6c.8-.8 2.4-2.4 3.2-3.2z"/><path d="m54.4 32h-3.2l1.6 1.6h-3.2l1.6-1.6h-3.2l-1.6-1.6h-3.2l4.8-4.8v-3.2h-3.2l1.6 1.6h-3.2l1.6-1.6h-9.6l1.6-1.6v-1.6h-4.8l1.6 1.6h-9.6l1.6-1.6h-9.6l1.6-1.6v-3.2h-3.2l-1.6 1.6h-1.6v1.6l6.4 6.4h-3.2l-1.6 1.6h-9.6l1.6 1.6h-3.2l-1.6 1.6h6.4l1.6-1.6 1.6 1.6v3.2h3.2l1.6 1.6 1.6-1.6h3.2c3.1 3.1 6.5 6.5 9.6 9.6h6.4l3.2-3.2h-3.2l1.6-1.6 1.6 1.6 4.8-4.8 1.6 1.6h3.2l3.2 3.2h4.8v-1.6h-3.2l4.8-4.8zm-24-8h-3.2l1.6-1.6zm-11.2-3.2h1.6l1.6 1.6h-3.2zm1.6 4.8h1.6l8 8 6.4-6.4h-9l-1.6-1.6h12.2l1.6 1.6c-2 2-4.4 4.4-6.4 6.4h-1.6v1.6l-1.6 1.6c-.8-.8-2.4-2.4-3.2-3.2v-1.6h-1.6c-.8-.8-2.4-2.4-3.2-3.2v-1.6h-1.6l-1.6-1.6zm-4.8 1.6h1.6l1.6 1.6h-6.4l1.6-1.6zm25.6 6.4h-4.8l3.2-3.2 1.6 1.6z"/><path d="m46.4 46.4h-25.6l-1.6-1.6h-3.2l3.2 3.2h30.4v-1.6z"/><path d="m43.2 44.8h4.8v-1.6h-8l1.6 1.6z"/><path d="m30.4 44.8h8l1.6-1.6h-12.8l1.6 1.6z"/><path d="m24 43.2h-3.2l1.6 1.6z"/><path d="m3.2 22.4-1.6 1.6 1.6 1.6z"/></g><g fill="#a59f96"><path d="m59.2 30.4c-2 2-4.4 4.4-6.4 6.4h3.2v1.6h-4.8l4.8 4.8v-3.2l4.8-4.8v-6.4z"/><path d="m59.2 24v-6.4c-.8.8-2.4 2.4-3.2 3.2v3.2l1.6 1.6z"/><path d="m46.4 44.8h-17.6l1.6 1.6h19.2l-1.6-1.6z"/><path d="m46.4 48h-27.2l-3.2-3.2v3.2l1.6 1.6h32v-1.6z"/><path d="m24 43.2h9.6l1.6-1.6h-16l1.6 1.6z"/><path d="m19.2 44.8 1.6 1.6h1.6v-1.6l-1.6-1.6v1.6z"/><path d="m3.2 28.8h-3.2v6.4l6.4-6.4z"/><path d="m4.8 27.2c-.8-.8-2.4-2.4-3.2-3.2v3.2z"/></g></svg>