<svg viewBox="0 0 54.4 38.4" xmlns="http://www.w3.org/2000/svg"><g fill="#f2e2da"><path d="m37.27 14.87h2.26v2.26h-2.26z" transform="matrix(.70710678 -.70710678 .70710678 .70710678 -.07 31.84)"/><path d="m30.87 14.87h2.26v2.26h-2.26z" transform="matrix(.70710678 -.70710678 .70710678 .70710678 -1.94 27.31)"/><path d="m32 14.4v-3.2h-3.2c.8.8 2.4 2.4 3.2 3.2z"/><path d="m28.8 20.8h3.2v-3.2c-.8.8-2.4 2.4-3.2 3.2z"/><path d="m26.07 3.67h2.26v2.26h-2.26z" transform="matrix(.70710678 -.70710678 .70710678 .70710678 4.57 20.64)"/><path d="m26.07 10.07h2.26v2.26h-2.26z" transform="matrix(.70710678 -.70710678 .70710678 .70710678 .05 22.51)"/><path d="m27.2 12.8-3.2 3.2 3.2 3.2 3.2-3.2c-.8-.8-2.4-2.4-3.2-3.2z"/><path d="m26.07 26.07h2.26v2.26h-2.26z" transform="matrix(.70710678 -.70710678 .70710678 .70710678 -11.27 27.2)"/><path d="m26.07 19.67h2.26v2.26h-2.26z" transform="matrix(.70710678 -.70710678 .70710678 .70710678 -6.74 25.33)"/><path d="m25.6 11.2h-3.2v3.2c.8-.8 2.4-2.4 3.2-3.2z"/><path d="m21.27 14.87h2.26v2.26h-2.26z" transform="matrix(.70710678 -.70710678 .70710678 .70710678 -4.75 20.52)"/><path d="m22.4 17.6v3.2h3.2c-.8-.8-2.4-2.4-3.2-3.2z"/><path d="m14.87 14.87h2.26v2.26h-2.26z" transform="matrix(.70710678 -.70710678 .70710678 .70710678 -6.63 16)"/></g><g fill="#c0b8ac"><path d="m27.2 0c-2.57 2.57-5.43 5.43-8 8v1.6h-1.6c-2 2.01-4.4 4.4-6.4 6.4 5.28 5.28 10.72 10.72 16 16l8-8v-1.6h1.6v-1.6h1.6c1.43-1.43 3.37-3.38 4.8-4.8 0 0-11.26-11.26-16-16zm3.2 20.8h-1.6l-1.6 1.6-1.6-1.6h-3.2v-3.2l-1.6-1.6 1.6-1.6v-3.2h3.2l1.6-1.6 1.6 1.6h3.2v3.2l1.6 1.6-1.6 1.6v3.2zm-3.2-17.6 1.6 1.6-1.6 1.6-1.6-1.6zm-12.8 12.8 1.6-1.6 1.6 1.6-1.6 1.6zm12.8 12.8-1.6-1.6 1.6-1.6 1.6 1.6zm11.2-11.2-1.6-1.6 1.6-1.6 1.6 1.6z"/><path d="m36.8 25.6c-1.43 1.43-3.38 3.37-4.8 4.8h8v-8c-.8.8-2.4 2.4-3.2 3.2z"/><path d="m32 17.6-1.6-1.6c-.8.8-2.4 2.4-3.2 3.2l1.6 1.6z"/><path d="m28.8 14.4 1.6 1.6 1.6-1.6c-.8-.8-2.4-2.4-3.2-3.2l-1.6 1.6z"/><path d="m25.6 17.6-1.6-1.6-1.6 1.6 3.2 3.2 1.6-1.6z"/><path d="m25.6 14.4 1.6-1.6-1.6-1.6c-.8.8-2.4 2.4-3.2 3.2l1.6 1.6z"/><path d="m19.2 27.2-4.8-4.8v8h1.6l1.6-1.6v1.6h4.8z"/></g><g fill="#a39e96"><path d="m41.6 17.6c-.8.8-2.4 2.4-3.2 3.2h-1.6v1.6h-1.6v1.6c-2.57 2.57-5.43 5.43-8 8-5.28-5.28-10.72-10.72-16-16v9.6l3.2 3.2v-6.4l8 8h-4.8v-1.6l-1.6 1.6h-1.6v3.2h8c1.43 1.43 3.37 3.38 4.8 4.8 1.43-1.43 3.38-3.37 4.8-4.8h8v-3.2h-8c2.57-2.57 5.43-5.43 8-8v6.4l3.2-3.2v-9.6z"/><path d="m36.8 9.6 3.2 3.2v-6.4h-6.4c.8.8 2.4 2.4 3.2 3.2z"/><path d="m17.6 9.6h1.6v-1.6l1.6-1.6h-6.4v6.4c.8-.8 2.4-2.4 3.2-3.2z"/></g><g fill="#ecb81e"><path d="m48 4.8 1.6 1.6v-3.2z"/><path d="m48 1.6-1.6 1.6h1.6z"/><path d="m46.4 6.4v3.2h3.2v-1.6h-1.6z"/><path d="m4.8 6.4v3.2h3.2c-.8-.8-2.4-2.4-3.2-3.2z"/></g><g fill="#fecb49"><path d="m51.2 8h-1.6v1.6h3.2z"/><path d="m51.2 1.6-1.6-1.6v6.4l1.6-1.6z"/><path d="m4.8 3.2v-3.2l-1.6 1.6z"/><path d="m3.2 8-1.6-1.6v3.2h3.2v-3.2l-1.6-1.6z"/></g><g fill="#2a211e"><path d="m51.2 8 1.6 1.6-1.6 1.6h-6.4l1.6 1.6h1.6v1.6l1.6-1.6v6.4h-3.2l1.6 1.6v3.2l-3.2 3.2h3.2l1.6 1.6 1.6-1.6h3.2l-3.2-3.2v-3.2l1.6-1.6-1.6-1.6v-4.8h1.6l1.6-1.6v-3.2z"/><path d="m46.4 8h-1.6l1.6 1.6z"/><path d="m6.4 8 1.6 1.6-1.6 1.6h-6.4l1.6 1.6h1.6v1.6l1.6-1.6v6.4h-3.2l1.6 1.6v3.2c-.8.8-2.4 2.4-3.2 3.2h3.2l1.6 1.6 1.6-1.6h3.2c-.8-.8-2.4-2.4-3.2-3.2v-3.2l1.6-1.6-1.6-1.6v-4.8h1.6l1.6-1.6v-3.2z"/><path d="m1.6 8h-1.6l1.6 1.6z"/></g><g fill="#4c3f39"><path d="m51.2 9.6h-4.8l-1.6-1.6v3.2h6.4l1.6-1.6z"/><path d="m48 17.6-1.6 1.6h3.2v-6.4l-1.6 1.6z"/><path d="m4.8 9.6h-3.2l-1.6-1.6v3.2h6.4l1.6-1.6z"/><path d="m3.2 17.6-1.6 1.6h3.2v-6.4l-1.6 1.6z"/></g></svg>