<svg enable-background="new 0 0 40 40" viewBox="0 0 40 40" xmlns="http://www.w3.org/2000/svg"><g fill="#f2e2da"><path d="m29.6 18.4 1.6-1.6 1.6 1.6-1.6 1.6z"/><path d="m23.2 18.4 1.6-1.6 1.6 1.6-1.6 1.6z"/><path d="m24.8 16.8v-3.2h-3.2z"/><path d="m21.6 23.2h3.2v-3.2c-.8.8-2.4 2.4-3.2 3.2z"/><path d="m18.4 7.2 1.6-1.6 1.6 1.6-1.6 1.6z"/><path d="m18.4 13.6 1.6-1.6 1.6 1.6-1.6 1.6z"/><path d="m20 15.2-3.2 3.2 3.2 3.2 3.2-3.2c-.8-.8-2.4-2.4-3.2-3.2z"/><path d="m18.4 29.6 1.6-1.6 1.6 1.6-1.6 1.6z"/><path d="m18.4 23.2 1.6-1.6 1.6 1.6-1.6 1.6z"/><path d="m18.4 13.6h-3.2v3.2c.8-.8 2.4-2.4 3.2-3.2z"/><path d="m13.6 18.4 1.6-1.6 1.6 1.6-1.6 1.6z"/><path d="m15.2 20v3.2h3.2c-.8-.8-2.4-2.4-3.2-3.2z"/><path d="m7.2 18.4 1.6-1.6 1.6 1.6-1.6 1.6z"/></g><g fill="#bdb49f"><path d="m20 2.4c-2.6 2.6-5.4 5.4-8 8v1.6h-1.6c-2 2-4.4 4.4-6.4 6.4l16 16 8-8v-1.6h1.6v-1.6h1.6l4.8-4.8s-11.3-11.3-16-16zm3.2 20.8h-1.6l-1.6 1.6-1.6-1.6h-3.2v-3.2l-1.6-1.6 1.6-1.6v-3.2h3.2l1.6-1.6 1.6 1.6h3.2v3.2l1.6 1.6-1.6 1.6v3.2zm-3.2-17.6 1.6 1.6-1.6 1.6-1.6-1.6zm-12.8 12.8 1.6-1.6 1.6 1.6-1.6 1.6zm12.8 12.8-1.6-1.6 1.6-1.6 1.6 1.6zm11.2-11.2-1.6-1.6 1.6-1.6 1.6 1.6z"/><path d="m24.8 20-1.6-1.6c-.8.8-2.4 2.4-3.2 3.2l1.6 1.6z"/><path d="m21.6 16.8 1.6 1.6 1.6-1.6c-.8-.8-2.4-2.4-3.2-3.2l-1.6 1.6z"/><path d="m18.4 20-1.6-1.6-1.6 1.6 3.2 3.2 1.6-1.6z"/><path d="m18.4 16.8 1.6-1.6-1.6-1.6c-.8.8-2.4 2.4-3.2 3.2l1.6 1.6z"/></g><path d="m34.4 20c-.8.8-2.4 2.4-3.2 3.2h-1.6v1.6h-1.6v1.6c-2.6 2.6-5.4 5.4-8 8-5.3-5.3-10.7-10.7-16-16v3.3s14.6 14.5 16 15.9c1.4-1.4 16-15.9 16-15.9v-3.3z" fill="#857f69"/></svg>