<svg enable-background="new 0 0 32 32" viewBox="0 0 32 32" xmlns="http://www.w3.org/2000/svg"><path d="m16 26.8v1.2h-1.2z" fill="#fdca49"/><g fill="#ebb71e"><path d="m17.2 28-1.2-1.2v1.2z"/><path d="m14.8 26.8h1.2l-1.2-1.2z"/><path d="m10 26.8v-1.2l-1.2 1.2z"/></g><path d="m10 23.2v1.2h-1.2z" fill="#fdca49"/><path d="m23.2 7.6c-1.1-1.1-2.5-2.5-3.6-3.6-2.3 0-4.9 0-7.2 0-1.5 1.5-3.3 3.3-4.8 4.8v2.4c1.9 1.9 4.1 4.1 6 6h4.8l1.2 1.2v2.4c1.5-1.5 3.3-3.3 4.8-4.8l-1.2-1.2c0-.6 0-1.8 0-2.4l1.2-1.2c0-.6 0-1.8 0-2.4z" fill="#bfb7ab"/><path d="m25.6 5.2c-1.5-1.5-3.3-3.3-4.8-4.8-3.2 0-6.4 0-9.6 0-1.9 1.9-4.1 4.1-6 6v4.8l6 6v14.4h9.6c1.5-1.5 3.3-3.3 4.8-4.8 0-3.2 0-6.4 0-9.6l1.2-1.2c0-3.2 0-6.4 0-9.6zm-10.8 22.8 1.2-1.2h-1.2v-1.2l2.4 2.4h-1.2v1.2zm9.6-1.2h-1.2v1.2h-1.2v1.2h-1.2l3.6-3.6zm0-2.4h-1.2v1.2h-1.2v1.2h-1.2l3.6-3.6zm0-2.4h-1.2v1.2h-1.2v1.2h-1.2l3.6-3.6zm0-2.4h-1.2v1.2h-1.2v1.2h-1.2l3.6-3.6zm-1.2-2.4c-1.1 1.1-2.5 2.5-3.6 3.6 0-.6 0-1.8 0-2.4l-1.2-1.2c-1.5 0-3.3 0-4.8 0-1.9-1.9-4.1-4.1-6-6 0-.6 0-1.8 0-2.4 1.5-1.5 3.3-3.3 4.8-4.8h7.2c0-.6 0-1.8 0-2.4 1.5 1.5 3.3 3.3 4.8 4.8v4.8l-1.2 1.2 1.2 1.2v2.4z" fill="#29201d"/><path d="m10 28v-1.2h-1.2z" fill="#29201d"/><g fill="#4f4139"><path d="m24.4 26.8v-1.2l-1.2 1.2z"/><path d="m24.4 24.4v-1.2l-1.2 1.2z"/><path d="m24.4 22v-1.2l-1.2 1.2z"/><path d="m24.4 19.6v-1.2l-1.2 1.2z"/><path d="m23.2 5.2c-1.1-1.1-2.5-2.5-3.6-3.6v2.4c1.5 1.5 3.3 3.3 4.8 4.8 0-.6 0-1.8 0-2.4z"/><path d="m23.2 13.6v1.2l1.2 1.2c0-.6 0-1.8 0-2.4l-1.2-1.2z"/><path d="m23.2 28v-1.2l-1.2 1.2z"/><path d="m23.2 25.6v-1.2l-1.2 1.2z"/><path d="m23.2 23.2v-1.2l-1.2 1.2z"/><path d="m23.2 20.8v-1.2l-1.2 1.2z"/><path d="m22 29.2v-1.2l-1.2 1.2z"/><path d="m22 26.8v-1.2l-1.2 1.2z"/><path d="m22 24.4v-1.2l-1.2 1.2z"/><path d="m22 22v-1.2l-1.2 1.2z"/><path d="m16 29.2v-1.2h-1.2z"/><path d="m8.8 14.8c-1.1-1.1-2.5-2.5-3.6-3.6v4.8l2.4 2.4v9.6l3.6 3.6c0-4.8 0-9.6 0-14.4-.6-.6-1.8-1.8-2.4-2.4zm1.2 12v1.2l-1.2-1.2 1.2-1.2zm0-2.4h-1.2l1.2-1.2z"/></g></svg>